<?xml version="1.0" encoding="UTF-8"?>
<svg width="271px" height="46px" viewBox="0 0 271 46" version="1.1" xmlns="http://www.w3.org/2000/svg" xmlns:xlink="http://www.w3.org/1999/xlink">
    <title>logo</title>
    <g id="SG-FS" stroke="none" stroke-width="1" fill="none" fill-rule="evenodd">
        <g id="SG-Mobile-Lobby-Loading" transform="translate(-52.000000, -550.000000)" fill-rule="nonzero">
            <g id="logo" transform="translate(52.000000, 550.000000)">
                <path d="M19.7818953,3.7122807 C21.5035328,4.89590643 30.2731234,11.0830409 33.9316029,17.0549708 C37.751486,23.3497076 36.6216614,29.5368421 33.6625971,32.2269006 C30.5421292,35.0245614 24.3549947,33.3567251 24.3011936,33.3567251 L24.3011936,33.3567251 L23.7093807,33.1953216 L23.6555795,33.8409357 C23.6555795,33.948538 23.3327725,37.4994152 25.9690298,40.3508772 C28.1210766,42.7181287 31.5105503,43.9017544 36.0298485,43.9017544 L36.0298485,43.9017544 L36.0298485,46 C30.8111351,46 26.8836497,44.5473684 24.3011936,41.7497076 C21.2883281,38.4140351 21.3959304,35.0245614 21.4497316,33.625731 C21.5035328,32.2269006 21.7725386,30.5052632 21.7725386,30.5052632 L21.7725386,30.5052632 L24.7854041,31.3122807 C26.1304333,31.6888889 30.3807257,32.3345029 32.2099655,30.6666667 C34.5234158,28.5684211 35.2766322,23.4573099 32.048562,18.1847953 C29.1432988,13.4502924 22.6333573,8.44678363 19.7280942,6.34853801 C16.822831,8.44678363 10.3128895,13.4502924 7.40762632,18.1847953 C4.17955614,23.4573099 4.87897135,28.5684211 7.24622281,30.6666667 C9.12926375,32.2807018 13.325755,31.6350877 14.6707842,31.3122807 L14.6707842,31.3122807 L17.6836497,30.5052632 C17.6836497,30.5052632 17.9526556,32.2269006 18.0064567,33.625731 C18.0602579,35.0245614 18.2216614,38.4140351 15.1549947,41.7497076 C12.5725386,44.5473684 8.64505322,46 3.42633977,46 L3.42633977,46 L3.42633977,43.9017544 C8.05324035,43.9017544 11.442714,42.7181287 13.5947608,40.3508772 C16.2310181,37.4994152 15.9082111,34.0023392 15.9082111,33.8409357 L15.9082111,33.8409357 L15.8544099,33.1953216 L15.2625971,33.3567251 C15.2087959,33.3567251 8.96786024,34.9707602 5.90119357,32.2269006 C2.88832807,29.5368421 1.81230468,23.2959064 5.63218772,17.0549708 C9.29066725,11.0830409 18.0602579,4.89590643 19.7818953,3.7122807 Z M19.7818953,0 L21.2345269,0.968421053 C21.6649363,1.2374269 32.2099655,8.28538012 36.6216614,15.4947368 C41.3561643,23.2959064 39.7959304,31.0432749 35.7608427,34.6479532 C33.3935912,36.8 30.0579187,37.122807 27.4216614,37.0690058 C27.6368661,37.4994152 27.9058719,37.8760234 28.2824801,38.3064327 C29.842714,39.974269 32.4251702,40.7812865 36.0836497,40.7812865 L36.0836497,40.7812865 L36.0836497,42.8795322 C31.8333573,42.8795322 28.6590883,41.8035088 26.7222462,39.7052632 C25.0544099,37.8760234 24.7316029,35.6701754 24.6778018,34.594152 C26.5070415,34.9707602 31.4567491,35.6701754 34.3620123,33.0877193 C37.6976848,30.0748538 38.9889129,23.4573099 34.7924216,16.6245614 C30.6497316,9.84561404 20.4813105,3.0128655 20.0509012,2.74385965 L20.0509012,2.74385965 L19.7818953,2.52865497 L19.5128895,2.74385965 C19.0824801,3.0128655 8.91405907,9.84561404 4.77136901,16.6245614 C0.574877781,23.4035088 1.81230468,30.0748538 5.20177837,33.0877193 C8.10704152,35.6701754 13.1105503,34.9707602 14.8859889,34.594152 C14.8321877,35.6701754 14.5631819,37.8760234 12.8415444,39.7052632 C10.9047023,41.8035088 7.78423451,42.8795322 3.48014094,42.8795322 L3.48014094,42.8795322 L3.48014094,40.7812865 C7.13862047,40.7812865 9.77487778,39.9204678 11.2813105,38.3064327 C11.6579187,37.9298246 11.9269246,37.4994152 12.1421292,37.0690058 C9.50587193,37.1766082 6.22400059,36.8 3.80294796,34.6479532 C-0.232139763,31.0432749 -1.84617485,23.2959064 2.94212924,15.4947368 C7.35382515,8.28538012 17.8988544,1.29122807 18.3292637,0.968421053 L18.3292637,0.968421053 L19.7818953,0 Z" id="Combined-Shape" fill="#BA1218"></path>
                <path d="M60.7245854,22.3812865 C58.6263398,20.8210526 57.2275094,19.7450292 56.6356965,19.2608187 C56.2590883,18.9380117 55.8824801,18.5076023 55.4520708,17.9695906 C55.0216614,17.4315789 54.7526556,16.7321637 54.7526556,15.8175439 C54.7526556,14.6877193 55.0754626,13.7730994 55.7748778,13.0736842 C56.474293,12.374269 57.3889129,12.051462 58.5725386,12.051462 C61.1011936,12.051462 62.5538251,13.5578947 63.0380357,16.5707602 L63.9526556,16.5707602 L63.9526556,12.051462 C63.9526556,11.8362573 63.8988544,11.6748538 63.7912521,11.6210526 C63.3070415,11.0830409 61.6930064,10.8140351 58.8953456,10.8140351 C56.8509012,10.8140351 55.0754626,11.2982456 53.622831,12.2666667 C52.0087959,13.3964912 51.1479772,14.9567251 51.1479772,16.8935673 C51.1479772,18.077193 51.4707842,19.0994152 52.0625971,19.9064327 C52.6544099,20.7134503 53.8380357,21.7356725 55.5058719,22.9192982 C58.1421292,24.748538 59.8637667,26.1473684 60.6707842,27.1695906 C61.5316029,28.1380117 61.9082111,29.2678363 61.9082111,30.5052632 C61.9082111,31.8502924 61.4778018,32.9263158 60.5631819,33.7871345 C59.648562,34.6479532 58.5725386,35.0783626 57.1737082,35.0783626 C55.2368661,35.0783626 53.7304333,34.3251462 52.6544099,32.7649123 C52.2240006,32.1192982 51.9011936,31.0432749 51.6321877,29.5368421 L50.8789713,29.5368421 L50.8789713,34.4865497 C50.8789713,34.8631579 51.0403749,35.1321637 51.2555795,35.2397661 C51.7397901,35.4549708 52.5468076,35.7239766 53.7842345,35.9391813 C54.9678602,36.154386 56.0976848,36.2619883 57.0661059,36.2619883 C59.648562,36.2619883 61.7468076,35.6163743 63.3070415,34.3789474 C64.8672754,33.0877193 65.674293,31.419883 65.674293,29.3754386 C65.674293,28.0842105 65.2976848,26.954386 64.5982696,25.9321637 C63.9526556,24.9637427 62.6076263,23.780117 60.7245854,22.3812865 Z M79.0707842,17.8619883 C76.5959304,17.8619883 74.551486,18.8304094 72.9912521,20.7672515 L72.9912521,17.8619883 C71.4848193,18.722807 69.494176,19.2070175 67.0193222,19.3146199 L67.0193222,20.1754386 L67.8263398,20.1754386 C68.5795561,20.1754386 69.1175678,20.2830409 69.3865737,20.4982456 C69.6555795,20.7134503 69.816983,21.1976608 69.816983,21.897076 L69.816983,40.1894737 C69.816983,41.6959064 69.7093807,42.6643275 69.4403749,42.9333333 C69.171369,43.2561404 68.3643515,43.5251462 67.0193222,43.6865497 L67.0193222,44.6011696 L76.6497316,44.6011696 L76.6497316,43.6865497 C74.874293,43.5251462 73.8520708,43.2561404 73.5292637,42.9871345 C73.2064567,42.6643275 73.0450532,41.7497076 73.0450532,40.1894737 L73.0450532,35.4549708 C74.3900825,35.9929825 75.7351117,36.2619883 77.0263398,36.2619883 C79.7163982,36.2619883 81.9222462,35.2935673 83.6976848,33.4105263 C85.4731234,31.5274854 86.3339421,29.0526316 86.3339421,26.1473684 C86.3339421,23.6187135 85.6883281,21.574269 84.3432988,20.0678363 C82.9982696,18.5614035 81.2766322,17.8619883 79.0707842,17.8619883 Z M81.2766322,32.980117 C80.2544099,34.4327485 78.8555795,35.1321637 77.0263398,35.1321637 C75.6275094,35.1321637 74.2824801,34.594152 73.0450532,33.4643275 L73.0450532,27.277193 C73.0450532,25.394152 73.1526556,24.0491228 73.3140591,23.1883041 C73.8520708,20.7672515 75.2509012,19.5298246 77.5105503,19.5298246 C79.1245854,19.5298246 80.4696146,20.1754386 81.3842345,21.4666667 C82.3526556,22.7578947 82.8368661,24.5871345 82.8368661,26.8467836 C82.7830649,29.4830409 82.2988544,31.5274854 81.2766322,32.980117 Z M102.420492,33.8947368 C101.936281,33.8947368 101.613474,33.7333333 101.452071,33.302924 C101.290667,32.9263158 101.183065,32.2269006 101.183065,31.2584795 L101.183065,23.4573099 C101.183065,21.4666667 100.698854,20.0678363 99.7842345,19.1532164 C98.8696146,18.2385965 97.3631819,17.8081871 95.2649363,17.8081871 C93.5971,17.8081871 92.0906673,18.1309942 90.745638,18.722807 C90.2614275,18.9380117 89.9386205,19.2608187 89.8310181,19.7450292 L89.2930064,21.7356725 C89.2392053,21.897076 89.3468076,22.0046784 89.5620123,22.1122807 L90.6380357,22.3812865 C90.745638,22.3812865 90.7994392,22.4350877 90.9070415,22.4350877 C91.068445,22.4350877 91.3374509,22.1660819 91.6602579,21.574269 C92.5748778,19.8526316 93.6509012,18.9918129 94.9421292,18.9918129 C96.9327725,18.9918129 97.9549947,20.7134503 97.9549947,24.102924 L94.1351117,25.6093567 C92.5748778,26.2011696 91.4450532,26.6853801 90.745638,27.1157895 C88.9701994,28.1918129 88.0555795,29.6444444 88.0555795,31.4736842 C88.0555795,32.8725146 88.4859889,34.0023392 89.3468076,34.9169591 C90.2076263,35.7777778 91.2836497,36.2081871 92.6824801,36.2081871 C93.4356965,36.2081871 94.2965152,35.8853801 95.2649363,35.2397661 L97.9549947,33.4105263 C98.0087959,34.3789474 98.2778018,35.3473684 98.8158135,36.2081871 L103.819322,34.594152 L103.604118,33.625731 C103.066106,33.8409357 102.689498,33.8947368 102.420492,33.8947368 Z M98.0087959,28.1918129 C98.0087959,32.1192982 96.7175678,34.0561404 94.1889129,34.0561404 C93.3280942,34.0561404 92.628679,33.7871345 92.0906673,33.2491228 C91.5526556,32.7111111 91.2836497,31.9578947 91.2836497,31.097076 C91.2836497,29.1602339 92.4672754,27.7076023 94.8883281,26.6853801 C95.6953456,26.3625731 96.7175678,25.9321637 98.0087959,25.5017544 L98.0087959,28.1918129 Z M122.811135,33.8947368 C121.950316,33.8947368 121.519907,33.0339181 121.519907,31.2584795 L121.519907,9.8994152 C119.636866,10.5988304 117.646223,10.9754386 115.547977,10.9754386 L115.547977,11.9438596 L116.516398,11.9438596 C117.215813,11.9438596 117.700024,12.051462 117.96903,12.2666667 C118.238036,12.4818713 118.399439,13.019883 118.399439,13.9345029 L118.399439,18.4 C117.215813,18.0233918 115.924585,17.8619883 114.579556,17.8619883 C111.728094,17.8619883 109.468445,18.722807 107.746808,20.4444444 C105.971369,22.1660819 105.11055,24.425731 105.11055,27.1695906 C105.11055,29.7520468 105.863767,31.9040936 107.370199,33.625731 C108.876632,35.3473684 110.759673,36.2619883 112.965521,36.2619883 C113.82634,36.2619883 114.848562,35.8853801 116.032188,35.1859649 L118.399439,33.7871345 L118.399439,34.0023392 C118.45324,34.9169591 118.722246,35.6163743 119.152656,36.2081871 L124.209966,34.594152 L123.94096,33.625731 C123.456749,33.8409357 123.080141,33.8947368 122.811135,33.8947368 Z M118.399439,29.805848 C118.399439,31.2046784 118.184235,32.1192982 117.807626,32.6035088 C117.377217,33.0339181 116.839205,33.4643275 116.193591,33.7871345 C115.494176,34.1637427 114.794761,34.3251462 114.149147,34.3251462 C112.319907,34.3251462 110.921077,33.3567251 109.898854,31.4736842 C109.038036,29.9134503 108.607626,28.1380117 108.607626,26.1473684 C108.607626,24.2105263 109.038036,22.5964912 109.952656,21.251462 C110.974878,19.7450292 112.427509,18.9918129 114.202948,18.9918129 C116.032188,18.9918129 117.431018,19.6912281 118.399439,21.1438596 L118.399439,29.805848 L118.399439,29.805848 Z M139.812305,22.3274854 C138.897685,19.3146199 136.85324,17.8081871 133.62517,17.8081871 C131.204118,17.8081871 129.267275,18.6152047 127.814644,20.2830409 C126.25441,22.0584795 125.447392,24.2105263 125.447392,26.7391813 C125.447392,29.3754386 126.25441,31.6350877 127.814644,33.625731 C129.267275,35.4011696 131.580726,36.3157895 134.701194,36.3157895 L135.615813,36.3157895 L140.188913,34.1099415 L139.650901,33.0339181 C138.036866,33.8409357 136.691837,34.2175439 135.562012,34.2175439 C134.324585,34.2175439 133.194761,33.948538 132.280141,33.4105263 C130.020492,32.1192982 128.890667,29.6982456 128.836866,26.0935673 L140.188913,26.0935673 C140.242714,24.5333333 140.081311,23.2959064 139.812305,22.3274854 Z M134.916398,24.8561404 L128.890667,24.8561404 C128.99827,23.780117 129.105872,22.9730994 129.267275,22.4350877 C129.966691,20.1754386 131.31172,19.045614 133.409966,19.045614 C134.485989,19.045614 135.400609,19.4222222 136.153825,20.1216374 C136.85324,20.8748538 137.229849,21.7356725 137.229849,22.8116959 C137.176047,24.1567251 136.422831,24.8561404 134.916398,24.8561404 Z M159.073123,17.8619883 L159.449732,18.2923977 L158.373708,19.7988304 L154.76903,19.7988304 C155.791252,20.928655 156.275463,22.2736842 156.275463,23.8877193 C156.275463,25.6093567 155.629849,27.0619883 154.284819,28.1918129 C152.993591,29.3216374 151.379556,29.9134503 149.388913,29.9134503 L149.388913,29.9134503 L147.990082,29.9134503 C147.344468,30.3976608 147.021661,30.8818713 147.021661,31.3122807 C147.021661,31.6888889 147.236866,32.0116959 147.721077,32.1730994 C148.420492,32.3883041 149.657919,32.6573099 151.487158,32.9263158 C153.262597,33.1953216 154.553825,33.5181287 155.414644,33.8947368 C157.297685,34.7017544 158.212305,36.1005848 158.212305,38.0912281 C158.212305,40.0818713 157.297685,41.7497076 155.414644,43.0947368 C153.962012,44.1707602 152.078971,44.7087719 149.819322,44.7087719 C148.312889,44.7087719 146.96786,44.4397661 145.676632,43.9017544 C144.385404,43.3637427 143.416983,42.6643275 142.771369,41.8035088 C142.018153,40.7812865 141.641544,39.5976608 141.641544,38.1450292 C141.641544,37.445614 141.802948,37.0152047 142.071954,36.8538012 L142.071954,36.8538012 L145.784235,34.8631579 C144.224001,34.5403509 143.470784,33.8409357 143.470784,32.7649123 C143.470784,32.7111111 143.524585,32.6035088 143.524585,32.4421053 L143.524585,32.4421053 L143.524585,32.1730994 L146.914059,29.3754386 C144.224001,28.1918129 142.878971,26.3087719 142.878971,23.780117 C142.878971,22.0046784 143.578387,20.5520468 144.869615,19.4760234 C146.214644,18.4 147.88248,17.8619883 149.980726,17.8619883 C151.11055,17.8619883 152.132773,18.0233918 153.101194,18.3461988 C153.370199,18.4 153.693006,18.4 154.015813,18.4 C155.898854,18.4 157.566691,18.1847953 159.073123,17.8619883 L159.073123,17.8619883 Z M147.452071,35.1321637 C146.322246,35.8853801 145.56903,36.477193 145.192422,37.0690058 C144.815813,37.6070175 144.600609,38.2526316 144.600609,39.0596491 C144.600609,40.3508772 145.13862,41.3730994 146.160843,42.2339181 C147.236866,43.0409357 148.528094,43.471345 150.142129,43.471345 C151.702363,43.471345 152.993591,43.0409357 154.015813,42.2877193 C155.038036,41.5345029 155.522246,40.5122807 155.522246,39.328655 C155.522246,37.7146199 154.661427,36.6923977 153.047392,36.2081871 C152.45558,36.0467836 151.702363,35.8853801 150.895346,35.7239766 L150.895346,35.7239766 Z M166.605287,17.8081871 C168.703533,17.8081871 170.156164,18.2385965 171.124585,19.1532164 C172.039205,20.0678363 172.523416,21.4666667 172.523416,23.4573099 L172.523416,23.4573099 L172.523416,31.2584795 C172.523416,32.2269006 172.631018,32.9263158 172.792422,33.302924 C172.953825,33.7333333 173.276632,33.8947368 173.760843,33.8947368 C174.029849,33.8947368 174.460258,33.8409357 174.836866,33.625731 L174.836866,33.625731 L175.052071,34.594152 L170.048562,36.2081871 C169.51055,35.3473684 169.241544,34.3789474 169.187743,33.4105263 L169.187743,33.4105263 L166.497685,35.2397661 C165.529264,35.8853801 164.668445,36.2081871 163.915229,36.2081871 C162.570199,36.2081871 161.494176,35.7777778 160.633357,34.9169591 C159.82634,34.0023392 159.39593,32.8725146 159.39593,31.4736842 C159.39593,29.6444444 160.31055,28.1918129 162.085989,27.1157895 C162.785404,26.6853801 163.915229,26.2011696 165.475463,25.6093567 L165.475463,25.6093567 L169.295346,24.102924 C169.295346,20.7134503 168.273123,18.9918129 166.28248,18.9918129 C164.991252,18.9918129 163.915229,19.8526316 163.000609,21.574269 C162.677802,22.1660819 162.408796,22.4350877 162.247392,22.4350877 C162.13979,22.4350877 162.085989,22.3812865 161.978387,22.3812865 L161.978387,22.3812865 L160.902363,22.1122807 C160.687158,22.0046784 160.579556,21.897076 160.633357,21.7356725 L160.633357,21.7356725 L161.171369,19.7450292 C161.278971,19.2608187 161.601778,18.9380117 162.085989,18.722807 C163.431018,18.1309942 164.937451,17.8081871 166.605287,17.8081871 Z M169.349147,25.5017544 C168.057919,25.9321637 167.035696,26.3625731 166.228679,26.6853801 C163.807626,27.7076023 162.624001,29.1602339 162.624001,31.097076 C162.624001,31.9578947 162.893006,32.7111111 163.431018,33.2491228 C163.96903,33.7871345 164.668445,34.0561404 165.529264,34.0561404 C168.057919,34.0561404 169.349147,32.1192982 169.349147,28.1918129 L169.349147,28.1918129 Z M149.873123,18.7766082 C148.7971,18.7766082 147.936281,19.1532164 147.344468,19.9602339 C146.752656,20.7134503 146.429849,21.8432749 146.429849,23.2421053 C146.429849,24.8561404 146.752656,26.2011696 147.452071,27.277193 C148.097685,28.3532164 149.012305,28.8912281 150.088328,28.8912281 C152.078971,28.8912281 153.101194,27.3309942 153.101194,24.2643275 C153.101194,22.5426901 152.832188,21.1976608 152.240375,20.2292398 C151.648562,19.2608187 150.895346,18.7766082 149.873123,18.7766082 Z M204.535112,31.4736842 L204.535112,24.102924 C204.535112,22.8654971 204.481311,21.897076 204.319907,21.251462 C203.781895,18.9918129 202.221661,17.8619883 199.531603,17.8619883 C197.164351,17.8619883 195.012305,18.8842105 193.183065,20.928655 C192.645053,19.7988304 192.05324,18.9918129 191.407626,18.5076023 C190.762012,18.0233918 189.793591,17.8081871 188.556164,17.8081871 C185.973708,17.8081871 183.821661,18.8304094 182.153825,20.8748538 L182.153825,17.8081871 C180.593591,18.6690058 178.602948,19.2070175 176.181895,19.3146199 L176.181895,20.1754386 L176.988913,20.1754386 C177.742129,20.1754386 178.280141,20.2830409 178.602948,20.4982456 C178.871954,20.7134503 179.033357,21.1976608 179.033357,21.897076 L179.033357,31.419883 C179.033357,32.980117 178.925755,33.948538 178.656749,34.2175439 C178.387743,34.5403509 177.580726,34.7555556 176.235696,34.8631579 L176.235696,35.7777778 L185.059088,35.7777778 L185.059088,34.8631579 C183.660258,34.7017544 182.85324,34.4865497 182.584235,34.2175439 C182.315229,33.8947368 182.207626,32.980117 182.207626,31.419883 L182.207626,27.3309942 C182.207626,24.2105263 182.638036,22.1660819 183.498854,21.1976608 C184.252071,20.2292398 185.381895,19.7988304 186.834527,19.7988304 C188.125755,19.7988304 188.986574,20.1754386 189.524585,20.9824561 C190.008796,21.7356725 190.277802,23.1345029 190.277802,25.071345 L190.277802,31.5274854 C190.277802,33.0877193 190.170199,34.0561404 189.901194,34.3251462 C189.632188,34.6479532 188.82517,34.8631579 187.480141,34.9707602 L187.480141,35.8853801 L196.303533,35.8853801 L196.303533,34.9707602 C194.904702,34.8093567 194.043884,34.594152 193.828679,34.3251462 C193.559673,34.0023392 193.452071,33.0877193 193.452071,31.5274854 L193.452071,27.4385965 C193.452071,25.9321637 193.505872,24.8561404 193.559673,24.2643275 C193.721077,23.0269006 194.097685,22.0584795 194.635696,21.3590643 C195.388913,20.3906433 196.518737,19.8526316 198.02517,19.8526316 C199.316398,19.8526316 200.177217,20.2830409 200.715229,21.0362573 C201.25324,21.8432749 201.468445,23.1883041 201.468445,25.1251462 L201.468445,31.5812865 C201.468445,33.1415205 201.360843,34.1099415 201.091837,34.3789474 C200.822831,34.7017544 200.015813,34.9169591 198.670784,35.0245614 L198.670784,35.9391813 L207.494176,35.9391813 L207.494176,35.0245614 C206.095346,34.8631579 205.234527,34.6479532 205.019322,34.3789474 C204.642714,34.0023392 204.535112,33.0339181 204.535112,31.4736842 Z M212.497685,15.4947368 C213.089498,15.4947368 213.573708,15.2795322 213.950316,14.902924 C214.326925,14.5263158 214.542129,14.0421053 214.542129,13.4502924 C214.542129,12.9122807 214.326925,12.4280702 213.950316,11.9976608 C213.519907,11.6210526 213.035696,11.405848 212.551486,11.405848 C211.959673,11.405848 211.475463,11.6210526 211.098854,11.9976608 C210.668445,12.374269 210.507042,12.8584795 210.507042,13.3964912 C210.507042,13.9883041 210.722246,14.4725146 211.098854,14.902924 C211.421661,15.3333333 211.905872,15.4947368 212.497685,15.4947368 Z M214.757334,34.0561404 C214.542129,33.7333333 214.380726,32.8187135 214.380726,31.2584795 L214.380726,17.6467836 C212.820492,18.5076023 210.829849,19.045614 208.408796,19.1532164 L208.408796,20.0140351 L209.215813,20.0140351 C209.96903,20.0140351 210.507042,20.1216374 210.829849,20.3368421 C211.098854,20.5520468 211.260258,21.0362573 211.260258,21.7356725 L211.260258,31.2584795 C211.260258,32.8187135 211.152656,33.7871345 210.88365,34.0561404 C210.614644,34.3789474 209.807626,34.594152 208.462597,34.7017544 L208.462597,35.6163743 L217.232188,35.6163743 L217.232188,34.7017544 C215.779556,34.594152 214.972539,34.3789474 214.757334,34.0561404 Z M236.977217,34.0023392 C236.762012,33.7333333 236.65441,32.8187135 236.65441,31.2584795 L236.65441,23.8339181 C236.65441,22.3274854 236.546808,21.251462 236.331603,20.6596491 C235.632188,18.6690058 234.018153,17.6467836 231.435696,17.6467836 C228.638036,17.6467836 226.324585,18.6690058 224.387743,20.7134503 L224.387743,17.6467836 C222.881311,18.5076023 220.890667,18.9918129 218.415813,19.0994152 L218.415813,19.9602339 L219.222831,19.9602339 C219.976047,19.9602339 220.514059,20.0678363 220.783065,20.2830409 C221.105872,20.4982456 221.213474,20.9824561 221.213474,21.6818713 L221.213474,31.2584795 C221.213474,32.7649123 221.105872,33.6795322 220.836866,34.0023392 C220.56786,34.3251462 219.760843,34.5403509 218.415813,34.7555556 L218.415813,35.6701754 L227.239205,35.6701754 L227.239205,34.7555556 C225.840375,34.594152 224.979556,34.3251462 224.764351,34.0023392 C224.549147,33.6795322 224.387743,32.7649123 224.387743,31.2584795 L224.387743,26.954386 C224.387743,25.394152 224.495346,24.1567251 224.656749,23.3497076 C225.194761,20.8210526 226.808796,19.5836257 229.498854,19.5836257 C230.951486,19.5836257 232.027509,19.9602339 232.619322,20.7672515 C233.211135,21.5204678 233.480141,22.8654971 233.480141,24.8023392 L233.480141,31.2584795 C233.480141,32.7649123 233.372539,33.6795322 233.211135,33.948538 C232.942129,34.3251462 232.135112,34.594152 230.68248,34.7555556 L230.68248,35.6701754 L239.505872,35.6701754 L239.505872,34.7555556 C238.05324,34.594152 237.192422,34.3789474 236.977217,34.0023392 Z M258.443884,18.077193 L258.067275,17.6467836 C256.560843,17.9695906 254.893006,18.1847953 253.063767,18.1847953 C252.74096,18.1847953 252.418153,18.1847953 252.149147,18.1309942 C251.180726,17.8081871 250.158504,17.6467836 249.028679,17.6467836 C246.930433,17.6467836 245.262597,18.1847953 243.917568,19.2608187 C242.572539,20.3368421 241.926925,21.7894737 241.926925,23.5649123 C241.926925,26.0935673 243.271954,27.9766082 245.962012,29.1602339 L242.572539,31.9578947 C242.572539,32.0116959 242.572539,32.1192982 242.572539,32.2269006 C242.572539,32.3883041 242.518737,32.4959064 242.518737,32.5497076 C242.518737,33.625731 243.271954,34.3251462 244.832188,34.6479532 L241.119907,36.6385965 C240.850901,36.8 240.689498,37.2304094 240.689498,37.9298246 C240.689498,39.3824561 241.066106,40.5660819 241.819322,41.5883041 C242.464936,42.4491228 243.433357,43.148538 244.724585,43.6865497 C246.015813,44.2245614 247.360843,44.4935673 248.867275,44.4935673 C251.126925,44.4935673 253.009966,43.9555556 254.462597,42.8795322 C256.291837,41.5345029 257.260258,39.8666667 257.260258,37.8760234 C257.260258,35.8853801 256.345638,34.4865497 254.462597,33.6795322 C253.601778,33.302924 252.31055,32.980117 250.535112,32.7111111 C248.705872,32.4421053 247.468445,32.1730994 246.76903,31.9578947 C246.284819,31.7964912 246.069615,31.4736842 246.069615,31.097076 C246.069615,30.6666667 246.392422,30.1824561 247.038036,29.6982456 C247.68365,29.6982456 248.16786,29.6982456 248.383065,29.6982456 C250.373708,29.6982456 251.987743,29.1064327 253.332773,27.9766082 C254.624001,26.8467836 255.323416,25.394152 255.323416,23.6725146 C255.323416,22.0584795 254.839205,20.7134503 253.816983,19.5836257 L257.421661,19.5836257 L258.443884,18.077193 Z M246.392422,34.9707602 L249.835696,35.5625731 C250.642714,35.7239766 251.342129,35.8853801 251.987743,36.0467836 C253.601778,36.5309942 254.462597,37.5532164 254.462597,39.1672515 C254.462597,40.3508772 253.978387,41.3730994 252.956164,42.1263158 C251.933942,42.8795322 250.642714,43.3099415 249.08248,43.3099415 C247.468445,43.3099415 246.177217,42.8795322 245.101194,42.0725146 C244.078971,41.2116959 243.54096,40.1894737 243.54096,38.8982456 C243.54096,38.0912281 243.756164,37.445614 244.132773,36.9076023 C244.563182,36.3157895 245.316398,35.6701754 246.392422,34.9707602 Z M249.08248,28.7298246 C248.006457,28.7298246 247.145638,28.1918129 246.446223,27.1157895 C245.746808,26.0397661 245.424001,24.6947368 245.424001,23.0807018 C245.424001,21.6818713 245.746808,20.5520468 246.33862,19.7988304 C246.930433,18.9918129 247.791252,18.6152047 248.867275,18.6152047 C249.889498,18.6152047 250.696515,19.0994152 251.234527,20.0678363 C251.82634,21.0362573 252.095346,22.3812865 252.095346,24.102924 C252.095346,27.1695906 251.073123,28.7298246 249.08248,28.7298246 Z" id="Combined-Shape" fill="#BD9A61"></path>
                <path d="M261.994761,19.5836257 L260.380726,19.5836257 L260.380726,18.9380117 L264.362012,18.9380117 L264.362012,19.5836257 L262.747977,19.5836257 L262.747977,23.9953216 L262.048562,23.9953216 L262.048562,19.5836257 L261.994761,19.5836257 Z M265.007626,18.9380117 L266.029849,18.9380117 L267.643884,22.8116959 L267.697685,22.8116959 L269.31172,18.9380117 L270.333942,18.9380117 L270.333942,23.9953216 L269.634527,23.9953216 L269.634527,19.7988304 L269.634527,19.7988304 L267.912889,23.9953216 L267.428679,23.9953216 L265.707042,19.7988304 L265.707042,19.7988304 L265.707042,23.9953216 L265.007626,23.9953216 L265.007626,18.9380117 Z" id="Combined-Shape" fill="#BD9A61"></path>
            </g>
        </g>
    </g>
</svg>