<svg xmlns="http://www.w3.org/2000/svg" xmlns:xlink="http://www.w3.org/1999/xlink" width="202.66" height="36.58" viewBox="0 0 202.66 36.58">
  <defs>
    <clipPath id="clip-path">
      <path id="Path_136" data-name="Path 136" d="M20.8,13.565a1.668,1.668,0,0,0-1.459,1.641A1.647,1.647,0,0,0,20.8,16.664h2.917a1.669,1.669,0,0,0,1.459-1.641,1.647,1.647,0,0,0-1.459-1.459ZM27.543.71a1.557,1.557,0,0,0-1.367,1.459,1.349,1.349,0,0,0,1.094,1.55,5.335,5.335,0,0,0,1.185.182H31.1a1.37,1.37,0,0,1,1.367,1,2.527,2.527,0,0,1,.091.82,1.645,1.645,0,0,1-1.823,1.459H16.877A1.432,1.432,0,0,0,15.6,8.732v.457a1.35,1.35,0,0,0,1.551,1.184h17.32a1.869,1.869,0,0,1,1.64.73,1.678,1.678,0,0,1,.092,1.731,1.763,1.763,0,0,1-1.55.912H31.463c-1.276,0-2.461-.091-3.646,0h-.456a1.352,1.352,0,0,0-1.094,1.641c0,.82.547,1.277,1.55,1.368h2.1c1.185,0,1.914.638,1.914,1.641v.273A1.645,1.645,0,0,1,30,20.127H1.654a1.532,1.532,0,0,0-1.367.639,1.325,1.325,0,0,0-.286.82v.025a1.4,1.4,0,0,0,.2.7,1.548,1.548,0,0,0,1.459.82h30.9a1.651,1.651,0,1,1-.365,3.282H16.239c-1.185,0-1.732.546-1.732,1.55s.547,1.458,1.732,1.458H27.361a1.643,1.643,0,1,1-.183,3.282H22.438a1.608,1.608,0,0,0-1.367.729,1.743,1.743,0,0,0,0,1.641,1.284,1.284,0,0,0,1.367.729H40.032l2.826-13.4v-.182l.273-1.095h8.387l1.459-6.655H44.59l1.458-6.655V7.73h9.3L56.805.71H43.86C42.584.71,36.324.67,31.915.67c-2.2,0-3.947.01-4.372.04" transform="translate(0 -0.67)" fill="none"/>
    </clipPath>
    <linearGradient id="linear-gradient" x1="1" y1="1" x2="0" y2="1" gradientUnits="objectBoundingBox">
      <stop offset="0" stop-color="#ef4136"/>
      <stop offset="0.374" stop-color="#f15238"/>
      <stop offset="0.734" stop-color="#f36739"/>
      <stop offset="1" stop-color="#fbb040"/>
    </linearGradient>
  </defs>
  <g id="logo_fs" transform="translate(0 0)">
    <g id="Group_172" data-name="Group 172" transform="translate(48.327 0)">
      <path id="Path_129" data-name="Path 129" d="M70.425,8.655c-.638,4.74-2.735,19.6-3.646,27.166h9.207L78.265.815H65.229L53.014,35.82H62.4Z" transform="translate(-53.014 -0.072)" fill="#ef4136"/>
      <path id="Path_130" data-name="Path 130" d="M104.644,11.326H96.166l.547-2.552A5.151,5.151,0,0,0,96.9,6.4a.864.864,0,0,0-1-.456,1.782,1.782,0,0,0-1.367.638,4.275,4.275,0,0,0-.82,2.006,5.169,5.169,0,0,0-.091,2.644,6.224,6.224,0,0,0,2.1,2.188c3.555,2.37,5.652,4.376,6.381,5.925s.729,4.011,0,7.475a15.9,15.9,0,0,1-2.1,5.561A8.507,8.507,0,0,1,95.984,35.3a15.6,15.6,0,0,1-6.108,1.276,11.145,11.145,0,0,1-5.925-1.367,5.041,5.041,0,0,1-2.644-3.555,16.7,16.7,0,0,1,.547-6.017l.456-2.279h8.478l-.912,4.284a4.886,4.886,0,0,0-.182,2.552,1.1,1.1,0,0,0,1.094.547,2.087,2.087,0,0,0,1.55-.729,6.121,6.121,0,0,0,.912-2.1c.456-2.1.456-3.373,0-4.011a23.442,23.442,0,0,0-3.555-3.191,33.019,33.019,0,0,1-3.829-3.282,6.627,6.627,0,0,1-1.276-2.826,12.706,12.706,0,0,1,.273-4.558,15.712,15.712,0,0,1,2.279-5.925,9.648,9.648,0,0,1,3.92-2.917A15.67,15.67,0,0,1,96.8.114,11.785,11.785,0,0,1,102.639,1.3a4.813,4.813,0,0,1,2.735,2.917,14.5,14.5,0,0,1-.456,5.925Z" transform="translate(-55.509 -0.009)" fill="#ef4136"/>
      <path id="Path_131" data-name="Path 131" d="M131.283.815l-1.459,7.019h-5.378L118.43,35.82h-9.116L115.33,7.834h-5.47L111.41.815h19.873" transform="translate(-57.991 -0.072)" fill="#ef4136"/>
      <path id="Path_132" data-name="Path 132" d="M152.944,11.317h-8.478l.547-2.552a5.151,5.151,0,0,0,.182-2.37.864.864,0,0,0-1-.456,1.782,1.782,0,0,0-1.367.638,4.276,4.276,0,0,0-.82,2.006,5.169,5.169,0,0,0-.091,2.644,6.224,6.224,0,0,0,2.1,2.188c3.555,2.37,5.652,4.376,6.381,5.925s.729,4.011,0,7.475a15.9,15.9,0,0,1-2.1,5.561,8.507,8.507,0,0,1-4.011,2.917,15.6,15.6,0,0,1-6.108,1.276,11.145,11.145,0,0,1-5.925-1.367,5.041,5.041,0,0,1-2.644-3.555,17.391,17.391,0,0,1,.547-6.108l.456-2.279h8.478l-.912,4.284a4.886,4.886,0,0,0-.182,2.552,1.1,1.1,0,0,0,1.094.547,1.771,1.771,0,0,0,1.459-.729,4.767,4.767,0,0,0,.912-2.1c.456-2.1.456-3.373,0-4.011a23.443,23.443,0,0,0-3.555-3.191,33.017,33.017,0,0,1-3.829-3.282,5.552,5.552,0,0,1-1.185-2.826,12.706,12.706,0,0,1,.273-4.558,15.712,15.712,0,0,1,2.279-5.925,9.648,9.648,0,0,1,3.92-2.917A15.671,15.671,0,0,1,145.1.014,11.785,11.785,0,0,1,150.939,1.2a4.442,4.442,0,0,1,2.644,2.917,14.5,14.5,0,0,1-.456,5.925Z" transform="translate(-59.779 0)"/>
      <path id="Path_133" data-name="Path 133" d="M160.889.813H170.1a18.914,18.914,0,0,1,5.561.547A4.676,4.676,0,0,1,178.3,3.092a4.75,4.75,0,0,1,.82,2.644,21.338,21.338,0,0,1-.729,4.831l-.638,3.008a15.855,15.855,0,0,1-1.732,4.923,6.388,6.388,0,0,1-3.008,2.37,13.471,13.471,0,0,1-5.014.82h-2.461l-3.008,14.13h-9.116Zm7.84,6.017-1.914,8.934h.638a2.462,2.462,0,0,0,1.914-.638,5.2,5.2,0,0,0,1-2.552l.638-2.826c.273-1.185.273-2.006-.091-2.37q-.41-.547-2.188-.547" transform="translate(-61.89 -0.07)"/>
      <path id="Path_134" data-name="Path 134" d="M194.4.815,186.93,35.82h-9.116L185.289.815Z" transform="translate(-64.047 -0.072)"/>
      <path id="Path_135" data-name="Path 135" d="M219.609.815,212.134,35.82h-8.022l-1.276-15.953L199.371,35.82h-7.657L199.28.815h7.566l1.732,15.771L211.951.815Z" transform="translate(-65.276 -0.072)"/>
    </g>
    <g id="Group_170" data-name="Group 170" transform="translate(0 0.611)" clip-path="url(#clip-path)">
      <rect id="Rectangle_65" data-name="Rectangle 65" width="56.805" height="35.228" transform="translate(0 0)" fill="url(#linear-gradient)"/>
    </g>
  </g>
</svg>
