<?xml version="1.0" encoding="utf-8"?>
<!-- Generator: Adobe Illustrator 27.9.0, SVG Export Plug-In . SVG Version: 6.00 Build 0)  -->
<svg version="1.1" id="圖層_1" xmlns="http://www.w3.org/2000/svg" xmlns:xlink="http://www.w3.org/1999/xlink" x="0px" y="0px"
	 viewBox="0 0 1920 720" style="enable-background:new 0 0 1920 720;" xml:space="preserve">
<style type="text/css">
	.st0{fill:#C0FFF9;}
</style>
<path class="st0" d="M1055,340.8c-10.4-9.6-20.8-19.2-31.1-28.8L983,274.5l-41.3-37c-14.5-13-29.3-25.7-44.3-38
	c-2.7-2.2-5.2-3.8-7.6-5c-7.4-3.5-14.8-3.4-22.2,0.3c-11.1,5.6-13.9,18.9-9.2,29.4c9.8,22,19.7,44.1,29.6,66.4l24.1,54.2
	l-35.8,110.8c-5.9,13.1-11.7,26.3-17.6,39.4c-2.2,4.9-2.9,9.9-2.1,14.9c2.2,14.5,18.4,21.5,31.4,16.2c2.7-1.1,5.7-2.9,8.8-5.5
	c11.1-9,21.8-18,32-27c42.9-37.6,84.9-76.1,126.7-115C1066.7,368.3,1066.4,351.4,1055,340.8z"/>
</svg>
