<?xml version="1.0" standalone="no"?>
<!DOCTYPE svg PUBLIC "-//W3C//DTD SVG 1.1//EN" "http://www.w3.org/Graphics/SVG/1.1/DTD/svg11.dtd" >
<svg xmlns="http://www.w3.org/2000/svg" xmlns:xlink="http://www.w3.org/1999/xlink" version="1.1">
<metadata>
Created by FontForge 20201107 at Fri Dec 28 21:12:13 2018
 By Jimmy Wärting
Copyright \(c\) Mark Simonson, 2003. All rights reserved. |DCNT
</metadata>
<defs>
<font id="Sharktooth-Heavy" horiz-adv-x="634" >
  <font-face 
    font-family="Sharktooth Heavy"
    font-weight="900"
    font-stretch="normal"
    units-per-em="1000"
    panose-1="2 11 9 3 3 2 2 6 2 3"
    ascent="733"
    descent="-267"
    x-height="460"
    cap-height="600"
    bbox="-269 -267 1114 877"
    underline-thickness="20"
    underline-position="-133"
    unicode-range="U+000D-FB04"
  />
<missing-glyph horiz-adv-x="1000" 
 />
    <glyph glyph-name="fi" unicode="fi" 
d="M594 0h-159v460h159v-460zM594 494h-159c1 3 0 4 0 7c-3 27 -23 40 -50 40c-48 0 -115 -28 -123 -81h146v-129h-146v-331h-159v331h-93v129h93c1 28 14 58 29 82c56 89 153 134 256 134c125 0 206 -50 206 -182z" />
    <glyph glyph-name="fl" unicode="fl" 
d="M594 0h-159v534c-20 7 -40 12 -63 12c-52 0 -107 -29 -110 -86h146v-129h-146v-331h-159v331h-93v129h93c1 35 11 68 31 99c64 97 196 120 305 120c47 0 95 -4 142 -11c3 0 8 -1 13 -2v-666z" />
    <glyph glyph-name="ff" unicode="ff" horiz-adv-x="823" 
d="M813 494h-136v9c0 21 -10 31 -29 31c-39 0 -54 -42 -54 -74h146v-129h-146v-331h-159v331h-173v-331h-159v331h-93v129h93c1 29 12 58 27 83c56 95 169 133 275 133v-142c-7 0 -10 1 -17 1c-42 0 -123 -23 -126 -75h174c3 112 111 216 223 216c117 0 154 -77 154 -182z
" />
    <glyph glyph-name="ffi" unicode="ffi" horiz-adv-x="967" 
d="M927 0h-159v460h159v-460zM927 494h-159c0 31 -20 47 -51 47c-48 0 -114 -28 -122 -81h145v-129h-146v-331h-159v331h-173v-331h-159v331h-93v129h93c1 31 13 62 30 89c59 90 168 127 272 127v-142c-7 0 -10 1 -17 1c-42 0 -123 -23 -126 -75h174c1 27 11 53 24 76
c55 93 156 140 261 140c123 0 206 -50 206 -182z" />
    <glyph glyph-name="ffl" unicode="ffl" horiz-adv-x="967" 
d="M927 0h-159v534c-21 7 -41 12 -64 12c-52 0 -107 -29 -110 -86h146v-129h-146v-331h-159v331h-173v-331h-159v331h-93v129h93c1 29 11 58 27 83c57 94 169 133 275 133v-142c-7 0 -10 1 -17 1c-42 0 -123 -23 -126 -75h174c0 35 11 70 30 99c65 97 196 120 305 120
c52 0 104 -5 156 -13v-666z" />
    <glyph glyph-name=".notdef" horiz-adv-x="1000" 
 />
    <glyph glyph-name="NULL" horiz-adv-x="0" 
 />
    <glyph glyph-name="NULL" horiz-adv-x="0" 
 />
    <glyph glyph-name="CR" unicode="&#xd;" horiz-adv-x="214" 
 />
    <glyph glyph-name="space" unicode=" " horiz-adv-x="214" 
 />
    <glyph glyph-name="uni00A0" unicode="&#xa0;" horiz-adv-x="214" 
 />
    <glyph glyph-name="zero" unicode="0" horiz-adv-x="509" 
d="M484 321c0 -155 -68 -332 -246 -332c-163 0 -213 150 -213 289c0 149 68 333 246 333c163 0 213 -152 213 -290zM303 313c0 32 7 147 -45 147c-55 0 -52 -132 -52 -174c0 -32 -7 -147 45 -147c36 0 48 59 51 111c3 27 1 51 1 63z" />
    <glyph glyph-name="one" unicode="1" horiz-adv-x="509" 
d="M345 0h-182v600h182v-600z" />
    <glyph glyph-name="two" unicode="2" horiz-adv-x="509" 
d="M441 425c0 -75 -19 -132 -72 -185c-31 -32 -62 -62 -95 -91h166v-149h-393v118l111 109l57 58c12 12 22 24 30 36c11 19 17 37 17 61c0 52 -46 73 -91 73c-40 0 -73 -13 -108 -32v156c46 24 120 35 172 35c112 0 206 -72 206 -189z" />
    <glyph glyph-name="three" unicode="3" horiz-adv-x="509" 
d="M449 222c0 -164 -197 -234 -333 -234c-15 0 -28 1 -41 2v155c11 -1 20 -1 31 -1c41 0 166 14 166 69c0 47 -67 51 -99 51c-12 0 -25 -1 -37 -2v94c31 3 98 21 98 60c0 36 -43 42 -71 42c-37 0 -74 -12 -102 -36v155c48 27 102 37 157 37c83 0 186 -41 186 -139
c0 -45 -15 -89 -54 -116c69 -20 99 -65 99 -137z" />
    <glyph glyph-name="four" unicode="4" horiz-adv-x="509" 
d="M499 119h-78v-119h-182v119h-214v107l221 374h175v-332h78v-149zM239 268v105l-60 -105h60z" />
    <glyph glyph-name="five" unicode="5" horiz-adv-x="500" 
d="M430 212c0 -155 -176 -226 -308 -226c-16 0 -32 1 -48 3v146c11 -1 20 -1 31 -1c43 0 154 13 154 74c0 59 -111 63 -150 63c-19 0 -36 -1 -55 -2l49 331h309v-149h-189l-10 -56c111 -13 217 -54 217 -183z" />
    <glyph glyph-name="six" unicode="6" horiz-adv-x="509" 
d="M485 204c0 -120 -94 -223 -217 -223c-154 0 -243 100 -243 252c0 144 93 280 220 344c51 27 107 41 166 41v-149c-75 0 -146 -41 -187 -102c-9 -13 -15 -25 -20 -38c-3 -7 -4 -12 -5 -15c31 35 74 56 121 56c92 0 165 -74 165 -166zM330 193c0 25 -19 47 -46 47
c-31 0 -58 -25 -70 -54c-3 -8 -6 -15 -6 -23c1 -3 2 -5 5 -8c13 -17 31 -25 54 -25c36 0 63 27 63 63z" />
    <glyph glyph-name="seven" unicode="7" horiz-adv-x="509" 
d="M459 495l-243 -495h-203l231 451h-202l1 149h416v-105z" />
    <glyph glyph-name="eight" unicode="8" horiz-adv-x="509" 
d="M478 163c0 -134 -132 -179 -244 -179c-102 0 -204 39 -204 156c0 69 46 124 101 163c-57 35 -92 79 -92 147c0 118 137 161 233 161c87 0 197 -34 197 -139c0 -72 -36 -121 -91 -162c55 -32 100 -80 100 -147zM298 432c0 23 -18 38 -41 38c-24 0 -47 -17 -47 -44
c0 -25 24 -37 44 -46c20 11 44 25 44 52zM299 178c0 29 -21 41 -45 52c-23 -13 -45 -29 -45 -58c0 -25 14 -43 41 -43c31 0 49 18 49 49z" />
    <glyph glyph-name="nine" unicode="9" horiz-adv-x="509" 
d="M492 413c0 -41 -13 -78 -32 -114l-145 -299h-188l103 185c-15 -5 -31 -7 -48 -7c-101 0 -162 96 -162 188c0 136 129 245 261 245c124 0 211 -70 211 -198zM322 400c0 37 -17 62 -56 62c-43 0 -76 -43 -76 -83c0 -37 17 -63 57 -63c42 0 75 44 75 84z" />
    <glyph glyph-name="A" unicode="A" horiz-adv-x="629" 
d="M639 0h-196l-24 70h-209l-24 -70h-196l246 600h157zM373 202l-58 172l-59 -172h117z" />
    <glyph glyph-name="Aacute" unicode="&#xc1;" horiz-adv-x="629" 
d="M639 0h-196l-24 70h-209l-24 -70h-196l246 600h157zM373 202l-58 172l-59 -172h117zM435 729l-187 -104l-54 97l186 104z" />
    <glyph glyph-name="Agrave" unicode="&#xc0;" horiz-adv-x="629" 
d="M639 0h-196l-24 70h-209l-24 -70h-196l246 600h157zM373 202l-58 172l-59 -172h117zM435 722l-55 -97l-186 104l54 97z" />
    <glyph glyph-name="Acircumflex" unicode="&#xc2;" horiz-adv-x="629" 
d="M639 0h-196l-24 70h-209l-24 -70h-196l246 600h157zM373 202l-58 172l-59 -172h117zM447 696l-79 -62l-53 72l-53 -72l-80 62l109 130h48z" />
    <glyph glyph-name="Adieresis" unicode="&#xc4;" horiz-adv-x="629" 
d="M639 0h-196l-24 70h-209l-24 -70h-196l246 600h157zM373 202l-58 172l-59 -172h117zM477 745c0 -50 -49 -99 -99 -99c-31 0 -52 22 -52 53c0 50 50 99 99 99c32 0 52 -22 52 -53zM304 745c0 -49 -50 -99 -99 -99c-31 0 -53 22 -53 53c0 49 50 99 99 99
c31 0 53 -22 53 -53z" />
    <glyph glyph-name="Atilde" unicode="&#xc3;" horiz-adv-x="629" 
d="M639 0h-196l-24 70h-209l-24 -70h-196l246 600h157zM373 202l-58 172l-59 -172h117zM418 787l55 -80c-24 -28 -59 -62 -99 -62c-42 0 -73 40 -109 40c-23 0 -39 -16 -54 -32l-55 81c24 28 59 62 99 62c43 0 72 -40 109 -40c23 0 39 15 54 31z" />
    <glyph glyph-name="Aring" unicode="&#xc5;" horiz-adv-x="629" 
d="M639 0h-196l-24 70h-209l-24 -70h-196l246 600h157zM373 202l-58 172l-59 -172h117zM416 739c0 -60 -53 -113 -113 -113c-57 0 -91 35 -91 92c0 60 52 112 112 112c56 0 92 -35 92 -91zM348 733c0 20 -10 30 -30 30c-21 0 -40 -17 -40 -40c0 -20 10 -30 30 -30
c21 0 40 20 40 40z" />
    <glyph glyph-name="Abreve" unicode="&#x102;" horiz-adv-x="629" 
d="M639 0h-196l-24 70h-209l-24 -70h-196l246 600h157zM373 202l-58 172l-59 -172h117zM367 782h98c-8 -82 -84 -150 -166 -150c-84 0 -136 51 -136 135c0 7 0 12 1 15h98v-6c0 -31 15 -46 45 -46c29 0 55 24 60 52z" />
    <glyph glyph-name="Amacron" unicode="&#x100;" horiz-adv-x="629" 
d="M639 0h-196l-24 70h-209l-24 -70h-196l246 600h157zM373 202l-58 172l-59 -172h117zM454 662h-279v110h279v-110z" />
    <glyph glyph-name="Aogonek" unicode="&#x104;" horiz-adv-x="629" 
d="M638 -113v-92c-7 -4 -18 -6 -33 -6c-60 0 -104 42 -104 111c0 40 15 75 42 100h-100l-24 70h-209l-24 -70h-196l246 600h157l246 -600h-1c-33 -13 -53 -42 -53 -70c0 -27 17 -45 37 -45c5 0 11 -1 16 2zM373 202l-58 172l-59 -172h117z" />
    <glyph glyph-name="AE" unicode="&#xc6;" horiz-adv-x="922" 
d="M872 0h-463v70h-150l-39 -70h-230l396 600h486v-149h-280v-73h280v-149h-280v-80h280v-149zM409 202v135l-75 -135h75z" />
    <glyph glyph-name="AEacute" unicode="&#x1fc;" horiz-adv-x="922" 
d="M872 0h-463v70h-150l-39 -70h-230l396 600h486v-149h-280v-73h280v-149h-280v-80h280v-149zM409 202v135l-75 -135h75zM623 729l-187 -104l-54 97l186 104z" />
    <glyph glyph-name="B" unicode="B" horiz-adv-x="596" 
d="M563 188c0 -163 -205 -188 -327 -188h-186v600h236c95 0 253 -7 253 -138c0 -84 -70 -122 -143 -138c80 -8 167 -43 167 -136zM365 426c0 39 -68 37 -96 37h-37v-89h11c34 0 122 0 122 52zM384 199c0 43 -103 42 -131 42h-21v-100h4c36 0 148 5 148 58z" />
    <glyph glyph-name="C" unicode="C" horiz-adv-x="535" 
d="M510 210v-185c-57 -28 -122 -44 -189 -44c-176 0 -296 120 -296 296s165 341 341 341c30 0 98 -1 144 -25v-178c-37 29 -82 42 -131 42c-101 0 -171 -80 -171 -170c0 -91 52 -145 136 -145c73 0 130 29 166 68z" />
    <glyph glyph-name="Ccedilla" unicode="&#xc7;" horiz-adv-x="535" 
d="M419 -91l-61 -152l-104 40l43 108l-50 21l19 59c-151 24 -241 142 -241 292c0 176 165 341 341 341c47 0 101 -2 144 -25v-178c-39 31 -84 42 -131 42c-96 0 -171 -74 -171 -170c0 -87 48 -145 136 -145c63 0 123 21 166 68v-185c-44 -21 -89 -35 -136 -41l-18 -47z" />
    <glyph glyph-name="Cacute" unicode="&#x106;" horiz-adv-x="535" 
d="M510 210v-185c-57 -28 -122 -44 -189 -44c-176 0 -296 120 -296 296s165 341 341 341c30 0 98 -1 144 -25v-178c-37 29 -82 42 -131 42c-101 0 -171 -80 -171 -170c0 -91 52 -145 136 -145c73 0 130 29 166 68zM482 729l-187 -104l-54 97l186 104z" />
    <glyph glyph-name="Ccircumflex" unicode="&#x108;" horiz-adv-x="535" 
d="M510 210v-185c-57 -28 -122 -44 -189 -44c-176 0 -296 120 -296 296s165 341 341 341c30 0 98 -1 144 -25v-178c-37 29 -82 42 -131 42c-101 0 -171 -80 -171 -170c0 -91 52 -145 136 -145c73 0 130 29 166 68zM494 696l-79 -62l-53 72l-53 -72l-80 62l109 130h48z" />
    <glyph glyph-name="Cdotaccent" unicode="&#x10a;" horiz-adv-x="535" 
d="M510 210v-185c-57 -28 -122 -44 -189 -44c-176 0 -296 120 -296 296s165 341 341 341c30 0 98 -1 144 -25v-178c-37 29 -82 42 -131 42c-101 0 -171 -80 -171 -170c0 -91 52 -145 136 -145c73 0 130 29 166 68zM438 750c0 -47 -53 -100 -100 -100c-29 0 -53 24 -53 53
c0 47 53 100 100 100c29 0 53 -24 53 -53z" />
    <glyph glyph-name="Ccaron" unicode="&#x10c;" horiz-adv-x="535" 
d="M510 210v-185c-57 -28 -122 -44 -189 -44c-176 0 -296 120 -296 296s165 341 341 341c30 0 98 -1 144 -25v-178c-37 29 -82 42 -131 42c-101 0 -171 -80 -171 -170c0 -91 52 -145 136 -145c73 0 130 29 166 68zM494 768l-108 -130h-48l-109 130l80 62l53 -72l53 72z" />
    <glyph glyph-name="D" unicode="D" horiz-adv-x="601" 
d="M576 322c0 -132 -94 -239 -211 -287c-56 -24 -117 -35 -178 -35h-137v600h229c173 0 297 -99 297 -278zM393 316c0 80 -37 130 -120 130h-41v-287h11c89 0 150 70 150 157z" />
    <glyph glyph-name="Dcaron" unicode="&#x10e;" horiz-adv-x="601" 
d="M576 322c0 -132 -94 -239 -211 -287c-56 -24 -117 -35 -178 -35h-137v600h229c173 0 297 -99 297 -278zM393 316c0 80 -37 130 -120 130h-41v-287h11c89 0 150 70 150 157zM433 768l-108 -130h-48l-109 130l80 62l53 -72l53 72z" />
    <glyph glyph-name="Dcroat" unicode="&#x110;" horiz-adv-x="601" 
d="M576 322c0 -132 -93 -239 -211 -287c-56 -24 -117 -35 -178 -35h-137v252h-40v109h40v239h230c172 0 296 -99 296 -278zM318 252h-85v-93h10c25 0 47 5 66 15c52 25 84 78 84 142c0 80 -36 130 -120 130h-40v-85h85v-109z" />
    <glyph glyph-name="E" unicode="E" horiz-adv-x="563" 
d="M513 0h-463v600h463v-149h-281v-73h281v-149h-281v-80h281v-149z" />
    <glyph glyph-name="Eacute" unicode="&#xc9;" horiz-adv-x="563" 
d="M513 0h-463v600h463v-149h-281v-73h281v-149h-281v-80h281v-149zM402 729l-187 -104l-54 97l186 104z" />
    <glyph glyph-name="Egrave" unicode="&#xc8;" horiz-adv-x="563" 
d="M513 0h-463v600h463v-149h-281v-73h281v-149h-281v-80h281v-149zM402 722l-55 -97l-186 104l54 97z" />
    <glyph glyph-name="Ecircumflex" unicode="&#xca;" horiz-adv-x="563" 
d="M513 0h-463v600h463v-149h-281v-73h281v-149h-281v-80h281v-149zM414 696l-79 -62l-53 72l-53 -72l-80 62l109 130h48z" />
    <glyph glyph-name="Edieresis" unicode="&#xcb;" horiz-adv-x="563" 
d="M513 0h-463v600h463v-149h-281v-73h281v-149h-281v-80h281v-149zM444 745c0 -50 -49 -99 -99 -99c-31 0 -52 22 -52 53c0 50 50 99 99 99c32 0 52 -22 52 -53zM271 745c0 -49 -50 -99 -99 -99c-31 0 -53 22 -53 53c0 49 50 99 99 99c31 0 53 -22 53 -53z" />
    <glyph glyph-name="Ebreve" unicode="&#x114;" horiz-adv-x="563" 
d="M513 0h-463v600h463v-149h-281v-73h281v-149h-281v-80h281v-149zM334 782h98c-8 -82 -84 -150 -166 -150c-84 0 -136 51 -136 135c0 7 0 12 1 15h98v-6c0 -31 15 -46 45 -46c29 0 55 24 60 52z" />
    <glyph glyph-name="Emacron" unicode="&#x112;" horiz-adv-x="563" 
d="M513 0h-463v600h463v-149h-281v-73h281v-149h-281v-80h281v-149zM421 662h-279v110h279v-110z" />
    <glyph glyph-name="Edotaccent" unicode="&#x116;" horiz-adv-x="563" 
d="M513 0h-463v600h463v-149h-281v-73h281v-149h-281v-80h281v-149zM358 750c0 -47 -53 -100 -100 -100c-29 0 -53 24 -53 53c0 47 53 100 100 100c29 0 53 -24 53 -53z" />
    <glyph glyph-name="Ecaron" unicode="&#x11a;" horiz-adv-x="563" 
d="M513 0h-463v600h463v-149h-281v-73h281v-149h-281v-80h281v-149zM414 768l-108 -130h-48l-109 130l80 62l53 -72l53 72z" />
    <glyph glyph-name="Eogonek" unicode="&#x118;" horiz-adv-x="563" 
d="M513 -113v-92c-7 -4 -18 -6 -33 -6c-60 0 -104 42 -104 111c0 40 15 75 42 100h-368v600h463v-149h-281v-73h281v-149h-281v-80h281v-149c-33 -13 -53 -42 -53 -70c0 -27 17 -45 37 -45c5 0 11 -1 16 2z" />
    <glyph glyph-name="F" unicode="F" horiz-adv-x="546" 
d="M513 229h-281v-229h-182v600h463v-149h-281v-73h281v-149z" />
    <glyph glyph-name="G" unicode="G" horiz-adv-x="687" 
d="M662 337c0 -185 -152 -356 -341 -356c-176 0 -296 120 -296 296s165 341 341 341c47 0 101 -2 144 -25v-178c-39 31 -84 42 -131 42c-91 0 -171 -80 -171 -170c0 -75 42 -145 124 -145c56 0 104 26 136 70h-176v149h369c1 -8 1 -16 1 -24z" />
    <glyph glyph-name="Gcircumflex" unicode="&#x11c;" horiz-adv-x="687" 
d="M662 337c0 -185 -152 -356 -341 -356c-176 0 -296 120 -296 296s165 341 341 341c47 0 101 -2 144 -25v-178c-39 31 -84 42 -131 42c-91 0 -171 -80 -171 -170c0 -75 42 -145 124 -145c56 0 104 26 136 70h-176v149h369c1 -8 1 -16 1 -24zM488 696l-79 -62l-53 72
l-53 -72l-80 62l109 130h48z" />
    <glyph glyph-name="Gbreve" unicode="&#x11e;" horiz-adv-x="687" 
d="M662 337c0 -185 -152 -356 -341 -356c-176 0 -296 120 -296 296s165 341 341 341c47 0 101 -2 144 -25v-178c-39 31 -84 42 -131 42c-91 0 -171 -80 -171 -170c0 -75 42 -145 124 -145c56 0 104 26 136 70h-176v149h369c1 -8 1 -16 1 -24zM408 782h98
c-8 -82 -84 -150 -166 -150c-84 0 -136 51 -136 135c0 7 0 12 1 15h98v-6c0 -31 15 -46 45 -46c29 0 55 24 60 52z" />
    <glyph glyph-name="Gdotaccent" unicode="&#x120;" horiz-adv-x="687" 
d="M662 337c0 -185 -152 -356 -341 -356c-176 0 -296 120 -296 296s165 341 341 341c47 0 101 -2 144 -25v-178c-39 31 -84 42 -131 42c-91 0 -171 -80 -171 -170c0 -75 42 -145 124 -145c56 0 104 26 136 70h-176v149h369c1 -8 1 -16 1 -24zM432 750
c0 -47 -53 -100 -100 -100c-29 0 -53 24 -53 53c0 47 53 100 100 100c29 0 53 -24 53 -53z" />
    <glyph glyph-name="uni0122" unicode="&#x122;" horiz-adv-x="687" 
d="M662 337c0 -185 -152 -356 -341 -356c-176 0 -296 120 -296 296s165 341 341 341c47 0 101 -2 144 -25v-178c-39 31 -84 42 -131 42c-91 0 -171 -80 -171 -170c0 -75 42 -145 124 -145c56 0 104 26 136 70h-176v149h369c1 -8 1 -16 1 -24zM438 -92l-61 -151l-104 40
l62 151z" />
    <glyph glyph-name="H" unicode="H" 
d="M584 0h-182v235h-170v-235h-182v600h182v-216h170v216h182v-600z" />
    <glyph glyph-name="Hbar" unicode="&#x126;" 
d="M584 0h-182v235h-170v-235h-182v438h-40v110h40v52h182v-52h170v52h182v-52h40v-110h-40v-438zM232 384h170v54h-170v-54z" />
    <glyph glyph-name="Hcircumflex" unicode="&#x124;" 
d="M584 0h-182v235h-170v-235h-182v600h182v-216h170v216h182v-600zM449 696l-79 -62l-53 72l-53 -72l-80 62l109 130h48z" />
    <glyph glyph-name="I" unicode="I" horiz-adv-x="282" 
d="M232 0h-182v600h182v-600z" />
    <glyph glyph-name="Iacute" unicode="&#xcd;" horiz-adv-x="282" 
d="M232 0h-182v600h182v-600zM263 729l-187 -104l-54 97l186 104z" />
    <glyph glyph-name="Igrave" unicode="&#xcc;" horiz-adv-x="282" 
d="M232 0h-182v600h182v-600zM263 722l-55 -97l-186 104l54 97z" />
    <glyph glyph-name="Icircumflex" unicode="&#xce;" horiz-adv-x="282" 
d="M232 0h-182v600h182v-600zM275 696l-79 -62l-53 72l-53 -72l-80 62l109 130h48z" />
    <glyph glyph-name="Idieresis" unicode="&#xcf;" horiz-adv-x="282" 
d="M232 0h-182v600h182v-600zM305 745c0 -50 -49 -99 -99 -99c-31 0 -52 22 -52 53c0 50 50 99 99 99c32 0 52 -22 52 -53zM132 745c0 -49 -50 -99 -99 -99c-31 0 -53 22 -53 53c0 49 50 99 99 99c31 0 53 -22 53 -53z" />
    <glyph glyph-name="Itilde" unicode="&#x128;" horiz-adv-x="282" 
d="M232 0h-182v600h182v-600zM246 787l55 -80c-24 -28 -59 -62 -99 -62c-42 0 -73 40 -109 40c-23 0 -39 -16 -54 -32l-55 81c24 28 59 62 99 62c43 0 72 -40 109 -40c23 0 39 15 54 31z" />
    <glyph glyph-name="Ibreve" unicode="&#x12c;" horiz-adv-x="282" 
d="M232 0h-182v600h182v-600zM195 782h98c-8 -82 -84 -150 -166 -150c-84 0 -136 51 -136 135c0 7 0 12 1 15h98v-6c0 -31 15 -46 45 -46c29 0 55 24 60 52z" />
    <glyph glyph-name="Imacron" unicode="&#x12a;" horiz-adv-x="282" 
d="M232 0h-182v600h182v-600zM282 662h-279v110h279v-110z" />
    <glyph glyph-name="Idot" unicode="&#x130;" horiz-adv-x="282" 
d="M232 0h-182v600h182v-600zM217 750c0 -47 -53 -100 -100 -100c-29 0 -53 24 -53 53c0 47 53 100 100 100c29 0 53 -24 53 -53z" />
    <glyph glyph-name="Iogonek" unicode="&#x12e;" horiz-adv-x="282" 
d="M232 -113v-92c-7 -4 -18 -6 -33 -6c-60 0 -104 42 -104 111c0 40 15 75 42 100h-87v600h182v-600c-33 -13 -53 -42 -53 -70c0 -27 17 -45 37 -45c5 0 11 -1 16 2z" />
    <glyph glyph-name="IJ" unicode="&#x132;" horiz-adv-x="824" 
d="M232 0h-182v600h182v-600zM774 600v-275c0 -181 -112 -342 -305 -342c-142 0 -187 109 -187 234h182c0 -26 5 -70 40 -70c76 0 88 124 88 178v275h182z" />
    <glyph glyph-name="J" unicode="J" horiz-adv-x="542" 
d="M492 600v-275c0 -181 -112 -342 -305 -342c-142 0 -187 109 -187 234h182c0 -26 5 -70 40 -70c76 0 88 124 88 178v275h182z" />
    <glyph glyph-name="Jcircumflex" unicode="&#x134;" horiz-adv-x="542" 
d="M492 600v-275c0 -181 -112 -342 -305 -342c-142 0 -187 109 -187 234h182c0 -26 5 -70 40 -70c76 0 88 124 88 178v275h182zM533 696l-79 -62l-53 72l-53 -72l-80 62l109 130h48z" />
    <glyph glyph-name="K" unicode="K" horiz-adv-x="608" 
d="M648 0h-245l-171 209v-209h-182v600h182v-190l156 190h225l-250 -272z" />
    <glyph glyph-name="uni0136" unicode="&#x136;" horiz-adv-x="608" 
d="M648 0h-245l-171 209v-209h-182v600h182v-190l156 190h225l-250 -272zM386 -92l-61 -151l-104 40l62 151z" />
    <glyph glyph-name="L" unicode="L" horiz-adv-x="523" 
d="M513 0h-463v600h182v-451h281v-149z" />
    <glyph glyph-name="Lacute" unicode="&#x139;" horiz-adv-x="523" 
d="M513 0h-463v600h182v-451h281v-149zM403 729l-187 -104l-54 97l186 104z" />
    <glyph glyph-name="Lcaron" unicode="&#x13d;" horiz-adv-x="523" 
d="M513 0h-463v600h182v-451h281v-149zM467 570l-96 -236l-103 40l97 237z" />
    <glyph glyph-name="uni013B" unicode="&#x13b;" horiz-adv-x="523" 
d="M513 0h-463v600h182v-451h281v-149zM365 -92l-61 -151l-104 40l62 151z" />
    <glyph glyph-name="Ldot" unicode="&#x13f;" horiz-adv-x="523" 
d="M513 0h-463v600h182v-451h281v-149zM506 332c0 -68 -68 -138 -137 -138c-43 0 -73 30 -73 74c0 68 69 138 137 138c44 0 73 -30 73 -74z" />
    <glyph glyph-name="Lslash" unicode="&#x141;" horiz-adv-x="560" 
d="M550 0h-463v184l-76 -43v112l76 43v304h183v-200l92 54v-112l-92 -54v-139h280v-149z" />
    <glyph glyph-name="M" unicode="M" horiz-adv-x="829" 
d="M779 0h-183v302l-148 -302h-65l-151 303v-303h-182v600h216l1 -2l148 -304l149 306h215v-600z" />
    <glyph glyph-name="N" unicode="N" 
d="M584 0h-182l-170 289v-289h-182v600h182l170 -289v289h182v-600z" />
    <glyph glyph-name="Nacute" unicode="&#x143;" 
d="M584 0h-182l-170 289v-289h-182v600h182l170 -289v289h182v-600zM437 729l-187 -104l-54 97l186 104z" />
    <glyph glyph-name="Ntilde" unicode="&#xd1;" 
d="M584 0h-182l-170 289v-289h-182v600h182l170 -289v289h182v-600zM420 787l55 -80c-24 -28 -59 -62 -99 -62c-42 0 -73 40 -109 40c-23 0 -39 -16 -54 -32l-55 81c24 28 59 62 99 62c43 0 72 -40 109 -40c23 0 39 15 54 31z" />
    <glyph glyph-name="Ncaron" unicode="&#x147;" 
d="M584 0h-182l-170 289v-289h-182v600h182l170 -289v289h182v-600zM449 768l-108 -130h-48l-109 130l80 62l53 -72l53 72z" />
    <glyph glyph-name="uni0145" unicode="&#x145;" 
d="M584 0h-182l-170 289v-289h-182v600h182l170 -289v289h182v-600zM399 -92l-61 -151l-104 40l62 151z" />
    <glyph glyph-name="Eng" unicode="&#x14a;" 
d="M584 600v-579c0 -185 -108 -288 -287 -288c-25 0 -46 3 -65 10v164c28 -8 44 -10 71 -10c69 0 99 46 99 103l-170 289v-289h-182v600h182l170 -289v289h182z" />
    <glyph glyph-name="O" unicode="O" horiz-adv-x="687" 
d="M662 322c0 -176 -165 -341 -341 -341s-296 120 -296 296s165 341 341 341s296 -120 296 -296zM479 312c0 84 -48 138 -124 138c-75 0 -147 -80 -147 -163c0 -84 48 -138 124 -138c75 0 147 80 147 163z" />
    <glyph glyph-name="Oacute" unicode="&#xd3;" horiz-adv-x="687" 
d="M662 322c0 -176 -165 -341 -341 -341s-296 120 -296 296s165 341 341 341s296 -120 296 -296zM479 312c0 84 -48 138 -124 138c-75 0 -147 -80 -147 -163c0 -84 48 -138 124 -138c75 0 147 80 147 163zM464 729l-187 -104l-54 97l186 104z" />
    <glyph glyph-name="Ograve" unicode="&#xd2;" horiz-adv-x="687" 
d="M662 322c0 -176 -165 -341 -341 -341s-296 120 -296 296s165 341 341 341s296 -120 296 -296zM479 312c0 84 -48 138 -124 138c-75 0 -147 -80 -147 -163c0 -84 48 -138 124 -138c75 0 147 80 147 163zM464 722l-55 -97l-186 104l54 97z" />
    <glyph glyph-name="Ocircumflex" unicode="&#xd4;" horiz-adv-x="687" 
d="M662 322c0 -176 -165 -341 -341 -341s-296 120 -296 296s165 341 341 341s296 -120 296 -296zM479 312c0 84 -48 138 -124 138c-75 0 -147 -80 -147 -163c0 -84 48 -138 124 -138c75 0 147 80 147 163zM476 696l-79 -62l-53 72l-53 -72l-80 62l109 130h48z" />
    <glyph glyph-name="Odieresis" unicode="&#xd6;" horiz-adv-x="687" 
d="M662 322c0 -176 -165 -341 -341 -341s-296 120 -296 296s165 341 341 341s296 -120 296 -296zM479 312c0 84 -48 138 -124 138c-75 0 -147 -80 -147 -163c0 -84 48 -138 124 -138c75 0 147 80 147 163zM506 745c0 -50 -49 -99 -99 -99c-31 0 -52 22 -52 53
c0 50 50 99 99 99c32 0 52 -22 52 -53zM333 745c0 -49 -50 -99 -99 -99c-31 0 -53 22 -53 53c0 49 50 99 99 99c31 0 53 -22 53 -53z" />
    <glyph glyph-name="Otilde" unicode="&#xd5;" horiz-adv-x="687" 
d="M662 322c0 -176 -165 -341 -341 -341s-296 120 -296 296s165 341 341 341s296 -120 296 -296zM479 312c0 84 -48 138 -124 138c-75 0 -147 -80 -147 -163c0 -84 48 -138 124 -138c75 0 147 80 147 163zM447 787l55 -80c-24 -28 -59 -62 -99 -62c-42 0 -73 40 -109 40
c-23 0 -39 -16 -54 -32l-55 81c24 28 59 62 99 62c43 0 72 -40 109 -40c23 0 39 15 54 31z" />
    <glyph glyph-name="Omacron" unicode="&#x14c;" horiz-adv-x="687" 
d="M662 322c0 -176 -165 -341 -341 -341s-296 120 -296 296s165 341 341 341s296 -120 296 -296zM479 312c0 84 -48 138 -124 138c-75 0 -147 -80 -147 -163c0 -84 48 -138 124 -138c75 0 147 80 147 163zM483 662h-279v110h279v-110z" />
    <glyph glyph-name="Obreve" unicode="&#x14e;" horiz-adv-x="687" 
d="M662 322c0 -176 -165 -341 -341 -341s-296 120 -296 296s165 341 341 341s296 -120 296 -296zM479 312c0 84 -48 138 -124 138c-75 0 -147 -80 -147 -163c0 -84 48 -138 124 -138c75 0 147 80 147 163zM396 782h98c-8 -82 -84 -150 -166 -150c-84 0 -136 51 -136 135
c0 7 0 12 1 15h98v-6c0 -31 15 -46 45 -46c29 0 55 24 60 52z" />
    <glyph glyph-name="Ohungarumlaut" unicode="&#x150;" horiz-adv-x="687" 
d="M662 322c0 -176 -165 -341 -341 -341s-296 120 -296 296s165 341 341 341s296 -120 296 -296zM479 312c0 84 -48 138 -124 138c-75 0 -147 -80 -147 -163c0 -84 48 -138 124 -138c75 0 147 80 147 163zM528 796l-107 -171l-94 59l107 171zM354 796l-107 -171l-94 59
l107 171z" />
    <glyph glyph-name="Oslash" unicode="&#xd8;" horiz-adv-x="687" 
d="M705 603l-96 -101c37 -52 53 -116 53 -180c0 -176 -165 -341 -341 -341c-59 0 -117 14 -168 46l-25 -27h-146l95 99c-36 52 -52 114 -52 178c0 176 165 341 341 341c59 0 115 -13 166 -44l28 29h145zM213 241l191 200c-15 7 -32 9 -49 9c-81 0 -147 -86 -147 -163
c0 -15 1 -31 5 -46zM480 312c0 18 -2 34 -7 49l-193 -202c16 -7 33 -10 52 -10c81 0 148 87 148 163z" />
    <glyph glyph-name="Oslashacute" unicode="&#x1fe;" horiz-adv-x="687" 
d="M705 603l-96 -101c37 -52 53 -116 53 -180c0 -176 -165 -341 -341 -341c-59 0 -117 14 -168 46l-25 -27h-146l95 99c-36 52 -52 114 -52 178c0 176 165 341 341 341c59 0 115 -13 166 -44l28 29h145zM213 241l191 200c-15 7 -32 9 -49 9c-81 0 -147 -86 -147 -163
c0 -15 1 -31 5 -46zM480 312c0 18 -2 34 -7 49l-193 -202c16 -7 33 -10 52 -10c81 0 148 87 148 163zM464 729l-187 -104l-54 97l186 104z" />
    <glyph glyph-name="OE" unicode="&#x152;" horiz-adv-x="947" 
d="M897 0h-451c-7 0 -31 -7 -40 -10c-28 -6 -56 -9 -85 -9c-176 0 -296 120 -296 296c0 177 165 341 341 341c43 0 88 -2 129 -18h402v-149h-280v-73h280v-149h-280v-80h280v-149zM434 159v292c-18 4 -36 6 -55 6c-96 0 -171 -74 -171 -170c0 -87 48 -145 136 -145
c31 0 62 5 90 17z" />
    <glyph glyph-name="P" unicode="P" horiz-adv-x="555" 
d="M539 423c0 -172 -137 -226 -282 -237c-9 -1 -17 -2 -26 -2v-184h-181v600h215c123 0 274 -22 274 -177zM366 395c0 55 -69 58 -108 58h-27v-130c9 1 20 0 32 3c46 5 103 22 103 69z" />
    <glyph glyph-name="Q" unicode="Q" horiz-adv-x="738" 
d="M695 75l-10 -11l-92 -98l-74 69c-51 -35 -110 -54 -173 -54c-176 0 -296 120 -296 296s165 341 341 341s296 -120 296 -296c0 -67 -23 -129 -60 -184zM504 312c0 77 -43 138 -124 138s-147 -86 -147 -163s43 -138 124 -138c11 0 22 2 34 5l-59 55l102 109l61 -57
c6 16 9 33 9 51z" />
    <glyph glyph-name="R" unicode="R" horiz-adv-x="592" 
d="M592 0h-225l-135 206v-206h-182v600h261c118 0 228 -34 228 -174c0 -77 -56 -157 -124 -190zM365 396c0 56 -72 57 -112 57h-21v-134c11 0 23 1 36 3c44 5 97 25 97 74z" />
    <glyph glyph-name="Racute" unicode="&#x154;" horiz-adv-x="592" 
d="M592 0h-225l-135 206v-206h-182v600h261c118 0 228 -34 228 -174c0 -77 -56 -157 -124 -190zM365 396c0 56 -72 57 -112 57h-21v-134c11 0 23 1 36 3c44 5 97 25 97 74zM416 729l-187 -104l-54 97l186 104z" />
    <glyph glyph-name="Rcaron" unicode="&#x158;" horiz-adv-x="592" 
d="M592 0h-225l-135 206v-206h-182v600h261c118 0 228 -34 228 -174c0 -77 -56 -157 -124 -190zM365 396c0 56 -72 57 -112 57h-21v-134c11 0 23 1 36 3c44 5 97 25 97 74zM428 768l-108 -130h-48l-109 130l80 62l53 -72l53 72z" />
    <glyph glyph-name="uni0156" unicode="&#x156;" horiz-adv-x="592" 
d="M592 0h-225l-135 206v-206h-182v600h261c118 0 228 -34 228 -174c0 -77 -56 -157 -124 -190zM365 396c0 56 -72 57 -112 57h-21v-134c11 0 23 1 36 3c44 5 97 25 97 74zM378 -92l-61 -151l-104 40l62 151z" />
    <glyph glyph-name="S" unicode="S" horiz-adv-x="494" 
d="M461 172c0 -144 -162 -187 -279 -187c-37 0 -73 3 -108 9v148c37 -9 76 -17 115 -17c35 0 79 7 79 51c0 24 -33 42 -76 63c-69 35 -159 83 -159 184c0 92 78 151 158 175c39 11 79 16 119 16c34 0 67 -3 99 -9v-152c-32 11 -65 18 -100 18c-28 0 -83 -6 -83 -44
c0 -23 32 -39 73 -60c69 -37 162 -83 162 -195z" />
    <glyph glyph-name="Sacute" unicode="&#x15a;" horiz-adv-x="494" 
d="M461 172c0 -144 -162 -187 -279 -187c-37 0 -73 3 -108 9v148c37 -9 76 -17 115 -17c35 0 79 7 79 51c0 24 -33 42 -76 63c-69 35 -159 83 -159 184c0 92 78 151 158 175c39 11 79 16 119 16c34 0 67 -3 99 -9v-152c-32 11 -65 18 -100 18c-28 0 -83 -6 -83 -44
c0 -23 32 -39 73 -60c69 -37 162 -83 162 -195zM367 729l-187 -104l-54 97l186 104z" />
    <glyph glyph-name="Scaron" unicode="&#x160;" horiz-adv-x="494" 
d="M461 172c0 -144 -162 -187 -279 -187c-37 0 -73 3 -108 9v148c37 -9 76 -17 115 -17c35 0 79 7 79 51c0 24 -33 42 -76 63c-69 35 -159 83 -159 184c0 92 78 151 158 175c39 11 79 16 119 16c34 0 67 -3 99 -9v-152c-32 11 -65 18 -100 18c-28 0 -83 -6 -83 -44
c0 -23 32 -39 73 -60c69 -37 162 -83 162 -195zM379 768l-108 -130h-48l-109 130l80 62l53 -72l53 72z" />
    <glyph glyph-name="Scircumflex" unicode="&#x15c;" horiz-adv-x="494" 
d="M461 172c0 -144 -162 -187 -279 -187c-37 0 -73 3 -108 9v148c37 -9 76 -17 115 -17c35 0 79 7 79 51c0 24 -33 42 -76 63c-69 35 -159 83 -159 184c0 92 78 151 158 175c39 11 79 16 119 16c34 0 67 -3 99 -9v-152c-32 11 -65 18 -100 18c-28 0 -83 -6 -83 -44
c0 -23 32 -39 73 -60c69 -37 162 -83 162 -195zM379 696l-79 -62l-53 72l-53 -72l-80 62l109 130h48z" />
    <glyph glyph-name="uni015E" unicode="&#x15e;" horiz-adv-x="494" 
d="M333 -91l-61 -152l-104 40l43 108l-50 21l19 59c-37 0 -72 3 -106 9v148c37 -9 76 -17 115 -17c35 0 79 7 79 51c0 24 -34 42 -77 63c-68 34 -158 84 -158 184c0 92 78 151 158 175c39 11 79 16 119 16c34 0 67 -3 99 -9v-152c-32 11 -65 18 -100 18
c-28 0 -83 -6 -83 -44c0 -23 30 -38 73 -61c69 -37 162 -81 162 -194c0 -102 -80 -155 -169 -174l-22 -61z" />
    <glyph glyph-name="uni0218" unicode="&#x218;" horiz-adv-x="494" 
d="M461 172c0 -144 -162 -187 -279 -187c-37 0 -73 3 -108 9v148c37 -9 76 -17 115 -17c35 0 79 7 79 51c0 24 -33 42 -76 63c-69 35 -159 83 -159 184c0 92 78 151 158 175c39 11 79 16 119 16c34 0 67 -3 99 -9v-152c-32 11 -65 18 -100 18c-28 0 -83 -6 -83 -44
c0 -23 32 -39 73 -60c69 -37 162 -83 162 -195zM329 -92l-61 -151l-104 40l62 151z" />
    <glyph glyph-name="T" unicode="T" horiz-adv-x="483" 
d="M473 451h-140v-451h-183v451h-140v149h463v-149z" />
    <glyph glyph-name="Tbar" unicode="&#x166;" horiz-adv-x="483" 
d="M473 451h-140v-90h75v-109h-75v-252h-183v252h-75v109h75v90h-140v149h463v-149z" />
    <glyph glyph-name="Tcaron" unicode="&#x164;" horiz-adv-x="483" 
d="M473 451h-140v-451h-183v451h-140v149h463v-149zM374 768l-108 -130h-48l-109 130l80 62l53 -72l53 72z" />
    <glyph glyph-name="Tcommaaccent" unicode="&#x162;" horiz-adv-x="483" 
d="M338 -91l-61 -152l-104 40l43 108l-50 21l24 74h-40v451h-140v149h463v-149h-140v-451h-35l-23 -63z" />
    <glyph glyph-name="uni021A" unicode="&#x21a;" horiz-adv-x="483" 
d="M473 451h-140v-451h-183v451h-140v149h463v-149zM324 -92l-61 -151l-104 40l62 151z" />
    <glyph glyph-name="U" unicode="U" 
d="M584 600v-330c0 -165 -115 -289 -282 -289c-175 0 -252 80 -252 251v368h182v-352c0 -44 13 -114 70 -114c69 0 100 76 100 136v330h182z" />
    <glyph glyph-name="Uacute" unicode="&#xda;" 
d="M584 600v-330c0 -165 -115 -289 -282 -289c-175 0 -252 80 -252 251v368h182v-352c0 -44 13 -114 70 -114c69 0 100 76 100 136v330h182zM437 729l-187 -104l-54 97l186 104z" />
    <glyph glyph-name="Ugrave" unicode="&#xd9;" 
d="M584 600v-330c0 -165 -115 -289 -282 -289c-175 0 -252 80 -252 251v368h182v-352c0 -44 13 -114 70 -114c69 0 100 76 100 136v330h182zM437 722l-55 -97l-186 104l54 97z" />
    <glyph glyph-name="Ucircumflex" unicode="&#xdb;" 
d="M584 600v-330c0 -165 -115 -289 -282 -289c-175 0 -252 80 -252 251v368h182v-352c0 -44 13 -114 70 -114c69 0 100 76 100 136v330h182zM449 696l-79 -62l-53 72l-53 -72l-80 62l109 130h48z" />
    <glyph glyph-name="Udieresis" unicode="&#xdc;" 
d="M584 600v-330c0 -165 -115 -289 -282 -289c-175 0 -252 80 -252 251v368h182v-352c0 -44 13 -114 70 -114c69 0 100 76 100 136v330h182zM479 745c0 -50 -49 -99 -99 -99c-31 0 -52 22 -52 53c0 50 50 99 99 99c32 0 52 -22 52 -53zM306 745c0 -49 -50 -99 -99 -99
c-31 0 -53 22 -53 53c0 49 50 99 99 99c31 0 53 -22 53 -53z" />
    <glyph glyph-name="Utilde" unicode="&#x168;" 
d="M584 600v-330c0 -165 -115 -289 -282 -289c-175 0 -252 80 -252 251v368h182v-352c0 -44 13 -114 70 -114c69 0 100 76 100 136v330h182zM420 787l55 -80c-24 -28 -59 -62 -99 -62c-42 0 -73 40 -109 40c-23 0 -39 -16 -54 -32l-55 81c24 28 59 62 99 62
c43 0 72 -40 109 -40c23 0 39 15 54 31z" />
    <glyph glyph-name="Uring" unicode="&#x16e;" 
d="M584 600v-330c0 -165 -115 -289 -282 -289c-175 0 -252 80 -252 251v368h182v-352c0 -44 13 -114 70 -114c69 0 100 76 100 136v330h182zM419 739c0 -60 -53 -113 -113 -113c-57 0 -91 35 -91 92c0 60 52 112 112 112c56 0 92 -35 92 -91zM351 733c0 20 -10 30 -30 30
c-21 0 -40 -17 -40 -40c0 -20 10 -30 30 -30c21 0 40 20 40 40z" />
    <glyph glyph-name="Ubreve" unicode="&#x16c;" 
d="M584 600v-330c0 -165 -115 -289 -282 -289c-175 0 -252 80 -252 251v368h182v-352c0 -44 13 -114 70 -114c69 0 100 76 100 136v330h182zM370 782h98c-8 -82 -84 -150 -166 -150c-84 0 -136 51 -136 135c0 7 0 12 1 15h98v-6c0 -31 15 -46 45 -46c29 0 55 24 60 52z" />
    <glyph glyph-name="Umacron" unicode="&#x16a;" 
d="M584 600v-330c0 -165 -115 -289 -282 -289c-175 0 -252 80 -252 251v368h182v-352c0 -44 13 -114 70 -114c69 0 100 76 100 136v330h182zM456 662h-279v110h279v-110z" />
    <glyph glyph-name="Uhungarumlaut" unicode="&#x170;" 
d="M584 600v-330c0 -165 -115 -289 -282 -289c-175 0 -252 80 -252 251v368h182v-352c0 -44 13 -114 70 -114c69 0 100 76 100 136v330h182zM501 796l-107 -171l-94 59l107 171zM327 796l-107 -171l-94 59l107 171z" />
    <glyph glyph-name="Uogonek" unicode="&#x172;" 
d="M409 -113v-92c-7 -4 -18 -6 -33 -6c-60 0 -104 42 -104 111c0 31 9 58 26 81c-171 1 -248 80 -248 251v368h182v-352c0 -44 13 -114 70 -114c69 0 100 76 100 136v330h182v-330c0 -128 -67 -229 -175 -270c-33 -13 -53 -42 -53 -70c0 -27 17 -45 37 -45c5 0 11 -1 16 2z
" />
    <glyph glyph-name="V" unicode="V" horiz-adv-x="629" 
d="M639 600l-246 -600h-157l-246 600h196l129 -375l128 375h196z" />
    <glyph glyph-name="W" unicode="W" horiz-adv-x="946" 
d="M946 600l-226 -600h-151l-96 311l-95 -311h-152l-226 600h194l110 -327l109 327h120l110 -327l110 327h193z" />
    <glyph glyph-name="Wacute" unicode="&#x1e82;" horiz-adv-x="946" 
d="M946 600l-226 -600h-151l-96 311l-95 -311h-152l-226 600h194l110 -327l109 327h120l110 -327l110 327h193zM593 729l-187 -104l-54 97l186 104z" />
    <glyph glyph-name="Wgrave" unicode="&#x1e80;" horiz-adv-x="946" 
d="M946 600l-226 -600h-151l-96 311l-95 -311h-152l-226 600h194l110 -327l109 327h120l110 -327l110 327h193zM593 722l-55 -97l-186 104l54 97z" />
    <glyph glyph-name="Wcircumflex" unicode="&#x174;" horiz-adv-x="946" 
d="M946 600l-226 -600h-151l-96 311l-95 -311h-152l-226 600h194l110 -327l109 327h120l110 -327l110 327h193zM605 696l-79 -62l-53 72l-53 -72l-80 62l109 130h48z" />
    <glyph glyph-name="Wdieresis" unicode="&#x1e84;" horiz-adv-x="946" 
d="M946 600l-226 -600h-151l-96 311l-95 -311h-152l-226 600h194l110 -327l109 327h120l110 -327l110 327h193zM635 745c0 -50 -49 -99 -99 -99c-31 0 -52 22 -52 53c0 50 50 99 99 99c32 0 52 -22 52 -53zM462 745c0 -49 -50 -99 -99 -99c-31 0 -53 22 -53 53
c0 49 50 99 99 99c31 0 53 -22 53 -53z" />
    <glyph glyph-name="X" unicode="X" horiz-adv-x="616" 
d="M616 600l-187 -300l187 -300h-224l-84 178l-83 -178h-225l187 300l-187 300h225l83 -179l84 179h224z" />
    <glyph glyph-name="Y" unicode="Y" horiz-adv-x="621" 
d="M631 600l-364 -600h-219l160 256l-208 344h230l90 -186l91 186h220z" />
    <glyph glyph-name="Yacute" unicode="&#xdd;" horiz-adv-x="621" 
d="M631 600l-364 -600h-219l160 256l-208 344h230l90 -186l91 186h220zM441 729l-187 -104l-54 97l186 104z" />
    <glyph glyph-name="Ygrave" unicode="&#x1ef2;" horiz-adv-x="621" 
d="M631 600l-364 -600h-219l160 256l-208 344h230l90 -186l91 186h220zM441 722l-55 -97l-186 104l54 97z" />
    <glyph glyph-name="Ycircumflex" unicode="&#x176;" horiz-adv-x="621" 
d="M631 600l-364 -600h-219l160 256l-208 344h230l90 -186l91 186h220zM453 696l-79 -62l-53 72l-53 -72l-80 62l109 130h48z" />
    <glyph glyph-name="Ydieresis" unicode="&#x178;" horiz-adv-x="621" 
d="M631 600l-364 -600h-219l160 256l-208 344h230l90 -186l91 186h220zM483 745c0 -50 -49 -99 -99 -99c-31 0 -52 22 -52 53c0 50 50 99 99 99c32 0 52 -22 52 -53zM310 745c0 -49 -50 -99 -99 -99c-31 0 -53 22 -53 53c0 49 50 99 99 99c31 0 53 -22 53 -53z" />
    <glyph glyph-name="Z" unicode="Z" horiz-adv-x="568" 
d="M543 600l-251 -451h245v-149h-537l251 451h-204v149h496z" />
    <glyph glyph-name="Zacute" unicode="&#x179;" horiz-adv-x="568" 
d="M543 600l-251 -451h245v-149h-537l251 451h-204v149h496zM404 729l-187 -104l-54 97l186 104z" />
    <glyph glyph-name="Zcaron" unicode="&#x17d;" horiz-adv-x="568" 
d="M543 600l-251 -451h245v-149h-537l251 451h-204v149h496zM416 768l-108 -130h-48l-109 130l80 62l53 -72l53 72z" />
    <glyph glyph-name="Zdotaccent" unicode="&#x17b;" horiz-adv-x="568" 
d="M543 600l-251 -451h245v-149h-537l251 451h-204v149h496zM360 750c0 -47 -53 -100 -100 -100c-29 0 -53 24 -53 53c0 47 53 100 100 100c29 0 53 -24 53 -53z" />
    <glyph glyph-name="Eth" unicode="&#xd0;" horiz-adv-x="601" 
d="M576 322c0 -132 -93 -239 -211 -287c-56 -24 -117 -35 -178 -35h-137v252h-40v109h40v239h230c172 0 296 -99 296 -278zM318 252h-85v-93h10c25 0 47 5 66 15c52 25 84 78 84 142c0 80 -36 130 -120 130h-40v-85h85v-109z" />
    <glyph glyph-name="Thorn" unicode="&#xde;" horiz-adv-x="555" 
d="M539 331c0 -52 -12 -93 -33 -125c-54 -80 -164 -109 -274 -114v-92h-182v600h182v-92h29c124 0 278 -20 278 -177zM366 303c0 53 -64 58 -104 58h-30v-130c4 0 10 1 17 1c3 0 7 0 11 1c33 3 74 13 94 37c8 10 12 21 12 33z" />
    <glyph glyph-name="a" unicode="a" horiz-adv-x="549" 
d="M509 0h-159v94c-35 -71 -91 -113 -171 -113c-99 0 -159 89 -159 180c0 259 287 305 489 305v-466zM350 308c-59 -8 -161 -43 -161 -116c0 -28 16 -47 45 -47c17 0 33 6 48 15c49 32 68 92 68 148z" />
    <glyph glyph-name="aacute" unicode="&#xe1;" horiz-adv-x="549" 
d="M509 0h-159v94c-35 -71 -91 -113 -171 -113c-99 0 -159 89 -159 180c0 259 287 305 489 305v-466zM350 308c-59 -8 -161 -43 -161 -116c0 -28 16 -47 45 -47c17 0 33 6 48 15c49 32 68 92 68 148zM395 589l-187 -104l-54 97l186 104z" />
    <glyph glyph-name="agrave" unicode="&#xe0;" horiz-adv-x="549" 
d="M509 0h-159v94c-35 -71 -91 -113 -171 -113c-99 0 -159 89 -159 180c0 259 287 305 489 305v-466zM350 308c-59 -8 -161 -43 -161 -116c0 -28 16 -47 45 -47c17 0 33 6 48 15c49 32 68 92 68 148zM395 582l-55 -97l-186 104l54 97z" />
    <glyph glyph-name="acircumflex" unicode="&#xe2;" horiz-adv-x="549" 
d="M509 0h-159v94c-35 -71 -91 -113 -171 -113c-99 0 -159 89 -159 180c0 259 287 305 489 305v-466zM350 308c-59 -8 -161 -43 -161 -116c0 -28 16 -47 45 -47c17 0 33 6 48 15c49 32 68 92 68 148zM407 556l-79 -62l-53 72l-53 -72l-80 62l109 130h48z" />
    <glyph glyph-name="adieresis" unicode="&#xe4;" horiz-adv-x="549" 
d="M509 0h-159v94c-35 -71 -91 -113 -171 -113c-99 0 -159 89 -159 180c0 259 287 305 489 305v-466zM350 308c-59 -8 -161 -43 -161 -116c0 -28 16 -47 45 -47c17 0 33 6 48 15c49 32 68 92 68 148zM437 605c0 -50 -49 -99 -99 -99c-31 0 -52 22 -52 53c0 50 50 99 99 99
c32 0 52 -22 52 -53zM264 605c0 -49 -50 -99 -99 -99c-31 0 -53 22 -53 53c0 49 50 99 99 99c31 0 53 -22 53 -53z" />
    <glyph glyph-name="atilde" unicode="&#xe3;" horiz-adv-x="549" 
d="M509 0h-159v94c-35 -71 -91 -113 -171 -113c-99 0 -159 89 -159 180c0 259 287 305 489 305v-466zM350 308c-59 -8 -161 -43 -161 -116c0 -28 16 -47 45 -47c17 0 33 6 48 15c49 32 68 92 68 148zM378 647l55 -80c-24 -28 -59 -62 -99 -62c-42 0 -73 40 -109 40
c-23 0 -39 -16 -54 -32l-55 81c24 28 59 62 99 62c43 0 72 -40 109 -40c23 0 39 15 54 31z" />
    <glyph glyph-name="aring" unicode="&#xe5;" horiz-adv-x="549" 
d="M509 0h-159v94c-35 -71 -91 -113 -171 -113c-99 0 -159 89 -159 180c0 259 287 305 489 305v-466zM350 308c-59 -8 -161 -43 -161 -116c0 -28 16 -47 45 -47c17 0 33 6 48 15c49 32 68 92 68 148zM376 599c0 -60 -53 -113 -113 -113c-57 0 -91 35 -91 92
c0 60 52 112 112 112c56 0 92 -35 92 -91zM308 593c0 20 -10 30 -30 30c-21 0 -40 -17 -40 -40c0 -20 10 -30 30 -30c21 0 40 20 40 40z" />
    <glyph glyph-name="abreve" unicode="&#x103;" horiz-adv-x="549" 
d="M509 0h-159v94c-35 -71 -91 -113 -171 -113c-99 0 -159 89 -159 180c0 259 287 305 489 305v-466zM350 308c-59 -8 -161 -43 -161 -116c0 -28 16 -47 45 -47c17 0 33 6 48 15c49 32 68 92 68 148zM327 642h98c-8 -82 -84 -150 -166 -150c-84 0 -136 51 -136 135
c0 7 0 12 1 15h98v-6c0 -31 15 -46 45 -46c29 0 55 24 60 52z" />
    <glyph glyph-name="amacron" unicode="&#x101;" horiz-adv-x="549" 
d="M509 0h-159v94c-35 -71 -91 -113 -171 -113c-99 0 -159 89 -159 180c0 259 287 305 489 305v-466zM350 308c-59 -8 -161 -43 -161 -116c0 -28 16 -47 45 -47c17 0 33 6 48 15c49 32 68 92 68 148zM414 522h-279v110h279v-110z" />
    <glyph glyph-name="aogonek" unicode="&#x105;" horiz-adv-x="549" 
d="M509 -113v-92c-7 -4 -18 -6 -33 -6c-60 0 -104 42 -104 111c0 40 15 75 42 100h-64v94c-35 -71 -91 -113 -171 -113c-99 0 -159 89 -159 180c0 259 287 305 489 305v-466c-33 -13 -53 -42 -53 -70c0 -27 17 -45 37 -45c5 0 11 -1 16 2zM350 308
c-59 -8 -161 -43 -161 -116c0 -28 16 -47 45 -47c17 0 33 6 48 15c49 32 68 92 68 148z" />
    <glyph glyph-name="ae" unicode="&#xe6;" horiz-adv-x="895" 
d="M875 256v-15c0 -17 -2 -35 -5 -54h-319c0 -2 1 -5 2 -9c10 -36 59 -51 93 -51c33 0 95 7 124 26v-135c-41 -19 -84 -31 -129 -31c-92 0 -181 33 -216 124c-57 -88 -142 -130 -246 -130c-99 0 -159 89 -159 181c0 258 287 304 489 304v-68c45 55 109 74 178 74
c129 0 188 -97 188 -216zM350 308c-59 -8 -161 -43 -161 -116c0 -28 16 -47 45 -47c17 0 33 6 48 15c28 19 46 46 57 77c7 24 11 48 11 71zM567 288h163c0 32 -36 54 -65 54c-36 0 -81 -19 -98 -54z" />
    <glyph glyph-name="aeacute" unicode="&#x1fd;" horiz-adv-x="895" 
d="M875 256v-15c0 -17 -2 -35 -5 -54h-319c0 -2 1 -5 2 -9c10 -36 59 -51 93 -51c33 0 95 7 124 26v-135c-41 -19 -84 -31 -129 -31c-92 0 -181 33 -216 124c-57 -88 -142 -130 -246 -130c-99 0 -159 89 -159 181c0 258 287 304 489 304v-68c45 55 109 74 178 74
c129 0 188 -97 188 -216zM350 308c-59 -8 -161 -43 -161 -116c0 -28 16 -47 45 -47c17 0 33 6 48 15c28 19 46 46 57 77c7 24 11 48 11 71zM567 288h163c0 32 -36 54 -65 54c-36 0 -81 -19 -98 -54zM554 589l-187 -104l-54 97l186 104z" />
    <glyph glyph-name="b" unicode="b" horiz-adv-x="549" 
d="M529 298c0 -259 -287 -305 -489 -305v673h159v-301c35 71 91 114 171 114c99 0 159 -90 159 -181zM360 267c0 28 -16 48 -45 48c-17 0 -33 -5 -48 -16c-49 -32 -68 -92 -68 -148c58 8 161 44 161 116z" />
    <glyph glyph-name="c" unicode="c" horiz-adv-x="392" 
d="M372 173v-164c-41 -15 -82 -22 -123 -22c-140 0 -229 74 -229 217c0 163 135 268 291 268c20 0 41 -1 61 -4v-168c-19 13 -54 15 -77 15c-52 0 -117 -39 -117 -98c0 -53 39 -72 87 -72c31 0 83 7 107 28z" />
    <glyph glyph-name="ccedilla" unicode="&#xe7;" horiz-adv-x="392" 
d="M372 173v-164c-24 -9 -49 -15 -74 -19l-20 -53l63 -28l-61 -152l-104 40l43 108l-50 21l21 66c-105 19 -170 89 -170 212c0 163 135 268 291 268c20 0 41 -1 61 -4v-168c-19 13 -54 15 -77 15c-52 0 -117 -39 -117 -98c0 -53 39 -72 87 -72c31 0 83 7 107 28z" />
    <glyph glyph-name="cacute" unicode="&#x107;" horiz-adv-x="392" 
d="M372 173v-164c-41 -15 -82 -22 -123 -22c-140 0 -229 74 -229 217c0 163 135 268 291 268c20 0 41 -1 61 -4v-168c-19 13 -54 15 -77 15c-52 0 -117 -39 -117 -98c0 -53 39 -72 87 -72c31 0 83 7 107 28zM402 589l-187 -104l-54 97l186 104z" />
    <glyph glyph-name="ccircumflex" unicode="&#x109;" horiz-adv-x="392" 
d="M372 173v-164c-41 -15 -82 -22 -123 -22c-140 0 -229 74 -229 217c0 163 135 268 291 268c20 0 41 -1 61 -4v-168c-19 13 -54 15 -77 15c-52 0 -117 -39 -117 -98c0 -53 39 -72 87 -72c31 0 83 7 107 28zM413 556l-79 -62l-53 72l-53 -72l-80 62l109 130h48z" />
    <glyph glyph-name="cdotaccent" unicode="&#x10b;" horiz-adv-x="392" 
d="M372 173v-164c-41 -15 -82 -22 -123 -22c-140 0 -229 74 -229 217c0 163 135 268 291 268c20 0 41 -1 61 -4v-168c-19 13 -54 15 -77 15c-52 0 -117 -39 -117 -98c0 -53 39 -72 87 -72c31 0 83 7 107 28zM357 610c0 -47 -53 -100 -100 -100c-29 0 -53 24 -53 53
c0 47 53 100 100 100c29 0 53 -24 53 -53z" />
    <glyph glyph-name="ccaron" unicode="&#x10d;" horiz-adv-x="392" 
d="M372 173v-164c-41 -15 -82 -22 -123 -22c-140 0 -229 74 -229 217c0 163 135 268 291 268c20 0 41 -1 61 -4v-168c-19 13 -54 15 -77 15c-52 0 -117 -39 -117 -98c0 -53 39 -72 87 -72c31 0 83 7 107 28zM414 628l-108 -130h-48l-109 130l80 62l53 -72l53 72z" />
    <glyph glyph-name="d" unicode="d" horiz-adv-x="549" 
d="M509 0h-159v94c-35 -71 -91 -113 -171 -113c-99 0 -159 89 -159 180c0 196 162 270 330 294v211h159v-666zM350 308c-59 -8 -161 -43 -161 -116c0 -28 16 -47 45 -47c17 0 33 6 48 15c49 32 68 92 68 148z" />
    <glyph glyph-name="dcaron" unicode="&#x10f;" horiz-adv-x="713" 
d="M509 0h-159v94c-35 -71 -91 -113 -171 -113c-99 0 -159 89 -159 180c0 196 162 270 330 294v211h159v-666zM350 308c-59 -8 -161 -43 -161 -116c0 -28 16 -47 45 -47c17 0 33 6 48 15c49 32 68 92 68 148zM730 570l-96 -236l-103 40l97 237z" />
    <glyph glyph-name="dslash" unicode="&#x111;" horiz-adv-x="549" 
d="M509 0h-159v94c-35 -71 -91 -113 -171 -113c-99 0 -159 89 -159 180c0 196 162 270 330 294v36h-81v109h81v66h159v-66h30v-109h-30v-491zM350 308c-59 -8 -161 -43 -161 -116c0 -28 16 -47 45 -47c17 0 33 6 48 15c49 32 68 92 68 148z" />
    <glyph glyph-name="e" unicode="e" horiz-adv-x="519" 
d="M499 241c0 -18 -2 -36 -6 -54h-318c3 -42 59 -60 95 -60c35 0 94 7 124 26v-135c-43 -19 -89 -31 -134 -31c-137 0 -240 73 -240 217c0 156 133 268 285 268c139 0 194 -107 194 -231zM191 288h163c0 32 -36 54 -65 54c-37 0 -81 -19 -98 -54z" />
    <glyph glyph-name="eacute" unicode="&#xe9;" horiz-adv-x="519" 
d="M499 241c0 -18 -2 -36 -6 -54h-318c3 -42 59 -60 95 -60c35 0 94 7 124 26v-135c-43 -19 -89 -31 -134 -31c-137 0 -240 73 -240 217c0 156 133 268 285 268c139 0 194 -107 194 -231zM191 288h163c0 32 -36 54 -65 54c-37 0 -81 -19 -98 -54zM401 589l-187 -104l-54 97
l186 104z" />
    <glyph glyph-name="egrave" unicode="&#xe8;" horiz-adv-x="519" 
d="M499 241c0 -18 -2 -36 -6 -54h-318c3 -42 59 -60 95 -60c35 0 94 7 124 26v-135c-43 -19 -89 -31 -134 -31c-137 0 -240 73 -240 217c0 156 133 268 285 268c139 0 194 -107 194 -231zM191 288h163c0 32 -36 54 -65 54c-37 0 -81 -19 -98 -54zM402 582l-55 -97l-186 104
l54 97z" />
    <glyph glyph-name="ecircumflex" unicode="&#xea;" horiz-adv-x="519" 
d="M499 241c0 -18 -2 -36 -6 -54h-318c3 -42 59 -60 95 -60c35 0 94 7 124 26v-135c-43 -19 -89 -31 -134 -31c-137 0 -240 73 -240 217c0 156 133 268 285 268c139 0 194 -107 194 -231zM191 288h163c0 32 -36 54 -65 54c-37 0 -81 -19 -98 -54zM414 556l-79 -62l-53 72
l-53 -72l-80 62l109 130h48z" />
    <glyph glyph-name="edieresis" unicode="&#xeb;" horiz-adv-x="519" 
d="M499 241c0 -18 -2 -36 -6 -54h-318c3 -42 59 -60 95 -60c35 0 94 7 124 26v-135c-43 -19 -89 -31 -134 -31c-137 0 -240 73 -240 217c0 156 133 268 285 268c139 0 194 -107 194 -231zM191 288h163c0 32 -36 54 -65 54c-37 0 -81 -19 -98 -54zM444 605
c0 -50 -49 -99 -99 -99c-31 0 -52 22 -52 53c0 50 50 99 99 99c32 0 52 -22 52 -53zM271 605c0 -49 -50 -99 -99 -99c-31 0 -53 22 -53 53c0 49 50 99 99 99c31 0 53 -22 53 -53z" />
    <glyph glyph-name="ebreve" unicode="&#x115;" horiz-adv-x="519" 
d="M499 241c0 -18 -2 -36 -6 -54h-318c3 -42 59 -60 95 -60c35 0 94 7 124 26v-135c-43 -19 -89 -31 -134 -31c-137 0 -240 73 -240 217c0 156 133 268 285 268c139 0 194 -107 194 -231zM191 288h163c0 32 -36 54 -65 54c-37 0 -81 -19 -98 -54zM334 642h98
c-8 -82 -84 -150 -166 -150c-84 0 -136 51 -136 135c0 7 0 12 1 15h98v-6c0 -31 15 -46 45 -46c29 0 55 24 60 52z" />
    <glyph glyph-name="emacron" unicode="&#x113;" horiz-adv-x="519" 
d="M499 241c0 -18 -2 -36 -6 -54h-318c3 -42 59 -60 95 -60c35 0 94 7 124 26v-135c-43 -19 -89 -31 -134 -31c-137 0 -240 73 -240 217c0 156 133 268 285 268c139 0 194 -107 194 -231zM191 288h163c0 32 -36 54 -65 54c-37 0 -81 -19 -98 -54zM421 522h-279v110h279v-110
z" />
    <glyph glyph-name="edotaccent" unicode="&#x117;" horiz-adv-x="519" 
d="M499 241c0 -18 -2 -36 -6 -54h-318c3 -42 59 -60 95 -60c35 0 94 7 124 26v-135c-43 -19 -89 -31 -134 -31c-137 0 -240 73 -240 217c0 156 133 268 285 268c139 0 194 -107 194 -231zM191 288h163c0 32 -36 54 -65 54c-37 0 -81 -19 -98 -54zM358 610
c0 -47 -53 -100 -100 -100c-29 0 -53 24 -53 53c0 47 53 100 100 100c29 0 53 -24 53 -53z" />
    <glyph glyph-name="ecaron" unicode="&#x11b;" horiz-adv-x="519" 
d="M499 241c0 -18 -2 -36 -6 -54h-318c3 -42 59 -60 95 -60c35 0 94 7 124 26v-135c-43 -19 -89 -31 -134 -31c-137 0 -240 73 -240 217c0 156 133 268 285 268c139 0 194 -107 194 -231zM191 288h163c0 32 -36 54 -65 54c-37 0 -81 -19 -98 -54zM414 628l-108 -130h-48
l-109 130l80 62l53 -72l53 72z" />
    <glyph glyph-name="eogonek" unicode="&#x119;" horiz-adv-x="519" 
d="M344 -113v-92c-7 -4 -18 -6 -33 -6c-60 0 -104 42 -104 111c0 34 10 63 31 88c-125 8 -218 80 -218 216c0 156 133 268 285 268c139 0 194 -107 194 -231c0 -18 -2 -36 -6 -54h-318c3 -42 59 -60 95 -60c35 0 94 7 124 26v-135c-17 -8 -35 -15 -54 -19
c-31 -15 -49 -42 -49 -69s17 -45 37 -45c5 0 11 -1 16 2zM191 288h163c0 32 -36 54 -65 54c-37 0 -81 -19 -98 -54z" />
    <glyph glyph-name="f" unicode="f" horiz-adv-x="490" 
d="M480 494h-135v9c0 21 -10 31 -30 31c-37 0 -53 -42 -53 -74h146v-129h-146v-331h-159v331h-93v129h93c3 112 112 216 223 216c117 0 154 -77 154 -182z" />
    <glyph glyph-name="g" unicode="g" horiz-adv-x="548" 
d="M508 466v-363c0 -167 -77 -370 -270 -370c-113 0 -173 93 -173 198h138c-1 -28 13 -61 46 -61c79 0 97 131 100 204c0 7 1 14 1 21c-35 -71 -91 -114 -171 -114c-99 0 -159 90 -159 181c0 258 287 304 488 304zM233 145c109 0 112 152 116 163c-13 -5 -160 -24 -160 -115
c0 -28 16 -48 44 -48z" />
    <glyph glyph-name="gcircumflex" unicode="&#x11d;" horiz-adv-x="548" 
d="M508 466v-363c0 -167 -77 -370 -270 -370c-113 0 -173 93 -173 198h138c-1 -28 13 -61 46 -61c79 0 97 131 100 204c0 7 1 14 1 21c-35 -71 -91 -114 -171 -114c-99 0 -159 90 -159 181c0 258 287 304 488 304zM233 145c109 0 112 152 116 163c-13 -5 -160 -24 -160 -115
c0 -28 16 -48 44 -48zM406 556l-79 -62l-53 72l-53 -72l-80 62l109 130h48z" />
    <glyph glyph-name="gbreve" unicode="&#x11f;" horiz-adv-x="548" 
d="M508 466v-363c0 -167 -77 -370 -270 -370c-113 0 -173 93 -173 198h138c-1 -28 13 -61 46 -61c79 0 97 131 100 204c0 7 1 14 1 21c-35 -71 -91 -114 -171 -114c-99 0 -159 90 -159 181c0 258 287 304 488 304zM233 145c109 0 112 152 116 163c-13 -5 -160 -24 -160 -115
c0 -28 16 -48 44 -48zM327 642h98c-8 -82 -84 -150 -166 -150c-84 0 -136 51 -136 135c0 7 0 12 1 15h98v-6c0 -31 15 -46 45 -46c29 0 55 24 60 52z" />
    <glyph glyph-name="gdotaccent" unicode="&#x121;" horiz-adv-x="548" 
d="M508 466v-363c0 -167 -77 -370 -270 -370c-113 0 -173 93 -173 198h138c-1 -28 13 -61 46 -61c79 0 97 131 100 204c0 7 1 14 1 21c-35 -71 -91 -114 -171 -114c-99 0 -159 90 -159 181c0 258 287 304 488 304zM233 145c109 0 112 152 116 163c-13 -5 -160 -24 -160 -115
c0 -28 16 -48 44 -48zM350 610c0 -47 -53 -100 -100 -100c-29 0 -53 24 -53 53c0 47 53 100 100 100c29 0 53 -24 53 -53z" />
    <glyph glyph-name="uni0123" unicode="&#x123;" horiz-adv-x="548" 
d="M508 466v-363c0 -167 -77 -370 -270 -370c-113 0 -173 93 -173 198h138c-1 -28 13 -61 46 -61c79 0 97 131 100 204c0 7 1 14 1 21c-35 -71 -91 -114 -171 -114c-99 0 -159 90 -159 181c0 258 287 304 488 304zM233 145c109 0 112 152 116 163c-13 -5 -160 -24 -160 -115
c0 -28 16 -48 44 -48zM356 638l-61 -151l-104 40l62 151z" />
    <glyph glyph-name="h" unicode="h" horiz-adv-x="546" 
d="M506 0h-159v239c-90 -50 -131 -146 -163 -239h-144v666h159v-407c64 132 166 188 307 207v-466z" />
    <glyph glyph-name="hbar" unicode="&#x127;" horiz-adv-x="546" 
d="M506 0h-159v239c-90 -50 -131 -146 -163 -239h-144v491h-30v109h30v66h159v-66h81v-109h-81v-232c64 132 166 188 307 207v-466z" />
    <glyph glyph-name="hcircumflex" unicode="&#x125;" horiz-adv-x="546" 
d="M506 0h-159v239c-90 -50 -131 -146 -163 -239h-144v666h159v-407c64 132 166 188 307 207v-466zM481 696l-79 -62l-53 72l-53 -72l-80 62l109 130h48z" />
    <glyph glyph-name="i" unicode="i" horiz-adv-x="239" 
d="M217 609c0 -61 -65 -125 -126 -125c-39 0 -67 27 -67 67c0 61 65 125 126 125c39 0 67 -27 67 -67zM199 0h-159v460h159v-460z" />
    <glyph glyph-name="dotlessi" unicode="&#x131;" horiz-adv-x="239" 
d="M199 0h-159v460h159v-460z" />
    <glyph glyph-name="iacute" unicode="&#xed;" horiz-adv-x="239" 
d="M199 0h-159v460h159v-460zM241 589l-187 -104l-54 97l186 104z" />
    <glyph glyph-name="igrave" unicode="&#xec;" horiz-adv-x="239" 
d="M199 0h-159v460h159v-460zM241 582l-55 -97l-186 104l54 97z" />
    <glyph glyph-name="icircumflex" unicode="&#xee;" horiz-adv-x="239" 
d="M199 0h-159v460h159v-460zM253 556l-79 -62l-53 72l-53 -72l-80 62l109 130h48z" />
    <glyph glyph-name="idieresis" unicode="&#xef;" horiz-adv-x="239" 
d="M199 0h-159v460h159v-460zM283 605c0 -50 -49 -99 -99 -99c-31 0 -52 22 -52 53c0 50 50 99 99 99c32 0 52 -22 52 -53zM110 605c0 -49 -50 -99 -99 -99c-31 0 -53 22 -53 53c0 49 50 99 99 99c31 0 53 -22 53 -53z" />
    <glyph glyph-name="itilde" unicode="&#x129;" horiz-adv-x="239" 
d="M199 0h-159v460h159v-460zM224 647l55 -80c-24 -28 -59 -62 -99 -62c-42 0 -73 40 -109 40c-23 0 -39 -16 -54 -32l-55 81c24 28 59 62 99 62c43 0 72 -40 109 -40c23 0 39 15 54 31z" />
    <glyph glyph-name="ibreve" unicode="&#x12d;" horiz-adv-x="239" 
d="M199 0h-159v460h159v-460zM174 642h98c-8 -82 -84 -150 -166 -150c-84 0 -136 51 -136 135c0 7 0 12 1 15h98v-6c0 -31 15 -46 45 -46c29 0 55 24 60 52z" />
    <glyph glyph-name="imacron" unicode="&#x12b;" horiz-adv-x="239" 
d="M199 0h-159v460h159v-460zM260 522h-279v110h279v-110z" />
    <glyph glyph-name="iogonek" unicode="&#x12f;" horiz-adv-x="239" 
d="M199 -113v-92c-7 -4 -18 -6 -33 -6c-60 0 -104 42 -104 111c0 40 15 75 42 100h-64v460h159v-460c-33 -13 -53 -42 -53 -70c0 -27 17 -45 37 -45c5 0 11 -1 16 2zM217 609c0 -61 -65 -125 -126 -125c-39 0 -67 27 -67 67c0 61 65 125 126 125c39 0 67 -27 67 -67z" />
    <glyph glyph-name="i.dotaccent" horiz-adv-x="239" 
d="M217 609c0 -61 -65 -125 -126 -125c-39 0 -67 27 -67 67c0 61 65 125 126 125c39 0 67 -27 67 -67zM199 0h-159v460h159v-460z" />
    <glyph glyph-name="ij" unicode="&#x133;" horiz-adv-x="478" 
d="M217 609c0 -61 -65 -125 -126 -125c-39 0 -67 27 -67 67c0 61 65 125 126 125c39 0 67 -27 67 -67zM199 0h-159v460h159v-460zM456 609c0 -62 -65 -124 -126 -124c-39 0 -67 27 -67 66c0 64 64 125 125 125c40 0 68 -27 68 -67zM438 460v-357c0 -160 -36 -370 -238 -370
c-113 0 -166 94 -166 197h142c0 -19 10 -61 36 -61c71 0 67 191 67 234v357h159z" />
    <glyph glyph-name="j" unicode="j" horiz-adv-x="239" 
d="M217 609c0 -62 -65 -124 -126 -124c-39 0 -67 27 -67 66c0 64 64 125 125 125c40 0 68 -27 68 -67zM199 460v-357c0 -160 -36 -370 -238 -370c-113 0 -166 94 -166 197h142c0 -19 10 -61 36 -61c71 0 67 191 67 234v357h159z" />
    <glyph glyph-name="uni0237" unicode="&#x237;" horiz-adv-x="239" 
d="M199 460v-357c0 -160 -36 -370 -238 -370c-113 0 -166 94 -166 197h142c0 -19 10 -61 36 -61c71 0 67 191 67 234v357h159z" />
    <glyph glyph-name="jcircumflex" unicode="&#x135;" horiz-adv-x="239" 
d="M199 460v-357c0 -160 -36 -370 -238 -370c-113 0 -166 94 -166 197h142c0 -19 10 -61 36 -61c71 0 67 191 67 234v357h159zM253 556l-79 -62l-53 72l-53 -72l-80 62l109 130h48z" />
    <glyph glyph-name="k" unicode="k" horiz-adv-x="511" 
d="M521 0h-212l-110 166v-166h-159v666h159v-415l169 231l123 -94l-141 -180z" />
    <glyph glyph-name="uni0137" unicode="&#x137;" horiz-adv-x="511" 
d="M521 0h-212l-110 166v-166h-159v666h159v-415l169 231l123 -94l-141 -180zM338 -92l-61 -151l-104 40l62 151z" />
    <glyph glyph-name="kgreenlandic" unicode="&#x138;" horiz-adv-x="511" 
d="M521 0h-212l-110 166v-166h-159v460h159v-209l169 231l123 -94l-141 -180z" />
    <glyph glyph-name="l" unicode="l" horiz-adv-x="239" 
d="M199 0h-159v666h159v-666z" />
    <glyph glyph-name="lacute" unicode="&#x13a;" horiz-adv-x="239" 
d="M199 0h-159v666h159v-666zM241 780l-187 -104l-54 97l186 104z" />
    <glyph glyph-name="uni013C" unicode="&#x13c;" horiz-adv-x="239" 
d="M199 0h-159v666h159v-666zM203 -92l-61 -151l-104 40l62 151z" />
    <glyph glyph-name="lcaron" unicode="&#x13e;" horiz-adv-x="402" 
d="M199 0h-159v666h159v-666zM420 570l-96 -236l-103 40l97 237z" />
    <glyph glyph-name="ldot" unicode="&#x140;" horiz-adv-x="423" 
d="M199 0h-159v666h159v-666zM436 332c0 -68 -68 -138 -137 -138c-43 0 -73 30 -73 74c0 68 69 138 137 138c44 0 73 -30 73 -74z" />
    <glyph glyph-name="lslash" unicode="&#x142;" horiz-adv-x="354" 
d="M343 285l-84 -54v-231h-159v128l-89 -56v113l89 55v426h159v-323l84 54v-112z" />
    <glyph glyph-name="m" unicode="m" horiz-adv-x="854" 
d="M814 0h-159v239c-91 -51 -132 -146 -164 -239h-144v239c-90 -50 -131 -146 -163 -239h-144v460h159v-201c64 132 166 188 307 207v-207c64 132 166 188 308 207v-466z" />
    <glyph glyph-name="n" unicode="n" horiz-adv-x="546" 
d="M506 0h-159v239c-90 -50 -131 -146 -163 -239h-144v460h159v-201c64 132 166 188 307 207v-466z" />
    <glyph glyph-name="nacute" unicode="&#x144;" horiz-adv-x="546" 
d="M506 0h-159v239c-90 -50 -131 -146 -163 -239h-144v460h159v-201c64 132 166 188 307 207v-466zM393 589l-187 -104l-54 97l186 104z" />
    <glyph glyph-name="ntilde" unicode="&#xf1;" horiz-adv-x="546" 
d="M506 0h-159v239c-90 -50 -131 -146 -163 -239h-144v460h159v-201c64 132 166 188 307 207v-466zM376 647l55 -80c-24 -28 -59 -62 -99 -62c-42 0 -73 40 -109 40c-23 0 -39 -16 -54 -32l-55 81c24 28 59 62 99 62c43 0 72 -40 109 -40c23 0 39 15 54 31z" />
    <glyph glyph-name="napostrophe" unicode="&#x149;" horiz-adv-x="546" 
d="M506 0h-159v239c-90 -50 -131 -146 -163 -239h-144v460h159v-201c64 132 166 188 307 207v-466zM220 720l-96 -236l-103 40l97 237z" />
    <glyph glyph-name="ncaron" unicode="&#x148;" horiz-adv-x="546" 
d="M506 0h-159v239c-90 -50 -131 -146 -163 -239h-144v460h159v-201c64 132 166 188 307 207v-466zM405 628l-108 -130h-48l-109 130l80 62l53 -72l53 72z" />
    <glyph glyph-name="uni0146" unicode="&#x146;" horiz-adv-x="546" 
d="M506 0h-159v239c-90 -50 -131 -146 -163 -239h-144v460h159v-201c64 132 166 188 307 207v-466zM355 -92l-61 -151l-104 40l62 151z" />
    <glyph glyph-name="eng" unicode="&#x14b;" horiz-adv-x="546" 
d="M506 466v-456c0 -141 -55 -277 -257 -277v143c71 0 97 50 98 121v242c-90 -50 -131 -146 -163 -239h-144v460h159v-201c64 132 166 188 307 207z" />
    <glyph glyph-name="o" unicode="o" horiz-adv-x="526" 
d="M506 255c0 -141 -126 -268 -269 -268c-135 0 -217 82 -217 217c0 143 127 268 268 268c135 0 218 -82 218 -217zM348 242c0 49 -24 73 -73 73c-51 0 -97 -46 -97 -98c0 -47 26 -72 73 -72c51 0 97 46 97 97z" />
    <glyph glyph-name="oacute" unicode="&#xf3;" horiz-adv-x="526" 
d="M506 255c0 -141 -126 -268 -269 -268c-135 0 -217 82 -217 217c0 143 127 268 268 268c135 0 218 -82 218 -217zM348 242c0 49 -24 73 -73 73c-51 0 -97 -46 -97 -98c0 -47 26 -72 73 -72c51 0 97 46 97 97zM383 589l-187 -104l-54 97l186 104z" />
    <glyph glyph-name="ograve" unicode="&#xf2;" horiz-adv-x="526" 
d="M506 255c0 -141 -126 -268 -269 -268c-135 0 -217 82 -217 217c0 143 127 268 268 268c135 0 218 -82 218 -217zM348 242c0 49 -24 73 -73 73c-51 0 -97 -46 -97 -98c0 -47 26 -72 73 -72c51 0 97 46 97 97zM383 582l-55 -97l-186 104l54 97z" />
    <glyph glyph-name="ocircumflex" unicode="&#xf4;" horiz-adv-x="526" 
d="M506 255c0 -141 -126 -268 -269 -268c-135 0 -217 82 -217 217c0 143 127 268 268 268c135 0 218 -82 218 -217zM348 242c0 49 -24 73 -73 73c-51 0 -97 -46 -97 -98c0 -47 26 -72 73 -72c51 0 97 46 97 97zM395 556l-79 -62l-53 72l-53 -72l-80 62l109 130h48z" />
    <glyph glyph-name="odieresis" unicode="&#xf6;" horiz-adv-x="526" 
d="M506 255c0 -141 -126 -268 -269 -268c-135 0 -217 82 -217 217c0 143 127 268 268 268c135 0 218 -82 218 -217zM348 242c0 49 -24 73 -73 73c-51 0 -97 -46 -97 -98c0 -47 26 -72 73 -72c51 0 97 46 97 97zM425 605c0 -50 -49 -99 -99 -99c-31 0 -52 22 -52 53
c0 50 50 99 99 99c32 0 52 -22 52 -53zM252 605c0 -49 -50 -99 -99 -99c-31 0 -53 22 -53 53c0 49 50 99 99 99c31 0 53 -22 53 -53z" />
    <glyph glyph-name="otilde" unicode="&#xf5;" horiz-adv-x="526" 
d="M506 255c0 -141 -126 -268 -269 -268c-135 0 -217 82 -217 217c0 143 127 268 268 268c135 0 218 -82 218 -217zM348 242c0 49 -24 73 -73 73c-51 0 -97 -46 -97 -98c0 -47 26 -72 73 -72c51 0 97 46 97 97zM366 647l55 -80c-24 -28 -59 -62 -99 -62
c-42 0 -73 40 -109 40c-23 0 -39 -16 -54 -32l-55 81c24 28 59 62 99 62c43 0 72 -40 109 -40c23 0 39 15 54 31z" />
    <glyph glyph-name="obreve" unicode="&#x14f;" horiz-adv-x="526" 
d="M506 255c0 -141 -126 -268 -269 -268c-135 0 -217 82 -217 217c0 143 127 268 268 268c135 0 218 -82 218 -217zM348 242c0 49 -24 73 -73 73c-51 0 -97 -46 -97 -98c0 -47 26 -72 73 -72c51 0 97 46 97 97zM316 642h98c-8 -82 -84 -150 -166 -150
c-84 0 -136 51 -136 135c0 7 0 12 1 15h98v-6c0 -31 15 -46 45 -46c29 0 55 24 60 52z" />
    <glyph glyph-name="omacron" unicode="&#x14d;" horiz-adv-x="526" 
d="M506 255c0 -141 -126 -268 -269 -268c-135 0 -217 82 -217 217c0 143 127 268 268 268c135 0 218 -82 218 -217zM348 242c0 49 -24 73 -73 73c-51 0 -97 -46 -97 -98c0 -47 26 -72 73 -72c51 0 97 46 97 97zM402 522h-279v110h279v-110z" />
    <glyph glyph-name="ohungarumlaut" unicode="&#x151;" horiz-adv-x="526" 
d="M506 255c0 -141 -126 -268 -269 -268c-135 0 -217 82 -217 217c0 143 127 268 268 268c135 0 218 -82 218 -217zM348 242c0 49 -24 73 -73 73c-51 0 -97 -46 -97 -98c0 -47 26 -72 73 -72c51 0 97 46 97 97zM447 656l-107 -171l-94 59l107 171zM273 656l-107 -171l-94 59
l107 171z" />
    <glyph glyph-name="oslash" unicode="&#xf8;" horiz-adv-x="526" 
d="M568 460l-88 -91c19 -35 26 -75 26 -114c0 -141 -126 -268 -269 -268c-41 0 -82 8 -119 28l-14 -15h-146l87 91c-19 35 -25 74 -25 113c0 143 127 268 268 268c41 0 83 -8 119 -28l15 16h146zM284 327l-9 1c-59 0 -110 -55 -110 -112v-12zM361 244c0 4 -1 7 -1 11
l-118 -123h9c59 0 110 54 110 112z" />
    <glyph glyph-name="oslashacute" unicode="&#x1ff;" horiz-adv-x="526" 
d="M568 460l-88 -91c19 -35 26 -75 26 -114c0 -141 -126 -268 -269 -268c-41 0 -82 8 -119 28l-14 -15h-146l87 91c-19 35 -25 74 -25 113c0 143 127 268 268 268c41 0 83 -8 119 -28l15 16h146zM284 327l-9 1c-59 0 -110 -55 -110 -112v-12zM361 244c0 4 -1 7 -1 11
l-118 -123h9c59 0 110 54 110 112zM383 589l-187 -104l-54 97l186 104z" />
    <glyph glyph-name="oe" unicode="&#x153;" horiz-adv-x="814" 
d="M794 260v-25c1 -16 -2 -32 -5 -48h-318c0 -6 2 -12 5 -19c15 -28 60 -41 90 -41c34 0 94 8 123 26v-135c-40 -19 -84 -31 -128 -31c-65 0 -130 16 -166 75c-43 -48 -99 -75 -163 -75c-136 0 -212 84 -212 217c0 141 120 268 263 268c60 0 115 -15 147 -70
c47 51 109 70 176 70c127 0 188 -94 188 -212zM348 242c0 49 -24 73 -73 73c-51 0 -97 -46 -97 -98c0 -47 26 -72 73 -72c51 0 97 46 97 97zM650 288v4c-3 31 -37 50 -65 50c-37 0 -81 -19 -98 -54h163z" />
    <glyph glyph-name="p" unicode="p" horiz-adv-x="549" 
d="M529 298c0 -194 -162 -270 -330 -294v-210h-159v666h159v-95c35 71 91 114 171 114c99 0 159 -90 159 -181zM360 267c0 28 -16 48 -45 48c-17 0 -33 -5 -48 -16c-49 -32 -68 -92 -68 -148c58 8 161 43 161 116z" />
    <glyph glyph-name="q" unicode="q" horiz-adv-x="549" 
d="M509 -206h-159v300c-35 -71 -91 -113 -171 -113c-99 0 -159 89 -159 181c0 258 287 304 489 304v-672zM350 308c-59 -8 -161 -43 -161 -116c0 -28 16 -47 45 -47c17 0 33 6 48 15c49 32 68 92 68 148z" />
    <glyph glyph-name="r" unicode="r" horiz-adv-x="456" 
d="M446 466v-185c-141 -29 -228 -140 -247 -281h-159v460h159v-203c40 107 134 190 247 209z" />
    <glyph glyph-name="racute" unicode="&#x155;" horiz-adv-x="456" 
d="M446 466v-185c-141 -29 -228 -140 -247 -281h-159v460h159v-203c40 107 134 190 247 209zM348 589l-187 -104l-54 97l186 104z" />
    <glyph glyph-name="rcaron" unicode="&#x159;" horiz-adv-x="456" 
d="M446 466v-185c-141 -29 -228 -140 -247 -281h-159v460h159v-203c40 107 134 190 247 209zM360 628l-108 -130h-48l-109 130l80 62l53 -72l53 72z" />
    <glyph glyph-name="uni0157" unicode="&#x157;" horiz-adv-x="456" 
d="M446 466v-185c-141 -29 -228 -140 -247 -281h-159v460h159v-203c40 107 134 190 247 209zM207 -92l-61 -151l-104 40l62 151z" />
    <glyph glyph-name="s" unicode="s" horiz-adv-x="395" 
d="M375 153c0 -128 -135 -162 -239 -162c-31 0 -59 2 -87 7v138c35 -8 69 -13 104 -13c17 0 70 1 70 26c0 16 -28 23 -63 34c-59 16 -140 41 -140 119c0 128 140 166 245 166c27 0 55 -2 82 -7v-132c-35 7 -66 10 -101 10c-16 0 -71 0 -71 -24c0 -17 25 -24 60 -33
c58 -16 140 -35 140 -129z" />
    <glyph glyph-name="sacute" unicode="&#x15b;" horiz-adv-x="395" 
d="M375 153c0 -128 -135 -162 -239 -162c-31 0 -59 2 -87 7v138c35 -8 69 -13 104 -13c17 0 70 1 70 26c0 16 -28 23 -63 34c-59 16 -140 41 -140 119c0 128 140 166 245 166c27 0 55 -2 82 -7v-132c-35 7 -66 10 -101 10c-16 0 -71 0 -71 -24c0 -17 25 -24 60 -33
c58 -16 140 -35 140 -129zM318 589l-187 -104l-54 97l186 104z" />
    <glyph glyph-name="scaron" unicode="&#x161;" horiz-adv-x="395" 
d="M375 153c0 -128 -135 -162 -239 -162c-31 0 -59 2 -87 7v138c35 -8 69 -13 104 -13c17 0 70 1 70 26c0 16 -28 23 -63 34c-59 16 -140 41 -140 119c0 128 140 166 245 166c27 0 55 -2 82 -7v-132c-35 7 -66 10 -101 10c-16 0 -71 0 -71 -24c0 -17 25 -24 60 -33
c58 -16 140 -35 140 -129zM330 628l-108 -130h-48l-109 130l80 62l53 -72l53 72z" />
    <glyph glyph-name="scircumflex" unicode="&#x15d;" horiz-adv-x="395" 
d="M375 153c0 -128 -135 -162 -239 -162c-31 0 -59 2 -87 7v138c35 -8 69 -13 104 -13c17 0 70 1 70 26c0 16 -28 23 -63 34c-59 16 -140 41 -140 119c0 128 140 166 245 166c27 0 55 -2 82 -7v-132c-35 7 -66 10 -101 10c-16 0 -71 0 -71 -24c0 -17 25 -24 60 -33
c58 -16 140 -35 140 -129zM330 556l-79 -62l-53 72l-53 -72l-80 62l109 130h48z" />
    <glyph glyph-name="uni015F" unicode="&#x15f;" horiz-adv-x="395" 
d="M283 -91l-61 -152l-104 40l43 108l-50 21l21 65c-30 0 -58 2 -83 7v138c35 -8 69 -13 104 -13c17 0 70 1 70 26c0 16 -28 23 -63 34c-59 16 -140 41 -140 119c0 128 140 166 245 166c27 0 55 -2 82 -7v-132c-35 7 -66 10 -101 10c-16 0 -71 0 -71 -24
c0 -17 25 -24 60 -33c58 -16 140 -35 140 -129c0 -84 -60 -131 -131 -149l-24 -67z" />
    <glyph glyph-name="uni0219" unicode="&#x219;" horiz-adv-x="395" 
d="M375 153c0 -128 -135 -162 -239 -162c-31 0 -59 2 -87 7v138c35 -8 69 -13 104 -13c17 0 70 1 70 26c0 16 -28 23 -63 34c-59 16 -140 41 -140 119c0 128 140 166 245 166c27 0 55 -2 82 -7v-132c-35 7 -66 10 -101 10c-16 0 -71 0 -71 -24c0 -17 25 -24 60 -33
c58 -16 140 -35 140 -129zM280 -92l-61 -151l-104 40l62 151z" />
    <glyph glyph-name="germandbls" unicode="&#xdf;" horiz-adv-x="606" 
d="M586 153c0 -128 -136 -162 -240 -162c-31 0 -60 2 -87 7v53l1 85c35 -8 69 -13 104 -13c16 0 70 1 70 26c0 16 -28 23 -63 34c-60 16 -140 41 -140 119c0 52 24 88 47 120c17 25 31 46 31 69c0 28 -20 43 -47 43c-60 0 -63 -98 -63 -138v-396h-159v396
c0 147 58 280 223 280c101 0 187 -53 187 -162c0 -47 -26 -83 -47 -112c-16 -23 -28 -40 -28 -57c0 -36 42 -51 73 -59c79 -21 138 -60 138 -133z" />
    <glyph glyph-name="t" unicode="t" horiz-adv-x="418" 
d="M408 331h-146v-331h-159v331h-93v129h93v157h159v-157h146v-129z" />
    <glyph glyph-name="tbar" unicode="&#x167;" horiz-adv-x="418" 
d="M408 331h-146v-100h55v-109h-55v-122h-159v122h-56v109h56v100h-93v129h93v157h159v-157h146v-129z" />
    <glyph glyph-name="tcaron" unicode="&#x165;" horiz-adv-x="418" 
d="M408 331h-146v-331h-159v331h-93v129h93v157h159v-157h146v-129zM473 725l-96 -236l-103 40l97 237z" />
    <glyph glyph-name="tcommaaccent" unicode="&#x163;" horiz-adv-x="418" 
d="M281 -91l-61 -152l-104 40l43 108l-50 21l24 74h-30v331h-93v129h93v157h159v-157h146v-129h-146v-331h-21l-23 -63z" />
    <glyph glyph-name="uni021B" unicode="&#x21b;" horiz-adv-x="418" 
d="M408 331h-146v-331h-159v331h-93v129h93v157h159v-157h146v-129zM267 -92l-61 -151l-104 40l62 151z" />
    <glyph glyph-name="u" unicode="u" horiz-adv-x="546" 
d="M506 0h-159v200c-65 -131 -166 -188 -307 -207v467h159v-239c90 50 132 145 164 239h143v-460z" />
    <glyph glyph-name="uacute" unicode="&#xfa;" horiz-adv-x="546" 
d="M506 0h-159v200c-65 -131 -166 -188 -307 -207v467h159v-239c90 50 132 145 164 239h143v-460zM393 589l-187 -104l-54 97l186 104z" />
    <glyph glyph-name="ugrave" unicode="&#xf9;" horiz-adv-x="546" 
d="M506 0h-159v200c-65 -131 -166 -188 -307 -207v467h159v-239c90 50 132 145 164 239h143v-460zM393 582l-55 -97l-186 104l54 97z" />
    <glyph glyph-name="ucircumflex" unicode="&#xfb;" horiz-adv-x="546" 
d="M506 0h-159v200c-65 -131 -166 -188 -307 -207v467h159v-239c90 50 132 145 164 239h143v-460zM405 556l-79 -62l-53 72l-53 -72l-80 62l109 130h48z" />
    <glyph glyph-name="udieresis" unicode="&#xfc;" horiz-adv-x="546" 
d="M506 0h-159v200c-65 -131 -166 -188 -307 -207v467h159v-239c90 50 132 145 164 239h143v-460zM435 605c0 -50 -49 -99 -99 -99c-31 0 -52 22 -52 53c0 50 50 99 99 99c32 0 52 -22 52 -53zM262 605c0 -49 -50 -99 -99 -99c-31 0 -53 22 -53 53c0 49 50 99 99 99
c31 0 53 -22 53 -53z" />
    <glyph glyph-name="utilde" unicode="&#x169;" horiz-adv-x="546" 
d="M506 0h-159v200c-65 -131 -166 -188 -307 -207v467h159v-239c90 50 132 145 164 239h143v-460zM376 647l55 -80c-24 -28 -59 -62 -99 -62c-42 0 -73 40 -109 40c-23 0 -39 -16 -54 -32l-55 81c24 28 59 62 99 62c43 0 72 -40 109 -40c23 0 39 15 54 31z" />
    <glyph glyph-name="uring" unicode="&#x16f;" horiz-adv-x="546" 
d="M506 0h-159v200c-65 -131 -166 -188 -307 -207v467h159v-239c90 50 132 145 164 239h143v-460zM375 599c0 -60 -53 -113 -113 -113c-57 0 -91 35 -91 92c0 60 52 112 112 112c56 0 92 -35 92 -91zM307 593c0 20 -10 30 -30 30c-21 0 -40 -17 -40 -40c0 -20 10 -30 30 -30
c21 0 40 20 40 40z" />
    <glyph glyph-name="ubreve" unicode="&#x16d;" horiz-adv-x="546" 
d="M506 0h-159v200c-65 -131 -166 -188 -307 -207v467h159v-239c90 50 132 145 164 239h143v-460zM326 642h98c-8 -82 -84 -150 -166 -150c-84 0 -136 51 -136 135c0 7 0 12 1 15h98v-6c0 -31 15 -46 45 -46c29 0 55 24 60 52z" />
    <glyph glyph-name="umacron" unicode="&#x16b;" horiz-adv-x="546" 
d="M506 0h-159v200c-65 -131 -166 -188 -307 -207v467h159v-239c90 50 132 145 164 239h143v-460zM412 522h-279v110h279v-110z" />
    <glyph glyph-name="uhungarumlaut" unicode="&#x171;" horiz-adv-x="546" 
d="M506 0h-159v200c-65 -131 -166 -188 -307 -207v467h159v-239c90 50 132 145 164 239h143v-460zM457 656l-107 -171l-94 59l107 171zM283 656l-107 -171l-94 59l107 171z" />
    <glyph glyph-name="uogonek" unicode="&#x173;" horiz-adv-x="546" 
d="M506 -113v-92c-7 -4 -18 -6 -33 -6c-60 0 -104 42 -104 111c0 40 15 75 42 100h-64v200c-65 -131 -166 -188 -307 -207v467h159v-239c90 50 132 145 164 239h143v-460c-33 -13 -53 -42 -53 -70c0 -27 17 -45 37 -45c5 0 11 -1 16 2z" />
    <glyph glyph-name="v" unicode="v" horiz-adv-x="511" 
d="M521 460l-198 -460h-134l-199 460h174l92 -256l91 256h174z" />
    <glyph glyph-name="w" unicode="w" horiz-adv-x="802" 
d="M812 460l-199 -460h-117l-95 258l-95 -258h-117l-199 460h174l83 -233l84 233h140l84 -233l83 233h174z" />
    <glyph glyph-name="wacute" unicode="&#x1e83;" horiz-adv-x="802" 
d="M812 460l-199 -460h-117l-95 258l-95 -258h-117l-199 460h174l83 -233l84 233h140l84 -233l83 233h174zM521 589l-187 -104l-54 97l186 104z" />
    <glyph glyph-name="wgrave" unicode="&#x1e81;" horiz-adv-x="802" 
d="M812 460l-199 -460h-117l-95 258l-95 -258h-117l-199 460h174l83 -233l84 233h140l84 -233l83 233h174zM521 582l-55 -97l-186 104l54 97z" />
    <glyph glyph-name="wcircumflex" unicode="&#x175;" horiz-adv-x="802" 
d="M812 460l-199 -460h-117l-95 258l-95 -258h-117l-199 460h174l83 -233l84 233h140l84 -233l83 233h174zM533 556l-79 -62l-53 72l-53 -72l-80 62l109 130h48z" />
    <glyph glyph-name="wdieresis" unicode="&#x1e85;" horiz-adv-x="802" 
d="M812 460l-199 -460h-117l-95 258l-95 -258h-117l-199 460h174l83 -233l84 233h140l84 -233l83 233h174zM563 605c0 -50 -49 -99 -99 -99c-31 0 -52 22 -52 53c0 50 50 99 99 99c32 0 52 -22 52 -53zM390 605c0 -49 -50 -99 -99 -99c-31 0 -53 22 -53 53c0 49 50 99 99 99
c31 0 53 -22 53 -53z" />
    <glyph glyph-name="x" unicode="x" horiz-adv-x="526" 
d="M526 460l-157 -233l153 -227h-195l-64 122l-64 -122h-195l153 227l-157 233h195l68 -127l68 127h195z" />
    <glyph glyph-name="y" unicode="y" horiz-adv-x="531" 
d="M531 460l-290 -666h-166l109 240l-184 426h174l92 -255l91 255h174z" />
    <glyph glyph-name="yacute" unicode="&#xfd;" horiz-adv-x="531" 
d="M531 460l-290 -666h-166l109 240l-184 426h174l92 -255l91 255h174zM386 589l-187 -104l-54 97l186 104z" />
    <glyph glyph-name="ygrave" unicode="&#x1ef3;" horiz-adv-x="531" 
d="M531 460l-290 -666h-166l109 240l-184 426h174l92 -255l91 255h174zM386 582l-55 -97l-186 104l54 97z" />
    <glyph glyph-name="ycircumflex" unicode="&#x177;" horiz-adv-x="531" 
d="M531 460l-290 -666h-166l109 240l-184 426h174l92 -255l91 255h174zM398 556l-79 -62l-53 72l-53 -72l-80 62l109 130h48z" />
    <glyph glyph-name="ydieresis" unicode="&#xff;" horiz-adv-x="531" 
d="M531 460l-290 -666h-166l109 240l-184 426h174l92 -255l91 255h174zM428 605c0 -50 -49 -99 -99 -99c-31 0 -52 22 -52 53c0 50 50 99 99 99c32 0 52 -22 52 -53zM255 605c0 -49 -50 -99 -99 -99c-31 0 -53 22 -53 53c0 49 50 99 99 99c31 0 53 -22 53 -53z" />
    <glyph glyph-name="z" unicode="z" horiz-adv-x="415" 
d="M395 0h-375l147 314h-147v146h375l-147 -315h147v-145z" />
    <glyph glyph-name="zacute" unicode="&#x17a;" horiz-adv-x="415" 
d="M395 0h-375l147 314h-147v146h375l-147 -315h147v-145zM328 589l-187 -104l-54 97l186 104z" />
    <glyph glyph-name="zcaron" unicode="&#x17e;" horiz-adv-x="415" 
d="M395 0h-375l147 314h-147v146h375l-147 -315h147v-145zM340 628l-108 -130h-48l-109 130l80 62l53 -72l53 72z" />
    <glyph glyph-name="zdotaccent" unicode="&#x17c;" horiz-adv-x="415" 
d="M395 0h-375l147 314h-147v146h375l-147 -315h147v-145zM284 610c0 -47 -53 -100 -100 -100c-29 0 -53 24 -53 53c0 47 53 100 100 100c29 0 53 -24 53 -53z" />
    <glyph glyph-name="eth" unicode="&#xf0;" horiz-adv-x="544" 
d="M217 451l-36 79l91 41c-23 20 -46 37 -67 46l150 70c23 -15 44 -31 62 -48l89 42l37 -78l-72 -34c31 -53 50 -118 50 -202c0 -205 -138 -386 -317 -386c-123 0 -184 89 -184 180c0 196 162 270 330 294c-5 17 -12 33 -21 48zM350 308c-59 -8 -161 -43 -161 -116
c0 -28 16 -47 45 -47c17 0 33 6 48 15c35 23 54 60 63 100c3 16 5 32 5 48z" />
    <glyph glyph-name="thorn" unicode="&#xfe;" horiz-adv-x="549" 
d="M529 298c0 -194 -162 -270 -330 -294v-210h-159v872h159v-301c35 71 91 114 171 114c99 0 159 -90 159 -181zM360 267c0 28 -16 48 -45 48c-17 0 -33 -7 -48 -16c-27 -17 -44 -42 -55 -71c-9 -24 -13 -50 -13 -77c59 8 161 44 161 116z" />
    <glyph glyph-name="acute" unicode="&#xb4;" horiz-adv-x="293" 
d="M271 589l-187 -104l-54 97l186 104z" />
    <glyph glyph-name="grave" unicode="`" horiz-adv-x="293" 
d="M271 582l-55 -97l-186 104l54 97z" />
    <glyph glyph-name="circumflex" unicode="&#x2c6;" horiz-adv-x="296" 
d="M280 556l-79 -62l-53 72l-53 -72l-80 62l109 130h48z" />
    <glyph glyph-name="dieresis" unicode="&#xa8;" horiz-adv-x="365" 
d="M345 605c0 -50 -49 -99 -99 -99c-31 0 -52 22 -52 53c0 50 50 99 99 99c32 0 52 -22 52 -53zM172 605c0 -49 -50 -99 -99 -99c-31 0 -53 22 -53 53c0 49 50 99 99 99c31 0 53 -22 53 -53z" />
    <glyph glyph-name="tilde" unicode="&#x2dc;" horiz-adv-x="315" 
d="M262 647l55 -80c-24 -28 -59 -62 -99 -62c-42 0 -73 40 -109 40c-23 0 -39 -16 -54 -32l-55 81c24 28 59 62 99 62c43 0 72 -40 109 -40c23 0 39 15 54 31z" />
    <glyph glyph-name="ring" unicode="&#x2da;" horiz-adv-x="377" 
d="M293 599c0 -60 -53 -113 -113 -113c-57 0 -91 35 -91 92c0 60 52 112 112 112c56 0 92 -35 92 -91zM225 593c0 20 -10 30 -30 30c-21 0 -40 -17 -40 -40c0 -20 10 -30 30 -30c21 0 40 20 40 40z" />
    <glyph glyph-name="breve" unicode="&#x2d8;" horiz-adv-x="296" 
d="M204 642h98c-8 -82 -84 -150 -166 -150c-84 0 -136 51 -136 135c0 7 0 12 1 15h98v-6c0 -31 15 -46 45 -46c29 0 55 24 60 52z" />
    <glyph glyph-name="overscore" unicode="&#xaf;" horiz-adv-x="359" 
d="M319 522h-279v110h279v-110z" />
    <glyph glyph-name="dotaccent" unicode="&#x2d9;" horiz-adv-x="215" 
d="M183 610c0 -47 -53 -100 -100 -100c-29 0 -53 24 -53 53c0 47 53 100 100 100c29 0 53 -24 53 -53z" />
    <glyph glyph-name="hungarumlaut" unicode="&#x2dd;" horiz-adv-x="381" 
d="M375 656l-107 -171l-94 59l107 171zM201 656l-107 -171l-94 59l107 171z" />
    <glyph glyph-name="caron" unicode="&#x2c7;" horiz-adv-x="296" 
d="M280 628l-108 -130h-48l-109 130l80 62l53 -72l53 72z" />
    <glyph glyph-name="cedilla" unicode="&#xb8;" horiz-adv-x="172" 
d="M172 -91l-61 -152l-104 40l43 108l-50 21l32 97h108l-31 -86z" />
    <glyph glyph-name="ogonek" unicode="&#x2db;" horiz-adv-x="250" 
d="M137 -113v-92c-7 -4 -18 -6 -33 -6c-60 0 -104 42 -104 111c0 71 47 123 119 142l18 -42c-33 -13 -53 -42 -53 -70c0 -27 17 -45 37 -45c5 0 11 -1 16 2z" />
    <glyph glyph-name="uni0326" unicode="&#x326;" horiz-adv-x="276" 
d="M213 -92l-61 -151l-104 40l62 151z" />
    <glyph glyph-name="uni0312" unicode="&#x312;" horiz-adv-x="276" 
d="M213 638l-61 -151l-104 40l62 151z" />
    <glyph glyph-name="ampersand" unicode="&#x26;" horiz-adv-x="657" 
d="M638 113l-108 -124l-93 77c-59 -47 -123 -81 -199 -81c-70 0 -149 26 -186 90c-13 21 -19 43 -19 66c0 72 47 130 103 169c-49 43 -67 74 -67 142c0 115 134 158 229 158c81 0 180 -28 180 -127c0 -72 -56 -135 -109 -178c23 -19 45 -30 68 -49l96 90l102 -100l-79 -74z
M315 438c0 21 -18 31 -37 31c-27 0 -52 -11 -52 -42c0 -23 19 -36 38 -47c19 11 51 32 51 58zM326 156c-25 24 -54 43 -81 66c-20 -12 -34 -27 -34 -52c0 -23 21 -40 44 -40c27 0 52 7 71 26z" />
    <glyph glyph-name="numbersign" unicode="#" horiz-adv-x="682" 
d="M672 353h-141l-45 -111h101v-92h-139l-64 -154h-124l63 154h-87l-63 -154h-125l63 154h-101v92h139l46 111h-100v93h138l63 154h125l-63 -154h87l63 154h125l-63 -154h102v-93zM406 353h-87l-45 -111h87z" />
    <glyph glyph-name="at" unicode="@" horiz-adv-x="682" 
d="M657 381c0 -146 -124 -238 -260 -249v71c-27 -52 -69 -85 -129 -85c-75 0 -119 67 -119 136c0 194 215 228 367 228v-244c37 35 56 84 56 133c0 116 -89 165 -194 165c-135 0 -272 -117 -272 -256c0 -131 86 -217 217 -217c44 0 96 15 133 38l1 -87
c-43 -21 -89 -33 -136 -33c-176 0 -296 120 -296 296c0 184 178 341 357 341c146 0 275 -77 275 -237zM397 364c-44 -8 -121 -31 -121 -88c0 -20 12 -35 33 -35c43 0 69 36 80 75c5 18 8 34 8 48z" />
    <glyph glyph-name="percent" unicode="%" horiz-adv-x="770" 
d="M754 172c0 -102 -90 -191 -191 -191c-96 0 -154 58 -154 154c0 101 89 191 190 191c96 0 155 -58 155 -154zM694 603l-467 -603h-146l467 603h146zM361 459c0 -102 -90 -191 -191 -191c-96 0 -154 58 -154 154c0 101 89 191 191 191c96 0 154 -58 154 -154zM637 162
c0 32 -16 48 -48 48c-33 0 -64 -31 -64 -64c0 -32 16 -48 48 -48c35 0 64 29 64 64zM244 449c0 32 -16 48 -48 48c-33 0 -64 -31 -64 -64c0 -32 16 -48 48 -48c35 0 64 29 64 64z" />
    <glyph glyph-name="perthousand" unicode="&#x2030;" horiz-adv-x="1130" 
d="M1114 172c0 -102 -89 -191 -190 -191c-96 0 -154 58 -154 154c0 101 89 191 190 191c96 0 154 -58 154 -154zM754 172c0 -102 -90 -191 -191 -191c-96 0 -154 58 -154 154c0 101 89 191 190 191c96 0 155 -58 155 -154zM694 603l-467 -603h-146l467 603h146zM361 459
c0 -102 -90 -191 -191 -191c-96 0 -154 58 -154 154c0 101 89 191 191 191c96 0 154 -58 154 -154zM998 162c0 32 -16 48 -48 48c-35 0 -64 -31 -64 -64c0 -32 16 -48 48 -48c35 0 64 29 64 64zM637 162c0 32 -16 48 -48 48c-33 0 -64 -31 -64 -64c0 -32 16 -48 48 -48
c35 0 64 29 64 64zM244 449c0 32 -16 48 -48 48c-33 0 -64 -31 -64 -64c0 -32 16 -48 48 -48c35 0 64 29 64 64z" />
    <glyph glyph-name="parenleft" unicode="(" horiz-adv-x="257" 
d="M244 -86v-90c-4 0 -9 -1 -14 -1c-28 0 -63 12 -86 31c-52 44 -80 113 -95 186c-13 60 -16 123 -16 176c0 58 6 116 18 173c21 96 83 258 193 277v-98c-68 -22 -103 -164 -114 -226c-7 -43 -10 -86 -10 -129c0 -73 11 -300 115 -300c3 0 6 1 9 1z" />
    <glyph glyph-name="parenright" unicode=")" horiz-adv-x="257" 
d="M224 273c0 -59 -6 -116 -18 -173c-22 -94 -84 -258 -193 -277v98c67 19 103 167 114 227c7 43 10 85 10 128c0 73 -11 300 -114 300c-5 0 -8 0 -10 -1v90c2 1 5 1 10 1h4c28 1 63 -11 86 -31c60 -51 88 -135 101 -219c8 -49 10 -99 10 -143z" />
    <glyph glyph-name="bracketleft" unicode="[" horiz-adv-x="254" 
d="M244 -171h-204v837h204v-92h-111v-652h111v-93z" />
    <glyph glyph-name="bracketright" unicode="]" horiz-adv-x="254" 
d="M214 -171h-204v93h111v652h-111v92h204v-837z" />
    <glyph glyph-name="braceleft" unicode="{" horiz-adv-x="281" 
d="M271 -89v-87c-7 -1 -14 -1 -21 -1c-113 0 -182 68 -182 181v132c0 33 -19 53 -50 50h-8v93c31 5 58 33 57 65v93c0 114 93 212 204 225v-100c-61 -8 -110 -63 -110 -125v-93c0 -45 -17 -80 -52 -105c39 -23 52 -60 52 -103v-132c0 -61 34 -95 95 -95c3 0 8 1 15 2z" />
    <glyph glyph-name="braceright" unicode="}" horiz-adv-x="281" 
d="M271 299v-94c-31 -4 -57 -33 -57 -65v-93c0 -112 -91 -213 -204 -224v99c60 8 111 65 111 125v93c0 44 17 79 52 106c-39 21 -52 59 -52 102v132c0 61 -34 95 -95 95c-5 0 -11 -1 -16 -1v87c7 0 14 1 21 1c113 0 182 -69 182 -182v-132c0 -33 19 -51 50 -50c4 0 7 0 8 1z
" />
    <glyph glyph-name="asterisk" unicode="*" horiz-adv-x="455" 
d="M435 360l-69 -120l-102 97l33 -137h-139l33 137l-102 -97l-69 120l135 40l-135 40l69 120l102 -97l-33 137h139l-33 -137l102 97l69 -120l-135 -40z" />
    <glyph glyph-name="dagger" unicode="&#x2020;" horiz-adv-x="394" 
d="M374 372h-103v-230h-148v230h-103v148h103v96h148v-96h103v-148z" />
    <glyph glyph-name="daggerdbl" unicode="&#x2021;" horiz-adv-x="394" 
d="M374 79h-103v-96h-148v96h-103v149h103v144h-103v148h103v96h148v-96h103v-148h-103v-144h103v-149z" />
    <glyph glyph-name="section" unicode="&#xa7;" horiz-adv-x="539" 
d="M519 213c0 -70 -62 -137 -118 -172c17 -25 25 -53 25 -84c0 -7 -1 -12 -1 -19c-13 -126 -161 -171 -270 -171v143c24 0 78 11 78 43c0 23 -27 34 -66 49c-63 24 -147 57 -147 168c0 70 62 137 118 172c-17 25 -25 52 -25 83c0 141 155 191 271 191v-144
c-24 0 -78 -10 -78 -42c0 -23 27 -33 64 -48c63 -24 149 -58 149 -169zM337 194c0 29 -57 54 -80 62c-25 -11 -56 -37 -56 -68c0 -28 59 -54 80 -62c27 12 56 37 56 68z" />
    <glyph glyph-name="paragraph" unicode="&#xb6;" horiz-adv-x="551" 
d="M501 -218h-92v678h-47v-678h-92v400c-23 0 -44 1 -65 4c-99 13 -189 52 -189 172c0 41 7 76 22 105c59 117 219 137 355 137h108v-818zM270 330v122c-35 -8 -80 -22 -80 -66c0 -35 24 -46 52 -53c9 -2 18 -3 28 -3z" />
    <glyph glyph-name="period" unicode="." horiz-adv-x="276" 
d="M243 121c0 -68 -68 -138 -137 -138c-43 0 -73 30 -73 74c0 68 69 138 137 138c44 0 73 -30 73 -74z" />
    <glyph glyph-name="ellipsis" unicode="&#x2026;" horiz-adv-x="829" 
d="M796 121c0 -68 -68 -138 -137 -138c-43 0 -73 30 -73 74c0 68 69 138 137 138c44 0 73 -30 73 -74zM520 121c0 -68 -69 -138 -137 -138c-44 0 -74 30 -74 74c0 68 70 138 138 138c43 0 73 -30 73 -74zM243 121c0 -68 -68 -138 -137 -138c-43 0 -73 30 -73 74
c0 68 69 138 137 138c44 0 73 -30 73 -74z" />
    <glyph glyph-name="colon" unicode=":" horiz-adv-x="276" 
d="M243 365c0 -68 -68 -138 -137 -138c-43 0 -73 30 -73 74c0 68 69 137 137 137c44 0 73 -30 73 -73zM243 121c0 -68 -68 -138 -137 -138c-43 0 -73 30 -73 74c0 68 69 138 137 138c44 0 73 -30 73 -74z" />
    <glyph glyph-name="comma" unicode="," horiz-adv-x="276" 
d="M250 124l-106 -261l-150 60l107 261z" />
    <glyph glyph-name="semicolon" unicode=";" horiz-adv-x="276" 
d="M243 365c0 -68 -68 -138 -137 -138c-43 0 -73 30 -73 74c0 68 69 137 137 137c44 0 73 -30 73 -73zM250 124l-106 -261l-150 60l107 261z" />
    <glyph glyph-name="exclam" unicode="!" horiz-adv-x="270" 
d="M221 226h-182v374h182v-374zM240 121c0 -68 -68 -138 -137 -138c-43 0 -73 30 -73 74c0 68 69 138 137 138c44 0 73 -31 73 -74z" />
    <glyph glyph-name="exclamdown" unicode="&#xa1;" horiz-adv-x="270" 
d="M240 409c0 -68 -68 -138 -137 -138c-43 0 -73 31 -73 74c0 68 69 138 137 138c44 0 73 -30 73 -74zM232 -134h-182v374h182v-374z" />
    <glyph glyph-name="question" unicode="?" horiz-adv-x="389" 
d="M364 482c0 -71 -31 -101 -72 -142c-25 -25 -61 -61 -61 -93c0 -11 3 -22 14 -25h-157c-15 11 -22 26 -22 43c0 40 37 72 69 100c27 23 51 44 51 65c0 31 -20 34 -47 34c-43 0 -95 -24 -123 -56v144c47 43 120 56 181 56c79 0 167 -35 167 -126zM274 121
c0 -68 -69 -138 -137 -138c-44 0 -73 30 -73 74c0 68 69 138 137 138c44 0 73 -31 73 -74z" />
    <glyph glyph-name="questiondown" unicode="&#xbf;" horiz-adv-x="389" 
d="M373 58v-144c-46 -43 -121 -56 -180 -56c-80 0 -168 33 -168 126c0 69 30 105 71 141c29 25 62 54 62 94c0 9 -3 22 -14 25h157c15 -11 22 -26 22 -43c0 -40 -37 -72 -70 -100c-27 -23 -50 -44 -50 -65c0 -31 20 -34 47 -34c43 0 95 24 123 56zM325 409
c0 -68 -68 -138 -137 -138c-44 0 -73 31 -73 74c0 68 69 138 137 138c44 0 73 -30 73 -74z" />
    <glyph glyph-name="quotedbl" unicode="&#x22;" horiz-adv-x="514" 
d="M498 551l-97 -236l-149 59l97 237zM263 551l-97 -236l-150 59l97 237z" />
    <glyph glyph-name="quotesingle" unicode="'" horiz-adv-x="279" 
d="M263 551l-97 -236l-150 59l97 237z" />
    <glyph glyph-name="quotedblleft" unicode="&#x201c;" horiz-adv-x="514" 
d="M498 551l-97 -236l-149 59l97 237zM263 551l-97 -236l-150 59l97 237z" />
    <glyph glyph-name="quotedblright" unicode="&#x201d;" horiz-adv-x="514" 
d="M498 551l-97 -236l-149 59l97 237zM263 551l-97 -236l-150 59l97 237z" />
    <glyph glyph-name="quoteleft" unicode="&#x2018;" horiz-adv-x="279" 
d="M263 551l-97 -236l-150 59l97 237z" />
    <glyph glyph-name="quoteright" unicode="&#x2019;" horiz-adv-x="279" 
d="M263 551l-97 -236l-150 59l97 237z" />
    <glyph glyph-name="quotedblbase" unicode="&#x201e;" horiz-adv-x="514" 
d="M498 124l-97 -236l-149 59l97 237zM263 124l-97 -236l-150 59l97 237z" />
    <glyph glyph-name="quotesinglbase" unicode="&#x201a;" horiz-adv-x="279" 
d="M263 124l-97 -236l-150 59l97 237z" />
    <glyph glyph-name="guillemotleft" unicode="&#xab;" horiz-adv-x="450" 
d="M430 166l-123 -61l-98 193l98 194l123 -61l-68 -133zM241 166l-123 -61l-98 193l98 194l123 -61l-68 -133z" />
    <glyph glyph-name="guillemotright" unicode="&#xbb;" horiz-adv-x="450" 
d="M430 298l-98 -193l-123 61l67 132l-67 133l123 61zM241 298l-98 -193l-123 61l67 132l-67 133l123 61z" />
    <glyph glyph-name="guilsinglleft" unicode="&#x2039;" horiz-adv-x="261" 
d="M241 166l-123 -61l-98 193l98 194l123 -61l-68 -133z" />
    <glyph glyph-name="guilsinglright" unicode="&#x203a;" horiz-adv-x="261" 
d="M241 298l-98 -193l-123 61l67 132l-67 133l123 61z" />
    <glyph glyph-name="hyphen" unicode="-" horiz-adv-x="272" 
d="M252 149h-232v148h232v-148z" />
    <glyph glyph-name="hyphen" unicode="&#xad;" horiz-adv-x="272" 
d="M252 149h-232v148h232v-148z" />
    <glyph glyph-name="endash" unicode="&#x2013;" horiz-adv-x="494" 
d="M484 149h-474v148h474v-148z" />
    <glyph glyph-name="emdash" unicode="&#x2014;" horiz-adv-x="857" 
d="M847 149h-837v148h837v-148z" />
    <glyph glyph-name="middot" unicode="&#xb7;" horiz-adv-x="276" 
d="M243 332c0 -68 -68 -138 -137 -138c-43 0 -73 30 -73 74c0 68 69 138 137 138c44 0 73 -30 73 -74z" />
    <glyph glyph-name="bullet" unicode="&#x2022;" horiz-adv-x="466" 
d="M446 328c0 -124 -111 -235 -235 -235c-117 0 -191 73 -191 190c0 126 110 236 236 236c117 0 190 -74 190 -191z" />
    <glyph glyph-name="dollar" unicode="$" horiz-adv-x="494" 
d="M461 192c0 -101 -62 -147 -144 -165v-110h-138v96c-17 0 -33 1 -49 2c-19 3 -37 4 -56 7v134c37 -9 76 -16 115 -16c30 0 79 5 79 46c0 27 -37 46 -82 69c-69 34 -153 79 -153 172c0 85 71 127 146 143v96h138v-82c17 0 36 -1 55 -3c12 -1 25 -2 37 -5v-138
c-32 11 -65 16 -100 16c-24 0 -83 -5 -83 -39c0 -28 37 -42 81 -61c67 -30 154 -62 154 -162z" />
    <glyph glyph-name="cent" unicode="&#xa2;" horiz-adv-x="392" 
d="M372 178v-163c-16 -7 -32 -11 -51 -15v-83h-137v81c-112 23 -164 103 -164 212s65 200 164 243v92h137v-67c15 0 32 -2 51 -5v-167c-19 13 -54 14 -77 14c-52 0 -117 -39 -117 -97c0 -53 39 -73 87 -73c32 0 82 8 107 28z" />
    <glyph glyph-name="sterling" unicode="&#xa3;" horiz-adv-x="510" 
d="M490 0h-377v220h-93v129h93v30c0 132 87 236 223 236c121 0 154 -95 154 -198h-135v11c0 20 -5 45 -30 45c-56 0 -53 -87 -53 -124h146v-129h-146v-92h218v-128z" />
    <glyph glyph-name="yen" unicode="&#xa5;" horiz-adv-x="631" 
d="M631 600l-146 -240h95v-100h-155l-21 -34h176v-100h-237l-76 -126h-219l78 126h-70v100h133c18 30 21 33 21 34h-154v100h89l-145 240h230l90 -186l91 186h220z" />
    <glyph glyph-name="Euro" unicode="&#x20ac;" horiz-adv-x="576" 
d="M551 203v-178c-59 -29 -121 -44 -188 -44c-132 0 -246 70 -284 202h-54v100h41l1 4l2 30h-44v100h76c56 113 178 201 306 201c47 0 101 -2 144 -25v-169c-37 32 -83 45 -131 45c-47 0 -89 -17 -121 -52h169v-100h-217c-1 -11 -2 -20 -2 -29v-5h219v-100h-192
c25 -37 66 -54 110 -54c64 0 122 25 165 74z" />
    <glyph glyph-name="registered" unicode="&#xae;" horiz-adv-x="737" 
d="M687 322c0 -176 -165 -341 -341 -341s-296 120 -296 296s165 341 341 341s296 -120 296 -296zM429 368c0 36 -50 32 -75 32h-14v-78c7 0 12 0 19 1c30 3 70 13 70 45zM646 323c0 153 -101 254 -254 254s-301 -148 -301 -301s101 -253 254 -253c73 0 142 32 195 80h-110
l-90 138v-138h-132v401h185c77 0 163 -23 163 -116c0 -52 -38 -106 -83 -127l96 -128c47 52 77 119 77 190z" />
    <glyph glyph-name="copyright" unicode="&#xa9;" horiz-adv-x="737" 
d="M687 322c0 -176 -165 -341 -341 -341s-296 120 -296 296s165 341 341 341s296 -120 296 -296zM646 323c0 153 -101 254 -254 254s-301 -148 -301 -301s101 -253 254 -253s301 148 301 300zM486 258v-140c-40 -19 -82 -29 -125 -29c-116 0 -197 80 -197 196
c0 117 110 227 227 227c31 0 67 -2 95 -17v-135c-23 15 -50 21 -77 21c-49 0 -100 -31 -100 -85c0 -48 33 -72 80 -72c35 0 70 10 97 34z" />
    <glyph glyph-name="trademark" unicode="&#x2122;" horiz-adv-x="581" 
d="M541 366h-82v118l-58 -118h-25l-58 118v-118h-82v234h106l47 -102l47 102h105v-234zM200 531h-49v-165h-82v165h-49v69h180v-69z" />
    <glyph glyph-name="slash" unicode="/" horiz-adv-x="354" 
d="M364 603l-249 -603h-125l249 603h125z" />
    <glyph glyph-name="backslash" unicode="\" horiz-adv-x="354" 
d="M364 0h-125l-249 603h125z" />
    <glyph glyph-name="asciicircum" unicode="^" horiz-adv-x="384" 
d="M374 402l-109 -76l-73 107l-73 -107l-109 76l149 196h66z" />
    <glyph glyph-name="underscore" unicode="_" horiz-adv-x="474" 
d="M474 -204h-474v148h474v-148z" />
    <glyph glyph-name="asciitilde" unicode="~" horiz-adv-x="337" 
d="M272 608l55 -81c-24 -28 -59 -62 -99 -62c-42 0 -73 40 -109 40c-23 0 -39 -16 -54 -31l-55 80c24 28 59 62 99 62c43 0 72 -40 109 -40c23 0 39 16 54 32z" />
    <glyph glyph-name="bar" unicode="|" horiz-adv-x="219" 
d="M179 -177h-139v843h139v-843z" />
    <glyph glyph-name="brokenbar" unicode="&#xa6;" horiz-adv-x="216" 
d="M179 323h-139v343h139v-343zM179 -177h-139v343h139v-343z" />
    <glyph glyph-name="plus" unicode="+" horiz-adv-x="514" 
d="M494 149h-163v-163h-148v163h-163v148h163v163h148v-163h163v-148z" />
    <glyph glyph-name="minus" unicode="&#x2212;" horiz-adv-x="514" 
d="M494 149h-474v148h474v-148z" />
    <glyph glyph-name="multiply" unicode="&#xd7;" horiz-adv-x="501" 
d="M471 338l-116 -115l116 -115l-105 -105l-116 115l-115 -115l-105 105l116 115l-116 115l105 105l115 -115l116 115z" />
    <glyph glyph-name="divide" unicode="&#xf7;" horiz-adv-x="514" 
d="M362 442c0 -64 -75 -121 -137 -121c-39 0 -73 22 -73 65c0 64 75 121 137 121c39 0 73 -22 73 -65zM494 149h-474v148h474v-148zM362 60c0 -67 -75 -121 -137 -121c-39 0 -73 22 -73 65c0 65 75 120 137 120c39 0 73 -21 73 -64z" />
    <glyph glyph-name="less" unicode="&#x3c;" horiz-adv-x="418" 
d="M398 95l-89 -119l-269 203v90l269 202l89 -118l-193 -129z" />
    <glyph glyph-name="greater" unicode="&#x3e;" horiz-adv-x="418" 
d="M378 179l-269 -203l-89 119l194 129l-194 129l89 118l269 -202v-90z" />
    <glyph glyph-name="equal" unicode="=" horiz-adv-x="554" 
d="M514 259h-474v148h474v-148zM514 38h-474v149h474v-149z" />
    <glyph glyph-name="plusminus" unicode="&#xb1;" horiz-adv-x="554" 
d="M514 353h-163v-163h-148v163h-163v148h163v163h148v-163h163v-148zM514 0h-474v148h474v-148z" />
    <glyph glyph-name="degree" unicode="&#xb0;" horiz-adv-x="385" 
d="M365 458c0 -108 -95 -190 -191 -190s-154 58 -154 154c0 107 95 191 191 191s154 -59 154 -155zM248 448c0 32 -16 48 -48 48c-31 0 -64 -27 -64 -64c0 -32 16 -48 48 -48s64 28 64 64z" />
    <glyph glyph-name="ordfeminine" unicode="&#xaa;" horiz-adv-x="389" 
d="M349 366h-106v63c-23 -47 -61 -75 -113 -75c-66 0 -106 59 -106 120c0 172 192 202 325 202v-310zM349 223h-308v96h308v-96zM243 572c-40 -8 -107 -29 -107 -78c0 -19 11 -31 30 -31c53 0 77 65 77 109z" />
    <glyph glyph-name="ordmasculine" unicode="&#xba;" horiz-adv-x="373" 
d="M348 536c0 -94 -83 -178 -178 -178c-89 0 -144 55 -144 144c0 95 83 179 178 179c89 0 144 -56 144 -145zM333 223h-293v96h293v-96zM244 527c0 33 -16 49 -49 49c-35 0 -64 -30 -64 -65c0 -32 16 -48 48 -48c35 0 65 31 65 64z" />
    <glyph glyph-name="fraction" unicode="&#x2044;" horiz-adv-x="71" 
d="M344 603l-467 -603h-146l467 603h146z" />
    <glyph glyph-name="onesuperior" unicode="&#xb9;" horiz-adv-x="208" 
d="M158 331h-108v269h108v-269z" />
    <glyph glyph-name="twosuperior" unicode="&#xb2;" horiz-adv-x="313" 
d="M274 521c0 -27 -9 -46 -22 -63c-20 -24 -49 -41 -77 -60h98v-67h-233v53c33 23 68 47 100 74c15 12 28 24 28 44c0 26 -34 33 -54 33c-23 0 -44 -6 -65 -14v69c29 11 72 16 103 16c51 0 122 -23 122 -85z" />
    <glyph glyph-name="threesuperior" unicode="&#xb3;" horiz-adv-x="310" 
d="M270 431c0 -82 -135 -105 -197 -105c-8 0 -16 0 -25 1v69h19c20 0 98 4 98 31c0 15 -21 21 -44 22c-15 1 -29 0 -36 0v41c15 2 58 9 58 28c0 17 -30 18 -42 18c-21 0 -42 -4 -61 -16v70c29 11 62 16 93 16c37 0 111 -14 111 -62c0 -23 -11 -40 -32 -52
c33 -7 58 -24 58 -61z" />
    <glyph glyph-name="onehalf" unicode="&#xbd;" horiz-adv-x="675" 
d="M636 190c0 -27 -9 -47 -22 -63c-20 -25 -49 -42 -78 -61h99v-67h-233v53c33 24 68 48 100 75c15 12 28 23 28 44c0 25 -35 32 -54 32c-23 0 -44 -6 -65 -14v70c29 11 72 15 103 15c51 0 122 -23 122 -84zM643 604l-467 -604h-146l467 604h146zM211 331h-108v269h108v-269
z" />
    <glyph glyph-name="onequarter" unicode="&#xbc;" horiz-adv-x="675" 
d="M643 604l-467 -604h-146l467 604h146zM630 53h-32v-53h-108v53h-127v48l131 167h104v-148h32v-67zM211 331h-108v269h108v-269zM490 120v47l-36 -47h36z" />
    <glyph glyph-name="threequarters" unicode="&#xbe;" horiz-adv-x="675" 
d="M643 600l-467 -604h-146l467 604h146zM630 53h-32v-53h-108v53h-127v48l131 167h104v-148h32v-67zM275 431c0 -82 -135 -105 -197 -105c-8 0 -17 0 -25 1v69h19c20 0 98 4 98 31c0 16 -23 21 -46 22c-15 1 -27 0 -34 0v41c13 3 58 9 58 28c0 17 -30 18 -42 18
c-21 0 -42 -4 -61 -16v70c29 11 62 16 93 16c37 0 111 -14 111 -62c0 -23 -13 -41 -32 -52c35 -8 58 -24 58 -61zM490 120v47l-36 -47h36z" />
    <glyph glyph-name="notequal" unicode="&#x2260;" horiz-adv-x="554" 
d="M514 38h-250l-26 -62h-125l26 62h-99v149h160l29 72h-189v148h250l25 61h125l-25 -61h99v-148h-160l-30 -72h190v-149z" />
    <glyph glyph-name="infinity" unicode="&#x221e;" horiz-adv-x="535" 
d="M515 243c0 -84 -39 -169 -133 -169c-52 0 -89 25 -117 68c-33 -40 -75 -68 -128 -68c-84 0 -117 66 -117 142c0 82 40 169 134 169c51 0 89 -25 117 -68c33 40 73 68 128 68c83 0 116 -68 116 -142zM403 232c0 19 -14 29 -33 29c-20 0 -32 -15 -43 -32
c8 -17 18 -31 39 -31c20 0 37 13 37 34zM208 229c-8 17 -18 32 -38 32c-21 0 -37 -13 -37 -34c0 -19 13 -29 32 -29c21 0 32 15 43 31z" />
    <glyph glyph-name="lessequal" unicode="&#x2264;" horiz-adv-x="554" 
d="M456 298l-89 -118l-269 203v90l269 202l89 -118l-194 -129zM514 0h-474v148h474v-148z" />
    <glyph glyph-name="greaterequal" unicode="&#x2265;" horiz-adv-x="554" 
d="M456 383l-269 -203l-89 118l194 130l-194 129l89 118l269 -202v-90zM514 0h-474v148h474v-148z" />
    <glyph glyph-name="approxequal" unicode="&#x2248;" horiz-adv-x="554" 
d="M514 415v-157c-29 -13 -61 -19 -96 -19c-85 0 -165 36 -250 36c-37 0 -93 -6 -128 -25v157c29 13 61 19 96 19c85 0 165 -36 250 -36c39 0 93 6 128 25zM514 194v-157c-30 -12 -62 -18 -96 -18c-85 0 -165 35 -250 35c-37 0 -93 -5 -128 -24v157c30 12 62 18 96 18
c85 0 165 -35 250 -35c39 0 93 5 128 24z" />
    <glyph glyph-name="uni2206" unicode="&#x2206;" horiz-adv-x="581" 
d="M581 0h-581l291 503zM366 124l-75 130l-75 -130h150z" />
    <glyph glyph-name="lozenge" unicode="&#x25ca;" horiz-adv-x="383" 
d="M357 321l-187 -187l-144 144l187 187z" />
    <glyph glyph-name="uniF8FF" unicode="&#xf8ff;" horiz-adv-x="737" 
d="M687 322c0 -88 -44 -166 -108 -230s-145 -111 -233 -111s-150 46 -202 98s-94 110 -94 198s40 173 104 237c31 31 64 41 103 45c13 3 25 2 38 2l-2 69l160 1l1 -46c12 17 29 37 46 60c27 35 68 57 96 61c13 2 21 1 25 -4c16 -16 -16 -81 -69 -115l-32 -20
c33 0 61 -7 85 -31c17 -17 30 -35 41 -54c27 -45 41 -99 41 -160zM510 302c0 41 -12 73 -36 97c-21 24 -56 4 -94 4c-12 0 -25 1 -37 2c-7 1 -11 1 -16 1c-7 0 -13 1 -20 -2c-5 -1 -11 -2 -16 -5s-11 -7 -16 -12c-10 -11 -18 -21 -24 -31c-16 -25 -24 -52 -24 -79
c0 -41 19 -65 42 -89c23 -23 49 -45 88 -45s75 22 104 53c28 29 49 65 49 106z" />
    <glyph glyph-name="uni25A0" unicode="&#x25a0;" horiz-adv-x="800" 
d="M700 0h-600v600h600v-600z" />
    <glyph glyph-name="uni25B6" unicode="&#x25b6;" horiz-adv-x="700" 
d="M700 300l-600 -300v600z" />
    <glyph glyph-name="uni25CB" unicode="&#x25cb;" horiz-adv-x="737" 
d="M687 322c0 -176 -165 -341 -341 -341s-296 120 -296 296s165 341 341 341s296 -120 296 -296zM518 312c0 84 -53 138 -137 138s-162 -80 -162 -163c0 -84 53 -137 137 -137s162 80 162 162z" />
    <glyph glyph-name="uni25CF" unicode="&#x25cf;" horiz-adv-x="737" 
d="M687 322c0 -176 -165 -341 -341 -341s-296 120 -296 296c0 177 165 341 341 341s296 -120 296 -296z" />
    <glyph glyph-name="uni2605" unicode="&#x2605;" horiz-adv-x="727" 
d="M727 366l-225 -164l86 -264l-224 163l-225 -163l86 264l-225 164h278l86 264l85 -264h278z" />
    <glyph glyph-name="uni2606" unicode="&#x2606;" horiz-adv-x="727" 
d="M727 366l-225 -164l86 -264l-224 163l-225 -163l86 264l-225 164h278l86 264l85 -264h278zM471 283h-82l-25 78l-26 -78h-82l66 -49l-25 -78l67 48l66 -48l-25 78z" />
    <glyph glyph-name="uni2610" unicode="&#x2610;" horiz-adv-x="800" 
d="M700 0h-600v600h600v-600zM539 161v278h-278v-278h278z" />
    <glyph glyph-name="caron.2" horiz-adv-x="279" 
d="M215 570l-96 -236l-103 40l97 237z" />
    <glyph glyph-name=".ttfautohint" horiz-adv-x="279" 
 />
    </font>
</defs>
</svg>
