<svg xmlns="http://www.w3.org/2000/svg" xmlns:xlink="http://www.w3.org/1999/xlink" width="31.98" height="36" viewBox="0 0 31.98 36">
  <defs>
    <linearGradient id="linear-gradient" x1="0.71" y1="0.856" x2="0.289" y2="0.142" gradientUnits="objectBoundingBox">
      <stop offset="0" stop-color="#8a8a9d"/>
      <stop offset="1" stop-color="#d7d7e8"/>
    </linearGradient>
    <filter id="Path_82" x="0" y="0" width="31.98" height="36" filterUnits="userSpaceOnUse">
      <feOffset dy="1" input="SourceAlpha"/>
      <feGaussianBlur stdDeviation="1" result="blur"/>
      <feFlood flood-opacity="0.416"/>
      <feComposite operator="in" in2="blur"/>
      <feComposite in="SourceGraphic"/>
    </filter>
    <linearGradient id="linear-gradient-2" x1="0.733" y1="0.855" x2="0.273" y2="0.154" gradientUnits="objectBoundingBox">
      <stop offset="0.25" stop-color="#d7d7e8"/>
      <stop offset="1" stop-color="#9797aa"/>
    </linearGradient>
    <linearGradient id="linear-gradient-3" x1="0.282" y1="0.022" x2="0.709" y2="0.956" gradientUnits="objectBoundingBox">
      <stop offset="0" stop-color="#8484a0"/>
      <stop offset="1" stop-color="#dedef0"/>
    </linearGradient>
  </defs>
  <g id="no2" transform="translate(-6.807 -29)">
    <g id="r2" transform="translate(9.807 31)" style="isolation: isolate">
      <g id="_圖層_1">
        <g transform="matrix(1, 0, 0, 1, -3, -2)" filter="url(#Path_82)">
          <path id="Path_82-2" data-name="Path 82" d="M12.99,0,0,7.5v15L12.99,30l12.99-7.5V7.5Zm7.23,19.17-7.23,4.17L5.76,19.17V10.83l7.23-4.17,7.23,4.17v8.35Z" transform="translate(3 2)" fill="url(#linear-gradient)"/>
        </g>
        <path id="Path_83" data-name="Path 83" d="M12.99,6.65l7.23,4.18v8.34l-7.23,4.18V30l12.99-7.5V7.5L12.99,0Z" fill="#9797aa" style="mix-blend-mode: multiply;isolation: isolate"/>
        <path id="Path_84" data-name="Path 84" d="M25.97,7.5,23.59,8.88,23.5,21.06l2.48,1.43V7.5Z" fill="#9797aa"/>
        <path id="Path_85" data-name="Path 85" d="M2.48,8.92,0,7.5H0L12.99,0V2.85Z" fill="#fff" opacity="0.51" style="mix-blend-mode: overlay;isolation: isolate"/>
        <path id="Path_86" data-name="Path 86" d="M2.48,21.06,0,22.49,12.99,30V27Z" fill="#9797aa" opacity="0.36"/>
        <path id="Path_87" data-name="Path 87" d="M12.99,2.85,2.48,8.92V21.06l10.51,6.07L23.5,21.06V8.92Zm8.36,16.97-8.36,4.83L4.63,19.82V10.16l8.36-4.82,8.36,4.83v9.66Z" fill="url(#linear-gradient-2)"/>
        <path id="Path_88" data-name="Path 88" d="M4.63,19.82V10.16l8.36-4.82V2.85L2.48,8.92V21.06l10.51,6.07V24.65Z" fill="#9797aa"/>
        <path id="Path_89" data-name="Path 89" d="M22.43,20.44V9.54L12.99,4.09,3.55,9.54v10.9l9.44,5.45Z" fill="url(#linear-gradient-3)"/>
        <path id="Path_90" data-name="Path 90" d="M4.02,9.69l8.95-5.1,9.46,5.35v-.4L12.99,4.09,3.55,9.54v10.9l.47.27Z" fill="#525266" opacity="0.68" style="mix-blend-mode: multiply;isolation: isolate"/>
      </g>
    </g>
    <path id="Path_102" data-name="Path 102" d="M.974-7.9a1.228,1.228,0,0,0-1-.417,1.217,1.217,0,0,0-1.21.663,3.289,3.289,0,0,0-.219,1.217H-3.346a4.789,4.789,0,0,1,.458-2.044A2.853,2.853,0,0,1-.12-9.96a3.511,3.511,0,0,1,2.5.872,3.014,3.014,0,0,1,.93,2.307,3.123,3.123,0,0,1-.656,1.955A6.538,6.538,0,0,1,1.241-3.562l-.779.554q-.731.52-1,.752a2.2,2.2,0,0,0-.455.54H3.333V0H-3.456A4.658,4.658,0,0,1-3-1.948a5.508,5.508,0,0,1,1.969-2.1A14.438,14.438,0,0,0,.714-5.428,2.041,2.041,0,0,0,1.323-6.85,1.575,1.575,0,0,0,.974-7.9Z" transform="translate(23 51)" fill="#212121"/>
  </g>
</svg>
