<svg xmlns="http://www.w3.org/2000/svg" xmlns:xlink="http://www.w3.org/1999/xlink" width="31.66" height="35.63" viewBox="0 0 31.66 35.63">
  <defs>
    <linearGradient id="linear-gradient" y1="0.5" x2="1" y2="0.5" gradientUnits="objectBoundingBox">
      <stop offset="0" stop-color="#fd824c"/>
      <stop offset="0.5" stop-color="#d36e4d"/>
      <stop offset="1" stop-color="#632100"/>
    </linearGradient>
    <linearGradient id="linear-gradient-2" y1="0.5" x2="1" y2="0.5" gradientUnits="objectBoundingBox">
      <stop offset="0.25" stop-color="#fde403"/>
      <stop offset="1" stop-color="#ea8d00"/>
    </linearGradient>
    <linearGradient id="linear-gradient-3" x1="0.303" y1="0.152" x2="0.826" y2="1" gradientUnits="objectBoundingBox">
      <stop offset="0" stop-color="#eba84b"/>
      <stop offset="1" stop-color="#654315"/>
    </linearGradient>
    <filter id="Path_93" x="0" y="0" width="31.66" height="35.63" filterUnits="userSpaceOnUse">
      <feOffset dy="1" input="SourceAlpha"/>
      <feGaussianBlur stdDeviation="1" result="blur"/>
      <feFlood flood-opacity="0.322"/>
      <feComposite operator="in" in2="blur"/>
      <feComposite in="SourceGraphic"/>
    </filter>
    <linearGradient id="linear-gradient-4" x1="0" y1="0.499" x2="1" y2="0.499" xlink:href="#linear-gradient-2"/>
    <linearGradient id="linear-gradient-5" x1="0.806" y1="0.993" x2="0.244" y2="0.086" gradientUnits="objectBoundingBox">
      <stop offset="0" stop-color="#cc9e37"/>
      <stop offset="0.355" stop-color="#cc9e37"/>
      <stop offset="1" stop-color="#57481f"/>
    </linearGradient>
    <linearGradient id="linear-gradient-6" x1="0.802" y1="1" x2="0.297" y2="0.056" gradientUnits="objectBoundingBox">
      <stop offset="0" stop-color="#eacb90"/>
      <stop offset="1" stop-color="#c18513"/>
    </linearGradient>
  </defs>
  <g id="no3" transform="translate(-7.17 -63.18)">
    <g id="r3" transform="translate(10.17 65.18)" style="isolation: isolate">
      <g id="_圖層_1">
        <path id="Path_91" data-name="Path 91" d="M12.83,6.57l7.14,4.12v8.25l-7.14,4.12v6.57l12.83-7.41V7.41L12.83,0Z" opacity="0.5" fill="url(#linear-gradient)" style="mix-blend-mode: multiply;isolation: isolate"/>
        <path id="Path_92" data-name="Path 92" d="M25.65,7.42,23.3,8.78l-.09,12.04,2.45,1.41V7.42Z" fill="url(#linear-gradient-2)" style="mix-blend-mode: multiply;isolation: isolate"/>
        <g transform="matrix(1, 0, 0, 1, -3, -2)" filter="url(#Path_93)">
          <path id="Path_93-2" data-name="Path 93" d="M12.83,0,0,7.41V22.22l12.83,7.41,12.83-7.41V7.41Zm7.14,18.94-7.14,4.12L5.69,18.94V10.7l7.14-4.12,7.14,4.12v8.25Z" transform="translate(3 2)" fill="url(#linear-gradient-3)"/>
        </g>
        <path id="Path_94" data-name="Path 94" d="M2.45,8.82,0,7.41H0L12.83,0V2.83Z" fill="#fff" opacity="0.51" style="mix-blend-mode: overlay;isolation: isolate"/>
        <path id="Path_95" data-name="Path 95" d="M2.45,20.81,0,22.22l12.83,7.42V26.67Z" opacity="0.49" fill="url(#linear-gradient-4)" style="mix-blend-mode: multiply;isolation: isolate"/>
        <path id="Path_96" data-name="Path 96" d="M12.83,2.83,2.45,8.82V20.81L12.83,26.8l10.38-5.99V8.82Zm8.26,16.76-8.26,4.77L4.57,19.59V10.05l8.26-4.77,8.26,4.77Z" fill="url(#linear-gradient-5)"/>
        <path id="Path_97" data-name="Path 97" d="M22.15,20.2V9.43L12.83,4.05,3.51,9.43V20.2l9.32,5.38Z" fill="url(#linear-gradient-6)"/>
        <path id="Path_98" data-name="Path 98" d="M3.97,9.58l8.84-5.04,9.34,5.28V9.43L12.83,4.05,3.51,9.43V20.2l.46.26Z" fill="#dd9e39" opacity="0.68" style="mix-blend-mode: multiply;isolation: isolate"/>
      </g>
    </g>
    <path id="Path_103" data-name="Path 103" d="M-1.213-7.937a1.842,1.842,0,0,0-.314,1.169H-3.346a4.889,4.889,0,0,1,.253-1.4,3.154,3.154,0,0,1,.752-1.073,2.62,2.62,0,0,1,.909-.533A3.935,3.935,0,0,1-.14-9.96a3.438,3.438,0,0,1,2.293.735,2.448,2.448,0,0,1,.872,1.972,2.18,2.18,0,0,1-.52,1.477,1.774,1.774,0,0,1-.684.513,1.406,1.406,0,0,1,.766.458,2.446,2.446,0,0,1,.745,1.887A3.178,3.178,0,0,1,2.461-.708,3.322,3.322,0,0,1-.12.246,3.122,3.122,0,0,1-3.045-1.128a4.078,4.078,0,0,1-.479-1.914H-1.61a2.229,2.229,0,0,0,.191.984A1.312,1.312,0,0,0-.126-1.34a1.432,1.432,0,0,0,1-.393A1.461,1.461,0,0,0,1.3-2.864,1.275,1.275,0,0,0,.509-4.17,4.025,4.025,0,0,0-.913-4.354V-5.749A3.689,3.689,0,0,0,.414-5.934,1.14,1.14,0,0,0,1.063-7.1a1.3,1.3,0,0,0-.332-.923A1.213,1.213,0,0,0-.2-8.374,1.171,1.171,0,0,0-1.213-7.937Z" transform="translate(23 85)" fill="#212121"/>
  </g>
</svg>
