<?xml version="1.0" standalone="no"?>
<!DOCTYPE svg PUBLIC "-//W3C//DTD SVG 1.1//EN" "http://www.w3.org/Graphics/SVG/1.1/DTD/svg11.dtd" >
<svg xmlns="http://www.w3.org/2000/svg" xmlns:xlink="http://www.w3.org/1999/xlink" version="1.1">
<metadata>
Created by FontForge 20170731 at Thu Dec  8 00:04:18 2011
 By Aleksey,,,
Copyright (c) 2011 by Brian J. Bonislawsky DBA Astigmatic (AOETI) (astigma@astigmatic.com), with ReservedFont Name "Spicy Rice"
</metadata>
<defs>
<font id="SpicyRice-Regular" horiz-adv-x="1118" >
  <font-face 
    font-family="Spicy Rice"
    font-weight="400"
    font-stretch="normal"
    units-per-em="2048"
    panose-1="2 14 5 6 0 0 0 2 0 0"
    ascent="1638"
    descent="-410"
    x-height="1159"
    cap-height="1460"
    bbox="-461 -733 2126 2091"
    underline-thickness="41"
    underline-position="-312"
    unicode-range="U+0020-FB02"
  />
<missing-glyph horiz-adv-x="305" 
 />
    <glyph glyph-name="fi" unicode="fi" horiz-adv-x="1327" 
d="M1294 4q-17 1 -40 3q-20 1 -47 2t-62 1q-65 0 -150 -5.5t-184 -20.5q19 38 32 95.5t21.5 123t13 132.5t6.5 123t2.5 95t0.5 49q-1 37 -2 78q-2 35 -3.5 81t-4.5 97q-53 5 -108 10.5t-103.5 9.5t-86 6.5t-55.5 2.5q-2 -72 -3 -146.5t-1 -148.5q0 -158 8.5 -313t36.5 -302
q-112 23 -233 23q-63 0 -124.5 -6t-121.5 -17q23 99 36 213t19.5 232t9.5 234t5 218q-32 -2 -70 -5.5t-70 -8.5q5 44 8 85.5t3 84.5q0 38 -2 75.5t-9 78.5l152 -8q0 104 26.5 190.5t79.5 149t132.5 97t185.5 34.5q34 0 59.5 -4.5t49.5 -12t49 -16t57 -17.5
q-12 -71 -18.5 -139.5t-6.5 -134.5v-41t2 -41q-24 40 -60 60t-71 20q-24 0 -47 -10t-40 -30t-27.5 -50t-10.5 -70q128 -14 260 -17t273 -3q31 0 57 0.5t49 2t45.5 3.5t47.5 6q-19 -90 -30 -217t-11 -272q0 -83 4 -168t13 -169.5t23 -166t35 -156.5zM836 1434q0 46 17.5 86.5
t48 71t71 48t86.5 17.5t86.5 -17.5t71 -48t48 -71t17.5 -86.5t-17.5 -87t-48 -71.5t-71 -48t-86.5 -17.5t-86.5 17.5t-71 48t-48 71.5t-17.5 87z" />
    <glyph glyph-name="fl" unicode="fl" horiz-adv-x="1305" 
d="M1278 4q-17 1 -40 3q-20 1 -47.5 2t-62.5 1q-65 0 -149.5 -5.5t-183.5 -20.5q14 28 25 77.5t19 112t13.5 133t9 141.5t5 137.5t2.5 120t1 90.5v48q-1 65 -3 136q-2 61 -4 136t-7 150q-8 7 -21 16.5t-34 18t-51.5 14.5t-71.5 6q-25 0 -51.5 -10t-48.5 -30t-36 -50t-14 -70
l250 10q-11 -46 -14.5 -93.5t-3.5 -98.5q0 -28 1 -56t3 -57q-63 8 -120 14.5t-120 6.5q-2 -72 -3 -146.5t-1 -148.5q0 -158 8.5 -313t36.5 -302q-112 23 -233 23q-63 0 -124.5 -6t-121.5 -17q23 99 36 213t19.5 232t9.5 234t5 218q-32 -2 -70 -5.5t-70 -8.5q5 44 8 85.5
t3 84.5q0 38 -2 75.5t-9 78.5l152 -8q0 104 34 190.5t96.5 149t149.5 97t193 34.5q95 0 174.5 -8t150.5 -23.5t138.5 -37.5t138.5 -50q-9 -45 -16.5 -114t-13 -155t-8.5 -185t-3 -204q0 -120 4 -242t13 -236t23.5 -213.5t35.5 -174.5z" />
    <glyph glyph-name=".notdef" horiz-adv-x="305" 
 />
    <glyph glyph-name=".null" horiz-adv-x="0" 
 />
    <glyph glyph-name="nonmarkingreturn" horiz-adv-x="305" 
 />
    <glyph glyph-name="space" unicode=" " horiz-adv-x="305" 
 />
    <glyph glyph-name="exclam" unicode="!" horiz-adv-x="596" 
d="M596 1477q-38 -96 -66.5 -205.5t-47.5 -225.5t-28.5 -236t-9.5 -237q0 -38 1.5 -75t3.5 -74q-50 11 -97.5 15.5t-95.5 4.5q-29 0 -58.5 -1.5t-58.5 -6.5q2 37 3 76.5t1 77.5q0 127 -10.5 255.5t-28 243t-41.5 209t-51 154.5q35 -5 86.5 -7.5t110.5 -2.5q52 0 106.5 2
t106 6t96.5 11t78 16zM72 160q0 43 16.5 81.5t45 67.5t67 45.5t82.5 16.5q43 0 81.5 -16.5t67.5 -45.5t45.5 -67.5t16.5 -81.5q0 -44 -16.5 -82.5t-45.5 -67t-67.5 -45t-81.5 -16.5q-44 0 -82.5 16.5t-67 45t-45 67t-16.5 82.5z" />
    <glyph glyph-name="quotedbl" unicode="&#x22;" horiz-adv-x="813" 
d="M377 1507q-22 -103 -34.5 -206.5t-19.5 -187.5q-8 -99 -10 -189h-219q-3 92 -11 191q-7 85 -21 188t-37 204q35 -3 71.5 -3.5t73.5 -0.5q46 0 102.5 1t104.5 3zM786 1507q-11 -51 -19.5 -103.5t-14.5 -103t-11 -98t-8 -89.5q-8 -99 -10 -189h-219q-3 92 -11 191
q-8 85 -21.5 188t-37.5 204q35 -3 71.5 -3.5t74.5 -0.5q46 0 102 1t104 3z" />
    <glyph glyph-name="numbersign" unicode="#" horiz-adv-x="1227" 
d="M532 553q32 2 64.5 3.5t65.5 4.5q1 11 3.5 28t5.5 35t5 35t4 27l10 64q-32 -2 -65.5 -5t-65.5 -6q-2 -18 -5.5 -42.5t-7.5 -50.5t-7.5 -50.5t-6.5 -42.5zM1067 229q-34 11 -71.5 18.5t-75.5 12.5q0 -46 0.5 -91.5t5.5 -90.5q-19 2 -36 3t-34 1q-24 0 -65 -1t-85 -3
t-85 -5t-66 -7q17 51 30.5 102.5t24.5 103.5h-104v-174l-41 2q-27 1 -70.5 -0.5t-90.5 -5t-91 -8t-72 -8.5q14 43 26 84.5t21 85.5q-40 -8 -77 -18.5t-74 -22.5q11 31 22 79.5t20 100.5t16 101t9 81q35 -8 70 -11t72 -5q1 9 4 25t6 32.5t5.5 32.5t4.5 25l4 45
q-48 -8 -93.5 -18.5t-90.5 -22.5q20 62 36.5 148.5t16.5 195.5v12q84 -12 172 -12q6 65 9.5 129t3.5 129q27 -3 55.5 -3.5t56.5 -0.5q18 0 52.5 0.5t72.5 1t72.5 1t52.5 1.5q-25 -56 -44.5 -121t-35.5 -131q32 3 63 5t62 7q6 54 10 106.5t4 100.5v28.5t-2 26.5q37 0 88 3
t103.5 7.5t101 10t80.5 10.5q-25 -65 -45 -130.5t-37 -133.5q37 8 72 16t68 19q-12 -49 -21 -99.5t-16 -97t-11.5 -87t-5.5 -69.5q-37 5 -72.5 7t-72.5 2q-2 -9 -5 -28.5t-6.5 -43.5t-7 -49.5t-4.5 -46.5q44 6 87.5 14.5t86.5 17.5q-11 -36 -21.5 -81.5t-18.5 -96
t-13.5 -104.5t-5.5 -107z" />
    <glyph glyph-name="dollar" unicode="$" horiz-adv-x="780" 
d="M516 1622q-8 -56 -14.5 -112.5t-11 -110.5t-8 -103t-5.5 -90q64 -9 108.5 -30.5t72.5 -51t40.5 -63t12.5 -66.5q0 -37 -14 -63.5t-36.5 -44t-51 -25.5t-58.5 -8q-54 0 -86 18.5t-48.5 43.5t-21 48.5t-4.5 34.5q8 -12 17.5 -15t17.5 -3q19 0 27 9t8 22q0 12 -14.5 27.5
t-51.5 15.5q-12 0 -25.5 -4.5t-25 -14.5t-18.5 -24.5t-7 -34.5q0 -48 31.5 -77t79 -51.5t102.5 -44t102.5 -54t79 -82t31.5 -127.5q0 -61 -20.5 -112.5t-56.5 -91.5t-84.5 -68t-104.5 -42q1 -41 4.5 -89.5t8.5 -102t12 -109.5t16 -110q-23 3 -47 3.5t-49 0.5q-29 0 -66 -1
t-69 -3q7 54 13 108.5t10.5 106t7.5 99t6 87.5l-37 6q-53 9 -98.5 31t-79 53.5t-52.5 70.5t-20 81q0 39 13 68t35.5 48.5t53.5 29t66 9.5q27 0 53.5 -5.5t49.5 -16.5t41.5 -27t29.5 -37q-6 2 -12 3t-13 1q-17 0 -27 -9.5t-10 -30.5q0 -22 18.5 -37t41.5 -15q25 0 42 19.5
t17 44.5q0 20 -13.5 44.5t-39.5 41.5q-51 31 -96 53.5t-82.5 42t-67.5 40t-51 47t-32 63t-11 88.5q0 54 18.5 101t54.5 83.5t88.5 61.5t119.5 34q-2 42 -5 91.5t-8 104t-12 111t-16 111.5q23 -3 47 -3.5t49 -0.5q29 0 66 1t69 3z" />
    <glyph glyph-name="percent" unicode="%" horiz-adv-x="1460" 
d="M686 1069q0 -81 -19.5 -150.5t-59.5 -119.5t-101.5 -78.5t-145.5 -28.5q-83 0 -144 28t-101.5 78t-60 119t-19.5 152q0 88 26.5 161t71 125t103.5 80.5t124 28.5q73 0 133 -25.5t103 -76t66.5 -124t23.5 -169.5zM465 1092q0 43 -8.5 77t-23.5 58t-35 36.5t-42 12.5
q-21 0 -39.5 -16t-33 -41.5t-23 -59t-8.5 -67.5q0 -81 27.5 -129t76.5 -48q50 0 79.5 47.5t29.5 129.5zM1227 1444q-46 -76 -103.5 -180t-121.5 -225.5t-131.5 -256t-132 -270.5t-124.5 -268.5t-108 -251.5q-17 4 -45 6t-59 3.5t-61.5 2t-51.5 0.5h-37q39 61 86 141.5
t98.5 174.5t105.5 196.5t107 207.5t102.5 207.5t92 196.5t76 174.5t53.5 141.5q9 -2 22 -3.5t27 -2t27 -0.5h22q12 0 33 0.5t44 1t45 1.5t34 3zM1423 342q0 -81 -19.5 -150.5t-59.5 -119.5t-101 -78.5t-145 -28.5q-83 0 -144 28t-101.5 78t-60.5 119t-20 152q0 88 26.5 161
t71.5 125t104 80.5t124 28.5q73 0 132.5 -25.5t102.5 -76t66.5 -124t23.5 -169.5zM1202 365q0 43 -8.5 77t-23.5 58t-34.5 36.5t-41.5 12.5q-21 0 -40 -16t-33.5 -41.5t-23 -59t-8.5 -67.5q0 -81 27.5 -129t77.5 -48q49 0 78.5 47.5t29.5 129.5z" />
    <glyph glyph-name="ampersand" unicode="&#x26;" horiz-adv-x="1491" 
d="M1108 295q12 -32 35.5 -57.5t53.5 -43t65.5 -27t72.5 -9.5t74.5 11t69.5 34q-34 -73 -83 -129q-21 -24 -47.5 -47.5t-59 -41.5t-70.5 -29t-82 -11q-72 0 -125 15.5t-95.5 40t-77.5 54t-69 58.5q-18 -28 -58.5 -56.5t-95.5 -52t-119.5 -38.5t-129.5 -15t-128 18.5
t-112.5 62.5t-80 116t-30.5 180q0 100 35 176t90 133.5t122 97.5t132 68q-12 45 -17 86.5t-5 79.5q0 111 41 198.5t107.5 147.5t152.5 91.5t176 31.5q72 0 139 -17t118.5 -55t82.5 -99.5t31 -150.5q0 -67 -18.5 -120t-50.5 -95t-74 -72.5t-88 -51.5t-94 -32.5t-91 -15.5
q9 -26 26.5 -64t40.5 -78.5t50.5 -78.5t56.5 -64q11 11 20 34t21.5 52t30 59.5t45 55.5t66.5 41t95 16q36 0 64 -15t49.5 -39t36.5 -54.5t26 -62.5q25 -76 31 -171q-16 25 -38 44q-19 17 -46.5 31t-62.5 14q-26 0 -51.5 -8t-51.5 -26t-52 -47.5t-54 -72.5zM817 1225
q-28 0 -45.5 -46t-17.5 -132q0 -36 3 -77t11 -89q29 7 50 27.5t34 47.5t19 59t6 64q0 29 -4.5 55.5t-12.5 46.5t-19 32t-24 12zM457 596q-20 -42 -30.5 -85t-10.5 -83q0 -37 9 -69t27 -56t45.5 -37.5t65.5 -13.5q14 0 30.5 2.5t33.5 7.5q-42 49 -70 95t-46.5 88t-30.5 80
t-23 71z" />
    <glyph glyph-name="quotesingle" unicode="'" horiz-adv-x="403" 
d="M377 1507q-22 -103 -34.5 -206.5t-19.5 -187.5q-8 -99 -10 -189h-219q-3 92 -11 191q-7 85 -21 188t-37 204q35 -3 71.5 -3.5t73.5 -0.5q46 0 102.5 1t104.5 3z" />
    <glyph glyph-name="parenleft" unicode="(" horiz-adv-x="750" 
d="M780 1602q-106 -84 -190 -212q-36 -54 -70 -123t-60.5 -153.5t-42.5 -185t-16 -217.5q0 -114 15 -215t39.5 -188t55.5 -160.5t64 -132.5q77 -139 175 -240q-27 0 -72 5.5t-101 21.5t-118 45t-122.5 76t-116 115t-97.5 161t-67 214.5t-25 276.5q0 171 37.5 305t99 235.5
t140.5 172t162 115t164 64.5t146 20z" />
    <glyph glyph-name="parenright" unicode=")" horiz-adv-x="750" 
d="M-31 1602q65 0 146 -20t164 -64.5t162.5 -115t141 -172t99 -235.5t37.5 -305q0 -155 -25 -276.5t-67 -214.5t-97.5 -161t-116.5 -115t-123 -76t-117.5 -45t-100.5 -21.5t-72 -5.5q97 101 174 240q33 59 64 132.5t55.5 160.5t39.5 188t15 215q0 117 -16.5 217.5t-43 185
t-60.5 153.5t-70 123q-84 128 -189 212z" />
    <glyph glyph-name="asterisk" unicode="*" horiz-adv-x="901" 
d="M868 1096q-69 -2 -139.5 -14t-138.5 -27q56 -35 113.5 -66.5t117.5 -60.5l-180 -283q-15 34 -36 76.5t-45.5 84.5t-52.5 80t-56 64q-27 -26 -50 -63.5t-41 -79.5t-31 -84.5t-20 -77.5l-209 221q47 37 90.5 78.5t81.5 87.5q-58 6 -117.5 10.5t-119.5 6.5l119 329
q34 -51 83 -99t99 -83q-6 59 -19.5 117.5t-31.5 113.5l315 27q-28 -60 -44 -130.5t-24 -135.5q59 38 111.5 87t95.5 103z" />
    <glyph glyph-name="plus" unicode="+" horiz-adv-x="874" 
d="M610 1077q-29 -60 -42.5 -134t-16.5 -146q37 3 76.5 7.5t77 11.5t70.5 16.5t59 21.5q-8 -45 -11.5 -88t-3.5 -88q0 -43 3.5 -87t11.5 -87q-29 15 -63 26t-70.5 18t-74 11t-73.5 6q5 -72 15.5 -144t29.5 -140q-12 4 -30 7t-37.5 4.5t-37.5 2t-30 0.5q-51 0 -100.5 -4
t-100.5 -10q23 55 36 130.5t19 149.5q-71 -5 -141.5 -14.5t-136.5 -28.5q4 12 7 30t4.5 37t2 37t0.5 29q0 51 -4 101.5t-10 101.5q56 -23 130 -36t148 -19q-2 37 -6.5 75t-11 74.5t-16 69.5t-21.5 59q43 -9 87 -12.5t87 -3.5q45 0 88 3.5t86 12.5z" />
    <glyph glyph-name="comma" unicode="," horiz-adv-x="504" 
d="M463 164q0 -41 -16 -91t-40 -99t-53.5 -91t-56.5 -67l-203 24q32 25 59 56t50 65q-37 3 -67.5 20t-52.5 44t-34 62.5t-12 76.5q0 34 11 70.5t35.5 67.5t65.5 51t101 20q54 0 94.5 -15t66.5 -42.5t39 -66t13 -85.5z" />
    <glyph glyph-name="hyphen" unicode="-" horiz-adv-x="928" 
d="M860 854q-8 -45 -11 -88t-3 -88q0 -43 3 -87t11 -87q-38 20 -83.5 32.5t-93 19t-94.5 9t-89 2.5q-109 0 -220 -10.5t-214 -38.5q4 12 7 30t4.5 37t2 37t0.5 29q0 51 -4 101.5t-10 101.5q40 -17 92 -28.5t107 -18t109 -9.5t99 -3q41 0 93.5 3t106 9.5t103 18t84.5 28.5z
" />
    <glyph glyph-name="period" unicode="." horiz-adv-x="492" 
d="M35 160q0 43 16.5 81.5t45 67.5t67 45.5t82.5 16.5q43 0 81.5 -16.5t67.5 -45.5t45.5 -67.5t16.5 -81.5q0 -44 -16.5 -82.5t-45.5 -67t-67.5 -45t-81.5 -16.5q-44 0 -82.5 16.5t-67 45t-45 67t-16.5 82.5z" />
    <glyph glyph-name="slash" unicode="/" horiz-adv-x="969" 
d="M944 1438q-172 -350 -292.5 -710t-196.5 -742q-35 6 -78.5 10t-90.5 7t-95 4t-91 1h-73q55 89 108 201t102 236t93.5 256t81 261t64 250.5t44.5 225.5q18 -4 44 -6.5t53.5 -4t53.5 -2t44 -0.5q24 0 53.5 1t61 3t61 4.5t53.5 4.5z" />
    <glyph glyph-name="zero" unicode="0" horiz-adv-x="1253" 
d="M1198 690q0 -88 -14.5 -176.5t-44 -170t-76 -152t-110 -122.5t-145.5 -82t-183 -30t-182 27t-145 75.5t-110 116.5t-76 149.5t-44.5 174t-14.5 190.5q0 177 44.5 322.5t122 249.5t182 161.5t223.5 57.5q133 0 239 -52t180 -152.5t114 -248t40 -338.5zM793 735
q0 86 -12.5 154t-35 115.5t-55 72.5t-72.5 25q-38 0 -69.5 -31.5t-54 -83t-35.5 -117.5t-13 -135q0 -80 10.5 -145t31.5 -111t53.5 -71t76.5 -25q45 0 77.5 24.5t54.5 70t32.5 111t10.5 146.5z" />
    <glyph glyph-name="one" unicode="1" horiz-adv-x="854" 
d="M805 6q-21 2 -47 4q-23 2 -55 3t-74 1q-81 0 -188 -7t-232 -27q22 45 38 114t26.5 147.5t16.5 159.5t9 151t3.5 121t0.5 70q0 3 -0.5 24.5t-1.5 56.5t-2.5 80.5t-3.5 96.5q-55 11 -109.5 20t-99.5 15q-52 7 -100 11q69 65 113 125t70.5 113t40 97t21.5 78
q101 -18 185.5 -24t152.5 -6q45 0 81 2t61 4q29 3 51 6q-12 -56 -21 -124.5t-16 -146t-10.5 -162.5t-3.5 -175q0 -104 5 -211.5t16.5 -213.5t29 -208t43.5 -195z" />
    <glyph glyph-name="two" unicode="2" horiz-adv-x="1190" 
d="M47 -20q0 139 27 239.5t71.5 174.5t101.5 126t116.5 94t116.5 79t101.5 80t71.5 97t27 131q0 18 -5.5 39t-18.5 39.5t-35 30.5t-54 12q-27 0 -47.5 -10t-34 -25t-20 -33.5t-6.5 -35.5q0 -16 6.5 -30.5t17.5 -25.5t24.5 -17.5t27.5 -6.5q15 0 36 6q-17 -32 -45.5 -57.5
t-64 -42.5t-76 -26t-82.5 -9q-54 0 -101.5 15t-83 45.5t-55.5 76t-20 107.5q0 83 31.5 161t95.5 139t160 97.5t225 36.5q147 0 255.5 -42t180 -116t107 -175t35.5 -218q0 -83 -21 -144t-57 -106t-83.5 -78t-101 -60.5t-109.5 -52.5t-108.5 -54.5t-98.5 -66.5t-79 -89
q202 14 358 74.5t263 156.5q-7 -53 -10 -104.5t-3 -102.5q0 -83 8.5 -165.5t26.5 -163.5q-125 18 -259 27t-271 9q-140 0 -275.5 -9t-265.5 -27z" />
    <glyph glyph-name="three" unicode="3" horiz-adv-x="1198" 
d="M891 705q46 -13 90.5 -34.5t79 -58t55.5 -91t21 -134.5q0 -97 -35.5 -180t-107 -143.5t-180 -95t-255.5 -34.5q-129 0 -225 36.5t-160 97.5t-95.5 139.5t-31.5 161.5q0 61 20 106.5t55.5 76t83 45.5t101.5 15q42 0 82.5 -9t76 -26.5t64 -42.5t45.5 -57q-21 6 -36 6
q-14 0 -27.5 -6.5t-24.5 -17.5t-17.5 -25.5t-6.5 -30.5q0 -17 6.5 -35.5t20 -33.5t34 -25t47.5 -10q32 0 54 12.5t35 30.5t18.5 39t5.5 39q0 74 -29 121.5t-70.5 78t-87 49.5t-79.5 36q64 18 113.5 39t83.5 53t51.5 81t17.5 123q0 18 -5.5 39t-18.5 39.5t-35 30.5t-54 12
q-27 0 -47.5 -10t-34 -25t-20 -33.5t-6.5 -35.5q0 -16 6.5 -30.5t17.5 -25.5t24.5 -17.5t27.5 -6.5q15 0 36 6q-17 -32 -45.5 -57.5t-64 -42.5t-76 -26t-82.5 -9q-54 0 -101.5 15t-83 45.5t-55.5 76t-20 107.5q0 83 31.5 161t95.5 139t160 97.5t225 36.5q147 0 255.5 -39
t180 -104t107 -149t35.5 -173q0 -65 -21.5 -119.5t-56.5 -95.5t-79 -67t-89 -35z" />
    <glyph glyph-name="four" unicode="4" horiz-adv-x="1155" 
d="M1102 750q-8 -45 -11.5 -88.5t-3.5 -88.5q0 -87 15 -174q-23 11 -49 20t-52 17q11 -114 29.5 -222.5t46.5 -207.5q-20 2 -46 4q-23 2 -55.5 3t-74.5 1q-80 0 -187.5 -7t-232.5 -27q18 37 32 92t24.5 118.5t17 132.5t10.5 134q-20 -1 -70 1t-124.5 0t-169.5 -11t-205 -31
q50 154 93 285t78 252t60 239t39 246q193 -17 384 -14.5t384 18.5q-23 -113 -37 -270.5t-14 -337.5v-121q34 8 64 16t55 21zM575 684q0 26 -0.5 69t-2 97t-3.5 116.5t-6 127.5q-45 -87 -72 -191t-49 -213q23 -2 41 -3t33 -1.5t29 -1t30 -0.5z" />
    <glyph glyph-name="five" unicode="5" horiz-adv-x="1186" 
d="M522 1008q30 -1 87.5 -6t125.5 -23t139 -52.5t129 -95t95 -151t37 -219.5q0 -119 -35.5 -216.5t-107 -166.5t-180 -106.5t-255.5 -37.5q-129 0 -225 36.5t-160 97.5t-95.5 139.5t-31.5 161.5q0 61 20 106.5t55.5 76t83 45.5t101.5 15q42 0 82.5 -9t76 -26.5t64 -42.5
t45.5 -57q-21 6 -36 6q-14 0 -27.5 -6.5t-24.5 -17.5t-17.5 -25.5t-6.5 -30.5q0 -17 6.5 -35.5t20 -33.5t34 -25t47.5 -10q65 0 96 40.5t31 106.5q0 58 -29 102.5t-76 75t-107 48t-121.5 23t-120.5 -1t-103 -23.5q0 3 -0.5 33t-1.5 77.5t-3 108.5t-5.5 126.5t-8.5 132
t-12.5 125t-17 105t-22.5 72.5q96 -20 195 -28.5t196 -8.5q111 0 216.5 7.5t188.5 17.5q97 11 183 26v-530q-54 46 -110.5 77.5t-111 50.5t-104.5 27.5t-90 8.5h-101z" />
    <glyph glyph-name="six" unicode="6" horiz-adv-x="1204" 
d="M725 467q0 85 -29 133.5t-92 48.5q-51 0 -85 -48.5t-36 -133.5q-1 -38 7 -72.5t24 -60.5t38.5 -42t51.5 -16t51.5 15t38 41t23.5 61t8 74zM485 899q9 9 26 19.5t39.5 18.5t49 13.5t55.5 5.5q59 0 119.5 -10.5t116.5 -33.5t105.5 -60.5t86 -90.5t57.5 -124t21 -162
q0 -132 -41 -232.5t-114.5 -168.5t-175 -102.5t-222.5 -34.5q-128 0 -230.5 42.5t-173.5 127t-109 211.5t-38 296q0 97 8.5 199.5t32.5 199.5t67.5 183.5t114 151.5t170.5 103t238 38q80 0 153 -21t129 -59t89 -90.5t33 -116.5q0 -48 -20 -89.5t-53.5 -72t-77 -48
t-89.5 -17.5q-59 0 -114 31t-97 100q11 -2 21.5 -3t19.5 -1q20 0 29.5 12.5t9.5 28.5q0 15 -16 30t-50 15q-54 0 -87.5 -27.5t-52 -69.5t-24.5 -93t-6 -99z" />
    <glyph glyph-name="seven" unicode="7" horiz-adv-x="1026" 
d="M1040 1444q-49 -113 -89 -221.5t-73 -218t-59.5 -222.5t-48.5 -235t-40 -256t-34 -285q-25 2 -56 4q-26 2 -61 3t-77 1q-40 0 -81 -1.5t-87 -5.5t-98.5 -10.5t-116.5 -16.5q47 75 91.5 169.5t83 197t71.5 207.5t58 201t41.5 177.5t22.5 136.5q-57 -1 -117 -5t-119.5 -15
t-115.5 -30t-104 -50q3 9 5 28t4 43t2.5 50t1.5 49.5t1 42.5v28q0 62 -4 123t-10 123q111 -24 238.5 -36t259.5 -13.5t263 8t248 29.5z" />
    <glyph glyph-name="eight" unicode="8" horiz-adv-x="1188" 
d="M893 745q46 -13 90.5 -40.5t79 -71.5t55.5 -105t21 -141q0 -92 -32 -174t-98.5 -144t-169.5 -98.5t-245 -36.5t-245 36.5t-169.5 98.5t-98.5 144t-32 174q0 80 21 141t55.5 105t79 71.5t90.5 40.5q-35 2 -71 32.5t-66 75t-49 95.5t-19 94q0 84 31.5 164t94.5 142.5
t157.5 100.5t220.5 38q132 0 227 -38t156.5 -100.5t91 -142.5t29.5 -164q0 -47 -19.5 -97.5t-50 -94t-66.5 -73t-69 -32.5zM502 1022q0 -28 8.5 -55.5t21.5 -53.5t29.5 -50.5t32.5 -45.5q46 51 69 104t23 101q0 16 -4.5 36.5t-15 39t-28.5 31t-44 12.5t-44 -12.5t-28.5 -31
t-15 -39t-4.5 -36.5zM502 420q0 -16 4.5 -37t15 -39.5t28.5 -31.5t44 -13t44 13t28.5 31.5t15 39.5t4.5 37q0 28 -7 56.5t-19.5 54t-29.5 47t-36 36.5q-20 -15 -37 -37.5t-29 -48t-19 -53.5t-7 -55z" />
    <glyph glyph-name="nine" unicode="9" horiz-adv-x="1202" 
d="M479 958q0 -85 29 -133.5t92 -48.5q25 0 47 12.5t38 36.5t25.5 57.5t10.5 75.5q1 38 -7.5 72.5t-24 61t-38.5 42t-51 15.5q-29 0 -51.5 -15t-38 -41t-23.5 -61t-8 -74zM719 526q-9 -9 -26 -19t-39 -18.5t-49 -14t-56 -5.5q-59 0 -119.5 10.5t-116.5 34t-105.5 60.5
t-86 90.5t-57.5 124.5t-21 161q0 132 41 233t114.5 169t175 102.5t222.5 34.5q128 0 230 -42.5t173.5 -127.5t109.5 -212t38 -296q0 -97 -8.5 -199t-32.5 -199.5t-67.5 -184t-114 -151t-170.5 -102.5t-238 -38q-80 0 -153 21t-128.5 58.5t-88.5 90t-33 116.5q0 48 20 90
t53.5 72.5t76.5 48t89 17.5q59 0 114 -31t97 -101q-23 5 -41 5q-20 0 -29.5 -13t-9.5 -28q0 -16 16 -30.5t50 -14.5q54 0 87.5 27t52 69t24.5 93t6 99z" />
    <glyph glyph-name="colon" unicode=":" horiz-adv-x="553" 
d="M66 160q0 43 16.5 81.5t45 67.5t66.5 45.5t82 16.5t82.5 -16.5t67 -45.5t45 -67.5t16.5 -81.5q0 -44 -16.5 -82.5t-45 -67t-67 -45t-82.5 -16.5t-82 16.5t-66.5 45t-45 67t-16.5 82.5zM66 872q0 44 16.5 82.5t45 67t66.5 45t82 16.5t82.5 -16.5t67 -45t45 -67t16.5 -82.5
t-16.5 -82t-45 -66.5t-67 -45t-82.5 -16.5t-82 16.5t-66.5 45t-45 66.5t-16.5 82z" />
    <glyph glyph-name="semicolon" unicode=";" horiz-adv-x="563" 
d="M68 872q0 44 16.5 82.5t45 67t67 45t82.5 16.5q43 0 81.5 -16.5t67 -45t45 -67t16.5 -82.5t-16.5 -82t-45 -66.5t-67 -45t-81.5 -16.5q-44 0 -82.5 16.5t-67 45t-45 66.5t-16.5 82zM494 164q0 -41 -16 -91t-40.5 -99t-53.5 -91t-56 -67l-203 24q32 25 58.5 56t49.5 65
q-37 3 -67.5 20t-52 44t-33.5 62.5t-12 76.5q0 34 11 70.5t35.5 67.5t65.5 51t101 20q54 0 94.5 -15t66.5 -42.5t39 -66t13 -85.5z" />
    <glyph glyph-name="less" unicode="&#x3c;" horiz-adv-x="768" 
d="M655 145q-66 50 -141 104t-154.5 104t-161 91.5t-159.5 67.5q8 43 10 88t2 88q0 108 -12 213q42 21 91.5 52t101 68.5t103 79.5t98.5 84.5t87 85t68 79.5l131 -406q-60 -10 -124 -32.5t-126.5 -53.5t-120.5 -67.5t-106 -73.5q46 -30 106 -62t124.5 -59t128.5 -45t118 -19
z" />
    <glyph glyph-name="equal" unicode="=" horiz-adv-x="952" 
d="M872 649q-8 -45 -11 -88t-3 -88q0 -43 3 -87t11 -87q-38 20 -83.5 32.5t-92.5 19t-94.5 9t-89.5 2.5q-108 0 -219.5 -10.5t-214.5 -38.5q4 12 7 30t4.5 37t2 37t0.5 29q0 51 -4 101.5t-10 101.5q40 -17 92.5 -28.5t107.5 -18t109 -9.5t98 -3q41 0 93.5 3t106 9.5t103 18
t84.5 28.5zM872 1059q-8 -45 -11 -88t-3 -88q0 -44 3 -87.5t11 -86.5q-38 20 -83.5 32.5t-92.5 19t-94.5 9t-89.5 2.5q-108 0 -219.5 -10.5t-214.5 -38.5q4 12 7 29.5t4.5 37t2 37t0.5 29.5q0 51 -4 101.5t-10 101.5q40 -17 92.5 -28.5t107.5 -18.5t109 -10t98 -3
q41 0 93.5 3t106 10t103 18.5t84.5 28.5z" />
    <glyph glyph-name="greater" unicode="&#x3e;" horiz-adv-x="768" 
d="M729 512q-78 -26 -159.5 -67.5t-161 -91.5t-154.5 -104t-141 -104l-64 387q54 1 118.5 19t129.5 45t125 59t106 62q-48 37 -106.5 73.5t-121.5 67.5t-127 53.5t-124 32.5l131 406q28 -38 68 -80t87 -84.5t98.5 -84.5t103 -79.5t100.5 -68.5t92 -52q-12 -105 -12 -213
q0 -43 2 -88t10 -88z" />
    <glyph glyph-name="question" unicode="?" horiz-adv-x="1112" 
d="M1075 1006q0 -83 -24 -143t-61 -106.5t-81.5 -84t-84.5 -74.5t-70.5 -78.5t-40.5 -95.5q-50 11 -97.5 15.5t-95.5 4.5q-29 0 -58.5 -1.5t-58.5 -6.5q0 69 15 117t38 85t49.5 69t49.5 69t38 84.5t15 116.5q0 47 -10 82t-26.5 59.5t-37 39.5t-40.5 23.5t-38 11.5t-30 3
q-38 0 -58 -19.5t-20 -39.5q0 -11 3 -21.5t10.5 -18.5t19.5 -13t31 -5q14 1 26 7q11 5 22 16.5t17 32.5q22 -31 33.5 -70.5t11.5 -81.5t-12 -81t-38 -70t-66.5 -49.5t-96.5 -18.5q-69 0 -121 30.5t-86.5 77t-51.5 101.5t-17 104q0 45 11 93.5t34.5 95t61 88t89.5 73
t120.5 50t154.5 18.5q70 0 140 -12t133.5 -37t118 -64t94.5 -93.5t62.5 -125t22.5 -157.5zM336 160q0 43 16.5 81.5t45 67.5t67 45.5t82.5 16.5t82.5 -16.5t67 -45.5t45 -67.5t16.5 -81.5q0 -44 -16.5 -82.5t-45 -67t-67 -45t-82.5 -16.5t-82.5 16.5t-67 45t-45 67
t-16.5 82.5z" />
    <glyph glyph-name="at" unicode="@" horiz-adv-x="1661" 
d="M911 295q-10 -56 -31.5 -93.5t-50 -60.5t-61 -33t-63.5 -10q-20 0 -44.5 5t-50 19.5t-50 39.5t-43.5 65.5t-30.5 98.5t-11.5 137q0 107 21.5 182.5t55 123.5t74 70.5t79.5 22.5q33 0 60 -9.5t48 -24t36 -32t25 -34.5q-2 22 -5.5 46.5t-8.5 49.5q42 -9 84 -11.5t80 -2.5
q20 0 37.5 0.5t31.5 1.5q16 1 29 2q-15 -63 -23.5 -154t-8.5 -194q0 -48 5.5 -91.5t18 -76.5t33.5 -52.5t53 -19.5q16 0 35 6t35 28.5t26.5 66t10.5 118.5q0 118 -31.5 221.5t-90 180.5t-143 121.5t-190.5 44.5t-199 -44.5t-162 -121t-109 -179.5t-40 -221
q0 -81 16.5 -160.5t58 -150.5t113 -129.5t181.5 -97.5q-70 -23 -146.5 -20t-150 29t-140 73.5t-116.5 114.5t-79.5 152.5t-29.5 186.5q0 132 31 237t86 185.5t131 138t164.5 94t187 53.5t199.5 17t197 -16.5t180 -52t154.5 -90.5t121.5 -131.5t79 -175.5t28 -222
q0 -99 -20.5 -170.5t-53.5 -121.5t-76 -81t-88.5 -48t-89.5 -23t-80 -6q-73 0 -125 20t-86.5 52.5t-53 73.5t-24.5 83zM870 489v101q0 18 -2 35.5t-9 32t-19 23.5t-33 9q-23 0 -36.5 -25.5t-20 -59.5t-8 -69t-1.5 -53q0 -17 1.5 -42t7.5 -48.5t18 -40t33 -16.5q22 0 35.5 16
t21 39.5t10 50t2.5 47.5z" />
    <glyph glyph-name="A" unicode="A" horiz-adv-x="1171" 
d="M1217 -12q-62 8 -119.5 11t-116.5 3q-159 0 -326 -31q6 24 13.5 42.5t13.5 41t10 52.5t4 77q0 48 -7 91.5t-21 77t-34.5 53.5t-47.5 20q-30 0 -50.5 -18t-33 -49t-18 -71t-5.5 -85t5.5 -77.5t13 -56.5t14.5 -42.5t10 -36.5q-69 8 -135.5 12t-132.5 4t-132.5 -4
t-137.5 -12q62 180 108.5 357t79.5 356t53.5 362t30.5 375q74 -10 162.5 -14.5t181.5 -4.5q79 0 153.5 4t137.5 17q7 -191 36 -376t72.5 -366.5t99.5 -359t118 -352.5zM657 764q-2 19 -12 56q-9 32 -27 84.5t-53 135.5q-8 -52 -18 -92.5t-19 -73t-15.5 -59.5t-6.5 -51
q0 -50 23.5 -77.5t52.5 -27.5q31 0 52 30t23 75z" />
    <glyph glyph-name="B" unicode="B" horiz-adv-x="1180" 
d="M1153 389q0 -111 -46.5 -189t-123.5 -127.5t-176.5 -73.5t-204.5 -28q-67 2 -128 5q-26 1 -53 1.5t-52.5 1.5t-48.5 1h-39q-66 -2 -136.5 -3t-138.5 -6q45 61 73 156t44.5 205t22.5 225.5t6 216.5q0 43 -1.5 104.5t-5.5 131t-11 140.5t-19.5 132.5t-30.5 108.5t-43 67
q72 -11 140 -14.5t116 -3.5q42 0 75 1.5t65 3.5t66 3.5t77 1.5q66 -1 132.5 -7.5t127 -22.5t113.5 -43.5t91.5 -71.5t61 -106t22.5 -146q0 -45 -11.5 -90t-37 -88t-67 -82.5t-101.5 -73.5q128 -53 185 -135.5t57 -194.5zM557 840q20 15 47 40.5t51 56t41 63.5t17 63
q0 32 -18.5 52t-41.5 20q-32 0 -51 -29t-29.5 -68.5t-14 -80t-3.5 -64.5v-25.5t2 -27.5zM694 342q0 36 -11 72.5t-29.5 72t-42 68.5t-48.5 63q-15 -45 -19.5 -88.5t-4.5 -78.5q0 -52 7 -86.5t19.5 -55.5t29.5 -30t38 -9q25 0 43 18.5t18 53.5z" />
    <glyph glyph-name="C" unicode="C" horiz-adv-x="1157" 
d="M1126 1059q0 -51 -18 -103.5t-51.5 -95t-81.5 -69.5t-109 -27q-54 0 -92.5 18.5t-63 49.5t-36.5 70t-12 81t10.5 81.5t32.5 70.5q6 -21 16 -32.5t21 -16.5q12 -6 26 -7q32 0 45.5 17t13.5 39q0 10 -4 20.5t-12.5 19.5t-22.5 15t-34 6q-11 0 -31.5 -3t-45.5 -15.5
t-51 -37.5t-47.5 -68t-35 -107t-13.5 -156q0 -63 12.5 -109.5t32.5 -79.5t46 -54t53 -33t52.5 -16.5t45.5 -4.5q26 0 65.5 9.5t78.5 34.5t70.5 69t43.5 114q35 -49 53.5 -117t18.5 -143q0 -102 -36.5 -197.5t-104 -169.5t-163.5 -118.5t-214 -44.5q-87 0 -161 27.5
t-135 76.5t-107 115.5t-78 144.5t-48 164.5t-16 175.5q0 98 21 197.5t60.5 191.5t96 172.5t128.5 140t158 94t183 34.5q88 0 155 -20.5t115.5 -55t81.5 -78.5t52.5 -91t27.5 -93.5t8 -85.5z" />
    <glyph glyph-name="D" unicode="D" horiz-adv-x="1282" 
d="M1237 709q0 -163 -36 -280t-95 -198.5t-134 -131t-152.5 -77t-151.5 -36.5t-131 -9q-97 0 -165.5 6.5t-113.5 6.5q-51 0 -113 -2t-131 -8q27 49 47.5 109.5t35.5 126.5t25.5 133.5t17.5 130.5q16 148 18 304q-2 155 -15 291q-6 58 -14.5 116.5t-20.5 111t-28.5 94.5
t-38.5 67q74 -12 140.5 -16t117.5 -4q33 0 64 2t64 4t70.5 4t84.5 2q68 0 143.5 -9.5t148 -37.5t138.5 -79t116 -134t79.5 -202.5t29.5 -284.5zM748 731q0 117 -7 195t-20.5 125.5t-33.5 67.5t-46 20q-23 0 -41.5 -23.5t-31.5 -75.5t-20 -133.5t-7 -197.5q0 -122 6.5 -203.5
t19 -130.5t31 -69.5t43.5 -20.5q49 0 78 107t29 339z" />
    <glyph glyph-name="E" unicode="E" horiz-adv-x="1030" 
d="M993 -14q-52 10 -106.5 15.5t-115 8.5t-129 3.5t-148.5 0.5q-38 0 -90.5 -1t-113 -5t-124.5 -11.5t-125 -19.5q22 45 38 113.5t26.5 145.5t16.5 157t9 149t3.5 119.5t0.5 69.5q0 4 -0.5 31t-1.5 70t-3 98.5t-5.5 115.5t-9 121t-13 115.5t-17 98t-22.5 69.5
q98 -14 193 -20.5t184 -6.5q109 0 204 6t166 14q83 9 151 21v-469q-58 54 -111 83t-94 43q-48 16 -90 18q-50 0 -81.5 -12.5t-49 -32t-23.5 -44t-6 -49.5q0 -26 7.5 -52t23.5 -47t41.5 -34.5t60.5 -13.5q29 0 53 13.5t41 30.5q20 19 37 44v-407q-16 38 -37.5 60t-42 32.5
t-37 13t-22.5 2.5q-65 0 -97 -40t-32 -103q0 -46 10.5 -78t28 -52t41 -29t49.5 -9q40 0 86 18t88.5 48t78 68.5t56.5 78.5z" />
    <glyph glyph-name="F" unicode="F" horiz-adv-x="1016" 
d="M999 995q-49 53 -103 82.5t-100 43t-77 16t-35 2.5q-50 0 -81 -12.5t-48.5 -32t-24 -44t-6.5 -49.5q0 -24 5.5 -50t18.5 -47.5t35 -35.5t56 -14q2 0 16 0.5t35 8t46.5 26t51.5 53.5v-407q-21 38 -46 60t-47.5 32.5t-40 13t-23.5 2.5q-33 0 -54.5 -11t-34 -30.5t-17.5 -47
t-5 -60.5q3 -77 15 -159q5 -35 13 -74t20 -80.5t28 -83t37 -81.5q-22 1 -48 3q-23 2 -53.5 3t-68.5 1q-45 0 -98 -2.5t-108 -8.5t-111 -16.5t-107 -26.5q22 45 38 114t26.5 147t16.5 159t9 150.5t3.5 121t0.5 70.5q0 4 -0.5 31t-1.5 70t-3 98.5t-5.5 115.5t-9 121t-13 115.5
t-17 98t-22.5 69.5q96 -20 195.5 -28.5t196.5 -8.5q111 0 210 7.5t174 17.5q88 11 162 26v-469z" />
    <glyph glyph-name="G" unicode="G" horiz-adv-x="1208" 
d="M1188 752q-82 -203 -82 -394q0 -92 17 -185.5t53 -190.5q-57 14 -106 21t-97 7q-51 0 -104 -9t-115 -28l41 160q-20 -32 -48 -65.5t-66.5 -60.5t-88 -44.5t-113.5 -17.5q-96 0 -176.5 46t-138.5 133t-90.5 213.5t-32.5 287.5q0 107 20 212.5t58 201t94 177t127 141
t157.5 93t186.5 33.5q91 0 159 -18.5t118 -49t82.5 -70t51.5 -82.5t27 -85.5t8 -79.5q0 -53 -18.5 -102t-51.5 -86t-78 -59t-99 -22q-56 0 -97 17t-68 44.5t-40.5 61.5t-13.5 68q0 29 10 59t28 56q6 -21 17 -32.5t22 -16.5q12 -6 27 -7q34 0 48.5 17t14.5 39q0 10 -4.5 20.5
t-13.5 19.5t-23.5 15t-35.5 6q-14 0 -38.5 -5.5t-53 -21.5t-57.5 -45.5t-53 -78.5t-39 -120t-15 -169q0 -81 13.5 -142t37.5 -102t57 -61.5t72 -20.5q37 0 61 19t38 46t19 56t5 49q0 1 -1.5 14t-9.5 30t-26 35t-51 30q118 0 237 10.5t238 32.5z" />
    <glyph glyph-name="H" unicode="H" horiz-adv-x="1282" 
d="M612 6q-19 2 -44 4q-21 2 -52 3t-70 1q-75 0 -179.5 -7t-229.5 -27q22 45 38 114t26.5 147.5t16.5 159.5t9 151t3.5 121t0.5 70q0 4 -0.5 31t-1.5 70t-3 98.5t-5.5 115.5t-9 121t-13 115t-17 97.5t-22.5 68.5q97 -17 183 -23.5t157 -6.5q49 0 89 2t68 5q33 3 58 7
q-45 -125 -63.5 -238.5t-18.5 -199.5q0 -110 29 -161.5t80 -51.5q63 0 89 64.5t26 178.5q0 62 -6 125t-17.5 121t-27 109t-33.5 90q100 -19 187 -25t155 -6q46 0 82 2t62 4q30 3 52 6q-11 -56 -20.5 -127t-16.5 -152.5t-10.5 -172.5t-3.5 -187q0 -109 5 -221.5t16.5 -222.5
t29 -214.5t41.5 -197.5q-19 2 -44 4q-21 2 -52 3t-70 1q-75 0 -179.5 -7t-229.5 -27q14 28 27 72t23 95t16 105.5t6 103.5q0 94 -26.5 142.5t-74.5 48.5q-42 0 -68 -39t-26 -123q0 -39 5 -82t13 -87t19 -87.5t22 -83.5z" />
    <glyph glyph-name="I" unicode="I" horiz-adv-x="672" 
d="M633 6q-21 2 -47 4q-23 2 -55 3t-74 1q-81 0 -188 -7t-232 -27q22 45 38 114t26.5 147.5t16.5 159.5t9 151t3.5 121t0.5 70q0 4 -0.5 31t-1.5 70t-3 98.5t-5.5 115.5t-9 121t-13 115t-17 97.5t-22.5 68.5q101 -18 185.5 -24t152.5 -6q45 0 81 2t61 4q29 3 51 6
q-12 -56 -21 -124.5t-16 -146t-10.5 -162.5t-3.5 -175q0 -104 5 -211.5t16.5 -213.5t29 -208t43.5 -195z" />
    <glyph glyph-name="J" unicode="J" horiz-adv-x="1145" 
d="M1126 1436q-13 -32 -22.5 -73t-17 -86t-13 -92t-8.5 -91q-8 -104 -10 -215q0 -69 -0.5 -146t-6 -157t-19 -158.5t-41 -150.5t-71 -133.5t-109.5 -107t-156.5 -71t-211.5 -25.5q-106 0 -188.5 35t-139.5 93t-86.5 134t-29.5 158q0 75 24 134t63 99.5t89 61.5t102 21
q73 0 137.5 -43t98.5 -131q-12 11 -26.5 16.5t-26.5 5.5q-17 0 -33 -7.5t-28 -21t-19.5 -31t-7.5 -38.5q0 -24 8.5 -43.5t23.5 -33t34.5 -21t41.5 -7.5q46 0 77.5 23.5t50.5 71.5t27.5 121t8.5 173q0 67 -2.5 141.5t-7.5 149.5t-13 146.5t-19.5 134t-25.5 112.5t-32 80
q36 -13 86 -23q43 -8 107 -15t149 -7q54 0 114 3.5t129 13.5z" />
    <glyph glyph-name="K" unicode="K" horiz-adv-x="1227" 
d="M1227 -35q-68 5 -125 6.5t-107 1.5q-91 0 -153.5 -5t-101.5 -11q-46 -7 -74 -16q4 31 8 59.5t6.5 56.5t4 56t1.5 59q0 111 -8.5 185.5t-24.5 123.5t-39 80t-51 55q-2 -45 -3 -87t-1 -89t2 -97t7 -106.5t15 -120t25 -136.5q-38 3 -85 7q-40 2 -95 4.5t-121 2.5t-140 -3
t-155 -11q24 30 43.5 78t34.5 105.5t25.5 120.5t18.5 124q18 143 24 305q0 85 -2 175t-10 179.5t-23.5 176.5t-42.5 165q42 -3 83 -5.5t83 -2.5q197 0 387 41q-44 -130 -63 -257.5t-19 -254.5q0 -31 0.5 -61.5t3.5 -61.5q85 108 130.5 212t45.5 204q0 51 -11.5 99.5
t-37.5 96.5q50 -5 99.5 -7.5t99.5 -2.5q86 0 172 8t174 25q-17 -26 -31 -55.5t-25.5 -61t-21 -63.5t-16.5 -61q-17 -69 -27 -140q-11 -70 -37 -133q-11 -27 -27 -55.5t-37 -55t-47.5 -50t-60.5 -40.5q70 -29 107.5 -72t56.5 -97.5t27 -119t20 -135.5q11 -60 28 -120
q14 -51 36.5 -110t54.5 -108z" />
    <glyph glyph-name="L" unicode="L" horiz-adv-x="952" 
d="M952 -14q-35 8 -82.5 14t-99 9t-102 4.5t-91 2t-66.5 0.5h-28q-62 -1 -134 -6q-62 -5 -141.5 -14.5t-166.5 -26.5q20 77 35 172.5t25 202.5t15 221t5 228q0 94 -3.5 185.5t-11 175.5t-18 159t-25.5 137q104 -19 188.5 -25t149.5 -6q41 0 73 1.5t54 3.5q26 3 45 6
q-22 -72 -41 -156t-32.5 -172.5t-21 -177.5t-7.5 -170q0 -103 13 -176.5t38.5 -120t62 -68.5t83.5 -22q63 0 124.5 45.5t106.5 132.5z" />
    <glyph glyph-name="M" unicode="M" horiz-adv-x="1513" 
d="M604 6q-17 2 -42 4q-21 2 -51.5 3t-68.5 1q-74 0 -176 -7t-227 -27q53 223 73.5 437t20.5 412q0 180 -14 338.5t-37 292.5q100 -18 179.5 -24t137.5 -6q40 0 70.5 2t50.5 4q24 3 41 6q34 -196 85 -387.5t126 -384.5q63 195 100 390.5t50 399.5l8 -18l-8 18
q100 -18 182 -24t145 -6q42 0 74 2t55 4q26 3 45 6q-21 -100 -32 -236.5t-11 -292.5q0 -111 6 -228.5t18.5 -234t32.5 -229.5t48 -215q-20 2 -46 4q-23 2 -54 3t-72 1q-78 0 -183.5 -7t-230.5 -27q25 50 41.5 128t27 166t16 175.5t7.5 156.5q-29 -62 -56 -126t-55.5 -136.5
t-59.5 -156.5t-68 -187q-38 103 -69 187t-58.5 156t-54 136.5t-54.5 128.5q9 -158 30 -311.5t58 -290.5z" />
    <glyph glyph-name="N" unicode="N" horiz-adv-x="1323" 
d="M618 6q-19 2 -45 4q-22 2 -53 3t-71 1q-78 0 -182.5 -7t-229.5 -27q22 45 38 114t26.5 147.5t16.5 159.5t9 151t3.5 121t0.5 70q0 4 -0.5 31t-1.5 70t-3 98.5t-5.5 115.5t-9 121t-13 115t-17 97.5t-22.5 68.5q101 -18 184 -24t148 -6q44 0 78.5 2t57.5 4q27 3 48 6
q43 -212 98 -393t124 -336v41q-3 163 -11 304q-4 60 -9 121t-12.5 115t-17 97.5t-22.5 68.5q100 -18 184.5 -24t149.5 -6q44 0 78.5 2t57.5 4q27 3 48 6q-12 -56 -21 -125t-16 -147t-10.5 -164t-3.5 -177q0 -103 5 -209.5t16.5 -212t29 -207t41.5 -194.5q-18 2 -43 4
q-21 2 -51 3t-68 1q-72 0 -166 -7t-202 -27q0 103 -16.5 201.5t-46.5 194t-72 187.5t-93 182q1 -94 7.5 -190t18 -190t28 -184.5t38.5 -174.5z" />
    <glyph glyph-name="O" unicode="O" horiz-adv-x="1206" 
d="M1163 670q0 -152 -34 -285.5t-103 -233t-174.5 -157t-249.5 -57.5q-143 0 -248.5 57.5t-175 157t-103.5 233t-34 285.5q0 112 21 216t58 194t89 164t114.5 126.5t133 81.5t145.5 29q126 0 229.5 -61.5t177 -170.5t114 -257t40.5 -322zM754 756q0 75 -12 138.5t-32.5 110
t-48.5 73t-59 26.5q-30 0 -57 -31.5t-47.5 -81.5t-32.5 -112t-12 -123q0 -59 10.5 -109.5t29.5 -87.5t46.5 -58.5t62.5 -21.5q34 0 62.5 21.5t48 58.5t30.5 87.5t11 109.5z" />
    <glyph glyph-name="P" unicode="P" horiz-adv-x="1120" 
d="M1100 874q0 -106 -33.5 -190.5t-88.5 -144t-126 -91.5t-147 -32q-42 0 -83 9.5t-81 31.5q9 -74 29 -152q17 -67 48.5 -149.5t83.5 -161.5q-102 11 -183.5 15.5t-147.5 4.5q-89 0 -149.5 -6t-98.5 -14q-44 -9 -70 -19q25 77 43 168t30 190t18 202.5t6 205.5
q0 111 -7 217.5t-20.5 200t-33.5 170.5t-46 129q48 -15 100.5 -21.5t106.5 -6.5q49 0 98.5 4.5t97.5 9.5t93 9.5t84 4.5q42 0 93.5 -11t104.5 -37.5t103 -70.5t89 -109t62.5 -153t24.5 -203zM530 711q25 24 57.5 58.5t61.5 75t48.5 83.5t19.5 82q0 45 -25.5 71.5t-56.5 26.5
q-28 0 -46.5 -19t-30.5 -49.5t-18 -68t-9 -74t-3 -68v-49.5v-34t2 -35z" />
    <glyph glyph-name="Q" unicode="Q" horiz-adv-x="1206" 
d="M1163 670q0 -96 -13.5 -185.5t-41 -168t-69 -144.5t-97.5 -115q79 -143 217 -260q-180 -58 -315 -184q-25 185 -92 344q-35 -9 -72.5 -14.5t-77.5 -5.5q-143 0 -248.5 57.5t-175 157t-103.5 233t-34 285.5q0 112 21 216t58 194t89 164t114.5 126.5t133 81.5t145.5 29
q126 0 229.5 -61.5t177 -170.5t114 -257t40.5 -322zM754 756q0 75 -12 138.5t-32.5 110t-48.5 73t-59 26.5q-30 0 -57 -31.5t-47.5 -81.5t-32.5 -112t-12 -123q0 -59 10.5 -109.5t29.5 -87.5t46.5 -58.5t62.5 -21.5q34 0 62.5 21.5t48 58.5t30.5 87.5t11 109.5z" />
    <glyph glyph-name="R" unicode="R" horiz-adv-x="1227" 
d="M1225 -16q-65 5 -121.5 6.5t-104.5 1.5q-94 0 -157 -5.5t-103 -11.5q-47 -7 -75 -16q4 31 8 58t6.5 52.5t4 51t1.5 53.5q0 110 -8.5 183t-24.5 122t-39 79t-51 54q-2 -45 -3 -87t-1 -89q0 -46 2 -96t7 -106t15 -119.5t25 -137.5q-1 4 -26 9t-67 9t-96.5 6.5t-113.5 2.5
q-77 0 -154 -5.5t-139 -21.5q24 31 43.5 78.5t34.5 104.5t25.5 120t18.5 124q18 143 24 305q0 40 0.5 101t-2 133t-8 148t-18 146t-32.5 128t-51 93q72 -11 140 -14.5t116 -3.5q42 0 77.5 2t70.5 4t73 4t84 2q63 0 127 -6.5t122.5 -23t109 -45t88 -72t59 -104.5t21.5 -142
q0 -45 -11.5 -90t-37.5 -88.5t-67.5 -83t-101.5 -72.5q71 -29 107.5 -72t52.5 -98t17.5 -119.5t3.5 -134.5q4 -75 19 -139q6 -27 15.5 -55t23 -52t31 -43t40.5 -28zM561 846q22 16 49.5 40.5t51 54t39.5 62.5t16 66q0 32 -18.5 52t-41.5 20q-32 0 -51 -29.5t-29.5 -69.5
t-14 -80.5t-3.5 -62.5v-25.5t2 -27.5z" />
    <glyph glyph-name="S" unicode="S" horiz-adv-x="1153" 
d="M1073 1141q0 -50 -18.5 -90.5t-51.5 -69.5t-77.5 -45t-96.5 -16q-57 0 -97.5 14t-68 35.5t-43.5 48t-24.5 51.5t-11 46t-2.5 32q12 -20 28 -25.5t27 -5.5q28 0 39.5 15t11.5 32q0 11 -4.5 23t-16 22.5t-31 17.5t-48.5 7q-20 0 -41 -7.5t-38.5 -23t-28.5 -38.5t-11 -54
q0 -30 12.5 -59.5t34 -55.5t51 -47t64.5 -35q55 -23 113.5 -45t113.5 -48t103.5 -59.5t85 -79.5t58 -107.5t21.5 -143.5q0 -117 -47.5 -213.5t-127 -165t-184 -106t-218.5 -37.5q-103 0 -196 30.5t-163 83.5t-111.5 124.5t-41.5 154.5q0 61 20 107t55.5 76.5t83 45.5
t101.5 15q42 0 82.5 -9t76 -26.5t64 -42.5t45.5 -57q-21 6 -37 6q-27 0 -43 -16t-16 -48q0 -17 8 -31.5t20.5 -25.5t29 -17t34.5 -6q20 0 37 8.5t30 22.5t20 31t7 35q0 35 -21.5 71t-62.5 64q-78 48 -147 83t-127 66.5t-104.5 63.5t-79 74t-49.5 98.5t-17 136.5q0 96 37 180
t107.5 146.5t172.5 98.5t232 36q131 0 222 -31.5t147.5 -81.5t82 -111.5t25.5 -121.5z" />
    <glyph glyph-name="T" unicode="T" 
d="M838 4q-23 2 -53 4q-26 2 -61 3t-79 1q-74 0 -166.5 -5.5t-195.5 -20.5q35 148 53 285t27 244q10 125 12 235q0 47 -2 103q-2 48 -5 111.5t-8 137.5q-47 -45 -93.5 -96.5t-89.5 -107t-80.5 -112.5t-65.5 -112l24 764q94 -11 198.5 -17t213.5 -6q156 0 309 11t281 32
l37 -772q-72 137 -159.5 257.5t-186.5 201.5q-8 -68 -11.5 -142.5t-3.5 -152.5q0 -101 6.5 -207.5t19 -214.5t32.5 -215t47 -209z" />
    <glyph glyph-name="U" unicode="U" horiz-adv-x="1200" 
d="M1167 1442q-23 -115 -37 -276t-14 -345q0 -26 0.5 -50.5t1.5 -50.5t1.5 -54t0.5 -60q0 -67 -5.5 -143t-24.5 -151t-54 -144.5t-93.5 -122t-144.5 -84t-206 -31.5q-113 0 -194.5 25.5t-138 70t-91.5 104.5t-54 129.5t-25.5 144.5t-6.5 149q0 33 0.5 55.5t1.5 41t2 37.5
t2 45t1.5 63t0.5 92q0 67 -2.5 152t-10.5 167.5t-22.5 151t-38.5 102.5q101 -18 189.5 -24t163.5 -6q48 0 87 2t67 4q33 3 57 6q-13 -62 -26 -139t-23 -165t-16.5 -185t-6.5 -197q0 -125 4.5 -203t14.5 -121.5t26 -59.5t39 -16q31 0 52.5 19.5t36 66t21 122.5t7.5 190
q-2 163 -10 304q-3 60 -8.5 121t-13 115t-17.5 97.5t-23 68.5q100 -18 185 -24t153 -6q45 0 80.5 2t60.5 4q29 3 51 6z" />
    <glyph glyph-name="V" unicode="V" horiz-adv-x="1208" 
d="M1221 1450q-62 -180 -110 -360.5t-85.5 -361.5t-66 -362.5t-50.5 -363.5q-52 5 -108 6.5t-115 1.5q-93 0 -185 -5.5t-175 -16.5q-25 183 -59.5 364.5t-80.5 362.5t-105.5 360.5t-133.5 358.5q60 -8 119.5 -12.5t119.5 -4.5q87 0 172 8t170 25q-5 -59 -6.5 -116.5
t-1.5 -114.5q0 -192 23 -374t69 -360q38 155 56 307.5t18 305.5q0 176 -24 352q69 -9 138 -12.5t140 -3.5q69 0 139 3.5t142 12.5z" />
    <glyph glyph-name="W" unicode="W" horiz-adv-x="1497" 
d="M596 1460q-34 -190 -45.5 -357.5t-11.5 -322.5q52 115 102.5 238.5t99.5 257.5q51 -148 102 -275t111 -243v92q0 156 -14.5 307t-48.5 287q4 -3 24 -7.5t52.5 -8t75.5 -6.5t94 -3q78 0 168.5 9t181.5 32q-22 -44 -42 -118.5t-37.5 -169.5t-31.5 -207t-24 -231.5
t-15.5 -241.5t-5.5 -238q0 -74 2.5 -142.5t7.5 -131.5q-100 17 -178 23.5t-137 6.5q-38 0 -67 -2t-49 -4q-23 -3 -40 -6q-12 89 -25 174t-30 162.5t-39 146t-53 125.5q-23 -65 -39.5 -134t-27.5 -146t-16 -163t-5 -183q-100 17 -179.5 23.5t-136.5 6.5q-39 0 -68 -2t-49 -4
q-23 -3 -38 -6q6 111 6 233q0 114 -5 232t-15 233.5t-24.5 225.5t-33 206.5t-42 177t-50.5 138.5q29 -8 68 -13q33 -5 79.5 -8.5t104.5 -3.5q72 0 159.5 9t184.5 32z" />
    <glyph glyph-name="X" unicode="X" horiz-adv-x="1251" 
d="M1278 1460q-54 -62 -104.5 -144t-101 -177.5t-102 -200.5t-106.5 -213q48 -92 95 -186t96.5 -185.5t104 -179t118.5 -168.5q-18 1 -43 3q-21 1 -52 2t-69 1q-75 0 -176.5 -6t-218.5 -26q-7 39 -19.5 92.5t-27 110.5t-29.5 112.5t-27 99.5q-18 -48 -35.5 -104
t-33.5 -111.5t-28 -107.5t-19 -92q-119 20 -215.5 26t-165.5 6q-35 0 -62 -1t-45 -2q-22 -2 -37 -3q63 81 116.5 168t102 177.5t95 183t94.5 184.5q-41 81 -81.5 165t-88 175.5t-105.5 190.5t-133 210q113 -18 204 -24t159 -6q43 0 76 1.5t56 3.5q26 2 46 5q6 -39 18 -90
t27 -105.5t32 -110.5t34 -106q20 51 37.5 106t31.5 109t24.5 104.5t16.5 92.5q20 -3 46 -5q23 -2 55.5 -3.5t74.5 -1.5q70 0 161 6t204 24z" />
    <glyph glyph-name="Y" unicode="Y" horiz-adv-x="1141" 
d="M1118 1419q-13 -32 -23 -73t-17.5 -86t-12.5 -92.5t-8 -91.5q-8 -105 -10 -216q0 -49 1 -100.5t1 -104.5q0 -84 -6 -169t-26 -163t-59 -146t-105.5 -118t-164 -79t-235.5 -29q-105 0 -181.5 25.5t-126 69t-73 101t-23.5 121.5q0 48 20 90t53.5 72.5t77 48t89.5 17.5
q59 0 114 -31t97 -100q-11 2 -21.5 3t-19.5 1q-72 0 -72 -62q0 -29 26.5 -47t71.5 -18q55 0 88.5 29t51.5 73t24 96.5t6 100.5v43q-19 -20 -45 -31.5t-53 -18t-52 -8.5t-42 -2q-60 0 -120.5 16t-110 60t-81.5 122.5t-36 203.5q0 5 -0.5 38.5t-4 83t-11 108.5t-21 116
t-34 105.5t-50.5 76.5q106 -18 189.5 -25.5t146.5 -7.5q49 0 85.5 2.5t60.5 6.5q28 4 48 10q-5 -41 -10.5 -86.5t-10 -92t-7 -93.5t-2.5 -91q0 -50 4 -93.5t13.5 -76t25 -51t38.5 -18.5q28 0 47.5 30.5t31.5 80t17 111.5t5 124q0 72 -5.5 137.5t-13.5 105.5q18 -7 47 -11
q25 -5 65.5 -8t100.5 -3q48 0 109.5 3t138.5 11z" />
    <glyph glyph-name="Z" unicode="Z" horiz-adv-x="1102" 
d="M1079 1460q-16 -59 -51 -139.5t-80.5 -176t-97.5 -201.5t-102 -214.5t-93.5 -216.5t-72.5 -207q63 13 125 30t121.5 41t116.5 58t110 82q-6 -53 -9.5 -104.5t-3.5 -102.5q0 -83 8.5 -165.5t26.5 -163.5q-125 18 -259 27t-271 9q-140 0 -277.5 -9t-267.5 -27
q126 308 264.5 587.5t292.5 534.5q-125 -6 -253.5 -46t-250.5 -108q8 56 12.5 109.5t4.5 105.5q0 73 -8.5 143.5t-28.5 139.5q108 -12 223 -18.5t234 -6.5q151 0 299.5 10.5t287.5 28.5z" />
    <glyph glyph-name="bracketleft" unicode="[" horiz-adv-x="723" 
d="M686 -160q-66 0 -150 0.5t-169 1.5t-163.5 2.5t-133.5 3.5q15 237 20.5 470.5t5.5 469.5q0 220 -4.5 437.5t-21.5 437.5q55 2 133.5 4.5t162 6.5t162 10.5t134.5 15.5l24 -309q-20 1 -46.5 1.5t-57 1t-63.5 1t-64 0.5q-8 -150 -11.5 -297.5t-3.5 -296.5
q0 -175 4.5 -347.5t12.5 -347.5q24 2 55 5.5t62.5 10t61 15.5t50.5 21v-318z" />
    <glyph glyph-name="backslash" unicode="\" horiz-adv-x="969" 
d="M25 1438q24 -2 53.5 -4.5t60.5 -4.5t61 -3t54 -1q18 0 44 0.5t53 2t53 4t45 6.5q17 -104 44.5 -225.5t64 -250.5t81 -261t93.5 -256t102 -236t108 -201h-76q-42 0 -89.5 -1t-94.5 -4t-90.5 -7t-77.5 -10q-77 382 -197 742t-292 710z" />
    <glyph glyph-name="bracketright" unicode="]" horiz-adv-x="723" 
d="M37 158q21 -12 50.5 -21t61 -15.5t62.5 -10t55 -5.5q8 175 12.5 347.5t4.5 347.5q0 149 -3.5 296.5t-11.5 297.5q-32 0 -64.5 -0.5t-63 -1t-57 -1t-46.5 -1.5l24 309q37 -6 85 -11t101.5 -8.5t110 -6t110 -4.5t101 -4t84.5 -3q-17 -220 -21.5 -437.5t-4.5 -437.5
q0 -236 5.5 -469.5t20.5 -470.5q-55 -2 -133.5 -3.5t-163.5 -2.5t-169 -1.5t-150 -0.5v318z" />
    <glyph glyph-name="asciicircum" unicode="^" horiz-adv-x="766" 
d="M766 817q-36 -11 -79.5 -22.5t-88.5 -24t-87 -27t-75 -32.5q2 15 3 30.5t1 30.5t-3 42.5t-8 61t-11.5 71.5t-13.5 76q-16 88 -35 189q-1 0 -6 -31t-12.5 -79t-16 -106.5t-16 -114.5t-12.5 -101.5t-5 -68.5q-32 15 -70.5 29t-78.5 26.5t-79.5 24.5t-72.5 22q16 16 34 51
t36 82.5t35 102t33 109.5q37 128 73 282q16 -2 38.5 -3t46.5 -2.5t47 -2t40 -0.5q13 0 33 0.5t41.5 1.5t41.5 2.5t33 3.5q40 -154 80 -282q17 -55 36.5 -109.5t39.5 -101t40 -81t38 -49.5z" />
    <glyph glyph-name="underscore" unicode="_" horiz-adv-x="1014" 
d="M905 -88q-8 -45 -11 -88t-3 -88q0 -44 3 -87.5t11 -86.5q-38 20 -83.5 32.5t-93 19t-94.5 9t-89 2.5q-109 0 -220 -10.5t-214 -38.5q4 12 7 29.5t4.5 37t2 37t0.5 29.5q0 51 -4 101.5t-10 101.5q40 -17 92 -28.5t107 -18t109 -9.5t99 -3q41 0 93.5 3t106 9.5t103 18
t84.5 28.5z" />
    <glyph glyph-name="grave" unicode="`" horiz-adv-x="530" 
d="M332 1257l-332 357q51 28 100 55q42 23 87 50t77 50q9 -21 25.5 -51t37 -63.5t43.5 -69.5t46 -70q53 -81 114 -169z" />
    <glyph glyph-name="a" unicode="a" 
d="M1077 -14q-19 2 -44 4q-21 2 -50.5 3t-64.5 1q-50 0 -109.5 -4t-122.5 -15l4 281q-38 -149 -111.5 -230t-172.5 -81q-31 0 -70 8t-79.5 30.5t-79 62.5t-68.5 103.5t-48 154t-18 214.5q0 168 34 287.5t87 195.5t117 111t125 35q52 0 94.5 -14.5t75.5 -37t57 -50.5t39 -56
q-3 34 -9 72.5t-14 79.5q65 -13 132 -17t124 -4q68 0 110 3q24 1 44 3q-11 -50 -20 -112t-15.5 -132.5t-10 -148t-3.5 -158.5q0 -151 15 -303t52 -286zM666 559v162q0 27 -3 55t-13.5 51t-30.5 37.5t-54 14.5q-36 0 -59.5 -25t-38 -68.5t-20 -103t-5.5 -129.5q0 -40 5.5 -81
t18.5 -74.5t35 -54.5t54 -21q36 0 58 25t33.5 62t15.5 77.5t4 72.5z" />
    <glyph glyph-name="b" unicode="b" horiz-adv-x="1100" 
d="M29 -14q18 67 31 155.5t21 190t11.5 211.5t3.5 221q0 120 -4 235.5t-10.5 216.5t-15.5 181.5t-19 130.5q18 -3 42 -5q20 -2 48.5 -3.5t65.5 -1.5q55 0 124.5 5t149.5 19q-9 -19 -16.5 -55.5t-13.5 -84.5t-10 -104t-7 -112.5t-5 -111t-3 -99.5q41 89 109.5 139.5
t173.5 50.5q23 0 58.5 -9t75 -33t79 -65.5t71 -106t51 -155t19.5 -212.5q0 -180 -36 -301.5t-91.5 -195t-123 -105t-130.5 -31.5q-46 0 -88 26t-76 67t-59.5 93t-38.5 105q3 -21 8.5 -61.5t11.5 -83t12.5 -77.5t12.5 -45q-63 11 -127.5 15t-120.5 4q-41 0 -74 -1t-58 -3
q-29 -2 -52 -4zM436 563v-59q0 -27 3 -55t13.5 -51t30.5 -37.5t54 -14.5q24 0 41 14.5t28 37.5t18 52.5t10 58.5t4 56t1 45q0 27 -2.5 73t-11.5 90.5t-27.5 77t-50.5 32.5q-24 0 -41.5 -18t-30 -46.5t-20 -64t-12 -71t-6 -67.5t-1.5 -53z" />
    <glyph glyph-name="c" unicode="c" horiz-adv-x="942" 
d="M913 848q0 -42 -14.5 -84t-41.5 -75.5t-66.5 -55t-88.5 -21.5q-44 0 -75 15t-51 39t-29.5 55.5t-9.5 64.5q0 70 34 121q5 -17 14.5 -25.5t17.5 -12.5q10 -4 20 -5q29 0 37 13t10 30q0 17 -13 33t-45 16q-9 0 -25.5 -2.5t-37 -12.5t-41.5 -29.5t-38.5 -54t-28.5 -86
t-11 -124.5q0 -75 22 -121.5t52.5 -72t64.5 -34.5t58 -9q21 0 53 7.5t63.5 27.5t57.5 55.5t35 91.5q27 -40 43 -95.5t16 -115.5q0 -82 -30.5 -160t-86 -138.5t-133.5 -97t-172 -36.5q-70 0 -130 22.5t-108.5 62.5t-86.5 94.5t-63.5 118t-38.5 133.5t-13 140q0 78 17 159
t48.5 156t77.5 141t104 114.5t128 77t149 28.5q71 0 125 -17t94 -45t66 -64.5t42 -75t22.5 -76.5t6.5 -70z" />
    <glyph glyph-name="d" unicode="d" horiz-adv-x="1106" 
d="M1075 -14q-23 2 -52 4q-25 2 -58.5 3t-73.5 1q-57 0 -121 -4t-127 -15q6 12 13 50t13.5 84t12 91t8.5 70q-16 -75 -44.5 -136.5t-66.5 -105t-85 -67.5t-99 -24q-24 0 -59 3t-74.5 20t-79 52.5t-71 100t-51 163.5t-19.5 242q0 120 17.5 214.5t47 166.5t69 122.5t83 82.5
t89 46.5t87.5 14.5q47 0 85 -15.5t69 -40t54 -56t40 -62.5q-2 46 -4 100t-5 109t-7.5 108.5t-10 99.5t-12.5 81t-16 53q80 -14 149 -19t125 -5q36 0 65 1.5t49 3.5q24 2 42 5q-11 -50 -20 -130.5t-15.5 -181.5t-10 -216.5t-3.5 -235.5q0 -111 3.5 -221t11.5 -211.5t21 -190
t31 -155.5zM664 559v162q0 27 -3 55t-13.5 51t-30.5 37.5t-54 14.5q-24 0 -41 -19t-28 -49t-18 -67t-10 -73.5t-4 -68t-1 -49.5q0 -27 2.5 -66.5t11.5 -76t27.5 -62.5t50.5 -26q36 0 58 25t33.5 62t15.5 77.5t4 72.5z" />
    <glyph glyph-name="e" unicode="e" horiz-adv-x="958" 
d="M915 930q0 -75 -21.5 -146t-75.5 -126t-145.5 -88t-232.5 -33q4 -49 20.5 -82t39.5 -53t49 -30t48 -14t37 -4h15q62 7 111 32q21 10 41 25.5t36.5 37t27 49t12.5 63.5q26 -65 36.5 -121.5t10.5 -105.5q0 -90 -32.5 -165.5t-89.5 -130.5t-135.5 -85.5t-170.5 -30.5
q-90 0 -173.5 31t-148 98.5t-103 175.5t-38.5 262q0 167 48 296t129 216.5t187.5 133t223.5 45.5q58 0 111.5 -13t94 -43t64.5 -77.5t24 -116.5zM436 702q28 1 65 11.5t70 29.5t55.5 47t22.5 64q0 23 -16 37t-41 14q-35 0 -62.5 -20t-47 -50t-31.5 -66t-15 -67z" />
    <glyph glyph-name="f" unicode="f" horiz-adv-x="776" 
d="M807 1597q-12 -71 -18.5 -139.5t-6.5 -134.5v-41t2 -41q-24 40 -60 60t-71 20q-24 0 -47 -10t-40 -30t-27.5 -50t-10.5 -70l250 10q-11 -46 -14.5 -93.5t-3.5 -98.5q0 -28 1 -56t3 -57q-63 8 -120 14.5t-120 6.5q-2 -72 -3 -146.5t-1 -148.5q0 -158 8.5 -313t36.5 -302
q-112 23 -233 23q-63 0 -124.5 -6t-121.5 -17q23 99 36 213t19.5 232t9.5 234t5 218q-32 -2 -70 -5.5t-70 -8.5q5 44 8 85.5t3 84.5q0 38 -2 75.5t-9 78.5l152 -8q0 104 26.5 190.5t79.5 149t132.5 97t185.5 34.5q34 0 59.5 -4.5t49.5 -12t49 -16t57 -17.5z" />
    <glyph glyph-name="g" unicode="g" horiz-adv-x="1104" 
d="M1069 1149q-11 -42 -18.5 -102.5t-13.5 -132t-9.5 -148.5t-6.5 -151q-6 -174 -7 -369q0 -102 -12.5 -199.5t-40 -183.5t-71.5 -159t-106.5 -125t-144.5 -81.5t-186 -29.5q-97 0 -168 20t-117.5 56.5t-69 87t-22.5 112.5q0 61 21 110t55 83.5t76.5 52.5t86.5 18
q57 0 107 -32t76 -101q-12 8 -29 8q-23 0 -43 -18.5t-20 -44.5q0 -15 5.5 -25.5t14.5 -16.5t19.5 -8.5t19.5 -2.5q11 0 30.5 3.5t42.5 19.5t46 49t42 91t30.5 147t11.5 216q-20 -89 -50 -140t-64 -76.5t-69.5 -31.5t-66.5 -6q-24 0 -61 8.5t-78.5 30t-84 59t-76.5 95
t-55.5 138t-21.5 189.5q0 168 34.5 284t89 187.5t120.5 103t129 31.5q45 0 82 -14.5t67 -38.5t53 -53.5t41 -59.5q-6 44 -14.5 88t-19.5 89q25 -11 62 -20q32 -8 80 -13.5t116 -5.5q80 0 188 12zM643 647q0 28 -4 67.5t-15 76t-30.5 62.5t-50.5 26q-23 0 -42 -26.5
t-32.5 -64t-21 -77.5t-7.5 -68q0 -48 5 -98t16.5 -90.5t29 -66.5t41.5 -26q26 0 46.5 12.5t35 34t22 49.5t7.5 60v129z" />
    <glyph glyph-name="h" unicode="h" horiz-adv-x="1094" 
d="M1069 -41q-54 8 -120 12t-132 4q-63 0 -121.5 -4t-101.5 -10q21 72 33.5 149t19 160.5t8.5 174.5t2 192q0 15 -1.5 40t-5.5 54t-11.5 58.5t-19.5 53.5t-29.5 39t-40.5 15q-15 0 -29.5 -15.5t-29.5 -41t-29 -59t-27 -70.5q2 -102 7.5 -201.5t15 -191t22.5 -172t31 -142.5
q-17 1 -40 3q-20 1 -47.5 2t-62.5 1q-65 0 -149.5 -5.5t-183.5 -20.5q14 28 25 77.5t19 112t13.5 133t9 141.5t5 137.5t2.5 120t1 90.5v48q-2 167 -9 310q-3 60 -7 121t-10 114t-13.5 93t-17.5 60q81 -14 150 -19t124 -5q36 0 65 1.5t49 3.5q24 2 42 5q-8 -35 -14 -84
t-11 -110t-8.5 -131t-5.5 -146q57 89 123 125.5t137 36.5t130.5 -31.5t103 -97t68 -165.5t24.5 -237q0 -94 0.5 -194.5t4.5 -197t14 -183.5t28 -154z" />
    <glyph glyph-name="i" unicode="i" horiz-adv-x="551" 
d="M518 4q-17 1 -40 3q-20 1 -47 2t-62 1q-65 0 -150 -5.5t-184 -20.5q19 38 32 95.5t21.5 123t13 132.5t6.5 123t2.5 95t0.5 49q-2 130 -9 243q-3 48 -7.5 97t-10.5 92.5t-13.5 78t-17.5 54.5q81 -14 150 -19t125 -5q36 0 64.5 1.5t48.5 3.5q24 2 42 5q-18 -90 -29.5 -217
t-11.5 -272q0 -83 4 -168t13 -169.5t23.5 -166t35.5 -156.5zM59 1434q0 46 17.5 86.5t48 71t71.5 48t87 17.5t86.5 -17.5t71 -48t48 -71t17.5 -86.5t-17.5 -87t-48 -71.5t-71 -48t-86.5 -17.5t-87 17.5t-71.5 48t-48 71.5t-17.5 87z" />
    <glyph glyph-name="j" unicode="j" horiz-adv-x="516" 
d="M37 1434q0 46 17.5 86.5t48 71t71 48t86.5 17.5t86.5 -17.5t71 -48t48 -71t17.5 -86.5t-17.5 -87t-48 -71.5t-71 -48t-86.5 -17.5t-86.5 17.5t-71 48t-48 71.5t-17.5 87zM481 1149q-11 -42 -18.5 -102.5t-13.5 -132t-9.5 -148.5t-6.5 -151q-6 -174 -7 -369
q0 -102 -12.5 -199.5t-40 -183.5t-71 -159t-106 -125t-145 -81.5t-186.5 -29.5q-78 0 -138.5 20t-102 56.5t-63.5 87t-22 112.5q0 48 18 88t47 69t66.5 45.5t75.5 16.5q50 0 94 -30.5t70 -98.5q-6 5 -13.5 6.5t-15.5 1.5q-23 0 -43 -18.5t-20 -44.5q0 -17 7.5 -29t19 -20
t24.5 -11.5t25 -3.5q19 0 41.5 7t44.5 35.5t42 84t35.5 153t25 243.5t9.5 354q0 73 -2.5 148.5t-9 150t-17.5 147t-28 138.5q25 -11 62 -20q32 -8 80.5 -13.5t115.5 -5.5q81 0 188 12z" />
    <glyph glyph-name="k" unicode="k" horiz-adv-x="999" 
d="M999 -29q-113 9 -196 9q-72 0 -121.5 -4.5t-80.5 -9.5q-36 -6 -58 -13q8 51 12 94t4 92q0 88 -7 146.5t-20 98.5t-31 65t-40 45q-2 -36 -3 -71.5t-1 -72.5q0 -75 8 -162.5t33 -203.5q-30 2 -68 5q-32 2 -77 3.5t-99 1.5t-114.5 -2t-125.5 -8q20 31 35.5 82t26.5 114.5
t18.5 135.5t12 145.5t6.5 144.5t2 133q0 83 -3 170t-8 170t-12 158t-14 135.5t-14.5 101.5t-14.5 56q64 -6 133 -6q87 0 172.5 8.5t163.5 23.5q-12 -35 -22 -90.5t-17.5 -123t-13 -143t-9.5 -151t-5.5 -146.5t-1.5 -130q0 -40 1 -72t3 -55q69 88 107 170.5t38 163.5
q0 77 -41 156q38 -4 78 -5.5t78 -1.5q72 0 143 5.5t143 19.5q-28 -42 -46.5 -93.5t-29.5 -99.5q-13 -55 -22 -112q-9 -55 -30 -106q-9 -22 -21.5 -44.5t-30 -44t-39.5 -40t-49 -31.5q58 -23 88.5 -58t45.5 -78.5t21 -95t15 -108.5q9 -47 23 -95q12 -41 30.5 -88.5
t44.5 -87.5z" />
    <glyph glyph-name="l" unicode="l" horiz-adv-x="537" 
d="M510 4q-17 1 -40 3q-20 1 -47.5 2t-62.5 1q-65 0 -149.5 -5.5t-183.5 -20.5q14 28 25 77.5t19 112t13.5 133t9 141.5t5 137.5t2.5 120t1 90.5v48q-2 167 -9 310q-3 60 -7 121t-10 114t-13.5 93t-17.5 60q81 -14 150 -19t124 -5q36 0 65 1.5t49 3.5q24 2 42 5
q-9 -45 -16.5 -114t-13 -155t-8.5 -185t-3 -204q0 -120 4 -242t13 -236t23.5 -213.5t35.5 -174.5z" />
    <glyph glyph-name="m" unicode="m" horiz-adv-x="1575" 
d="M1534 -20q-31 5 -65.5 6.5t-71.5 1.5q-45 0 -90 -2.5t-88 -6.5t-82 -9t-70 -9q13 51 23.5 125.5t17.5 163.5t10.5 187.5t3.5 199.5q0 15 -0.5 40t-2.5 54t-6.5 58.5t-13 53.5t-21 39t-31.5 15q-20 0 -39 -25t-37 -67q3 -56 5 -132.5t3 -159.5t1.5 -164t1.5 -145t2 -103.5
t3 -39.5q-45 7 -82.5 11t-75.5 4q-50 0 -108 -8t-139 -25q13 95 24 196q9 87 17 192t8 206q0 15 -0.5 40t-2.5 54t-6.5 58.5t-13 53.5t-21.5 39t-32 15q-32 0 -52.5 -18.5t-32.5 -49.5t-16.5 -71.5t-4.5 -85.5q0 -85 4 -172t13 -172.5t23 -167.5t35 -156q-17 1 -40 3
q-20 1 -47 2t-62 1q-65 0 -150 -5.5t-184 -20.5q12 56 21 137t15 176t9.5 198.5t3.5 204.5q0 75 -2 147t-5.5 136t-9.5 118t-14 93q81 -14 150 -19.5t125 -5.5q36 0 64.5 1.5t48.5 3.5q24 3 42 6q-6 -26 -10.5 -55.5t-9.5 -63.5q56 72 120 108.5t126 36.5q86 0 140.5 -42.5
t82.5 -135.5q59 90 129.5 134t138.5 44q72 0 128.5 -29.5t94.5 -92.5t58 -161t20 -235q0 -94 0.5 -196t3 -197.5t8 -178t15.5 -136.5z" />
    <glyph glyph-name="n" unicode="n" horiz-adv-x="1112" 
d="M1083 -20q-31 5 -68 6.5t-77 1.5q-48 0 -97.5 -2.5t-96.5 -6.5t-89 -9t-73 -9q43 145 66.5 310t23.5 366q0 15 -0.5 40t-2.5 54t-6.5 58.5t-13 53.5t-21.5 39t-32 15q-28 0 -54.5 -20t-47 -53t-33 -76t-12.5 -89q0 -83 4 -168.5t13 -169.5t23 -164.5t35 -152.5
q-17 1 -40 3q-20 1 -47 2t-62 1q-65 0 -150 -5.5t-184 -20.5q12 56 21 137t15 176t9.5 198.5t3.5 204.5q0 75 -2 147t-5.5 136t-9.5 118t-14 93q81 -14 150 -19.5t125 -5.5q36 0 64.5 1.5t48.5 3.5q24 3 42 6q-6 -31 -11.5 -66t-10.5 -76q33 42 70 73.5t74.5 52.5t74.5 31.5
t70 10.5q72 0 124.5 -29.5t87 -92.5t51.5 -161t17 -235q0 -94 0.5 -191t4.5 -190t14 -176.5t28 -150.5z" />
    <glyph glyph-name="o" unicode="o" horiz-adv-x="1032" 
d="M995 584q0 -58 -9 -127.5t-30 -140t-57 -137t-89.5 -117.5t-127.5 -82t-172 -31t-171.5 29t-126 77.5t-86.5 112t-54 133.5t-27.5 141.5t-7.5 135.5q0 113 30 221.5t91.5 193.5t154 137t217.5 52q84 0 151 -25.5t119 -69.5t88.5 -103t60.5 -125t35 -137t11 -138zM647 551
q0 23 -1.5 57.5t-6.5 72.5t-13.5 76t-22.5 68t-34.5 49t-48.5 19q-27 0 -47 -18t-34.5 -47t-24 -65.5t-15 -73t-8 -70t-2.5 -56.5q0 -33 5 -80t19 -90t38.5 -73.5t64.5 -30.5q38 0 63.5 28t40.5 68.5t21 85.5t6 80z" />
    <glyph glyph-name="p" unicode="p" horiz-adv-x="1108" 
d="M33 1147q23 -2 52 -4q25 -2 58.5 -3t73.5 -1q56 0 120.5 3.5t127.5 14.5q-12 -23 -20.5 -61.5t-14.5 -89.5q41 90 109.5 140t173.5 50q23 0 58.5 -3t75 -20t79 -52.5t71 -100.5t51 -163.5t19.5 -242.5q0 -120 -17.5 -214.5t-47 -166.5t-69 -122.5t-83 -82.5t-89 -46.5
t-87.5 -14.5q-49 0 -90.5 20t-73.5 55.5t-55 85t-35 108.5q1 -46 4 -107t7 -126.5t9 -131.5t11 -122.5t13.5 -98.5t16.5 -60q-80 14 -149 18.5t-125 4.5q-36 0 -65 -1t-49 -3q-24 -2 -42 -4q10 50 19 130.5t15.5 181t10.5 216t4 236.5q0 111 -3.5 221t-11.5 211t-21 189.5
t-31 156.5zM444 655v-161q0 -27 3 -55t13.5 -51t30.5 -37.5t54 -14.5q24 0 41 19t28 49t18 67t10 73.5t4 68t1 49.5q0 27 -2.5 66t-11.5 76t-27.5 63t-50.5 26q-36 0 -58 -25.5t-33.5 -62t-15.5 -78t-4 -72.5z" />
    <glyph glyph-name="q" unicode="q" horiz-adv-x="1106" 
d="M664 684v59q0 27 -3 55t-13.5 51t-30.5 37.5t-54 14.5q-24 0 -41 -14.5t-28 -37.5t-18 -52t-10 -58.5t-4 -56.5t-1 -45t1 -45t4 -57.5t9 -60.5t16 -54.5t25 -39.5t37 -15q24 0 41.5 18t30 46t20 64t12 71t6 67t1.5 53zM702 -225q-17 60 -21.5 127t-4.5 129q0 20 0.5 58.5
t0.5 79.5t0.5 76.5t0.5 49.5q-18 -90 -45 -150.5t-62.5 -97t-79.5 -52t-96 -15.5q-24 0 -59 9t-74.5 33t-79 65.5t-71 106t-51 155t-19.5 212.5q0 120 16.5 213.5t45 163.5t66 119t80 79.5t87 44t86.5 13.5q46 0 84 -13t68.5 -34.5t55 -49t42.5 -55.5q-6 42 -14 74.5
t-19 52.5q63 -11 127 -14.5t121 -3.5q40 0 73.5 1t58.5 3q29 2 52 4q-9 -40 -17 -105t-14.5 -146t-11.5 -174t-8.5 -189t-5.5 -191t-2 -180q0 -96 1.5 -163t5.5 -111t10.5 -69t15.5 -37t21.5 -14.5t29.5 -2.5q24 0 42.5 16.5t18.5 56.5q-1 14 -7 26q-5 11 -17 22t-33 18
q14 9 36 16t48 7q24 0 54.5 -10t58 -34t46.5 -64.5t19 -100.5q0 -61 -28.5 -104.5t-73.5 -71.5t-100 -41t-107 -13q-68 0 -125 20t-102 56.5t-76.5 87t-47.5 111.5z" />
    <glyph glyph-name="r" unicode="r" horiz-adv-x="1010" 
d="M586 907q-31 0 -56 -17.5t-44.5 -49t-34 -75.5t-23.5 -97q0 -85 4 -172t13 -172t23.5 -166t35.5 -154q-16 1 -37 3q-18 1 -43.5 2t-58.5 1q-62 0 -143.5 -5.5t-180.5 -20.5q12 56 21 137t15 176t9.5 198.5t3.5 204.5q0 75 -2 147t-5.5 136t-9.5 118t-14 93
q81 -14 147.5 -19.5t119.5 -5.5q34 0 60 1.5t45 3.5q21 3 38 6q-12 -50 -18 -111q52 63 113.5 93t115.5 30q90 0 152 -32.5t100 -85t55 -119.5t17 -136q0 -67 -19 -131t-55 -114.5t-89 -81.5t-120 -31q-59 0 -100.5 20t-68.5 52t-39.5 70.5t-12.5 76.5q0 40 11.5 78t33.5 69
q7 -22 17.5 -33.5t21.5 -16.5q12 -6 26 -7q37 0 55.5 17t18.5 40q0 11 -4 25t-14.5 26t-29.5 20.5t-50 8.5z" />
    <glyph glyph-name="s" unicode="s" horiz-adv-x="934" 
d="M870 909q0 -40 -16 -72t-43 -54.5t-63 -35t-76 -12.5q-46 0 -78.5 11t-55 28.5t-35.5 39t-20.5 41.5t-9.5 37t-2 26q9 -17 23 -21t22 -4q23 0 33 12t10 25q0 8 -4 18t-14 18.5t-26 14.5t-40 6q-15 0 -32 -6t-30.5 -18.5t-22.5 -31t-9 -42.5q0 -45 23 -76t60.5 -54.5
t85 -43.5t97.5 -41.5t97.5 -48t85 -64.5t60.5 -91t23 -126q0 -93 -38 -168t-101.5 -128.5t-147.5 -82t-177 -28.5q-85 0 -161 23t-133 64t-90.5 97t-33.5 121q0 49 16 85.5t44.5 60.5t67 36t83.5 12q33 0 66 -7t62 -21t52 -34t37 -46q-8 2 -15.5 3t-15.5 1
q-22 0 -34.5 -11.5t-12.5 -37.5q0 -28 23 -47t51 -19q16 0 30 7t24 18.5t15.5 25.5t5.5 29q0 26 -17.5 56t-49.5 50q-63 39 -119 67t-103 53t-84.5 50t-63.5 58.5t-40 79t-14 110.5q0 77 30.5 142.5t87.5 113.5t140 75.5t188 27.5q107 0 180.5 -25t119 -64t65.5 -87t20 -95z
" />
    <glyph glyph-name="t" unicode="t" horiz-adv-x="850" 
d="M842 1214q-8 -45 -11.5 -88t-3.5 -88q0 -43 3.5 -86.5t11.5 -87.5q-48 25 -108.5 37t-123.5 19v-86q0 -113 4 -228.5t13 -224t23.5 -205.5t35.5 -172q-17 1 -40 3q-20 1 -47 2t-62 1q-65 0 -150 -5.5t-184 -20.5q34 195 48.5 405.5t14.5 411.5v119q-68 -5 -134.5 -15.5
t-125.5 -25.5q4 11 7 29t4.5 37t2 37t0.5 30q0 51 -4 101t-10 101q48 -20 114 -32.5t134 -18.5q-6 87 -14 161t-19 134q81 -14 150 -19t125 -5q36 0 64.5 1.5t48.5 3.5q24 2 42 5q-11 -48 -18.5 -119.5t-14.5 -159.5q66 7 124.5 19t99.5 30z" />
    <glyph glyph-name="u" unicode="u" horiz-adv-x="977" 
d="M948 1153q-9 -45 -16.5 -105t-13 -129.5t-8.5 -145t-3 -150.5q0 -25 1 -49.5t1 -47.5q0 -49 -5.5 -111t-22 -126.5t-45.5 -126.5t-76.5 -110t-115.5 -77.5t-161 -29.5q-80 0 -141.5 21t-107 57.5t-76.5 86.5t-50 107.5t-27.5 120.5t-8.5 125q0 15 0.5 18.5t0.5 4.5t1 3.5
t1 15.5t0.5 41t0.5 79q0 60 -2 135.5t-8.5 148t-18.5 131.5t-31 86q81 -14 152.5 -19t130.5 -5q39 0 70.5 1.5t54.5 3.5q26 2 47 5q-20 -98 -38.5 -222.5t-18.5 -285.5q0 -37 3.5 -77t12.5 -73.5t24.5 -55t39.5 -21.5q30 0 47 20t25.5 52.5t10 72.5t1.5 80q-1 130 -8 243
q-3 48 -7.5 97t-10.5 92.5t-14 78t-18 54.5q81 -14 150 -19t123 -5q36 0 64.5 1.5t48.5 3.5q24 2 42 5z" />
    <glyph glyph-name="v" unicode="v" horiz-adv-x="1008" 
d="M1014 1159q-51 -144 -83.5 -288t-55 -289t-38.5 -290t-34 -290q-44 3 -98.5 4.5t-114.5 1.5q-49 0 -99.5 -1t-98.5 -3.5t-90.5 -6t-76.5 -7.5q-19 147 -37 292.5t-44 290t-64 288t-98 286.5q97 -12 196 -12q138 0 275 24q-5 -54 -7 -107t-2 -106q0 -146 16.5 -287.5
t53.5 -277.5q31 130 48.5 259t17.5 259q0 66 -5 130.5t-14 129.5q111 -12 223 -12q113 0 230 12z" />
    <glyph glyph-name="w" unicode="w" horiz-adv-x="1247" 
d="M463 1208q-13 -94 -18 -169t-5 -144q0 -66 4.5 -131t12.5 -139q42 91 82.5 190t81.5 205q40 -118 82 -219t90 -195q5 69 8.5 135t3.5 136q0 63 -4.5 131.5t-18.5 146.5q65 -3 125.5 -7.5t120.5 -4.5q53 0 105.5 5t111.5 19q-81 -284 -116.5 -585t-43.5 -619
q-78 14 -139 19.5t-104 5.5q-30 0 -52.5 -2t-36.5 -4q-17 -3 -28 -5q-10 72 -20.5 143.5t-24 137.5t-31.5 124t-43 103q-18 -51 -31.5 -103.5t-22.5 -110t-13 -123.5t-4 -144q-50 6 -94 8t-83 2q-48 0 -85.5 -2.5t-63.5 -5.5q-31 -4 -53 -8q-3 106 -11.5 222.5t-21.5 233.5
t-28.5 229t-32 210t-32.5 176t-30 127q20 -3 46 -6q23 -2 55 -4t75 -2q57 0 128.5 5t158.5 19z" />
    <glyph glyph-name="x" unicode="x" horiz-adv-x="1042" 
d="M1059 1167q-46 -68 -85.5 -135.5t-75 -139.5t-68 -149t-64.5 -163q34 -86 66.5 -157t67 -138t73 -135t86.5 -146q-16 1 -37 3q-18 1 -43 2t-57 1q-62 0 -142.5 -5.5t-173.5 -20.5q-5 31 -15 74t-22 88.5t-24 89.5t-21 79q-15 -38 -29.5 -82.5t-27.5 -89t-23.5 -86
t-15.5 -73.5q-93 15 -172 20.5t-139 5.5q-32 0 -56.5 -1t-41.5 -2q-20 -2 -35 -3q104 154 178 293.5t131 277.5q-33 65 -65 130.5t-68 137t-79 151.5t-97 173q91 -15 168 -19.5t137 -4.5q36 0 64 1t48 3q23 2 41 4q5 -31 14 -71t21 -83.5t25.5 -88.5t27.5 -85
q17 41 31.5 84.5t26 86.5t20 83t13.5 74q16 -2 37 -4q18 -2 44 -3t60 -1q56 0 130 4.5t167 19.5z" />
    <glyph glyph-name="y" unicode="y" horiz-adv-x="1073" 
d="M1036 1149q-11 -42 -18.5 -101t-13.5 -127t-9.5 -142t-6.5 -144q-6 -165 -7 -348q0 -102 -12.5 -201t-40 -187.5t-71 -164t-106 -130t-145 -85.5t-186.5 -31q-97 0 -168 20t-117.5 56.5t-69 87.5t-22.5 112t21 110.5t55 83.5t77 52.5t87 18.5q56 0 106 -32t76 -101
q-6 5 -13.5 6.5t-15.5 1.5q-11 0 -22.5 -5t-20.5 -14t-14.5 -20.5t-5.5 -24.5q0 -15 6 -25.5t14.5 -16.5t19 -8.5t19.5 -2.5q14 0 35 6t43.5 25t45 53t40 90.5t28 137.5t9.5 194q-26 -70 -54.5 -113.5t-60 -67.5t-66 -32t-73.5 -8q-49 0 -102.5 17.5t-98 62t-73.5 121.5
t-29 196q0 16 0.5 22.5t0.5 10t1 8.5t1 19.5t0.5 41.5t0.5 76q0 57 -2 129t-8.5 141t-18.5 125.5t-31 83.5q81 -14 152.5 -19t130.5 -5q39 0 70.5 1.5t54.5 3.5q26 2 47 5q-8 -17 -17.5 -65t-18.5 -115t-15 -146.5t-6 -160.5q0 -61 9 -104t24.5 -70.5t36 -40.5t44.5 -13
q38 0 60.5 31t38.5 78q-2 62 -7 145t-13.5 173t-22 181.5t-33.5 170.5q31 -11 74 -20q37 -8 90 -13.5t125 -5.5q85 0 192 12z" />
    <glyph glyph-name="z" unicode="z" horiz-adv-x="909" 
d="M870 1167q-20 -71 -59 -154t-86.5 -180.5t-99.5 -208.5t-97 -237q40 0 82.5 10.5t86 33t87 58t84.5 86.5q-4 -31 -7.5 -71t-6.5 -84.5t-4.5 -92t-1.5 -94.5q0 -72 4.5 -137.5t15.5 -111.5q-102 15 -209 22.5t-219 7.5q-114 0 -225.5 -8t-216.5 -22q51 123 106.5 243.5
t109 234.5t102.5 219t87 198q-51 -3 -95.5 -12t-87 -24t-86.5 -36.5t-93 -48.5q33 120 33 241q0 42 -3 81.5t-10 76.5q88 -11 176.5 -15.5t178.5 -4.5q114 0 228 7.5t226 22.5z" />
    <glyph glyph-name="braceleft" unicode="{" horiz-adv-x="811" 
d="M850 1602q-105 -35 -187 -87q-35 -23 -68.5 -51t-59.5 -62.5t-42 -75.5t-16 -89q0 -32 6.5 -64t15 -64.5t15 -66t6.5 -69.5q0 -41 -11.5 -74.5t-37.5 -64t-68.5 -60t-103.5 -63.5q61 -28 102 -57t66 -62.5t35 -72t10 -85.5q0 -28 -5.5 -60.5t-12 -69.5t-12 -77.5
t-5.5 -83.5q0 -53 14.5 -97t38.5 -79.5t55 -64t63 -49.5q75 -50 171 -78q-16 0 -54 1.5t-89.5 8t-112 19t-121 34.5t-117 55.5t-100.5 81t-70 110.5t-26 146q0 42 13 81.5t29 77t29 73t13 67.5q0 27 -11.5 52t-40.5 47.5t-77.5 43t-122.5 38.5q72 18 119.5 36.5t75.5 38.5
t39.5 41.5t11.5 44.5q0 28 -12.5 59.5t-27.5 66t-27.5 72t-12.5 79.5q0 94 41 164.5t106.5 121t146.5 83.5t161.5 52.5t151.5 26t116 5.5z" />
    <glyph glyph-name="bar" unicode="|" horiz-adv-x="575" 
d="M528 -139q-17 1 -40 3q-20 1 -47 2t-62 1q-65 0 -150 -5.5t-184 -21.5q15 28 26 83.5t19 127t13.5 154.5t9 166.5t5 162.5t2.5 143.5t1 108.5v58q-2 209 -9 382q-3 74 -7 147.5t-10 136.5t-14 109.5t-18 66.5q81 -14 150 -19.5t125 -5.5q36 0 65 1.5t49 3.5q24 2 42 5
q-9 -45 -17 -124.5t-13 -183.5t-8 -226t-3 -252q0 -149 4 -299.5t13 -287t23 -250t35 -187.5z" />
    <glyph glyph-name="braceright" unicode="}" horiz-adv-x="823" 
d="M-37 1602q45 1 116 -5.5t151.5 -26t161.5 -52.5t146.5 -83.5t106.5 -121t41 -164.5q0 -42 -13 -79.5t-28 -72t-28 -66t-13 -59.5q0 -23 11.5 -44.5t40 -41.5t76.5 -38.5t120 -36.5q-74 -18 -122.5 -38.5t-77.5 -43t-40.5 -47.5t-11.5 -52q0 -32 13 -67.5t28 -73t28 -77
t13 -81.5q0 -86 -30.5 -152.5t-82.5 -117t-121 -85.5t-145.5 -57t-156 -32.5t-152.5 -11.5q95 28 171 78q32 21 62.5 49.5t54.5 64t39 79.5t15 97q0 43 -5.5 83.5t-12 77.5t-12 69.5t-5.5 60.5q0 47 10 85.5t35 72t65.5 62.5t102.5 57q-62 34 -105 63.5t-69 60t-37.5 64
t-11.5 74.5q0 33 6.5 65t15 64.5t15 66t6.5 68.5q0 48 -16 89t-42 75.5t-59.5 62.5t-68.5 51q-82 52 -185 87z" />
    <glyph glyph-name="asciitilde" unicode="~" horiz-adv-x="1006" 
d="M1006 735q-36 -41 -68.5 -76.5t-68.5 -61t-79 -40t-98 -14.5q-46 0 -82 16t-64.5 35.5t-52 36t-44.5 16.5q-42 0 -69 -15.5t-44 -41t-27 -59t-18 -68.5q-18 39 -52 76t-75 69t-85 58t-81 43q43 44 82 82.5t80 67t87.5 45t104.5 16.5q42 0 76 -16.5t64.5 -36t58.5 -36
t57 -16.5q30 0 54.5 14.5t42.5 37t30 50.5t17 54q21 -27 51.5 -61.5t64.5 -68t70 -62.5t68 -44z" />
    <glyph glyph-name="nonbreakingspace" unicode="&#xa0;" horiz-adv-x="305" 
 />
    <glyph glyph-name="exclamdown" unicode="&#xa1;" horiz-adv-x="590" 
d="M-2 -461q38 96 66.5 205.5t47.5 225.5t28.5 235.5t9.5 236.5q0 39 -1.5 76t-3.5 74q48 -11 96.5 -17t96.5 -6q56 0 117 11q-3 -39 -3.5 -77.5t-0.5 -76.5q0 -128 10.5 -256t28 -242.5t41.5 -209t51 -154.5q-38 5 -88.5 6.5t-110.5 1.5q-51 0 -105.5 -2t-105.5 -6t-96 -10
t-78 -15zM522 856q0 -44 -16.5 -82.5t-45 -67t-67 -45t-82.5 -16.5t-82 16.5t-67 45t-45.5 67t-16.5 82.5t16.5 82.5t45.5 67t67 45t82 16.5t82.5 -16.5t67 -45t45 -67t16.5 -82.5z" />
    <glyph glyph-name="cent" unicode="&#xa2;" horiz-adv-x="776" 
d="M510 1622q-8 -53 -14 -107t-10.5 -105.5t-7.5 -99t-5 -87.5q79 -4 130 -34t81 -72t41.5 -88t11.5 -83q0 -32 -10.5 -65.5t-31.5 -61t-52.5 -45.5t-73.5 -18q-35 0 -60.5 12t-42 31.5t-24.5 45t-8 52.5q0 26 7.5 51t21.5 43q5 -13 11.5 -19.5t13.5 -9.5q8 -4 16 -4
q25 0 31 10.5t8 22.5q0 14 -11.5 27.5t-35.5 13.5q-10 0 -34 -6t-49 -30.5t-44 -74t-19 -137.5q0 -60 17 -97t41.5 -57.5t51.5 -28t46 -7.5q16 0 41.5 5.5t51.5 21.5t47.5 44.5t29.5 73.5q23 -32 35 -76t12 -92q0 -2 -1 -23t-8 -54t-22.5 -72t-43.5 -76t-71 -67.5
t-106 -45.5q2 -41 5.5 -90.5t8.5 -103.5t12 -111t17 -112q-23 3 -47 3.5t-49 0.5q-29 0 -66 -1t-69 -3q7 56 13 112.5t10.5 110.5t7.5 102.5t5 89.5q-68 15 -121 58t-89 104.5t-55 135.5t-19 151t19 155.5t55.5 148.5t89 125t120.5 85q-2 42 -5 92.5t-7.5 106t-11.5 114
t-16 115.5q23 -3 47 -3.5t49 -0.5q29 0 66 1t69 3z" />
    <glyph glyph-name="sterling" unicode="&#xa3;" horiz-adv-x="993" 
d="M735 813q-9 -31 -12.5 -59.5t-3.5 -57.5t3.5 -56t12.5 -56q-43 15 -97 23.5t-108 13.5q6 -50 22.5 -79.5t37.5 -45t45 -20.5t45 -5q28 0 57.5 9.5t57.5 27t53 42t45 54.5l47 -366q-30 4 -71 7.5t-84.5 5.5t-87 3t-79.5 1.5t-60 0.5h-30q-55 0 -117 -4q-54 -3 -124 -9.5
t-146 -17.5q26 78 46.5 178.5t25.5 212.5q-46 -3 -90.5 -8.5t-87.5 -13.5q4 7 6.5 18t4 23.5t1.5 25v21.5q0 32 -2 64.5t-10 66.5q35 -11 80.5 -18.5t93.5 -12.5q0 121 28 204t79.5 133.5t124 72.5t161.5 22q93 0 153 -22.5t95.5 -55.5t49 -70.5t13.5 -66.5q0 -25 -12 -51
t-35 -47.5t-56.5 -35t-76.5 -13.5q-37 0 -63 8.5t-43 23t-25 34t-8 40.5q0 22 8 42.5t25 37.5q2 -11 8.5 -17t14.5 -8q8 -4 18 -3q23 0 30 8t9 20q0 11 -12 21t-38 10q-11 0 -34 -6.5t-46 -33.5t-40 -82.5t-17 -153.5v-17q59 5 116 14t99 23z" />
    <glyph glyph-name="currency" unicode="&#xa4;" horiz-adv-x="881" 
d="M530 711q0 13 -3 28t-12 28.5t-25.5 22.5t-43.5 9t-43.5 -9t-26 -22.5t-13 -28.5t-3.5 -28q0 -14 3 -29.5t12 -28.5t26 -21.5t45 -8.5q25 0 41.5 9t26 22t13 28.5t3.5 28.5zM799 872q-28 -9 -61.5 -30t-67.5 -47q8 -23 11 -46.5t3 -43.5q0 -40 -12 -82q34 -26 67.5 -48.5
t59.5 -31.5q-115 -78 -193 -193q-9 26 -30 59.5t-46 65.5q-39 -12 -90 -12q-26 0 -48 2t-42 8q-25 -31 -46.5 -61.5t-35.5 -53.5q-9 20 -32.5 46.5t-51.5 52.5t-56 49t-46 37q26 11 59.5 33.5t65.5 48.5q-5 20 -6.5 40.5t-1.5 39.5q0 20 2 42.5t10 45.5q-32 24 -63.5 47
t-57.5 39q20 9 46 32.5t52.5 51.5t49 56t36.5 46q11 -26 35 -61t51 -70q17 5 37 7.5t43 2.5t43 -2.5t37 -7.5q28 35 51.5 70t34.5 61q38 -56 87 -105t106 -88z" />
    <glyph glyph-name="yen" unicode="&#xa5;" horiz-adv-x="1182" 
d="M1030 774q-9 -29 -12.5 -57.5t-3.5 -57.5q0 -27 3.5 -56.5t12.5 -57.5q-54 17 -120 25.5t-132 11.5q10 -90 27.5 -178t46.5 -166q-18 1 -41 3q-20 1 -48.5 2t-64.5 1q-71 0 -164 -5t-202 -18q18 28 31 70t22 91t14.5 100.5t8.5 97.5q-65 -4 -128.5 -10t-123.5 -17
q4 8 7.5 20.5t5 25t2.5 24t1 18.5q0 34 -5 66.5t-11 66.5q43 -11 97.5 -18.5t113.5 -12.5q-35 55 -75 116t-83.5 123.5t-90.5 124.5t-95 118q99 -14 178.5 -18.5t138.5 -4.5q37 0 65.5 1t48.5 3q23 2 40 4q6 -27 16.5 -72t24 -95t28 -99.5t29.5 -83.5q17 35 32 83.5t27 98.5
t21.5 95t15.5 73q17 -2 40 -4q20 -2 47.5 -3t64.5 -1q60 0 140 4.5t179 18.5q-38 -35 -82 -89t-89.5 -119.5t-92 -136.5t-90.5 -139q63 5 122.5 13t102.5 20z" />
    <glyph glyph-name="brokenbar" unicode="&#xa6;" horiz-adv-x="588" 
d="M502 1651q-23 -187 -33 -373t-10 -375h-342q-6 189 -11.5 375t-23.5 373q18 -2 43 -2.5t52 -1t53 -0.5h44q23 0 52.5 0.5t60.5 1t61 1t54 1.5zM526 -127q-23 0 -46 1t-48 1q-31 0 -81 -1t-104 -2.5t-104.5 -3.5t-81.5 -5q12 67 21.5 146t16.5 160t11.5 160t7.5 148
t4 123.5t1 85.5h342q8 -205 24 -408t37 -405z" />
    <glyph glyph-name="section" unicode="&#xa7;" horiz-adv-x="1198" 
d="M1092 1325q0 -50 -19 -90.5t-52 -69.5t-77.5 -45t-95.5 -16q-58 0 -98.5 14t-68 35.5t-43.5 48t-24.5 51.5t-11 46t-2.5 32q12 -20 28 -25.5t27 -5.5q28 0 40 15.5t12 32.5q0 10 -5 22.5t-16.5 22.5t-31 17t-48.5 7q-20 0 -41 -7.5t-38.5 -23t-28.5 -38.5t-11 -54
q0 -30 12.5 -59t34 -55t51 -47t64.5 -35q55 -23 113.5 -45t113.5 -48.5t104 -60t85.5 -79.5t58 -107.5t21.5 -143.5q0 -51 -10 -98t-27 -90q17 -37 27 -81.5t10 -98.5q0 -118 -47.5 -214t-127 -164.5t-184.5 -106t-219 -37.5q-103 0 -195.5 30.5t-163 83.5t-112 124.5
t-41.5 154.5q0 61 20 107t55.5 76t83 45t101.5 15q42 0 82.5 -9t76.5 -26.5t64.5 -42.5t45.5 -57q-23 6 -37 6q-28 0 -44 -15.5t-16 -47.5q0 -17 8 -31.5t20.5 -25.5t29.5 -17t35 -6q20 0 37 8.5t30 22t20 30.5t7 35q0 35 -22 71.5t-62 63.5q-78 48 -147 83.5t-127 66.5
t-104.5 63t-79 74t-49.5 99t-17 137q0 97 36 180q-18 37 -27 82.5t-9 105.5q0 96 37 180t107.5 146.5t172 98.5t231.5 36q132 0 223 -31.5t147.5 -81.5t82 -111.5t25.5 -121.5zM739 590q-11 31 -30.5 74t-46.5 81.5t-60 65.5t-70 27q-29 0 -49 -17.5t-20 -42.5q0 -19 13 -37
t33 -35t45.5 -32t50 -27t46.5 -21.5t35 -15.5q14 -5 26.5 -10t26.5 -10z" />
    <glyph glyph-name="dieresis" unicode="&#xa8;" horiz-adv-x="729" 
d="M0 1493q0 34 13 63.5t35.5 52t52 35.5t63.5 13t63.5 -13t52 -35.5t35.5 -52t13 -63.5t-13 -63.5t-35.5 -52t-52 -35.5t-63.5 -13t-63.5 13t-52 35.5t-35.5 52t-13 63.5zM401 1493q0 34 13 63.5t35.5 52t52 35.5t63.5 13t63.5 -13t52 -35.5t35.5 -52t13 -63.5t-13 -63.5
t-35.5 -52t-52 -35.5t-63.5 -13t-63.5 13t-52 35.5t-35.5 52t-13 63.5z" />
    <glyph glyph-name="copyright" unicode="&#xa9;" horiz-adv-x="942" 
d="M649 852q0 -18 -6.5 -37t-18.5 -34.5t-29.5 -25.5t-39.5 -10q-19 0 -33 7t-23 18.5t-13.5 25.5t-4.5 29q0 31 17 54q4 -13 13 -17q4 -2 9 -2q23 0 23 19q0 8 -6.5 15t-22.5 7q-5 0 -18.5 -3.5t-27 -17t-24 -41.5t-10.5 -77q0 -34 10 -55t23.5 -32.5t28.5 -15.5t26 -4
q9 0 23.5 3.5t28.5 12.5t25 25t15 41q13 -18 20 -43t7 -51q0 -36 -13.5 -70t-37.5 -61t-58.5 -43t-76.5 -16q-47 0 -83.5 22t-62 57.5t-38.5 81t-13 93.5q0 53 17 106t47.5 95.5t73.5 69t96 26.5q47 0 77.5 -15.5t48 -39t24.5 -50t7 -47.5zM195 727q0 -66 21.5 -124
t59 -101.5t88 -68.5t107.5 -25q58 0 108.5 25t88 68.5t59 101.5t21.5 124t-21.5 124t-59 100.5t-88 67.5t-108.5 25q-57 0 -107.5 -25t-88 -67.5t-59 -100.5t-21.5 -124zM59 725q0 85 32.5 160t88.5 131t131 88.5t160 32.5t160 -32.5t131 -88.5t88.5 -131t32.5 -160
q0 -86 -32.5 -161.5t-88.5 -132t-131 -89.5t-160 -33t-160 33t-131 89.5t-88.5 132t-32.5 161.5z" />
    <glyph glyph-name="ordfeminine" unicode="&#xaa;" horiz-adv-x="717" 
d="M666 750q-12 1 -27 2q-13 1 -30 1.5t-38 0.5q-31 0 -67 -2t-74 -9l2 105q-23 -60 -67 -91.5t-101 -31.5q-28 0 -65.5 11.5t-71.5 48t-58 104.5t-24 180q0 100 20 171.5t51.5 117.5t69.5 67t74 21q32 0 58 -8.5t46 -22t34.5 -30.5t23.5 -33q-2 20 -4.5 43.5t-7.5 46.5
q38 -8 77.5 -10t73.5 -2q20 0 37.5 0.5t30.5 1.5q15 1 26 2q-12 -60 -21 -147.5t-9 -184.5q0 -90 9.5 -181t31.5 -171zM418 1094v102q0 15 -2 31t-8.5 28.5t-18.5 20.5t-31 8q-21 0 -33.5 -24t-18.5 -56t-7.5 -64.5t-1.5 -49.5q0 -16 1.5 -40t7 -46t16.5 -38t30 -16
q22 0 35 15t20 37.5t9 47t2 44.5z" />
    <glyph glyph-name="guillemotleft" unicode="&#xab;" horiz-adv-x="1280" 
d="M561 154q-51 41 -114.5 82.5t-132.5 75.5t-140.5 56.5t-138.5 26.5q8 57 13 116.5t5 119.5q0 51 -6 104q59 25 117.5 57t115 67t112 72.5t108.5 74.5l118 -336q-41 0 -89 -8t-97 -21t-95.5 -29t-84.5 -32q37 -15 84 -31.5t96 -29.5t97 -21.5t89 -8.5zM1176 154
q-51 41 -114.5 82.5t-133 75.5t-141 56.5t-138.5 26.5q8 57 13.5 116.5t5.5 119.5q0 51 -6 104q59 25 117 57t115 67t112 72.5t108 74.5l119 -336q-42 0 -90 -8t-96.5 -21t-95 -29t-85.5 -32q38 -15 84.5 -31.5t96 -29.5t97.5 -21.5t89 -8.5z" />
    <glyph glyph-name="logicalnot" unicode="&#xac;" horiz-adv-x="1229" 
d="M715 213q6 22 11.5 57t10 76t8 85t7 85.5t6 76.5t4.5 58h-53q-68 0 -159 -5t-184 -12t-176 -14.5t-135 -13.5q0 23 1 47t1 47q0 63 -3 135t-9 134q51 -7 118 -13.5t135.5 -12t130.5 -8.5t103 -3q25 0 74 1t110.5 3t129 4.5t129 5.5t111.5 7t75 8q-8 -29 -14.5 -71.5
t-11 -94.5t-7 -110.5t-2.5 -119.5q0 -97 6.5 -189t20.5 -163h-438z" />
    <glyph glyph-name="uni00AD" unicode="&#xad;" horiz-adv-x="928" 
d="M860 854q-8 -45 -11 -88t-3 -88q0 -43 3 -87t11 -87q-38 20 -83.5 32.5t-93 19t-94.5 9t-89 2.5q-109 0 -220 -10.5t-214 -38.5q4 12 7 30t4.5 37t2 37t0.5 29q0 51 -4 101.5t-10 101.5q40 -17 92 -28.5t107 -18t109 -9.5t99 -3q41 0 93.5 3t106 9.5t103 18t84.5 28.5z
" />
    <glyph glyph-name="registered" unicode="&#xae;" horiz-adv-x="573" 
d="M39 1219q0 51 19.5 96t53 78.5t78 53t95.5 19.5t96 -19.5t78.5 -53t53 -78.5t19.5 -96q0 -52 -19.5 -97t-53 -78.5t-78.5 -53t-96 -19.5t-95.5 19.5t-78 53t-53 78.5t-19.5 97zM393 1133q0 -8 1 -17q1 -8 2.5 -16.5t4.5 -16.5q23 26 36.5 61.5t13.5 76.5q0 40 -13 74.5
t-35.5 60t-53 40.5t-64.5 15q-53 0 -95 -33q10 -2 17.5 -1t13.5 1q19 0 32.5 1t33.5 1t40 -3.5t36 -12.5t26 -25.5t10 -42.5q0 -20 -10.5 -39t-36.5 -34q15 -6 23 -15.5t12 -20.5t4.5 -25t1.5 -29zM119 1221q0 -42 13 -77t36 -61q7 17 11.5 41t6.5 46q3 26 4 51v27.5t-1 38
t-4 41.5t-9 36q-26 -26 -41.5 -63t-15.5 -80zM221 1069q-9 0 -18 -1t-19 -1q45 -39 101 -39q55 0 98 37h-12q-20 0 -34 -1t-22 -2q-10 -2 -16 -3q2 12 3 22.5t1 24.5q0 46 -7 64.5t-20 27.5v-37q0 -20 2.5 -43t8.5 -55q-2 2 -21.5 4t-44.5 2zM276 1249q10 8 21.5 21t11.5 28
q0 8 -3.5 11.5t-8.5 3.5q-7 0 -11 -6.5t-6.5 -14.5t-3 -17t-0.5 -13v-13z" />
    <glyph glyph-name="macron" unicode="&#xaf;" horiz-adv-x="588" 
d="M588 1561q-6 -32 -9.5 -64.5t-3.5 -64.5t3.5 -64t9.5 -63q-24 11 -58.5 18t-72 10.5t-73 4.5t-62.5 1q-38 0 -79 -0.5t-83 -3t-82.5 -7.5t-77.5 -15q4 9 6 22.5t3 27.5t1 27.5v22.5q0 37 -2.5 73.5t-7.5 74.5q72 -17 149.5 -21t151.5 -4q69 0 144 3t143 22z" />
    <glyph glyph-name="degree" unicode="&#xb0;" horiz-adv-x="553" 
d="M520 1206q0 -35 -10 -76.5t-37 -78.5t-74.5 -61.5t-122.5 -24.5q-79 0 -126.5 24t-73 60t-33.5 78t-8 79q0 35 9 77t35 78t73 60.5t124 24.5q78 0 125.5 -24.5t74 -60.5t35.5 -78t9 -77zM367 1212q0 13 -3 28.5t-12 28.5t-25.5 22t-43.5 9t-44 -9t-26 -22t-12.5 -28.5
t-3.5 -28.5q0 -14 2.5 -29t11.5 -28.5t26 -22t46 -8.5q25 0 41.5 9t26 22.5t13 28.5t3.5 28z" />
    <glyph glyph-name="plusminus" unicode="&#xb1;" horiz-adv-x="924" 
d="M637 1077q-29 -60 -42.5 -134t-16.5 -146q37 3 76.5 7.5t77 11.5t70.5 16.5t58 21.5q-8 -45 -11 -88t-3 -88q0 -43 3 -87t11 -87q-29 15 -63 26t-70 18t-73.5 11t-73.5 6q5 -72 15.5 -144t29.5 -140q-12 4 -30 7t-38 4.5t-38 2t-30 0.5q-51 0 -100 -4t-100 -10
q11 27 20 60.5t15.5 70t11.5 74.5t8 75q-71 -5 -141.5 -14.5t-136.5 -28.5q4 12 7 30t4.5 37t2 37t0.5 29q0 51 -4 101.5t-10 101.5q55 -23 129.5 -36t148.5 -19q-2 37 -6.5 75t-11 74.5t-16 69.5t-21.5 59q43 -9 87 -12.5t87 -3.5q45 0 88 3.5t86 12.5zM858 199
q-8 -45 -11 -88t-3 -88q0 -44 3 -87.5t11 -87.5q-38 20 -83.5 32.5t-93 19.5t-94.5 9.5t-89 2.5q-109 0 -220 -10.5t-215 -38.5q5 12 8 29.5t4.5 37t2 37t0.5 29.5q0 51 -4 101.5t-11 101.5q41 -17 93 -28.5t107 -18.5t109 -10t99 -3q41 0 93.5 3t106 10t103 18.5t84.5 28.5
z" />
    <glyph glyph-name="twosuperior" unicode="&#xb2;" horiz-adv-x="705" 
d="M53 725q0 69 15 119.5t39.5 87t55.5 63t64 47t64 39t55.5 40t39.5 49t15 65.5q0 9 -3 20t-10 20t-18.5 15t-29.5 6q-31 0 -45 -18t-14 -35q0 -15 12.5 -27t28.5 -12h9.5t10.5 2q-19 -32 -60 -49.5t-87 -17.5q-30 0 -56.5 7.5t-46 23t-30.5 38.5t-11 54q0 41 17.5 80
t52.5 69.5t87.5 49t123.5 18.5q81 0 141 -21t99.5 -58t59 -88t19.5 -110q0 -55 -20 -91t-52 -60.5t-72 -41.5t-80.5 -35t-77 -40t-60.5 -57q111 8 197 38t145 78q-5 -26 -6.5 -52t-1.5 -52q0 -42 4.5 -83t15.5 -81q-69 9 -143 13.5t-150 4.5q-75 0 -150.5 -4.5t-146.5 -13.5
z" />
    <glyph glyph-name="threesuperior" unicode="&#xb3;" horiz-adv-x="696" 
d="M512 1083q25 -7 49.5 -17.5t43.5 -29t30.5 -45.5t11.5 -67q0 -48 -19.5 -89.5t-59 -72t-99.5 -47.5t-141 -17q-71 0 -123.5 18.5t-87.5 49t-52.5 69.5t-17.5 80q0 31 11 53.5t30.5 37.5t45.5 22.5t56 7.5q47 0 88 -17.5t60 -49.5q-6 2 -11 3t-10 1q-15 0 -28 -12t-13 -29
t14.5 -34t45.5 -17q18 0 29.5 6t18.5 15t10 19.5t3 18.5q0 37 -16 61t-38.5 39.5t-47.5 25t-43 17.5q34 9 61 19.5t46 27t28.5 40.5t9.5 61q0 9 -3 19.5t-10 20t-18.5 15.5t-29.5 6q-31 0 -45.5 -18t-14.5 -35q0 -15 13 -27t28 -12h10t11 2q-19 -32 -60 -49.5t-88 -17.5
q-30 0 -56 7.5t-45.5 23t-30.5 38.5t-11 53q0 42 17.5 81t52.5 69.5t87.5 49t123.5 18.5q81 0 141 -20t99.5 -52.5t59 -74.5t19.5 -87q0 -32 -12 -59t-31.5 -47.5t-43.5 -33.5t-48 -18z" />
    <glyph glyph-name="acute" unicode="&#xb4;" horiz-adv-x="530" 
d="M199 1257l-199 89q61 88 114 169q22 34 45.5 70t44 69.5t37.5 63.5t27 51q31 -23 75.5 -50t86.5 -50q48 -27 100 -55z" />
    <glyph glyph-name="mu" unicode="&#xb5;" horiz-adv-x="1026" 
d="M545 -528q-18 1 -41 3q-20 1 -47 2t-62 1q-65 0 -149.5 -5.5t-184.5 -21.5q19 38 32 96t21.5 123.5t13 132.5t6.5 123t2.5 95t0.5 49q-11 80 -13.5 155t-2.5 150q0 43 1 85t1 87q0 64 -2 130.5t-8.5 137.5t-19 148.5t-32.5 162.5q81 -14 152.5 -19t130.5 -5
q39 0 70.5 1.5t54.5 3.5q26 2 47 5q-20 -98 -38.5 -222.5t-18.5 -285.5q0 -37 3.5 -77t12.5 -73.5t24.5 -55t39.5 -21.5q31 0 48 20t25 52.5t9.5 72.5t1.5 80q-2 130 -8 243q-3 48 -7.5 97t-10.5 92.5t-14 78t-18 54.5q81 -14 150 -19t123 -5q36 0 64.5 1.5t48.5 3.5
q24 2 42 5q-9 -45 -16.5 -105t-13 -129.5t-8.5 -145t-3 -150.5q0 -25 1 -49.5t1 -47.5q0 -49 -5.5 -111t-22 -126.5t-45.5 -126.5t-76.5 -110t-115.5 -77.5t-161 -29.5q-12 0 -24 1t-23 1q5 -124 19 -245t45 -230z" />
    <glyph glyph-name="paragraph" unicode="&#xb6;" horiz-adv-x="1624" 
d="M1567 -78q-18 1 -41 3q-20 1 -47 2t-62 1q-65 0 -150 -5.5t-184 -20.5q18 36 30.5 104.5t21 153t13.5 176t7.5 173t3 144.5t0.5 90q0 -1 0 13t-0.5 47.5t-2 90t-5.5 140.5q-1 13 -3 31.5t-9.5 36t-21 29.5t-36.5 12q-21 0 -34 -11.5t-20 -28.5t-9.5 -35.5t-3.5 -33.5
q-5 -78 -6.5 -160t-1.5 -165q0 -113 3.5 -221.5t10 -204t15.5 -172.5t20 -127q-18 2 -42 4q-20 2 -49 3t-65 1q-56 0 -125 -4.5t-149 -18.5q13 27 22 79.5t16 118.5t11 139.5t6 142.5q-17 -32 -40 -63t-54 -56t-69 -40.5t-85 -15.5q-42 0 -87.5 14.5t-89 46.5t-83 83
t-69 123t-47 166.5t-17.5 214.5q0 137 25 232t65.5 157t90.5 97t99 51.5t93 20t71 3.5q50 0 101 -2.5t111.5 -7t136 -9t175.5 -9t229 -7t296 -2.5q-9 -45 -17 -114t-13 -155t-8 -185t-3 -204q0 -120 4 -242t13 -236t23.5 -213.5t35.5 -174.5zM662 963q0 31 -4 72t-15.5 78
t-33.5 62t-58 25q-32 0 -50.5 -26t-27.5 -63t-11.5 -76t-2.5 -66q0 -19 1 -50t4 -67.5t10 -73.5t18 -67t28 -49t41 -19q34 0 54 14.5t30.5 37.5t13.5 51t3 55v162z" />
    <glyph glyph-name="periodcentered" unicode="&#xb7;" horiz-adv-x="496" 
d="M37 754q0 43 16.5 81.5t45 67.5t67 45.5t82.5 16.5t82.5 -16.5t67 -45.5t45 -67.5t16.5 -81.5q0 -44 -16.5 -82.5t-45 -67t-67 -45t-82.5 -16.5t-82.5 16.5t-67 45t-45 67t-16.5 82.5z" />
    <glyph glyph-name="cedilla" unicode="&#xb8;" horiz-adv-x="332" 
d="M332 -258q0 -69 -32 -107t-81 -56t-107.5 -21.5t-111.5 -3.5q5 21 7.5 43t2.5 47q0 18 -2 38t-8 37q6 -6 19.5 -11t28.5 -8t29.5 -5t22.5 -2q28 0 50 12.5t22 44.5q0 16 -8 27.5t-21 18.5t-28 10.5t-29 3.5q-17 0 -35 -2.5t-35 -8.5l105 287h96l-49 -180q37 0 67 -12
t51.5 -34t33.5 -52t12 -66z" />
    <glyph glyph-name="onesuperior" unicode="&#xb9;" horiz-adv-x="487" 
d="M442 715q-12 1 -26 2q-13 1 -30 1.5t-40 0.5q-45 0 -103.5 -3.5t-127.5 -13.5q12 23 20.5 57.5t14.5 74t9 80t4.5 75t2 60t0.5 34.5v12t-0.5 28.5t-1.5 40.5t-2 48q-30 6 -60.5 10.5t-54.5 7.5q-29 4 -55 5q38 33 62.5 63t39 56.5t21.5 48.5t12 39q56 -9 102.5 -12
t83.5 -3q50 0 77 3q16 2 28 4q-13 -57 -20 -136t-7 -170q0 -103 12 -211t39 -202z" />
    <glyph glyph-name="ordmasculine" unicode="&#xba;" horiz-adv-x="653" 
d="M614 1087q0 -35 -5.5 -76.5t-18 -84t-34 -82t-53.5 -70t-76.5 -49t-102.5 -18.5q-60 0 -104 17t-75.5 46.5t-52 67.5t-32.5 79.5t-16.5 84.5t-4.5 81q0 68 18 133t55 116t93 82.5t131 31.5t128 -33.5t86.5 -85.5t48.5 -115.5t15 -124.5zM406 1067q0 21 -2.5 56
t-10.5 68.5t-23 58t-40 24.5t-40.5 -23.5t-24.5 -55.5t-12 -65.5t-3 -54.5q0 -20 3 -48t11 -54t23 -44t39 -18q23 0 38.5 16.5t24.5 40.5t13 51t4 48z" />
    <glyph glyph-name="guillemotright" unicode="&#xbb;" horiz-adv-x="1280" 
d="M1245 395q-68 -4 -139.5 -26.5t-140.5 -56.5t-132 -75.5t-114 -82.5l-57 335q40 0 87.5 8.5t97 21.5t96.5 29.5t85 31.5q-38 16 -84.5 32t-95.5 29t-97 21t-89 8l118 336q52 -37 107 -74.5t112 -72.5t115.5 -67t118.5 -57q-6 -53 -6 -106q0 -59 5 -118t13 -116zM631 395
q-68 -4 -139.5 -26.5t-140.5 -56.5t-132.5 -75.5t-114.5 -82.5l-57 335q40 0 88 8.5t97 21.5t96 29.5t86 31.5q-39 16 -85.5 32t-95 29t-96.5 21t-90 8l119 336q52 -37 107 -74.5t111.5 -72.5t115 -67t118.5 -57q-6 -53 -6 -106q0 -59 5.5 -118t13.5 -116z" />
    <glyph glyph-name="onequarter" unicode="&#xbc;" horiz-adv-x="1323" 
d="M479 715q-11 1 -26 2q-13 1 -30.5 1.5t-39.5 0.5q-45 0 -103.5 -3.5t-127.5 -13.5q12 23 20.5 57.5t14.5 74t9 80t4.5 75t2 60t0.5 34.5v12t-0.5 28.5t-1.5 40.5t-2 48q-30 6 -60.5 10.5t-54.5 7.5q-29 4 -55 5q38 33 62.5 63t39 56.5t21.5 48.5t12 39q56 -9 102.5 -12
t83.5 -3q50 0 77 3q16 2 28 4q-13 -57 -20 -136t-7 -170q0 -103 11.5 -211t39.5 -202zM1118 1444q-46 -76 -103.5 -180t-121 -225.5t-131 -256t-132.5 -270.5t-124.5 -268.5t-108.5 -251.5q-17 4 -45 6t-59 3.5t-61 2t-52 0.5h-37q52 81 118 196.5t137 248.5t142.5 275
t134.5 275t112.5 248.5t76.5 196.5q9 -2 22.5 -3.5t27 -2t27 -0.5h22.5q11 0 32 0.5t44.5 1t45 1.5t33.5 3zM1274 375q-5 -23 -6.5 -45t-1.5 -43q0 -22 1.5 -44.5t6.5 -43.5q-13 6 -27 10.5t-28 7.5q6 -57 15.5 -111t25.5 -104q-11 1 -25 2q-13 1 -31 1.5t-41 0.5
q-45 0 -103.5 -3.5t-127.5 -12.5q10 18 17.5 45.5t13.5 59t10 66t6 66.5q-12 0 -49.5 0.5t-90 -1t-114.5 -7t-123 -16.5q31 48 64.5 104.5t63 120.5t52 137t31.5 154q106 -9 212 -7.5t212 9.5q-14 -57 -21.5 -135.5t-7.5 -169.5v-60q19 3 35.5 8t30.5 11zM983 342v34.5
t-0.5 48.5t-2 58t-3.5 64q-25 -44 -45 -92t-39 -111q26 -2 49.5 -2h40.5z" />
    <glyph glyph-name="onehalf" unicode="&#xbd;" horiz-adv-x="1382" 
d="M479 715q-11 1 -26 2q-13 1 -30.5 1.5t-39.5 0.5q-45 0 -103.5 -3.5t-127.5 -13.5q12 23 20.5 57.5t14.5 74t9 80t4.5 75t2 60t0.5 34.5v12t-0.5 28.5t-1.5 40.5t-2 48q-30 6 -60.5 10.5t-54.5 7.5q-29 4 -55 5q38 33 62.5 63t39 56.5t21.5 48.5t12 39q56 -9 102.5 -12
t83.5 -3q50 0 77 3q16 2 28 4q-13 -57 -20 -136t-7 -170q0 -103 11.5 -211t39.5 -202zM737 -10q0 92 26 151.5t64.5 99t83.5 65.5t83.5 52t64.5 58.5t26 83.5q0 9 -3 19.5t-10 20t-18.5 15.5t-29.5 6q-15 0 -26.5 -5t-18.5 -13t-10.5 -17.5t-3.5 -17.5q0 -16 12.5 -27.5
t28.5 -11.5h9.5t10.5 2q-19 -32 -60 -50t-87 -18q-30 0 -56.5 7.5t-46 23t-30.5 38.5t-11 54q0 42 17.5 81t52.5 69t87.5 48.5t123.5 18.5q81 0 141 -21t99.5 -58t59 -87.5t19.5 -109.5q0 -55 -20 -91t-52 -60.5t-72 -42t-80.5 -35t-77 -40t-60.5 -57.5q111 8 197 38.5
t145 78.5q-5 -26 -6.5 -52t-1.5 -52q0 -42 4.5 -83t15.5 -81q-69 9 -143 13.5t-150 4.5q-75 0 -150.5 -4.5t-146.5 -13.5zM1118 1444q-46 -76 -103.5 -180t-121 -225.5t-131 -256t-132.5 -270.5t-124.5 -268.5t-108.5 -251.5q-17 4 -45 6t-59 3.5t-61 2t-52 0.5h-37
q52 81 118 196.5t137 248.5t142.5 275t134.5 275t112.5 248.5t76.5 196.5q9 -2 22.5 -3.5t27 -2t27 -0.5h22.5q11 0 32 0.5t44.5 1t45 1.5t33.5 3z" />
    <glyph glyph-name="threequarters" unicode="&#xbe;" horiz-adv-x="1401" 
d="M1208 1444q-46 -76 -103.5 -180t-121 -225.5t-131 -256t-132.5 -270.5t-124.5 -268.5t-108.5 -251.5q-17 4 -45 6t-59 3.5t-61 2t-52 0.5h-37q52 81 118 196.5t137 248.5t142.5 275t134.5 275t112.5 248.5t76.5 196.5q9 -2 22.5 -3.5t27 -2t27 -0.5h22.5q11 0 32 0.5
t44.5 1t45 1.5t33.5 3zM1364 375q-5 -23 -6.5 -45t-1.5 -43q0 -22 1.5 -44.5t6.5 -43.5q-12 6 -26.5 10.5t-28.5 7.5q6 -57 15.5 -111t25.5 -104q-11 1 -25 2q-13 1 -31 1.5t-41 0.5q-45 0 -103.5 -3.5t-127.5 -12.5q10 18 18 45.5t13.5 59t9.5 66t6 66.5q-12 0 -49.5 0.5
t-90 -1t-114.5 -7t-123 -16.5q31 48 65 104.5t63 120.5t51.5 137t31.5 154q106 -9 212 -7.5t212 9.5q-14 -57 -21.5 -135.5t-7.5 -169.5v-60q19 3 35.5 8t30.5 11zM1073 342v34.5t-0.5 48.5t-2 58t-3.5 64q-25 -44 -45 -92t-39 -111q26 -2 49.5 -2h40.5zM502 1083
q25 -7 49.5 -17.5t43.5 -29t30.5 -45.5t11.5 -67q0 -48 -19.5 -89.5t-59 -72t-99.5 -47.5t-142 -17q-71 0 -123.5 18.5t-87 49t-52 69.5t-17.5 80q0 31 11 53.5t30.5 37.5t45.5 22.5t56 7.5q47 0 88 -17.5t60 -49.5q-7 2 -11.5 3t-9.5 1q-15 0 -28 -12t-13 -29t14.5 -34
t45.5 -17q18 0 29.5 6t18.5 15t10 19.5t3 18.5q0 37 -16 61t-38.5 39.5t-47.5 25t-43 17.5q34 9 61 19.5t46 27t28.5 40.5t9.5 61q0 9 -3 19.5t-10 20t-18.5 15.5t-29.5 6q-31 0 -45.5 -18t-14.5 -35q0 -15 13 -27t28 -12h9.5t11.5 2q-19 -32 -60 -49.5t-88 -17.5
q-30 0 -56 7.5t-45.5 23t-30.5 38.5t-11 53q0 42 17.5 81t52 69.5t87 49t123.5 18.5q82 0 142 -20t99.5 -52.5t59 -74.5t19.5 -87q0 -32 -12 -59t-31.5 -47.5t-43.5 -33.5t-48 -18z" />
    <glyph glyph-name="questiondown" unicode="&#xbf;" horiz-adv-x="1108" 
d="M37 78q5 77 33 131t66.5 95.5t82 74t82 66t65 72.5t31.5 93q48 -11 96.5 -16.5t96.5 -5.5q29 0 58.5 2.5t58.5 7.5q0 -69 -15 -117t-38 -85t-49.5 -69t-49.5 -69t-38 -84.5t-15 -116.5q0 -71 22 -114.5t51.5 -66.5t60 -30.5t48.5 -7.5q38 0 58 19.5t20 38.5
q0 23 -14.5 41t-49.5 18q-15 -1 -27 -7q-11 -5 -21.5 -16.5t-16.5 -31.5q-22 29 -33.5 68t-11.5 81t12 81.5t38 70t66.5 49t96.5 18.5q68 0 120 -30t86.5 -76t52 -101t17.5 -104q0 -68 -25.5 -141.5t-82 -135t-146 -101.5t-217.5 -40q-71 0 -140.5 12t-133 36.5t-118 63.5
t-94.5 93.5t-62.5 124.5t-22.5 158v25t2 26zM774 874q0 -44 -16.5 -82t-45 -66.5t-67 -45t-82.5 -16.5t-82.5 16.5t-67 45t-45 66.5t-16.5 82t16.5 82.5t45 67t67 45t82.5 16.5t82.5 -16.5t67 -45t45 -67t16.5 -82.5z" />
    <glyph glyph-name="Agrave" unicode="&#xc0;" horiz-adv-x="1171" 
d="M1217 -12q-62 8 -119.5 11t-116.5 3q-159 0 -326 -31q6 24 13.5 42.5t13.5 41t10 52.5t4 77q0 48 -7 91.5t-21 77t-34.5 53.5t-47.5 20q-30 0 -50.5 -18t-33 -49t-18 -71t-5.5 -85t5.5 -77.5t13 -56.5t14.5 -42.5t10 -36.5q-69 8 -135.5 12t-132.5 4t-132.5 -4
t-137.5 -12q62 180 108.5 357t79.5 356t53.5 362t30.5 375q74 -10 162.5 -14.5t181.5 -4.5q79 0 153.5 4t137.5 17q7 -191 36 -376t72.5 -366.5t99.5 -359t118 -352.5zM657 764q-2 19 -12 56q-9 32 -27 84.5t-53 135.5q-8 -52 -18 -92.5t-19 -73t-15.5 -59.5t-6.5 -51
q0 -50 23.5 -77.5t52.5 -27.5q31 0 52 30t23 75zM498 1495l-332 357q51 28 100 55q42 23 87 50t77 50q9 -21 25.5 -51t37 -63.5t43.5 -69.5t46 -70q53 -81 114 -169z" />
    <glyph glyph-name="Aacute" unicode="&#xc1;" horiz-adv-x="1171" 
d="M1217 -12q-62 8 -119.5 11t-116.5 3q-159 0 -326 -31q6 24 13.5 42.5t13.5 41t10 52.5t4 77q0 48 -7 91.5t-21 77t-34.5 53.5t-47.5 20q-30 0 -50.5 -18t-33 -49t-18 -71t-5.5 -85t5.5 -77.5t13 -56.5t14.5 -42.5t10 -36.5q-69 8 -135.5 12t-132.5 4t-132.5 -4
t-137.5 -12q62 180 108.5 357t79.5 356t53.5 362t30.5 375q74 -10 162.5 -14.5t181.5 -4.5q79 0 153.5 4t137.5 17q7 -191 36 -376t72.5 -366.5t99.5 -359t118 -352.5zM657 764q-2 19 -12 56q-9 32 -27 84.5t-53 135.5q-8 -52 -18 -92.5t-19 -73t-15.5 -59.5t-6.5 -51
q0 -50 23.5 -77.5t52.5 -27.5q31 0 52 30t23 75zM668 1486l-199 89q61 88 114 169q22 34 45.5 70t44 69.5t37.5 63.5t27 51q31 -23 75.5 -50t86.5 -50q48 -27 100 -55z" />
    <glyph glyph-name="Acircumflex" unicode="&#xc2;" horiz-adv-x="1171" 
d="M1217 -12q-62 8 -119.5 11t-116.5 3q-159 0 -326 -31q6 24 13.5 42.5t13.5 41t10 52.5t4 77q0 48 -7 91.5t-21 77t-34.5 53.5t-47.5 20q-30 0 -50.5 -18t-33 -49t-18 -71t-5.5 -85t5.5 -77.5t13 -56.5t14.5 -42.5t10 -36.5q-69 8 -135.5 12t-132.5 4t-132.5 -4
t-137.5 -12q62 180 108.5 357t79.5 356t53.5 362t30.5 375q74 -10 162.5 -14.5t181.5 -4.5q79 0 153.5 4t137.5 17q7 -191 36 -376t72.5 -366.5t99.5 -359t118 -352.5zM657 764q-2 19 -12 56q-9 32 -27 84.5t-53 135.5q-8 -52 -18 -92.5t-19 -73t-15.5 -59.5t-6.5 -51
q0 -50 23.5 -77.5t52.5 -27.5q31 0 52 30t23 75zM942 1596q-72 -22 -147.5 -47t-141.5 -60q2 16 3 31t1 30q0 62 -20 122t-51 114q-20 -30 -33 -67.5t-20.5 -77.5t-11 -79t-3.5 -73q-63 29 -128.5 55.5t-131.5 46.5q33 31 64 72.5t58.5 87t50 92t38.5 88.5q32 -3 64.5 -5.5
t66.5 -2.5q26 0 54.5 1.5t54.5 6.5q15 -45 39.5 -92t55.5 -91t66 -83t72 -69z" />
    <glyph glyph-name="Atilde" unicode="&#xc3;" horiz-adv-x="1171" 
d="M1217 -12q-62 8 -119.5 11t-116.5 3q-159 0 -326 -31q6 24 13.5 42.5t13.5 41t10 52.5t4 77q0 48 -7 91.5t-21 77t-34.5 53.5t-47.5 20q-30 0 -50.5 -18t-33 -49t-18 -71t-5.5 -85t5.5 -77.5t13 -56.5t14.5 -42.5t10 -36.5q-69 8 -135.5 12t-132.5 4t-132.5 -4
t-137.5 -12q62 180 108.5 357t79.5 356t53.5 362t30.5 375q74 -10 162.5 -14.5t181.5 -4.5q79 0 153.5 4t137.5 17q7 -191 36 -376t72.5 -366.5t99.5 -359t118 -352.5zM657 764q-2 19 -12 56q-9 32 -27 84.5t-53 135.5q-8 -52 -18 -92.5t-19 -73t-15.5 -59.5t-6.5 -51
q0 -50 23.5 -77.5t52.5 -27.5q31 0 52 30t23 75zM949 1672q-27 -33 -51.5 -60t-51.5 -46t-59 -29.5t-74 -10.5q-35 0 -59 12.5t-46 27.5t-45.5 27.5t-56.5 12.5q-32 0 -56.5 -11.5t-42 -31t-29 -44t-17.5 -50.5q-29 59 -70 108t-98 74q37 40 66.5 70t59.5 49.5t63 29t77 9.5
q31 0 56.5 -12t48.5 -26t44 -26t44 -12q22 0 40.5 11t32 28t22 37.5t11.5 40.5q16 -21 39 -47t48.5 -51.5t52.5 -47t51 -32.5z" />
    <glyph glyph-name="Adieresis" unicode="&#xc4;" horiz-adv-x="1171" 
d="M1217 -12q-62 8 -119.5 11t-116.5 3q-159 0 -326 -31q6 24 13.5 42.5t13.5 41t10 52.5t4 77q0 48 -7 91.5t-21 77t-34.5 53.5t-47.5 20q-30 0 -50.5 -18t-33 -49t-18 -71t-5.5 -85t5.5 -77.5t13 -56.5t14.5 -42.5t10 -36.5q-69 8 -135.5 12t-132.5 4t-132.5 -4
t-137.5 -12q62 180 108.5 357t79.5 356t53.5 362t30.5 375q74 -10 162.5 -14.5t181.5 -4.5q79 0 153.5 4t137.5 17q7 -191 36 -376t72.5 -366.5t99.5 -359t118 -352.5zM657 764q-2 19 -12 56q-9 32 -27 84.5t-53 135.5q-8 -52 -18 -92.5t-19 -73t-15.5 -59.5t-6.5 -51
q0 -50 23.5 -77.5t52.5 -27.5q31 0 52 30t23 75zM236 1675q0 34 13 63.5t35.5 52t52 35.5t63.5 13t63.5 -13t52 -35.5t35.5 -52t13 -63.5t-13 -63.5t-35.5 -52t-52 -35.5t-63.5 -13t-63.5 13t-52 35.5t-35.5 52t-13 63.5zM637 1675q0 34 13 63.5t35.5 52t52 35.5t63.5 13
t63.5 -13t52 -35.5t35.5 -52t13 -63.5t-13 -63.5t-35.5 -52t-52 -35.5t-63.5 -13t-63.5 13t-52 35.5t-35.5 52t-13 63.5z" />
    <glyph glyph-name="Aring" unicode="&#xc5;" horiz-adv-x="1171" 
d="M817 1534q0 -23 -3.5 -50.5t-14.5 -53.5q49 3 92 12q7 -191 36 -376t72.5 -366.5t99.5 -359t118 -352.5q-62 8 -119.5 11t-116.5 3q-159 0 -326 -31q6 24 13.5 42.5t13.5 41t10 52.5t4 77q0 48 -7 91.5t-21 77t-34.5 53.5t-47.5 20q-30 0 -50.5 -18t-33 -49t-18 -71
t-5.5 -85t5.5 -77.5t13 -56.5t14.5 -42.5t10 -36.5q-69 8 -135.5 12t-132.5 4t-132.5 -4t-137.5 -12q62 180 108.5 357t79.5 356t53.5 362t30.5 375q20 -3 42.5 -5.5t47.5 -4.5q-9 26 -11.5 52.5t-2.5 51.5q0 35 9 77t35 78t73 60.5t124 24.5q78 0 125.5 -24.5t74 -60.5
t35.5 -78t9 -77zM657 764q-2 19 -12 56q-9 32 -27 84.5t-53 135.5q-8 -52 -18 -92.5t-19 -73t-15.5 -59.5t-6.5 -51q0 -50 23.5 -77.5t52.5 -27.5q31 0 52 30t23 75zM664 1540q0 13 -3 28.5t-12 28.5t-25.5 22t-43.5 9t-44 -9t-26 -22t-12.5 -28.5t-3.5 -28.5
q0 -14 2.5 -29.5t11.5 -28.5t26 -21.5t46 -8.5q25 0 41.5 9t26 22t13 28.5t3.5 28.5z" />
    <glyph glyph-name="AE" unicode="&#xc6;" horiz-adv-x="1610" 
d="M659 659q17 0 34 10.5t30.5 27t22 38t8.5 43.5q0 11 -1.5 31t-6 51.5t-13.5 75.5t-24 104q-19 -60 -38.5 -104t-35 -79.5t-25.5 -64.5t-10 -57q0 -37 17.5 -56.5t41.5 -19.5zM1573 -14q-23 3 -68 6t-106 5t-133.5 3.5t-149.5 1.5q-71 0 -141.5 -1.5t-136.5 -5.5
t-123.5 -9.5t-102.5 -14.5q16 13 32 46t28.5 76.5t20 92t7.5 93.5q0 30 -4 57t-13 47t-24 31.5t-36 11.5q-35 0 -63.5 -27.5t-48.5 -71.5t-31 -99t-11 -109q0 -23 2 -41.5t5 -33.5t5 -28t2 -26q-68 8 -134 12t-132 4t-132.5 -4t-137.5 -12q93 180 170 357t141 356t116 362
t95 375q111 -6 215.5 -10.5t206.5 -4.5q159 0 317 9.5t332 29.5v-469q-58 54 -111 83t-94 43q-48 16 -90 18q-50 0 -81 -12.5t-48.5 -32t-24 -44t-6.5 -49.5q0 -26 7.5 -52t24 -47t41.5 -34.5t61 -13.5q27 0 49.5 12.5t40 27.5t28 29t13.5 17v-405q-16 38 -37.5 60t-42 32.5
t-37.5 13t-23 2.5q-33 0 -57 -12.5t-39.5 -32.5t-23 -46.5t-7.5 -53.5q0 -31 8.5 -60.5t24.5 -53t39.5 -38t54.5 -14.5q41 0 86.5 18t88.5 48t78.5 68.5t56.5 78.5z" />
    <glyph glyph-name="Ccedilla" unicode="&#xc7;" horiz-adv-x="1157" 
d="M750 -258q0 -69 -32 -107t-81 -56t-107.5 -21.5t-111.5 -3.5q5 21 7.5 43t2.5 47q0 18 -2 38t-8 37q6 -6 19.5 -11t28.5 -8t29.5 -5t22.5 -2q28 0 50 12.5t22 44.5q0 16 -8 27.5t-21 18.5t-28 10.5t-29 3.5q-17 0 -35 -2.5t-35 -8.5l58 158q-109 21 -193.5 87.5t-142 162
t-87.5 212.5t-30 238q0 97 21 196.5t60.5 191t96 171.5t128.5 139.5t158 93.5t183 34q88 0 155 -20.5t115.5 -55t81.5 -78.5t52.5 -91t27.5 -93.5t8 -85.5q0 -49 -17 -101.5t-50 -95.5t-81.5 -70.5t-111.5 -27.5q-54 0 -92.5 18.5t-63 49.5t-36.5 70t-12 81t10.5 81.5
t32.5 70.5q6 -21 16 -32.5t21 -16.5q12 -6 26 -7q32 0 45.5 17t13.5 39q0 10 -4 20.5t-12.5 19.5t-22.5 15t-34 6q-11 0 -31.5 -3t-45.5 -15.5t-51 -37.5t-47.5 -68t-35 -107t-13.5 -156q0 -63 12.5 -109.5t32.5 -79.5t46 -54t53 -33t52.5 -16.5t45.5 -4.5q26 0 65.5 9.5
t78.5 34.5t70.5 69t43.5 114q35 -49 53.5 -117t18.5 -143q0 -106 -34.5 -198t-100 -162.5t-159 -114.5t-210.5 -53l-12 -45q37 0 67 -12t51.5 -34t33.5 -52t12 -66z" />
    <glyph glyph-name="Egrave" unicode="&#xc8;" horiz-adv-x="1030" 
d="M993 -14q-52 10 -106.5 15.5t-115 8.5t-129 3.5t-148.5 0.5q-38 0 -90.5 -1t-113 -5t-124.5 -11.5t-125 -19.5q22 45 38 113.5t26.5 145.5t16.5 157t9 149t3.5 119.5t0.5 69.5q0 4 -0.5 31t-1.5 70t-3 98.5t-5.5 115.5t-9 121t-13 115.5t-17 98t-22.5 69.5
q98 -14 193 -20.5t184 -6.5q109 0 204 6t166 14q83 9 151 21v-469q-58 54 -111 83t-94 43q-48 16 -90 18q-50 0 -81.5 -12.5t-49 -32t-23.5 -44t-6 -49.5q0 -26 7.5 -52t23.5 -47t41.5 -34.5t60.5 -13.5q29 0 53 13.5t41 30.5q20 19 37 44v-407q-16 38 -37.5 60t-42 32.5
t-37 13t-22.5 2.5q-65 0 -97 -40t-32 -103q0 -46 10.5 -78t28 -52t41 -29t49.5 -9q40 0 86 18t88.5 48t78 68.5t56.5 78.5zM434 1490l-332 357q51 28 100 55q42 23 87 50t77 50q9 -21 25.5 -51t37 -63.5t43.5 -69.5t46 -70q53 -81 114 -169z" />
    <glyph glyph-name="Eacute" unicode="&#xc9;" horiz-adv-x="1030" 
d="M993 -14q-52 10 -106.5 15.5t-115 8.5t-129 3.5t-148.5 0.5q-38 0 -90.5 -1t-113 -5t-124.5 -11.5t-125 -19.5q22 45 38 113.5t26.5 145.5t16.5 157t9 149t3.5 119.5t0.5 69.5q0 4 -0.5 31t-1.5 70t-3 98.5t-5.5 115.5t-9 121t-13 115.5t-17 98t-22.5 69.5
q98 -14 193 -20.5t184 -6.5q109 0 204 6t166 14q83 9 151 21v-469q-58 54 -111 83t-94 43q-48 16 -90 18q-50 0 -81.5 -12.5t-49 -32t-23.5 -44t-6 -49.5q0 -26 7.5 -52t23.5 -47t41.5 -34.5t60.5 -13.5q29 0 53 13.5t41 30.5q20 19 37 44v-407q-16 38 -37.5 60t-42 32.5
t-37 13t-22.5 2.5q-65 0 -97 -40t-32 -103q0 -46 10.5 -78t28 -52t41 -29t49.5 -9q40 0 86 18t88.5 48t78 68.5t56.5 78.5zM621 1486l-199 89q61 88 114 169q22 34 45.5 70t44 69.5t37.5 63.5t27 51q31 -23 75.5 -50t86.5 -50q48 -27 100 -55z" />
    <glyph glyph-name="Ecircumflex" unicode="&#xca;" horiz-adv-x="1030" 
d="M993 -14q-52 10 -106.5 15.5t-115 8.5t-129 3.5t-148.5 0.5q-38 0 -90.5 -1t-113 -5t-124.5 -11.5t-125 -19.5q22 45 38 113.5t26.5 145.5t16.5 157t9 149t3.5 119.5t0.5 69.5q0 4 -0.5 31t-1.5 70t-3 98.5t-5.5 115.5t-9 121t-13 115.5t-17 98t-22.5 69.5
q98 -14 193 -20.5t184 -6.5q109 0 204 6t166 14q83 9 151 21v-469q-58 54 -111 83t-94 43q-48 16 -90 18q-50 0 -81.5 -12.5t-49 -32t-23.5 -44t-6 -49.5q0 -26 7.5 -52t23.5 -47t41.5 -34.5t60.5 -13.5q29 0 53 13.5t41 30.5q20 19 37 44v-407q-16 38 -37.5 60t-42 32.5
t-37 13t-22.5 2.5q-65 0 -97 -40t-32 -103q0 -46 10.5 -78t28 -52t41 -29t49.5 -9q40 0 86 18t88.5 48t78 68.5t56.5 78.5zM858 1592q-72 -22 -147.5 -47t-141.5 -60q2 16 3 31t1 30q0 62 -20 122t-51 114q-20 -30 -33 -67.5t-20.5 -77.5t-11 -79t-3.5 -73
q-63 29 -128.5 55.5t-131.5 46.5q33 31 64 72.5t58.5 87t50 92t38.5 88.5q32 -3 64.5 -5.5t66.5 -2.5q26 0 54.5 1.5t54.5 6.5q15 -45 39.5 -92t55.5 -91t66 -83t72 -69z" />
    <glyph glyph-name="Edieresis" unicode="&#xcb;" horiz-adv-x="1030" 
d="M993 -14q-52 10 -106.5 15.5t-115 8.5t-129 3.5t-148.5 0.5q-38 0 -90.5 -1t-113 -5t-124.5 -11.5t-125 -19.5q22 45 38 113.5t26.5 145.5t16.5 157t9 149t3.5 119.5t0.5 69.5q0 4 -0.5 31t-1.5 70t-3 98.5t-5.5 115.5t-9 121t-13 115.5t-17 98t-22.5 69.5
q98 -14 193 -20.5t184 -6.5q109 0 204 6t166 14q83 9 151 21v-469q-58 54 -111 83t-94 43q-48 16 -90 18q-50 0 -81.5 -12.5t-49 -32t-23.5 -44t-6 -49.5q0 -26 7.5 -52t23.5 -47t41.5 -34.5t60.5 -13.5q29 0 53 13.5t41 30.5q20 19 37 44v-407q-16 38 -37.5 60t-42 32.5
t-37 13t-22.5 2.5q-65 0 -97 -40t-32 -103q0 -46 10.5 -78t28 -52t41 -29t49.5 -9q40 0 86 18t88.5 48t78 68.5t56.5 78.5zM152 1681q0 34 13 63.5t35.5 52t52 35.5t63.5 13t63.5 -13t52 -35.5t35.5 -52t13 -63.5t-13 -63.5t-35.5 -52t-52 -35.5t-63.5 -13t-63.5 13
t-52 35.5t-35.5 52t-13 63.5zM553 1681q0 34 13 63.5t35.5 52t52 35.5t63.5 13t63.5 -13t52 -35.5t35.5 -52t13 -63.5t-13 -63.5t-35.5 -52t-52 -35.5t-63.5 -13t-63.5 13t-52 35.5t-35.5 52t-13 63.5z" />
    <glyph glyph-name="Igrave" unicode="&#xcc;" horiz-adv-x="672" 
d="M633 6q-21 2 -47 4q-23 2 -55 3t-74 1q-81 0 -188 -7t-232 -27q22 45 38 114t26.5 147.5t16.5 159.5t9 151t3.5 121t0.5 70q0 4 -0.5 31t-1.5 70t-3 98.5t-5.5 115.5t-9 121t-13 115t-17 97.5t-22.5 68.5q101 -18 185.5 -24t152.5 -6q45 0 81 2t61 4q29 3 51 6
q-12 -56 -21 -124.5t-16 -146t-10.5 -162.5t-3.5 -175q0 -104 5 -211.5t16.5 -213.5t29 -208t43.5 -195zM229 1519l-332 357q51 28 100 55q42 23 87 50t77 50q9 -21 25.5 -51t37 -63.5t43.5 -69.5t46 -70q53 -81 114 -169z" />
    <glyph glyph-name="Iacute" unicode="&#xcd;" horiz-adv-x="672" 
d="M633 6q-21 2 -47 4q-23 2 -55 3t-74 1q-81 0 -188 -7t-232 -27q22 45 38 114t26.5 147.5t16.5 159.5t9 151t3.5 121t0.5 70q0 4 -0.5 31t-1.5 70t-3 98.5t-5.5 115.5t-9 121t-13 115t-17 97.5t-22.5 68.5q101 -18 185.5 -24t152.5 -6q45 0 81 2t61 4q29 3 51 6
q-12 -56 -21 -124.5t-16 -146t-10.5 -162.5t-3.5 -175q0 -104 5 -211.5t16.5 -213.5t29 -208t43.5 -195zM441 1495l-199 89q61 88 114 169q22 34 45.5 70t44 69.5t37.5 63.5t27 51q31 -23 75.5 -50t86.5 -50q48 -27 100 -55z" />
    <glyph glyph-name="Icircumflex" unicode="&#xce;" horiz-adv-x="672" 
d="M633 6q-21 2 -47 4q-23 2 -55 3t-74 1q-81 0 -188 -7t-232 -27q22 45 38 114t26.5 147.5t16.5 159.5t9 151t3.5 121t0.5 70q0 4 -0.5 31t-1.5 70t-3 98.5t-5.5 115.5t-9 121t-13 115t-17 97.5t-22.5 68.5q101 -18 185.5 -24t152.5 -6q45 0 81 2t61 4q29 3 51 6
q-12 -56 -21 -124.5t-16 -146t-10.5 -162.5t-3.5 -175q0 -104 5 -211.5t16.5 -213.5t29 -208t43.5 -195zM679 1620q-72 -22 -147.5 -47t-141.5 -60q2 16 3 31t1 30q0 62 -20 122t-51 114q-20 -30 -33 -67.5t-20.5 -77.5t-11 -79t-3.5 -73q-63 29 -128.5 55.5t-131.5 46.5
q33 31 64 72.5t58.5 87t50 92t38.5 88.5q32 -3 64.5 -5.5t66.5 -2.5q26 0 54.5 1.5t54.5 6.5q15 -45 39.5 -92t55.5 -91t66 -83t72 -69z" />
    <glyph glyph-name="Idieresis" unicode="&#xcf;" horiz-adv-x="672" 
d="M633 6q-21 2 -47 4q-23 2 -55 3t-74 1q-81 0 -188 -7t-232 -27q22 45 38 114t26.5 147.5t16.5 159.5t9 151t3.5 121t0.5 70q0 4 -0.5 31t-1.5 70t-3 98.5t-5.5 115.5t-9 121t-13 115t-17 97.5t-22.5 68.5q101 -18 185.5 -24t152.5 -6q45 0 81 2t61 4q29 3 51 6
q-12 -56 -21 -124.5t-16 -146t-10.5 -162.5t-3.5 -175q0 -104 5 -211.5t16.5 -213.5t29 -208t43.5 -195zM-28 1686q0 34 13 63.5t35.5 52t52 35.5t63.5 13t63.5 -13t52 -35.5t35.5 -52t13 -63.5t-13 -63.5t-35.5 -52t-52 -35.5t-63.5 -13t-63.5 13t-52 35.5t-35.5 52
t-13 63.5zM373 1686q0 34 13 63.5t35.5 52t52 35.5t63.5 13t63.5 -13t52 -35.5t35.5 -52t13 -63.5t-13 -63.5t-35.5 -52t-52 -35.5t-63.5 -13t-63.5 13t-52 35.5t-35.5 52t-13 63.5z" />
    <glyph glyph-name="Eth" unicode="&#xd0;" horiz-adv-x="1290" 
d="M1245 709q0 -163 -36 -280t-95 -198.5t-134 -131t-152.5 -77t-151.5 -36.5t-131 -9q-47 0 -119.5 6.5t-159.5 6.5q-51 0 -112.5 -2t-130.5 -8q33 60 56 138t39 160.5t25 164t15 149.5q-31 -6 -63 -14t-72 -19q4 12 7 30t4.5 37t2 37t0.5 29q0 51 -4 101.5t-10 101.5
q37 -16 72 -27.5t69 -17.5q-1 37 -3.5 89.5t-7.5 112t-13.5 121.5t-21 118t-29.5 101.5t-40 71.5q74 -12 140.5 -16t117.5 -4q45 0 75 1t51.5 2t36.5 3t31.5 3t37 2t51.5 1q68 0 143.5 -9.5t148 -37.5t138.5 -79t116 -134t79.5 -202.5t29.5 -284.5zM662 895
q-8 -45 -11.5 -88t-3.5 -88q0 -43 3.5 -87t11.5 -87q-29 15 -57 26t-54 17q3 -86 10.5 -144.5t20 -93.5t29.5 -50t38 -15q49 0 78 107t29 339q0 117 -7 195t-20.5 125.5t-33.5 67.5t-46 20q-38 0 -63.5 -66t-34.5 -215q29 6 57 15.5t54 21.5z" />
    <glyph glyph-name="Ntilde" unicode="&#xd1;" horiz-adv-x="1323" 
d="M618 6q-19 2 -45 4q-22 2 -53 3t-71 1q-78 0 -182.5 -7t-229.5 -27q22 45 38 114t26.5 147.5t16.5 159.5t9 151t3.5 121t0.5 70q0 4 -0.5 31t-1.5 70t-3 98.5t-5.5 115.5t-9 121t-13 115t-17 97.5t-22.5 68.5q101 -18 184 -24t148 -6q44 0 78.5 2t57.5 4q27 3 48 6
q43 -212 98 -393t124 -336v41q-3 163 -11 304q-4 60 -9 121t-12.5 115t-17 97.5t-22.5 68.5q100 -18 184.5 -24t149.5 -6q44 0 78.5 2t57.5 4q27 3 48 6q-12 -56 -21 -125t-16 -147t-10.5 -164t-3.5 -177q0 -103 5 -209.5t16.5 -212t29 -207t41.5 -194.5q-18 2 -43 4
q-21 2 -51 3t-68 1q-72 0 -166 -7t-202 -27q0 103 -16.5 201.5t-46.5 194t-72 187.5t-93 182q1 -94 7.5 -190t18 -190t28 -184.5t38.5 -174.5zM1045 1676q-27 -33 -51.5 -60t-51.5 -46t-59 -29.5t-74 -10.5q-35 0 -59 12.5t-46 27.5t-45.5 27.5t-56.5 12.5
q-32 0 -56.5 -11.5t-42 -31t-29 -44t-17.5 -50.5q-29 59 -70 108t-98 74q37 40 66.5 70t59.5 49.5t63 29t77 9.5q31 0 56.5 -12t48.5 -26t44 -26t44 -12q22 0 40.5 11t32 28t22 37.5t11.5 40.5q16 -21 39 -47t48.5 -51.5t52.5 -47t51 -32.5z" />
    <glyph glyph-name="Ograve" unicode="&#xd2;" horiz-adv-x="1206" 
d="M1163 670q0 -152 -34 -285.5t-103 -233t-174.5 -157t-249.5 -57.5q-143 0 -248.5 57.5t-175 157t-103.5 233t-34 285.5q0 112 21 216t58 194t89 164t114.5 126.5t133 81.5t145.5 29q126 0 229.5 -61.5t177 -170.5t114 -257t40.5 -322zM754 756q0 75 -12 138.5t-32.5 110
t-48.5 73t-59 26.5q-30 0 -57 -31.5t-47.5 -81.5t-32.5 -112t-12 -123q0 -59 10.5 -109.5t29.5 -87.5t46.5 -58.5t62.5 -21.5q34 0 62.5 21.5t48 58.5t30.5 87.5t11 109.5zM494 1536l-332 357q51 28 100 55q42 23 87 50t77 50q9 -21 25.5 -51t37 -63.5t43.5 -69.5t46 -70
q53 -81 114 -169z" />
    <glyph glyph-name="Oacute" unicode="&#xd3;" horiz-adv-x="1206" 
d="M1163 670q0 -152 -34 -285.5t-103 -233t-174.5 -157t-249.5 -57.5q-143 0 -248.5 57.5t-175 157t-103.5 233t-34 285.5q0 112 21 216t58 194t89 164t114.5 126.5t133 81.5t145.5 29q126 0 229.5 -61.5t177 -170.5t114 -257t40.5 -322zM754 756q0 75 -12 138.5t-32.5 110
t-48.5 73t-59 26.5q-30 0 -57 -31.5t-47.5 -81.5t-32.5 -112t-12 -123q0 -59 10.5 -109.5t29.5 -87.5t46.5 -58.5t62.5 -21.5q34 0 62.5 21.5t48 58.5t30.5 87.5t11 109.5zM779 1533l-199 89q61 88 114 169q22 34 45.5 70t44 69.5t37.5 63.5t27 51q31 -23 75.5 -50t86.5 -50
q48 -27 100 -55z" />
    <glyph glyph-name="Ocircumflex" unicode="&#xd4;" horiz-adv-x="1206" 
d="M1163 670q0 -152 -34 -285.5t-103 -233t-174.5 -157t-249.5 -57.5q-143 0 -248.5 57.5t-175 157t-103.5 233t-34 285.5q0 112 21 216t58 194t89 164t114.5 126.5t133 81.5t145.5 29q126 0 229.5 -61.5t177 -170.5t114 -257t40.5 -322zM754 756q0 75 -12 138.5t-32.5 110
t-48.5 73t-59 26.5q-30 0 -57 -31.5t-47.5 -81.5t-32.5 -112t-12 -123q0 -59 10.5 -109.5t29.5 -87.5t46.5 -58.5t62.5 -21.5q34 0 62.5 21.5t48 58.5t30.5 87.5t11 109.5zM944 1661q-72 -22 -147.5 -47t-141.5 -60q2 16 3 31t1 30q0 62 -20 122t-51 114q-20 -30 -33 -67.5
t-20.5 -77.5t-11 -79t-3.5 -73q-63 29 -128.5 55.5t-131.5 46.5q33 31 64 72.5t58.5 87t50 92t38.5 88.5q32 -3 64.5 -5.5t66.5 -2.5q26 0 54.5 1.5t54.5 6.5q15 -45 39.5 -92t55.5 -91t66 -83t72 -69z" />
    <glyph glyph-name="Otilde" unicode="&#xd5;" horiz-adv-x="1206" 
d="M1163 670q0 -152 -34 -285.5t-103 -233t-174.5 -157t-249.5 -57.5q-143 0 -248.5 57.5t-175 157t-103.5 233t-34 285.5q0 112 21 216t58 194t89 164t114.5 126.5t133 81.5t145.5 29q126 0 229.5 -61.5t177 -170.5t114 -257t40.5 -322zM754 756q0 75 -12 138.5t-32.5 110
t-48.5 73t-59 26.5q-30 0 -57 -31.5t-47.5 -81.5t-32.5 -112t-12 -123q0 -59 10.5 -109.5t29.5 -87.5t46.5 -58.5t62.5 -21.5q34 0 62.5 21.5t48 58.5t30.5 87.5t11 109.5zM979 1690q-27 -33 -51.5 -60t-51.5 -46t-59 -29.5t-74 -10.5q-35 0 -59 12.5t-46 27.5t-45.5 27.5
t-56.5 12.5q-32 0 -56.5 -11.5t-42 -31t-29 -44t-17.5 -50.5q-29 59 -70 108t-98 74q37 40 66.5 70t59.5 49.5t63 29t77 9.5q31 0 56.5 -12t48.5 -26t44 -26t44 -12q22 0 40.5 11t32 28t22 37.5t11.5 40.5q16 -21 39 -47t48.5 -51.5t52.5 -47t51 -32.5z" />
    <glyph glyph-name="Odieresis" unicode="&#xd6;" horiz-adv-x="1206" 
d="M1163 670q0 -152 -34 -285.5t-103 -233t-174.5 -157t-249.5 -57.5q-143 0 -248.5 57.5t-175 157t-103.5 233t-34 285.5q0 112 21 216t58 194t89 164t114.5 126.5t133 81.5t145.5 29q126 0 229.5 -61.5t177 -170.5t114 -257t40.5 -322zM754 756q0 75 -12 138.5t-32.5 110
t-48.5 73t-59 26.5q-30 0 -57 -31.5t-47.5 -81.5t-32.5 -112t-12 -123q0 -59 10.5 -109.5t29.5 -87.5t46.5 -58.5t62.5 -21.5q34 0 62.5 21.5t48 58.5t30.5 87.5t11 109.5zM238 1692q0 34 13 63.5t35.5 52t52 35.5t63.5 13t63.5 -13t52 -35.5t35.5 -52t13 -63.5t-13 -63.5
t-35.5 -52t-52 -35.5t-63.5 -13t-63.5 13t-52 35.5t-35.5 52t-13 63.5zM639 1692q0 34 13 63.5t35.5 52t52 35.5t63.5 13t63.5 -13t52 -35.5t35.5 -52t13 -63.5t-13 -63.5t-35.5 -52t-52 -35.5t-63.5 -13t-63.5 13t-52 35.5t-35.5 52t-13 63.5z" />
    <glyph glyph-name="multiply" unicode="&#xd7;" horiz-adv-x="881" 
d="M844 842q-66 -23 -127.5 -66t-112.5 -90q25 -21 54 -45t60 -46t63 -40.5t63 -30.5q-72 -49 -134 -111t-112 -134q-23 68 -66.5 128.5t-91.5 112.5q-46 -54 -89.5 -111.5t-78.5 -119.5q-11 25 -40.5 58.5t-65.5 66.5t-71.5 62.5t-59.5 47.5q31 13 62 31.5t61 40t58.5 44.5
t53.5 44q-52 48 -108.5 89.5t-116.5 76.5q25 12 58.5 41.5t67 65t63 71t47.5 59.5q13 -30 31.5 -61t39.5 -61t44 -59t44 -54q21 24 44 52.5t44.5 59t39.5 62t30 61.5q50 -72 112 -134t134 -111z" />
    <glyph glyph-name="Oslash" unicode="&#xd8;" horiz-adv-x="1206" 
d="M1128 1540q-38 -59 -76 -121.5t-75 -128.5q44 -54 78.5 -122t58.5 -147t36.5 -167.5t12.5 -183.5q0 -152 -34 -285.5t-103 -233t-174.5 -157t-249.5 -57.5q-74 0 -138 16t-118 45l-55 -115q-18 6 -41 10.5t-48.5 7.5t-53 4t-52.5 1h-43q32 46 68 101t74 120
q-79 102 -116.5 241.5t-37.5 301.5q0 112 21 216t58 194t89 164t114.5 126.5t133 81.5t145.5 29q62 0 118 -16t107 -44q14 31 28 61t28 58q9 -4 23 -6t29.5 -3.5t30 -2t25.5 -0.5q14 0 31.5 1t36.5 2.5t37 4t32 4.5zM453 756q0 -31 2.5 -59.5t7.5 -53.5q52 108 103.5 216.5
t99.5 211.5q-30 33 -64 33q-30 0 -57 -31.5t-47.5 -81.5t-32.5 -112t-12 -123zM754 756q0 51 -6 98q-45 -93 -88 -185.5t-87 -185.5q7 -3 14 -3.5t15 -0.5q34 0 62.5 21.5t48 58.5t30.5 87.5t11 109.5z" />
    <glyph glyph-name="Ugrave" unicode="&#xd9;" horiz-adv-x="1200" 
d="M1167 1442q-23 -115 -37 -276t-14 -345q0 -26 0.5 -50.5t1.5 -50.5t1.5 -54t0.5 -60q0 -67 -5.5 -143t-24.5 -151t-54 -144.5t-93.5 -122t-144.5 -84t-206 -31.5q-113 0 -194.5 25.5t-138 70t-91.5 104.5t-54 129.5t-25.5 144.5t-6.5 149q0 33 0.5 55.5t1.5 41t2 37.5
t2 45t1.5 63t0.5 92q0 67 -2.5 152t-10.5 167.5t-22.5 151t-38.5 102.5q101 -18 189.5 -24t163.5 -6q48 0 87 2t67 4q33 3 57 6q-13 -62 -26 -139t-23 -165t-16.5 -185t-6.5 -197q0 -125 4.5 -203t14.5 -121.5t26 -59.5t39 -16q31 0 52.5 19.5t36 66t21 122.5t7.5 190
q-2 163 -10 304q-3 60 -8.5 121t-13 115t-17.5 97.5t-23 68.5q100 -18 185 -24t153 -6q45 0 80.5 2t60.5 4q29 3 51 6zM504 1501l-332 357q51 28 100 55q42 23 87 50t77 50q9 -21 25.5 -51t37 -63.5t43.5 -69.5t46 -70q53 -81 114 -169z" />
    <glyph glyph-name="Uacute" unicode="&#xda;" horiz-adv-x="1200" 
d="M1167 1442q-23 -115 -37 -276t-14 -345q0 -26 0.5 -50.5t1.5 -50.5t1.5 -54t0.5 -60q0 -67 -5.5 -143t-24.5 -151t-54 -144.5t-93.5 -122t-144.5 -84t-206 -31.5q-113 0 -194.5 25.5t-138 70t-91.5 104.5t-54 129.5t-25.5 144.5t-6.5 149q0 33 0.5 55.5t1.5 41t2 37.5
t2 45t1.5 63t0.5 92q0 67 -2.5 152t-10.5 167.5t-22.5 151t-38.5 102.5q101 -18 189.5 -24t163.5 -6q48 0 87 2t67 4q33 3 57 6q-13 -62 -26 -139t-23 -165t-16.5 -185t-6.5 -197q0 -125 4.5 -203t14.5 -121.5t26 -59.5t39 -16q31 0 52.5 19.5t36 66t21 122.5t7.5 190
q-2 163 -10 304q-3 60 -8.5 121t-13 115t-17.5 97.5t-23 68.5q100 -18 185 -24t153 -6q45 0 80.5 2t60.5 4q29 3 51 6zM723 1519l-199 89q61 88 114 169q22 34 45.5 70t44 69.5t37.5 63.5t27 51q31 -23 75.5 -50t86.5 -50q48 -27 100 -55z" />
    <glyph glyph-name="Ucircumflex" unicode="&#xdb;" horiz-adv-x="1200" 
d="M1167 1442q-23 -115 -37 -276t-14 -345q0 -26 0.5 -50.5t1.5 -50.5t1.5 -54t0.5 -60q0 -67 -5.5 -143t-24.5 -151t-54 -144.5t-93.5 -122t-144.5 -84t-206 -31.5q-113 0 -194.5 25.5t-138 70t-91.5 104.5t-54 129.5t-25.5 144.5t-6.5 149q0 33 0.5 55.5t1.5 41t2 37.5
t2 45t1.5 63t0.5 92q0 67 -2.5 152t-10.5 167.5t-22.5 151t-38.5 102.5q101 -18 189.5 -24t163.5 -6q48 0 87 2t67 4q33 3 57 6q-13 -62 -26 -139t-23 -165t-16.5 -185t-6.5 -197q0 -125 4.5 -203t14.5 -121.5t26 -59.5t39 -16q31 0 52.5 19.5t36 66t21 122.5t7.5 190
q-2 163 -10 304q-3 60 -8.5 121t-13 115t-17.5 97.5t-23 68.5q100 -18 185 -24t153 -6q45 0 80.5 2t60.5 4q29 3 51 6zM965 1631q-72 -22 -147.5 -47t-141.5 -60q2 16 3 31t1 30q0 62 -20 122t-51 114q-20 -30 -33 -67.5t-20.5 -77.5t-11 -79t-3.5 -73q-63 29 -128.5 55.5
t-131.5 46.5q33 31 64 72.5t58.5 87t50 92t38.5 88.5q32 -3 64.5 -5.5t66.5 -2.5q26 0 54.5 1.5t54.5 6.5q15 -45 39.5 -92t55.5 -91t66 -83t72 -69z" />
    <glyph glyph-name="Udieresis" unicode="&#xdc;" horiz-adv-x="1200" 
d="M1167 1442q-23 -115 -37 -276t-14 -345q0 -26 0.5 -50.5t1.5 -50.5t1.5 -54t0.5 -60q0 -67 -5.5 -143t-24.5 -151t-54 -144.5t-93.5 -122t-144.5 -84t-206 -31.5q-113 0 -194.5 25.5t-138 70t-91.5 104.5t-54 129.5t-25.5 144.5t-6.5 149q0 33 0.5 55.5t1.5 41t2 37.5
t2 45t1.5 63t0.5 92q0 67 -2.5 152t-10.5 167.5t-22.5 151t-38.5 102.5q101 -18 189.5 -24t163.5 -6q48 0 87 2t67 4q33 3 57 6q-13 -62 -26 -139t-23 -165t-16.5 -185t-6.5 -197q0 -125 4.5 -203t14.5 -121.5t26 -59.5t39 -16q31 0 52.5 19.5t36 66t21 122.5t7.5 190
q-2 163 -10 304q-3 60 -8.5 121t-13 115t-17.5 97.5t-23 68.5q100 -18 185 -24t153 -6q45 0 80.5 2t60.5 4q29 3 51 6zM227 1681q0 34 13 63.5t35.5 52t52 35.5t63.5 13t63.5 -13t52 -35.5t35.5 -52t13 -63.5t-13 -63.5t-35.5 -52t-52 -35.5t-63.5 -13t-63.5 13t-52 35.5
t-35.5 52t-13 63.5zM628 1681q0 34 13 63.5t35.5 52t52 35.5t63.5 13t63.5 -13t52 -35.5t35.5 -52t13 -63.5t-13 -63.5t-35.5 -52t-52 -35.5t-63.5 -13t-63.5 13t-52 35.5t-35.5 52t-13 63.5z" />
    <glyph glyph-name="Yacute" unicode="&#xdd;" horiz-adv-x="1141" 
d="M1118 1419q-13 -32 -23 -73t-17.5 -86t-12.5 -92.5t-8 -91.5q-8 -105 -10 -216q0 -49 1 -100.5t1 -104.5q0 -84 -6 -169t-26 -163t-59 -146t-105.5 -118t-164 -79t-235.5 -29q-105 0 -181.5 25.5t-126 69t-73 101t-23.5 121.5q0 48 20 90t53.5 72.5t77 48t89.5 17.5
q59 0 114 -31t97 -100q-11 2 -21.5 3t-19.5 1q-72 0 -72 -62q0 -29 26.5 -47t71.5 -18q55 0 88.5 29t51.5 73t24 96.5t6 100.5v43q-19 -20 -45 -31.5t-53 -18t-52 -8.5t-42 -2q-60 0 -120.5 16t-110 60t-81.5 122.5t-36 203.5q0 5 -0.5 38.5t-4 83t-11 108.5t-21 116
t-34 105.5t-50.5 76.5q106 -18 189.5 -25.5t146.5 -7.5q49 0 85.5 2.5t60.5 6.5q28 4 48 10q-5 -41 -10.5 -86.5t-10 -92t-7 -93.5t-2.5 -91q0 -50 4 -93.5t13.5 -76t25 -51t38.5 -18.5q28 0 47.5 30.5t31.5 80t17 111.5t5 124q0 72 -5.5 137.5t-13.5 105.5q18 -7 47 -11
q25 -5 65.5 -8t100.5 -3q48 0 109.5 3t138.5 11zM682 1474l-199 89q61 88 114 169q22 34 45.5 70t44 69.5t37.5 63.5t27 51q31 -23 75.5 -50t86.5 -50q48 -27 100 -55z" />
    <glyph glyph-name="Thorn" unicode="&#xde;" horiz-adv-x="1116" 
d="M524 485q25 24 57.5 59t61.5 75.5t48.5 83t19.5 81.5q0 22 -7 40.5t-18.5 31.5t-26.5 20t-30 7q-28 0 -46.5 -19t-30.5 -49.5t-18 -68t-9 -74t-3 -68v-49.5v-34t2 -36zM633 6q-21 2 -47 4q-23 2 -55 3t-74 1q-81 0 -188 -7t-232 -27q22 45 38 114t26.5 147.5t16.5 159.5
t9 151t3.5 121t0.5 70q0 4 -0.5 31t-1.5 70t-3 98.5t-5.5 115.5t-9 121t-13 115t-17 97.5t-22.5 68.5q101 -18 185.5 -24t152.5 -6q45 0 81 2t61 4q29 3 51 6q-9 -47 -18 -101.5t-15 -117.5q12 6 29.5 8.5t34.5 2.5t30.5 -0.5t16.5 -0.5q41 0 88.5 -9t94.5 -32t91 -62
t78 -99.5t54 -144.5t20 -196q0 -109 -34.5 -201t-92 -158.5t-131.5 -103.5t-152 -37q-25 0 -48 4.5t-48 12.5q9 -53 20 -103t25 -98z" />
    <glyph glyph-name="germandbls" unicode="&#xdf;" horiz-adv-x="1495" 
d="M618 821q0 67 16.5 117.5t37 91.5t37 76.5t16.5 73.5q0 23 -7.5 44t-19.5 37.5t-28 26.5t-33 10q-46 0 -70 -44t-34 -123.5t-10.5 -190.5t-0.5 -246q0 -95 2 -193.5t6.5 -192t13 -178t21.5 -153.5q-112 23 -233 23q-63 0 -124.5 -6t-121.5 -17q23 99 36 213t19.5 232
t9.5 234t5 218q-32 -2 -70 -5.5t-70 -8.5q5 44 8 85.5t3 84.5q0 38 -2 75.5t-9 78.5l152 -8q0 104 29.5 190.5t86.5 149t139.5 97t188.5 34.5q105 0 190.5 -25.5t146 -73.5t93.5 -117.5t33 -156.5q0 -66 -21.5 -113.5t-48 -85.5t-48 -72t-21.5 -73q0 -45 24 -75t63 -52
t89 -39.5t102.5 -39t102.5 -50t89 -72.5t63 -106.5t24 -151.5q0 -93 -38 -168t-101.5 -128.5t-148 -82t-177.5 -28.5q-84 0 -160 23t-133.5 64t-91 97t-33.5 121q0 49 16 85.5t44.5 60.5t67 36t83.5 12q33 0 66 -7t62 -21t52 -34t37 -46q-8 2 -15 3t-15 1q-22 0 -34.5 -11.5
t-12.5 -37.5q0 -28 22.5 -47t50.5 -19q16 0 30 7t24 18.5t16 25.5t6 29q0 26 -18 56t-50 50q-63 39 -118.5 67t-103 53t-85 50t-63.5 58.5t-40 79t-14 110.5z" />
    <glyph glyph-name="agrave" unicode="&#xe0;" 
d="M1077 -14q-19 2 -44 4q-21 2 -50.5 3t-64.5 1q-50 0 -109.5 -4t-122.5 -15l4 281q-38 -149 -111.5 -230t-172.5 -81q-31 0 -70 8t-79.5 30.5t-79 62.5t-68.5 103.5t-48 154t-18 214.5q0 168 34 287.5t87 195.5t117 111t125 35q52 0 94.5 -14.5t75.5 -37t57 -50.5t39 -56
q-3 34 -9 72.5t-14 79.5q65 -13 132 -17t124 -4q68 0 110 3q24 1 44 3q-11 -50 -20 -112t-15.5 -132.5t-10 -148t-3.5 -158.5q0 -151 15 -303t52 -286zM666 559v162q0 27 -3 55t-13.5 51t-30.5 37.5t-54 14.5q-36 0 -59.5 -25t-38 -68.5t-20 -103t-5.5 -129.5q0 -40 5.5 -81
t18.5 -74.5t35 -54.5t54 -21q36 0 58 25t33.5 62t15.5 77.5t4 72.5zM473 1209l-332 357q51 28 100 55q42 23 87 50t77 50q9 -21 25.5 -51t37 -63.5t43.5 -69.5t46 -70q53 -81 114 -169z" />
    <glyph glyph-name="aacute" unicode="&#xe1;" 
d="M1077 -14q-19 2 -44 4q-21 2 -50.5 3t-64.5 1q-50 0 -109.5 -4t-122.5 -15l4 281q-38 -149 -111.5 -230t-172.5 -81q-31 0 -70 8t-79.5 30.5t-79 62.5t-68.5 103.5t-48 154t-18 214.5q0 168 34 287.5t87 195.5t117 111t125 35q52 0 94.5 -14.5t75.5 -37t57 -50.5t39 -56
q-3 34 -9 72.5t-14 79.5q65 -13 132 -17t124 -4q68 0 110 3q24 1 44 3q-11 -50 -20 -112t-15.5 -132.5t-10 -148t-3.5 -158.5q0 -151 15 -303t52 -286zM666 559v162q0 27 -3 55t-13.5 51t-30.5 37.5t-54 14.5q-36 0 -59.5 -25t-38 -68.5t-20 -103t-5.5 -129.5q0 -40 5.5 -81
t18.5 -74.5t35 -54.5t54 -21q36 0 58 25t33.5 62t15.5 77.5t4 72.5zM605 1199l-199 89q61 88 114 169q22 34 45.5 70t44 69.5t37.5 63.5t27 51q31 -23 75.5 -50t86.5 -50q48 -27 100 -55z" />
    <glyph glyph-name="acircumflex" unicode="&#xe2;" 
d="M1077 -14q-19 2 -44 4q-21 2 -50.5 3t-64.5 1q-50 0 -109.5 -4t-122.5 -15l4 281q-38 -149 -111.5 -230t-172.5 -81q-31 0 -70 8t-79.5 30.5t-79 62.5t-68.5 103.5t-48 154t-18 214.5q0 168 34 287.5t87 195.5t117 111t125 35q52 0 94.5 -14.5t75.5 -37t57 -50.5t39 -56
q-3 34 -9 72.5t-14 79.5q65 -13 132 -17t124 -4q68 0 110 3q24 1 44 3q-11 -50 -20 -112t-15.5 -132.5t-10 -148t-3.5 -158.5q0 -151 15 -303t52 -286zM666 559v162q0 27 -3 55t-13.5 51t-30.5 37.5t-54 14.5q-36 0 -59.5 -25t-38 -68.5t-20 -103t-5.5 -129.5q0 -40 5.5 -81
t18.5 -74.5t35 -54.5t54 -21q36 0 58 25t33.5 62t15.5 77.5t4 72.5zM901 1314q-72 -22 -147.5 -47t-141.5 -60q2 16 3 31t1 30q0 62 -20 122t-51 114q-20 -30 -33 -67.5t-20.5 -77.5t-11 -79t-3.5 -73q-63 29 -128.5 55.5t-131.5 46.5q33 31 64 72.5t58.5 87t50 92
t38.5 88.5q32 -3 64.5 -5.5t66.5 -2.5q26 0 54.5 1.5t54.5 6.5q15 -45 39.5 -92t55.5 -91t66 -83t72 -69z" />
    <glyph glyph-name="atilde" unicode="&#xe3;" 
d="M1077 -14q-19 2 -44 4q-21 2 -50.5 3t-64.5 1q-50 0 -109.5 -4t-122.5 -15l4 281q-38 -149 -111.5 -230t-172.5 -81q-31 0 -70 8t-79.5 30.5t-79 62.5t-68.5 103.5t-48 154t-18 214.5q0 168 34 287.5t87 195.5t117 111t125 35q52 0 94.5 -14.5t75.5 -37t57 -50.5t39 -56
q-3 34 -9 72.5t-14 79.5q65 -13 132 -17t124 -4q68 0 110 3q24 1 44 3q-11 -50 -20 -112t-15.5 -132.5t-10 -148t-3.5 -158.5q0 -151 15 -303t52 -286zM666 559v162q0 27 -3 55t-13.5 51t-30.5 37.5t-54 14.5q-36 0 -59.5 -25t-38 -68.5t-20 -103t-5.5 -129.5q0 -40 5.5 -81
t18.5 -74.5t35 -54.5t54 -21q36 0 58 25t33.5 62t15.5 77.5t4 72.5zM938 1400q-27 -33 -51.5 -60t-51.5 -46t-59 -29.5t-74 -10.5q-35 0 -59 12.5t-46 27.5t-45.5 27.5t-56.5 12.5q-32 0 -56.5 -11.5t-42 -31t-29 -44t-17.5 -50.5q-29 59 -70 108t-98 74q37 40 66.5 70
t59.5 49.5t63 29t77 9.5q31 0 56.5 -12t48.5 -26t44 -26t44 -12q22 0 40.5 11t32 28t22 37.5t11.5 40.5q16 -21 39 -47t48.5 -51.5t52.5 -47t51 -32.5z" />
    <glyph glyph-name="adieresis" unicode="&#xe4;" 
d="M1077 -14q-19 2 -44 4q-21 2 -50.5 3t-64.5 1q-50 0 -109.5 -4t-122.5 -15l4 281q-38 -149 -111.5 -230t-172.5 -81q-31 0 -70 8t-79.5 30.5t-79 62.5t-68.5 103.5t-48 154t-18 214.5q0 168 34 287.5t87 195.5t117 111t125 35q52 0 94.5 -14.5t75.5 -37t57 -50.5t39 -56
q-3 34 -9 72.5t-14 79.5q65 -13 132 -17t124 -4q68 0 110 3q24 1 44 3q-11 -50 -20 -112t-15.5 -132.5t-10 -148t-3.5 -158.5q0 -151 15 -303t52 -286zM666 559v162q0 27 -3 55t-13.5 51t-30.5 37.5t-54 14.5q-36 0 -59.5 -25t-38 -68.5t-20 -103t-5.5 -129.5q0 -40 5.5 -81
t18.5 -74.5t35 -54.5t54 -21q36 0 58 25t33.5 62t15.5 77.5t4 72.5zM195 1373q0 34 13 63.5t35.5 52t52 35.5t63.5 13t63.5 -13t52 -35.5t35.5 -52t13 -63.5t-13 -63.5t-35.5 -52t-52 -35.5t-63.5 -13t-63.5 13t-52 35.5t-35.5 52t-13 63.5zM596 1373q0 34 13 63.5t35.5 52
t52 35.5t63.5 13t63.5 -13t52 -35.5t35.5 -52t13 -63.5t-13 -63.5t-35.5 -52t-52 -35.5t-63.5 -13t-63.5 13t-52 35.5t-35.5 52t-13 63.5z" />
    <glyph glyph-name="aring" unicode="&#xe5;" 
d="M1077 -14q-19 2 -44 4q-21 2 -50.5 3t-64.5 1q-50 0 -109.5 -4t-122.5 -15l4 281q-38 -149 -111.5 -230t-172.5 -81q-31 0 -70 8t-79.5 30.5t-79 62.5t-68.5 103.5t-48 154t-18 214.5q0 168 34 287.5t87 195.5t117 111t125 35q52 0 94.5 -14.5t75.5 -37t57 -50.5t39 -56
q-3 34 -9 72.5t-14 79.5q65 -13 132 -17t124 -4q68 0 110 3q24 1 44 3q-11 -50 -20 -112t-15.5 -132.5t-10 -148t-3.5 -158.5q0 -151 15 -303t52 -286zM666 559v162q0 27 -3 55t-13.5 51t-30.5 37.5t-54 14.5q-36 0 -59.5 -25t-38 -68.5t-20 -103t-5.5 -129.5q0 -40 5.5 -81
t18.5 -74.5t35 -54.5t54 -21q36 0 58 25t33.5 62t15.5 77.5t4 72.5zM802 1465q0 -35 -10 -77t-36.5 -79t-74 -61.5t-122.5 -24.5q-79 0 -127 24t-73.5 60t-33.5 78.5t-8 79.5q0 35 9 77t35 78t73.5 60t124.5 24q78 0 125.5 -24t73.5 -60t35 -78t9 -77zM649 1471
q0 13 -3 28.5t-12 28.5t-25.5 22t-43.5 9t-44 -9t-26 -22t-12.5 -28.5t-3.5 -28.5q0 -14 2.5 -29.5t11.5 -28.5t26 -21.5t46 -8.5q25 0 41.5 9t26 22t13 28.5t3.5 28.5z" />
    <glyph glyph-name="ae" unicode="&#xe6;" horiz-adv-x="1747" 
d="M1704 930q0 -75 -21.5 -146t-75.5 -126t-145.5 -88t-232.5 -33q3 -49 20 -82t40 -53t49 -30t48 -14t36.5 -4h15.5q61 7 110 32q21 10 41.5 25.5t36.5 37t26.5 49t12.5 63.5q26 -65 36.5 -121.5t10.5 -105.5q0 -90 -32 -165.5t-89 -130.5t-135.5 -85.5t-171.5 -30.5
q-77 0 -151.5 23.5t-137.5 74.5q5 -23 10 -45t11 -45q-37 11 -86 21q-42 8 -103.5 15t-140.5 9l-2 301q-14 -77 -40.5 -138.5t-63 -104.5t-81 -65.5t-93.5 -22.5q-31 0 -70 8t-79.5 30.5t-79 62.5t-68.5 103.5t-48 154t-18 214.5q0 168 34 287.5t87 195.5t117 111t125 35
q52 0 94.5 -14.5t75.5 -37t57 -50.5t39 -56q-3 34 -9 72.5t-14 79.5q65 -13 132 -17t124 -4q68 0 110 3q24 1 44 3q-5 -18 -8.5 -39.5t-8.5 -44.5q76 69 170.5 103.5t196.5 34.5q58 0 111.5 -13t94.5 -43t65 -77.5t24 -116.5zM666 559v162q0 27 -3 55t-13.5 51t-30.5 37.5
t-54 14.5q-24 0 -41 -19t-28 -49t-18 -67t-10 -73.5t-4 -68t-1 -49.5q0 -27 2.5 -66.5t11.5 -76t27.5 -62.5t50.5 -26q36 0 58 25t33.5 62t15.5 77.5t4 72.5zM1391 768q47 46 47 86q0 23 -16.5 37t-41.5 14q-17 0 -36 -8t-39 -25q-22 -20 -39 -46q-15 -23 -27 -54.5
t-14 -69.5q37 1 67.5 11.5t52.5 22.5q26 14 46 32z" />
    <glyph glyph-name="ccedilla" unicode="&#xe7;" horiz-adv-x="942" 
d="M639 -258q0 -69 -32 -107t-81 -56t-107.5 -21.5t-111.5 -3.5q5 21 7.5 43t2.5 47q0 18 -2 38t-8 37q6 -6 19.5 -11t28.5 -8t29.5 -5t23.5 -2q27 0 49 12.5t22 44.5q0 16 -8 27.5t-21 18.5t-28 10.5t-29 3.5q-17 0 -34.5 -2.5t-34.5 -8.5l57 160q-84 21 -148.5 75.5
t-108.5 131t-66.5 169t-22.5 187.5q0 78 16.5 158.5t48 155.5t77.5 140.5t104 114.5t127.5 77t148.5 28q71 0 125 -17t94 -45t66 -64.5t42 -75t22.5 -76.5t6.5 -70q0 -39 -13.5 -81t-39.5 -76.5t-66 -56.5t-92 -22q-44 0 -75 15t-51 39t-29.5 55.5t-9.5 64.5q0 70 34 121
q5 -17 14.5 -25.5t17.5 -12.5q10 -4 20 -5q29 0 37 13t10 30q0 17 -13 33t-45 16q-9 0 -25.5 -2.5t-37 -12.5t-41.5 -29.5t-38.5 -54t-28.5 -86t-11 -124.5q0 -75 22 -121.5t52.5 -72t64.5 -34.5t58 -9q21 0 53 7.5t63.5 27.5t57.5 55.5t35 91.5q27 -40 43 -95.5t16 -115.5
q0 -84 -30 -159t-84 -133t-129.5 -95.5t-166.5 -44.5l-10 -43q37 0 67 -12t51.5 -34t33.5 -52t12 -66z" />
    <glyph glyph-name="egrave" unicode="&#xe8;" horiz-adv-x="958" 
d="M915 930q0 -75 -21.5 -146t-75.5 -126t-145.5 -88t-232.5 -33q4 -49 20.5 -82t39.5 -53t49 -30t48 -14t37 -4h15q62 7 111 32q21 10 41 25.5t36.5 37t27 49t12.5 63.5q26 -65 36.5 -121.5t10.5 -105.5q0 -90 -32.5 -165.5t-89.5 -130.5t-135.5 -85.5t-170.5 -30.5
q-90 0 -173.5 31t-148 98.5t-103 175.5t-38.5 262q0 167 48 296t129 216.5t187.5 133t223.5 45.5q58 0 111.5 -13t94 -43t64.5 -77.5t24 -116.5zM436 702q28 1 65 11.5t70 29.5t55.5 47t22.5 64q0 23 -16 37t-41 14q-35 0 -62.5 -20t-47 -50t-31.5 -66t-15 -67zM398 1233
l-332 357q51 28 100 55q42 23 87 50t77 50q9 -21 25.5 -51t37 -63.5t43.5 -69.5t46 -70q53 -81 114 -169z" />
    <glyph glyph-name="eacute" unicode="&#xe9;" horiz-adv-x="958" 
d="M915 930q0 -75 -21.5 -146t-75.5 -126t-145.5 -88t-232.5 -33q4 -49 20.5 -82t39.5 -53t49 -30t48 -14t37 -4h15q62 7 111 32q21 10 41 25.5t36.5 37t27 49t12.5 63.5q26 -65 36.5 -121.5t10.5 -105.5q0 -90 -32.5 -165.5t-89.5 -130.5t-135.5 -85.5t-170.5 -30.5
q-90 0 -173.5 31t-148 98.5t-103 175.5t-38.5 262q0 167 48 296t129 216.5t187.5 133t223.5 45.5q58 0 111.5 -13t94 -43t64.5 -77.5t24 -116.5zM436 702q28 1 65 11.5t70 29.5t55.5 47t22.5 64q0 23 -16 37t-41 14q-35 0 -62.5 -20t-47 -50t-31.5 -66t-15 -67zM631 1257
l-199 89q61 88 114 169q22 34 45.5 70t44 69.5t37.5 63.5t27 51q31 -23 75.5 -50t86.5 -50q48 -27 100 -55z" />
    <glyph glyph-name="ecircumflex" unicode="&#xea;" horiz-adv-x="958" 
d="M915 930q0 -75 -21.5 -146t-75.5 -126t-145.5 -88t-232.5 -33q4 -49 20.5 -82t39.5 -53t49 -30t48 -14t37 -4h15q62 7 111 32q21 10 41 25.5t36.5 37t27 49t12.5 63.5q26 -65 36.5 -121.5t10.5 -105.5q0 -90 -32.5 -165.5t-89.5 -130.5t-135.5 -85.5t-170.5 -30.5
q-90 0 -173.5 31t-148 98.5t-103 175.5t-38.5 262q0 167 48 296t129 216.5t187.5 133t223.5 45.5q58 0 111.5 -13t94 -43t64.5 -77.5t24 -116.5zM436 702q28 1 65 11.5t70 29.5t55.5 47t22.5 64q0 23 -16 37t-41 14q-35 0 -62.5 -20t-47 -50t-31.5 -66t-15 -67zM819 1341
q-72 -22 -147.5 -47t-141.5 -60q2 16 3 31t1 30q0 62 -20 122t-51 114q-20 -30 -33 -67.5t-20.5 -77.5t-11 -79t-3.5 -73q-63 29 -128.5 55.5t-131.5 46.5q33 31 64 72.5t58.5 87t50 92t38.5 88.5q32 -3 64.5 -5.5t66.5 -2.5q26 0 54.5 1.5t54.5 6.5q15 -45 39.5 -92
t55.5 -91t66 -83t72 -69z" />
    <glyph glyph-name="edieresis" unicode="&#xeb;" horiz-adv-x="958" 
d="M915 930q0 -75 -21.5 -146t-75.5 -126t-145.5 -88t-232.5 -33q4 -49 20.5 -82t39.5 -53t49 -30t48 -14t37 -4h15q62 7 111 32q21 10 41 25.5t36.5 37t27 49t12.5 63.5q26 -65 36.5 -121.5t10.5 -105.5q0 -90 -32.5 -165.5t-89.5 -130.5t-135.5 -85.5t-170.5 -30.5
q-90 0 -173.5 31t-148 98.5t-103 175.5t-38.5 262q0 167 48 296t129 216.5t187.5 133t223.5 45.5q58 0 111.5 -13t94 -43t64.5 -77.5t24 -116.5zM436 702q28 1 65 11.5t70 29.5t55.5 47t22.5 64q0 23 -16 37t-41 14q-35 0 -62.5 -20t-47 -50t-31.5 -66t-15 -67zM113 1410
q0 34 13 63.5t35.5 52t52 35.5t63.5 13t63.5 -13t52 -35.5t35.5 -52t13 -63.5t-13 -63.5t-35.5 -52t-52 -35.5t-63.5 -13t-63.5 13t-52 35.5t-35.5 52t-13 63.5zM514 1410q0 34 13 63.5t35.5 52t52 35.5t63.5 13t63.5 -13t52 -35.5t35.5 -52t13 -63.5t-13 -63.5t-35.5 -52
t-52 -35.5t-63.5 -13t-63.5 13t-52 35.5t-35.5 52t-13 63.5z" />
    <glyph glyph-name="igrave" unicode="&#xec;" horiz-adv-x="551" 
d="M518 4q-17 1 -40 3q-20 1 -47 2t-62 1q-65 0 -150 -5.5t-184 -20.5q19 38 32 95.5t21.5 123t13 132.5t6.5 123t2.5 95t0.5 49q-2 130 -9 243q-3 48 -7.5 97t-10.5 92.5t-13.5 78t-17.5 54.5q81 -14 150 -19t125 -5q36 0 64.5 1.5t48.5 3.5q24 2 42 5q-18 -90 -29.5 -217
t-11.5 -272q0 -83 4 -168t13 -169.5t23.5 -166t35.5 -156.5zM181 1223l-332 357q51 28 100 55q42 23 87 50t77 50q9 -21 25.5 -51t37 -63.5t43.5 -69.5t46 -70q53 -81 114 -169z" />
    <glyph glyph-name="iacute" unicode="&#xed;" horiz-adv-x="551" 
d="M518 4q-17 1 -40 3q-20 1 -47 2t-62 1q-65 0 -150 -5.5t-184 -20.5q19 38 32 95.5t21.5 123t13 132.5t6.5 123t2.5 95t0.5 49q-2 130 -9 243q-3 48 -7.5 97t-10.5 92.5t-13.5 78t-17.5 54.5q81 -14 150 -19t125 -5q36 0 64.5 1.5t48.5 3.5q24 2 42 5q-18 -90 -29.5 -217
t-11.5 -272q0 -83 4 -168t13 -169.5t23.5 -166t35.5 -156.5zM365 1215l-199 89q61 88 114 169q22 34 45.5 70t44 69.5t37.5 63.5t27 51q31 -23 75.5 -50t86.5 -50q48 -27 100 -55z" />
    <glyph glyph-name="icircumflex" unicode="&#xee;" horiz-adv-x="551" 
d="M518 4q-17 1 -40 3q-20 1 -47 2t-62 1q-65 0 -150 -5.5t-184 -20.5q19 38 32 95.5t21.5 123t13 132.5t6.5 123t2.5 95t0.5 49q-2 130 -9 243q-3 48 -7.5 97t-10.5 92.5t-13.5 78t-17.5 54.5q81 -14 150 -19t125 -5q36 0 64.5 1.5t48.5 3.5q24 2 42 5q-18 -90 -29.5 -217
t-11.5 -272q0 -83 4 -168t13 -169.5t23.5 -166t35.5 -156.5zM619 1349q-72 -22 -147.5 -47t-141.5 -60q2 16 3 31t1 30q0 62 -20 122t-51 114q-20 -30 -33 -67.5t-20.5 -77.5t-11 -79t-3.5 -73q-63 29 -128.5 55.5t-131.5 46.5q33 31 64 72.5t58.5 87t50 92t38.5 88.5
q32 -3 64.5 -5.5t66.5 -2.5q26 0 54.5 1.5t54.5 6.5q15 -45 39.5 -92t55.5 -91t66 -83t72 -69z" />
    <glyph glyph-name="idieresis" unicode="&#xef;" horiz-adv-x="551" 
d="M518 4q-17 1 -40 3q-20 1 -47 2t-62 1q-65 0 -150 -5.5t-184 -20.5q19 38 32 95.5t21.5 123t13 132.5t6.5 123t2.5 95t0.5 49q-2 130 -9 243q-3 48 -7.5 97t-10.5 92.5t-13.5 78t-17.5 54.5q81 -14 150 -19t125 -5q36 0 64.5 1.5t48.5 3.5q24 2 42 5q-18 -90 -29.5 -217
t-11.5 -272q0 -83 4 -168t13 -169.5t23.5 -166t35.5 -156.5zM-87 1414q0 34 13 63.5t35.5 52t52 35.5t63.5 13t63.5 -13t52 -35.5t35.5 -52t13 -63.5t-13 -63.5t-35.5 -52t-52 -35.5t-63.5 -13t-63.5 13t-52 35.5t-35.5 52t-13 63.5zM314 1414q0 34 13 63.5t35.5 52t52 35.5
t63.5 13t63.5 -13t52 -35.5t35.5 -52t13 -63.5t-13 -63.5t-35.5 -52t-52 -35.5t-63.5 -13t-63.5 13t-52 35.5t-35.5 52t-13 63.5z" />
    <glyph glyph-name="eth" unicode="&#xf0;" horiz-adv-x="1036" 
d="M893 1665q-6 -43 -10 -78.5t-4 -70.5q0 -31 3 -62.5t11 -69.5q-48 -2 -94.5 -6.5t-91.5 -13.5q73 -72 127 -163.5t90 -193t53.5 -209.5t17.5 -214q0 -58 -9 -127.5t-30 -140t-57 -137t-89.5 -117.5t-127.5 -82t-172 -31t-171.5 29t-126 77.5t-86.5 112t-54 133.5
t-27.5 141.5t-7.5 135.5q0 75 13 148.5t37.5 139t60 121.5t80 97t98 64t114.5 23q36 0 67.5 -14t56 -33.5t40.5 -39.5t19 -31q-22 77 -51.5 140t-61.5 114q-78 -31 -148.5 -70.5t-130.5 -81.5q8 48 11.5 80.5t3.5 58.5q0 31 -4 58.5t-11 64.5q41 3 84 9.5t88 15.5
q-30 31 -58 52.5t-49.5 35.5t-35.5 21t-16 10q86 -4 162.5 -24.5t142.5 -55.5q99 32 188.5 78t155.5 106zM647 551q0 23 -1.5 57.5t-6.5 72.5t-13.5 76t-22.5 68t-34.5 49t-48.5 19q-27 0 -47 -18t-34.5 -47t-24 -65.5t-15 -73t-8 -70t-2.5 -56.5q0 -33 5 -80t19 -90
t38.5 -73.5t64.5 -30.5q38 0 63.5 28t40.5 68.5t21 85.5t6 80z" />
    <glyph glyph-name="ntilde" unicode="&#xf1;" horiz-adv-x="1112" 
d="M1083 -20q-31 5 -68 6.5t-77 1.5q-48 0 -97.5 -2.5t-96.5 -6.5t-89 -9t-73 -9q43 145 66.5 310t23.5 366q0 15 -0.5 40t-2.5 54t-6.5 58.5t-13 53.5t-21.5 39t-32 15q-28 0 -54.5 -20t-47 -53t-33 -76t-12.5 -89q0 -83 4 -168.5t13 -169.5t23 -164.5t35 -152.5
q-17 1 -40 3q-20 1 -47 2t-62 1q-65 0 -150 -5.5t-184 -20.5q12 56 21 137t15 176t9.5 198.5t3.5 204.5q0 75 -2 147t-5.5 136t-9.5 118t-14 93q81 -14 150 -19.5t125 -5.5q36 0 64.5 1.5t48.5 3.5q24 3 42 6q-6 -31 -11.5 -66t-10.5 -76q33 42 70 73.5t74.5 52.5t74.5 31.5
t70 10.5q72 0 124.5 -29.5t87 -92.5t51.5 -161t17 -235q0 -94 0.5 -191t4.5 -190t14 -176.5t28 -150.5zM940 1427q-27 -33 -51.5 -60t-51.5 -46t-59 -29.5t-74 -10.5q-35 0 -59 12.5t-46 27.5t-45.5 27.5t-56.5 12.5q-32 0 -56.5 -11.5t-42 -31t-29 -44t-17.5 -50.5
q-29 59 -70 108t-98 74q37 40 66.5 70t59.5 49.5t63 29t77 9.5q31 0 56.5 -12t48.5 -26t44 -26t44 -12q22 0 40.5 11t32 28t22 37.5t11.5 40.5q16 -21 39 -47t48.5 -51.5t52.5 -47t51 -32.5z" />
    <glyph glyph-name="ograve" unicode="&#xf2;" horiz-adv-x="1032" 
d="M995 584q0 -58 -9 -127.5t-30 -140t-57 -137t-89.5 -117.5t-127.5 -82t-172 -31t-171.5 29t-126 77.5t-86.5 112t-54 133.5t-27.5 141.5t-7.5 135.5q0 113 30 221.5t91.5 193.5t154 137t217.5 52q84 0 151 -25.5t119 -69.5t88.5 -103t60.5 -125t35 -137t11 -138zM647 551
q0 23 -1.5 57.5t-6.5 72.5t-13.5 76t-22.5 68t-34.5 49t-48.5 19q-27 0 -47 -18t-34.5 -47t-24 -65.5t-15 -73t-8 -70t-2.5 -56.5q0 -33 5 -80t19 -90t38.5 -73.5t64.5 -30.5q38 0 63.5 28t40.5 68.5t21 85.5t6 80zM422 1242l-332 357q51 28 100 55q42 23 87 50t77 50
q9 -21 25.5 -51t37 -63.5t43.5 -69.5t46 -70q53 -81 114 -169z" />
    <glyph glyph-name="oacute" unicode="&#xf3;" horiz-adv-x="1032" 
d="M995 584q0 -58 -9 -127.5t-30 -140t-57 -137t-89.5 -117.5t-127.5 -82t-172 -31t-171.5 29t-126 77.5t-86.5 112t-54 133.5t-27.5 141.5t-7.5 135.5q0 113 30 221.5t91.5 193.5t154 137t217.5 52q84 0 151 -25.5t119 -69.5t88.5 -103t60.5 -125t35 -137t11 -138zM647 551
q0 23 -1.5 57.5t-6.5 72.5t-13.5 76t-22.5 68t-34.5 49t-48.5 19q-27 0 -47 -18t-34.5 -47t-24 -65.5t-15 -73t-8 -70t-2.5 -56.5q0 -33 5 -80t19 -90t38.5 -73.5t64.5 -30.5q38 0 63.5 28t40.5 68.5t21 85.5t6 80zM627 1248l-199 89q61 88 114 169q22 34 45.5 70t44 69.5
t37.5 63.5t27 51q31 -23 75.5 -50t86.5 -50q48 -27 100 -55z" />
    <glyph glyph-name="ocircumflex" unicode="&#xf4;" horiz-adv-x="1032" 
d="M995 584q0 -58 -9 -127.5t-30 -140t-57 -137t-89.5 -117.5t-127.5 -82t-172 -31t-171.5 29t-126 77.5t-86.5 112t-54 133.5t-27.5 141.5t-7.5 135.5q0 113 30 221.5t91.5 193.5t154 137t217.5 52q84 0 151 -25.5t119 -69.5t88.5 -103t60.5 -125t35 -137t11 -138zM647 551
q0 23 -1.5 57.5t-6.5 72.5t-13.5 76t-22.5 68t-34.5 49t-48.5 19q-27 0 -47 -18t-34.5 -47t-24 -65.5t-15 -73t-8 -70t-2.5 -56.5q0 -33 5 -80t19 -90t38.5 -73.5t64.5 -30.5q38 0 63.5 28t40.5 68.5t21 85.5t6 80zM858 1359q-72 -22 -147.5 -47t-141.5 -60q2 16 3 31t1 30
q0 62 -20 122t-51 114q-20 -30 -33 -67.5t-20.5 -77.5t-11 -79t-3.5 -73q-63 29 -128.5 55.5t-131.5 46.5q33 31 64 72.5t58.5 87t50 92t38.5 88.5q32 -3 64.5 -5.5t66.5 -2.5q26 0 54.5 1.5t54.5 6.5q15 -45 39.5 -92t55.5 -91t66 -83t72 -69z" />
    <glyph glyph-name="otilde" unicode="&#xf5;" horiz-adv-x="1032" 
d="M995 584q0 -58 -9 -127.5t-30 -140t-57 -137t-89.5 -117.5t-127.5 -82t-172 -31t-171.5 29t-126 77.5t-86.5 112t-54 133.5t-27.5 141.5t-7.5 135.5q0 113 30 221.5t91.5 193.5t154 137t217.5 52q84 0 151 -25.5t119 -69.5t88.5 -103t60.5 -125t35 -137t11 -138zM647 551
q0 23 -1.5 57.5t-6.5 72.5t-13.5 76t-22.5 68t-34.5 49t-48.5 19q-27 0 -47 -18t-34.5 -47t-24 -65.5t-15 -73t-8 -70t-2.5 -56.5q0 -33 5 -80t19 -90t38.5 -73.5t64.5 -30.5q38 0 63.5 28t40.5 68.5t21 85.5t6 80zM893 1402q-27 -33 -51.5 -60t-51.5 -46t-59 -29.5
t-74 -10.5q-35 0 -59 12.5t-46 27.5t-45.5 27.5t-56.5 12.5q-32 0 -56.5 -11.5t-42 -31t-29 -44t-17.5 -50.5q-29 59 -70 108t-98 74q37 40 66.5 70t59.5 49.5t63 29t77 9.5q31 0 56.5 -12t48.5 -26t44 -26t44 -12q22 0 40.5 11t32 28t22 37.5t11.5 40.5q16 -21 39 -47
t48.5 -51.5t52.5 -47t51 -32.5z" />
    <glyph glyph-name="odieresis" unicode="&#xf6;" horiz-adv-x="1032" 
d="M995 584q0 -58 -9 -127.5t-30 -140t-57 -137t-89.5 -117.5t-127.5 -82t-172 -31t-171.5 29t-126 77.5t-86.5 112t-54 133.5t-27.5 141.5t-7.5 135.5q0 113 30 221.5t91.5 193.5t154 137t217.5 52q84 0 151 -25.5t119 -69.5t88.5 -103t60.5 -125t35 -137t11 -138zM647 551
q0 23 -1.5 57.5t-6.5 72.5t-13.5 76t-22.5 68t-34.5 49t-48.5 19q-27 0 -47 -18t-34.5 -47t-24 -65.5t-15 -73t-8 -70t-2.5 -56.5q0 -33 5 -80t19 -90t38.5 -73.5t64.5 -30.5q38 0 63.5 28t40.5 68.5t21 85.5t6 80zM152 1404q0 34 13 63.5t35.5 52t52 35.5t63.5 13t63.5 -13
t52 -35.5t35.5 -52t13 -63.5t-13 -63.5t-35.5 -52t-52 -35.5t-63.5 -13t-63.5 13t-52 35.5t-35.5 52t-13 63.5zM553 1404q0 34 13 63.5t35.5 52t52 35.5t63.5 13t63.5 -13t52 -35.5t35.5 -52t13 -63.5t-13 -63.5t-35.5 -52t-52 -35.5t-63.5 -13t-63.5 13t-52 35.5t-35.5 52
t-13 63.5z" />
    <glyph glyph-name="divide" unicode="&#xf7;" horiz-adv-x="870" 
d="M831 854q-8 -45 -11 -88t-3 -88q0 -43 3 -87t11 -87q-38 20 -83.5 32.5t-92.5 19t-94.5 9t-89.5 2.5q-108 0 -219.5 -10.5t-214.5 -38.5q4 12 7 30t4.5 37t2 37t0.5 29q0 51 -4 101.5t-10 101.5q40 -17 92.5 -28.5t107.5 -18t109 -9.5t98 -3q41 0 93.5 3t106 9.5t103 18
t84.5 28.5zM291 328q0 34 13 63.5t35.5 52t52 35.5t63.5 13t63.5 -13t51.5 -35.5t35 -52t13 -63.5t-13 -63.5t-35 -52t-51.5 -35.5t-63.5 -13t-63.5 13t-52 35.5t-35.5 52t-13 63.5zM291 1030q0 34 13 63.5t35.5 52t52 35.5t63.5 13t63.5 -13t51.5 -35.5t35 -52t13 -63.5
t-13 -63.5t-35 -52t-51.5 -35.5t-63.5 -13t-63.5 13t-52 35.5t-35.5 52t-13 63.5z" />
    <glyph glyph-name="oslash" unicode="&#xf8;" horiz-adv-x="1032" 
d="M993 1241q-37 -53 -71 -105t-68 -106q37 -45 63.5 -98.5t43.5 -111.5t25.5 -118.5t8.5 -117.5q0 -58 -9 -127.5t-30 -140t-57 -137t-89.5 -117.5t-127.5 -82t-172 -31q-53 0 -97.5 8.5t-82.5 24.5l-43 -99q-18 6 -41 10.5t-48.5 7.5t-53 4t-52.5 1h-43l123 192
q-40 49 -66 108.5t-41.5 123t-21.5 127t-6 121.5q0 113 30 221.5t91.5 193.5t154 137t217.5 52q50 0 93 -9t82 -26q11 23 20.5 46t22.5 48q9 -4 23 -6t29 -3.5t30 -2t26 -0.5q14 0 31.5 1t36 2.5t36.5 4t33 4.5zM389 563q0 -17 0.5 -38t3.5 -44q58 108 102 201t83 182
q-11 13 -26 21t-32 8q-27 0 -47 -18t-34.5 -47t-24 -65.5t-15 -73t-8 -70t-2.5 -56.5zM647 551q0 18 -1.5 44.5t-4.5 55.5q-42 -83 -83.5 -170t-84.5 -180q18 -12 43 -12q38 0 63.5 28t40.5 68.5t21 85.5t6 80z" />
    <glyph glyph-name="ugrave" unicode="&#xf9;" horiz-adv-x="977" 
d="M948 1153q-9 -45 -16.5 -105t-13 -129.5t-8.5 -145t-3 -150.5q0 -25 1 -49.5t1 -47.5q0 -49 -5.5 -111t-22 -126.5t-45.5 -126.5t-76.5 -110t-115.5 -77.5t-161 -29.5q-80 0 -141.5 21t-107 57.5t-76.5 86.5t-50 107.5t-27.5 120.5t-8.5 125q0 15 0.5 18.5t0.5 4.5t1 3.5
t1 15.5t0.5 41t0.5 79q0 60 -2 135.5t-8.5 148t-18.5 131.5t-31 86q81 -14 152.5 -19t130.5 -5q39 0 70.5 1.5t54.5 3.5q26 2 47 5q-20 -98 -38.5 -222.5t-18.5 -285.5q0 -37 3.5 -77t12.5 -73.5t24.5 -55t39.5 -21.5q30 0 47 20t25.5 52.5t10 72.5t1.5 80q-1 130 -8 243
q-3 48 -7.5 97t-10.5 92.5t-14 78t-18 54.5q81 -14 150 -19t123 -5q36 0 64.5 1.5t48.5 3.5q24 2 42 5zM414 1213l-332 357q51 28 100 55q42 23 87 50t77 50q9 -21 25.5 -51t37 -63.5t43.5 -69.5t46 -70q53 -81 114 -169z" />
    <glyph glyph-name="uacute" unicode="&#xfa;" horiz-adv-x="977" 
d="M948 1153q-9 -45 -16.5 -105t-13 -129.5t-8.5 -145t-3 -150.5q0 -25 1 -49.5t1 -47.5q0 -49 -5.5 -111t-22 -126.5t-45.5 -126.5t-76.5 -110t-115.5 -77.5t-161 -29.5q-80 0 -141.5 21t-107 57.5t-76.5 86.5t-50 107.5t-27.5 120.5t-8.5 125q0 15 0.5 18.5t0.5 4.5t1 3.5
t1 15.5t0.5 41t0.5 79q0 60 -2 135.5t-8.5 148t-18.5 131.5t-31 86q81 -14 152.5 -19t130.5 -5q39 0 70.5 1.5t54.5 3.5q26 2 47 5q-20 -98 -38.5 -222.5t-18.5 -285.5q0 -37 3.5 -77t12.5 -73.5t24.5 -55t39.5 -21.5q30 0 47 20t25.5 52.5t10 72.5t1.5 80q-1 130 -8 243
q-3 48 -7.5 97t-10.5 92.5t-14 78t-18 54.5q81 -14 150 -19t123 -5q36 0 64.5 1.5t48.5 3.5q24 2 42 5zM584 1223l-199 89q61 88 114 169q22 34 45.5 70t44 69.5t37.5 63.5t27 51q31 -23 75.5 -50t86.5 -50q48 -27 100 -55z" />
    <glyph glyph-name="ucircumflex" unicode="&#xfb;" horiz-adv-x="977" 
d="M948 1153q-9 -45 -16.5 -105t-13 -129.5t-8.5 -145t-3 -150.5q0 -25 1 -49.5t1 -47.5q0 -49 -5.5 -111t-22 -126.5t-45.5 -126.5t-76.5 -110t-115.5 -77.5t-161 -29.5q-80 0 -141.5 21t-107 57.5t-76.5 86.5t-50 107.5t-27.5 120.5t-8.5 125q0 15 0.5 18.5t0.5 4.5t1 3.5
t1 15.5t0.5 41t0.5 79q0 60 -2 135.5t-8.5 148t-18.5 131.5t-31 86q81 -14 152.5 -19t130.5 -5q39 0 70.5 1.5t54.5 3.5q26 2 47 5q-20 -98 -38.5 -222.5t-18.5 -285.5q0 -37 3.5 -77t12.5 -73.5t24.5 -55t39.5 -21.5q30 0 47 20t25.5 52.5t10 72.5t1.5 80q-1 130 -8 243
q-3 48 -7.5 97t-10.5 92.5t-14 78t-18 54.5q81 -14 150 -19t123 -5q36 0 64.5 1.5t48.5 3.5q24 2 42 5zM848 1343q-72 -22 -147.5 -47t-141.5 -60q2 16 3 31t1 30q0 62 -20 122t-51 114q-20 -30 -33 -67.5t-20.5 -77.5t-11 -79t-3.5 -73q-63 29 -128.5 55.5t-131.5 46.5
q33 31 64 72.5t58.5 87t50 92t38.5 88.5q32 -3 64.5 -5.5t66.5 -2.5q26 0 54.5 1.5t54.5 6.5q15 -45 39.5 -92t55.5 -91t66 -83t72 -69z" />
    <glyph glyph-name="udieresis" unicode="&#xfc;" horiz-adv-x="977" 
d="M948 1153q-9 -45 -16.5 -105t-13 -129.5t-8.5 -145t-3 -150.5q0 -25 1 -49.5t1 -47.5q0 -49 -5.5 -111t-22 -126.5t-45.5 -126.5t-76.5 -110t-115.5 -77.5t-161 -29.5q-80 0 -141.5 21t-107 57.5t-76.5 86.5t-50 107.5t-27.5 120.5t-8.5 125q0 15 0.5 18.5t0.5 4.5t1 3.5
t1 15.5t0.5 41t0.5 79q0 60 -2 135.5t-8.5 148t-18.5 131.5t-31 86q81 -14 152.5 -19t130.5 -5q39 0 70.5 1.5t54.5 3.5q26 2 47 5q-20 -98 -38.5 -222.5t-18.5 -285.5q0 -37 3.5 -77t12.5 -73.5t24.5 -55t39.5 -21.5q30 0 47 20t25.5 52.5t10 72.5t1.5 80q-1 130 -8 243
q-3 48 -7.5 97t-10.5 92.5t-14 78t-18 54.5q81 -14 150 -19t123 -5q36 0 64.5 1.5t48.5 3.5q24 2 42 5zM117 1396q0 34 13 63.5t35.5 52t52 35.5t63.5 13t63.5 -13t52 -35.5t35.5 -52t13 -63.5t-13 -63.5t-35.5 -52t-52 -35.5t-63.5 -13t-63.5 13t-52 35.5t-35.5 52
t-13 63.5zM518 1396q0 34 13 63.5t35.5 52t52 35.5t63.5 13t63.5 -13t52 -35.5t35.5 -52t13 -63.5t-13 -63.5t-35.5 -52t-52 -35.5t-63.5 -13t-63.5 13t-52 35.5t-35.5 52t-13 63.5z" />
    <glyph glyph-name="yacute" unicode="&#xfd;" horiz-adv-x="1073" 
d="M1036 1149q-11 -42 -18.5 -101t-13.5 -127t-9.5 -142t-6.5 -144q-6 -165 -7 -348q0 -102 -12.5 -201t-40 -187.5t-71 -164t-106 -130t-145 -85.5t-186.5 -31q-97 0 -168 20t-117.5 56.5t-69 87.5t-22.5 112t21 110.5t55 83.5t77 52.5t87 18.5q56 0 106 -32t76 -101
q-6 5 -13.5 6.5t-15.5 1.5q-11 0 -22.5 -5t-20.5 -14t-14.5 -20.5t-5.5 -24.5q0 -15 6 -25.5t14.5 -16.5t19 -8.5t19.5 -2.5q14 0 35 6t43.5 25t45 53t40 90.5t28 137.5t9.5 194q-26 -70 -54.5 -113.5t-60 -67.5t-66 -32t-73.5 -8q-49 0 -102.5 17.5t-98 62t-73.5 121.5
t-29 196q0 16 0.5 22.5t0.5 10t1 8.5t1 19.5t0.5 41.5t0.5 76q0 57 -2 129t-8.5 141t-18.5 125.5t-31 83.5q81 -14 152.5 -19t130.5 -5q39 0 70.5 1.5t54.5 3.5q26 2 47 5q-8 -17 -17.5 -65t-18.5 -115t-15 -146.5t-6 -160.5q0 -61 9 -104t24.5 -70.5t36 -40.5t44.5 -13
q38 0 60.5 31t38.5 78q-2 62 -7 145t-13.5 173t-22 181.5t-33.5 170.5q31 -11 74 -20q37 -8 90 -13.5t125 -5.5q85 0 192 12zM605 1219l-199 89q61 88 114 169q22 34 45.5 70t44 69.5t37.5 63.5t27 51q31 -23 75.5 -50t86.5 -50q48 -27 100 -55z" />
    <glyph glyph-name="thorn" unicode="&#xfe;" horiz-adv-x="1083" 
d="M8 1567q23 -2 52 -4q25 -2 58.5 -3t74.5 -1q55 0 119.5 3.5t127.5 14.5q-4 -8 -7.5 -48.5t-6.5 -98.5t-6 -125t-5.5 -128t-4.5 -107.5t-4 -63.5q42 91 109.5 140.5t172.5 49.5q23 0 58.5 -3t75 -20t79 -52.5t71 -100.5t51 -163.5t19.5 -242.5q0 -120 -17.5 -214.5
t-47 -166.5t-69 -122.5t-83 -82.5t-89 -46.5t-87.5 -14.5q-47 0 -85 15.5t-69 40t-54 55.5t-40 63q3 -69 7 -153.5t10.5 -164t16 -143t22.5 -90.5q-81 14 -150 18.5t-125 4.5q-36 0 -65 -1t-49 -3q-24 -2 -41 -4q10 50 18.5 150t15.5 232t11 287t4 316q0 149 -3.5 294.5
t-12 274.5t-21.5 234.5t-31 173.5zM420 655v-161q0 -27 3 -55t13.5 -51t30 -37.5t53.5 -14.5q24 0 41 19t28.5 49t18 67t10 73.5t4.5 68t1 49.5q0 27 -2.5 66t-12 76t-28 63t-50.5 26q-36 0 -57.5 -25.5t-33.5 -62t-15.5 -78t-3.5 -72.5z" />
    <glyph glyph-name="ydieresis" unicode="&#xff;" horiz-adv-x="1073" 
d="M1036 1149q-11 -42 -18.5 -101t-13.5 -127t-9.5 -142t-6.5 -144q-6 -165 -7 -348q0 -102 -12.5 -201t-40 -187.5t-71 -164t-106 -130t-145 -85.5t-186.5 -31q-97 0 -168 20t-117.5 56.5t-69 87.5t-22.5 112t21 110.5t55 83.5t77 52.5t87 18.5q56 0 106 -32t76 -101
q-6 5 -13.5 6.5t-15.5 1.5q-11 0 -22.5 -5t-20.5 -14t-14.5 -20.5t-5.5 -24.5q0 -15 6 -25.5t14.5 -16.5t19 -8.5t19.5 -2.5q14 0 35 6t43.5 25t45 53t40 90.5t28 137.5t9.5 194q-26 -70 -54.5 -113.5t-60 -67.5t-66 -32t-73.5 -8q-49 0 -102.5 17.5t-98 62t-73.5 121.5
t-29 196q0 16 0.5 22.5t0.5 10t1 8.5t1 19.5t0.5 41.5t0.5 76q0 57 -2 129t-8.5 141t-18.5 125.5t-31 83.5q81 -14 152.5 -19t130.5 -5q39 0 70.5 1.5t54.5 3.5q26 2 47 5q-8 -17 -17.5 -65t-18.5 -115t-15 -146.5t-6 -160.5q0 -61 9 -104t24.5 -70.5t36 -40.5t44.5 -13
q38 0 60.5 31t38.5 78q-2 62 -7 145t-13.5 173t-22 181.5t-33.5 170.5q31 -11 74 -20q37 -8 90 -13.5t125 -5.5q85 0 192 12zM164 1377q0 34 13 63.5t35.5 52t52 35.5t63.5 13t63.5 -13t52 -35.5t35.5 -52t13 -63.5t-13 -63.5t-35.5 -52t-52 -35.5t-63.5 -13t-63.5 13
t-52 35.5t-35.5 52t-13 63.5zM565 1377q0 34 13 63.5t35.5 52t52 35.5t63.5 13t63.5 -13t52 -35.5t35.5 -52t13 -63.5t-13 -63.5t-35.5 -52t-52 -35.5t-63.5 -13t-63.5 13t-52 35.5t-35.5 52t-13 63.5z" />
    <glyph glyph-name="Amacron" unicode="&#x100;" horiz-adv-x="1171" 
d="M1217 -12q-62 8 -119.5 11t-116.5 3q-159 0 -326 -31q6 24 13.5 42.5t13.5 41t10 52.5t4 77q0 48 -7 91.5t-21 77t-34.5 53.5t-47.5 20q-30 0 -50.5 -18t-33 -49t-18 -71t-5.5 -85t5.5 -77.5t13 -56.5t14.5 -42.5t10 -36.5q-69 8 -135.5 12t-132.5 4t-132.5 -4
t-137.5 -12q62 180 108.5 357t79.5 356t53.5 362t30.5 375q74 -10 162.5 -14.5t181.5 -4.5q79 0 153.5 4t137.5 17q7 -191 36 -376t72.5 -366.5t99.5 -359t118 -352.5zM657 764q-2 19 -12 56q-9 32 -27 84.5t-53 135.5q-8 -52 -18 -92.5t-19 -73t-15.5 -59.5t-6.5 -51
q0 -50 23.5 -77.5t52.5 -27.5q31 0 52 30t23 75zM858 1745q-6 -32 -9.5 -64.5t-3.5 -64.5t3.5 -64t9.5 -63q-24 11 -58.5 18t-72 10.5t-73 4.5t-62.5 1q-38 0 -79 -0.5t-83 -3t-82.5 -7.5t-77.5 -15q4 9 6 22.5t3 27.5t1 27.5v22.5q0 37 -2.5 73.5t-7.5 74.5
q72 -17 149.5 -21t151.5 -4q69 0 144 3t143 22z" />
    <glyph glyph-name="amacron" unicode="&#x101;" 
d="M1077 -14q-19 2 -44 4q-21 2 -50.5 3t-64.5 1q-50 0 -109.5 -4t-122.5 -15l4 281q-38 -149 -111.5 -230t-172.5 -81q-31 0 -70 8t-79.5 30.5t-79 62.5t-68.5 103.5t-48 154t-18 214.5q0 168 34 287.5t87 195.5t117 111t125 35q52 0 94.5 -14.5t75.5 -37t57 -50.5t39 -56
q-3 34 -9 72.5t-14 79.5q65 -13 132 -17t124 -4q68 0 110 3q24 1 44 3q-11 -50 -20 -112t-15.5 -132.5t-10 -148t-3.5 -158.5q0 -151 15 -303t52 -286zM666 559v162q0 27 -3 55t-13.5 51t-30.5 37.5t-54 14.5q-36 0 -59.5 -25t-38 -68.5t-20 -103t-5.5 -129.5q0 -40 5.5 -81
t18.5 -74.5t35 -54.5t54 -21q36 0 58 25t33.5 62t15.5 77.5t4 72.5zM852 1445q-6 -32 -9.5 -64.5t-3.5 -64.5t3.5 -64t9.5 -63q-24 11 -58.5 18t-72 10.5t-73 4.5t-62.5 1q-38 0 -79 -0.5t-83 -3t-82.5 -7.5t-77.5 -15q4 9 6 22.5t3 27.5t1 27.5v22.5q0 37 -2.5 73.5
t-7.5 74.5q72 -17 149.5 -21t151.5 -4q69 0 144 3t143 22z" />
    <glyph glyph-name="Abreve" unicode="&#x102;" horiz-adv-x="1171" 
d="M1217 -12q-62 8 -119.5 11t-116.5 3q-159 0 -326 -31q6 24 13.5 42.5t13.5 41t10 52.5t4 77q0 48 -7 91.5t-21 77t-34.5 53.5t-47.5 20q-30 0 -50.5 -18t-33 -49t-18 -71t-5.5 -85t5.5 -77.5t13 -56.5t14.5 -42.5t10 -36.5q-69 8 -135.5 12t-132.5 4t-132.5 -4
t-137.5 -12q62 180 108.5 357t79.5 356t53.5 362t30.5 375q74 -10 162.5 -14.5t181.5 -4.5q79 0 153.5 4t137.5 17q7 -191 36 -376t72.5 -366.5t99.5 -359t118 -352.5zM657 764q-2 19 -12 56q-9 32 -27 84.5t-53 135.5q-8 -52 -18 -92.5t-19 -73t-15.5 -59.5t-6.5 -51
q0 -50 23.5 -77.5t52.5 -27.5q31 0 52 30t23 75zM877 1850q-22 -19 -34.5 -53t-24.5 -74t-28 -82t-43.5 -75.5t-71.5 -55t-112 -21.5q-69 0 -113 19.5t-72 50.5t-44 69t-28 76.5t-24.5 72.5t-33.5 56q32 0 68.5 5.5t73 14.5t72 19.5t65.5 20.5q-4 -20 -5.5 -41t-1.5 -41
q0 -13 2.5 -33.5t9 -40t18.5 -33.5t30 -14q15 0 25 10.5t16 25.5t8 31t2 27q0 28 -4 55.5t-10 53.5q52 -19 115 -31t122 -12h23z" />
    <glyph glyph-name="abreve" unicode="&#x103;" 
d="M1077 -14q-19 2 -44 4q-21 2 -50.5 3t-64.5 1q-50 0 -109.5 -4t-122.5 -15l4 281q-38 -149 -111.5 -230t-172.5 -81q-31 0 -70 8t-79.5 30.5t-79 62.5t-68.5 103.5t-48 154t-18 214.5q0 168 34 287.5t87 195.5t117 111t125 35q52 0 94.5 -14.5t75.5 -37t57 -50.5t39 -56
q-3 34 -9 72.5t-14 79.5q65 -13 132 -17t124 -4q68 0 110 3q24 1 44 3q-11 -50 -20 -112t-15.5 -132.5t-10 -148t-3.5 -158.5q0 -151 15 -303t52 -286zM666 559v162q0 27 -3 55t-13.5 51t-30.5 37.5t-54 14.5q-36 0 -59.5 -25t-38 -68.5t-20 -103t-5.5 -129.5q0 -40 5.5 -81
t18.5 -74.5t35 -54.5t54 -21q36 0 58 25t33.5 62t15.5 77.5t4 72.5zM873 1578q-22 -19 -34.5 -53t-24.5 -74t-28 -82t-43.5 -75.5t-71.5 -55t-112 -21.5q-69 0 -113 19.5t-72 50.5t-44 69t-28 76.5t-24.5 72.5t-33.5 56q32 0 68.5 5.5t73 14.5t72 19.5t65.5 20.5
q-4 -20 -5.5 -41t-1.5 -41q0 -13 2.5 -33.5t9 -40t18.5 -33.5t30 -14q15 0 25 10.5t16 25.5t8 31t2 27q0 28 -4 55.5t-10 53.5q52 -19 115 -31t122 -12h23z" />
    <glyph glyph-name="Aogonek" unicode="&#x104;" horiz-adv-x="1171" 
d="M1217 -295q-22 -2 -48 -17t-56.5 -32.5t-65 -32t-72.5 -14.5q-37 0 -67.5 14.5t-53 39.5t-35 57.5t-12.5 68.5q0 20 8.5 46t22 54t30.5 56.5t35 54.5q-62 -3 -123.5 -9.5t-124.5 -19.5q6 24 13.5 42.5t13.5 41t10 52.5t4 77q0 48 -7 91.5t-21 77t-34.5 53.5t-47.5 20
q-30 0 -50.5 -18t-33 -49t-18 -71t-5.5 -85t5.5 -77.5t13 -56.5t14.5 -42.5t10 -36.5q-69 8 -135.5 12t-132.5 4t-132.5 -4t-137.5 -12q62 180 108.5 357t79.5 356t53.5 362t30.5 375q74 -10 162.5 -14.5t181.5 -4.5q79 0 153.5 4t137.5 17q7 -191 36 -376t72.5 -366.5
t99.5 -359t118 -352.5q-51 6 -98 9t-95 5q-13 -22 -26.5 -47.5t-24 -50t-17 -45.5t-6.5 -35q0 -22 13.5 -32.5t33.5 -10.5q18 0 32.5 10t26 24.5t20 31t14.5 30.5q8 -23 21 -47.5t29.5 -47.5t36 -43t40.5 -34zM657 764q-2 19 -12 56q-9 32 -27 84.5t-53 135.5
q-8 -52 -18 -92.5t-19 -73t-15.5 -59.5t-6.5 -51q0 -50 23.5 -77.5t52.5 -27.5q31 0 52 30t23 75z" />
    <glyph glyph-name="aogonek" unicode="&#x105;" 
d="M1128 -295q-21 -2 -47 -17t-56.5 -32.5t-65 -32t-72.5 -14.5q-37 0 -68 14.5t-53 39.5t-34.5 57.5t-12.5 68.5q0 19 7.5 43.5t20.5 51.5t29 54.5t33 53.5q-29 -3 -60.5 -6.5t-62.5 -10.5l4 281q-38 -149 -111.5 -230t-172.5 -81q-31 0 -70 8t-79.5 30.5t-79 62.5
t-68.5 103.5t-48 154t-18 214.5q0 168 34 287.5t87 195.5t117 111t125 35q52 0 94.5 -14.5t75.5 -37t57 -50.5t39 -56q-3 34 -9 72.5t-14 79.5q65 -13 132 -17t124 -4q68 0 110 3q24 1 44 3q-11 -50 -20 -112t-15.5 -132.5t-10 -148t-3.5 -158.5q0 -151 15 -303t52 -286
q-18 2 -40 4q-20 2 -46.5 3t-58.5 1q-13 -23 -25.5 -47t-22.5 -47t-16 -43t-6 -33q0 -22 13.5 -32.5t33.5 -10.5q18 0 32.5 10t26 24.5t20 31t13.5 30.5q9 -23 22 -47.5t29.5 -47.5t35.5 -43t40 -34zM666 721q0 27 -3 55t-13.5 51t-30.5 37.5t-54 14.5q-36 0 -59.5 -25
t-38 -68.5t-20 -103t-5.5 -129.5q0 -40 5.5 -81t18.5 -74.5t35 -54.5t54 -21q36 0 58 25t33.5 62t15.5 77.5t4 72.5v162z" />
    <glyph glyph-name="Cacute" unicode="&#x106;" horiz-adv-x="1157" 
d="M1126 1059q0 -51 -18 -103.5t-51.5 -95t-81.5 -69.5t-109 -27q-54 0 -92.5 18.5t-63 49.5t-36.5 70t-12 81t10.5 81.5t32.5 70.5q6 -21 16 -32.5t21 -16.5q12 -6 26 -7q32 0 45.5 17t13.5 39q0 10 -4 20.5t-12.5 19.5t-22.5 15t-34 6q-11 0 -31.5 -3t-45.5 -15.5
t-51 -37.5t-47.5 -68t-35 -107t-13.5 -156q0 -63 12.5 -109.5t32.5 -79.5t46 -54t53 -33t52.5 -16.5t45.5 -4.5q26 0 65.5 9.5t78.5 34.5t70.5 69t43.5 114q35 -49 53.5 -117t18.5 -143q0 -102 -36.5 -197.5t-104 -169.5t-163.5 -118.5t-214 -44.5q-87 0 -161 27.5
t-135 76.5t-107 115.5t-78 144.5t-48 164.5t-16 175.5q0 98 21 197.5t60.5 191.5t96 172.5t128.5 140t158 94t183 34.5q88 0 155 -20.5t115.5 -55t81.5 -78.5t52.5 -91t27.5 -93.5t8 -85.5zM774 1529l-199 89q61 88 114 169q22 34 45.5 70t44 69.5t37.5 63.5t27 51
q31 -23 75.5 -50t86.5 -50q48 -27 100 -55z" />
    <glyph glyph-name="cacute" unicode="&#x107;" horiz-adv-x="942" 
d="M913 848q0 -42 -14.5 -84t-41.5 -75.5t-66.5 -55t-88.5 -21.5q-44 0 -75 15t-51 39t-29.5 55.5t-9.5 64.5q0 70 34 121q5 -17 14.5 -25.5t17.5 -12.5q10 -4 20 -5q29 0 37 13t10 30q0 17 -13 33t-45 16q-9 0 -25.5 -2.5t-37 -12.5t-41.5 -29.5t-38.5 -54t-28.5 -86
t-11 -124.5q0 -75 22 -121.5t52.5 -72t64.5 -34.5t58 -9q21 0 53 7.5t63.5 27.5t57.5 55.5t35 91.5q27 -40 43 -95.5t16 -115.5q0 -82 -30.5 -160t-86 -138.5t-133.5 -97t-172 -36.5q-70 0 -130 22.5t-108.5 62.5t-86.5 94.5t-63.5 118t-38.5 133.5t-13 140q0 78 17 159
t48.5 156t77.5 141t104 114.5t128 77t149 28.5q71 0 125 -17t94 -45t66 -64.5t42 -75t22.5 -76.5t6.5 -70zM658 1240l-199 89q61 88 114 169q22 34 45.5 70t44 69.5t37.5 63.5t27 51q31 -23 75.5 -50t86.5 -50q48 -27 100 -55z" />
    <glyph glyph-name="Ccircumflex" unicode="&#x108;" horiz-adv-x="1157" 
d="M1126 1059q0 -51 -18 -103.5t-51.5 -95t-81.5 -69.5t-109 -27q-54 0 -92.5 18.5t-63 49.5t-36.5 70t-12 81t10.5 81.5t32.5 70.5q6 -21 16 -32.5t21 -16.5q12 -6 26 -7q32 0 45.5 17t13.5 39q0 10 -4 20.5t-12.5 19.5t-22.5 15t-34 6q-11 0 -31.5 -3t-45.5 -15.5
t-51 -37.5t-47.5 -68t-35 -107t-13.5 -156q0 -63 12.5 -109.5t32.5 -79.5t46 -54t53 -33t52.5 -16.5t45.5 -4.5q26 0 65.5 9.5t78.5 34.5t70.5 69t43.5 114q35 -49 53.5 -117t18.5 -143q0 -102 -36.5 -197.5t-104 -169.5t-163.5 -118.5t-214 -44.5q-87 0 -161 27.5
t-135 76.5t-107 115.5t-78 144.5t-48 164.5t-16 175.5q0 98 21 197.5t60.5 191.5t96 172.5t128.5 140t158 94t183 34.5q88 0 155 -20.5t115.5 -55t81.5 -78.5t52.5 -91t27.5 -93.5t8 -85.5zM993 1653q-72 -22 -147.5 -47t-141.5 -60q2 16 3 31t1 30q0 62 -20 122t-51 114
q-20 -30 -33 -67.5t-20.5 -77.5t-11 -79t-3.5 -73q-63 29 -128.5 55.5t-131.5 46.5q33 31 64 72.5t58.5 87t50 92t38.5 88.5q32 -3 64.5 -5.5t66.5 -2.5q26 0 54.5 1.5t54.5 6.5q15 -45 39.5 -92t55.5 -91t66 -83t72 -69z" />
    <glyph glyph-name="ccircumflex" unicode="&#x109;" horiz-adv-x="942" 
d="M913 848q0 -42 -14.5 -84t-41.5 -75.5t-66.5 -55t-88.5 -21.5q-44 0 -75 15t-51 39t-29.5 55.5t-9.5 64.5q0 70 34 121q5 -17 14.5 -25.5t17.5 -12.5q10 -4 20 -5q29 0 37 13t10 30q0 17 -13 33t-45 16q-9 0 -25.5 -2.5t-37 -12.5t-41.5 -29.5t-38.5 -54t-28.5 -86
t-11 -124.5q0 -75 22 -121.5t52.5 -72t64.5 -34.5t58 -9q21 0 53 7.5t63.5 27.5t57.5 55.5t35 91.5q27 -40 43 -95.5t16 -115.5q0 -82 -30.5 -160t-86 -138.5t-133.5 -97t-172 -36.5q-70 0 -130 22.5t-108.5 62.5t-86.5 94.5t-63.5 118t-38.5 133.5t-13 140q0 78 17 159
t48.5 156t77.5 141t104 114.5t128 77t149 28.5q71 0 125 -17t94 -45t66 -64.5t42 -75t22.5 -76.5t6.5 -70zM868 1372q-72 -22 -147.5 -47t-141.5 -60q2 16 3 31t1 30q0 62 -20 122t-51 114q-20 -30 -33 -67.5t-20.5 -77.5t-11 -79t-3.5 -73q-63 29 -128.5 55.5t-131.5 46.5
q33 31 64 72.5t58.5 87t50 92t38.5 88.5q32 -3 64.5 -5.5t66.5 -2.5q26 0 54.5 1.5t54.5 6.5q15 -45 39.5 -92t55.5 -91t66 -83t72 -69z" />
    <glyph glyph-name="Cdotaccent" unicode="&#x10a;" horiz-adv-x="1157" 
d="M1126 1059q0 -51 -18 -103.5t-51.5 -95t-81.5 -69.5t-109 -27q-54 0 -92.5 18.5t-63 49.5t-36.5 70t-12 81t10.5 81.5t32.5 70.5q6 -21 16 -32.5t21 -16.5q12 -6 26 -7q32 0 45.5 17t13.5 39q0 10 -4 20.5t-12.5 19.5t-22.5 15t-34 6q-11 0 -31.5 -3t-45.5 -15.5
t-51 -37.5t-47.5 -68t-35 -107t-13.5 -156q0 -63 12.5 -109.5t32.5 -79.5t46 -54t53 -33t52.5 -16.5t45.5 -4.5q26 0 65.5 9.5t78.5 34.5t70.5 69t43.5 114q35 -49 53.5 -117t18.5 -143q0 -102 -36.5 -197.5t-104 -169.5t-163.5 -118.5t-214 -44.5q-87 0 -161 27.5
t-135 76.5t-107 115.5t-78 144.5t-48 164.5t-16 175.5q0 98 21 197.5t60.5 191.5t96 172.5t128.5 140t158 94t183 34.5q88 0 155 -20.5t115.5 -55t81.5 -78.5t52.5 -91t27.5 -93.5t8 -85.5zM446 1718q0 34 13 63.5t35.5 52t52 35.5t63.5 13t63.5 -13t52 -35.5t35.5 -52
t13 -63.5t-13 -63.5t-35.5 -52t-52 -35.5t-63.5 -13t-63.5 13t-52 35.5t-35.5 52t-13 63.5z" />
    <glyph glyph-name="cdotaccent" unicode="&#x10b;" horiz-adv-x="942" 
d="M913 848q0 -42 -14.5 -84t-41.5 -75.5t-66.5 -55t-88.5 -21.5q-44 0 -75 15t-51 39t-29.5 55.5t-9.5 64.5q0 70 34 121q5 -17 14.5 -25.5t17.5 -12.5q10 -4 20 -5q29 0 37 13t10 30q0 17 -13 33t-45 16q-9 0 -25.5 -2.5t-37 -12.5t-41.5 -29.5t-38.5 -54t-28.5 -86
t-11 -124.5q0 -75 22 -121.5t52.5 -72t64.5 -34.5t58 -9q21 0 53 7.5t63.5 27.5t57.5 55.5t35 91.5q27 -40 43 -95.5t16 -115.5q0 -82 -30.5 -160t-86 -138.5t-133.5 -97t-172 -36.5q-70 0 -130 22.5t-108.5 62.5t-86.5 94.5t-63.5 118t-38.5 133.5t-13 140q0 78 17 159
t48.5 156t77.5 141t104 114.5t128 77t149 28.5q71 0 125 -17t94 -45t66 -64.5t42 -75t22.5 -76.5t6.5 -70zM344 1435q0 34 13 63.5t35.5 52t52 35.5t63.5 13t63.5 -13t52 -35.5t35.5 -52t13 -63.5t-13 -63.5t-35.5 -52t-52 -35.5t-63.5 -13t-63.5 13t-52 35.5t-35.5 52
t-13 63.5z" />
    <glyph glyph-name="Ccaron" unicode="&#x10c;" horiz-adv-x="1157" 
d="M1126 1059q0 -51 -18 -103.5t-51.5 -95t-81.5 -69.5t-109 -27q-54 0 -92.5 18.5t-63 49.5t-36.5 70t-12 81t10.5 81.5t32.5 70.5q6 -21 16 -32.5t21 -16.5q12 -6 26 -7q32 0 45.5 17t13.5 39q0 10 -4 20.5t-12.5 19.5t-22.5 15t-34 6q-11 0 -31.5 -3t-45.5 -15.5
t-51 -37.5t-47.5 -68t-35 -107t-13.5 -156q0 -63 12.5 -109.5t32.5 -79.5t46 -54t53 -33t52.5 -16.5t45.5 -4.5q26 0 65.5 9.5t78.5 34.5t70.5 69t43.5 114q35 -49 53.5 -117t18.5 -143q0 -102 -36.5 -197.5t-104 -169.5t-163.5 -118.5t-214 -44.5q-87 0 -161 27.5
t-135 76.5t-107 115.5t-78 144.5t-48 164.5t-16 175.5q0 98 21 197.5t60.5 191.5t96 172.5t128.5 140t158 94t183 34.5q88 0 155 -20.5t115.5 -55t81.5 -78.5t52.5 -91t27.5 -93.5t8 -85.5zM1008 1874q-37 -30 -72 -69t-66 -83.5t-55.5 -91.5t-39.5 -92q-26 6 -54.5 7
t-54.5 1q-34 0 -66.5 -1.5t-64.5 -6.5q-16 42 -38.5 89t-50 92t-58.5 86t-64 73q66 20 131.5 46.5t128.5 55.5q0 -35 3.5 -74.5t11 -79.5t20.5 -77t33 -66q31 54 51 114t20 122q0 15 -1 30.5t-3 30.5q66 -35 141.5 -59.5t147.5 -46.5z" />
    <glyph glyph-name="ccaron" unicode="&#x10d;" horiz-adv-x="942" 
d="M913 848q0 -42 -14.5 -84t-41.5 -75.5t-66.5 -55t-88.5 -21.5q-44 0 -75 15t-51 39t-29.5 55.5t-9.5 64.5q0 70 34 121q5 -17 14.5 -25.5t17.5 -12.5q10 -4 20 -5q29 0 37 13t10 30q0 17 -13 33t-45 16q-9 0 -25.5 -2.5t-37 -12.5t-41.5 -29.5t-38.5 -54t-28.5 -86
t-11 -124.5q0 -75 22 -121.5t52.5 -72t64.5 -34.5t58 -9q21 0 53 7.5t63.5 27.5t57.5 55.5t35 91.5q27 -40 43 -95.5t16 -115.5q0 -82 -30.5 -160t-86 -138.5t-133.5 -97t-172 -36.5q-70 0 -130 22.5t-108.5 62.5t-86.5 94.5t-63.5 118t-38.5 133.5t-13 140q0 78 17 159
t48.5 156t77.5 141t104 114.5t128 77t149 28.5q71 0 125 -17t94 -45t66 -64.5t42 -75t22.5 -76.5t6.5 -70zM883 1592q-37 -30 -72 -69t-66 -83.5t-55.5 -91.5t-39.5 -92q-26 6 -54.5 7t-54.5 1q-34 0 -66.5 -1.5t-64.5 -6.5q-16 42 -38.5 89t-50 92t-58.5 86t-64 73
q66 20 131.5 46.5t128.5 55.5q0 -35 3.5 -74.5t11 -79.5t20.5 -77t33 -66q31 54 51 114t20 122q0 15 -1 30.5t-3 30.5q66 -35 141.5 -59.5t147.5 -46.5z" />
    <glyph glyph-name="Dcaron" unicode="&#x10e;" horiz-adv-x="1282" 
d="M1237 709q0 -163 -36 -280t-95 -198.5t-134 -131t-152.5 -77t-151.5 -36.5t-131 -9q-97 0 -165.5 6.5t-113.5 6.5q-51 0 -113 -2t-131 -8q27 49 47.5 109.5t35.5 126.5t25.5 133.5t17.5 130.5q16 148 18 304q-2 155 -15 291q-6 58 -14.5 116.5t-20.5 111t-28.5 94.5
t-38.5 67q74 -12 140.5 -16t117.5 -4q33 0 64 2t64 4t70.5 4t84.5 2q68 0 143.5 -9.5t148 -37.5t138.5 -79t116 -134t79.5 -202.5t29.5 -284.5zM748 731q0 117 -7 195t-20.5 125.5t-33.5 67.5t-46 20q-23 0 -41.5 -23.5t-31.5 -75.5t-20 -133.5t-7 -197.5q0 -122 6.5 -203.5
t19 -130.5t31 -69.5t43.5 -20.5q49 0 78 107t29 339zM983 1847q-37 -30 -72 -69t-66 -83.5t-55.5 -91.5t-39.5 -92q-26 6 -54.5 7t-54.5 1q-34 0 -66.5 -1.5t-64.5 -6.5q-16 42 -38.5 89t-50 92t-58.5 86t-64 73q66 20 131.5 46.5t128.5 55.5q0 -35 3.5 -74.5t11 -79.5
t20.5 -77t33 -66q31 54 51 114t20 122q0 15 -1 30.5t-3 30.5q66 -35 141.5 -59.5t147.5 -46.5z" />
    <glyph glyph-name="dcaron" unicode="&#x10f;" horiz-adv-x="1499" 
d="M1075 -14q-23 2 -52 4q-25 2 -58.5 3t-73.5 1q-57 0 -121 -4t-127 -15q6 12 13 50t13.5 84t12 91t8.5 70q-16 -75 -44.5 -136.5t-66.5 -105t-85 -67.5t-99 -24q-24 0 -59 3t-74.5 20t-79 52.5t-71 100t-51 163.5t-19.5 242q0 120 17.5 214.5t47 166.5t69 122.5t83 82.5
t89 46.5t87.5 14.5q47 0 85 -15.5t69 -40t54 -56t40 -62.5q-2 46 -4 100t-5 109t-7.5 108.5t-10 99.5t-12.5 81t-16 53q80 -14 149 -19t125 -5q36 0 65 1.5t49 3.5q24 2 42 5q-11 -50 -20 -130.5t-15.5 -181.5t-10 -216.5t-3.5 -235.5q0 -111 3.5 -221t11.5 -211.5t21 -190
t31 -155.5zM664 559v162q0 27 -3 55t-13.5 51t-30.5 37.5t-54 14.5q-24 0 -41 -19t-28 -49t-18 -67t-10 -73.5t-4 -68t-1 -49.5q0 -27 2.5 -66.5t11.5 -76t27.5 -62.5t50.5 -26q36 0 58 25t33.5 62t15.5 77.5t4 72.5zM1401 1404q0 -26 -10.5 -57.5t-26 -63t-34.5 -58.5
t-36 -44l-129 16q20 17 37 37t31 41q-46 3 -75 40t-29 89q0 22 6.5 46t22.5 44t42.5 32.5t65.5 12.5q69 0 102 -37.5t33 -97.5z" />
    <glyph glyph-name="Dcroat" unicode="&#x110;" horiz-adv-x="1290" 
d="M1245 709q0 -163 -36 -280t-95 -198.5t-134 -131t-152.5 -77t-151.5 -36.5t-131 -9q-47 0 -119.5 6.5t-159.5 6.5q-51 0 -112.5 -2t-130.5 -8q33 60 56 138t39 160.5t25 164t15 149.5q-31 -6 -63 -14t-72 -19q4 12 7 30t4.5 37t2 37t0.5 29q0 51 -4 101.5t-10 101.5
q37 -16 72 -27.5t69 -17.5q-1 37 -3.5 89.5t-7.5 112t-13.5 121.5t-21 118t-29.5 101.5t-40 71.5q74 -12 140.5 -16t117.5 -4q45 0 75 1t51.5 2t36.5 3t31.5 3t37 2t51.5 1q68 0 143.5 -9.5t148 -37.5t138.5 -79t116 -134t79.5 -202.5t29.5 -284.5zM662 895
q-8 -45 -11.5 -88t-3.5 -88q0 -43 3.5 -87t11.5 -87q-29 15 -57 26t-54 17q3 -86 10.5 -144.5t20 -93.5t29.5 -50t38 -15q49 0 78 107t29 339q0 117 -7 195t-20.5 125.5t-33.5 67.5t-46 20q-38 0 -63.5 -66t-34.5 -215q29 6 57 15.5t54 21.5z" />
    <glyph glyph-name="dcroat" unicode="&#x111;" horiz-adv-x="1106" 
d="M1153 1487q-6 -38 -9 -74t-3 -74q0 -75 12 -145q-29 14 -62.5 23.5t-68.5 15.5q-6 -103 -10 -223.5t-4 -245.5q0 -111 3.5 -221t11.5 -211.5t21 -190t31 -155.5q-23 2 -52 4q-25 2 -58.5 3t-73.5 1q-57 0 -121 -4t-127 -15q6 11 12.5 47.5t13 81.5t11.5 89t8 71
q-16 -74 -44.5 -134t-66.5 -103t-84.5 -66.5t-97.5 -23.5q-24 0 -59 3t-74.5 20t-79 52.5t-71 100t-51 163.5t-19.5 242q0 120 17.5 214.5t47 166.5t69 122.5t83 82.5t89 46.5t87.5 14.5q47 0 85 -15.5t69 -40t54 -56t40 -62.5q-2 54 -4.5 117.5t-7.5 128.5
q-48 -5 -94.5 -12.5t-90.5 -18.5q4 9 6.5 24t4 31t2 31t0.5 25q0 43 -4 85t-9 85q34 -16 76 -25.5t88 -15.5q-5 32 -10.5 57t-11.5 39q80 -14 149 -19t125 -5q36 0 65 1.5t49 3.5q24 2 42 5l-13 -74q31 6 59 14t50 19zM664 721q0 27 -3 55t-13.5 51t-30.5 37.5t-54 14.5
q-24 0 -41 -19t-28 -49t-18 -67t-10 -73.5t-4 -68t-1 -49.5q0 -27 2.5 -66.5t11.5 -76t27.5 -62.5t50.5 -26q36 0 58 25t33.5 62t15.5 77.5t4 72.5v162z" />
    <glyph glyph-name="Emacron" unicode="&#x112;" horiz-adv-x="1030" 
d="M993 -14q-52 10 -106.5 15.5t-115 8.5t-129 3.5t-148.5 0.5q-38 0 -90.5 -1t-113 -5t-124.5 -11.5t-125 -19.5q22 45 38 113.5t26.5 145.5t16.5 157t9 149t3.5 119.5t0.5 69.5q0 4 -0.5 31t-1.5 70t-3 98.5t-5.5 115.5t-9 121t-13 115.5t-17 98t-22.5 69.5
q98 -14 193 -20.5t184 -6.5q109 0 204 6t166 14q83 9 151 21v-469q-58 54 -111 83t-94 43q-48 16 -90 18q-50 0 -81.5 -12.5t-49 -32t-23.5 -44t-6 -49.5q0 -26 7.5 -52t23.5 -47t41.5 -34.5t60.5 -13.5q29 0 53 13.5t41 30.5q20 19 37 44v-407q-16 38 -37.5 60t-42 32.5
t-37 13t-22.5 2.5q-65 0 -97 -40t-32 -103q0 -46 10.5 -78t28 -52t41 -29t49.5 -9q40 0 86 18t88.5 48t78 68.5t56.5 78.5zM809 1756q-6 -32 -9.5 -64.5t-3.5 -64.5t3.5 -64t9.5 -63q-24 11 -58.5 18t-72 10.5t-73 4.5t-62.5 1q-38 0 -79 -0.5t-83 -3t-82.5 -7.5t-77.5 -15
q4 9 6 22.5t3 27.5t1 27.5v22.5q0 37 -2.5 73.5t-7.5 74.5q72 -17 149.5 -21t151.5 -4q69 0 144 3t143 22z" />
    <glyph glyph-name="emacron" unicode="&#x113;" horiz-adv-x="958" 
d="M915 930q0 -75 -21.5 -146t-75.5 -126t-145.5 -88t-232.5 -33q4 -49 20.5 -82t39.5 -53t49 -30t48 -14t37 -4h15q62 7 111 32q21 10 41 25.5t36.5 37t27 49t12.5 63.5q26 -65 36.5 -121.5t10.5 -105.5q0 -90 -32.5 -165.5t-89.5 -130.5t-135.5 -85.5t-170.5 -30.5
q-90 0 -173.5 31t-148 98.5t-103 175.5t-38.5 262q0 167 48 296t129 216.5t187.5 133t223.5 45.5q58 0 111.5 -13t94 -43t64.5 -77.5t24 -116.5zM436 702q28 1 65 11.5t70 29.5t55.5 47t22.5 64q0 23 -16 37t-41 14q-35 0 -62.5 -20t-47 -50t-31.5 -66t-15 -67zM772 1474
q-6 -32 -9.5 -64.5t-3.5 -64.5t3.5 -64t9.5 -63q-24 11 -58.5 18t-72 10.5t-73 4.5t-62.5 1q-38 0 -79 -0.5t-83 -3t-82.5 -7.5t-77.5 -15q4 9 6 22.5t3 27.5t1 27.5v22.5q0 37 -2.5 73.5t-7.5 74.5q72 -17 149.5 -21t151.5 -4q69 0 144 3t143 22z" />
    <glyph glyph-name="Ebreve" unicode="&#x114;" horiz-adv-x="1030" 
d="M993 -14q-52 10 -106.5 15.5t-115 8.5t-129 3.5t-148.5 0.5q-38 0 -90.5 -1t-113 -5t-124.5 -11.5t-125 -19.5q22 45 38 113.5t26.5 145.5t16.5 157t9 149t3.5 119.5t0.5 69.5q0 4 -0.5 31t-1.5 70t-3 98.5t-5.5 115.5t-9 121t-13 115.5t-17 98t-22.5 69.5
q98 -14 193 -20.5t184 -6.5q109 0 204 6t166 14q83 9 151 21v-469q-58 54 -111 83t-94 43q-48 16 -90 18q-50 0 -81.5 -12.5t-49 -32t-23.5 -44t-6 -49.5q0 -26 7.5 -52t23.5 -47t41.5 -34.5t60.5 -13.5q29 0 53 13.5t41 30.5q20 19 37 44v-407q-16 38 -37.5 60t-42 32.5
t-37 13t-22.5 2.5q-65 0 -97 -40t-32 -103q0 -46 10.5 -78t28 -52t41 -29t49.5 -9q40 0 86 18t88.5 48t78 68.5t56.5 78.5zM830 1850q-22 -19 -34.5 -53t-24.5 -74t-28 -82t-43.5 -75.5t-71.5 -55t-112 -21.5q-69 0 -113 19.5t-72 50.5t-44 69t-28 76.5t-24.5 72.5t-33.5 56
q32 0 68.5 5.5t73 14.5t72 19.5t65.5 20.5q-4 -20 -5.5 -41t-1.5 -41q0 -13 2.5 -33.5t9 -40t18.5 -33.5t30 -14q15 0 25 10.5t16 25.5t8 31t2 27q0 28 -4 55.5t-10 53.5q52 -19 115 -31t122 -12h23z" />
    <glyph glyph-name="ebreve" unicode="&#x115;" horiz-adv-x="958" 
d="M915 930q0 -75 -21.5 -146t-75.5 -126t-145.5 -88t-232.5 -33q4 -49 20.5 -82t39.5 -53t49 -30t48 -14t37 -4h15q62 7 111 32q21 10 41 25.5t36.5 37t27 49t12.5 63.5q26 -65 36.5 -121.5t10.5 -105.5q0 -90 -32.5 -165.5t-89.5 -130.5t-135.5 -85.5t-170.5 -30.5
q-90 0 -173.5 31t-148 98.5t-103 175.5t-38.5 262q0 167 48 296t129 216.5t187.5 133t223.5 45.5q58 0 111.5 -13t94 -43t64.5 -77.5t24 -116.5zM436 702q28 1 65 11.5t70 29.5t55.5 47t22.5 64q0 23 -16 37t-41 14q-35 0 -62.5 -20t-47 -50t-31.5 -66t-15 -67zM793 1597
q-22 -19 -34.5 -53t-24.5 -74t-28 -82t-43.5 -75.5t-71.5 -55t-112 -21.5q-69 0 -113 19.5t-72 50.5t-44 69t-28 76.5t-24.5 72.5t-33.5 56q32 0 68.5 5.5t73 14.5t72 19.5t65.5 20.5q-4 -20 -5.5 -41t-1.5 -41q0 -13 2.5 -33.5t9 -40t18.5 -33.5t30 -14q15 0 25 10.5
t16 25.5t8 31t2 27q0 28 -4 55.5t-10 53.5q52 -19 115 -31t122 -12h23z" />
    <glyph glyph-name="Edotaccent" unicode="&#x116;" horiz-adv-x="1030" 
d="M993 -14q-52 10 -106.5 15.5t-115 8.5t-129 3.5t-148.5 0.5q-38 0 -90.5 -1t-113 -5t-124.5 -11.5t-125 -19.5q22 45 38 113.5t26.5 145.5t16.5 157t9 149t3.5 119.5t0.5 69.5q0 4 -0.5 31t-1.5 70t-3 98.5t-5.5 115.5t-9 121t-13 115.5t-17 98t-22.5 69.5
q98 -14 193 -20.5t184 -6.5q109 0 204 6t166 14q83 9 151 21v-469q-58 54 -111 83t-94 43q-48 16 -90 18q-50 0 -81.5 -12.5t-49 -32t-23.5 -44t-6 -49.5q0 -26 7.5 -52t23.5 -47t41.5 -34.5t60.5 -13.5q29 0 53 13.5t41 30.5q20 19 37 44v-407q-16 38 -37.5 60t-42 32.5
t-37 13t-22.5 2.5q-65 0 -97 -40t-32 -103q0 -46 10.5 -78t28 -52t41 -29t49.5 -9q40 0 86 18t88.5 48t78 68.5t56.5 78.5zM350 1651q0 34 13 63.5t35.5 52t52 35.5t63.5 13t63.5 -13t52 -35.5t35.5 -52t13 -63.5t-13 -63.5t-35.5 -52t-52 -35.5t-63.5 -13t-63.5 13
t-52 35.5t-35.5 52t-13 63.5z" />
    <glyph glyph-name="edotaccent" unicode="&#x117;" horiz-adv-x="958" 
d="M915 930q0 -75 -21.5 -146t-75.5 -126t-145.5 -88t-232.5 -33q4 -49 20.5 -82t39.5 -53t49 -30t48 -14t37 -4h15q62 7 111 32q21 10 41 25.5t36.5 37t27 49t12.5 63.5q26 -65 36.5 -121.5t10.5 -105.5q0 -90 -32.5 -165.5t-89.5 -130.5t-135.5 -85.5t-170.5 -30.5
q-90 0 -173.5 31t-148 98.5t-103 175.5t-38.5 262q0 167 48 296t129 216.5t187.5 133t223.5 45.5q58 0 111.5 -13t94 -43t64.5 -77.5t24 -116.5zM436 702q28 1 65 11.5t70 29.5t55.5 47t22.5 64q0 23 -16 37t-41 14q-35 0 -62.5 -20t-47 -50t-31.5 -66t-15 -67zM315 1412
q0 34 13 63.5t35.5 52t52 35.5t63.5 13t63.5 -13t52 -35.5t35.5 -52t13 -63.5t-13 -63.5t-35.5 -52t-52 -35.5t-63.5 -13t-63.5 13t-52 35.5t-35.5 52t-13 63.5z" />
    <glyph glyph-name="Eogonek" unicode="&#x118;" horiz-adv-x="1030" 
d="M993 -295q-21 -2 -47 -17t-56.5 -32.5t-65 -32t-72.5 -14.5q-37 0 -68 14.5t-53 39.5t-34.5 57.5t-12.5 68.5q0 21 9.5 49t24.5 58t33.5 60.5t36.5 55.5q-45 2 -92.5 2h-101.5q-38 0 -90.5 -1t-113 -5t-124.5 -11.5t-125 -19.5q22 45 38 113.5t26.5 145.5t16.5 157t9 149
t3.5 119.5t0.5 69.5q0 4 -0.5 31t-1.5 70t-3 98.5t-5.5 115.5t-9 121t-13 115.5t-17 98t-22.5 69.5q98 -14 193 -20.5t184 -6.5q109 0 204 6t166 14q83 9 151 21v-469q-58 54 -111 83t-94 43q-48 16 -90 18q-50 0 -81.5 -12.5t-49 -32t-23.5 -44t-6 -49.5q0 -26 7.5 -52
t23.5 -47t41.5 -34.5t60.5 -13.5q27 0 50 12.5t40 27.5t28 29t13 17v-405q-16 38 -37.5 60t-42 32.5t-37 13t-22.5 2.5q-65 0 -97 -40t-32 -103q0 -46 10.5 -78t28 -52t41 -29t49.5 -9q40 0 86 18t88.5 48t78 68.5t56.5 78.5l53 -559q-45 9 -91 14t-97 8q-14 -23 -28 -49
t-25 -51t-18 -47t-7 -37q0 -22 13.5 -32.5t33.5 -10.5q18 0 32.5 10t26 24.5t20 31t13.5 30.5q9 -23 22 -47.5t29.5 -47.5t35.5 -43t40 -34z" />
    <glyph glyph-name="eogonek" unicode="&#x119;" horiz-adv-x="958" 
d="M924 -295q-22 -2 -48 -17t-56.5 -32.5t-65 -32t-72.5 -14.5q-37 0 -67.5 14.5t-53 39.5t-35 57.5t-12.5 68.5q0 26 15 63.5t36 75.5q-17 -3 -34.5 -4.5t-34.5 -1.5q-90 0 -173.5 31t-148 98.5t-103 175.5t-38.5 262q0 167 48 296t129 216.5t187.5 133t223.5 45.5
q58 0 111.5 -13t94 -43t64.5 -77.5t24 -116.5q0 -75 -21.5 -146t-75.5 -126t-145.5 -88t-232.5 -33q4 -49 20.5 -82t39.5 -53t49 -30t48 -14t37 -4h15q62 7 111 32q21 10 41 25.5t36.5 37t27 49t12.5 63.5q26 -65 36.5 -121.5t10.5 -105.5q0 -60 -15 -113.5t-42 -99.5
t-65 -82.5t-85 -61.5q-12 -21 -22.5 -43t-19 -42.5t-13.5 -38t-5 -29.5q0 -22 14 -32.5t34 -10.5q18 0 32.5 10t25.5 24.5t19.5 31t14.5 30.5q8 -23 21 -47.5t29.5 -47.5t36 -43t40.5 -34zM436 702q28 1 65 11.5t70 29.5t55.5 47t22.5 64q0 23 -16 37t-41 14
q-35 0 -62.5 -20t-47 -50t-31.5 -66t-15 -67z" />
    <glyph glyph-name="Ecaron" unicode="&#x11a;" horiz-adv-x="1030" 
d="M993 -14q-52 10 -106.5 15.5t-115 8.5t-129 3.5t-148.5 0.5q-38 0 -90.5 -1t-113 -5t-124.5 -11.5t-125 -19.5q22 45 38 113.5t26.5 145.5t16.5 157t9 149t3.5 119.5t0.5 69.5q0 4 -0.5 31t-1.5 70t-3 98.5t-5.5 115.5t-9 121t-13 115.5t-17 98t-22.5 69.5
q98 -14 193 -20.5t184 -6.5q109 0 204 6t166 14q83 9 151 21v-469q-58 54 -111 83t-94 43q-48 16 -90 18q-50 0 -81.5 -12.5t-49 -32t-23.5 -44t-6 -49.5q0 -26 7.5 -52t23.5 -47t41.5 -34.5t60.5 -13.5q29 0 53 13.5t41 30.5q20 19 37 44v-407q-16 38 -37.5 60t-42 32.5
t-37 13t-22.5 2.5q-65 0 -97 -40t-32 -103q0 -46 10.5 -78t28 -52t41 -29t49.5 -9q40 0 86 18t88.5 48t78 68.5t56.5 78.5zM856 1819q-37 -30 -72 -69t-66 -83.5t-55.5 -91.5t-39.5 -92q-26 6 -54.5 7t-54.5 1q-34 0 -66.5 -1.5t-64.5 -6.5q-16 42 -38.5 89t-50 92t-58.5 86
t-64 73q66 20 131.5 46.5t128.5 55.5q0 -35 3.5 -74.5t11 -79.5t20.5 -77t33 -66q31 54 51 114t20 122q0 15 -1 30.5t-3 30.5q66 -35 141.5 -59.5t147.5 -46.5z" />
    <glyph glyph-name="ecaron" unicode="&#x11b;" horiz-adv-x="958" 
d="M915 930q0 -75 -21.5 -146t-75.5 -126t-145.5 -88t-232.5 -33q4 -49 20.5 -82t39.5 -53t49 -30t48 -14t37 -4h15q62 7 111 32q21 10 41 25.5t36.5 37t27 49t12.5 63.5q26 -65 36.5 -121.5t10.5 -105.5q0 -90 -32.5 -165.5t-89.5 -130.5t-135.5 -85.5t-170.5 -30.5
q-90 0 -173.5 31t-148 98.5t-103 175.5t-38.5 262q0 167 48 296t129 216.5t187.5 133t223.5 45.5q58 0 111.5 -13t94 -43t64.5 -77.5t24 -116.5zM436 702q28 1 65 11.5t70 29.5t55.5 47t22.5 64q0 23 -16 37t-41 14q-35 0 -62.5 -20t-47 -50t-31.5 -66t-15 -67zM821 1566
q-37 -30 -72 -69t-66 -83.5t-55.5 -91.5t-39.5 -92q-26 6 -54.5 7t-54.5 1q-34 0 -66.5 -1.5t-64.5 -6.5q-16 42 -38.5 89t-50 92t-58.5 86t-64 73q66 20 131.5 46.5t128.5 55.5q0 -35 3.5 -74.5t11 -79.5t20.5 -77t33 -66q31 54 51 114t20 122q0 15 -1 30.5t-3 30.5
q66 -35 141.5 -59.5t147.5 -46.5z" />
    <glyph glyph-name="Gcircumflex" unicode="&#x11c;" horiz-adv-x="1208" 
d="M1188 752q-82 -203 -82 -394q0 -92 17 -185.5t53 -190.5q-57 14 -106 21t-97 7q-51 0 -104 -9t-115 -28l41 160q-20 -32 -48 -65.5t-66.5 -60.5t-88 -44.5t-113.5 -17.5q-96 0 -176.5 46t-138.5 133t-90.5 213.5t-32.5 287.5q0 107 20 212.5t58 201t94 177t127 141
t157.5 93t186.5 33.5q91 0 159 -18.5t118 -49t82.5 -70t51.5 -82.5t27 -85.5t8 -79.5q0 -53 -18.5 -102t-51.5 -86t-78 -59t-99 -22q-56 0 -97 17t-68 44.5t-40.5 61.5t-13.5 68q0 29 10 59t28 56q6 -21 17 -32.5t22 -16.5q12 -6 27 -7q34 0 48.5 17t14.5 39q0 10 -4.5 20.5
t-13.5 19.5t-23.5 15t-35.5 6q-14 0 -38.5 -5.5t-53 -21.5t-57.5 -45.5t-53 -78.5t-39 -120t-15 -169q0 -81 13.5 -142t37.5 -102t57 -61.5t72 -20.5q37 0 61 19t38 46t19 56t5 49q0 1 -1.5 14t-9.5 30t-26 35t-51 30q118 0 237 10.5t238 32.5zM1038 1645
q-72 -22 -147.5 -47t-141.5 -60q2 16 3 31t1 30q0 62 -20 122t-51 114q-20 -30 -33 -67.5t-20.5 -77.5t-11 -79t-3.5 -73q-63 29 -128.5 55.5t-131.5 46.5q33 31 64 72.5t58.5 87t50 92t38.5 88.5q32 -3 64.5 -5.5t66.5 -2.5q26 0 54.5 1.5t54.5 6.5q15 -45 39.5 -92
t55.5 -91t66 -83t72 -69z" />
    <glyph glyph-name="gcircumflex" unicode="&#x11d;" horiz-adv-x="1104" 
d="M1069 1149q-11 -42 -18.5 -102.5t-13.5 -132t-9.5 -148.5t-6.5 -151q-6 -174 -7 -369q0 -102 -12.5 -199.5t-40 -183.5t-71.5 -159t-106.5 -125t-144.5 -81.5t-186 -29.5q-97 0 -168 20t-117.5 56.5t-69 87t-22.5 112.5q0 61 21 110t55 83.5t76.5 52.5t86.5 18
q57 0 107 -32t76 -101q-12 8 -29 8q-23 0 -43 -18.5t-20 -44.5q0 -15 5.5 -25.5t14.5 -16.5t19.5 -8.5t19.5 -2.5q11 0 30.5 3.5t42.5 19.5t46 49t42 91t30.5 147t11.5 216q-20 -89 -50 -140t-64 -76.5t-69.5 -31.5t-66.5 -6q-24 0 -61 8.5t-78.5 30t-84 59t-76.5 95
t-55.5 138t-21.5 189.5q0 168 34.5 284t89 187.5t120.5 103t129 31.5q45 0 82 -14.5t67 -38.5t53 -53.5t41 -59.5q-6 44 -14.5 88t-19.5 89q25 -11 62 -20q32 -8 80 -13.5t116 -5.5q80 0 188 12zM643 647q0 28 -4 67.5t-15 76t-30.5 62.5t-50.5 26q-23 0 -42 -26.5
t-32.5 -64t-21 -77.5t-7.5 -68q0 -48 5 -98t16.5 -90.5t29 -66.5t41.5 -26q26 0 46.5 12.5t35 34t22 49.5t7.5 60v129zM893 1341q-72 -22 -147.5 -47t-141.5 -60q2 16 3 31t1 30q0 62 -20 122t-51 114q-20 -30 -33 -67.5t-20.5 -77.5t-11 -79t-3.5 -73q-63 29 -128.5 55.5
t-131.5 46.5q33 31 64 72.5t58.5 87t50 92t38.5 88.5q32 -3 64.5 -5.5t66.5 -2.5q26 0 54.5 1.5t54.5 6.5q15 -45 39.5 -92t55.5 -91t66 -83t72 -69z" />
    <glyph glyph-name="Gbreve" unicode="&#x11e;" horiz-adv-x="1208" 
d="M1188 752q-82 -203 -82 -394q0 -92 17 -185.5t53 -190.5q-57 14 -106 21t-97 7q-51 0 -104 -9t-115 -28l41 160q-20 -32 -48 -65.5t-66.5 -60.5t-88 -44.5t-113.5 -17.5q-96 0 -176.5 46t-138.5 133t-90.5 213.5t-32.5 287.5q0 107 20 212.5t58 201t94 177t127 141
t157.5 93t186.5 33.5q91 0 159 -18.5t118 -49t82.5 -70t51.5 -82.5t27 -85.5t8 -79.5q0 -53 -18.5 -102t-51.5 -86t-78 -59t-99 -22q-56 0 -97 17t-68 44.5t-40.5 61.5t-13.5 68q0 29 10 59t28 56q6 -21 17 -32.5t22 -16.5q12 -6 27 -7q34 0 48.5 17t14.5 39q0 10 -4.5 20.5
t-13.5 19.5t-23.5 15t-35.5 6q-14 0 -38.5 -5.5t-53 -21.5t-57.5 -45.5t-53 -78.5t-39 -120t-15 -169q0 -81 13.5 -142t37.5 -102t57 -61.5t72 -20.5q37 0 61 19t38 46t19 56t5 49q0 1 -1.5 14t-9.5 30t-26 35t-51 30q118 0 237 10.5t238 32.5zM955 1895q-22 -19 -34.5 -53
t-24.5 -74t-28 -82t-43.5 -75.5t-71.5 -55t-112 -21.5q-69 0 -113 19.5t-72 50.5t-44 69t-28 76.5t-24.5 72.5t-33.5 56q32 0 68.5 5.5t73 14.5t72 19.5t65.5 20.5q-4 -20 -5.5 -41t-1.5 -41q0 -13 2.5 -33.5t9 -40t18.5 -33.5t30 -14q15 0 25 10.5t16 25.5t8 31t2 27
q0 28 -4 55.5t-10 53.5q52 -19 115 -31t122 -12h23z" />
    <glyph glyph-name="gbreve" unicode="&#x11f;" horiz-adv-x="1104" 
d="M1069 1149q-11 -42 -18.5 -102.5t-13.5 -132t-9.5 -148.5t-6.5 -151q-6 -174 -7 -369q0 -102 -12.5 -199.5t-40 -183.5t-71.5 -159t-106.5 -125t-144.5 -81.5t-186 -29.5q-97 0 -168 20t-117.5 56.5t-69 87t-22.5 112.5q0 61 21 110t55 83.5t76.5 52.5t86.5 18
q57 0 107 -32t76 -101q-12 8 -29 8q-23 0 -43 -18.5t-20 -44.5q0 -15 5.5 -25.5t14.5 -16.5t19.5 -8.5t19.5 -2.5q11 0 30.5 3.5t42.5 19.5t46 49t42 91t30.5 147t11.5 216q-20 -89 -50 -140t-64 -76.5t-69.5 -31.5t-66.5 -6q-24 0 -61 8.5t-78.5 30t-84 59t-76.5 95
t-55.5 138t-21.5 189.5q0 168 34.5 284t89 187.5t120.5 103t129 31.5q45 0 82 -14.5t67 -38.5t53 -53.5t41 -59.5q-6 44 -14.5 88t-19.5 89q25 -11 62 -20q32 -8 80 -13.5t116 -5.5q80 0 188 12zM643 647q0 28 -4 67.5t-15 76t-30.5 62.5t-50.5 26q-23 0 -42 -26.5
t-32.5 -64t-21 -77.5t-7.5 -68q0 -48 5 -98t16.5 -90.5t29 -66.5t41.5 -26q26 0 46.5 12.5t35 34t22 49.5t7.5 60v129zM867 1585q-22 -19 -34.5 -53t-24.5 -74t-28 -82t-43.5 -75.5t-71.5 -55t-112 -21.5q-69 0 -113 19.5t-72 50.5t-44 69t-28 76.5t-24.5 72.5t-33.5 56
q32 0 68.5 5.5t73 14.5t72 19.5t65.5 20.5q-4 -20 -5.5 -41t-1.5 -41q0 -13 2.5 -33.5t9 -40t18.5 -33.5t30 -14q15 0 25 10.5t16 25.5t8 31t2 27q0 28 -4 55.5t-10 53.5q52 -19 115 -31t122 -12h23z" />
    <glyph glyph-name="Gdotaccent" unicode="&#x120;" horiz-adv-x="1208" 
d="M1188 752q-82 -203 -82 -394q0 -92 17 -185.5t53 -190.5q-57 14 -106 21t-97 7q-51 0 -104 -9t-115 -28l41 160q-20 -32 -48 -65.5t-66.5 -60.5t-88 -44.5t-113.5 -17.5q-96 0 -176.5 46t-138.5 133t-90.5 213.5t-32.5 287.5q0 107 20 212.5t58 201t94 177t127 141
t157.5 93t186.5 33.5q91 0 159 -18.5t118 -49t82.5 -70t51.5 -82.5t27 -85.5t8 -79.5q0 -53 -18.5 -102t-51.5 -86t-78 -59t-99 -22q-56 0 -97 17t-68 44.5t-40.5 61.5t-13.5 68q0 29 10 59t28 56q6 -21 17 -32.5t22 -16.5q12 -6 27 -7q34 0 48.5 17t14.5 39q0 10 -4.5 20.5
t-13.5 19.5t-23.5 15t-35.5 6q-14 0 -38.5 -5.5t-53 -21.5t-57.5 -45.5t-53 -78.5t-39 -120t-15 -169q0 -81 13.5 -142t37.5 -102t57 -61.5t72 -20.5q37 0 61 19t38 46t19 56t5 49q0 1 -1.5 14t-9.5 30t-26 35t-51 30q118 0 237 10.5t238 32.5zM543 1702q0 34 13 63.5
t35.5 52t52 35.5t63.5 13t63.5 -13t52 -35.5t35.5 -52t13 -63.5t-13 -63.5t-35.5 -52t-52 -35.5t-63.5 -13t-63.5 13t-52 35.5t-35.5 52t-13 63.5z" />
    <glyph glyph-name="gdotaccent" unicode="&#x121;" horiz-adv-x="1104" 
d="M1069 1149q-11 -42 -18.5 -102.5t-13.5 -132t-9.5 -148.5t-6.5 -151q-6 -174 -7 -369q0 -102 -12.5 -199.5t-40 -183.5t-71.5 -159t-106.5 -125t-144.5 -81.5t-186 -29.5q-97 0 -168 20t-117.5 56.5t-69 87t-22.5 112.5q0 61 21 110t55 83.5t76.5 52.5t86.5 18
q57 0 107 -32t76 -101q-12 8 -29 8q-23 0 -43 -18.5t-20 -44.5q0 -15 5.5 -25.5t14.5 -16.5t19.5 -8.5t19.5 -2.5q11 0 30.5 3.5t42.5 19.5t46 49t42 91t30.5 147t11.5 216q-20 -89 -50 -140t-64 -76.5t-69.5 -31.5t-66.5 -6q-24 0 -61 8.5t-78.5 30t-84 59t-76.5 95
t-55.5 138t-21.5 189.5q0 168 34.5 284t89 187.5t120.5 103t129 31.5q45 0 82 -14.5t67 -38.5t53 -53.5t41 -59.5q-6 44 -14.5 88t-19.5 89q25 -11 62 -20q32 -8 80 -13.5t116 -5.5q80 0 188 12zM643 647q0 28 -4 67.5t-15 76t-30.5 62.5t-50.5 26q-23 0 -42 -26.5
t-32.5 -64t-21 -77.5t-7.5 -68q0 -48 5 -98t16.5 -90.5t29 -66.5t41.5 -26q26 0 46.5 12.5t35 34t22 49.5t7.5 60v129zM387 1400q0 34 13 63.5t35.5 52t52 35.5t63.5 13t63.5 -13t52 -35.5t35.5 -52t13 -63.5t-13 -63.5t-35.5 -52t-52 -35.5t-63.5 -13t-63.5 13t-52 35.5
t-35.5 52t-13 63.5z" />
    <glyph glyph-name="Gcommaaccent" unicode="&#x122;" horiz-adv-x="1208" 
d="M1188 752q-82 -203 -82 -394q0 -92 17 -185.5t53 -190.5q-57 14 -106 21t-97 7q-51 0 -104 -9t-115 -28l41 160q-20 -32 -48 -65.5t-66.5 -60.5t-88 -44.5t-113.5 -17.5q-96 0 -176.5 46t-138.5 133t-90.5 213.5t-32.5 287.5q0 107 20 212.5t58 201t94 177t127 141
t157.5 93t186.5 33.5q91 0 159 -18.5t118 -49t82.5 -70t51.5 -82.5t27 -85.5t8 -79.5q0 -53 -18.5 -102t-51.5 -86t-78 -59t-99 -22q-56 0 -97 17t-68 44.5t-40.5 61.5t-13.5 68q0 29 10 59t28 56q6 -21 17 -32.5t22 -16.5q12 -6 27 -7q34 0 48.5 17t14.5 39q0 10 -4.5 20.5
t-13.5 19.5t-23.5 15t-35.5 6q-14 0 -38.5 -5.5t-53 -21.5t-57.5 -45.5t-53 -78.5t-39 -120t-15 -169q0 -81 13.5 -142t37.5 -102t57 -61.5t72 -20.5q37 0 61 19t38 46t19 56t5 49q0 1 -1.5 14t-9.5 30t-26 35t-51 30q118 0 237 10.5t238 32.5zM774 -247q0 -26 -10.5 -57.5
t-26 -63t-34.5 -59t-36 -43.5l-129 16q20 16 37 36t31 42q-23 1 -42.5 12t-33.5 28.5t-22 40t-8 48.5q0 21 7 45t23 44t42 33t65 13q69 0 103 -37.5t34 -97.5z" />
    <glyph glyph-name="gcommaaccent" unicode="&#x123;" horiz-adv-x="1104" 
d="M1069 1149q-11 -42 -18.5 -102.5t-13.5 -132t-9.5 -148.5t-6.5 -151q-6 -174 -7 -369q0 -102 -12.5 -199.5t-40 -183.5t-71.5 -159t-106.5 -125t-144.5 -81.5t-186 -29.5q-97 0 -168 20t-117.5 56.5t-69 87t-22.5 112.5q0 61 21 110t55 83.5t76.5 52.5t86.5 18
q57 0 107 -32t76 -101q-12 8 -29 8q-23 0 -43 -18.5t-20 -44.5q0 -15 5.5 -25.5t14.5 -16.5t19.5 -8.5t19.5 -2.5q11 0 30.5 3.5t42.5 19.5t46 49t42 91t30.5 147t11.5 216q-20 -89 -50 -140t-64 -76.5t-69.5 -31.5t-66.5 -6q-24 0 -61 8.5t-78.5 30t-84 59t-76.5 95
t-55.5 138t-21.5 189.5q0 168 34.5 284t89 187.5t120.5 103t129 31.5q45 0 82 -14.5t67 -38.5t53 -53.5t41 -59.5q-6 44 -14.5 88t-19.5 89q25 -11 62 -20q32 -8 80 -13.5t116 -5.5q80 0 188 12zM643 647q0 28 -4 67.5t-15 76t-30.5 62.5t-50.5 26q-23 0 -42 -26.5
t-32.5 -64t-21 -77.5t-7.5 -68q0 -48 5 -98t16.5 -90.5t29 -66.5t41.5 -26q26 0 46.5 12.5t35 34t22 49.5t7.5 60v129zM397 1372q0 26 10.5 58t26 63.5t34.5 58.5t36 43l131 -17q-22 -15 -39 -34.5t-33 -42.5q24 -2 43.5 -12.5t34 -27.5t22 -40t7.5 -49q0 -22 -7 -46
t-23 -44t-42 -33t-63 -13q-72 0 -105 38t-33 98z" />
    <glyph glyph-name="Hcircumflex" unicode="&#x124;" horiz-adv-x="1282" 
d="M612 6q-19 2 -44 4q-21 2 -52 3t-70 1q-75 0 -179.5 -7t-229.5 -27q22 45 38 114t26.5 147.5t16.5 159.5t9 151t3.5 121t0.5 70q0 4 -0.5 31t-1.5 70t-3 98.5t-5.5 115.5t-9 121t-13 115t-17 97.5t-22.5 68.5q97 -17 183 -23.5t157 -6.5q49 0 89 2t68 5q33 3 58 7
q-45 -125 -63.5 -238.5t-18.5 -199.5q0 -110 29 -161.5t80 -51.5q63 0 89 64.5t26 178.5q0 62 -6 125t-17.5 121t-27 109t-33.5 90q100 -19 187 -25t155 -6q46 0 82 2t62 4q30 3 52 6q-11 -56 -20.5 -127t-16.5 -152.5t-10.5 -172.5t-3.5 -187q0 -109 5 -221.5t16.5 -222.5
t29 -214.5t41.5 -197.5q-19 2 -44 4q-21 2 -52 3t-70 1q-75 0 -179.5 -7t-229.5 -27q14 28 27 72t23 95t16 105.5t6 103.5q0 94 -26.5 142.5t-74.5 48.5q-42 0 -68 -39t-26 -123q0 -39 5 -82t13 -87t19 -87.5t22 -83.5zM983 1635q-72 -22 -147.5 -47t-141.5 -60q2 16 3 31
t1 30q0 62 -20 122t-51 114q-20 -30 -33 -67.5t-20.5 -77.5t-11 -79t-3.5 -73q-63 29 -128.5 55.5t-131.5 46.5q33 31 64 72.5t58.5 87t50 92t38.5 88.5q32 -3 64.5 -5.5t66.5 -2.5q26 0 54.5 1.5t54.5 6.5q15 -45 39.5 -92t55.5 -91t66 -83t72 -69z" />
    <glyph glyph-name="hcircumflex" unicode="&#x125;" horiz-adv-x="1094" 
d="M1069 -41q-54 8 -120 12t-132 4q-63 0 -121.5 -4t-101.5 -10q21 72 33.5 149t19 160.5t8.5 174.5t2 192q0 15 -1.5 40t-5.5 54t-11.5 58.5t-19.5 53.5t-29.5 39t-40.5 15q-15 0 -29.5 -15.5t-29.5 -41t-29 -59t-27 -70.5q2 -102 7.5 -201.5t15 -191t22.5 -172t31 -142.5
q-17 1 -40 3q-20 1 -47.5 2t-62.5 1q-65 0 -149.5 -5.5t-183.5 -20.5q14 28 25 77.5t19 112t13.5 133t9 141.5t5 137.5t2.5 120t1 90.5v48q-2 167 -9 310q-3 60 -7 121t-10 114t-13.5 93t-17.5 60q81 -14 150 -19t124 -5q36 0 65 1.5t49 3.5q24 2 42 5q-8 -35 -14 -84
t-11 -110t-8.5 -131t-5.5 -146q57 89 123 125.5t137 36.5t130.5 -31.5t103 -97t68 -165.5t24.5 -237q0 -94 0.5 -194.5t4.5 -197t14 -183.5t28 -154zM999.363 1338.12q-55.6172 -17.0088 -113.938 -36.3369q-58.3213 -19.3281 -109.304 -46.3877
q1.54492 12.3701 2.31738 23.9668q0.772461 11.5977 0.772461 23.1943q0 47.9346 -15.4492 94.3223t-39.3955 88.1367q-15.4492 -23.1943 -25.4912 -52.1865t-15.835 -59.918q-5.79395 -30.9248 -8.49805 -61.0771q-2.70312 -30.1523 -2.70312 -56.4385
q-48.665 22.4209 -99.2617 42.9092q-50.5957 20.4873 -101.578 35.9502q25.4912 23.9668 49.4375 56.0518t45.1895 67.2627q21.2422 35.1777 38.623 71.1279q17.3799 35.9512 29.7393 68.4229q24.7188 -2.31934 49.8232 -4.25195q25.1055 -1.93359 51.3691 -1.93359
q20.084 0 42.0996 1.16016q22.0146 1.15918 42.0986 5.02539q11.5869 -34.791 30.5127 -71.1279q18.9248 -36.3379 42.8711 -70.3555t50.9824 -64.1699t55.6172 -53.3467z" />
    <glyph glyph-name="Hbar" unicode="&#x126;" horiz-adv-x="1282" 
d="M1255 1241q-8 -45 -12 -88t-4 -88q0 -43 4 -87t12 -87q-17 8 -41 15t-55 12v-95q0 -109 5 -221.5t16.5 -222.5t29 -214.5t41.5 -197.5q-19 2 -44 4q-21 2 -52 3t-70 1q-75 0 -179.5 -7t-229.5 -27q14 28 27 72t23 95t16 105.5t6 103.5q0 94 -26.5 142.5t-74.5 48.5
q-42 0 -68 -39t-26 -123q0 -39 5 -82t13 -87t19 -87.5t22 -83.5q-19 2 -44 4q-21 2 -52 3t-70 1q-75 0 -179.5 -7t-229.5 -27q22 45 38 114t26.5 147.5t16.5 159.5t9 151t3.5 121t0.5 70q0 3 -0.5 17.5t-1 38.5t-1 56t-1.5 69q-31 -5 -55.5 -9.5t-44.5 -9.5q4 12 7 30
t4.5 37t2 37t0.5 29q0 51 -4 101.5t-10 101.5q29 -13 82 -22q-8 78 -20.5 142.5t-29.5 98.5q97 -17 183 -23.5t157 -6.5q49 0 89 2t68 5q33 3 58 7q-24 -69 -41 -134.5t-26 -127.5h92h45t64 2q-11 86 -30.5 164.5t-45.5 132.5q100 -19 187 -25t155 -6q46 0 82 2t62 4
q30 3 52 6q-11 -51 -19.5 -111.5t-14.5 -131.5q24 5 44.5 10.5t34.5 11.5zM641 793q51 0 77 42t34 117q-26 2 -48.5 2h-37.5q-26 0 -59.5 -1t-71.5 -1q6 -81 33.5 -120t72.5 -39z" />
    <glyph glyph-name="hbar" unicode="&#x127;" horiz-adv-x="1094" 
d="M596 1495q-6 -32 -10 -64.5t-4 -64.5t4 -64.5t10 -64.5q-31 15 -70.5 24t-81.5 15q-3 -51 -4.5 -105.5t-3.5 -113.5q57 89 123 125.5t137 36.5t130.5 -31.5t103 -97t68 -165.5t24.5 -237q0 -94 0.5 -194.5t4.5 -197t14 -183.5t28 -154q-54 8 -120 12t-132 4
q-63 0 -121.5 -4t-101.5 -10q21 72 33.5 149t19 160.5t8.5 174.5t2 192q0 15 -1.5 40t-5.5 54t-11.5 58.5t-19.5 53.5t-29.5 39t-40.5 15q-15 0 -29.5 -15.5t-29.5 -41t-29 -59t-27 -70.5q2 -102 7.5 -201.5t15 -191t22.5 -172t31 -142.5q-17 1 -40 3q-20 1 -47.5 2t-62.5 1
q-65 0 -149.5 -5.5t-183.5 -20.5q14 28 25 77.5t19 112t13.5 133t9 141.5t5 137.5t2.5 120t1 90.5v48q-1 67 -3 139q-2 62 -5 138t-8 151q-31 -5 -61.5 -11t-59.5 -14q3 9 5 22t3 27.5t1.5 27.5t0.5 22q0 38 -2.5 75t-7.5 74q22 -9 46.5 -15.5t51.5 -11.5q-5 25 -8.5 43.5
t-9.5 30.5q81 -14 150 -19t124 -5q36 0 65 1.5t49 3.5q24 2 42 5l-12 -64q38 5 73 12.5t60 18.5z" />
    <glyph glyph-name="Itilde" unicode="&#x128;" horiz-adv-x="672" 
d="M633 6q-21 2 -47 4q-23 2 -55 3t-74 1q-81 0 -188 -7t-232 -27q22 45 38 114t26.5 147.5t16.5 159.5t9 151t3.5 121t0.5 70q0 4 -0.5 31t-1.5 70t-3 98.5t-5.5 115.5t-9 121t-13 115t-17 97.5t-22.5 68.5q101 -18 185.5 -24t152.5 -6q45 0 81 2t61 4q29 3 51 6
q-12 -56 -21 -124.5t-16 -146t-10.5 -162.5t-3.5 -175q0 -104 5 -211.5t16.5 -213.5t29 -208t43.5 -195zM716 1678q-27 -33 -51.5 -60t-51.5 -46t-59 -29.5t-74 -10.5q-35 0 -59 12.5t-46 27.5t-45.5 27.5t-56.5 12.5q-32 0 -56.5 -11.5t-42 -31t-29 -44t-17.5 -50.5
q-29 59 -70 108t-98 74q37 40 66.5 70t59.5 49.5t63 29t77 9.5q31 0 56.5 -12t48.5 -26t44 -26t44 -12q22 0 40.5 11t32 28t22 37.5t11.5 40.5q16 -21 39 -47t48.5 -51.5t52.5 -47t51 -32.5z" />
    <glyph glyph-name="itilde" unicode="&#x129;" horiz-adv-x="551" 
d="M518 4q-17 1 -40 3q-20 1 -47 2t-62 1q-65 0 -150 -5.5t-184 -20.5q19 38 32 95.5t21.5 123t13 132.5t6.5 123t2.5 95t0.5 49q-2 130 -9 243q-3 48 -7.5 97t-10.5 92.5t-13.5 78t-17.5 54.5q81 -14 150 -19t125 -5q36 0 64.5 1.5t48.5 3.5q24 2 42 5q-18 -90 -29.5 -217
t-11.5 -272q0 -83 4 -168t13 -169.5t23.5 -166t35.5 -156.5zM628 1400q-27 -33 -51.5 -60t-51.5 -46t-59 -29.5t-74 -10.5q-35 0 -59 12.5t-46 27.5t-45.5 27.5t-56.5 12.5q-32 0 -56.5 -11.5t-42 -31t-29 -44t-17.5 -50.5q-29 59 -70 108t-98 74q37 40 66.5 70t59.5 49.5
t63 29t77 9.5q31 0 56.5 -12t48.5 -26t44 -26t44 -12q22 0 40.5 11t32 28t22 37.5t11.5 40.5q16 -21 39 -47t48.5 -51.5t52.5 -47t51 -32.5z" />
    <glyph glyph-name="Imacron" unicode="&#x12a;" horiz-adv-x="672" 
d="M633 6q-21 2 -47 4q-23 2 -55 3t-74 1q-81 0 -188 -7t-232 -27q22 45 38 114t26.5 147.5t16.5 159.5t9 151t3.5 121t0.5 70q0 4 -0.5 31t-1.5 70t-3 98.5t-5.5 115.5t-9 121t-13 115t-17 97.5t-22.5 68.5q101 -18 185.5 -24t152.5 -6q45 0 81 2t61 4q29 3 51 6
q-12 -56 -21 -124.5t-16 -146t-10.5 -162.5t-3.5 -175q0 -104 5 -211.5t16.5 -213.5t29 -208t43.5 -195zM629 1751q-6 -32 -9.5 -64.5t-3.5 -64.5t3.5 -64t9.5 -63q-24 11 -58.5 18t-72 10.5t-73 4.5t-62.5 1q-38 0 -79 -0.5t-83 -3t-82.5 -7.5t-77.5 -15q4 9 6 22.5t3 27.5
t1 27.5v22.5q0 37 -2.5 73.5t-7.5 74.5q72 -17 149.5 -21t151.5 -4q69 0 144 3t143 22z" />
    <glyph glyph-name="imacron" unicode="&#x12b;" horiz-adv-x="551" 
d="M518 4q-17 1 -40 3q-20 1 -47 2t-62 1q-65 0 -150 -5.5t-184 -20.5q19 38 32 95.5t21.5 123t13 132.5t6.5 123t2.5 95t0.5 49q-2 130 -9 243q-3 48 -7.5 97t-10.5 92.5t-13.5 78t-17.5 54.5q81 -14 150 -19t125 -5q36 0 64.5 1.5t48.5 3.5q24 2 42 5q-18 -90 -29.5 -217
t-11.5 -272q0 -83 4 -168t13 -169.5t23.5 -166t35.5 -156.5zM571 1468q-6 -32 -9.5 -64.5t-3.5 -64.5t3.5 -64t9.5 -63q-24 11 -58.5 18t-72 10.5t-73 4.5t-62.5 1q-38 0 -79 -0.5t-83 -3t-82.5 -7.5t-77.5 -15q4 9 6 22.5t3 27.5t1 27.5v22.5q0 37 -2.5 73.5t-7.5 74.5
q72 -17 149.5 -21t151.5 -4q69 0 144 3t143 22z" />
    <glyph glyph-name="Ibreve" unicode="&#x12c;" horiz-adv-x="672" 
d="M633 6q-21 2 -47 4q-23 2 -55 3t-74 1q-81 0 -188 -7t-232 -27q22 45 38 114t26.5 147.5t16.5 159.5t9 151t3.5 121t0.5 70q0 4 -0.5 31t-1.5 70t-3 98.5t-5.5 115.5t-9 121t-13 115t-17 97.5t-22.5 68.5q101 -18 185.5 -24t152.5 -6q45 0 81 2t61 4q29 3 51 6
q-12 -56 -21 -124.5t-16 -146t-10.5 -162.5t-3.5 -175q0 -104 5 -211.5t16.5 -213.5t29 -208t43.5 -195zM649 1858q-22 -19 -34.5 -53t-24.5 -74t-28 -82t-43.5 -75.5t-71.5 -55t-112 -21.5q-69 0 -113 19.5t-72 50.5t-44 69t-28 76.5t-24.5 72.5t-33.5 56q32 0 68.5 5.5
t73 14.5t72 19.5t65.5 20.5q-4 -20 -5.5 -41t-1.5 -41q0 -13 2.5 -33.5t9 -40t18.5 -33.5t30 -14q15 0 25 10.5t16 25.5t8 31t2 27q0 28 -4 55.5t-10 53.5q52 -19 115 -31t122 -12h23z" />
    <glyph glyph-name="ibreve" unicode="&#x12d;" horiz-adv-x="551" 
d="M518 4q-17 1 -40 3q-20 1 -47 2t-62 1q-65 0 -150 -5.5t-184 -20.5q19 38 32 95.5t21.5 123t13 132.5t6.5 123t2.5 95t0.5 49q-2 130 -9 243q-3 48 -7.5 97t-10.5 92.5t-13.5 78t-17.5 54.5q81 -14 150 -19t125 -5q36 0 64.5 1.5t48.5 3.5q24 2 42 5q-18 -90 -29.5 -217
t-11.5 -272q0 -83 4 -168t13 -169.5t23.5 -166t35.5 -156.5zM591 1578q-22 -19 -34.5 -53t-24.5 -74t-28 -82t-43.5 -75.5t-71.5 -55t-112 -21.5q-69 0 -113 19.5t-72 50.5t-44 69t-28 76.5t-24.5 72.5t-33.5 56q32 0 68.5 5.5t73 14.5t72 19.5t65.5 20.5q-4 -20 -5.5 -41
t-1.5 -41q0 -13 2.5 -33.5t9 -40t18.5 -33.5t30 -14q15 0 25 10.5t16 25.5t8 31t2 27q0 28 -4 55.5t-10 53.5q52 -19 115 -31t122 -12h23z" />
    <glyph glyph-name="Iogonek" unicode="&#x12e;" horiz-adv-x="672" 
d="M578 -295q-22 -2 -48 -17t-56.5 -32.5t-65 -32t-72.5 -14.5q-37 0 -67.5 14.5t-53 39.5t-35 57.5t-12.5 68.5q0 21 9 48t23.5 56t32 58.5t35.5 54.5q-54 -3 -111.5 -9t-119.5 -17q22 45 38 114t26.5 147.5t16.5 159.5t9 151t3.5 121t0.5 70q0 4 -0.5 31t-1.5 70t-3 98.5
t-5.5 115.5t-9 121t-13 115t-17 97.5t-22.5 68.5q101 -18 185.5 -24t152.5 -6q45 0 81 2t61 4q29 3 51 6q-12 -56 -21 -124.5t-16 -146t-10.5 -162.5t-3.5 -175q0 -104 5 -211.5t16.5 -213.5t29 -208t43.5 -195q-21 2 -47 4q-23 2 -55 3t-74 1h-32.5t-33.5 -2
q-14 -22 -28 -48.5t-25.5 -53t-19 -49t-7.5 -37.5q0 -22 13.5 -32.5t33.5 -10.5q18 0 32.5 10t26 24.5t20 31t14.5 30.5q8 -23 21 -47.5t29.5 -47.5t36 -43t40.5 -34z" />
    <glyph glyph-name="iogonek" unicode="&#x12f;" horiz-adv-x="551" 
d="M522 -295q-21 -2 -47 -17t-56.5 -32.5t-65 -32t-72.5 -14.5q-37 0 -68 14.5t-53 39.5t-34.5 57.5t-12.5 68.5q0 20 8.5 46.5t22.5 55.5t31.5 58.5t35.5 54.5q-40 -3 -85 -7.5t-91 -12.5q19 38 32 95.5t21.5 123t13 132.5t6.5 123t2.5 95t0.5 49q-2 130 -9 243
q-3 48 -7.5 97t-10.5 92.5t-13.5 78t-17.5 54.5q81 -14 150 -19t125 -5q36 0 64.5 1.5t48.5 3.5q24 2 42 5q-18 -90 -29.5 -217t-11.5 -272q0 -83 4 -168t13 -169.5t23.5 -166t35.5 -156.5q-17 1 -40 3q-20 1 -47 2t-62 1h-35q-14 -23 -28 -49.5t-25 -52t-18 -47.5t-7 -37
q0 -22 13.5 -32.5t33.5 -10.5q18 0 32.5 10t26 24.5t20 31t13.5 30.5q9 -23 22 -47.5t29.5 -47.5t35.5 -43t40 -34zM59 1434q0 46 17.5 86.5t48 71t71.5 48t87 17.5t86.5 -17.5t71 -48t48 -71t17.5 -86.5t-17.5 -87t-48 -71.5t-71 -48t-86.5 -17.5t-87 17.5t-71.5 48
t-48 71.5t-17.5 87z" />
    <glyph glyph-name="Idotaccent" unicode="&#x130;" horiz-adv-x="672" 
d="M633 6q-21 2 -47 4q-23 2 -55 3t-74 1q-81 0 -188 -7t-232 -27q22 45 38 114t26.5 147.5t16.5 159.5t9 151t3.5 121t0.5 70q0 4 -0.5 31t-1.5 70t-3 98.5t-5.5 115.5t-9 121t-13 115t-17 97.5t-22.5 68.5q101 -18 185.5 -24t152.5 -6q45 0 81 2t61 4q29 3 51 6
q-12 -56 -21 -124.5t-16 -146t-10.5 -162.5t-3.5 -175q0 -104 5 -211.5t16.5 -213.5t29 -208t43.5 -195zM172 1665q0 34 13 63.5t35.5 52t52 35.5t63.5 13t63.5 -13t52 -35.5t35.5 -52t13 -63.5t-13 -63.5t-35.5 -52t-52 -35.5t-63.5 -13t-63.5 13t-52 35.5t-35.5 52
t-13 63.5z" />
    <glyph glyph-name="dotlessi" unicode="&#x131;" horiz-adv-x="551" 
d="M518 4q-17 1 -40 3q-20 1 -47 2t-62 1q-65 0 -150 -5.5t-184 -20.5q19 38 32 95.5t21.5 123t13 132.5t6.5 123t2.5 95t0.5 49q-2 130 -9 243q-3 48 -7.5 97t-10.5 92.5t-13.5 78t-17.5 54.5q81 -14 150 -19t125 -5q36 0 64.5 1.5t48.5 3.5q24 2 42 5q-18 -90 -29.5 -217
t-11.5 -272q0 -83 4 -168t13 -169.5t23.5 -166t35.5 -156.5z" />
    <glyph glyph-name="IJ" unicode="&#x132;" horiz-adv-x="1817" 
d="M633 6q-21 2 -47 4q-23 2 -55 3t-74 1q-81 0 -188 -7t-232 -27q22 45 38 114t26.5 147.5t16.5 159.5t9 151t3.5 121t0.5 70q0 4 -0.5 31t-1.5 70t-3 98.5t-5.5 115.5t-9 121t-13 115t-17 97.5t-22.5 68.5q101 -18 185.5 -24t152.5 -6q45 0 81 2t61 4q29 3 51 6
q-12 -56 -21 -124.5t-16 -146t-10.5 -162.5t-3.5 -175q0 -104 5 -211.5t16.5 -213.5t29 -208t43.5 -195zM1798 1436q-13 -32 -22.5 -73t-17 -86t-13 -92t-8.5 -91q-8 -104 -10 -215q0 -69 -0.5 -146t-6 -157t-19 -158.5t-41 -150.5t-71 -133.5t-109.5 -107t-156.5 -71
t-211.5 -25.5q-106 0 -188.5 35t-139.5 93t-86.5 134t-29.5 158q0 75 24 134t63 99.5t89 61.5t102 21q73 0 137.5 -43t98.5 -131q-12 11 -26.5 16.5t-26.5 5.5q-17 0 -33 -7.5t-28 -21t-19.5 -31t-7.5 -38.5q0 -24 8.5 -43.5t23.5 -33t34.5 -21t41.5 -7.5q46 0 77.5 23.5
t50.5 71.5t27.5 121t8.5 173q0 67 -2.5 141.5t-7.5 149.5t-13 146.5t-19.5 134t-25.5 112.5t-32 80q36 -13 86 -23q43 -8 107 -15t149 -7q54 0 114 3.5t129 13.5z" />
    <glyph glyph-name="ij" unicode="&#x133;" horiz-adv-x="1067" 
d="M518 4q-17 1 -40 3q-20 1 -47 2t-62 1q-65 0 -150 -5.5t-184 -20.5q19 38 32 95.5t21.5 123t13 132.5t6.5 123t2.5 95t0.5 49q-2 130 -9 243q-3 48 -7.5 97t-10.5 92.5t-13.5 78t-17.5 54.5q81 -14 150 -19t125 -5q36 0 64.5 1.5t48.5 3.5q24 2 42 5q-18 -90 -29.5 -217
t-11.5 -272q0 -83 4 -168t13 -169.5t23.5 -166t35.5 -156.5zM59 1434q0 46 17.5 86.5t48 71t71.5 48t87 17.5t86.5 -17.5t71 -48t48 -71t17.5 -86.5t-17.5 -87t-48 -71.5t-71 -48t-86.5 -17.5t-87 17.5t-71.5 48t-48 71.5t-17.5 87zM588 1434q0 46 17.5 86.5t48 71t71 48
t86.5 17.5t86.5 -17.5t71 -48t48 -71t17.5 -86.5t-17.5 -87t-48 -71.5t-71 -48t-86.5 -17.5t-86.5 17.5t-71 48t-48 71.5t-17.5 87zM1032 1149q-11 -42 -18.5 -102.5t-13.5 -132t-9.5 -148.5t-6.5 -151q-6 -174 -7 -369q0 -102 -12.5 -199.5t-40 -183.5t-71 -159t-106 -125
t-145 -81.5t-186.5 -29.5q-78 0 -138.5 20t-102 56.5t-63.5 87t-22 112.5q0 48 18 88t47 69t66.5 45.5t75.5 16.5q50 0 94 -30.5t70 -98.5q-6 5 -13.5 6.5t-15.5 1.5q-23 0 -43 -18.5t-20 -44.5q0 -17 7.5 -29t19 -20t24.5 -11.5t25 -3.5q19 0 41.5 7t44.5 35.5t42 84
t35.5 153t25 243.5t9.5 354q0 73 -2.5 148.5t-9 150t-17.5 147t-28 138.5q25 -11 62 -20q32 -8 80.5 -13.5t115.5 -5.5q81 0 188 12z" />
    <glyph glyph-name="Jcircumflex" unicode="&#x134;" horiz-adv-x="1145" 
d="M1126 1436q-13 -32 -22.5 -73t-17 -86t-13 -92t-8.5 -91q-8 -104 -10 -215q0 -69 -0.5 -146t-6 -157t-19 -158.5t-41 -150.5t-71 -133.5t-109.5 -107t-156.5 -71t-211.5 -25.5q-106 0 -188.5 35t-139.5 93t-86.5 134t-29.5 158q0 75 24 134t63 99.5t89 61.5t102 21
q73 0 137.5 -43t98.5 -131q-12 11 -26.5 16.5t-26.5 5.5q-17 0 -33 -7.5t-28 -21t-19.5 -31t-7.5 -38.5q0 -24 8.5 -43.5t23.5 -33t34.5 -21t41.5 -7.5q46 0 77.5 23.5t50.5 71.5t27.5 121t8.5 173q0 67 -2.5 141.5t-7.5 149.5t-13 146.5t-19.5 134t-25.5 112.5t-32 80
q36 -13 86 -23q43 -8 107 -15t149 -7q54 0 114 3.5t129 13.5zM1190 1590q-72 -22 -147.5 -47t-141.5 -60q2 16 3 31t1 30q0 62 -20 122t-51 114q-20 -30 -33 -67.5t-20.5 -77.5t-11 -79t-3.5 -73q-63 29 -128.5 55.5t-131.5 46.5q33 31 64 72.5t58.5 87t50 92t38.5 88.5
q32 -3 64.5 -5.5t66.5 -2.5q26 0 54.5 1.5t54.5 6.5q15 -45 39.5 -92t55.5 -91t66 -83t72 -69z" />
    <glyph glyph-name="jcircumflex" unicode="&#x135;" horiz-adv-x="516" 
d="M481 1149q-11 -42 -18.5 -102.5t-13.5 -132t-9.5 -148.5t-6.5 -151q-6 -174 -7 -369q0 -102 -12.5 -199.5t-40 -183.5t-71 -159t-106 -125t-145 -81.5t-186.5 -29.5q-78 0 -138.5 20t-102 56.5t-63.5 87t-22 112.5q0 48 18 88t47 69t66.5 45.5t75.5 16.5q50 0 94 -30.5
t70 -98.5q-6 5 -13.5 6.5t-15.5 1.5q-23 0 -43 -18.5t-20 -44.5q0 -17 7.5 -29t19 -20t24.5 -11.5t25 -3.5q19 0 41.5 7t44.5 35.5t42 84t35.5 153t25 243.5t9.5 354q0 73 -2.5 148.5t-9 150t-17.5 147t-28 138.5q25 -11 62 -20q32 -8 80.5 -13.5t115.5 -5.5q81 0 188 12z
M619 1320q-72 -22 -147.5 -47t-141.5 -60q2 16 3 31t1 30q0 62 -20 122t-51 114q-20 -30 -33 -67.5t-20.5 -77.5t-11 -79t-3.5 -73q-63 29 -128.5 55.5t-131.5 46.5q33 31 64 72.5t58.5 87t50 92t38.5 88.5q32 -3 64.5 -5.5t66.5 -2.5q26 0 54.5 1.5t54.5 6.5
q15 -45 39.5 -92t55.5 -91t66 -83t72 -69z" />
    <glyph glyph-name="Kcommaaccent" unicode="&#x136;" horiz-adv-x="1227" 
d="M1227 -35q-68 5 -125 6.5t-107 1.5q-91 0 -153.5 -5t-101.5 -11q-46 -7 -74 -16q4 31 8 59.5t6.5 56.5t4 56t1.5 59q0 111 -8.5 185.5t-24.5 123.5t-39 80t-51 55q-2 -45 -3 -87t-1 -89t2 -97t7 -106.5t15 -120t25 -136.5q-38 3 -85 7q-40 2 -95 4.5t-121 2.5t-140 -3
t-155 -11q24 30 43.5 78t34.5 105.5t25.5 120.5t18.5 124q18 143 24 305q0 85 -2 175t-10 179.5t-23.5 176.5t-42.5 165q42 -3 83 -5.5t83 -2.5q197 0 387 41q-44 -130 -63 -257.5t-19 -254.5q0 -31 0.5 -61.5t3.5 -61.5q85 108 130.5 212t45.5 204q0 51 -11.5 99.5
t-37.5 96.5q50 -5 99.5 -7.5t99.5 -2.5q86 0 172 8t174 25q-17 -26 -31 -55.5t-25.5 -61t-21 -63.5t-16.5 -61q-17 -69 -27 -140q-11 -70 -37 -133q-11 -27 -27 -55.5t-37 -55t-47.5 -50t-60.5 -40.5q70 -29 107.5 -72t56.5 -97.5t27 -119t20 -135.5q11 -60 28 -120
q14 -51 36.5 -110t54.5 -108zM737 -215q0 -26 -10.5 -57.5t-26 -63t-34.5 -59t-36 -43.5l-129 16q20 16 37 36t31 42q-23 1 -42.5 12t-33.5 28.5t-22 40t-8 48.5q0 21 7 45t23 44t42 33t65 13q69 0 103 -37.5t34 -97.5z" />
    <glyph glyph-name="kcommaaccent" unicode="&#x137;" horiz-adv-x="999" 
d="M999 -29q-113 9 -196 9q-72 0 -121.5 -4.5t-80.5 -9.5q-36 -6 -58 -13q8 51 12 94t4 92q0 88 -7 146.5t-20 98.5t-31 65t-40 45q-2 -36 -3 -71.5t-1 -72.5q0 -75 8 -162.5t33 -203.5q-30 2 -68 5q-32 2 -77 3.5t-99 1.5t-114.5 -2t-125.5 -8q20 31 35.5 82t26.5 114.5
t18.5 135.5t12 145.5t6.5 144.5t2 133q0 83 -3 170t-8 170t-12 158t-14 135.5t-14.5 101.5t-14.5 56q64 -6 133 -6q87 0 172.5 8.5t163.5 23.5q-12 -35 -22 -90.5t-17.5 -123t-13 -143t-9.5 -151t-5.5 -146.5t-1.5 -130q0 -40 1 -72t3 -55q69 88 107 170.5t38 163.5
q0 77 -41 156q38 -4 78 -5.5t78 -1.5q72 0 143 5.5t143 19.5q-28 -42 -46.5 -93.5t-29.5 -99.5q-13 -55 -22 -112q-9 -55 -30 -106q-9 -22 -21.5 -44.5t-30 -44t-39.5 -40t-49 -31.5q58 -23 88.5 -58t45.5 -78.5t21 -95t15 -108.5q9 -47 23 -95q12 -41 30.5 -88.5
t44.5 -87.5zM662 -215q0 -26 -10.5 -57.5t-26 -63t-34.5 -59t-36 -43.5l-129 16q20 16 37 36t31 42q-23 1 -42.5 12t-33.5 28.5t-22 40t-8 48.5q0 21 7 45t23 44t42 33t65 13q69 0 103 -37.5t34 -97.5z" />
    <glyph glyph-name="kgreenlandic" unicode="&#x138;" horiz-adv-x="999" 
d="M999 -29q-113 9 -196 9q-72 0 -121.5 -4.5t-80.5 -9.5q-36 -6 -58 -13q8 51 12 94t4 92q0 88 -7 146.5t-20 98.5t-31 65t-40 45q-2 -36 -3 -71.5t-1 -72.5q0 -75 8 -162.5t33 -203.5q-30 2 -68 5q-32 2 -77 3.5t-99 1.5t-114.5 -2t-125.5 -8q20 31 35.5 82t26.5 114.5
t18.5 135.5t12 145.5t6.5 144.5t2 133q0 68 -6.5 125t-16.5 103t-21.5 80t-21.5 57q64 -6 133 -6q87 0 172.5 8.5t163.5 23.5q-24 -40 -38 -94.5t-21 -107.5t-8.5 -96t-1.5 -60q0 -40 1 -72t3 -55q69 88 107 170.5t38 163.5q0 77 -41 156q38 -4 78 -5.5t78 -1.5
q72 0 143 5.5t143 19.5q-28 -42 -46.5 -93.5t-29.5 -99.5q-13 -55 -22 -112q-9 -55 -30 -106q-9 -22 -21.5 -44.5t-30 -44t-39.5 -40t-49 -31.5q58 -23 88.5 -58t45.5 -78.5t21 -95t15 -108.5q9 -47 23 -95q12 -41 30.5 -88.5t44.5 -87.5z" />
    <glyph glyph-name="Lacute" unicode="&#x139;" horiz-adv-x="952" 
d="M952 -14q-35 8 -82.5 14t-99 9t-102 4.5t-91 2t-66.5 0.5h-28q-62 -1 -134 -6q-62 -5 -141.5 -14.5t-166.5 -26.5q20 77 35 172.5t25 202.5t15 221t5 228q0 94 -3.5 185.5t-11 175.5t-18 159t-25.5 137q104 -19 188.5 -25t149.5 -6q41 0 73 1.5t54 3.5q26 3 45 6
q-22 -72 -41 -156t-32.5 -172.5t-21 -177.5t-7.5 -170q0 -103 13 -176.5t38.5 -120t62 -68.5t83.5 -22q63 0 124.5 45.5t106.5 132.5zM410 1460l-199 89q61 88 114 169q22 34 45.5 70t44 69.5t37.5 63.5t27 51q31 -23 75.5 -50t86.5 -50q48 -27 100 -55z" />
    <glyph glyph-name="lacute" unicode="&#x13a;" horiz-adv-x="537" 
d="M510 4q-17 1 -40 3q-20 1 -47.5 2t-62.5 1q-65 0 -149.5 -5.5t-183.5 -20.5q14 28 25 77.5t19 112t13.5 133t9 141.5t5 137.5t2.5 120t1 90.5v48q-2 167 -9 310q-3 60 -7 121t-10 114t-13.5 93t-17.5 60q81 -14 150 -19t124 -5q36 0 65 1.5t49 3.5q24 2 42 5
q-9 -45 -16.5 -114t-13 -155t-8.5 -185t-3 -204q0 -120 4 -242t13 -236t23.5 -213.5t35.5 -174.5zM344 1579l-199 89q61 88 114 169q22 34 45.5 70t44 69.5t37.5 63.5t27 51q31 -23 75.5 -50t86.5 -50q48 -27 100 -55z" />
    <glyph glyph-name="Lcommaaccent" unicode="&#x13b;" horiz-adv-x="952" 
d="M952 -14q-35 8 -82.5 14t-99 9t-102 4.5t-91 2t-66.5 0.5h-28q-62 -1 -134 -6q-62 -5 -141.5 -14.5t-166.5 -26.5q20 77 35 172.5t25 202.5t15 221t5 228q0 94 -3.5 185.5t-11 175.5t-18 159t-25.5 137q104 -19 188.5 -25t149.5 -6q41 0 73 1.5t54 3.5q26 3 45 6
q-22 -72 -41 -156t-32.5 -172.5t-21 -177.5t-7.5 -170q0 -103 13 -176.5t38.5 -120t62 -68.5t83.5 -22q63 0 124.5 45.5t106.5 132.5zM606 -215q0 -26 -10.5 -57.5t-26 -63t-34.5 -59t-36 -43.5l-129 16q20 16 37 36t31 42q-23 1 -42.5 12t-33.5 28.5t-22 40t-8 48.5
q0 21 7 45t23 44t42 33t65 13q69 0 103 -37.5t34 -97.5z" />
    <glyph glyph-name="lcommaaccent" unicode="&#x13c;" horiz-adv-x="537" 
d="M510 4q-17 1 -40 3q-20 1 -47.5 2t-62.5 1q-65 0 -149.5 -5.5t-183.5 -20.5q14 28 25 77.5t19 112t13.5 133t9 141.5t5 137.5t2.5 120t1 90.5v48q-2 167 -9 310q-3 60 -7 121t-10 114t-13.5 93t-17.5 60q81 -14 150 -19t124 -5q36 0 65 1.5t49 3.5q24 2 42 5
q-9 -45 -16.5 -114t-13 -155t-8.5 -185t-3 -204q0 -120 4 -242t13 -236t23.5 -213.5t35.5 -174.5zM420 -215q0 -26 -10.5 -57.5t-26 -63t-34.5 -59t-36 -43.5l-129 16q20 16 37 36t31 42q-23 1 -42.5 12t-33.5 28.5t-22 40t-8 48.5q0 21 7 45t23 44t42 33t65 13
q69 0 103 -37.5t34 -97.5z" />
    <glyph glyph-name="Lcaron" unicode="&#x13d;" horiz-adv-x="1010" 
d="M952 -14q-35 8 -82.5 14t-99 9t-102 4.5t-91 2t-66.5 0.5h-28q-62 -1 -134 -6q-62 -5 -141.5 -14.5t-166.5 -26.5q20 77 35 172.5t25 202.5t15 221t5 228q0 94 -3.5 185.5t-11 175.5t-18 159t-25.5 137q104 -19 188.5 -25t149.5 -6q41 0 73 1.5t54 3.5q26 3 45 6
q-22 -72 -41 -156t-32.5 -172.5t-21 -177.5t-7.5 -170q0 -103 13 -176.5t38.5 -120t62 -68.5t83.5 -22q63 0 124.5 45.5t106.5 132.5zM913 1348q0 -26 -10.5 -57.5t-26 -63t-34.5 -58.5t-36 -44l-129 16q20 17 37 37t31 41q-46 3 -75 40t-29 89q0 22 6.5 46t22.5 44
t42.5 32.5t65.5 12.5q69 0 102 -37.5t33 -97.5z" />
    <glyph glyph-name="lcaron" unicode="&#x13e;" horiz-adv-x="930" 
d="M510 4q-17 1 -40 3q-20 1 -47.5 2t-62.5 1q-65 0 -149.5 -5.5t-183.5 -20.5q14 28 25 77.5t19 112t13.5 133t9 141.5t5 137.5t2.5 120t1 90.5v48q-2 167 -9 310q-3 60 -7 121t-10 114t-13.5 93t-17.5 60q81 -14 150 -19t124 -5q36 0 65 1.5t49 3.5q24 2 42 5
q-9 -45 -16.5 -114t-13 -155t-8.5 -185t-3 -204q0 -120 4 -242t13 -236t23.5 -213.5t35.5 -174.5zM832 1404q0 -26 -10.5 -57.5t-26 -63t-34.5 -58.5t-36 -44l-129 16q20 17 37 37t31 41q-46 3 -75 40t-29 89q0 22 6.5 46t22.5 44t42.5 32.5t65.5 12.5q69 0 102 -37.5
t33 -97.5z" />
    <glyph glyph-name="Ldot" unicode="&#x13f;" horiz-adv-x="1403" 
d="M952 -14q-35 8 -82.5 14t-99 9t-102 4.5t-91 2t-66.5 0.5h-28q-62 -1 -134 -6q-62 -5 -141.5 -14.5t-166.5 -26.5q20 77 35 172.5t25 202.5t15 221t5 228q0 94 -3.5 185.5t-11 175.5t-18 159t-25.5 137q104 -19 188.5 -25t149.5 -6q41 0 73 1.5t54 3.5q26 3 45 6
q-22 -72 -41 -156t-32.5 -172.5t-21 -177.5t-7.5 -170q0 -103 13 -176.5t38.5 -120t62 -68.5t83.5 -22q63 0 124.5 45.5t106.5 132.5zM944 754q0 43 16.5 81.5t45 67.5t67 45.5t82.5 16.5t82.5 -16.5t67 -45.5t45 -67.5t16.5 -81.5q0 -44 -16.5 -82.5t-45 -67t-67 -45
t-82.5 -16.5t-82.5 16.5t-67 45t-45 67t-16.5 82.5z" />
    <glyph glyph-name="ldotaccent" unicode="&#x140;" horiz-adv-x="973" 
d="M510 4q-17 1 -40 3q-20 1 -47.5 2t-62.5 1q-65 0 -149.5 -5.5t-183.5 -20.5q14 28 25 77.5t19 112t13.5 133t9 141.5t5 137.5t2.5 120t1 90.5v48q-2 167 -9 310q-3 60 -7 121t-10 114t-13.5 93t-17.5 60q81 -14 150 -19t124 -5q36 0 65 1.5t49 3.5q24 2 42 5
q-9 -45 -16.5 -114t-13 -155t-8.5 -185t-3 -204q0 -120 4 -242t13 -236t23.5 -213.5t35.5 -174.5zM514 754q0 43 16.5 81.5t45 67.5t67 45.5t82.5 16.5t82.5 -16.5t67 -45.5t45 -67.5t16.5 -81.5q0 -44 -16.5 -82.5t-45 -67t-67 -45t-82.5 -16.5t-82.5 16.5t-67 45t-45 67
t-16.5 82.5z" />
    <glyph glyph-name="Lslash" unicode="&#x141;" horiz-adv-x="1016" 
d="M729 1112q-9 -56 -11.5 -106t-2.5 -101t2.5 -99.5t11.5 -96.5q-17 5 -35 6.5t-37 1.5q-60 0 -122 -17q3 -93 19 -156.5t41.5 -102.5t60 -56.5t75.5 -17.5q63 0 125 45.5t107 132.5l53 -559q-35 8 -82.5 14t-99 9t-102 4.5t-91 2t-66.5 0.5h-28q-63 -1 -135 -6
q-62 -5 -141 -14.5t-167 -26.5q29 115 48.5 268.5t27.5 323.5q-46 -23 -91.5 -50t-88.5 -58q4 15 7 36.5t4.5 44.5t2 44t0.5 34q0 59 -4.5 115.5t-9.5 110.5q8 -2 17 -2h20q67 0 147 18q-2 86 -6 168.5t-11 159t-17 144.5t-23 124q103 -19 188 -25t150 -6q41 0 72 1.5
t54 3.5q26 3 46 6q-31 -94 -53.5 -208.5t-34.5 -232.5q51 28 98 58.5t82 64.5z" />
    <glyph glyph-name="lslash" unicode="&#x142;" horiz-adv-x="764" 
d="M748 1112q-10 -56 -12.5 -106t-2.5 -101t2.5 -99.5t12.5 -96.5q-17 5 -34.5 6.5t-35.5 1.5q-35 0 -72.5 -6.5t-73.5 -16.5q3 -99 8.5 -196.5t14.5 -187t21.5 -167.5t29.5 -139q-17 1 -40 3q-20 1 -47 2t-62 1q-65 0 -150 -5.5t-184 -20.5q17 34 29 98t20.5 143.5
t14 166.5t8.5 167q-45 -23 -90 -50t-87 -56q5 15 8 36.5t4.5 44.5t2 44t0.5 34q0 59 -5 115.5t-10 110.5q10 -2 20 -2h21q32 0 67.5 4t72.5 12q0 8 -0.5 37.5t-1.5 73.5t-3 99t-5 113t-7 115.5t-10 107t-13.5 87.5t-17.5 57q81 -14 150 -19t125 -5q36 0 64.5 1.5t48.5 3.5
q24 2 42 5q-8 -39 -15 -97.5t-12 -130.5t-8.5 -155.5t-5.5 -173.5q60 29 118.5 66t99.5 75z" />
    <glyph glyph-name="Nacute" unicode="&#x143;" horiz-adv-x="1323" 
d="M618 6q-19 2 -45 4q-22 2 -53 3t-71 1q-78 0 -182.5 -7t-229.5 -27q22 45 38 114t26.5 147.5t16.5 159.5t9 151t3.5 121t0.5 70q0 4 -0.5 31t-1.5 70t-3 98.5t-5.5 115.5t-9 121t-13 115t-17 97.5t-22.5 68.5q101 -18 184 -24t148 -6q44 0 78.5 2t57.5 4q27 3 48 6
q43 -212 98 -393t124 -336v41q-3 163 -11 304q-4 60 -9 121t-12.5 115t-17 97.5t-22.5 68.5q100 -18 184.5 -24t149.5 -6q44 0 78.5 2t57.5 4q27 3 48 6q-12 -56 -21 -125t-16 -147t-10.5 -164t-3.5 -177q0 -103 5 -209.5t16.5 -212t29 -207t41.5 -194.5q-18 2 -43 4
q-21 2 -51 3t-68 1q-72 0 -166 -7t-202 -27q0 103 -16.5 201.5t-46.5 194t-72 187.5t-93 182q1 -94 7.5 -190t18 -190t28 -184.5t38.5 -174.5zM719 1501l-199 89q61 88 114 169q22 34 45.5 70t44 69.5t37.5 63.5t27 51q31 -23 75.5 -50t86.5 -50q48 -27 100 -55z" />
    <glyph glyph-name="nacute" unicode="&#x144;" horiz-adv-x="1112" 
d="M1083 -20q-31 5 -68 6.5t-77 1.5q-48 0 -97.5 -2.5t-96.5 -6.5t-89 -9t-73 -9q43 145 66.5 310t23.5 366q0 15 -0.5 40t-2.5 54t-6.5 58.5t-13 53.5t-21.5 39t-32 15q-28 0 -54.5 -20t-47 -53t-33 -76t-12.5 -89q0 -83 4 -168.5t13 -169.5t23 -164.5t35 -152.5
q-17 1 -40 3q-20 1 -47 2t-62 1q-65 0 -150 -5.5t-184 -20.5q12 56 21 137t15 176t9.5 198.5t3.5 204.5q0 75 -2 147t-5.5 136t-9.5 118t-14 93q81 -14 150 -19.5t125 -5.5q36 0 64.5 1.5t48.5 3.5q24 3 42 6q-6 -31 -11.5 -66t-10.5 -76q33 42 70 73.5t74.5 52.5t74.5 31.5
t70 10.5q72 0 124.5 -29.5t87 -92.5t51.5 -161t17 -235q0 -94 0.5 -191t4.5 -190t14 -176.5t28 -150.5zM613 1221l-199 89q61 88 114 169q22 34 45.5 70t44 69.5t37.5 63.5t27 51q31 -23 75.5 -50t86.5 -50q48 -27 100 -55z" />
    <glyph glyph-name="Ncommaaccent" unicode="&#x145;" horiz-adv-x="1323" 
d="M618 6q-19 2 -45 4q-22 2 -53 3t-71 1q-78 0 -182.5 -7t-229.5 -27q22 45 38 114t26.5 147.5t16.5 159.5t9 151t3.5 121t0.5 70q0 4 -0.5 31t-1.5 70t-3 98.5t-5.5 115.5t-9 121t-13 115t-17 97.5t-22.5 68.5q101 -18 184 -24t148 -6q44 0 78.5 2t57.5 4q27 3 48 6
q43 -212 98 -393t124 -336v41q-3 163 -11 304q-4 60 -9 121t-12.5 115t-17 97.5t-22.5 68.5q100 -18 184.5 -24t149.5 -6q44 0 78.5 2t57.5 4q27 3 48 6q-12 -56 -21 -125t-16 -147t-10.5 -164t-3.5 -177q0 -103 5 -209.5t16.5 -212t29 -207t41.5 -194.5q-18 2 -43 4
q-21 2 -51 3t-68 1q-72 0 -166 -7t-202 -27q0 103 -16.5 201.5t-46.5 194t-72 187.5t-93 182q1 -94 7.5 -190t18 -190t28 -184.5t38.5 -174.5zM844 -215q0 -26 -10.5 -57.5t-26 -63t-34.5 -59t-36 -43.5l-129 16q20 16 37 36t31 42q-23 1 -42.5 12t-33.5 28.5t-22 40
t-8 48.5q0 21 7 45t23 44t42 33t65 13q69 0 103 -37.5t34 -97.5z" />
    <glyph glyph-name="ncommaaccent" unicode="&#x146;" horiz-adv-x="1112" 
d="M1083 -20q-31 5 -68 6.5t-77 1.5q-48 0 -97.5 -2.5t-96.5 -6.5t-89 -9t-73 -9q43 145 66.5 310t23.5 366q0 15 -0.5 40t-2.5 54t-6.5 58.5t-13 53.5t-21.5 39t-32 15q-28 0 -54.5 -20t-47 -53t-33 -76t-12.5 -89q0 -83 4 -168.5t13 -169.5t23 -164.5t35 -152.5
q-17 1 -40 3q-20 1 -47 2t-62 1q-65 0 -150 -5.5t-184 -20.5q12 56 21 137t15 176t9.5 198.5t3.5 204.5q0 75 -2 147t-5.5 136t-9.5 118t-14 93q81 -14 150 -19.5t125 -5.5q36 0 64.5 1.5t48.5 3.5q24 3 42 6q-6 -31 -11.5 -66t-10.5 -76q33 42 70 73.5t74.5 52.5t74.5 31.5
t70 10.5q72 0 124.5 -29.5t87 -92.5t51.5 -161t17 -235q0 -94 0.5 -191t4.5 -190t14 -176.5t28 -150.5zM719 -215q0 -26 -10.5 -57.5t-26 -63t-34.5 -59t-36 -43.5l-129 16q20 16 37 36t31 42q-23 1 -42.5 12t-33.5 28.5t-22 40t-8 48.5q0 21 7 45t23 44t42 33t65 13
q69 0 103 -37.5t34 -97.5z" />
    <glyph glyph-name="Ncaron" unicode="&#x147;" horiz-adv-x="1323" 
d="M618 6q-19 2 -45 4q-22 2 -53 3t-71 1q-78 0 -182.5 -7t-229.5 -27q22 45 38 114t26.5 147.5t16.5 159.5t9 151t3.5 121t0.5 70q0 4 -0.5 31t-1.5 70t-3 98.5t-5.5 115.5t-9 121t-13 115t-17 97.5t-22.5 68.5q101 -18 184 -24t148 -6q44 0 78.5 2t57.5 4q27 3 48 6
q43 -212 98 -393t124 -336v41q-3 163 -11 304q-4 60 -9 121t-12.5 115t-17 97.5t-22.5 68.5q100 -18 184.5 -24t149.5 -6q44 0 78.5 2t57.5 4q27 3 48 6q-12 -56 -21 -125t-16 -147t-10.5 -164t-3.5 -177q0 -103 5 -209.5t16.5 -212t29 -207t41.5 -194.5q-18 2 -43 4
q-21 2 -51 3t-68 1q-72 0 -166 -7t-202 -27q0 103 -16.5 201.5t-46.5 194t-72 187.5t-93 182q1 -94 7.5 -190t18 -190t28 -184.5t38.5 -174.5zM1003 1858q-37 -30 -72 -69t-66 -83.5t-55.5 -91.5t-39.5 -92q-26 6 -54.5 7t-54.5 1q-34 0 -66.5 -1.5t-64.5 -6.5
q-16 42 -38.5 89t-50 92t-58.5 86t-64 73q66 20 131.5 46.5t128.5 55.5q0 -35 3.5 -74.5t11 -79.5t20.5 -77t33 -66q31 54 51 114t20 122q0 15 -1 30.5t-3 30.5q66 -35 141.5 -59.5t147.5 -46.5z" />
    <glyph glyph-name="ncaron" unicode="&#x148;" horiz-adv-x="1112" 
d="M1083 -20q-31 5 -68 6.5t-77 1.5q-48 0 -97.5 -2.5t-96.5 -6.5t-89 -9t-73 -9q43 145 66.5 310t23.5 366q0 15 -0.5 40t-2.5 54t-6.5 58.5t-13 53.5t-21.5 39t-32 15q-28 0 -54.5 -20t-47 -53t-33 -76t-12.5 -89q0 -83 4 -168.5t13 -169.5t23 -164.5t35 -152.5
q-17 1 -40 3q-20 1 -47 2t-62 1q-65 0 -150 -5.5t-184 -20.5q12 56 21 137t15 176t9.5 198.5t3.5 204.5q0 75 -2 147t-5.5 136t-9.5 118t-14 93q81 -14 150 -19.5t125 -5.5q36 0 64.5 1.5t48.5 3.5q24 3 42 6q-6 -31 -11.5 -66t-10.5 -76q33 42 70 73.5t74.5 52.5t74.5 31.5
t70 10.5q72 0 124.5 -29.5t87 -92.5t51.5 -161t17 -235q0 -94 0.5 -191t4.5 -190t14 -176.5t28 -150.5zM897 1596q-37 -30 -72 -69t-66 -83.5t-55.5 -91.5t-39.5 -92q-26 6 -54.5 7t-54.5 1q-34 0 -66.5 -1.5t-64.5 -6.5q-16 42 -38.5 89t-50 92t-58.5 86t-64 73
q66 20 131.5 46.5t128.5 55.5q0 -35 3.5 -74.5t11 -79.5t20.5 -77t33 -66q31 54 51 114t20 122q0 15 -1 30.5t-3 30.5q66 -35 141.5 -59.5t147.5 -46.5z" />
    <glyph glyph-name="napostrophe" unicode="&#x149;" horiz-adv-x="1405" 
d="M295 1264q0 -26 -10.5 -57.5t-26 -63t-34.5 -58.5t-36 -44l-129 16q20 17 37 37t31 41q-46 3 -75 40t-29 89q0 22 6.5 46t22.5 44t42.5 32.5t65.5 12.5q69 0 102 -37.5t33 -97.5zM1376 -20q-31 5 -68 6.5t-77 1.5q-48 0 -97.5 -2.5t-96.5 -6.5t-89 -9t-73 -9
q43 145 66.5 310t23.5 366q0 15 -0.5 40t-2.5 54t-6.5 58.5t-13 53.5t-21.5 39t-32 15q-28 0 -54.5 -20t-47 -53t-33 -76t-12.5 -89q0 -83 4 -168.5t13 -169.5t23 -164.5t35 -152.5q-17 1 -40 3q-20 1 -47 2t-62 1q-65 0 -150 -5.5t-184 -20.5q12 56 21 137t15 176
t9.5 198.5t3.5 204.5q0 75 -2 147t-5.5 136t-9.5 118t-14 93q81 -14 150 -19.5t125 -5.5q36 0 64.5 1.5t48.5 3.5q24 3 42 6q-6 -31 -11.5 -66t-10.5 -76q33 42 70 73.5t74.5 52.5t74.5 31.5t70 10.5q72 0 124.5 -29.5t87 -92.5t51.5 -161t17 -235q0 -94 0.5 -191t4.5 -190
t14 -176.5t28 -150.5z" />
    <glyph glyph-name="Eng" unicode="&#x14a;" horiz-adv-x="1323" 
d="M618 6q-19 2 -45 4q-22 2 -53 3t-71 1q-78 0 -182.5 -7t-229.5 -27q22 45 38 114t26.5 147.5t16.5 159.5t9 151t3.5 121t0.5 70q0 4 -0.5 31t-1.5 70t-3 98.5t-5.5 115.5t-9 121t-13 115t-17 97.5t-22.5 68.5q101 -18 184 -24t148 -6q44 0 78.5 2t57.5 4q27 3 48 6
q43 -212 98 -393t124 -336v41q-3 163 -11 304q-4 60 -9 121t-12.5 115t-17 97.5t-22.5 68.5q100 -18 184.5 -24t149.5 -6q44 0 78.5 2t57.5 4q27 3 48 6q-12 -56 -21 -125t-16 -147t-10.5 -164t-3.5 -177v-817q0 -86 -9 -174.5t-33.5 -171.5t-67.5 -155.5t-111 -126.5
t-163.5 -85.5t-225.5 -31.5q-94 0 -175 28.5t-141 79t-94.5 120t-34.5 151.5q0 75 24 133.5t63 99t89 61.5t103 21q36 0 71 -10.5t65.5 -32t56 -54t42.5 -77.5q-12 11 -26.5 17t-26.5 6q-17 0 -33 -7.5t-28 -21t-19.5 -31.5t-7.5 -39q0 -48 31.5 -76t76.5 -28
q91 0 127.5 92.5t36.5 286.5q0 106 -21 204t-56 191.5t-81.5 183.5t-97.5 180q1 -94 7.5 -190t18 -190t28 -184.5t38.5 -174.5z" />
    <glyph glyph-name="eng" unicode="&#x14b;" horiz-adv-x="1112" 
d="M1032 133q-2 -179 -44 -314.5t-117.5 -227t-182.5 -137.5t-237 -46q-78 0 -138.5 20t-102 57t-63.5 87.5t-22 112.5q0 48 18 88t47 69t66 45.5t76 16.5q49 0 93.5 -30.5t70.5 -98.5q-12 8 -29 8q-12 0 -23.5 -5t-20.5 -14t-14.5 -20.5t-5.5 -24.5q0 -17 7.5 -29t19 -19.5
t25 -11t24.5 -3.5q18 0 39.5 2.5t43 19t41.5 51t35.5 99t24.5 164t9 244.5v401q0 15 -0.5 40t-2.5 54t-6.5 58.5t-13 53.5t-21.5 39t-32 15q-28 0 -54.5 -20t-47 -53t-33 -76t-12.5 -89q0 -83 4 -168.5t13 -169.5t23 -164.5t35 -152.5q-17 1 -40 3q-20 1 -47 2t-62 1
q-65 0 -150 -5.5t-184 -20.5q12 56 21 137t15 176t9.5 198.5t3.5 204.5q0 75 -2 147t-5.5 136t-9.5 118t-14 93q81 -14 150 -19.5t125 -5.5q36 0 64.5 1.5t48.5 3.5q24 3 42 6q-6 -31 -11.5 -66t-10.5 -76q33 42 70 73.5t74.5 52.5t74.5 31.5t70 10.5q72 0 125 -29.5
t87.5 -92.5t51.5 -161t16 -235z" />
    </font>
</defs>
</svg>
