<?xml version="1.0" standalone="no"?>
<!DOCTYPE svg PUBLIC "-//W3C//DTD SVG 1.1//EN" "http://www.w3.org/Graphics/SVG/1.1/DTD/svg11.dtd" >
<svg xmlns="http://www.w3.org/2000/svg" xmlns:xlink="http://www.w3.org/1999/xlink" version="1.1">
<metadata>
Created by FontForge 20190801 at Tue Feb 27 21:31:33 2018
 By root
Copyright (c) 2003 by Murasu Systems Sdn. Bhd. Malaysia. All rights reserved.
</metadata>
<defs>
<font id="LaoMN" horiz-adv-x="0" >
  <font-face 
    font-family="Lao MN"
    font-weight="400"
    font-stretch="normal"
    units-per-em="2048"
    panose-1="0 0 5 0 0 0 0 0 0 0"
    ascent="1546"
    descent="-502"
    x-height="1024"
    cap-height="1326"
    bbox="-1070 -1036 1943 2167"
    underline-thickness="50"
    underline-position="-225"
    unicode-range="U+000D-FB01"
  />
<missing-glyph horiz-adv-x="1406" 
d="M60 0v1502h1226v-1502h-1226zM132 57h1081v1388h-1081v-1388z" />
    <glyph glyph-name="fi" unicode="fi" horiz-adv-x="1352" 
d="M955 937h-499v-937h-204v937h-213v87h213v118q0 84 30 157.5t81.5 128t121 86.5t148.5 32q63 0 119.5 -18t103.5 -52l-98 -96q-24 39 -60.5 64.5t-93.5 25.5q-33 0 -60.5 -17.5t-47 -46t-30 -65.5t-10.5 -76v-241h701v-1024h-202v937zM939 1416q0 24 9 45t25 37t37 25
t45 9t45 -9t37 -25t25 -37t9 -45t-9 -45t-25 -37t-37 -25t-45 -9t-45 9t-37 25t-25 37t-9 45z" />
    <glyph glyph-name="lo_ho_sung.lo" unicode="&#xeab;&#xebc;" horiz-adv-x="1393" 
d="M140 926q0 -16 6.5 -31t18 -26.5t26.5 -18.5t33 -7t33.5 7t27 18.5t18 26.5t6.5 31t-6.5 31t-18 26.5t-27 18.5t-33.5 7t-33 -7t-26.5 -18.5t-18 -26.5t-6.5 -31zM809 1018q27 30 67.5 50.5t103.5 20.5q67 0 118 -22.5t85.5 -64t52 -101.5t17.5 -135v-766h-150v805
q0 63 -14 99.5t-34.5 55t-43.5 24t-40 5.5q-23 0 -47.5 -9t-44.5 -30t-33 -56.5t-13 -87.5v-475q0 -93 -29 -158.5t-78 -107.5t-115 -61.5t-139 -19.5q-92 0 -161.5 26.5t-116.5 73t-70.5 109.5t-23.5 135q0 83 24.5 144.5t56.5 112t63 96t45 97.5q-32 -15 -68 -15
q-33 0 -62.5 13t-51.5 35.5t-34.5 52t-12.5 62.5t14 62.5t38 52t55.5 35.5t65.5 13q36 0 72 -10.5t65.5 -35.5t47.5 -65t18 -99q0 -51 -14 -90t-34.5 -74.5t-44.5 -70.5t-44.5 -79.5t-34.5 -101.5t-14 -135q0 -45 14 -88.5t43 -78t72.5 -56t103.5 -21.5q27 0 61.5 7t65 29.5
t52 65t21.5 113.5v476q-8 -2 -20 -2h-19q-32 0 -59.5 11t-47.5 31.5t-31.5 48.5t-11.5 62q0 37 13.5 67t37 51.5t54 33t64.5 11.5q44 0 82 -15t64 -56zM574 927q0 -17 6.5 -32t18 -26t26.5 -17.5t33 -6.5t33.5 6.5t27 17.5t18 26t6.5 32t-6.5 32t-18 26t-27 17.5t-33.5 6.5
t-33 -6.5t-26.5 -17.5t-18 -26t-6.5 -32zM1186 -158q-65 -117 -142 -170t-153 -53q-57 0 -100.5 21.5t-80 50.5t-69.5 60t-69 49q8 -15 11.5 -31t3.5 -27q0 -31 -15 -55t-39 -40.5t-53.5 -25t-58.5 -8.5q-37 0 -68.5 11.5t-54 32t-35.5 49t-13 62.5q0 31 11 59t33 49
t54.5 33.5t75.5 12.5q50 0 91.5 -14.5t78.5 -35.5t71 -46.5t68.5 -46.5t71.5 -35.5t80 -14.5t73.5 14t53.5 37.5t41 55t37 67.5zM376 -233q0 -28 20 -48t52 -20q13 0 25.5 5.5t22 14.5t15 21.5t5.5 26.5q0 27 -18.5 49t-49.5 22q-32 0 -52 -21t-20 -50z" />
    <glyph glyph-name="lo_niggahita.tone_mai_ek" unicode="&#xec8;&#xecd;" 
d="M-667 1760l-34 340h173l-38 -340h-101zM-699 1555q0 -35 25 -60t60 -25t60 25t25 60t-25 60t-60 25t-60 -25t-25 -60zM-799 1555q0 38 14.5 72t39.5 59t59 39.5t72 14.5t72 -14.5t59 -39.5t39.5 -59t14.5 -72t-14.5 -72t-39.5 -59t-59 -39.5t-72 -14.5t-72 14.5t-59 39.5
t-39.5 59t-14.5 72z" />
    <glyph glyph-name="lo_niggahita.tone_mai_tho" unicode="&#xec9;&#xecd;" 
d="M-991 1765q17 6 41 14.5t48.5 22.5t47.5 36t39 56q-24 -16 -43 -21t-41 -5q-23 0 -43.5 7.5t-36 21.5t-24.5 33t-9 42q0 18 8 40.5t27.5 42t52 32.5t82.5 13q23 0 51.5 -5.5t53 -21t41.5 -42.5t17 -69q0 -25 -13.5 -48.5t-30 -41.5t-31 -29t-17.5 -11q8 -1 18 -1.5
t23 -0.5q31 0 74.5 6t92.5 27t99 61t94 107l160 -58q-36 -56 -97 -99.5t-137.5 -73t-163 -45t-173.5 -15.5q-55 0 -108 6t-102 19zM-934 1982q0 -23 17.5 -39t42.5 -16t42 16t17 39t-17 39.5t-42 16.5t-42.5 -16.5t-17.5 -39.5zM-699 1555q0 -35 25 -60t60 -25t60 25t25 60
t-25 60t-60 25t-60 -25t-25 -60zM-799 1555q0 38 14.5 72t39.5 59t59 39.5t72 14.5t72 -14.5t59 -39.5t39.5 -59t14.5 -72t-14.5 -72t-39.5 -59t-59 -39.5t-72 -14.5t-72 14.5t-59 39.5t-39.5 59t-14.5 72z" />
    <glyph glyph-name="lo_niggahita.tone_mai_ti" unicode="&#xeca;&#xecd;" 
d="M-667 1861q0 20 -15 34t-37 14t-37 -14t-15 -34q0 -21 15 -35.5t37 -14.5t37 14.5t15 35.5zM-208 1813v-56h-297v67q19 1 42 12.5t43.5 30.5t34 44.5t13.5 54.5q0 51 -28 79t-70 28q-24 0 -43 -9.5t-37 -21.5t-36.5 -23t-42.5 -14q-24 1 -42 12t-35 23.5t-35.5 22.5
t-42.5 10q-19 0 -38.5 -9t-35 -25t-25.5 -37t-10 -45q0 -30 7.5 -52t20 -37.5t29 -25.5t34.5 -17q-9 22 -9 42q0 42 32 68t82 26q41 0 70 -25.5t29 -65.5q0 -17 -7 -36.5t-26.5 -36.5t-55.5 -28.5t-94 -11.5q-46 0 -87 16t-71.5 43t-48.5 63.5t-18 77.5q0 51 17 88t45.5 61
t66.5 35.5t79 11.5q32 0 56 -11t43.5 -24.5t37 -24.5t36.5 -11t37.5 11t38.5 24.5t43 24.5t51 11q47 0 84 -15t62 -40t38 -58t13 -69q0 -29 -10.5 -53t-25.5 -43.5t-31.5 -34t-28.5 -24.5l-4 -3h150zM-699 1555q0 -35 25 -60t60 -25t60 25t25 60t-25 60t-60 25t-60 -25
t-25 -60zM-799 1555q0 38 14.5 72t39.5 59t59 39.5t72 14.5t72 -14.5t59 -39.5t39.5 -59t14.5 -72t-14.5 -72t-39.5 -59t-59 -39.5t-72 -14.5t-72 14.5t-59 39.5t-39.5 59t-14.5 72z" />
    <glyph glyph-name="lo_niggahita.tone_mai_catawa" unicode="&#xecb;&#xecd;" 
d="M-699 1555q0 -35 25 -60t60 -25t60 25t25 60t-25 60t-60 25t-60 -25t-25 -60zM-799 1555q0 38 14.5 72t39.5 59t59 39.5t72 14.5t72 -14.5t59 -39.5t39.5 -59t14.5 -72t-14.5 -72t-39.5 -59t-59 -39.5t-72 -14.5t-72 14.5t-59 39.5t-39.5 59t-14.5 72zM-663 2028v139h100
v-139h139v-100h-139v-139h-100v139h-139v100h139z" />
    <glyph glyph-name="lo_ngo.vs_u" unicode="&#xe87;&#xeb8;" horiz-adv-x="1070" 
d="M198 -5q15 -48 43 -83.5t64 -59t76.5 -35t81.5 -11.5q64 0 121.5 18t101 55t69 94.5t25.5 135.5v603q0 65 -24 116.5t-66 87t-98.5 54.5t-120.5 19q-42 0 -88 -7t-88 -27.5t-75.5 -57t-50.5 -94.5q12 13 29.5 24t38 19.5t42 13.5t41.5 5q38 0 67.5 -13t50 -35.5
t31.5 -52.5t11 -64q0 -37 -14 -69.5t-39 -57t-60 -38.5t-77 -14q-64 0 -108 22.5t-71 57t-39 75t-12 77.5q0 88 37.5 152t96.5 104.5t133 60t146 19.5q94 0 177 -24t145 -72.5t98.5 -123t36.5 -175.5v-564q0 -46 -10.5 -95.5t-33.5 -96.5t-60 -89t-89 -74t-121 -50.5
t-157 -18.5q-47 0 -103 10t-111 33t-103.5 61.5t-81.5 95.5zM210 700q0 -35 27 -59.5t68 -24.5t68 24.5t27 59.5t-25.5 60t-67.5 25q-41 0 -69 -25t-28 -60zM380 -516q0 -29 22 -49.5t52 -20.5t51.5 20.5t21.5 49.5t-21.5 49t-51.5 20t-52 -20t-22 -49zM586 -586
q-23 -39 -52.5 -59.5t-74.5 -20.5q-33 0 -62 11t-50.5 30.5t-34 45.5t-12.5 57t13 60t38 51.5t62 36.5t85 14q52 0 93.5 -21t70.5 -55.5t44.5 -78.5t15.5 -90q0 -51 -14 -95t-36 -82t-49 -69t-52 -54t-46 -38.5t-31 -22.5l-65 78q92 70 129.5 132.5t37.5 114.5q0 31 -10 55z
" />
    <glyph glyph-name="lo_ngo.vs_uu" unicode="&#xe87;&#xeb9;" horiz-adv-x="1070" 
d="M198 -5q15 -48 43 -83.5t64 -59t76.5 -35t81.5 -11.5q64 0 121.5 18t101 55t69 94.5t25.5 135.5v603q0 65 -24 116.5t-66 87t-98.5 54.5t-120.5 19q-42 0 -88 -7t-88 -27.5t-75.5 -57t-50.5 -94.5q12 13 29.5 24t38 19.5t42 13.5t41.5 5q38 0 67.5 -13t50 -35.5
t31.5 -52.5t11 -64q0 -37 -14 -69.5t-39 -57t-60 -38.5t-77 -14q-64 0 -108 22.5t-71 57t-39 75t-12 77.5q0 88 37.5 152t96.5 104.5t133 60t146 19.5q94 0 177 -24t145 -72.5t98.5 -123t36.5 -175.5v-564q0 -46 -10.5 -95.5t-33.5 -96.5t-60 -89t-89 -74t-121 -50.5
t-157 -18.5q-47 0 -103 10t-111 33t-103.5 61.5t-81.5 95.5zM210 700q0 -35 27 -59.5t68 -24.5t68 24.5t27 59.5t-25.5 60t-67.5 25q-41 0 -69 -25t-28 -60zM547 -708q0 -80 19.5 -113.5t56.5 -33.5q9 0 21 4.5t23 20t18.5 44.5t7.5 78v358h145v-333q0 -53 -9.5 -102
t-34 -86.5t-66 -60.5t-105.5 -23t-106 25t-66.5 64t-34 87t-9.5 95v91q-12 -34 -42.5 -53.5t-75.5 -19.5q-33 0 -62 10.5t-50.5 30t-34 46.5t-12.5 60q0 34 13 64.5t38 54t62 37t85 13.5q52 0 92.5 -18.5t68.5 -49.5t43 -71t15 -83v-136zM210 -506q0 -29 22 -49.5t52 -20.5
t51.5 20.5t21.5 49.5t-21.5 49t-51.5 20t-52 -20t-22 -49z" />
    <glyph glyph-name="lo_vs_lo.vs_u.comb" unicode="&#xebc;&#xeb8;" 
d="M-134 -158q-65 -117 -142 -170t-153 -53q-57 0 -100.5 21.5t-80 50.5t-69.5 60t-69 49q8 -15 11.5 -31t3.5 -27q0 -31 -15 -55t-39 -40.5t-53.5 -25t-58.5 -8.5q-37 0 -68.5 11.5t-54 32t-35.5 49t-13 62.5q0 31 11 59t33 49t54.5 33.5t75.5 12.5q50 0 91.5 -14.5
t78.5 -35.5t71 -46.5t68.5 -46.5t71.5 -35.5t80 -14.5t73.5 14t53.5 37.5t41 55t37 67.5zM-944 -233q0 -28 20 -48t52 -20q13 0 25.5 5.5t22 14.5t15 21.5t5.5 26.5q0 27 -18.5 49t-49.5 22q-32 0 -52 -21t-20 -50zM-760 -586q0 -29 22 -49.5t52 -20.5t51.5 20.5t21.5 49.5
t-21.5 49t-51.5 20t-52 -20t-22 -49zM-554 -656q-23 -39 -52.5 -59.5t-74.5 -20.5q-33 0 -62 11t-50.5 30.5t-34 45.5t-12.5 57t13 60t38 51.5t62 36.5t85 14q52 0 93.5 -21t70.5 -55.5t44.5 -78.5t15.5 -90q0 -51 -14 -95t-36 -82t-49 -69t-52 -54t-46 -38.5t-31 -22.5
l-65 78q92 70 129.5 132.5t37.5 114.5q0 31 -10 55z" />
    <glyph glyph-name="lo_vs_lo.vs_uu.comb" unicode="&#xebc;&#xeb9;" 
d="M-134 -158q-65 -117 -142 -170t-153 -53q-57 0 -100.5 21.5t-80 50.5t-69.5 60t-69 49q8 -15 11.5 -31t3.5 -27q0 -31 -15 -55t-39 -40.5t-53.5 -25t-58.5 -8.5q-37 0 -68.5 11.5t-54 32t-35.5 49t-13 62.5q0 31 11 59t33 49t54.5 33.5t75.5 12.5q50 0 91.5 -14.5
t78.5 -35.5t71 -46.5t68.5 -46.5t71.5 -35.5t80 -14.5t73.5 14t53.5 37.5t41 55t37 67.5zM-944 -233q0 -28 20 -48t52 -20q13 0 25.5 5.5t22 14.5t15 21.5t5.5 26.5q0 27 -18.5 49t-49.5 22q-32 0 -52 -21t-20 -50zM-563 -788q0 -80 19.5 -113.5t56.5 -33.5q9 0 21 4.5
t23 20t18.5 44.5t7.5 78v358h145v-333q0 -53 -9.5 -102t-34 -86.5t-66 -60.5t-105.5 -23t-106 25t-66.5 64t-34 87t-9.5 95v91q-12 -34 -42.5 -53.5t-75.5 -19.5q-33 0 -62 10.5t-50.5 30t-34 46.5t-12.5 60q0 34 13 64.5t38 54t62 37t85 13.5q52 0 92.5 -18.5t68.5 -49.5
t43 -71t15 -83v-136zM-900 -586q0 -29 22 -49.5t52 -20.5t51.5 20.5t21.5 49.5t-21.5 49t-51.5 20t-52 -20t-22 -49z" />
    <glyph glyph-name=".notdef" horiz-adv-x="1406" 
d="M60 0v1502h1226v-1502h-1226zM132 57h1081v1388h-1081v-1388z" />
    <glyph glyph-name=".null" 
 />
    <glyph glyph-name="uni000D" unicode="&#xd;" horiz-adv-x="600" 
 />
    <glyph glyph-name="NULL" 
 />
    <glyph glyph-name="NULL" 
 />
    <glyph glyph-name="space" unicode=" " horiz-adv-x="420" 
 />
    <glyph glyph-name="exclam" unicode="!" horiz-adv-x="567" 
d="M252 339q-4 110 -18 223t-29 223.5t-27 215.5t-12 199q0 36 10 65t26.5 49t37.5 31t44 11q25 0 46 -11t37 -31t25 -49t9 -65q0 -94 -12 -199t-27.5 -215.5t-29.5 -223.5t-18 -223h-62zM284 180q22 0 42 -8.5t34.5 -22.5t23 -33.5t8.5 -40.5q0 -23 -8.5 -42t-23 -33.5
t-34.5 -22.5t-42 -8q-23 0 -43 8t-35 22.5t-23.5 33.5t-8.5 42q0 21 8.5 40.5t23.5 33.5t35 22.5t43 8.5z" />
    <glyph glyph-name="quotedbl" unicode="&#x22;" horiz-adv-x="752" 
d="M188 787q-9 73 -22.5 132.5t-26 114t-21.5 107.5t-9 114q0 43 29.5 72t72.5 29t72.5 -29t29.5 -72q0 -61 -9 -114t-21.5 -107.5t-26 -114t-22.5 -132.5h-46zM517 787q-9 73 -22.5 132.5t-26 114t-21 107.5t-8.5 114q0 43 29.5 72t72.5 29q21 0 39.5 -8t32 -21.5t21.5 -32
t8 -39.5q0 -61 -9 -114t-21.5 -107.5t-26 -114t-22.5 -132.5h-46z" />
    <glyph glyph-name="numbersign" unicode="#" horiz-adv-x="999" 
d="M283 861l99 465h102l-100 -465h331l100 465h99l-97 -465h173v-74h-189l-69 -329h258v-74h-275l-93 -433h-101l92 433h-330l-94 -433h-102l95 431h-172v76h187l70 329h-257v74h273zM298 458h332l69 329h-330z" />
    <glyph glyph-name="dollar" unicode="$" horiz-adv-x="1047" 
d="M468 598q-71 39 -135.5 82.5t-114.5 95t-79.5 114.5t-29.5 141q0 65 28 121.5t76.5 100t114 70.5t140.5 33v95h79v-95q52 -3 97.5 -11.5t87 -21.5t79.5 -28.5t76 -31.5v-292h-38q-11 90 -37 146t-64.5 90t-89 49.5t-111.5 24.5v-503q70 -38 139.5 -83t125 -99t90 -119
t34.5 -142q0 -72 -27.5 -135.5t-78.5 -113t-123 -80.5t-160 -37v-90h-79v90q-54 1 -101.5 6.5t-91 16t-84.5 27t-82 39.5v270h47q10 -76 32 -130t59.5 -88t92 -49.5t128.5 -15.5v553zM547 45q46 8 85.5 31t69 55t46 71.5t16.5 80.5q0 42 -16.5 80t-46 71.5t-69 62.5
t-85.5 54v-506zM468 1281q-41 -6 -75 -25t-59.5 -46.5t-39.5 -61.5t-14 -70q0 -37 14 -72t39.5 -67t59.5 -60t75 -51v453z" />
    <glyph glyph-name="percent" unicode="%" horiz-adv-x="1679" 
d="M353 1356q69 0 121 -32t87.5 -83.5t53 -117.5t17.5 -133q0 -66 -18 -129.5t-53.5 -113t-87.5 -79.5t-121 -30q-68 0 -120 30t-87.5 79.5t-54 113t-18.5 129.5q0 67 18.5 133t54 117.5t88 83.5t120.5 32zM355 1306q-29 0 -49.5 -17.5t-35 -45t-23 -62.5t-13 -70t-6 -67
t-1.5 -54q0 -21 1 -51t5.5 -63.5t12.5 -67t22 -60.5t34.5 -43.5t49.5 -16.5q28 0 48.5 16.5t34.5 43t22.5 59.5t13 66.5t6 64t1.5 52.5q0 21 -1.5 52.5t-6 66.5t-13 70.5t-22 63.5t-33.5 45.5t-47 17.5zM1330 688q69 0 121 -32t87 -84t53 -117.5t18 -132.5t-18 -130.5
t-53.5 -113t-88 -79.5t-121.5 -30q-68 0 -120 30t-87 79.5t-53 113t-18 130.5t18.5 132.5t54 117.5t87.5 84t120 32zM1332 638q-29 0 -49.5 -17.5t-34.5 -45t-23 -62.5t-14 -70.5t-6.5 -67t-1.5 -53.5q0 -21 1.5 -51.5t5.5 -64t12.5 -67t22.5 -60.5t34 -43.5t49 -16.5
t49.5 16.5t34.5 43t22.5 60t13 67t6 64.5t1.5 52t-1.5 52.5t-6 66.5t-13 70t-22 63.5t-33.5 46t-47 17.5zM410 -31h-87l951 1387h87z" />
    <glyph glyph-name="ampersand" unicode="&#x26;" horiz-adv-x="1561" 
d="M508 658q-50 -29 -92.5 -64t-73.5 -74.5t-48.5 -83.5t-17.5 -92q0 -54 17.5 -101t49.5 -81.5t78.5 -54.5t104.5 -20q79 0 150.5 35t136.5 86q-45 49 -86.5 104t-79.5 112.5t-72.5 117t-66.5 116.5zM652 805q52 27 97 56t78.5 62.5t52.5 74t19 89.5q0 48 -12.5 85.5
t-34 64t-50 40.5t-61.5 14q-37 0 -68 -19t-53.5 -49.5t-35.5 -68t-13 -74.5q0 -60 21.5 -132t59.5 -143zM1233 715q-12 -71 -29.5 -127t-42 -105.5t-57 -96.5t-73.5 -99q77 -78 145.5 -123.5t126.5 -45.5q75 0 128 29.5t85 104.5l38 -14q-13 -65 -42.5 -115t-72.5 -84.5
t-98 -52t-119 -17.5q-82 0 -168.5 46.5t-169.5 124.5q-98 -76 -213.5 -123.5t-249.5 -47.5q-94 0 -160 21t-108 59t-61.5 91t-19.5 117q0 91 34.5 161.5t91 126.5t128.5 99.5t148 80.5q-42 88 -66.5 162t-24.5 125q0 66 21.5 128t65 110t108.5 77t151 29q64 0 120.5 -18.5
t98.5 -54t66.5 -87t24.5 -116.5t-31 -114t-81 -88t-113.5 -71t-128.5 -63q52 -99 125.5 -196.5t158.5 -191.5q99 112 148.5 207t65.5 166z" />
    <glyph glyph-name="quotesingle" unicode="'" horiz-adv-x="346" 
d="M150 787q-9 73 -22.5 132.5t-26 114t-21 107.5t-8.5 114q0 21 8 39.5t21.5 32t32 21.5t39.5 8q43 0 72.5 -29t29.5 -72q0 -61 -9 -114t-21.5 -107.5t-25.5 -114t-22 -132.5h-47z" />
    <glyph glyph-name="parenleft" unicode="(" horiz-adv-x="733" 
d="M721 -413q-129 46 -235.5 135t-182.5 206.5t-118 255.5t-42 281q0 96 19 191t55 183.5t87 169t115 147.5t140 118t162 82v-34q-108 -72 -180.5 -168.5t-116 -208t-61.5 -234t-18 -246.5q0 -122 14.5 -242t56 -229.5t115 -204.5t190.5 -167v-35z" />
    <glyph glyph-name="parenright" unicode=")" horiz-adv-x="733" 
d="M14 -378q117 72 190 167t114 204.5t55.5 229.5t14.5 242q0 124 -18 246.5t-61 234t-115 208t-180 168.5v34q85 -30 161 -81.5t140 -118.5t115 -147.5t86.5 -169t54.5 -183.5t19 -191q0 -143 -42 -281t-118 -255.5t-182 -206.5t-234 -135v35z" />
    <glyph glyph-name="asterisk" unicode="*" horiz-adv-x="786" 
d="M379 989q0 33 -9.5 69t-21.5 71.5t-21.5 68.5t-9.5 60q0 42 22.5 70t54.5 28q33 0 55.5 -28t22.5 -70q0 -27 -10 -60t-21.5 -68.5t-21.5 -71.5t-10 -69q28 16 55 42.5t51.5 54.5t48 53t46.5 39q31 16 59 16q20 0 37 -8.5t27 -25.5q4 -7 6.5 -16t2.5 -17
q0 -23 -14.5 -46.5t-41.5 -38.5q-22 -13 -55 -21t-69 -15.5t-72.5 -17.5t-64.5 -26q28 -17 64 -26t73 -16.5t70 -15t56 -20.5q26 -17 40 -40t14 -46q0 -16 -8 -34q-9 -16 -26.5 -24t-37.5 -8q-14 0 -29 3.5t-31 11.5q-23 13 -46.5 38t-48 53t-50.5 54.5t-56 43.5
q0 -33 10 -69.5t21.5 -72.5t21.5 -69.5t10 -58.5q0 -21 -6 -39t-16.5 -31.5t-25 -21t-30.5 -7.5q-32 0 -54.5 28.5t-22.5 70.5q0 27 9.5 60t20.5 69t21 72t11 69q-29 -18 -55.5 -44.5t-51.5 -54.5t-49 -52.5t-47 -37.5q-28 -18 -59 -18q-44 0 -64 34q-8 12 -8 31
q0 25 14.5 48.5t40.5 38.5q21 13 54.5 21t70.5 15.5t73.5 17.5t65.5 27q-29 16 -65 25.5t-73 17t-70.5 15.5t-55.5 22q-26 17 -41.5 40t-15.5 45q0 18 10 33q10 17 27.5 25.5t37.5 8.5q14 0 29 -3.5t31 -11.5q23 -14 46 -39.5t47.5 -53.5t51 -54.5t56.5 -42.5z" />
    <glyph glyph-name="plus" unicode="+" horiz-adv-x="1135" 
d="M517 962h86v-441h461v-83h-461v-441h-86v441h-460v83h460v441z" />
    <glyph glyph-name="comma" unicode="," horiz-adv-x="508" 
d="M86 -282q45 13 85 36.5t69 53.5t46 65.5t17 72.5q0 21 -8.5 37.5t-21.5 16.5t-21.5 -5t-17 -10.5t-20 -10.5t-30.5 -5q-20 0 -37.5 8.5t-31 24t-21.5 36t-8 44.5q0 26 10.5 48t29 38.5t43.5 25.5t53 9q37 0 69 -16.5t56 -45t37.5 -66t13.5 -80.5q0 -68 -25.5 -125
t-68 -99.5t-99 -68.5t-119.5 -30v46z" />
    <glyph glyph-name="hyphen" unicode="-" horiz-adv-x="586" 
d="M536 536v-117h-487v117h487z" />
    <glyph glyph-name="period" unicode="." horiz-adv-x="436" 
d="M219 180q22 0 42 -8.5t35 -22.5t23.5 -33.5t8.5 -40.5q0 -23 -8.5 -42t-23.5 -33.5t-35 -22.5t-42 -8q-23 0 -43 8t-35 22.5t-23.5 33.5t-8.5 42q0 21 8.5 40.5t23.5 33.5t35 22.5t43 8.5z" />
    <glyph glyph-name="slash" unicode="/" horiz-adv-x="514" 
d="M435 1356h91l-445 -1387h-91z" />
    <glyph glyph-name="zero" unicode="0" horiz-adv-x="1122" 
d="M562 -31q-110 0 -200.5 52t-155 145t-99.5 222t-35 282q0 141 35 266t99.5 218.5t155 147.5t200.5 54t200 -54t154.5 -147.5t99.5 -218.5t35 -266q0 -153 -35 -282t-99.5 -222t-154.5 -145t-200 -52zM562 35q67 0 117 52t83 140t49.5 202.5t16.5 240.5t-16.5 239
t-49.5 197.5t-83 134.5t-117 50q-68 0 -118 -50t-83 -134.5t-49 -197.5t-16 -239t16 -240.5t49 -202.5t83 -140t118 -52z" />
    <glyph glyph-name="one" unicode="1" horiz-adv-x="1122" 
d="M557 0v1122h-223v57q122 0 195 46t113 131h103v-1356h-188z" />
    <glyph glyph-name="two" unicode="2" horiz-adv-x="1122" 
d="M86 0v35q147 140 255 246.5t183.5 188.5t122.5 143.5t73 110.5t35.5 89.5t9.5 81.5q0 59 -18.5 114.5t-54.5 98t-90 68t-126 25.5q-55 0 -108.5 -19t-97 -51.5t-73.5 -76t-38 -92.5h-38q6 81 42.5 153t94.5 125.5t132.5 84.5t155.5 31q103 0 180.5 -29.5t130 -79.5
t79 -116.5t26.5 -139.5q0 -51 -15 -102.5t-46.5 -108t-82 -120.5t-121.5 -140t-164 -167.5t-210 -201.5h708l-98 -151h-847z" />
    <glyph glyph-name="three" unicode="3" horiz-adv-x="1122" 
d="M355 690q76 9 138.5 35t107.5 66.5t70 95t25 119.5q0 44 -17.5 82.5t-49 67t-75 45t-96.5 16.5q-38 0 -78.5 -13t-78 -35.5t-69 -53t-51.5 -64.5l-40 15q21 60 56.5 113t85 92.5t112.5 62t140 22.5q73 0 136.5 -21.5t111 -59t75 -88.5t27.5 -111q0 -31 -16 -69t-43.5 -77
t-64 -76.5t-77.5 -66.5q57 -17 106.5 -52.5t86.5 -83.5t58.5 -103.5t21.5 -110.5q0 -118 -46 -206t-127 -146t-191 -87t-238 -29q-54 0 -97 8t-73 22.5t-46 34.5t-16 44q0 21 10.5 35.5t26.5 23t35 12t36 3.5q36 0 61.5 -7t45.5 -17.5t37 -22.5t36 -22.5t42.5 -17.5t56.5 -7
q69 0 122 22.5t89 61t54.5 88t18.5 103.5q0 69 -26.5 128t-80.5 102.5t-137 68t-195 24.5v34z" />
    <glyph glyph-name="four" unicode="4" horiz-adv-x="1122" 
d="M683 343h-634v121l695 892h126v-869h189v-144h-189v-343h-187v343zM181 487h502v654z" />
    <glyph glyph-name="five" unicode="5" horiz-adv-x="1122" 
d="M913 1163h-430l-99 -181q82 0 159 -17.5t145 -50t124 -79t96 -104t62.5 -125t22.5 -142.5q0 -102 -46 -192t-125.5 -157.5t-187 -106.5t-230.5 -39q-56 0 -102 10.5t-79 28.5t-51 42t-18 51q0 35 27.5 52.5t64.5 17.5q40 0 68 -15t57 -33t65.5 -33t93.5 -15
q65 0 122.5 25.5t100.5 69.5t68 103.5t25 127.5q0 92 -46.5 167t-132 128.5t-207 82.5t-271.5 29l286 518h521z" />
    <glyph glyph-name="six" unicode="6" horiz-adv-x="1122" 
d="M995 1322q-80 -7 -155 -32.5t-142.5 -66t-126 -94.5t-105 -118t-80 -135.5t-50.5 -146.5q32 22 66.5 42t73 34t81.5 22.5t93 8.5q80 0 151 -31t123.5 -85t83 -126.5t30.5 -154.5q0 -97 -37.5 -182.5t-101.5 -149.5t-150.5 -101t-183.5 -37q-104 0 -190.5 41.5
t-148.5 112.5t-97 167t-35 206q0 116 29 225.5t83.5 205t134 174.5t179.5 135.5t219.5 88t255.5 31.5v-34zM334 670q-8 -44 -12.5 -90.5t-4.5 -89.5q0 -91 16.5 -173.5t50.5 -145t86 -99.5t123 -37q49 0 92.5 24.5t75.5 67.5t51 100t19 123q0 83 -22 156t-60.5 127.5
t-89.5 86t-109 31.5q-24 0 -52.5 -6t-57.5 -16.5t-56.5 -25.5t-49.5 -33z" />
    <glyph glyph-name="seven" unicode="7" horiz-adv-x="1122" 
d="M1010 1291l-485 -1322h-127l436 1194h-699l76 163h799v-35z" />
    <glyph glyph-name="eight" unicode="8" horiz-adv-x="1122" 
d="M544 1356q90 0 166 -22.5t131 -62.5t86 -94.5t31 -118.5q0 -41 -26 -88t-69 -91.5t-98.5 -82t-114.5 -59.5q86 -50 150.5 -106.5t107 -112t63.5 -107t21 -91.5q0 -73 -33.5 -137t-91.5 -111.5t-135 -75t-165 -27.5q-93 0 -171 25t-134 68.5t-87.5 103t-31.5 128.5
q0 64 20 115.5t57.5 96t91 84.5t119.5 80q-72 54 -123 98t-83.5 86.5t-47.5 87.5t-15 100q0 64 30 121.5t82 100t121.5 67.5t148.5 25zM601 774q43 34 79 70.5t61.5 77t39.5 85.5t14 96q0 39 -17 73.5t-48.5 60t-77 40t-102.5 14.5q-51 0 -93 -16.5t-72 -44t-47 -62
t-17 -70.5q0 -49 26 -93.5t66.5 -85t90.5 -77t97 -68.5zM482 634q-47 -37 -79.5 -79.5t-53 -85.5t-30 -84t-9.5 -75q0 -57 21 -107t56.5 -87.5t83 -59t101.5 -21.5t102.5 15t85 41t57.5 61t21 75t-15 77t-54.5 82t-109 104t-177.5 144z" />
    <glyph glyph-name="nine" unicode="9" horiz-adv-x="1122" 
d="M119 4q112 10 218 59.5t193.5 127.5t150 178.5t88.5 212.5q-33 -20 -66.5 -38t-71 -31.5t-79.5 -21t-92 -7.5q-87 0 -156 34.5t-117.5 92t-74.5 131.5t-26 153q0 96 36.5 180t100.5 146.5t149 98.5t183 36q97 0 183 -41t150 -112.5t101.5 -168t37.5 -206.5
q0 -118 -32.5 -227.5t-92 -205t-142 -174t-183.5 -134.5t-217 -87t-241 -31v35zM786 657q7 43 12 95t5 103q0 89 -22 168t-60 138.5t-89.5 94.5t-110.5 35q-61 0 -104.5 -27t-71.5 -71.5t-41.5 -100.5t-13.5 -113q0 -89 16 -163.5t49 -128.5t84.5 -84t122.5 -30
q27 0 58.5 6.5t62 18t57.5 27t46 32.5z" />
    <glyph glyph-name="colon" unicode=":" horiz-adv-x="436" 
d="M219 915q22 0 42 -8.5t35 -22.5t23.5 -33.5t8.5 -41.5t-8.5 -41t-23.5 -33.5t-35 -23t-42 -8.5q-23 0 -43 8.5t-35 23t-23.5 33.5t-8.5 41t8.5 41.5t23.5 33.5t35 22.5t43 8.5zM219 180q22 0 42 -8.5t35 -22.5t23.5 -33.5t8.5 -40.5q0 -23 -8.5 -42t-23.5 -33.5
t-35 -22.5t-42 -8q-23 0 -43 8t-35 22.5t-23.5 33.5t-8.5 42q0 21 8.5 40.5t23.5 33.5t35 22.5t43 8.5z" />
    <glyph glyph-name="semicolon" unicode=";" horiz-adv-x="532" 
d="M258 915q22 0 42 -9t34.5 -24t23 -35t8.5 -42q0 -23 -8.5 -43t-23 -34.5t-34.5 -23t-42 -8.5q-23 0 -43 8.5t-35 23t-23.5 34.5t-8.5 43q0 22 8.5 42t23.5 35t35 24t43 9zM109 -282q45 13 85 36.5t70 53.5t47 65.5t17 72.5q0 21 -9 37.5t-23 16.5q-12 0 -20 -5t-17 -10.5
t-20.5 -10.5t-30.5 -5q-20 0 -38 8.5t-31.5 24t-21.5 36t-8 44.5q0 26 10.5 48t29.5 38.5t43.5 25.5t53.5 9q37 0 69 -16.5t56 -45t37.5 -66t13.5 -80.5q0 -68 -25.5 -125t-68 -99.5t-99.5 -68.5t-120 -30v46z" />
    <glyph glyph-name="less" unicode="&#x3c;" horiz-adv-x="1077" 
d="M1040 940v-101l-840 -361l840 -346v-101l-1007 418v56z" />
    <glyph glyph-name="equal" unicode="=" horiz-adv-x="1190" 
d="M90 692h1007v-102h-1007v102zM90 365h1007v-101h-1007v101z" />
    <glyph glyph-name="greater" unicode="&#x3e;" horiz-adv-x="1067" 
d="M1037 450l-1006 -418v101l839 346l-839 361v101l1006 -435v-56z" />
    <glyph glyph-name="question" unicode="?" horiz-adv-x="922" 
d="M407 310q0 87 16 154.5t40 124t51.5 106t51.5 100t40 106.5t16 126q0 65 -16 113t-45 80t-68.5 48t-85.5 16q-41 0 -75.5 -9.5t-59.5 -27t-39 -41t-14 -50.5q0 -29 10 -47t21.5 -33t21.5 -30.5t10 -39.5q0 -42 -23 -66.5t-56 -24.5q-23 0 -42.5 10.5t-33.5 29.5
t-22.5 45.5t-8.5 57.5q0 81 33 137.5t84.5 92t115 52t124.5 16.5q81 0 149.5 -21.5t118 -62t77.5 -99t28 -131.5q0 -72 -27.5 -134t-69 -118.5t-90 -110.5t-90 -111t-69 -120.5t-27.5 -137.5h-46zM438 188q22 0 42 -9t34.5 -24t23 -35t8.5 -42q0 -23 -8.5 -42.5t-23 -34.5
t-34.5 -23.5t-42 -8.5q-23 0 -43 8.5t-35 23.5t-23.5 34.5t-8.5 42.5q0 22 8.5 42t23.5 35t35 24t43 9z" />
    <glyph glyph-name="at" unicode="@" horiz-adv-x="1892" 
d="M1221 876l159 19l-182 -618q-11 -38 -18.5 -73t-7.5 -72q0 -39 15 -68t50 -29q44 0 91.5 23.5t92.5 66t85.5 101.5t71 130t48.5 151.5t18 165.5q0 135 -48.5 248t-131 194.5t-190.5 127.5t-227 46q-127 0 -239 -30t-206 -84.5t-168.5 -131.5t-126 -171t-79 -203
t-27.5 -227q0 -104 25 -202.5t72.5 -186t116 -160.5t155 -125.5t189.5 -82t220 -29.5q103 0 191.5 23t163.5 63t136.5 93.5t110.5 114.5t86.5 126t64.5 128l74 -20q-61 -138 -138.5 -250t-179 -191t-230.5 -122t-293 -43q-132 0 -246 31t-208.5 88t-168 137t-124 177.5
t-77 210t-26.5 235.5q0 129 31.5 246t90 217t141.5 180.5t186 137.5t224 87.5t255 30.5q145 0 269.5 -49t216 -139.5t144 -218t52.5 -283.5q0 -92 -19 -179.5t-53.5 -165t-82 -142t-104 -111.5t-120 -73t-129.5 -26q-42 0 -78 6.5t-62 23.5t-41 45.5t-15 72.5q0 32 3.5 67.5
t12.5 71.5q-6 -6 -11.5 -15.5t-11.5 -17.5q-37 -42 -77.5 -86.5t-84.5 -82t-90.5 -61.5t-94.5 -24q-47 0 -81 19.5t-55.5 52t-32 74t-10.5 86.5q0 67 21 146.5t58 158.5t88.5 153t112.5 131t129 91t139 34q31 0 56 -15t43.5 -38.5t30 -53.5t15.5 -60zM727 94q49 0 98.5 30.5
t95 81.5t85 116.5t68.5 134.5t46 137.5t17 124.5q0 28 -12.5 54t-31.5 46.5t-41.5 32.5t-41.5 12q-54 0 -104 -32.5t-93 -85.5t-79 -120.5t-61 -138t-39 -138t-14 -119.5q0 -21 4.5 -44.5t16.5 -44t32.5 -34t53.5 -13.5z" />
    <glyph glyph-name="A" unicode="A" horiz-adv-x="1327" 
d="M699 1356l624 -1356h-227l-202 442h-569l-209 -442h-112l639 1356h56zM364 528h489l-241 525z" />
    <glyph glyph-name="B" unicode="B" horiz-adv-x="1354" 
d="M180 1326h534q106 0 194.5 -23.5t152 -66.5t98.5 -103t35 -132q0 -55 -11 -98t-39 -79.5t-74.5 -69t-117.5 -66.5v-4q71 -11 128 -38t97.5 -68.5t62.5 -97t22 -121.5q0 -75 -32.5 -140.5t-93 -114t-146 -76.5t-191.5 -28h-619v1326zM403 729h284q67 0 119 19t88 52.5
t54.5 80t18.5 100.5q0 58 -22 105.5t-68.5 81.5t-118 52t-171.5 18h-184v-509zM403 97h241q97 0 168.5 18.5t118 52t69 80.5t22.5 103q0 63 -20 117t-65.5 93.5t-119 62.5t-180.5 23h-234v-550z" />
    <glyph glyph-name="C" unicode="C" horiz-adv-x="1589" 
d="M390 658q0 -139 42 -249.5t115.5 -187t173.5 -117t217 -40.5q70 0 135 27t120.5 70.5t99.5 98t72 110.5l94 -60q-41 -67 -97 -128.5t-129.5 -109t-166 -75.5t-206.5 -28q-165 0 -299.5 55t-230.5 149t-148.5 219.5t-52.5 265.5q0 93 24 181.5t69.5 166t111 142t148 111
t180.5 72t209 25.5q106 0 195.5 -28.5t163 -75.5t131 -108.5t98.5 -128.5l-97 -64q-83 161 -186 235.5t-237 74.5q-115 0 -215 -42t-174.5 -120t-117 -189.5t-42.5 -251.5z" />
    <glyph glyph-name="D" unicode="D" horiz-adv-x="1563" 
d="M180 1326h442q204 0 351 -38t245 -122q112 -96 168.5 -220t56.5 -271q0 -140 -50.5 -263t-148 -214.5t-241 -144.5t-328.5 -53h-495v1326zM403 97h237q112 0 211 37t172.5 110t116 179.5t42.5 246.5q0 123 -40 225.5t-112 176.5t-171.5 115t-217.5 41h-238v-1131z" />
    <glyph glyph-name="E" unicode="E" horiz-adv-x="1184" 
d="M1102 1326v-86h-699v-474h468v-86h-468v-594h699v-86h-922v1326h922z" />
    <glyph glyph-name="F" unicode="F" horiz-adv-x="1047" 
d="M1036 1326v-86h-647v-474h468v-86h-468v-680h-223v1326h870z" />
    <glyph glyph-name="G" unicode="G" horiz-adv-x="1622" 
d="M934 1261q-120 0 -221.5 -42.5t-175 -122t-114.5 -192t-41 -251.5q0 -140 44.5 -252.5t122 -191.5t182.5 -121.5t225 -42.5q87 0 157 23.5t126 67.5v465h-251v79h474v-583q-58 -31 -117 -55t-127.5 -40t-150.5 -24.5t-186 -8.5q-110 0 -209 24.5t-183.5 69.5
t-152.5 107.5t-115.5 138.5t-73.5 163t-26 181q0 93 24.5 181.5t70.5 167t112 143.5t149 112t181 73t208 26q105 0 194.5 -28.5t163 -75.5t130.5 -108.5t98 -128.5l-96 -64q-84 161 -186.5 235.5t-235.5 74.5z" />
    <glyph glyph-name="H" unicode="H" horiz-adv-x="1473" 
d="M403 636v-636h-223v1326h223v-604h666v604h223v-1326h-223v636h-666z" />
    <glyph glyph-name="I" unicode="I" horiz-adv-x="584" 
d="M180 1326h223v-1326h-223v1326z" />
    <glyph glyph-name="J" unicode="J" horiz-adv-x="924" 
d="M764 379q0 -72 -13 -142t-53 -126t-114 -90.5t-196 -34.5q-69 0 -124.5 13t-100.5 33.5t-81.5 46.5t-67.5 53l70 94q22 -18 53 -45t67.5 -51.5t76 -42.5t79.5 -18q88 0 134.5 46t46.5 124v1087h223v-947z" />
    <glyph glyph-name="K" unicode="K" horiz-adv-x="1427" 
d="M180 1326h223v-588l698 588h145l-662 -558l840 -768h-284l-737 673v-673h-223v1326z" />
    <glyph glyph-name="L" unicode="L" horiz-adv-x="1090" 
d="M180 1326h223v-1240h668v-86h-891v1326z" />
    <glyph glyph-name="M" unicode="M" horiz-adv-x="1845" 
d="M180 1326h228l516 -1017h11l506 1017h224v-1326h-224v1087h-7l-544 -1087h-46l-550 1078h-15v-1078h-99v1326z" />
    <glyph glyph-name="N" unicode="N" horiz-adv-x="1462" 
d="M180 1326h125l869 -970h10v970h98v-1357h-52l-941 1078h-8v-1047h-101v1326z" />
    <glyph glyph-name="O" unicode="O" horiz-adv-x="1704" 
d="M852 -31q-154 0 -287.5 55t-232 150.5t-155 223t-56.5 272.5q0 95 25.5 183t72.5 164t113.5 138.5t147.5 107t175 69t197 24.5t197 -24.5t175.5 -69t147.5 -107t113.5 -138.5t73 -164t25.5 -183q0 -96 -25.5 -185.5t-73 -167.5t-113.5 -142t-147.5 -110t-175.5 -71
t-197 -25zM852 35q114 0 201.5 47.5t147.5 132.5t90.5 201t30.5 254q0 137 -30.5 251t-90.5 196.5t-147.5 128t-201.5 45.5q-116 0 -203.5 -45.5t-147 -128t-89.5 -196.5t-30 -251q0 -138 30 -254t89.5 -201t147 -132.5t203.5 -47.5z" />
    <glyph glyph-name="P" unicode="P" horiz-adv-x="1184" 
d="M180 1326h420q104 0 195 -25t158.5 -73.5t106 -119t38.5 -161.5q0 -90 -37.5 -157t-99 -111t-139.5 -65.5t-159 -21.5q-35 0 -73 1.5t-73 4.5t-65 7t-49 8v-613h-223v1326zM403 688q38 -13 81 -21.5t88 -8.5q72 0 126 21.5t90 59t53.5 88t17.5 107.5q0 67 -23 121
t-63.5 92.5t-95 59.5t-116.5 21h-158v-540z" />
    <glyph glyph-name="Q" unicode="Q" horiz-adv-x="1686" 
d="M1558 -415q-97 0 -193.5 18t-186.5 49t-172.5 72.5t-152.5 87t-125.5 93t-92.5 91.5q-113 28 -207.5 96t-162.5 160t-106 200.5t-38 217.5q0 142 55 267t152 218t229 147t287 54q154 0 286 -54t229 -147t152 -218t55 -267q0 -115 -41 -226.5t-113.5 -204.5t-173 -159.5
t-220.5 -90.5q22 -66 73.5 -132t123 -118.5t159.5 -85t184 -32.5v-36zM844 35q112 12 199.5 61.5t147.5 131t91.5 193t31.5 249.5q0 137 -31 251t-91 196.5t-147.5 128t-200.5 45.5q-116 0 -204 -45.5t-147 -128t-89 -196.5t-30 -251q0 -138 30 -254t89 -201t147 -132.5
t204 -47.5z" />
    <glyph glyph-name="R" unicode="R" horiz-adv-x="1280" 
d="M180 1326h460q119 0 209 -25.5t150 -71.5t90.5 -109.5t30.5 -138.5q0 -62 -23.5 -116t-66 -97.5t-102.5 -75t-132 -49.5l483 -643h-259l-461 623h-156v-623h-223v1326zM403 690h129q75 0 138.5 20t110 56.5t72.5 88.5t26 117q0 60 -20.5 110t-58 85.5t-89 55.5t-112.5 20
h-196v-553z" />
    <glyph glyph-name="S" unicode="S" horiz-adv-x="1204" 
d="M614 53q49 0 97 13.5t86 40t61 65t23 89.5q0 61 -31.5 108.5t-82.5 87t-116.5 74.5t-133.5 70t-133.5 73.5t-116.5 86t-82.5 106t-31.5 134.5t28.5 141t83.5 112.5t135.5 74.5t184.5 27q94 0 168 -20t130 -59t95 -96t63 -132l-114 -52q-20 61 -51 111.5t-74 86.5
t-99.5 55.5t-127.5 19.5q-63 0 -110 -17.5t-78.5 -46t-47 -64t-15.5 -72.5q0 -52 32 -95.5t85 -82t120.5 -74.5t137.5 -73t137.5 -77t120.5 -87.5t85 -104t32 -126.5q0 -79 -30 -148.5t-90 -121t-149 -81.5t-207 -30q-96 0 -171 21t-132.5 61t-98.5 97.5t-67 131.5l119 49
q21 -65 56.5 -116t82.5 -86.5t104.5 -54.5t122.5 -19z" />
    <glyph glyph-name="T" unicode="T" horiz-adv-x="1260" 
d="M1222 1326v-86h-480v-1240h-223v1240h-480v86h1183z" />
    <glyph glyph-name="U" unicode="U" horiz-adv-x="1464" 
d="M160 1326h223v-861q0 -85 29 -159.5t83 -130.5t130.5 -88.5t170.5 -32.5q95 0 171 32.5t129.5 88.5t82 130.5t28.5 159.5v861h98v-861q0 -102 -33 -192t-103.5 -157.5t-180.5 -107t-264 -39.5q-137 0 -242.5 39.5t-177 107.5t-108 159.5t-36.5 195.5v855z" />
    <glyph glyph-name="V" unicode="V" horiz-adv-x="1315" 
d="M239 1326l501 -1055l465 1055h106l-602 -1357h-58l-647 1357h235z" />
    <glyph glyph-name="W" unicode="W" horiz-adv-x="1825" 
d="M223 1326l396 -1008l348 910l359 -914l387 1012h108l-510 -1337h-66l-328 827l-314 -827h-76l-527 1337h223z" />
    <glyph glyph-name="X" unicode="X" horiz-adv-x="1321" 
d="M117 0h-117l559 654l-510 672h265l385 -509l434 509h118l-498 -582l565 -744h-267l-438 581z" />
    <glyph glyph-name="Y" unicode="Y" horiz-adv-x="1274" 
d="M230 1326l460 -672l458 672h121l-514 -753v-573h-223v552l-530 774h228z" />
    <glyph glyph-name="Z" unicode="Z" horiz-adv-x="1290" 
d="M1277 1326l-959 -1240h959v-86h-1259v33l931 1207h-931v86h1259z" />
    <glyph glyph-name="bracketleft" unicode="[" horiz-adv-x="612" 
d="M166 1356h438v-88h-282v-1556h282v-90h-438v1734z" />
    <glyph glyph-name="backslash" unicode="\" horiz-adv-x="516" 
d="M435 -31l-445 1387h92l444 -1387h-91z" />
    <glyph glyph-name="bracketright" unicode="]" horiz-adv-x="612" 
d="M10 -378v90h280v1556h-280v88h436v-1734h-436z" />
    <glyph glyph-name="asciicircum" unicode="^" horiz-adv-x="934" 
d="M8 639l429 717h62l429 -717h-124l-339 570l-341 -570h-116z" />
    <glyph glyph-name="underscore" unicode="_" horiz-adv-x="1065" 
d="M1071 -196v-88h-1071v88h1071z" />
    <glyph glyph-name="grave" unicode="`" horiz-adv-x="610" 
d="M340 1356l102 -344h-54l-294 344h246z" />
    <glyph glyph-name="a" unicode="a" horiz-adv-x="1075" 
d="M817 0q-40 20 -67.5 56.5t-27.5 83.5q-36 -27 -70.5 -56t-75 -52.5t-90 -38.5t-114.5 -15q-60 0 -108.5 19.5t-82 53.5t-52 81t-18.5 101q0 66 26 119t71.5 94.5t105.5 74t128 58t140 45.5t140 37v64q0 70 -10 118t-31 77.5t-53.5 42t-77.5 12.5q-43 0 -79 -17
t-63.5 -45.5t-45 -67t-23.5 -81.5h-186q8 66 45.5 118t94.5 87.5t129.5 54.5t150.5 19q100 0 168 -19.5t109 -54.5t58.5 -85.5t17.5 -111.5v-632q0 -47 27.5 -83.5t67.5 -56.5h-204zM722 596q-44 -14 -91 -32t-92 -40.5t-86 -48.5t-72 -56t-49 -63t-18 -69q0 -38 14 -71.5
t37 -59t53 -40t62 -14.5q34 0 65 9t60 24.5t58 35.5t59 43v382z" />
    <glyph glyph-name="b" unicode="b" horiz-adv-x="1253" 
d="M180 1489l144 57h60v-715q25 43 65.5 82t88 67.5t99 45.5t98.5 17q89 0 164 -36t129 -98t84.5 -144.5t30.5 -176.5q0 -127 -44.5 -238t-122 -193.5t-181.5 -130.5t-222 -48q-114 0 -214.5 30t-178.5 91v1390zM384 167q19 -18 41.5 -37t50.5 -34.5t62.5 -25t77.5 -9.5
q71 0 129 34.5t99.5 96t64 146t22.5 184.5q0 76 -23.5 142.5t-64 116t-95 78t-116.5 28.5q-35 0 -71.5 -10t-69.5 -27t-61 -39.5t-46 -48.5v-595z" />
    <glyph glyph-name="c" unicode="c" horiz-adv-x="1171" 
d="M852 736q-11 40 -30 81t-48.5 74.5t-69.5 54.5t-94 21q-69 0 -124 -28t-93 -76t-58 -112t-20 -136q0 -98 25.5 -185.5t72 -153.5t112 -104.5t146.5 -38.5q71 0 123.5 22.5t91 60.5t66.5 88.5t50 106.5l61 -25q-26 -96 -70 -172t-103.5 -128.5t-134 -80t-161.5 -27.5
q-101 0 -189 39.5t-153 108.5t-103 161t-38 197q0 77 19 148.5t53.5 133.5t83 113t107.5 87.5t126.5 56.5t140.5 20q61 0 117 -14t103 -39.5t83 -63t56 -83.5z" />
    <glyph glyph-name="d" unicode="d" horiz-adv-x="1262" 
d="M882 99q-35 -28 -76 -50.5t-85.5 -38t-89.5 -24t-88 -8.5q-90 0 -168.5 42t-137 113t-92.5 165.5t-34 199.5q0 104 42.5 202t115.5 174.5t170.5 122.5t208.5 46q75 0 130.5 -26t103.5 -69v540l143 58h59v-1546h-202v99zM882 698q0 60 -22.5 109.5t-58.5 85t-81.5 55
t-91.5 19.5q-61 0 -114 -30t-92.5 -84.5t-62.5 -130t-23 -166.5q0 -98 25 -183t68.5 -148.5t102 -100t125.5 -36.5q32 0 64.5 8.5t61.5 23t54.5 33.5t44.5 40v505z" />
    <glyph glyph-name="e" unicode="e" horiz-adv-x="1206" 
d="M613 -22q-104 0 -195.5 39t-159.5 106t-107.5 157.5t-39.5 192.5q0 123 36 227.5t102 180.5t158.5 119t206.5 43q100 0 184 -35.5t144.5 -95t94 -137.5t33.5 -163h-763q0 -103 26.5 -191t74.5 -152t114 -100t145 -36q66 0 127 21.5t110.5 56.5t84.5 80t49 93l59 -26
q-22 -79 -71 -148t-114.5 -120.5t-142.5 -81.5t-156 -30zM815 694q0 58 -20.5 108t-56.5 86.5t-84 57.5t-103 21q-46 0 -88 -20.5t-75 -57t-54.5 -86.5t-25.5 -108z" />
    <glyph glyph-name="f" unicode="f" horiz-adv-x="739" 
d="M604 1470q-33 0 -60.5 -17.5t-47 -46t-30 -65.5t-10.5 -76v-241h273v-87h-273v-937h-204v937h-213v87h213v118q0 84 30 157.5t81.5 128t121 86.5t148.5 32q54 0 104.5 -14t93.5 -39.5t76.5 -63t53.5 -83.5l-148 -107q-11 40 -26 81t-38 74.5t-58 54.5t-87 21z" />
    <glyph glyph-name="g" unicode="g" horiz-adv-x="1153" 
d="M1144 970v-86h-194q29 -41 47.5 -93.5t18.5 -103.5q0 -80 -35 -145t-97.5 -112t-149.5 -72.5t-192 -25.5q-39 0 -79.5 6t-70.5 16q-29 -24 -49 -55.5t-20 -63.5q0 -31 33.5 -49t95.5 -21l378 -17q91 -4 151.5 -21.5t96.5 -47t51 -69.5t15 -90q0 -89 -41.5 -161.5
t-119.5 -123.5t-190.5 -79t-254.5 -28q-127 0 -222 15t-158 42.5t-94 66t-31 86.5q0 42 21 80.5t54 74t73 68.5t79 63q-28 9 -52.5 21.5t-42.5 28.5t-28 34.5t-10 39.5q0 31 16.5 64.5t45 64t66 56t80.5 40.5q-103 44 -161.5 122.5t-58.5 180.5q0 75 34.5 142t95.5 117
t142.5 79t176.5 29q46 0 90.5 -6t83 -16t68 -23t46.5 -28h292zM323 8q-23 -17 -40 -38t-29 -44t-18 -46.5t-6 -44.5q0 -34 24 -65t72 -55t120.5 -38t168.5 -14q102 0 182.5 16t137 42.5t86 59t29.5 65.5q0 34 -17.5 59t-50.5 41t-80 24t-106 8q-74 0 -149 3.5t-140 8
t-114 10t-70 8.5zM576 385q43 0 83 19.5t70.5 53.5t48.5 79.5t18 98.5q0 75 -20.5 139.5t-55.5 112t-82 74.5t-99 27q-51 0 -88.5 -21t-61.5 -58.5t-35.5 -88t-11.5 -108.5q0 -69 17 -129t48 -104.5t74 -69.5t95 -25z" />
    <glyph glyph-name="h" unicode="h" horiz-adv-x="1217" 
d="M384 836q91 104 192 155.5t204 51.5q54 0 100.5 -24t81.5 -66t55 -98.5t20 -120.5v-734h-203v699q0 102 -46 154.5t-118 52.5q-32 0 -68 -11t-73 -30.5t-74 -46.5t-71 -60v-758h-204v1488l146 58h58v-710z" />
    <glyph glyph-name="i" unicode="i" horiz-adv-x="592" 
d="M196 985l143 58h59v-1043h-202v985zM180 1416q0 24 9 45t25 37t37 25t45 9t45 -9t37 -25t25 -37t9 -45t-9 -45t-25 -37t-37 -25t-45 -9t-45 9t-37 25t-25 37t-9 45z" />
    <glyph glyph-name="j" unicode="j" horiz-adv-x="582" 
d="M-107 -264q15 -27 34.5 -51t44.5 -42t55.5 -28.5t67.5 -10.5q24 0 43.5 8.5t33 28.5t21 53t7.5 83v1208l144 58h58v-1043q0 -153 -28 -246t-77.5 -143t-117.5 -66.5t-149 -16.5q-75 0 -145.5 31.5t-120.5 82.5zM185 1416q0 24 9 45t25 37t37 25t45 9t45 -9t37 -25t25 -37
t9 -45t-9 -45t-25 -37t-37 -25t-45 -9t-45 9t-37 25t-25 37t-9 45z" />
    <glyph glyph-name="k" unicode="k" horiz-adv-x="1092" 
d="M364 611l514 413h132l-459 -373l567 -651h-268l-486 560v-560h-204v1488l146 58h58v-935z" />
    <glyph glyph-name="l" unicode="l" horiz-adv-x="563" 
d="M384 0h-204v1488l145 58h59v-1546z" />
    <glyph glyph-name="m" unicode="m" horiz-adv-x="1919" 
d="M326 1043h58v-212q39 42 88 80.5t101 68t104 46.5t99 17q45 0 91.5 -16t86 -45t68 -68.5t37.5 -86.5q25 45 69.5 84.5t98.5 68.5t114.5 46t118.5 17t108.5 -25.5t88.5 -69t60 -102t22 -124.5v-722h-203v694q0 43 -14.5 81.5t-39.5 67.5t-58.5 46t-70.5 17
q-42 0 -85.5 -11.5t-82.5 -31.5t-71 -46.5t-51 -56.5v-760h-203v694q0 43 -15 81.5t-40 67.5t-59 46t-71 17q-39 0 -80.5 -12t-81 -32t-73.5 -46.5t-56 -55.5v-760h-204v986z" />
    <glyph glyph-name="n" unicode="n" horiz-adv-x="1217" 
d="M326 1043h58v-207q93 104 193 155.5t203 51.5q54 0 100.5 -24t81.5 -66t55 -98.5t20 -120.5v-734h-203v699q0 51 -12 89.5t-34 64.5t-51.5 39.5t-65.5 13.5q-32 0 -68 -11t-73.5 -30.5t-74.5 -46.5t-71 -60v-758h-204v986z" />
    <glyph glyph-name="o" unicode="o" horiz-adv-x="1300" 
d="M652 -22q-118 0 -217 41t-171 111.5t-112.5 165t-40.5 202.5q0 113 40.5 212.5t112.5 173.5t171 116.5t217 42.5q117 0 215.5 -39t170.5 -107t112.5 -159.5t40.5 -196.5q0 -116 -40.5 -218.5t-112.5 -179t-170.5 -121t-215.5 -44.5zM691 53q60 0 110 31t86 83.5t56 121.5
t20 146q0 111 -19 208t-62 169t-112 113.5t-168 41.5q-51 0 -99 -29.5t-84.5 -80.5t-58.5 -119.5t-22 -145.5q0 -112 23.5 -210t69 -171t111 -115.5t149.5 -42.5z" />
    <glyph glyph-name="p" unicode="p" horiz-adv-x="1268" 
d="M326 1043h58v-230q31 39 68.5 80t83 74.5t100.5 54.5t120 21q91 0 165 -38t126.5 -103t81 -152.5t28.5 -186.5q0 -127 -35 -234.5t-100 -185.5t-158 -121.5t-208 -43.5q-42 0 -78.5 4.5t-69 13.5t-63 23t-61.5 34v-484h-204v1417zM384 276q0 -46 20 -86.5t56 -71t86 -48
t110 -17.5q57 0 107.5 29t88 82.5t59 127.5t21.5 164q0 113 -20 197.5t-55.5 140.5t-84 84t-106.5 28q-44 0 -84.5 -13.5t-76.5 -36.5t-66.5 -53t-54.5 -63v-464z" />
    <glyph glyph-name="q" unicode="q" horiz-adv-x="1266" 
d="M885 160q-31 -33 -66.5 -66t-79.5 -58.5t-98 -41.5t-121 -16q-85 0 -159.5 38t-130 103t-87.5 153t-32 188q0 80 20 154.5t56 139.5t87 118t112.5 91t132.5 59t148 21q34 0 67.5 -6t63 -16.5t52.5 -24t35 -29.5l153 76h49v-1474h-202v591zM885 774q0 42 -18 73t-44 55
q-14 13 -35.5 25t-46 21t-50.5 14t-50 5q-66 0 -123.5 -31.5t-100.5 -86.5t-68 -128t-25 -155q0 -90 23.5 -169t64.5 -137.5t95.5 -92.5t117.5 -34q46 0 87.5 12t76 30.5t59.5 40.5t37 42v516z" />
    <glyph glyph-name="r" unicode="r" horiz-adv-x="885" 
d="M325 1043h31l27 -209q24 46 60 84t79.5 66t92 43.5t98.5 15.5q45 0 88.5 -12t81.5 -38l-64 -171q-20 22 -42 35.5t-45 21t-47 9.5t-48 2q-38 0 -74.5 -11t-69.5 -32.5t-61 -55t-49 -78.5v-713h-203v987z" />
    <glyph glyph-name="s" unicode="s" horiz-adv-x="987" 
d="M489 49q41 0 76 12.5t60.5 33.5t39.5 48.5t14 56.5q0 47 -23.5 82t-62 62.5t-87.5 50.5t-100 47.5t-100 52t-87.5 64.5t-62 85.5t-23.5 113.5q0 61 26 113.5t72.5 90.5t110.5 59.5t140 21.5q51 0 95 -7t86.5 -27t84.5 -57.5t89 -97.5l-75 -67q-58 95 -129.5 141.5
t-152.5 46.5q-44 0 -80 -10.5t-61.5 -29t-40 -43.5t-14.5 -53q0 -46 25.5 -80t67.5 -61.5t95.5 -50.5t109 -47t109 -52t95.5 -64.5t67.5 -84.5t25.5 -112q0 -65 -24 -121.5t-72.5 -98t-121.5 -65.5t-172 -24q-45 0 -92.5 7t-95.5 27.5t-96 57.5t-94 97l83 75
q37 -52 71 -88.5t69.5 -60t73 -34t81.5 -10.5z" />
    <glyph glyph-name="t" unicode="t" horiz-adv-x="813" 
d="M395 1372h58v-348h228v-87h-228v-721q0 -23 8.5 -43t23 -35t34.5 -23.5t44 -8.5q34 0 62 17t49 42l51 -34q-42 -71 -109 -112t-166 -41q-51 0 -89 17.5t-62.5 49t-36.5 75t-12 96.5v721h-178v38l178 49v291z" />
    <glyph glyph-name="u" unicode="u" horiz-adv-x="1233" 
d="M384 1024v-729q0 -38 17.5 -72t48.5 -59t71.5 -39.5t87.5 -14.5q30 0 64.5 13t67.5 35.5t61.5 53t48.5 64.5v748h202v-1024h-202v192q-27 -44 -67.5 -83t-87.5 -68t-97 -46t-95 -17q-67 0 -126 25t-103 68t-69.5 101t-25.5 123v729h204z" />
    <glyph glyph-name="v" unicode="v" horiz-adv-x="1042" 
d="M225 1024l362 -775l347 775h92l-461 -1035h-70l-483 1035h213z" />
    <glyph glyph-name="w" unicode="w" horiz-adv-x="1599" 
d="M233 1024l324 -748l321 748l323 -748l286 748h98l-418 -1035h-69l-286 669l-287 -669h-63l-448 1035h219z" />
    <glyph glyph-name="x" unicode="x" horiz-adv-x="969" 
d="M10 1024h240l708 -1024h-239zM121 0h-111l836 1024h112z" />
    <glyph glyph-name="y" unicode="y" horiz-adv-x="1092" 
d="M144 -242q12 -5 26.5 -13t32 -15.5t38.5 -12.5t47 -5q32 0 60 18t51 45t41 59t30 60l69 154l-523 976h231l394 -740l323 740h109l-523 -1204q-33 -75 -75.5 -130t-90.5 -91t-99 -53.5t-99 -17.5q-36 0 -70 11t-57 29z" />
    <glyph glyph-name="z" unicode="z" horiz-adv-x="1067" 
d="M20 53l736 885h-736v86h1025v-44l-753 -894h753v-86h-1025v53z" />
    <glyph glyph-name="braceleft" unicode="{" horiz-adv-x="639" 
d="M616 1322q-52 -5 -97.5 -29.5t-79 -63.5t-53 -90t-19.5 -107q0 -38 5 -69.5t10.5 -60t10.5 -54.5t5 -52q0 -48 -20.5 -97t-56.5 -92t-84 -76.5t-103 -50.5q55 -13 103 -45.5t84 -76.5t56.5 -96.5t20.5 -105.5q0 -32 -5 -59.5t-10.5 -55t-10.5 -57.5t-5 -66
q0 -59 19.5 -111t53 -91.5t79 -64.5t97.5 -29v-35q-80 0 -151 30.5t-124 83.5t-83.5 124t-30.5 151q0 29 4.5 56.5t10.5 56t10.5 60t4.5 69.5q0 48 -17.5 91t-48.5 74.5t-72 50t-88 18.5v47q47 0 88 18.5t72 50t48.5 74.5t17.5 91q0 42 -4.5 76t-10.5 63t-10.5 54t-4.5 49
q0 79 30.5 148t83.5 121t124 82t151 30v-34z" />
    <glyph glyph-name="bar" unicode="|" horiz-adv-x="332" 
d="M213 1346v-1776h-94v1776h94z" />
    <glyph glyph-name="braceright" unicode="}" horiz-adv-x="637" 
d="M23 1356q81 0 152 -30t124 -82t83.5 -121t30.5 -148q0 -24 -5 -49t-10.5 -54t-10.5 -63t-5 -76q0 -48 18 -91t48.5 -74.5t71.5 -50t88 -18.5v-47q-47 0 -88 -18.5t-71.5 -50t-48.5 -74.5t-18 -91q0 -38 5 -69.5t10.5 -60t10.5 -56t5 -56.5q0 -80 -30.5 -151t-83.5 -124
t-124 -83.5t-152 -30.5v35q52 4 97.5 29t79.5 64.5t53.5 91.5t19.5 111q0 36 -5 66t-10.5 57.5t-10.5 55t-5 59.5q0 53 20.5 105.5t56.5 96.5t84 76.5t103 45.5q-55 17 -103 50.5t-84 76.5t-56.5 92t-20.5 97q0 26 5 52t10.5 54.5t10.5 60t5 69.5q0 56 -19.5 107t-53.5 90
t-79.5 63.5t-97.5 29.5v34z" />
    <glyph glyph-name="asciitilde" unicode="~" horiz-adv-x="1069" 
d="M1050 633q0 -78 -19.5 -136.5t-55 -98t-85.5 -59.5t-112 -20q-56 0 -105 13.5t-92.5 33t-83.5 43t-77.5 43t-73.5 33t-73 13.5q-36 0 -70 -15t-61 -39.5t-45.5 -57t-24.5 -67.5h-47q0 76 20 135t58 98.5t92.5 60t123.5 20.5q44 0 90 -13.5t90.5 -33.5t88.5 -43t84.5 -43
t77 -33.5t68.5 -13.5q42 0 71.5 15t50.5 40t35.5 57.5t26.5 67.5h48z" />
    <glyph glyph-name="NBSPACE" unicode="&#xa0;" horiz-adv-x="600" 
 />
    <glyph glyph-name="copyright" unicode="&#xa9;" horiz-adv-x="1561" 
d="M783 1399q99 0 190 -25.5t169.5 -72t142.5 -111.5t109.5 -144t70.5 -169t25 -187q0 -100 -26 -191t-73 -169.5t-112.5 -142.5t-144 -109.5t-168 -70.5t-183.5 -25q-99 0 -190.5 25.5t-170.5 72t-143.5 111t-110.5 143.5t-71 169t-25 187t26.5 187.5t74.5 169.5t114 144
t145 111t168 71.5t183 25.5zM783 1284q-124 0 -232 -48.5t-188 -130.5t-126 -189.5t-46 -225.5q0 -82 22 -157t61 -141t94 -120t120.5 -92.5t140.5 -59.5t154 -21q78 0 152.5 21.5t140 60t120 92.5t94 119.5t61.5 141t22 156.5t-22 157t-61.5 142t-94 120.5t-120 93t-140 60
t-152.5 21.5zM1009 577l114 -36q-12 -61 -43 -108.5t-75 -80.5t-99.5 -50.5t-118.5 -17.5q-91 0 -161 32t-117.5 87.5t-72 128.5t-24.5 156q0 93 26.5 167.5t75.5 126t119.5 79t159.5 27.5q245 0 319 -220l-113 -28q-59 145 -211 145q-66 0 -112.5 -26t-76.5 -68t-44 -95.5
t-14 -108.5q0 -144 66 -217.5t180 -73.5q92 0 145 44t77 137z" />
    <glyph glyph-name="onequarter" unicode="&#xbc;" horiz-adv-x="1620" 
d="M1254 0v177h-349v94l366 435h132v-453h111v-76h-111v-177h-149zM1254 566l-265 -313h265v313zM225 1156q0 33 -1 53.5t-4.5 32t-10.5 15.5t-18 4q-17 0 -35 -6.5t-33 -14.5l-19 29l208 87h60v-705h-147v505zM335 -49h-109l948 1405h109z" />
    <glyph glyph-name="onehalf" unicode="&#xbd;" horiz-adv-x="1554" 
d="M321 -49h-108l947 1405h109zM937 35q32 23 71.5 53.5t80.5 66.5t80 75.5t69 80.5t48.5 83t18.5 82q0 30 -12 55t-32 43.5t-47.5 28.5t-58.5 10q-60 0 -98.5 -29t-57.5 -84h-47q7 42 28 79.5t53.5 65.5t75 44.5t92.5 16.5q117 0 182.5 -53.5t65.5 -153.5q0 -36 -17 -74
t-45 -75.5t-63.5 -74t-73.5 -69.5t-74.5 -62.5t-66.5 -52.5h340v-91h-512v35zM225 1156q0 33 -1 53.5t-4.5 32t-10.5 15.5t-18 4q-17 0 -35 -6.5t-33 -14.5l-19 29l208 87h60v-705h-147v505z" />
    <glyph glyph-name="threequarters" unicode="&#xbe;" horiz-adv-x="1704" 
d="M236 1039q34 0 65 6.5t54.5 22t37.5 40t14 60.5q0 54 -26.5 79.5t-83.5 25.5q-45 0 -75 -24.5t-54 -61.5l-56 18q31 71 91 111t143 40q34 0 67.5 -8.5t60 -26.5t43 -45.5t16.5 -65.5q0 -44 -26 -85t-63 -67q63 -21 97.5 -64.5t34.5 -112.5q0 -66 -28.5 -113t-75 -77
t-104.5 -44.5t-116 -14.5q-14 0 -39 3t-49 10.5t-42 20.5t-18 33q0 23 18 31t37 8t39 -6.5t41 -14t44.5 -13.5t50.5 -6q26 0 49 9.5t40 26t26.5 38.5t9.5 48q0 45 -16.5 75t-46.5 48t-71 25t-89 7v64zM410 -49h-89l947 1405h90zM1348 0v177h-348v94l374 435h111v-453h112
v-76h-112v-177h-137zM1348 570l-265 -317h265v317z" />
    <glyph glyph-name="lo_ko" unicode="&#xe81;" horiz-adv-x="1225" 
d="M459 218q0 -68 -22 -113t-55 -72t-73 -38t-76 -11q-34 0 -65.5 12.5t-55.5 34t-38 50t-14 61.5t12.5 61.5t34.5 50t51.5 34t62.5 12.5q19 0 46 -5t42 -18v517q-15 -14 -42 -21.5t-46 -7.5q-33 0 -62.5 13t-51.5 35.5t-34.5 52.5t-12.5 65q0 33 14 61.5t38 50t55.5 34
t65.5 12.5q27 0 56.5 -6t57.5 -20.5t52 -38.5t39 -59q15 20 38.5 42t56.5 40t76.5 30t99.5 12q80 0 149 -18t119.5 -57t79 -100.5t28.5 -148.5v-765h-150v765q0 62 -22.5 104.5t-56.5 69t-73.5 38.5t-73.5 12q-42 0 -80.5 -11.5t-71 -33t-58 -52t-40.5 -67.5v-607zM140 927
q0 -17 6.5 -32t18 -26t26.5 -17.5t33 -6.5t33.5 6.5t27 17.5t18 26t6.5 32t-6.5 32t-18 26t-27 17.5t-33.5 6.5t-33 -6.5t-26.5 -17.5t-18 -26t-6.5 -32zM140 142q0 -32 24.5 -55t59.5 -23t60 23t25 55t-25 55t-60 23t-59.5 -23t-24.5 -55z" />
    <glyph glyph-name="lo_kho_sung" unicode="&#xe82;" horiz-adv-x="1179" 
d="M889 0q0 54 -10.5 85t-27 47t-38 20t-43.5 4q-27 0 -56.5 -12.5t-62.5 -32t-71 -41.5t-83 -41.5t-97 -32t-113 -12.5q-39 0 -79.5 12.5t-73.5 38.5t-53.5 65.5t-20.5 94.5q0 66 35.5 107.5t94 67t133 41t152 29t152 31t133 47.5t94 78t35.5 123q0 61 -26 110.5t-74 85
t-116 55t-152 19.5q-47 0 -103 -9t-107 -32t-92 -62.5t-58 -100.5q12 13 28.5 27t36 26t42.5 19.5t47 7.5q34 0 64 -13t52.5 -35.5t35.5 -52.5t13 -64q0 -37 -14.5 -67.5t-40.5 -52t-62.5 -33.5t-80.5 -12q-62 0 -104.5 20.5t-68.5 52t-37.5 70t-11.5 75.5q0 59 21 107
t56 85t81.5 64.5t98 45t104.5 26t101 8.5q94 0 186.5 -20t166 -64.5t119 -115t45.5 -171.5q0 -82 -35.5 -139t-93.5 -96t-132 -65t-151 -45t-151 -35.5t-132 -37.5t-93.5 -50.5t-35.5 -74.5q0 -27 10 -44.5t27 -28t38.5 -14.5t44.5 -4q44 0 82.5 12.5t74.5 32t70.5 41.5
t70.5 41.5t75.5 32t84.5 12.5q67 0 114 -25t76.5 -63t42.5 -83t13 -85h-150zM230 700q0 -35 25 -60t60 -25t60 25t25 60t-25 60t-60 25t-60 -25t-25 -60z" />
    <glyph glyph-name="lo_kho_tam" unicode="&#xe84;" horiz-adv-x="1155" 
d="M197 370q0 -18 1.5 -40.5t5 -44.5t8.5 -40.5t12 -30.5q18 31 40.5 48.5t44.5 26t40.5 10t27.5 1.5q33 0 62.5 -10.5t51.5 -29.5t34.5 -45.5t12.5 -59.5q0 -36 -13 -67.5t-38.5 -54.5t-64 -36t-89.5 -13q-42 0 -89.5 19t-88.5 61.5t-68 111t-27 167.5q0 57 13.5 115
t41.5 110q-26 38 -40.5 84.5t-14.5 100.5q0 93 41.5 157.5t109.5 104t154 57t175 17.5q55 0 112 -8.5t110 -27t99 -48t80 -72t54 -99.5t20 -129v-705h-150v703q0 80 -27.5 134.5t-73 88.5t-104 48.5t-120.5 14.5q-67 0 -128.5 -15.5t-109 -46t-75.5 -77.5t-28 -110
q0 -11 1.5 -28t4.5 -30q15 12 36 21.5t44.5 16t47.5 9.5t46 3q38 0 67.5 -13t50 -35t31 -49.5t10.5 -57.5q0 -31 -11 -59t-31 -49.5t-50 -34t-67 -12.5q-19 0 -42 3t-46 10t-44 17.5t-37 24.5q-6 -30 -9.5 -61.5t-3.5 -45.5zM379 502q33 0 56 21.5t23 53.5q0 33 -20.5 54
t-58.5 21q-20 0 -40 -7t-37.5 -18t-31.5 -24t-23 -26q10 -17 26 -31t34 -24t36.5 -15t35.5 -5zM458 142q0 32 -24.5 55t-59.5 23t-60 -23t-25 -55t25 -55t60 -23t59.5 23t24.5 55z" />
    <glyph glyph-name="lo_ngo" unicode="&#xe87;" horiz-adv-x="1070" 
d="M198 -5q15 -48 43 -83.5t64 -59t76.5 -35t81.5 -11.5q64 0 121.5 18t101 55t69 94.5t25.5 135.5v603q0 65 -24 116.5t-66 87t-98.5 54.5t-120.5 19q-42 0 -88 -7t-88 -27.5t-75.5 -57t-50.5 -94.5q12 13 29.5 24t38 19.5t42 13.5t41.5 5q38 0 67.5 -13t50 -35.5
t31.5 -52.5t11 -64q0 -37 -14 -69.5t-39 -57t-60 -38.5t-77 -14q-64 0 -108 22.5t-71 57t-39 75t-12 77.5q0 88 37.5 152t96.5 104.5t133 60t146 19.5q94 0 177 -24t145 -72.5t98.5 -123t36.5 -175.5v-564q0 -46 -10.5 -95.5t-33.5 -96.5t-60 -89t-89 -74t-121 -50.5
t-157 -18.5q-47 0 -103 10t-111 33t-103.5 61.5t-81.5 95.5zM210 700q0 -35 27 -59.5t68 -24.5t68 24.5t27 59.5t-25.5 60t-67.5 25q-41 0 -69 -25t-28 -60z" />
    <glyph glyph-name="lo_co" unicode="&#xe88;" horiz-adv-x="1179" 
d="M421 449q0 -35 25 -60t60 -25t60 25t25 60t-25 60t-60 25t-60 -25t-25 -60zM539 989q-41 0 -91 -9t-99.5 -34.5t-94 -71.5t-73.5 -120l-121 65q46 81 108.5 133t128.5 82.5t129 42.5t110 12q103 0 194.5 -25t160 -75.5t108.5 -126.5t40 -177v-685h-150v120
q0 61 -23.5 122t-58 113t-75.5 90.5t-75 54.5q3 -7 8.5 -24.5t5.5 -34.5q0 -32 -11.5 -60t-33 -50t-51.5 -34.5t-66 -12.5q-34 0 -64.5 12.5t-53.5 34t-36.5 51t-13.5 63.5q0 36 14.5 67t40 53.5t61 35.5t78.5 13q51 0 101.5 -14.5t97 -41.5t86 -66t69.5 -88v315
q0 73 -29 124t-78 83.5t-112 47.5t-131 15z" />
    <glyph glyph-name="lo_so_tam" unicode="&#xe8a;" horiz-adv-x="1179" 
d="M1039 -287h-150v287q0 54 -10.5 85t-27 47t-38 20t-43.5 4q-27 0 -56.5 -12.5t-62.5 -32t-71 -41.5t-83 -41.5t-97 -32t-113 -12.5q-39 0 -79.5 12.5t-73.5 38.5t-53.5 65.5t-20.5 94.5q0 66 35.5 107.5t94 67t133 41t152 29t152 31t133 47.5t94 78t35.5 123
q0 61 -26 110.5t-74 85t-116 55t-152 19.5q-47 0 -103 -9t-107 -32t-92 -62.5t-58 -100.5q12 13 28.5 27t36 26t42.5 19.5t47 7.5q34 0 64 -13t52.5 -35.5t35.5 -52.5t13 -64q0 -37 -14.5 -67.5t-40.5 -52t-62.5 -33.5t-80.5 -12q-62 0 -104.5 20.5t-68.5 52t-37.5 70
t-11.5 75.5q0 59 21 107t56 85t81.5 64.5t98 45t104.5 26t101 8.5q94 0 186.5 -20t166 -64.5t119 -115t45.5 -171.5q0 -82 -35.5 -139t-93.5 -96t-132 -65t-151 -45t-151 -35.5t-132 -37.5t-93.5 -50.5t-35.5 -74.5q0 -27 10 -44.5t27 -28t38.5 -14.5t44.5 -4
q44 0 82.5 12.5t74.5 32t70.5 41.5t70.5 41.5t75.5 32t84.5 12.5q67 0 114 -25t76.5 -63t42.5 -83t13 -85v-287zM230 700q0 -35 25 -60t60 -25t60 25t25 60t-25 60t-60 25t-60 -25t-25 -60z" />
    <glyph glyph-name="lo_nyo" unicode="&#xe8d;" horiz-adv-x="1155" 
d="M197 703q0 -14 3.5 -45.5t9.5 -61.5q16 14 37 24.5t44 17t46 10t42 3.5q37 0 67 -12.5t50 -34t31 -49.5t11 -59q0 -30 -10.5 -57.5t-31 -49.5t-50 -35t-67.5 -13q-22 0 -46 3t-47.5 9.5t-44.5 16t-36 21.5q-3 -13 -4.5 -30t-1.5 -28q0 -63 28 -110t75.5 -77.5t109 -46
t128.5 -15.5q62 0 120.5 14.5t104 48.5t73 88.5t27.5 134.5v703h150v-705q0 -73 -20 -129.5t-54 -99t-80 -72t-99 -48t-110 -27t-112 -8.5q-89 0 -175 17.5t-154 57t-109.5 104t-41.5 157.5q0 54 14.5 100.5t40.5 84.5q-28 52 -41.5 110t-13.5 115q0 99 27 167.5t68 111
t88.5 61.5t89.5 19q51 0 89.5 -13t64 -36t38.5 -54.5t13 -67.5q0 -33 -12.5 -59.5t-34.5 -45.5t-51.5 -29.5t-62.5 -10.5q-9 0 -27.5 1.5t-40.5 10t-44.5 25.5t-40.5 49q-7 -12 -12 -31t-8.5 -40.5t-5 -44t-1.5 -40.5zM379 571q-17 0 -35.5 -5.5t-36.5 -15t-34 -23.5
t-26 -31q9 -13 23 -26t31.5 -24t37.5 -18t40 -7q38 0 58.5 21t20.5 54q0 32 -23 53.5t-56 21.5zM458 931q0 32 -24.5 55t-59.5 23t-60 -23t-25 -55t25 -55t60 -23t59.5 23t24.5 55z" />
    <glyph glyph-name="lo_do" unicode="&#xe94;" horiz-adv-x="1155" 
d="M379 142q0 32 -24.5 55t-59.5 23t-60 -23t-25 -55t25 -55t60 -23t59.5 23t24.5 55zM210 270q17 15 43 22.5t45 7.5q33 0 62.5 -12.5t51.5 -34t34.5 -50t12.5 -61.5t-14 -61.5t-38 -50t-55.5 -34t-65.5 -12.5q-36 0 -76 11t-73 38t-55 72t-22 113v485q0 80 36.5 150
t101 122.5t152.5 83t190 30.5q55 0 112 -8.5t110 -27t99 -48t80 -72t54 -99.5t20 -129v-705h-150v713q0 85 -30 138.5t-77 84t-105 42t-115 11.5q-56 0 -114 -16t-105.5 -50t-78 -85.5t-30.5 -123.5v-444z" />
    <glyph glyph-name="lo_to" unicode="&#xe95;" horiz-adv-x="1175" 
d="M379 142q0 32 -24.5 55t-59.5 23t-60 -23t-25 -55t25 -55t60 -23t59.5 23t24.5 55zM210 270q17 15 43 22.5t45 7.5q33 0 62.5 -12.5t51.5 -34t34.5 -50t12.5 -61.5t-14 -61.5t-38 -50t-55.5 -34t-65.5 -12.5q-36 0 -76 11t-73 38t-55 72t-22 113v485q0 88 25 159
t66 121.5t94 78t110 27.5q25 0 51 -6.5t51 -21t48 -37t41 -53.5q18 31 41.5 53.5t49 37t52 21t51.5 6.5q57 0 110 -27.5t94 -78t66 -121.5t25 -159v-703h-151v710q0 70 -14 119t-37.5 80t-54.5 45.5t-64 14.5t-61 -21t-49.5 -49t-36.5 -55.5t-21 -40.5q-6 13 -21 40.5
t-36.5 55.5t-48 49t-56.5 21q-33 0 -64.5 -15t-56 -47t-39 -81t-14.5 -116v-440z" />
    <glyph glyph-name="lo_tho_sung" unicode="&#xe96;" horiz-adv-x="1225" 
d="M140 927q0 -17 6.5 -32t18 -26t26.5 -17.5t33 -6.5t33.5 6.5t27 17.5t18 26t6.5 32t-6.5 32t-18 26t-27 17.5t-33.5 6.5t-33 -6.5t-26.5 -17.5t-18 -26t-6.5 -32zM608 142q0 32 -24.5 55t-59.5 23t-60 -23t-25 -55t25 -55t60 -23t59.5 23t24.5 55zM439 270q17 15 43 22.5
t45 7.5q33 0 62.5 -12.5t51.5 -34t34.5 -50t12.5 -61.5t-14 -61.5t-38 -50t-55.5 -34t-65.5 -12.5q-36 0 -76 11t-73 38t-55 72t-22 113v561q-29 -14 -68 -14q-33 0 -62.5 13t-51.5 35.5t-34.5 52.5t-12.5 65q0 33 14 61.5t38 50t55.5 34t65.5 12.5q27 0 56.5 -6t57.5 -20.5
t52 -38.5t39 -59q15 20 39.5 42t58 40t78 30t100.5 12q83 0 151.5 -18t117 -57t75.5 -100.5t27 -148.5v-1052h-150v1052q0 68 -23.5 111.5t-58.5 68.5t-75 34.5t-73 9.5q-41 0 -81 -10t-75 -30t-63.5 -51t-46.5 -73v-555z" />
    <glyph glyph-name="lo_tho_tam" unicode="&#xe97;" horiz-adv-x="1323" 
d="M140 926q0 -16 6.5 -31t18 -26.5t26.5 -18.5t33 -7t33.5 7t27 18.5t18 26.5t6.5 31t-6.5 31t-18 26.5t-27 18.5t-33.5 7t-33 -7t-26.5 -18.5t-18 -26.5t-6.5 -31zM289 778q-32 -15 -68 -15q-33 0 -62.5 13t-51.5 35.5t-34.5 52t-12.5 62.5t14 62.5t38 52t55.5 35.5
t65.5 13q36 0 72 -10.5t65.5 -35.5t47.5 -65t18 -99q0 -51 -16.5 -91t-42 -76t-54.5 -72t-54.5 -80t-42 -100t-16.5 -132q0 -50 12.5 -94.5t39 -77.5t67.5 -52.5t98 -19.5q27 0 54.5 9.5t50 31t37 57.5t14.5 89v495q0 67 17.5 126t54.5 102.5t94.5 69t138.5 25.5
q67 0 121.5 -22.5t93 -64t59.5 -101.5t21 -135v-766h-150v805q0 62 -16 98.5t-38.5 55.5t-47.5 24.5t-42 5.5q-31 0 -59.5 -9t-50 -30t-34 -56t-12.5 -88v-508q0 -69 -21 -126.5t-60.5 -99t-97.5 -65t-131 -23.5q-92 0 -160 26.5t-113 73t-67.5 109.5t-22.5 135
q0 55 14.5 100.5t37 84t49.5 72t52.5 65t46 63t29.5 65.5z" />
    <glyph glyph-name="lo_no" unicode="&#xe99;" horiz-adv-x="1225" 
d="M439 252v-4q15 -37 42.5 -67.5t62.5 -52t74.5 -33t80.5 -11.5q35 0 76.5 9.5t77 35.5t59 72t23.5 119v753h150v-765q0 -87 -29 -148.5t-80 -100.5t-120.5 -57t-149.5 -18q-59 0 -103.5 12.5t-77.5 32t-55.5 42.5t-37.5 43q-21 -45 -55 -71t-74 -39t-82.5 -16.5
t-80.5 -3.5v100q18 0 43.5 2t49 15t40 41t16.5 79v557q-32 -15 -68 -15q-33 0 -62.5 13t-51.5 35.5t-34.5 52t-12.5 62.5t14 62.5t38 52t55.5 35.5t65.5 13q36 0 72.5 -11t66.5 -38t48.5 -72t18.5 -113v-603zM140 926q0 -16 6.5 -31t18 -26.5t26.5 -18.5t33 -7t33.5 7
t27 18.5t18 26.5t6.5 31t-6.5 31t-18 26.5t-27 18.5t-33.5 7t-33 -7t-26.5 -18.5t-18 -26.5t-6.5 -31z" />
    <glyph glyph-name="lo_bo" unicode="&#xe9a;" horiz-adv-x="1097" 
d="M140 926q0 -16 6.5 -31t18 -26.5t26.5 -18.5t33 -7t33.5 7t27 18.5t18 26.5t6.5 31t-6.5 31t-18 26.5t-27 18.5t-33.5 7t-33 -7t-26.5 -18.5t-18 -26.5t-6.5 -31zM509 -16q-115 0 -199.5 26.5t-140 73t-82.5 109.5t-27 135q0 55 14.5 100.5t37 84t49.5 72t52.5 65t46 63
t29.5 65.5q-32 -15 -68 -15q-33 0 -62.5 13t-51.5 35.5t-34.5 52t-12.5 62.5t14 62.5t38 52t55.5 35.5t65.5 13q36 0 72 -10.5t65.5 -35.5t47.5 -65t18 -99q0 -51 -16.5 -91.5t-42 -76.5t-54.5 -71.5t-54.5 -78t-42 -95t-16.5 -122.5q0 -53 22 -100t61.5 -82.5t94.5 -56.5
t121 -21q67 0 122 21t94 61t60.5 99t21.5 136v672h150v-686q0 -117 -39.5 -194.5t-103.5 -124t-144 -65.5t-161 -19z" />
    <glyph glyph-name="lo_po" unicode="&#xe9b;" horiz-adv-x="1097" 
d="M140 926q0 -16 6.5 -31t18 -26.5t26.5 -18.5t33 -7t33.5 7t27 18.5t18 26.5t6.5 31t-6.5 31t-18 26.5t-27 18.5t-33.5 7t-33 -7t-26.5 -18.5t-18 -26.5t-6.5 -31zM509 -16q-115 0 -199.5 26.5t-140 73t-82.5 109.5t-27 135q0 55 14.5 100.5t37 84t49.5 72t52.5 65t46 63
t29.5 65.5q-32 -15 -68 -15q-33 0 -62.5 13t-51.5 35.5t-34.5 52t-12.5 62.5t14 62.5t38 52t55.5 35.5t65.5 13q36 0 72 -10.5t65.5 -35.5t47.5 -65t18 -99q0 -51 -16.5 -91.5t-42 -76.5t-54.5 -71.5t-54.5 -78t-42 -95t-16.5 -122.5q0 -53 22 -100t61.5 -82.5t94.5 -56.5
t121 -21q67 0 122 21t94 61t60.5 99t21.5 136v1019h150v-1033q0 -117 -39.5 -194.5t-103.5 -124t-144 -65.5t-161 -19z" />
    <glyph glyph-name="lo_pho_sung" unicode="&#xe9c;" horiz-adv-x="1258" 
d="M546 166q-20 -62 -47 -98.5t-56.5 -55t-59 -23.5t-54.5 -5q-66 0 -116.5 23.5t-84.5 67.5t-51 107t-17 142v531q0 68 22 113t55 72t73 38t76 11q34 0 65.5 -12.5t55.5 -34t38 -50t14 -61.5t-12.5 -61.5t-34.5 -50t-51.5 -34t-62.5 -12.5q-19 0 -45.5 3.5t-42.5 11.5v-465
q0 -126 34 -182.5t102 -56.5q35 0 59 25t38.5 61.5t21 79.5t6.5 79v190h150v-190q0 -36 6.5 -79t21 -79.5t38.5 -61.5t59 -25q68 0 102 61t34 178v465q-16 -8 -42.5 -11.5t-45.5 -3.5q-33 0 -62.5 12.5t-51.5 34t-34.5 50t-12.5 61.5t14 61.5t38 50t55.5 34t65.5 12.5
q29 0 61 -7t61.5 -24t53.5 -44.5t37 -68.5q26 20 43.5 49t17.5 67q0 24 -11.5 50.5t-31.5 48.5l98 78q34 -38 49.5 -78.5t15.5 -82.5q0 -73 -45 -136.5t-123 -97.5v-519q0 -79 -17 -142t-51 -107t-84.5 -67.5t-116.5 -23.5q-25 0 -54.5 5t-59 23.5t-56.5 55t-47 98.5z
M713 931q0 -32 24.5 -55t59.5 -23t60 23t25 55t-25 55t-60 23t-59.5 -23t-24.5 -55zM379 931q0 32 -24.5 55t-59.5 23t-60 -23t-25 -55t25 -55t60 -23t59.5 23t24.5 55z" />
    <glyph glyph-name="lo_fo_tam" unicode="&#xe9d;" horiz-adv-x="1172" 
d="M882 1420h150v-1096q0 -79 -17 -142t-51 -107t-84.5 -67.5t-116.5 -23.5q-25 0 -54.5 5t-59 23.5t-56.5 55t-47 98.5q-20 -62 -47 -98.5t-56.5 -55t-59 -23.5t-54.5 -5q-66 0 -116.5 23.5t-84.5 67.5t-51 107t-17 142v531q0 68 22 113t55 72t73 38t76 11q34 0 65.5 -12.5
t55.5 -34t38 -50t14 -61.5t-12.5 -61.5t-34.5 -50t-51.5 -34t-62.5 -12.5q-19 0 -45.5 3.5t-42.5 11.5v-465q0 -126 34 -182.5t102 -56.5q35 0 59 25t38.5 61.5t21 79.5t6.5 79v190h150v-190q0 -36 6.5 -79t21 -79.5t38.5 -61.5t59 -25q68 0 102 61t34 178v1097zM379 931
q0 32 -24.5 55t-59.5 23t-60 -23t-25 -55t25 -55t60 -23t59.5 23t24.5 55z" />
    <glyph glyph-name="lo_pho_tam" unicode="&#xe9e;" horiz-adv-x="1326" 
d="M733 286q0 -35 8.5 -71t27.5 -65t48.5 -47.5t71.5 -18.5q27 0 53 8.5t47 34.5t34 74.5t13 129.5v742h150v-754q0 -69 -19 -129.5t-57 -106.5t-94 -72.5t-129 -26.5q-82 0 -142 28.5t-100 79.5q-44 -49 -104 -78.5t-134 -29.5q-86 0 -151 26.5t-108.5 73t-65.5 109.5
t-22 135q0 55 14.5 100.5t37 84t49.5 72t52.5 65t46 63t29.5 65.5q-32 -15 -68 -15q-33 0 -62.5 13t-51.5 35.5t-34.5 52t-12.5 62.5t14 62.5t38 52t55.5 35.5t65.5 13q36 0 72 -10.5t65.5 -35.5t47.5 -65t18 -99q0 -51 -16.5 -91.5t-42 -77.5t-54.5 -74t-54.5 -81.5
t-42 -99t-16.5 -127.5q0 -53 14 -97.5t39.5 -77t62 -51t81.5 -18.5q84 0 130 53.5t46 147.5v704h150v-703zM140 926q0 -16 6.5 -31t18 -26.5t26.5 -18.5t33 -7t33.5 7t27 18.5t18 26.5t6.5 31t-6.5 31t-18 26.5t-27 18.5t-33.5 7t-33 -7t-26.5 -18.5t-18 -26.5t-6.5 -31z
" />
    <glyph glyph-name="lo_fo_sung" unicode="&#xe9f;" horiz-adv-x="1326" 
d="M733 286q0 -35 8.5 -71t27.5 -65t48.5 -47.5t71.5 -18.5q27 0 53 8.5t47 34.5t34 74.5t13 129.5v1089h150v-1101q0 -69 -19 -129.5t-57 -106.5t-94 -72.5t-129 -26.5q-82 0 -142 28.5t-100 79.5q-44 -49 -104 -78.5t-134 -29.5q-86 0 -151 26.5t-108.5 73t-65.5 109.5
t-22 135q0 55 14.5 100.5t37 84t49.5 72t52.5 65t46 63t29.5 65.5q-32 -15 -68 -15q-33 0 -62.5 13t-51.5 35.5t-34.5 52t-12.5 62.5t14 62.5t38 52t55.5 35.5t65.5 13q36 0 72 -10.5t65.5 -35.5t47.5 -65t18 -99q0 -51 -16.5 -91.5t-42 -77.5t-54.5 -74t-54.5 -81.5
t-42 -99t-16.5 -127.5q0 -53 14 -97.5t39.5 -77t62 -51t81.5 -18.5q84 0 130 53.5t46 147.5v704h150v-703zM140 926q0 -16 6.5 -31t18 -26.5t26.5 -18.5t33 -7t33.5 7t27 18.5t18 26.5t6.5 31t-6.5 31t-18 26.5t-27 18.5t-33.5 7t-33 -7t-26.5 -18.5t-18 -26.5t-6.5 -31z
" />
    <glyph glyph-name="lo_mo" unicode="&#xea1;" horiz-adv-x="1225" 
d="M140 1089q33 0 68 -2.5t68 -11t62.5 -26t52 -47t35.5 -74t13 -107.5v-573q15 -37 42.5 -67.5t62.5 -52t74.5 -33t80.5 -11.5q35 0 76.5 8.5t77 33t59 68.5t23.5 114v765h150v-765q0 -87 -29 -148.5t-80 -100.5t-120.5 -57t-149.5 -18q-56 0 -99 12t-75.5 30t-55.5 39.5
t-38 41.5q-15 -35 -39 -58.5t-52 -38t-57.5 -20.5t-56.5 -6q-34 0 -65.5 12.5t-55.5 34t-38 50t-14 61.5q0 34 12.5 64.5t34.5 53t51.5 35.5t62.5 13q39 0 68 -14v558q0 51 -16.5 79t-40 41t-49 15t-43.5 2v100zM140 146q0 -17 6.5 -32t18 -26t26.5 -17.5t33 -6.5t33.5 6.5
t27 17.5t18 26t6.5 32t-6.5 32t-18 26t-27 17.5t-33.5 6.5t-33 -6.5t-26.5 -17.5t-18 -26t-6.5 -32z" />
    <glyph glyph-name="lo_yo" unicode="&#xea2;" horiz-adv-x="1155" 
d="M197 703q0 -14 3.5 -45.5t9.5 -61.5q16 14 37 24.5t44 17t46 10t42 3.5q37 0 67 -12.5t50 -34t31 -49.5t11 -59q0 -30 -10.5 -57.5t-31 -49.5t-50 -35t-67.5 -13q-22 0 -46 3t-47.5 9.5t-44.5 16t-36 21.5q-3 -13 -4.5 -30t-1.5 -28q0 -63 28 -110t75.5 -77.5t109 -46
t128.5 -15.5q62 0 120.5 14.5t104 48.5t73 88.5t27.5 134.5v1050h150v-1052q0 -73 -20 -129.5t-54 -99t-80 -72t-99 -48t-110 -27t-112 -8.5q-89 0 -175 17.5t-154 57t-109.5 104t-41.5 157.5q0 54 14.5 100.5t40.5 84.5q-28 52 -41.5 110t-13.5 115q0 99 27 167.5t68 111
t88.5 61.5t89.5 19q51 0 89.5 -13t64 -36t38.5 -54.5t13 -67.5q0 -33 -12.5 -59.5t-34.5 -45.5t-51.5 -29.5t-62.5 -10.5q-9 0 -27.5 1.5t-40.5 10t-44.5 25.5t-40.5 49q-7 -12 -12 -31t-8.5 -40.5t-5 -44t-1.5 -40.5zM379 571q-17 0 -35.5 -5.5t-36.5 -15t-34 -23.5
t-26 -31q9 -13 23 -26t31.5 -24t37.5 -18t40 -7q38 0 58.5 21t20.5 54q0 32 -23 53.5t-56 21.5zM458 931q0 32 -24.5 55t-59.5 23t-60 -23t-25 -55t25 -55t60 -23t59.5 23t24.5 55z" />
    <glyph glyph-name="lo_lo_ling" unicode="&#xea3;" horiz-adv-x="1208" 
d="M548 989q-54 0 -111 -8t-103 -25.5t-75.5 -44t-29.5 -63.5q0 -39 35 -61.5t92 -37.5t129.5 -26t148.5 -25.5t148.5 -37.5t129.5 -62t92 -97.5t35 -145.5q0 -101 -47 -172t-121.5 -115t-166.5 -64t-182 -20q-48 0 -101 7.5t-104.5 24t-98 43t-81.5 64t-56 86.5t-21 111
q0 37 15.5 75.5t44.5 70t71.5 52t96.5 20.5q41 0 76.5 -12t61 -34t40 -52t14.5 -67q0 -34 -13 -64t-35.5 -52.5t-52.5 -35.5t-64 -13t-68 18t-58 44q15 -54 51.5 -90t83 -57t98.5 -30t99 -9q70 0 136.5 18t118 52.5t82.5 84.5t31 115q0 76 -35.5 124.5t-94 78.5t-133 46.5
t-152 28t-152 23t-133 31.5t-94 54t-35.5 91q0 51 22.5 90t60.5 68t88 48t104 30.5t109.5 16.5t103.5 5q56 0 127 -10.5t143 -39t138 -79t112 -131.5l-128 -79q-29 74 -76.5 120.5t-102 73t-111 36t-102.5 9.5zM230 373q0 -35 25 -60t60 -25t60 25t25 60t-25 60t-60 25
t-60 -25t-25 -60z" />
    <glyph glyph-name="lo_lo_loot" unicode="&#xea5;" horiz-adv-x="1206" 
d="M379 142q0 32 -24.5 55t-59.5 23t-60 -23t-25 -55t25 -55t60 -23t59.5 23t24.5 55zM561 989q-43 0 -96 -11t-104.5 -39t-97.5 -76.5t-75 -122.5l-128 79q46 81 106 133t127 82.5t136 42.5t132 12q99 0 190.5 -23.5t161.5 -70.5t111.5 -117t41.5 -163v-394
q0 -82 -20 -142.5t-56.5 -100t-89 -59t-117.5 -19.5q-58 0 -99.5 20t-71 53t-50 75.5t-37 86.5t-31.5 86.5t-33.5 75.5t-43.5 53t-61 20q-39 0 -69 -20.5t-51 -51t-32 -67.5t-11 -70q28 25 57 32t48 7q33 0 62.5 -12.5t51.5 -34t34.5 -50t12.5 -61.5t-14 -61.5t-38 -50
t-55.5 -34t-65.5 -12.5q-36 0 -76 15t-73 46.5t-55 80.5t-22 117t23 124.5t63.5 97t95.5 63t118 22.5q84 0 137 -34.5t86.5 -86.5t54.5 -112t41 -112t46 -86.5t69 -34.5q19 0 40.5 12t39.5 39.5t30 74t12 115.5v373q0 82 -32.5 138t-83.5 90t-114.5 48.5t-124.5 14.5z" />
    <glyph glyph-name="lo_wo" unicode="&#xea7;" horiz-adv-x="1170" 
d="M60 819q46 81 110 133t132 82.5t132.5 42.5t111.5 12q118 0 208 -31t151.5 -82.5t93 -119.5t31.5 -142v-342q0 -105 -43.5 -179t-114.5 -120.5t-161 -67.5t-184 -21q-48 0 -101.5 8t-105.5 25t-99 45t-83 67.5t-57 92.5t-21 121q0 37 12.5 77.5t39 74.5t68 55.5
t100.5 21.5q42 0 77 -14t60 -38.5t39 -57t14 -69.5q0 -34 -11 -64t-31.5 -52.5t-50 -35.5t-67.5 -13q-40 0 -72 18.5t-58 49.5q12 -60 51.5 -100.5t90.5 -65t106 -35.5t97 -11q64 0 128 14.5t114 48.5t81.5 89t31.5 135v343q0 75 -28.5 127.5t-75.5 85.5t-109 47.5
t-128 14.5q-41 0 -90 -11t-97 -39t-91.5 -76.5t-72.5 -122.5zM220 393q0 -35 25 -60t60 -25t60 25t25 60t-25 60t-60 25t-60 -25t-25 -60z" />
    <glyph glyph-name="lo_so_sung" unicode="&#xeaa;" horiz-adv-x="1268" 
d="M183 261q28 25 57 32t48 7q33 0 62.5 -12.5t51.5 -34t34.5 -50t12.5 -61.5t-13 -61.5t-35.5 -50t-54 -34t-67.5 -12.5q-37 0 -76 15t-70.5 46.5t-52 80.5t-20.5 117t23 124.5t63.5 97t95.5 63t118 22.5t107 -20t75 -53t51.5 -74.5t36 -85.5t29 -85.5t31.5 -74.5t42.5 -53
t61.5 -20q19 0 40.5 9t39.5 35t30 73t12 124v346q0 23 -2.5 43.5t-7.5 39.5q-40 -20 -87 -35.5t-97.5 -26t-102.5 -16t-102 -5.5q-44 0 -94.5 3.5t-101.5 12.5t-98 24.5t-83.5 39.5t-58 57t-21.5 78q0 49 33 87t87.5 64t125.5 39t147 13q69 0 139.5 -8.5t136.5 -28
t125 -51.5t104 -78q25 27 39 59t14 70q0 40 -12.5 62.5t-32.5 40.5l81 67q9 -7 23 -20t27 -31.5t22 -43t9 -54.5q0 -66 -29.5 -123.5t-81.5 -105.5q23 -42 36 -92.5t13 -110.5v-320q0 -82 -20 -142.5t-56.5 -100t-89 -59t-117.5 -19.5q-58 0 -98.5 20t-69.5 53t-48.5 75.5
t-35 86.5t-30 86.5t-34 75.5t-46 53t-65.5 20q-41 0 -73.5 -20.5t-54.5 -51t-33.5 -67.5t-11.5 -70zM483 989q-64 0 -116 -8t-89.5 -22t-58 -33t-20.5 -40q0 -32 30 -54t76.5 -35.5t102.5 -19.5t109 -6q40 0 86 4.5t92.5 13.5t90.5 22.5t81 31.5q-27 39 -69.5 67t-93.5 45.5
t-108 25.5t-113 8zM369 142q0 32 -24.5 55t-59.5 23t-60 -23t-25 -55t25 -55t60 -23t59.5 23t24.5 55z" />
    <glyph glyph-name="lo_ho_sung" unicode="&#xeab;" horiz-adv-x="1393" 
d="M140 926q0 -16 6.5 -31t18 -26.5t26.5 -18.5t33 -7t33.5 7t27 18.5t18 26.5t6.5 31t-6.5 31t-18 26.5t-27 18.5t-33.5 7t-33 -7t-26.5 -18.5t-18 -26.5t-6.5 -31zM809 1018q27 30 67.5 50.5t103.5 20.5q67 0 118 -22.5t85.5 -64t52 -101.5t17.5 -135v-766h-150v805
q0 63 -14 99.5t-34.5 55t-43.5 24t-40 5.5q-23 0 -47.5 -9t-44.5 -30t-33 -56.5t-13 -87.5v-475q0 -93 -29 -158.5t-78 -107.5t-115 -61.5t-139 -19.5q-92 0 -161.5 26.5t-116.5 73t-70.5 109.5t-23.5 135q0 83 24.5 144.5t56.5 112t63 96t45 97.5q-32 -15 -68 -15
q-33 0 -62.5 13t-51.5 35.5t-34.5 52t-12.5 62.5t14 62.5t38 52t55.5 35.5t65.5 13q36 0 72 -10.5t65.5 -35.5t47.5 -65t18 -99q0 -51 -14 -90t-34.5 -74.5t-44.5 -70.5t-44.5 -79.5t-34.5 -101.5t-14 -135q0 -45 14 -88.5t43 -78t72.5 -56t103.5 -21.5q27 0 61.5 7t65 29.5
t52 65t21.5 113.5v476q-8 -2 -20 -2h-19q-32 0 -59.5 11t-47.5 31.5t-31.5 48.5t-11.5 62q0 37 13.5 67t37 51.5t54 33t64.5 11.5q44 0 82 -15t64 -56zM574 927q0 -17 6.5 -32t18 -26t26.5 -17.5t33 -6.5t33.5 6.5t27 17.5t18 26t6.5 32t-6.5 32t-18 26t-27 17.5t-33.5 6.5
t-33 -6.5t-26.5 -17.5t-18 -26t-6.5 -32z" />
    <glyph glyph-name="lo_o" unicode="&#xead;" horiz-adv-x="1170" 
d="M481 641q-66 0 -138 10t-133 34t-100.5 63.5t-39.5 99.5q0 58 39.5 103t102.5 75.5t140.5 46.5t153.5 16q106 0 201.5 -21.5t167 -73.5t113.5 -138t42 -215v-249q0 -105 -43.5 -182t-114.5 -127.5t-161 -74.5t-184 -24q-48 0 -101.5 7.5t-105.5 24t-99 42.5t-83 63.5
t-57 87t-21 112.5q0 35 11.5 74t36.5 71.5t64 54t94 21.5q42 0 77 -14t60 -38.5t39 -57t14 -69.5q0 -34 -11.5 -63t-32.5 -50.5t-51.5 -33.5t-68.5 -12q-40 0 -64.5 15t-48.5 41q21 -55 62 -89.5t90 -53.5t100.5 -26t93.5 -7q64 0 128 18.5t114 56.5t81.5 96t31.5 136v280
q0 18 -1.5 35t-3.5 33q-40 -23 -87.5 -41t-99 -31t-104 -19.5t-103.5 -6.5zM505 989q-64 0 -118 -13.5t-93.5 -34t-62 -45t-22.5 -45.5q0 -32 22.5 -53.5t60.5 -34t87 -17.5t102 -5q42 0 90.5 6.5t97 18.5t94.5 30t83 41q-20 41 -54.5 70t-79 47t-97.5 26.5t-110 8.5z
M206 363q0 -35 25 -60t60 -25t60 25t25 60t-25 60t-60 25t-60 -25t-25 -60z" />
    <glyph glyph-name="lo_ho_tam" unicode="&#xeae;" horiz-adv-x="1179" 
d="M1039 1073q0 -40 -13 -85t-42.5 -83t-76.5 -63t-114 -25q-45 0 -84.5 12.5t-75.5 32t-70.5 41.5t-70.5 41.5t-74.5 32t-82.5 12.5q-23 0 -44.5 -4t-38.5 -14.5t-27 -28t-10 -44.5q0 -45 35.5 -74.5t93.5 -50.5t132 -37.5t151 -35.5t151 -45t132 -65t93.5 -96t35.5 -139
q0 -101 -45.5 -172t-119 -115t-166 -64t-186.5 -20q-48 0 -101 8.5t-104.5 26t-98 45t-81.5 64.5t-56 85t-21 107q0 37 11.5 75.5t37.5 70t68.5 52t104.5 20.5q44 0 80.5 -12t62.5 -34t40.5 -52t14.5 -67q0 -34 -13 -64t-35.5 -52.5t-52.5 -35.5t-64 -13q-24 0 -47 7.5
t-42.5 19.5t-36 26t-28.5 27q17 -61 58 -100.5t92 -62.5t107 -32t103 -9q84 0 152 19.5t116 55t74 85t26 110.5q0 75 -35.5 123t-94 78t-133 47.5t-152 31t-152 29t-133 41t-94 67t-35.5 107.5q0 55 20.5 94.5t53.5 65.5t73.5 38.5t79.5 12.5q61 0 113 -12.5t97 -32
t83 -41.5t71 -41.5t62.5 -32t56.5 -12.5q22 0 43.5 4t38 20t27 47t10.5 85h150zM230 373q0 -35 25 -60t60 -25t60 25t25 60t-25 60t-60 25t-60 -25t-25 -60z" />
    <glyph glyph-name="lo_ellipsis" unicode="&#xeaf;" horiz-adv-x="1113" 
d="M455 422q-39 0 -83 8.5t-88 26.5t-84.5 45.5t-71.5 66.5t-49.5 89t-18.5 112q0 37 11.5 75.5t37.5 70t68.5 52t104.5 20.5q44 0 80.5 -12t62.5 -34t40.5 -52t14.5 -67q0 -34 -13 -64t-35.5 -52.5t-52.5 -35.5t-64 -13t-68 18t-58 44q15 -54 44 -90t66 -57t78.5 -30
t82.5 -9q82 0 143.5 33.5t106.5 85t75.5 113.5t50 118t30.5 98.5t17 55.5l130 -49l-467 -1589l-139 48l315 1048q-59 -34 -126.5 -54t-140.5 -20zM287 922q-19 0 -36 -7.5t-30 -20.5t-20.5 -30.5t-7.5 -36.5q0 -20 7.5 -36.5t20.5 -29t30 -19.5t36 -7q35 3 57.5 29.5
t22.5 62.5q0 37 -22.5 64.5t-57.5 30.5z" />
    <glyph glyph-name="lo_vs_a" unicode="&#xeb0;" horiz-adv-x="1085" 
d="M244 1059q44 0 79.5 -12.5t60.5 -34.5t38.5 -52t13.5 -65q0 -73 -43.5 -114.5t-113.5 -47.5q60 -23 121 -33.5t112 -10.5q82 0 138.5 18.5t91 46.5t50 61.5t15.5 64.5q0 29 -14.5 59.5t-52.5 66.5l112 75q16 -17 32.5 -36.5t30 -43t22 -50.5t8.5 -59q0 -68 -34 -123.5
t-92.5 -95.5t-137.5 -62t-170 -22q-84 0 -164.5 18.5t-144.5 54.5t-103 88.5t-39 120.5q0 40 14.5 74.5t39 60t58 39.5t72.5 14zM180 894q0 -35 25 -60t60 -25t60 25t25 60t-25 60t-60 25t-60 -25t-25 -60zM180 319q0 -35 25 -60t60 -25t60 25t25 60t-25 60t-60 25t-60 -25
t-25 -60zM244 484q44 0 79.5 -12.5t60.5 -34.5t38.5 -52t13.5 -65q0 -73 -43.5 -114.5t-113.5 -47.5q60 -23 121 -33.5t112 -10.5q82 0 138.5 18.5t91 46.5t50 61.5t15.5 64.5q0 29 -14.5 59.5t-52.5 66.5l112 75q16 -17 32.5 -36.5t30 -43t22 -50.5t8.5 -59
q0 -68 -34 -123.5t-92.5 -95.5t-137.5 -62t-170 -22q-84 0 -164.5 18.5t-144.5 54.5t-103 88.5t-39 120.5q0 40 14.5 74.5t39 60t58 39.5t72.5 14z" />
    <glyph glyph-name="lo_vs_mai_kan" unicode="&#xeb1;" horiz-adv-x="1085" 
d="M244 1693q44 0 79.5 -12.5t60.5 -34.5t38.5 -52t13.5 -65q0 -73 -43.5 -114.5t-113.5 -47.5q60 -23 121 -33.5t112 -10.5q82 0 138.5 18.5t91 46.5t50 61.5t15.5 64.5q0 29 -14.5 59.5t-52.5 66.5l112 75q16 -17 32.5 -36.5t30 -43t22 -50.5t8.5 -59q0 -68 -34 -123.5
t-92.5 -95.5t-137.5 -62t-170 -22q-84 0 -164.5 18.5t-144.5 54.5t-103 88.5t-39 120.5q0 40 14.5 74.5t39 60t58 39.5t72.5 14zM180 1528q0 -35 25 -60t60 -25t60 25t25 60t-25 60t-60 25t-60 -25t-25 -60z" />
    <glyph glyph-name="lo_vs_aa" unicode="&#xeb2;" horiz-adv-x="1000" 
d="M710 0v693q0 65 -18.5 119.5t-54 93.5t-86.5 61t-117 22q-40 0 -79.5 -9t-73.5 -30.5t-60 -58t-38 -90.5q24 26 60.5 45t76.5 19q38 0 67.5 -13t50 -35.5t31.5 -52.5t11 -64q0 -37 -14 -69.5t-39 -57t-60 -38.5t-77 -14q-64 0 -106.5 27t-67.5 65.5t-35.5 81.5t-10.5 75
q0 77 31 136.5t82.5 100t119 61.5t139.5 21q94 0 171 -24t132 -72.5t85 -123t30 -175.5v-694h-150zM230 700q0 -35 25 -60t60 -25t60 25t25 60t-25 60t-60 25t-60 -25t-25 -60z" />
    <glyph glyph-name="lo_vs_am" unicode="&#xeb3;" horiz-adv-x="1497" 
d="M160 1555q0 -35 25 -60t60 -25t60 25t25 60t-25 60t-60 25t-60 -25t-25 -60zM60 1555q0 38 14.5 72t39.5 59t59 39.5t72 14.5t72 -14.5t59 -39.5t39.5 -59t14.5 -72t-14.5 -72t-39.5 -59t-59 -39.5t-72 -14.5t-72 14.5t-59 39.5t-39.5 59t-14.5 72zM1207 0v693
q0 65 -18.5 119.5t-54 93.5t-86.5 61t-117 22q-40 0 -79.5 -9t-73.5 -30.5t-60 -58t-38 -90.5q24 26 60.5 45t76.5 19q38 0 67.5 -13t50 -35.5t31.5 -52.5t11 -64q0 -37 -14 -69.5t-39 -57t-60 -38.5t-77 -14q-64 0 -106.5 27t-67.5 65.5t-35.5 81.5t-10.5 75q0 77 31 136.5
t82.5 100t119 61.5t139.5 21q94 0 171 -24t132 -72.5t85 -123t30 -175.5v-694h-150zM727 700q0 -35 25 -60t60 -25t60 25t25 60t-25 60t-60 25t-60 -25t-25 -60z" />
    <glyph glyph-name="lo_vs_i" unicode="&#xeb4;" horiz-adv-x="1068" 
d="M494 1598q-83 0 -139.5 -19t-91.5 -48t-50 -63.5t-15 -65.5q0 -29 14.5 -59.5t52.5 -66.5l-112 -75q-16 17 -32.5 36.5t-30 43t-22 50.5t-8.5 59q0 67 34 123t92.5 96t137.5 62t170 22t170 -22t137.5 -62t92.5 -96t34 -123q0 -32 -8.5 -59t-22 -50.5t-30 -43t-32.5 -36.5
l-112 75q38 36 52.5 66.5t14.5 59.5q0 31 -15.5 65.5t-50.5 63.5t-91.5 48t-138.5 19z" />
    <glyph glyph-name="lo_vs_ii" unicode="&#xeb5;" horiz-adv-x="1275" 
d="M494 1598q-83 0 -139.5 -19t-91.5 -48t-50 -63.5t-15 -65.5q0 -29 14.5 -59.5t52.5 -66.5l-112 -75q-16 17 -32.5 36.5t-30 43t-22 50.5t-8.5 59q0 67 34 123t92.5 96t137.5 62t170 22t170 -22t137.5 -62t92.5 -96t34 -123q0 -29 -6.5 -53t-17.5 -45q57 5 109.5 16
t103.5 32l18 -87q-35 -20 -76 -30.5t-82 -15t-78 -5.5t-64 -1l-112 75q38 36 52.5 66.5t14.5 59.5q0 31 -15.5 65.5t-50.5 63.5t-91.5 48t-138.5 19z" />
    <glyph glyph-name="lo_vs_y" unicode="&#xeb6;" horiz-adv-x="1068" 
d="M494 1598q-83 0 -139.5 -19t-91.5 -48t-50 -63.5t-15 -65.5q0 -29 14.5 -59.5t52.5 -66.5l-112 -75q-16 17 -32.5 36.5t-30 43t-22 50.5t-8.5 59q0 67 34 123t92.5 96t137.5 62t170 22t170 -22t137.5 -62t92.5 -96t34 -123q0 -32 -8.5 -59t-22 -50.5t-30 -43t-32.5 -36.5
l-112 75q38 36 52.5 66.5t14.5 59.5q0 31 -15.5 65.5t-50.5 63.5t-91.5 48t-138.5 19zM401 1362q0 -18 7.5 -34t20 -28t29.5 -18.5t36 -6.5t36 6.5t29.5 18.5t20 28t7.5 34t-7.5 34t-20 28t-29.5 19t-36 7t-36 -7t-29.5 -19t-20 -28t-7.5 -34z" />
    <glyph glyph-name="lo_vs_yy" unicode="&#xeb7;" horiz-adv-x="1275" 
d="M494 1598q-83 0 -139.5 -19t-91.5 -48t-50 -63.5t-15 -65.5q0 -29 14.5 -59.5t52.5 -66.5l-112 -75q-16 17 -32.5 36.5t-30 43t-22 50.5t-8.5 59q0 67 34 123t92.5 96t137.5 62t170 22t170 -22t137.5 -62t92.5 -96t34 -123q0 -29 -6.5 -53t-17.5 -45q57 5 109.5 16
t103.5 32l18 -87q-35 -20 -76 -30.5t-82 -15t-78 -5.5t-64 -1l-112 75q38 36 52.5 66.5t14.5 59.5q0 31 -15.5 65.5t-50.5 63.5t-91.5 48t-138.5 19zM401 1362q0 -18 7.5 -34t20 -28t29.5 -18.5t36 -6.5t36 6.5t29.5 18.5t20 28t7.5 34t-7.5 34t-20 28t-29.5 19t-36 7
t-36 -7t-29.5 -19t-20 -28t-7.5 -34z" />
    <glyph glyph-name="lo_vs_u" unicode="&#xeb8;" horiz-adv-x="622" 
d="M140 -356q0 -29 22 -49.5t52 -20.5t51.5 20.5t21.5 49.5t-21.5 49t-51.5 20t-52 -20t-22 -49zM346 -426q-23 -39 -52.5 -59.5t-74.5 -20.5q-33 0 -62 11t-50.5 30.5t-34 45.5t-12.5 57t13 60t38 51.5t62 36.5t85 14q52 0 93.5 -21t70.5 -55.5t44.5 -78.5t15.5 -90
q0 -51 -14 -95t-36 -82t-49 -69t-52 -54t-46 -38.5t-31 -22.5l-65 78q92 70 129.5 132.5t37.5 114.5q0 31 -10 55z" />
    <glyph glyph-name="lo_vs_uu" unicode="&#xeb9;" horiz-adv-x="923" 
d="M477 -558q0 -80 19.5 -113.5t56.5 -33.5q9 0 21 4.5t23 20t18.5 44.5t7.5 78v358h145v-333q0 -53 -9.5 -102t-34 -86.5t-66 -60.5t-105.5 -23t-106 25t-66.5 64t-34 87t-9.5 95v91q-12 -34 -42.5 -53.5t-75.5 -19.5q-33 0 -62 10.5t-50.5 30t-34 46.5t-12.5 60
q0 34 13 64.5t38 54t62 37t85 13.5q52 0 92.5 -18.5t68.5 -49.5t43 -71t15 -83v-136zM140 -356q0 -29 22 -49.5t52 -20.5t51.5 20.5t21.5 49.5t-21.5 49t-51.5 20t-52 -20t-22 -49z" />
    <glyph glyph-name="lo_vs_mai_kon" unicode="&#xebb;" horiz-adv-x="1085" 
d="M244 1270q-39 0 -72.5 14t-58 39.5t-39 59.5t-14.5 75q0 67 39 119.5t103 88.5t144.5 55t164.5 19q91 0 170 -22t137.5 -62t92.5 -96t34 -123q0 -32 -8.5 -59t-22 -50.5t-30 -43t-32.5 -36.5l-112 75q38 36 52.5 66.5t14.5 59.5q0 31 -15.5 64.5t-50 61.5t-91 46.5
t-138.5 18.5q-51 0 -112 -10.5t-121 -33.5q70 -6 113.5 -47.5t43.5 -114.5q0 -35 -13.5 -65t-38.5 -52t-60.5 -34.5t-79.5 -12.5zM180 1435q0 -35 25 -60t60 -25t60 25t25 60t-25 60t-60 25t-60 -25t-25 -60z" />
    <glyph glyph-name="lo_vs_lo" unicode="&#xebc;" horiz-adv-x="1136" 
d="M996 -158q-65 -117 -142 -170t-153 -53q-57 0 -100.5 21.5t-80 50.5t-69.5 60t-69 49q8 -15 11.5 -31t3.5 -27q0 -31 -15 -55t-39 -40.5t-53.5 -25t-58.5 -8.5q-37 0 -68.5 11.5t-54 32t-35.5 49t-13 62.5q0 31 11 59t33 49t54.5 33.5t75.5 12.5q50 0 91.5 -14.5
t78.5 -35.5t71 -46.5t68.5 -46.5t71.5 -35.5t80 -14.5t73.5 14t53.5 37.5t41 55t37 67.5zM186 -233q0 -28 20 -48t52 -20q13 0 25.5 5.5t22 14.5t15 21.5t5.5 26.5q0 27 -18.5 49t-49.5 22q-32 0 -52 -21t-20 -50z" />
    <glyph glyph-name="lo_vs_nyo" unicode="&#xebd;" horiz-adv-x="1070" 
d="M930 101q0 -101 -36.5 -175.5t-98.5 -123.5t-145 -72.5t-177 -23.5q-72 0 -146 19.5t-133 60t-96.5 104t-37.5 152.5q0 37 13.5 77.5t41.5 75t71 57t101 22.5q42 0 76 -14t57.5 -38.5t36.5 -57t13 -69.5q0 -34 -11 -64t-31.5 -52.5t-50 -35.5t-67.5 -13q-40 0 -73.5 18
t-57.5 44q17 -49 49 -84.5t72 -58t84.5 -33t86.5 -10.5q64 0 120.5 18.5t98.5 55t66 92t24 130.5v198q0 95 -31 156.5t-81.5 100t-115.5 60.5t-132.5 37.5t-132.5 30.5t-115.5 39.5t-81.5 64t-31 105.5q0 55 21.5 92t55 60t74.5 33t80 10q61 0 105 -12.5t76 -32t55.5 -41.5
t44.5 -41.5t42 -32t48 -12.5q13 0 33.5 4t39.5 20t32.5 47t13.5 85h150q0 -40 -13 -85t-42.5 -83t-76.5 -63t-114 -25q-45 0 -75 12t-52 30t-40 38.5t-39.5 38.5t-50.5 30t-73 12q-18 0 -39.5 -5t-39.5 -15t-30 -26t-12 -38q0 -43 30 -71t79 -48.5t111.5 -36.5t128 -35.5
t128 -46t111.5 -67.5t79 -100t30 -144v-244zM220 95q0 -35 25 -60t60 -25t60 25t25 60t-25 60t-60 25t-60 -25t-25 -60z" />
    <glyph glyph-name="lo_vs_e" unicode="&#xec0;" horiz-adv-x="678" 
d="M60 707q0 80 23.5 147t72 116t123 76t176.5 27h61v-100h-61q-51 0 -95.5 -16.5t-77.5 -50t-52.5 -84t-19.5 -117.5v-349q0 -53 9 -90t19 -54q16 30 36 47.5t40 26.5t37 11.5t26 2.5q33 0 62.5 -10.5t51.5 -29.5t34.5 -45.5t12.5 -59.5q0 -36 -13 -67.5t-38.5 -54.5
t-64 -36t-89.5 -13q-42 0 -89.5 19t-88.5 61.5t-68 111t-27 167.5v364zM458 142q0 32 -24.5 55t-59.5 23t-60 -23t-25 -55t25 -55t60 -23t59.5 23t24.5 55z" />
    <glyph glyph-name="lo_vs_ei" unicode="&#xec1;" horiz-adv-x="1208" 
d="M60 707q0 80 23.5 147t72 116t123 76t176.5 27h61v-100h-61q-51 0 -95.5 -16.5t-77.5 -50t-52.5 -84t-19.5 -117.5v-349q0 -53 9 -90t19 -54q16 30 36 47.5t40 26.5t37 11.5t26 2.5q33 0 62.5 -10.5t51.5 -29.5t34.5 -45.5t12.5 -59.5q0 -36 -13 -67.5t-38.5 -54.5
t-64 -36t-89.5 -13q-42 0 -89.5 19t-88.5 61.5t-68 111t-27 167.5v364zM458 142q0 32 -24.5 55t-59.5 23t-60 -23t-25 -55t25 -55t60 -23t59.5 23t24.5 55zM590 707q0 80 23.5 147t72 116t123 76t176.5 27h61v-100h-61q-51 0 -95.5 -16.5t-77.5 -50t-52.5 -84t-19.5 -117.5
v-349q0 -53 9 -90t19 -54q16 30 36 47.5t40 26.5t37 11.5t26 2.5q33 0 62.5 -10.5t51.5 -29.5t34.5 -45.5t12.5 -59.5q0 -36 -13 -67.5t-38.5 -54.5t-64 -36t-89.5 -13q-42 0 -89.5 19t-88.5 61.5t-68 111t-27 167.5v364zM988 142q0 32 -24.5 55t-59.5 23t-60 -23t-25 -55
t25 -55t60 -23t59.5 23t24.5 55z" />
    <glyph glyph-name="lo_vs_o" unicode="&#xec2;" horiz-adv-x="695" 
d="M437 1073q-53 42 -99 69.5t-89 44t-84.5 23.5t-84.5 7q-37 0 -76 -4t-84 -10q1 39 11 83.5t28 87.5t43.5 82.5t57.5 69.5t70.5 48t82.5 18t78.5 -10.5t68.5 -26.5t72.5 -34t90.5 -34t122 -26.5t168 -10.5l-92 -150q-73 17 -130 37.5t-102 42t-81.5 41.5t-68 36
t-61.5 25.5t-63 9.5q-30 0 -52.5 -12t-40 -31t-30 -42.5t-21 -46t-13 -41.5t-6.5 -29q15 2 30.5 3t30.5 1q115 0 226.5 -57t206.5 -164v-100h-84q-51 0 -95.5 -16.5t-77.5 -50t-52.5 -84t-19.5 -117.5v-349q0 -53 10 -92.5t20 -56.5q13 31 32.5 49t39.5 28t38 13t27 3
q33 0 62.5 -10.5t51.5 -29.5t34.5 -45.5t12.5 -59.5q0 -36 -13 -67.5t-38.5 -54.5t-64 -36t-89.5 -13q-42 0 -89.5 19t-88.5 61.5t-68 111t-27 167.5v364q0 80 23 147t69 116t115.5 76t162.5 27zM465 142q0 32 -24.5 55t-59.5 23t-60 -23t-25 -55t25 -55t60 -23t59.5 23
t24.5 55z" />
    <glyph glyph-name="lo_vs_ay" unicode="&#xec3;" horiz-adv-x="689" 
d="M458 142q0 32 -24.5 55t-59.5 23t-60 -23t-25 -55t25 -55t60 -23t59.5 23t24.5 55zM455 973q-51 0 -95.5 -16.5t-77.5 -50t-52.5 -84t-19.5 -117.5v-349q0 -53 8 -91.5t18 -55.5q13 32 33.5 50t41 27t39 11.5t27.5 2.5q33 0 62.5 -10.5t51.5 -29.5t34.5 -45.5t12.5 -59.5
q0 -36 -13 -67.5t-38.5 -54.5t-64 -36t-89.5 -13q-42 0 -89.5 19t-88.5 61.5t-68 111t-27 167.5v364q0 80 23.5 147t72 116t123 76t176.5 27q37 29 63.5 60.5t43 68.5t24 80t7.5 96q0 76 -26.5 126.5t-65.5 80.5t-82.5 42.5t-77.5 12.5q-54 0 -98.5 -16.5t-76 -45
t-48.5 -66.5t-17 -82q0 -50 10 -89.5t34.5 -70.5t65 -56t100.5 -47l-98 -94q-61 6 -109.5 37.5t-82 77t-51.5 99t-18 103.5q0 88 34 154t89 109.5t125.5 65t144.5 21.5q44 0 91 -9t91 -28t83.5 -48.5t69 -69.5t46.5 -92t17 -115q0 -72 -19 -138.5t-55.5 -120.5t-90 -92
t-123.5 -54z" />
    <glyph glyph-name="lo_vs_ai" unicode="&#xec4;" horiz-adv-x="659" 
d="M449 142q0 32 -24.5 55t-59.5 23t-60 -23t-25 -55t25 -55t60 -23t59.5 23t24.5 55zM-126 1768q75 -46 122 -94.5t78.5 -106t53 -128t45.5 -159.5q11 8 36 12.5t54 4.5q16 0 34.5 -9t37 -25.5t36 -39t32.5 -48.5q-40 -17 -73.5 -39t-57.5 -52.5t-37 -71t-13 -93.5v-566
q0 -53 5.5 -86.5t15.5 -50.5q20 30 41.5 46.5t42 24t37 9t25.5 1.5q33 0 62.5 -10.5t51.5 -29.5t34.5 -45.5t12.5 -59.5q0 -36 -13 -67.5t-38.5 -54.5t-64 -36t-89.5 -13q-42 0 -89.5 19t-88.5 61.5t-68 111t-27 167.5v564q0 48 16 92.5t43.5 82t64.5 65t79 42.5
q-11 11 -24.5 19t-27.5 8q-40 0 -82 -22.5t-68 -66.5q0 77 -6.5 153t-25 144t-52 125.5t-87.5 96.5z" />
    <glyph glyph-name="lo_ko_la" unicode="&#xec6;" horiz-adv-x="1110" 
d="M689 1089q53 0 103.5 -24t90 -72.5t63.5 -123t24 -175.5v-564q0 -46 -10.5 -95.5t-33.5 -96.5t-60 -89t-89 -74t-121 -50.5t-157 -18.5q-47 0 -103 10t-111 33t-103.5 61.5t-81.5 95.5l128 79q15 -48 44.5 -81.5t67 -55.5t80 -32t83.5 -10q64 0 121.5 23.5t101 66
t69 102.5t25.5 132v563q0 61 -11.5 114.5t-32.5 94t-51 64t-67 23.5q-28 0 -43 -14t-28.5 -31.5t-30.5 -31.5t-49 -14q-29 0 -45.5 14t-33 31.5t-40 31.5t-65.5 14q-32 0 -60.5 -16.5t-50 -46t-34.5 -71t-13 -91.5q0 -6 0.5 -12.5t1.5 -12.5q11 19 29 34.5t39 27t43 18
t42 6.5q38 0 67.5 -13t50 -35.5t31.5 -52.5t11 -64q0 -37 -14 -69.5t-39 -57t-60 -38.5t-77 -14q-64 0 -108 28t-71 69.5t-39 89.5t-12 88q0 96 28 160t67 102.5t81 54.5t70 16q47 0 76.5 -14.5t49.5 -31.5t36.5 -31.5t38.5 -14.5q26 0 42 14.5t33 31.5t41 31.5t66 14.5z
M230 660q0 -35 25 -60t60 -25t60 25t25 60t-25 60t-60 25t-60 -25t-25 -60z" />
    <glyph glyph-name="lo_tone_mai_ek" unicode="&#xec8;" horiz-adv-x="413" 
d="M114 1290l-35 450h173l-37 -450h-101z" />
    <glyph glyph-name="lo_tone_mai_tho" unicode="&#xec9;" horiz-adv-x="1097" 
d="M81 1335q25 13 52.5 32.5t52.5 45t44 56t27 65.5q-24 -16 -43 -21t-41 -5q-23 0 -43.5 7.5t-36 21.5t-24.5 33t-9 42q0 18 8 40.5t27.5 42t52 32.5t82.5 13q23 0 52.5 -6t56 -23t44.5 -46.5t18 -75.5q0 -33 -12 -61.5t-30 -52t-40 -41t-43 -27.5q11 -4 31 -8.5t50 -4.5
q32 0 73 4t85.5 15t89.5 30.5t85.5 49.5t73.5 73t53 102l140 -48q-28 -59 -77.5 -118t-122 -106t-168 -76.5t-216.5 -29.5q-66 0 -138 11.5t-154 33.5zM138 1622q0 -23 17.5 -39t42.5 -16t42 16t17 39t-17 39.5t-42 16.5t-42.5 -16.5t-17.5 -39.5z" />
    <glyph glyph-name="lo_tone_mai_ti" unicode="&#xeca;" horiz-adv-x="1108" 
d="M446 1408q0 23 -17.5 39t-42.5 16t-42 -16t-17 -39t17 -39.5t42 -16.5t42.5 16.5t17.5 39.5zM968 1354v-64h-338v76q22 1 48 14.5t49 35t38.5 50.5t15.5 62q0 57 -32 89.5t-79 32.5q-28 0 -49.5 -11t-41.5 -24.5t-41.5 -26t-48.5 -16.5q-27 2 -48 14.5t-40.5 26.5
t-40 25.5t-48.5 11.5q-21 0 -43 -10.5t-40 -28.5t-29.5 -42.5t-11.5 -51.5q0 -35 8.5 -59.5t22.5 -42t33 -29t40 -19.5q-10 24 -10 48q0 48 36.5 77.5t92.5 29.5q23 0 43.5 -7.5t36 -21.5t24.5 -33t9 -42q0 -18 -8 -40.5t-30.5 -42t-63 -32.5t-106.5 -13q-52 0 -98.5 18
t-81.5 49t-55.5 72t-20.5 88q0 58 19.5 100t52 69.5t75.5 40.5t90 13q36 0 63 -12.5t49.5 -27.5t42 -27.5t41.5 -12.5t43.5 12.5t44 27.5t48.5 27.5t58 12.5q54 0 95.5 -17t70 -45.5t43.5 -66t15 -78.5q0 -34 -12.5 -62t-30.5 -50.5t-37.5 -39t-33.5 -27.5h171z" />
    <glyph glyph-name="lo_tone_mai_catawa" unicode="&#xecb;" horiz-adv-x="578" 
d="M199 1601v139h100v-139h139v-100h-139v-139h-100v139h-139v100h139z" />
    <glyph glyph-name="lo_cancellation_mark" unicode="&#xecc;" horiz-adv-x="739" 
d="M589 1765q-15 -19 -31 -28.5t-38 -9.5q-21 0 -44 4.5t-45.5 9.5t-45.5 9.5t-44 4.5q-30 0 -59.5 -7.5t-53.5 -22.5t-38.5 -38t-14.5 -53q10 7 24.5 12t30 8.5t29 5t21.5 1.5q25 0 49.5 -9.5t43.5 -26t30.5 -39.5t11.5 -50q0 -69 -43.5 -105.5t-115.5 -36.5
q-26 0 -60 11.5t-64 37t-51 65.5t-21 97q0 60 22 103.5t57.5 71.5t81 41.5t92.5 13.5q33 0 55.5 -5.5t46.5 -5.5q15 0 31 1t31 5t28 11.5t21 20.5zM178 1527q0 -16 9 -30t23.5 -24t31.5 -16t33 -6q32 0 54.5 22t22.5 54t-22.5 54.5t-54.5 22.5q-16 0 -33 -6t-31.5 -16.5
t-23.5 -24.5t-9 -30z" />
    <glyph glyph-name="lo_niggahita" unicode="&#xecd;" horiz-adv-x="570" 
d="M160 1555q0 -35 25 -60t60 -25t60 25t25 60t-25 60t-60 25t-60 -25t-25 -60zM60 1555q0 38 14.5 72t39.5 59t59 39.5t72 14.5t72 -14.5t59 -39.5t39.5 -59t14.5 -72t-14.5 -72t-39.5 -59t-59 -39.5t-72 -14.5t-72 14.5t-59 39.5t-39.5 59t-14.5 72z" />
    <glyph glyph-name="lo_zero" unicode="&#xed0;" horiz-adv-x="1080" 
d="M60 536q0 114 34.5 199t94.5 141.5t140 84.5t171 28t171 -28t140 -84.5t94.5 -141.5t34.5 -199t-34.5 -198.5t-94.5 -141t-140 -84.5t-171 -28t-171 28t-140 84.5t-94.5 141t-34.5 198.5zM210 536q0 -101 24.5 -169t65 -108.5t92.5 -57.5t108 -17t108 19.5t92.5 61.5
t65 109t24.5 162q0 97 -24.5 164.5t-65 109.5t-92.5 60.5t-108 18.5t-108 -19t-92.5 -61t-65 -109t-24.5 -164z" />
    <glyph glyph-name="lo_one" unicode="&#xed1;" horiz-adv-x="1209" 
d="M432 550q0 -35 25 -60t60 -25t60 25t25 60t-25 60t-60 25t-60 -25t-25 -60zM380 32q62 20 126 48.5t123.5 66t112.5 84.5t92 104.5t62 126t23 149.5q0 99 -32.5 170.5t-86 117.5t-121.5 68t-140 22q-57 0 -116 -14.5t-106 -47t-77 -85t-30 -127.5q0 -61 15.5 -104
t41.5 -72.5t61.5 -47t74.5 -26.5q-17 20 -27.5 43.5t-10.5 59.5q0 34 13 61.5t34.5 46.5t49 29t55.5 10q34 0 64 -11.5t52.5 -32t35.5 -49t13 -62.5q0 -40 -15.5 -74t-47 -58.5t-78 -38.5t-109.5 -14q-81 0 -149.5 22.5t-118 65t-77 103.5t-27.5 137q0 82 31.5 153t92 122.5
t149.5 81t205 29.5q121 0 219 -34.5t167.5 -98t107 -153.5t37.5 -201q0 -115 -42 -216t-124.5 -186t-205 -152.5t-284.5 -115.5z" />
    <glyph glyph-name="lo_two" unicode="&#xed2;" horiz-adv-x="1149" 
d="M210 420q0 -90 28 -154t75.5 -104.5t110.5 -59t133 -18.5q47 0 101 9t102.5 30t86.5 57t53 90q-24 -26 -58 -44t-68 -18t-64 10t-52.5 29.5t-35.5 48.5t-13 67q0 39 14.5 71t40.5 55t62.5 36t80.5 13q51 0 88.5 -20.5t63 -52t38 -70t12.5 -75.5q0 -62 -20 -111
t-54.5 -86.5t-79.5 -64t-95.5 -43t-103 -24t-100.5 -7.5q-60 0 -120 9t-115 29.5t-103 53.5t-83 81.5t-55 113.5t-20 149q0 101 28 173.5t76.5 125.5t112.5 92.5t135 74t146 70t144.5 81t129.5 106.5t103 147l73 -52q-31 -75 -82 -131t-113 -100.5t-130.5 -81.5
t-135.5 -73.5t-128 -76t-107.5 -90t-74 -115t-27.5 -150.5zM859 373q0 35 -25 60t-60 25t-60 -25t-25 -60t25 -60t60 -25t60 25t25 60z" />
    <glyph glyph-name="lo_three" unicode="&#xed3;" horiz-adv-x="1344" 
d="M375 104q65 34 115 75q-65 80 -105 181.5t-40 215.5q0 55 17 106.5t49.5 91.5t80.5 63.5t110 23.5q70 0 115 -31t71.5 -75.5t37 -94t10.5 -86.5q0 -57 -14 -111.5t-39.5 -104.5t-60 -95t-75.5 -84q36 -43 83 -69t106 -26q56 0 97 31t68 80.5t40 112t13 126.5
q0 107 -28.5 188.5t-72 145.5t-93.5 115t-93.5 96t-72 89t-28.5 94q0 25 9.5 48t30 41t53 28.5t77.5 10.5q58 0 109.5 -14.5t97.5 -38.5t86 -56t75 -67l-50 -70q-24 21 -51.5 46.5t-59 47.5t-67.5 37t-77 15q-21 0 -33.5 -4t-19 -10.5t-8.5 -14.5t-2 -17q0 -39 27.5 -84
t68 -96.5t88.5 -110t88.5 -124.5t68 -140t27.5 -156q0 -95 -22 -176.5t-67 -142.5t-114.5 -95.5t-164.5 -34.5q-69 0 -141 32.5t-136 89.5q-81 -58 -165 -90t-154 -32q-45 0 -79 12.5t-56.5 34t-33.5 50t-11 61.5t12 61.5t34 50t53 34t69 12.5q27 0 54.5 -9.5t49 -28.5
t35 -47.5t13.5 -65.5q0 -11 -1.5 -22t-3.5 -23zM686 583q0 49 -7.5 83t-19.5 55t-28.5 30.5t-34.5 9.5q-21 0 -39.5 -13.5t-32 -37t-21.5 -55t-8 -68.5q0 -51 5.5 -92.5t16.5 -77.5t27.5 -69t39.5 -68q27 34 46.5 66t32 67t18 76t5.5 94zM147 142q0 -32 24.5 -55t59.5 -23
t60 23t25 55t-25 55t-60 23t-59.5 -23t-24.5 -55z" />
    <glyph glyph-name="lo_four" unicode="&#xed4;" horiz-adv-x="1178" 
d="M1038 1253q-46 -92 -106 -146t-127 -86.5t-137 -50.5t-136.5 -36.5t-125 -45t-102.5 -76t-69.5 -130t-25.5 -206.5q0 -31 4 -72t13.5 -84.5t25.5 -86t39.5 -75.5t55.5 -53.5t73 -20.5q45 0 81.5 22t70.5 54q-23 44 -35.5 97t-12.5 116q0 67 15 120t40.5 93t57.5 68.5
t66.5 46.5t68 26t61.5 8q51 0 89.5 -13.5t64 -36.5t38.5 -52.5t13 -61.5q0 -35 -12.5 -63t-34.5 -47.5t-51.5 -30.5t-62.5 -11q-6 0 -19.5 1.5t-30 7t-34 16.5t-32 31t-23.5 50t-9 73q-3 -5 -11.5 -17.5t-18.5 -37t-17.5 -61.5t-7.5 -90q0 -26 1 -44t3.5 -32t5.5 -25.5
t7 -22.5q33 29 70 47t79 18q52 0 89.5 -15t61.5 -38.5t35.5 -53t11.5 -58.5q0 -47 -15.5 -81.5t-40.5 -57.5t-58 -34t-67 -11q-68 0 -127.5 25.5t-104.5 74.5q-21 -20 -44.5 -38t-52.5 -32t-64.5 -22t-79.5 -8q-60 0 -107 23.5t-83 62.5t-61.5 90t-41.5 106.5t-23.5 111.5
t-7.5 104q0 116 22 198.5t59.5 140.5t87.5 94.5t107.5 60.5t118 39.5t119.5 31t112.5 35.5t96.5 52t71.5 80.5t36.5 122.5zM850 84q12 0 25 3.5t24.5 12t18.5 22.5t7 35q0 18 -8.5 32.5t-21.5 24t-29 14.5t-31 5q-35 0 -61.5 -13t-49.5 -34q15 -38 33.5 -58.5t36.5 -30.5
t33 -11.5t23 -1.5zM958 577q0 32 -24.5 55t-59.5 23t-60 -23t-25 -55t25 -55t60 -23t59.5 23t24.5 55z" />
    <glyph glyph-name="lo_five" unicode="&#xed5;" horiz-adv-x="1178" 
d="M891 1337l147 -84q-37 -73 -85.5 -128.5t-103.5 -96t-114.5 -67.5t-118 -44t-114 -25t-102.5 -10q-35 -24 -69 -55.5t-61 -78.5t-44 -113t-17 -159q0 -36 4 -79t13.5 -86.5t25.5 -84.5t39.5 -72.5t55.5 -50.5t73 -19q45 0 81.5 22t70.5 54q-23 44 -35.5 97t-12.5 116
q0 67 15 120t40.5 93t57.5 68.5t66.5 46.5t68 26t61.5 8q51 0 89.5 -13.5t64 -36.5t38.5 -52.5t13 -61.5q0 -35 -12.5 -63t-34.5 -47.5t-51.5 -30.5t-62.5 -11q-6 0 -19.5 1.5t-30 7t-34 16.5t-32 31t-23.5 50t-9 73q-4 -5 -13 -19.5t-18.5 -40t-16.5 -62t-7 -84.5
q0 -63 17 -122q30 26 68.5 44.5t80.5 18.5q52 0 89.5 -15t61.5 -38.5t35.5 -53t11.5 -58.5q0 -47 -15.5 -81.5t-40.5 -57.5t-58 -34t-67 -11q-68 0 -127.5 25.5t-104.5 74.5q-21 -20 -44.5 -38t-52.5 -32t-64.5 -22t-79.5 -8q-60 0 -107 23.5t-83 62.5t-61.5 90t-41.5 106.5
t-23.5 111.5t-7.5 104q0 81 17.5 145t46 113.5t65.5 87t75 65.5q-62 20 -92 61.5t-30 90.5q0 34 12.5 62.5t34.5 48t51.5 30.5t62.5 11q9 0 34.5 -4t52.5 -20.5t47.5 -49.5t20.5 -90q0 -20 -6 -39t-14 -32q75 5 151.5 29t139.5 69.5t107 113.5t55 163zM850 84
q24 0 44.5 21.5t20.5 54.5q0 15 -6.5 28.5t-18 23t-26 15.5t-29.5 6q-35 0 -64.5 -13t-52.5 -34q15 -38 34.5 -58.5t38.5 -30.5t35 -11.5t24 -1.5zM958 577q0 32 -24.5 55t-59.5 23t-60 -23t-25 -55t25 -55t60 -23t59.5 23t24.5 55zM223 1039q0 -32 23 -55t56 -23t56 23
t23 55t-23 55t-56 23t-56 -23t-23 -55z" />
    <glyph glyph-name="lo_six" unicode="&#xed6;" horiz-adv-x="1386" 
d="M1246 422q0 -46 -6.5 -96t-21.5 -99t-40 -93t-60.5 -77.5t-83.5 -53t-110 -19.5q-74 0 -138.5 32.5t-118.5 85.5q-51 -53 -112.5 -85.5t-133.5 -32.5q-97 0 -165.5 48t-112 126t-63.5 176t-20 198q0 123 31.5 225t81 176t111 115t120.5 41q45 0 77.5 -12.5t52.5 -34.5
t29.5 -52t9.5 -64q0 -33 -12.5 -61t-34.5 -48.5t-51.5 -32t-62.5 -11.5q-9 0 -28 1.5t-40.5 9t-43.5 24t-38 46.5q-12 -23 -23.5 -53t-20.5 -70t-15 -91.5t-6 -116.5q0 -86 16.5 -165.5t47 -140t74.5 -97t98 -36.5q41 0 85 26t84 68q-52 73 -81 154.5t-29 151.5q0 46 13 85
t37 67t57 44t73 16q34 0 64.5 -17.5t53 -46.5t35.5 -67t13 -79q0 -33 -7.5 -72t-22 -79.5t-35 -81.5t-47.5 -79q43 -42 88 -66t82 -24q48 0 85 19.5t62.5 64t39 116.5t13.5 177q0 91 -28.5 164.5t-72 134.5t-93.5 113t-93.5 99.5t-72 93.5t-28.5 96q0 25 9.5 48t30 41
t53 28.5t77.5 10.5q58 0 109.5 -14.5t97.5 -38.5t86 -56t75 -67l-50 -70q-24 21 -51.5 46.5t-59 47.5t-67.5 37t-77 15q-42 0 -60 -14t-18 -31q0 -39 28.5 -83.5t71 -95.5t92 -109.5t92 -126t71 -144t28.5 -164.5zM738 484q0 30 -7.5 51t-19 34.5t-24 20t-22.5 6.5t-22.5 -5
t-24 -18t-19 -34.5t-7.5 -54.5q0 -64 19 -121.5t51 -106.5q34 54 55 112.5t21 115.5zM492 932q0 32 -24 54.5t-59 22.5t-60 -23t-25 -55t25 -55t60 -23t59 23.5t24 55.5z" />
    <glyph glyph-name="lo_seven" unicode="&#xed7;" horiz-adv-x="1225" 
d="M459 218q0 -68 -22 -113t-55 -72t-73 -38t-76 -11q-34 0 -65.5 12.5t-55.5 34t-38 50t-14 61.5t12.5 61.5t34.5 50t51.5 34t62.5 12.5q19 0 46 -5t42 -18v517q-15 -14 -42 -21.5t-46 -7.5q-33 0 -62.5 13t-51.5 35.5t-34.5 52.5t-12.5 65q0 33 14 61.5t38 50t55.5 34
t65.5 12.5q27 0 56.5 -6t57.5 -20.5t52 -38.5t39 -59q15 20 38.5 42t56.5 40t76.5 30t99.5 12q80 0 149 -18t119.5 -57t79 -100.5t28.5 -148.5v-1052h-150v1052q0 62 -22.5 104.5t-56.5 69t-73.5 38.5t-73.5 12q-42 0 -80.5 -11.5t-71 -33t-58 -52t-40.5 -67.5v-607z
M140 927q0 -17 6.5 -32t18 -26t26.5 -17.5t33 -6.5t33.5 6.5t27 17.5t18 26t6.5 32t-6.5 32t-18 26t-27 17.5t-33.5 6.5t-33 -6.5t-26.5 -17.5t-18 -26t-6.5 -32zM140 142q0 -32 24.5 -55t59.5 -23t60 23t25 55t-25 55t-60 23t-59.5 -23t-24.5 -55z" />
    <glyph glyph-name="lo_eight" unicode="&#xed8;" horiz-adv-x="1335" 
d="M1007 -64q37 0 71 -10t60 -30.5t41.5 -50.5t15.5 -69q0 -25 -9.5 -52.5t-30 -51t-53.5 -38.5t-80 -15q-75 0 -130 40t-78 118q-38 -25 -76 -53t-78.5 -51t-85 -38.5t-96.5 -15.5q-25 0 -47 7t-38.5 20t-26.5 32.5t-10 43.5q0 58 40.5 107.5t106.5 91.5t150 76.5t172 61.5
q18 70 47.5 135t57 138t47.5 162t20 207q0 49 -8 100.5t-26 93t-48.5 68t-75.5 26.5q-43 0 -77 -29t-62 -69.5t-50 -83.5t-40 -72q-22 33 -48.5 76.5t-55 83t-58 67t-59.5 27.5q-44 0 -77.5 -37t-56 -97t-34 -135.5t-11.5 -152.5q0 -100 8.5 -166t21.5 -109t28.5 -67.5
t28.5 -40.5q10 39 28.5 62t39 35t39.5 15.5t28 3.5q33 0 61 -11t48.5 -31t31.5 -47t11 -60q0 -36 -11 -67t-34.5 -53t-60 -34.5t-87.5 -12.5q-60 0 -119.5 37.5t-106.5 110t-76 180.5t-29 249q0 43 5.5 99.5t19 115t36.5 115t57.5 100.5t82 71t110.5 27q78 0 138.5 -45
t100.5 -129q32 54 63.5 88t63 53t64.5 26t69 7q56 0 98.5 -19t73.5 -50.5t51 -72.5t32 -84t17 -85t5 -77q0 -90 -18.5 -170t-45.5 -153.5t-58 -141.5t-55 -134q49 13 94 24t83 20l35 -73q-53 -8 -113.5 -20t-123.5 -29q-13 -48 -18 -97q37 9 80 9zM461 -246q0 -15 6 -24.5
t14.5 -15t16.5 -7t13 -1.5q37 0 72 16.5t69.5 41t70.5 53.5t77 55v13q0 25 2 49.5t6 48.5q-70 -24 -133 -51t-110.5 -56.5t-75.5 -60t-28 -61.5zM502 142q0 32 -21.5 55t-56.5 23t-56.5 -23.5t-21.5 -55.5t21.5 -54.5t56.5 -22.5t56.5 23t21.5 55zM1019 -294q11 0 22.5 3.5
t21.5 11.5t16 20.5t6 30.5q0 37 -24.5 55.5t-54.5 18.5q-21 0 -40.5 -3.5t-38.5 -8.5q6 -57 27.5 -92.5t64.5 -35.5z" />
    <glyph glyph-name="lo_nine" unicode="&#xed9;" horiz-adv-x="1324" 
d="M379 142q0 32 -24.5 55t-59.5 23t-60 -23t-25 -55t25 -55t60 -23t59.5 23t24.5 55zM422 989q-42 0 -80.5 -20t-67.5 -57t-46.5 -90.5t-17.5 -120.5v-430q17 16 43 22.5t45 6.5q33 0 62.5 -12.5t51.5 -34t34.5 -50t12.5 -61.5t-14 -61.5t-38 -50t-55.5 -34t-65.5 -12.5
q-36 0 -76 11t-73 38t-55 72t-22 113v485q0 80 26.5 150t75.5 122.5t119 83t157 30.5q70 0 127.5 -25t98.5 -71t63 -111t22 -145q0 -39 -6.5 -76t-14 -80t-13.5 -95t-6 -121q0 -145 38.5 -213t120.5 -68q166 0 166 338v651h150v-651q0 -87 -15 -166.5t-50.5 -140t-95 -96
t-148.5 -35.5q-96 0 -157.5 31.5t-97 84t-48.5 121t-13 141.5q0 38 6 72.5t13.5 76.5t14 95.5t6.5 129.5q0 66 -14.5 113.5t-39.5 78.5t-57 46t-66 15z" />
    <glyph glyph-name="lo_ho_no" unicode="&#xedc;" horiz-adv-x="1819" 
d="M1243 252v-4q31 -75 72 -119.5t86 -44.5q26 0 47.5 9t37.5 33.5t24.5 68.5t8.5 113v765h160v-765q0 -87 -17 -148.5t-49.5 -100.5t-79 -57t-106.5 -18q-45 0 -79.5 12.5t-60 31.5t-43 41.5t-29.5 42.5q-21 -44 -53.5 -69.5t-70.5 -38.5t-78.5 -16.5t-78.5 -3.5v100
q18 0 45 2t52.5 15t43.5 41t18 79v584q0 63 -14 99.5t-34.5 55.5t-43.5 24t-40 5q-23 0 -46 -10.5t-41 -33t-29.5 -57t-11.5 -82.5v-475q0 -93 -29 -158.5t-78 -107.5t-115 -61.5t-139 -19.5q-92 0 -161.5 26.5t-116.5 73t-70.5 109.5t-23.5 135q0 83 24.5 144.5t56.5 112
t63 96t45 97.5q-32 -15 -68 -15q-33 0 -62.5 13t-51.5 35.5t-34.5 52t-12.5 62.5t14 62.5t38 52t55.5 35.5t65.5 13q36 0 72 -10.5t65.5 -35.5t47.5 -65t18 -99q0 -51 -14 -92t-34.5 -78.5t-44.5 -75t-44.5 -82t-34.5 -98.5t-14 -125q0 -45 14 -89t43 -78.5t72.5 -55.5
t103.5 -21q27 0 61.5 10t65 35t52 66.5t21.5 103.5v476q-8 -2 -20 -2h-19q-32 0 -59.5 11t-47.5 31.5t-31.5 48.5t-11.5 62q0 37 13.5 67t37 51.5t54 33t64.5 11.5q44 0 82 -15t64 -56q27 30 67.5 50.5t103.5 20.5q67 0 116.5 -23.5t82 -65.5t48.5 -98.5t16 -122.5v-527z
M140 926q0 -16 6.5 -31t18 -26.5t26.5 -18.5t33 -7t33.5 7t27 18.5t18 26.5t6.5 31t-6.5 31t-18 26.5t-27 18.5t-33.5 7t-33 -7t-26.5 -18.5t-18 -26.5t-6.5 -31zM574 927q0 -17 6.5 -32t18 -26t26.5 -17.5t33 -6.5t33.5 6.5t27 17.5t18 26t6.5 32t-6.5 32t-18 26t-27 17.5
t-33.5 6.5t-33 -6.5t-26.5 -17.5t-18 -26t-6.5 -32z" />
    <glyph glyph-name="lo_ho_mo" unicode="&#xedd;" horiz-adv-x="1849" 
d="M1292 218v-13q27 -56 64 -88.5t75 -32.5q26 0 49 10.5t40.5 36t28 66.5t10.5 103v773h150v-765q0 -87 -17 -148.5t-49.5 -100.5t-79 -57t-106.5 -18q-39 0 -68 9t-51 23.5t-38.5 33t-28.5 37.5q-17 -29 -40 -49t-49 -32t-53.5 -17t-52.5 -5q-34 0 -65.5 12.5t-55.5 34
t-38 50t-14 61.5q0 34 12.5 64.5t34.5 53t51.5 35.5t62.5 13q19 0 40.5 -3t37.5 -11v520q0 56 -17 90.5t-41 53t-49 25t-41 6.5q-25 0 -53 -8.5t-52 -28.5t-40 -54.5t-16 -85.5v-481q0 -93 -29 -158.5t-78 -107.5t-115 -61.5t-139 -19.5q-92 0 -161.5 26.5t-116.5 73
t-70.5 109.5t-23.5 135q0 83 24.5 144.5t56.5 112t63 96t45 97.5q-32 -15 -68 -15q-33 0 -62.5 13t-51.5 35.5t-34.5 52t-12.5 62.5t14 62.5t38 52t55.5 35.5t65.5 13q36 0 72 -10.5t65.5 -35.5t47.5 -65t18 -99q0 -51 -14 -90.5t-34.5 -75t-44.5 -71.5t-44.5 -80
t-34.5 -100.5t-14 -133.5q0 -47 14 -91t43 -78t72.5 -54.5t103.5 -20.5q27 0 61.5 7.5t65 31t52 65.5t21.5 111v476q-8 -2 -20 -2h-19q-32 0 -59.5 11t-47.5 31.5t-31.5 48.5t-11.5 62q0 37 13.5 67t37 51.5t54 33t64.5 11.5q44 0 82 -15t64 -56q13 15 34.5 28t48 22.5
t57 15t61.5 5.5q67 0 119.5 -20.5t88.5 -57.5t55 -89.5t19 -115.5v-588zM140 926q0 -16 6.5 -31t18 -26.5t26.5 -18.5t33 -7t33.5 7t27 18.5t18 26.5t6.5 31t-6.5 31t-18 26.5t-27 18.5t-33.5 7t-33 -7t-26.5 -18.5t-18 -26.5t-6.5 -31zM574 927q0 -17 6.5 -32t18 -26
t26.5 -17.5t33 -6.5t33.5 6.5t27 17.5t18 26t6.5 32t-6.5 32t-18 26t-27 17.5t-33.5 6.5t-33 -6.5t-26.5 -17.5t-18 -26t-6.5 -32zM983 146q0 -17 6.5 -32t18 -26t26.5 -17.5t33 -6.5t33.5 6.5t27 17.5t18 26t6.5 32t-6.5 32t-18 26t-27 17.5t-33.5 6.5t-33 -6.5
t-26.5 -17.5t-18 -26t-6.5 -32z" />
    <glyph glyph-name="uni200B" unicode="&#x200b;" 
 />
    <glyph glyph-name="ZWJ" unicode="&#x200d;" 
 />
    <glyph glyph-name="endash" unicode="&#x2013;" horiz-adv-x="975" 
d="M927 496h-874l-6 98h873z" />
    <glyph glyph-name="emdash" unicode="&#x2014;" horiz-adv-x="1579" 
d="M1529 496h-1474l-8 100h1474z" />
    <glyph glyph-name="quoteleft" unicode="&#x2018;" horiz-adv-x="457" 
d="M385 1375q-46 -13 -85.5 -36t-69 -53.5t-46.5 -65.5t-17 -72q0 -22 9 -38.5t21 -16.5q13 0 21.5 5t17.5 11t20.5 11t30.5 5q20 0 37.5 -8.5t31 -23.5t21.5 -36t8 -45q0 -26 -11 -48t-29.5 -38t-43 -25.5t-52.5 -9.5q-37 0 -69 16.5t-56 45t-38 66t-14 80.5q0 68 25.5 125
t68 99.5t99.5 68t120 29.5v-46z" />
    <glyph glyph-name="quoteright" unicode="&#x2019;" horiz-adv-x="457" 
d="M72 937q45 13 85 36t70 53.5t47 65.5t17 72q0 22 -9 38.5t-23 16.5q-12 0 -20 -5t-17 -11t-20.5 -11t-30.5 -5q-20 0 -38 8.5t-31.5 24t-21.5 36t-8 44.5q0 26 10.5 48.5t29.5 38.5t43.5 25t53.5 9q37 0 69 -16.5t56 -45t37.5 -66t13.5 -80.5q0 -68 -25.5 -125t-68 -99.5
t-99.5 -68t-120 -29.5v46z" />
    <glyph glyph-name="quotedblleft" unicode="&#x201c;" horiz-adv-x="817" 
d="M385 1375q-46 -13 -85.5 -36t-69 -53.5t-46.5 -65.5t-17 -72q0 -22 9 -38.5t21 -16.5q13 0 21.5 5t17.5 11t20.5 11t30.5 5q20 0 37.5 -8.5t31 -23.5t21.5 -36t8 -45q0 -26 -11 -48t-29.5 -38t-43 -25.5t-52.5 -9.5q-37 0 -69 16.5t-56 45t-38 66t-14 80.5q0 68 25.5 125
t68 99.5t99.5 68t120 29.5v-46zM746 1375q-45 -13 -85 -36t-69 -53.5t-46 -65.5t-17 -72q0 -22 8.5 -38.5t21.5 -16.5t21.5 5t17 11t20 11t30.5 5q20 0 37.5 -8.5t31 -23.5t21.5 -36t8 -45q0 -26 -10.5 -48t-29 -38t-43.5 -25.5t-53 -9.5q-37 0 -69 16.5t-56 45t-38 66
t-14 80.5q0 68 25.5 125t68.5 99.5t99.5 68t119.5 29.5v-46z" />
    <glyph glyph-name="quotedblright" unicode="&#x201d;" horiz-adv-x="817" 
d="M72 937q45 13 85 36t70 53.5t47 65.5t17 72q0 22 -9 38.5t-23 16.5q-12 0 -20 -5t-17 -11t-20.5 -11t-30.5 -5q-20 0 -38 8.5t-31.5 24t-21.5 36t-8 44.5q0 26 10.5 48.5t29.5 38.5t43.5 25t53.5 9q37 0 69 -16.5t56 -45t37.5 -66t13.5 -80.5q0 -68 -25.5 -125t-68 -99.5
t-99.5 -68t-120 -29.5v46zM433 937q46 13 86 36t69.5 53.5t46.5 65.5t17 72q0 22 -8.5 38.5t-22.5 16.5q-12 0 -20 -5t-17 -11t-20.5 -11t-30.5 -5q-21 0 -39 8.5t-31.5 24t-21.5 36t-8 44.5q0 26 11 48.5t29.5 38.5t43.5 25t54 9q37 0 69 -16.5t55.5 -45t37 -66t13.5 -80.5
q0 -68 -25 -125t-68 -99.5t-100 -68t-120 -29.5v46z" />
    <glyph glyph-name="bullet" unicode="&#x2022;" horiz-adv-x="702" 
d="M72 485q0 58 22 108.5t60 88.5t89 60t109 22t108.5 -22t88.5 -60t60 -88.5t22 -108.5q0 -57 -22 -107.5t-60 -88t-88.5 -59t-108.5 -21.5t-109 21.5t-89 59t-60 88t-22 107.5z" />
    <glyph glyph-name="uni2219" unicode="&#x2219;" horiz-adv-x="492" 
d="M245 753q22 0 42 -8.5t34.5 -22.5t23 -33.5t8.5 -41.5t-8.5 -41t-23 -33.5t-34.5 -23t-42 -8.5q-23 0 -43 8.5t-35 23t-23.5 33.5t-8.5 41t8.5 41.5t23.5 33.5t35 22.5t43 8.5z" />
    <glyph glyph-name="uni25CC" unicode="&#x25cc;" horiz-adv-x="1219" 
d="M257 889q0 29 20 51t53 22q30 0 49.5 -22t19.5 -51q0 -34 -19.5 -52.5t-49.5 -18.5q-33 0 -53 18.5t-20 52.5zM109 680q0 34 19 52.5t52 18.5q27 0 48 -18.5t21 -52.5q0 -33 -21 -52t-48 -19q-33 0 -52 19t-19 52zM80 440q0 34 20 52.5t51 18.5t52 -18.5t21 -52.5
q0 -29 -21 -49t-52 -20t-51 20t-20 49zM180 221q0 33 20 52t49 19t50 -19t21 -52q0 -31 -21 -51t-50 -20t-49 20t-20 51zM368 79q0 32 21 50.5t54 18.5q27 0 47 -18.5t20 -50.5q0 -33 -20 -52t-47 -19q-33 0 -54 19t-21 52zM612 50q0 29 19 50t50 21q33 0 52 -21t19 -50
q0 -33 -19 -53t-52 -20q-31 0 -50 20t-19 53zM839 148q0 33 19 53t50 20q34 0 52.5 -20t18.5 -53q0 -29 -18.5 -49t-52.5 -20q-31 0 -50 20t-19 49zM975 334q0 33 21 52t50 19q31 0 51 -19t20 -52q0 -29 -20 -50t-51 -21q-29 0 -50 21t-21 50zM996 588q0 34 20 52.5t49 18.5
q33 0 53 -18.5t20 -52.5q0 -33 -20 -52t-53 -19q-29 0 -49 19t-20 52zM902 816q0 25 20 48t51 23q27 0 49 -23t22 -48q0 -34 -22 -54.5t-49 -20.5q-31 0 -51 20.5t-20 54.5zM721 941q0 29 20.5 50t54.5 21q29 0 47.5 -21t18.5 -50q0 -31 -18.5 -51t-47.5 -20q-34 0 -54.5 20
t-20.5 51zM485 968q0 31 18.5 51t52.5 20q31 0 50 -20t19 -51t-19 -52t-50 -21q-34 0 -52.5 21t-18.5 52z" />
    <glyph glyph-name="ZWNJ" 
 />
    <glyph glyph-name="lo_vs_am.comb" horiz-adv-x="970" 
d="M-699 1555q0 -35 25 -60t60 -25t60 25t25 60t-25 60t-60 25t-60 -25t-25 -60zM-799 1555q0 38 14.5 72t39.5 59t59 39.5t72 14.5t72 -14.5t59 -39.5t39.5 -59t14.5 -72t-14.5 -72t-39.5 -59t-59 -39.5t-72 -14.5t-72 14.5t-59 39.5t-39.5 59t-14.5 72zM680 0v693
q0 65 -18.5 119.5t-54 93.5t-86.5 61t-117 22q-40 0 -79.5 -9t-73.5 -30.5t-60 -58t-38 -90.5q24 26 60.5 45t76.5 19q38 0 67.5 -13t50 -35.5t31.5 -52.5t11 -64q0 -37 -14 -69.5t-39 -57t-60 -38.5t-77 -14q-64 0 -106.5 27t-67.5 65.5t-35.5 81.5t-10.5 75q0 77 31 136.5
t82.5 100t119 61.5t139.5 21q94 0 171 -24t132 -72.5t85 -123t30 -175.5v-694h-150zM200 700q0 -35 25 -60t60 -25t60 25t25 60t-25 60t-60 25t-60 -25t-25 -60z" />
    <glyph glyph-name="lo_vs_i.comb" 
d="M-614 1598q-83 0 -139.5 -19t-91.5 -48t-50 -63.5t-15 -65.5q0 -29 14.5 -59.5t52.5 -66.5l-112 -75q-16 17 -32.5 36.5t-30 43t-22 50.5t-8.5 59q0 67 34 123t92.5 96t137.5 62t170 22t170 -22t137.5 -62t92.5 -96t34 -123q0 -32 -8.5 -59t-22 -50.5t-30 -43
t-32.5 -36.5l-112 75q38 36 52.5 66.5t14.5 59.5q0 31 -15.5 65.5t-50.5 63.5t-91.5 48t-138.5 19z" />
    <glyph glyph-name="lo_vs_ii.comb" 
d="M-614 1598q-83 0 -139.5 -19t-91.5 -48t-50 -63.5t-15 -65.5q0 -29 14.5 -59.5t52.5 -66.5l-112 -75q-16 17 -32.5 36.5t-30 43t-22 50.5t-8.5 59q0 67 34 123t92.5 96t137.5 62t170 22t170 -22t137.5 -62t92.5 -96t34 -123q0 -29 -6.5 -53t-17.5 -45q57 5 109.5 16
t103.5 32l18 -87q-35 -20 -76 -30.5t-82 -15t-78 -5.5t-64 -1l-112 75q38 36 52.5 66.5t14.5 59.5q0 31 -15.5 65.5t-50.5 63.5t-91.5 48t-138.5 19z" />
    <glyph glyph-name="lo_vs_y.comb" 
d="M-707 1362q0 -18 7.5 -34t20 -28t29.5 -18.5t36 -6.5t36 6.5t29.5 18.5t20 28t7.5 34t-7.5 34t-20 28t-29.5 19t-36 7t-36 -7t-29.5 -19t-20 -28t-7.5 -34zM-614 1598q-83 0 -139.5 -19t-91.5 -48t-50 -63.5t-15 -65.5q0 -29 14.5 -59.5t52.5 -66.5l-112 -75
q-16 17 -32.5 36.5t-30 43t-22 50.5t-8.5 59q0 67 34 123t92.5 96t137.5 62t170 22t170 -22t137.5 -62t92.5 -96t34 -123q0 -32 -8.5 -59t-22 -50.5t-30 -43t-32.5 -36.5l-112 75q38 36 52.5 66.5t14.5 59.5q0 31 -15.5 65.5t-50.5 63.5t-91.5 48t-138.5 19z" />
    <glyph glyph-name="lo_vs_yy.comb" 
d="M-707 1362q0 -18 7.5 -34t20 -28t29.5 -18.5t36 -6.5t36 6.5t29.5 18.5t20 28t7.5 34t-7.5 34t-20 28t-29.5 19t-36 7t-36 -7t-29.5 -19t-20 -28t-7.5 -34zM-614 1598q-83 0 -139.5 -19t-91.5 -48t-50 -63.5t-15 -65.5q0 -29 14.5 -59.5t52.5 -66.5l-112 -75
q-16 17 -32.5 36.5t-30 43t-22 50.5t-8.5 59q0 67 34 123t92.5 96t137.5 62t170 22t170 -22t137.5 -62t92.5 -96t34 -123q0 -29 -6.5 -53t-17.5 -45q57 5 109.5 16t103.5 32l18 -87q-35 -20 -76 -30.5t-82 -15t-78 -5.5t-64 -1l-112 75q38 36 52.5 66.5t14.5 59.5
q0 31 -15.5 65.5t-50.5 63.5t-91.5 48t-138.5 19z" />
    <glyph glyph-name="lo_vs_u.comb" 
d="M-647 -356q0 -29 22 -49.5t52 -20.5t51.5 20.5t21.5 49.5t-21.5 49t-51.5 20t-52 -20t-22 -49zM-441 -426q-23 -39 -52.5 -59.5t-74.5 -20.5q-33 0 -62 11t-50.5 30.5t-34 45.5t-12.5 57t13 60t38 51.5t62 36.5t85 14q52 0 93.5 -21t70.5 -55.5t44.5 -78.5t15.5 -90
q0 -51 -14 -95t-36 -82t-49 -69t-52 -54t-46 -38.5t-31 -22.5l-65 78q92 70 129.5 132.5t37.5 114.5q0 31 -10 55z" />
    <glyph glyph-name="lo_vs_uu.comb" 
d="M-823 -356q0 -29 22 -49.5t52 -20.5t51.5 20.5t21.5 49.5t-21.5 49t-51.5 20t-52 -20t-22 -49zM-491 -558q0 -80 19.5 -113.5t56.5 -33.5q9 0 21 4.5t23 20t18.5 44.5t7.5 78v358h145v-333q0 -53 -9.5 -102t-34 -86.5t-66 -60.5t-105.5 -23t-106 25t-66.5 64t-34 87
t-9.5 95v91q-12 -34 -42.5 -53.5t-75.5 -19.5q-33 0 -62 10.5t-50.5 30t-34 46.5t-12.5 60q0 34 13 64.5t38 54t62 37t85 13.5q52 0 92.5 -18.5t68.5 -49.5t43 -71t15 -83v-136z" />
    <glyph glyph-name="lo_vs_mai_kan.comb" 
d="M-881 1693q44 0 79.5 -12.5t60.5 -34.5t38.5 -52t13.5 -65q0 -73 -43.5 -114.5t-113.5 -47.5q60 -23 121 -33.5t112 -10.5q82 0 138.5 18.5t91 46.5t50 61.5t15.5 64.5q0 29 -14.5 59.5t-52.5 66.5l112 75q16 -17 32.5 -36.5t30 -43t22 -50.5t8.5 -59q0 -68 -34 -123.5
t-92.5 -95.5t-137.5 -62t-170 -22q-84 0 -164.5 18.5t-144.5 54.5t-103 88.5t-39 120.5q0 40 14.5 74.5t39 60t58 39.5t72.5 14zM-945 1528q0 -35 25 -60t60 -25t60 25t25 60t-25 60t-60 25t-60 -25t-25 -60z" />
    <glyph glyph-name="lo_vs_mai_kon.comb" 
d="M-946 1436q0 -35 25 -60t60 -25t60 25t25 60t-25 60t-60 25t-60 -25t-25 -60zM-881 1271q-39 0 -72.5 14t-58 39.5t-39 59.5t-14.5 75q0 67 39 119.5t103 88.5t144.5 55t164.5 19q91 0 170 -22t137.5 -62t92.5 -96t34 -123q0 -32 -8.5 -59t-22 -50.5t-30 -43t-32.5 -36.5
l-112 75q38 36 52.5 66.5t14.5 59.5q0 31 -15.5 64.5t-50 61.5t-91 46.5t-138.5 18.5q-51 0 -112 -10.5t-121 -33.5q70 -6 113.5 -47.5t43.5 -114.5q0 -35 -13.5 -65t-38.5 -52t-60.5 -34.5t-79.5 -12.5z" />
    <glyph glyph-name="lo_vs_lo.comb" 
d="M-134 -158q-65 -117 -142 -170t-153 -53q-57 0 -100.5 21.5t-80 50.5t-69.5 60t-69 49q8 -15 11.5 -31t3.5 -27q0 -31 -15 -55t-39 -40.5t-53.5 -25t-58.5 -8.5q-37 0 -68.5 11.5t-54 32t-35.5 49t-13 62.5q0 31 11 59t33 49t54.5 33.5t75.5 12.5q50 0 91.5 -14.5
t78.5 -35.5t71 -46.5t68.5 -46.5t71.5 -35.5t80 -14.5t73.5 14t53.5 37.5t41 55t37 67.5zM-944 -233q0 -28 20 -48t52 -20q13 0 25.5 5.5t22 14.5t15 21.5t5.5 26.5q0 27 -18.5 49t-49.5 22q-32 0 -52 -21t-20 -50z" />
    <glyph glyph-name="lo_niggahita.comb" 
d="M-699 1555q0 -35 25 -60t60 -25t60 25t25 60t-25 60t-60 25t-60 -25t-25 -60zM-799 1555q0 38 14.5 72t39.5 59t59 39.5t72 14.5t72 -14.5t59 -39.5t39.5 -59t14.5 -72t-14.5 -72t-39.5 -59t-59 -39.5t-72 -14.5t-72 14.5t-59 39.5t-39.5 59t-14.5 72z" />
    <glyph glyph-name="lo_tone_mai_ek.comb" 
d="M-665 1290l-35 450h173l-37 -450h-101z" />
    <glyph glyph-name="lo_tone_mai_tho.comb" 
d="M-1016 1335q25 13 52.5 32.5t52.5 45t44 56t27 65.5q-24 -16 -43 -21t-41 -5q-23 0 -43.5 7.5t-36 21.5t-24.5 33t-9 42q0 18 8 40.5t27.5 42t52 32.5t82.5 13q23 0 55.5 -6t62.5 -23t51.5 -46.5t21.5 -75.5q0 -33 -15 -61.5t-37 -52t-47 -41t-46 -27.5q11 -4 31 -8.5
t50 -4.5q32 0 71.5 5t82 17t85 32.5t80.5 52t69.5 75t51.5 102.5l160 -58q-28 -59 -77.5 -118t-122 -106t-168 -76.5t-216.5 -29.5q-66 0 -138 11.5t-154 33.5zM-959 1622q0 -23 17.5 -39t42.5 -16t42 16t17 39t-17 39.5t-42 16.5t-42.5 -16.5t-17.5 -39.5z" />
    <glyph glyph-name="lo_tone_mai_ti.comb" 
d="M-657 1408q0 23 -17.5 39t-42.5 16t-42 -16t-17 -39t17 -39.5t42 -16.5t42.5 16.5t17.5 39.5zM-135 1354v-64h-338v76q22 1 45 14.5t42 35t31.5 50.5t12.5 62q0 57 -22 89.5t-69 32.5q-28 0 -49.5 -11t-41.5 -24.5t-41.5 -26t-48.5 -16.5q-27 2 -48 14.5t-40.5 26.5
t-40 25.5t-48.5 11.5q-21 0 -40 -10.5t-32.5 -28.5t-21.5 -42.5t-8 -51.5q0 -35 5 -59.5t15 -42t25.5 -29t36.5 -19.5q-10 24 -10 48q0 48 36.5 77.5t92.5 29.5q23 0 43.5 -7.5t36 -21.5t24.5 -33t9 -42q0 -18 -8 -40.5t-30.5 -42t-63 -32.5t-106.5 -13q-52 0 -98.5 18
t-81.5 49t-55.5 72t-20.5 88q0 58 19.5 100t52 69.5t75.5 40.5t90 13q36 0 62.5 -12.5t48 -27.5t40.5 -27.5t41 -12.5t44 12.5t45.5 27.5t50 27.5t58.5 12.5q54 0 95.5 -17t70 -45.5t43.5 -66t15 -78.5q0 -34 -12.5 -62t-30.5 -50.5t-37.5 -39t-33.5 -27.5h171z" />
    <glyph glyph-name="lo_tone_mai_catawa.comb" 
d="M-664 1601v139h100v-139h139v-100h-139v-139h-100v139h-139v100h139z" />
    <glyph glyph-name="lo_vs_am.25CC" horiz-adv-x="2083" 
d="M1773 0v693q0 61 -15.5 114.5t-47 94t-79.5 64t-114 23.5q-40 0 -79 -11t-72.5 -33.5t-59.5 -58.5t-40 -85q24 26 60.5 45t76.5 19q38 0 67.5 -13t50 -35.5t31.5 -52.5t11 -64q0 -37 -14 -69.5t-39 -57t-60 -38.5t-77 -14q-64 0 -108 23t-71 58t-39 78t-12 82
q0 81 32.5 142t86 102t122.5 62t141 21q94 0 171 -24t132 -72.5t85 -123t30 -175.5v-694h-170zM1313 700q0 -35 25 -60t60 -25t60 25t25 60t-25 60t-60 25t-60 -25t-25 -60zM481 1556q0 -35 25 -60t60 -25t60 25t25 60t-25 60t-60 25t-60 -25t-25 -60zM381 1556
q0 38 14.5 72t39.5 59t59 39.5t72 14.5t72 -14.5t59 -39.5t39.5 -59t14.5 -72t-14.5 -72t-39.5 -59t-59 -39.5t-72 -14.5t-72 14.5t-59 39.5t-39.5 59t-14.5 72zM253 889q0 29 20 51t53 22q30 0 49.5 -22t19.5 -51q0 -34 -19.5 -52.5t-49.5 -18.5q-33 0 -53 18.5t-20 52.5z
M105 680q0 34 19 52.5t52 18.5q27 0 48 -18.5t21 -52.5q0 -33 -21 -52t-48 -19q-33 0 -52 19t-19 52zM76 440q0 34 20 52.5t51 18.5t52 -18.5t21 -52.5q0 -29 -21 -49t-52 -20t-51 20t-20 49zM176 221q0 33 20 52t49 19t50 -19t21 -52q0 -31 -21 -51t-50 -20t-49 20t-20 51z
M364 79q0 32 21 50.5t54 18.5q27 0 47 -18.5t20 -50.5q0 -33 -20 -52t-47 -19q-33 0 -54 19t-21 52zM608 50q0 29 19 50t50 21q33 0 52 -21t19 -50q0 -33 -19 -53t-52 -20q-31 0 -50 20t-19 53zM835 148q0 33 19 53t50 20q34 0 52.5 -20t18.5 -53q0 -29 -18.5 -49t-52.5 -20
q-31 0 -50 20t-19 49zM971 334q0 33 21 52t50 19q31 0 51 -19t20 -52q0 -29 -20 -50t-51 -21q-29 0 -50 21t-21 50zM992 588q0 34 20 52.5t49 18.5q33 0 53 -18.5t20 -52.5q0 -33 -20 -52t-53 -19q-29 0 -49 19t-20 52zM898 816q0 25 20 48t51 23q27 0 49 -23t22 -48
q0 -34 -22 -54.5t-49 -20.5q-31 0 -51 20.5t-20 54.5zM717 941q0 29 20.5 50t54.5 21q29 0 47.5 -21t18.5 -50q0 -31 -18.5 -51t-47.5 -20q-34 0 -54.5 20t-20.5 51zM481 968q0 31 18.5 51t52.5 20q31 0 50 -20t19 -51t-19 -52t-50 -21q-34 0 -52.5 21t-18.5 52z" />
    <glyph glyph-name="lo_vs_i.25CC" horiz-adv-x="1213" 
d="M570 1598q-83 0 -139.5 -19t-91.5 -48t-50 -63.5t-15 -65.5q0 -29 14.5 -59.5t52.5 -66.5l-112 -75q-16 17 -32.5 36.5t-30 43t-22 50.5t-8.5 59q0 67 34 123t92.5 96t137.5 62t170 22t170 -22t137.5 -62t92.5 -96t34 -123q0 -32 -8.5 -59t-22 -50.5t-30 -43t-32.5 -36.5
l-112 75q38 36 52.5 66.5t14.5 59.5q0 31 -15.5 65.5t-50.5 63.5t-91.5 48t-138.5 19zM253 889q0 29 20 51t53 22q30 0 49.5 -22t19.5 -51q0 -34 -19.5 -52.5t-49.5 -18.5q-33 0 -53 18.5t-20 52.5zM105 680q0 34 19 52.5t52 18.5q27 0 48 -18.5t21 -52.5q0 -33 -21 -52
t-48 -19q-33 0 -52 19t-19 52zM76 440q0 34 20 52.5t51 18.5t52 -18.5t21 -52.5q0 -29 -21 -49t-52 -20t-51 20t-20 49zM176 221q0 33 20 52t49 19t50 -19t21 -52q0 -31 -21 -51t-50 -20t-49 20t-20 51zM364 79q0 32 21 50.5t54 18.5q27 0 47 -18.5t20 -50.5q0 -33 -20 -52
t-47 -19q-33 0 -54 19t-21 52zM608 50q0 29 19 50t50 21q33 0 52 -21t19 -50q0 -33 -19 -53t-52 -20q-31 0 -50 20t-19 53zM835 148q0 33 19 53t50 20q34 0 52.5 -20t18.5 -53q0 -29 -18.5 -49t-52.5 -20q-31 0 -50 20t-19 49zM971 334q0 33 21 52t50 19q31 0 51 -19t20 -52
q0 -29 -20 -50t-51 -21q-29 0 -50 21t-21 50zM992 588q0 34 20 52.5t49 18.5q33 0 53 -18.5t20 -52.5q0 -33 -20 -52t-53 -19q-29 0 -49 19t-20 52zM898 816q0 25 20 48t51 23q27 0 49 -23t22 -48q0 -34 -22 -54.5t-49 -20.5q-31 0 -51 20.5t-20 54.5zM717 941q0 29 20.5 50
t54.5 21q29 0 47.5 -21t18.5 -50q0 -31 -18.5 -51t-47.5 -20q-34 0 -54.5 20t-20.5 51zM481 968q0 31 18.5 51t52.5 20q31 0 50 -20t19 -51t-19 -52t-50 -21q-34 0 -52.5 21t-18.5 52z" />
    <glyph glyph-name="lo_tone_mai_catawa.25CC" horiz-adv-x="1213" 
d="M514 1601v139h100v-139h139v-100h-139v-139h-100v139h-139v100h139zM253 889q0 29 20 51t53 22q30 0 49.5 -22t19.5 -51q0 -34 -19.5 -52.5t-49.5 -18.5q-33 0 -53 18.5t-20 52.5zM105 680q0 34 19 52.5t52 18.5q27 0 48 -18.5t21 -52.5q0 -33 -21 -52t-48 -19
q-33 0 -52 19t-19 52zM76 440q0 34 20 52.5t51 18.5t52 -18.5t21 -52.5q0 -29 -21 -49t-52 -20t-51 20t-20 49zM176 221q0 33 20 52t49 19t50 -19t21 -52q0 -31 -21 -51t-50 -20t-49 20t-20 51zM364 79q0 32 21 50.5t54 18.5q27 0 47 -18.5t20 -50.5q0 -33 -20 -52t-47 -19
q-33 0 -54 19t-21 52zM608 50q0 29 19 50t50 21q33 0 52 -21t19 -50q0 -33 -19 -53t-52 -20q-31 0 -50 20t-19 53zM835 148q0 33 19 53t50 20q34 0 52.5 -20t18.5 -53q0 -29 -18.5 -49t-52.5 -20q-31 0 -50 20t-19 49zM971 334q0 33 21 52t50 19q31 0 51 -19t20 -52
q0 -29 -20 -50t-51 -21q-29 0 -50 21t-21 50zM992 588q0 34 20 52.5t49 18.5q33 0 53 -18.5t20 -52.5q0 -33 -20 -52t-53 -19q-29 0 -49 19t-20 52zM898 816q0 25 20 48t51 23q27 0 49 -23t22 -48q0 -34 -22 -54.5t-49 -20.5q-31 0 -51 20.5t-20 54.5zM717 941q0 29 20.5 50
t54.5 21q29 0 47.5 -21t18.5 -50q0 -31 -18.5 -51t-47.5 -20q-34 0 -54.5 20t-20.5 51zM481 968q0 31 18.5 51t52.5 20q31 0 50 -20t19 -51t-19 -52t-50 -21q-34 0 -52.5 21t-18.5 52z" />
    <glyph glyph-name="lo_tone_mai_ti.25CC" horiz-adv-x="1213" 
d="M512 1408q0 23 -17.5 39t-42.5 16t-42 -16t-17 -39t17 -39.5t42 -16.5t42.5 16.5t17.5 39.5zM1034 1354v-64h-338v76q22 1 48 14.5t49 35t38.5 50.5t15.5 62q0 57 -32 89.5t-79 32.5q-28 0 -49.5 -11t-41.5 -24.5t-41.5 -26t-48.5 -16.5q-27 2 -48 14.5t-40.5 26.5
t-40 25.5t-48.5 11.5q-21 0 -43 -10.5t-40 -28.5t-29.5 -42.5t-11.5 -51.5q0 -35 8.5 -59.5t22.5 -42t33 -29t40 -19.5q-10 24 -10 48q0 48 36.5 77.5t92.5 29.5q23 0 43.5 -7.5t36 -21.5t24.5 -33t9 -42q0 -18 -8 -40.5t-30.5 -42t-63 -32.5t-106.5 -13q-52 0 -98.5 18
t-81.5 49t-55.5 72t-20.5 88q0 58 19.5 100t52 69.5t75.5 40.5t90 13q36 0 63 -12.5t49.5 -27.5t42 -27.5t41.5 -12.5t43.5 12.5t44 27.5t48.5 27.5t58 12.5q54 0 95.5 -17t70 -45.5t43.5 -66t15 -78.5q0 -34 -12.5 -62t-30.5 -50.5t-37.5 -39t-33.5 -27.5h171zM253 889
q0 29 20 51t53 22q30 0 49.5 -22t19.5 -51q0 -34 -19.5 -52.5t-49.5 -18.5q-33 0 -53 18.5t-20 52.5zM105 680q0 34 19 52.5t52 18.5q27 0 48 -18.5t21 -52.5q0 -33 -21 -52t-48 -19q-33 0 -52 19t-19 52zM76 440q0 34 20 52.5t51 18.5t52 -18.5t21 -52.5q0 -29 -21 -49
t-52 -20t-51 20t-20 49zM176 221q0 33 20 52t49 19t50 -19t21 -52q0 -31 -21 -51t-50 -20t-49 20t-20 51zM364 79q0 32 21 50.5t54 18.5q27 0 47 -18.5t20 -50.5q0 -33 -20 -52t-47 -19q-33 0 -54 19t-21 52zM608 50q0 29 19 50t50 21q33 0 52 -21t19 -50q0 -33 -19 -53
t-52 -20q-31 0 -50 20t-19 53zM835 148q0 33 19 53t50 20q34 0 52.5 -20t18.5 -53q0 -29 -18.5 -49t-52.5 -20q-31 0 -50 20t-19 49zM971 334q0 33 21 52t50 19q31 0 51 -19t20 -52q0 -29 -20 -50t-51 -21q-29 0 -50 21t-21 50zM992 588q0 34 20 52.5t49 18.5q33 0 53 -18.5
t20 -52.5q0 -33 -20 -52t-53 -19q-29 0 -49 19t-20 52zM898 816q0 25 20 48t51 23q27 0 49 -23t22 -48q0 -34 -22 -54.5t-49 -20.5q-31 0 -51 20.5t-20 54.5zM717 941q0 29 20.5 50t54.5 21q29 0 47.5 -21t18.5 -50q0 -31 -18.5 -51t-47.5 -20q-34 0 -54.5 20t-20.5 51z
M481 968q0 31 18.5 51t52.5 20q31 0 50 -20t19 -51t-19 -52t-50 -21q-34 0 -52.5 21t-18.5 52z" />
    <glyph glyph-name="lo_tone_mai_tho.25CC" horiz-adv-x="1213" 
d="M127 1335q25 13 52.5 32.5t52.5 45t44 56t27 65.5q-24 -16 -43 -21t-41 -5q-23 0 -43.5 7.5t-36 21.5t-24.5 33t-9 42q0 18 8 40.5t27.5 42t52 32.5t82.5 13q23 0 52.5 -6t56 -23t44.5 -46.5t18 -75.5q0 -33 -12 -61.5t-30 -52t-40 -41t-43 -27.5q11 -4 31 -8.5t50 -4.5
q32 0 73 4t85.5 15t89.5 30.5t85.5 49.5t73.5 73t53 102l140 -48q-28 -59 -77.5 -118t-122 -106t-168 -76.5t-216.5 -29.5q-66 0 -138 11.5t-154 33.5zM184 1622q0 -23 17.5 -39t42.5 -16t42 16t17 39t-17 39.5t-42 16.5t-42.5 -16.5t-17.5 -39.5zM253 889q0 29 20 51t53 22
q30 0 49.5 -22t19.5 -51q0 -34 -19.5 -52.5t-49.5 -18.5q-33 0 -53 18.5t-20 52.5zM105 680q0 34 19 52.5t52 18.5q27 0 48 -18.5t21 -52.5q0 -33 -21 -52t-48 -19q-33 0 -52 19t-19 52zM76 440q0 34 20 52.5t51 18.5t52 -18.5t21 -52.5q0 -29 -21 -49t-52 -20t-51 20
t-20 49zM176 221q0 33 20 52t49 19t50 -19t21 -52q0 -31 -21 -51t-50 -20t-49 20t-20 51zM364 79q0 32 21 50.5t54 18.5q27 0 47 -18.5t20 -50.5q0 -33 -20 -52t-47 -19q-33 0 -54 19t-21 52zM608 50q0 29 19 50t50 21q33 0 52 -21t19 -50q0 -33 -19 -53t-52 -20
q-31 0 -50 20t-19 53zM835 148q0 33 19 53t50 20q34 0 52.5 -20t18.5 -53q0 -29 -18.5 -49t-52.5 -20q-31 0 -50 20t-19 49zM971 334q0 33 21 52t50 19q31 0 51 -19t20 -52q0 -29 -20 -50t-51 -21q-29 0 -50 21t-21 50zM992 588q0 34 20 52.5t49 18.5q33 0 53 -18.5
t20 -52.5q0 -33 -20 -52t-53 -19q-29 0 -49 19t-20 52zM898 816q0 25 20 48t51 23q27 0 49 -23t22 -48q0 -34 -22 -54.5t-49 -20.5q-31 0 -51 20.5t-20 54.5zM717 941q0 29 20.5 50t54.5 21q29 0 47.5 -21t18.5 -50q0 -31 -18.5 -51t-47.5 -20q-34 0 -54.5 20t-20.5 51z
M481 968q0 31 18.5 51t52.5 20q31 0 50 -20t19 -51t-19 -52t-50 -21q-34 0 -52.5 21t-18.5 52z" />
    <glyph glyph-name="lo_tone_mai_ek.25CC" horiz-adv-x="1213" 
d="M510 1290l-35 450h173l-37 -450h-101zM253 889q0 29 20 51t53 22q30 0 49.5 -22t19.5 -51q0 -34 -19.5 -52.5t-49.5 -18.5q-33 0 -53 18.5t-20 52.5zM105 680q0 34 19 52.5t52 18.5q27 0 48 -18.5t21 -52.5q0 -33 -21 -52t-48 -19q-33 0 -52 19t-19 52zM76 440
q0 34 20 52.5t51 18.5t52 -18.5t21 -52.5q0 -29 -21 -49t-52 -20t-51 20t-20 49zM176 221q0 33 20 52t49 19t50 -19t21 -52q0 -31 -21 -51t-50 -20t-49 20t-20 51zM364 79q0 32 21 50.5t54 18.5q27 0 47 -18.5t20 -50.5q0 -33 -20 -52t-47 -19q-33 0 -54 19t-21 52zM608 50
q0 29 19 50t50 21q33 0 52 -21t19 -50q0 -33 -19 -53t-52 -20q-31 0 -50 20t-19 53zM835 148q0 33 19 53t50 20q34 0 52.5 -20t18.5 -53q0 -29 -18.5 -49t-52.5 -20q-31 0 -50 20t-19 49zM971 334q0 33 21 52t50 19q31 0 51 -19t20 -52q0 -29 -20 -50t-51 -21q-29 0 -50 21
t-21 50zM992 588q0 34 20 52.5t49 18.5q33 0 53 -18.5t20 -52.5q0 -33 -20 -52t-53 -19q-29 0 -49 19t-20 52zM898 816q0 25 20 48t51 23q27 0 49 -23t22 -48q0 -34 -22 -54.5t-49 -20.5q-31 0 -51 20.5t-20 54.5zM717 941q0 29 20.5 50t54.5 21q29 0 47.5 -21t18.5 -50
q0 -31 -18.5 -51t-47.5 -20q-34 0 -54.5 20t-20.5 51zM481 968q0 31 18.5 51t52.5 20q31 0 50 -20t19 -51t-19 -52t-50 -21q-34 0 -52.5 21t-18.5 52z" />
    <glyph glyph-name="lo_niggahita.25CC" horiz-adv-x="1213" 
d="M476 1555q0 -35 25 -60t60 -25t60 25t25 60t-25 60t-60 25t-60 -25t-25 -60zM376 1555q0 38 14.5 72t39.5 59t59 39.5t72 14.5t72 -14.5t59 -39.5t39.5 -59t14.5 -72t-14.5 -72t-39.5 -59t-59 -39.5t-72 -14.5t-72 14.5t-59 39.5t-39.5 59t-14.5 72zM253 889q0 29 20 51
t53 22q30 0 49.5 -22t19.5 -51q0 -34 -19.5 -52.5t-49.5 -18.5q-33 0 -53 18.5t-20 52.5zM105 680q0 34 19 52.5t52 18.5q27 0 48 -18.5t21 -52.5q0 -33 -21 -52t-48 -19q-33 0 -52 19t-19 52zM76 440q0 34 20 52.5t51 18.5t52 -18.5t21 -52.5q0 -29 -21 -49t-52 -20t-51 20
t-20 49zM176 221q0 33 20 52t49 19t50 -19t21 -52q0 -31 -21 -51t-50 -20t-49 20t-20 51zM364 79q0 32 21 50.5t54 18.5q27 0 47 -18.5t20 -50.5q0 -33 -20 -52t-47 -19q-33 0 -54 19t-21 52zM608 50q0 29 19 50t50 21q33 0 52 -21t19 -50q0 -33 -19 -53t-52 -20
q-31 0 -50 20t-19 53zM835 148q0 33 19 53t50 20q34 0 52.5 -20t18.5 -53q0 -29 -18.5 -49t-52.5 -20q-31 0 -50 20t-19 49zM971 334q0 33 21 52t50 19q31 0 51 -19t20 -52q0 -29 -20 -50t-51 -21q-29 0 -50 21t-21 50zM992 588q0 34 20 52.5t49 18.5q33 0 53 -18.5
t20 -52.5q0 -33 -20 -52t-53 -19q-29 0 -49 19t-20 52zM898 816q0 25 20 48t51 23q27 0 49 -23t22 -48q0 -34 -22 -54.5t-49 -20.5q-31 0 -51 20.5t-20 54.5zM717 941q0 29 20.5 50t54.5 21q29 0 47.5 -21t18.5 -50q0 -31 -18.5 -51t-47.5 -20q-34 0 -54.5 20t-20.5 51z
M481 968q0 31 18.5 51t52.5 20q31 0 50 -20t19 -51t-19 -52t-50 -21q-34 0 -52.5 21t-18.5 52z" />
    <glyph glyph-name="lo_vs_lo.25CC" horiz-adv-x="1213" 
d="M1042 -158q-65 -117 -142 -170t-153 -53q-57 0 -100.5 21.5t-80 50.5t-69.5 60t-69 49q8 -15 11.5 -31t3.5 -27q0 -31 -15 -55t-39 -40.5t-53.5 -25t-58.5 -8.5q-37 0 -68.5 11.5t-54 32t-35.5 49t-13 62.5q0 31 11 59t33 49t54.5 33.5t75.5 12.5q50 0 91.5 -14.5
t78.5 -35.5t71 -46.5t68.5 -46.5t71.5 -35.5t80 -14.5t73.5 14t53.5 37.5t41 55t37 67.5zM232 -233q0 -28 20 -48t52 -20q13 0 25.5 5.5t22 14.5t15 21.5t5.5 26.5q0 27 -18.5 49t-49.5 22q-32 0 -52 -21t-20 -50zM253 889q0 29 20 51t53 22q30 0 49.5 -22t19.5 -51
q0 -34 -19.5 -52.5t-49.5 -18.5q-33 0 -53 18.5t-20 52.5zM105 680q0 34 19 52.5t52 18.5q27 0 48 -18.5t21 -52.5q0 -33 -21 -52t-48 -19q-33 0 -52 19t-19 52zM76 440q0 34 20 52.5t51 18.5t52 -18.5t21 -52.5q0 -29 -21 -49t-52 -20t-51 20t-20 49zM176 221q0 33 20 52
t49 19t50 -19t21 -52q0 -31 -21 -51t-50 -20t-49 20t-20 51zM364 79q0 32 21 50.5t54 18.5q27 0 47 -18.5t20 -50.5q0 -33 -20 -52t-47 -19q-33 0 -54 19t-21 52zM608 50q0 29 19 50t50 21q33 0 52 -21t19 -50q0 -33 -19 -53t-52 -20q-31 0 -50 20t-19 53zM835 148
q0 33 19 53t50 20q34 0 52.5 -20t18.5 -53q0 -29 -18.5 -49t-52.5 -20q-31 0 -50 20t-19 49zM971 334q0 33 21 52t50 19q31 0 51 -19t20 -52q0 -29 -20 -50t-51 -21q-29 0 -50 21t-21 50zM992 588q0 34 20 52.5t49 18.5q33 0 53 -18.5t20 -52.5q0 -33 -20 -52t-53 -19
q-29 0 -49 19t-20 52zM898 816q0 25 20 48t51 23q27 0 49 -23t22 -48q0 -34 -22 -54.5t-49 -20.5q-31 0 -51 20.5t-20 54.5zM717 941q0 29 20.5 50t54.5 21q29 0 47.5 -21t18.5 -50q0 -31 -18.5 -51t-47.5 -20q-34 0 -54.5 20t-20.5 51zM481 968q0 31 18.5 51t52.5 20
q31 0 50 -20t19 -51t-19 -52t-50 -21q-34 0 -52.5 21t-18.5 52z" />
    <glyph glyph-name="lo_vs_mai_kon.25CC" horiz-adv-x="1213" 
d="M310 1270q-39 0 -72.5 14t-58 39.5t-39 59.5t-14.5 75q0 67 39 119.5t103 88.5t144.5 55t164.5 19q91 0 170 -22t137.5 -62t92.5 -96t34 -123q0 -32 -8.5 -59t-22 -50.5t-30 -43t-32.5 -36.5l-112 75q38 36 52.5 66.5t14.5 59.5q0 31 -15.5 64.5t-50 61.5t-91 46.5
t-138.5 18.5q-51 0 -112 -10.5t-121 -33.5q70 -6 113.5 -47.5t43.5 -114.5q0 -35 -13.5 -65t-38.5 -52t-60.5 -34.5t-79.5 -12.5zM246 1435q0 -35 25 -60t60 -25t60 25t25 60t-25 60t-60 25t-60 -25t-25 -60zM253 889q0 29 20 51t53 22q30 0 49.5 -22t19.5 -51
q0 -34 -19.5 -52.5t-49.5 -18.5q-33 0 -53 18.5t-20 52.5zM105 680q0 34 19 52.5t52 18.5q27 0 48 -18.5t21 -52.5q0 -33 -21 -52t-48 -19q-33 0 -52 19t-19 52zM76 440q0 34 20 52.5t51 18.5t52 -18.5t21 -52.5q0 -29 -21 -49t-52 -20t-51 20t-20 49zM176 221q0 33 20 52
t49 19t50 -19t21 -52q0 -31 -21 -51t-50 -20t-49 20t-20 51zM364 79q0 32 21 50.5t54 18.5q27 0 47 -18.5t20 -50.5q0 -33 -20 -52t-47 -19q-33 0 -54 19t-21 52zM608 50q0 29 19 50t50 21q33 0 52 -21t19 -50q0 -33 -19 -53t-52 -20q-31 0 -50 20t-19 53zM835 148
q0 33 19 53t50 20q34 0 52.5 -20t18.5 -53q0 -29 -18.5 -49t-52.5 -20q-31 0 -50 20t-19 49zM971 334q0 33 21 52t50 19q31 0 51 -19t20 -52q0 -29 -20 -50t-51 -21q-29 0 -50 21t-21 50zM992 588q0 34 20 52.5t49 18.5q33 0 53 -18.5t20 -52.5q0 -33 -20 -52t-53 -19
q-29 0 -49 19t-20 52zM898 816q0 25 20 48t51 23q27 0 49 -23t22 -48q0 -34 -22 -54.5t-49 -20.5q-31 0 -51 20.5t-20 54.5zM717 941q0 29 20.5 50t54.5 21q29 0 47.5 -21t18.5 -50q0 -31 -18.5 -51t-47.5 -20q-34 0 -54.5 20t-20.5 51zM481 968q0 31 18.5 51t52.5 20
q31 0 50 -20t19 -51t-19 -52t-50 -21q-34 0 -52.5 21t-18.5 52z" />
    <glyph glyph-name="lo_vs_mai_kan.25CC" horiz-adv-x="1213" 
d="M290 1693q44 0 79.5 -12.5t60.5 -34.5t38.5 -52t13.5 -65q0 -73 -43.5 -114.5t-113.5 -47.5q60 -23 121 -33.5t112 -10.5q82 0 138.5 18.5t91 46.5t50 61.5t15.5 64.5q0 29 -14.5 59.5t-52.5 66.5l112 75q16 -17 32.5 -36.5t30 -43t22 -50.5t8.5 -59q0 -68 -34 -123.5
t-92.5 -95.5t-137.5 -62t-170 -22q-84 0 -164.5 18.5t-144.5 54.5t-103 88.5t-39 120.5q0 40 14.5 74.5t39 60t58 39.5t72.5 14zM226 1528q0 -35 25 -60t60 -25t60 25t25 60t-25 60t-60 25t-60 -25t-25 -60zM253 889q0 29 20 51t53 22q30 0 49.5 -22t19.5 -51
q0 -34 -19.5 -52.5t-49.5 -18.5q-33 0 -53 18.5t-20 52.5zM105 680q0 34 19 52.5t52 18.5q27 0 48 -18.5t21 -52.5q0 -33 -21 -52t-48 -19q-33 0 -52 19t-19 52zM76 440q0 34 20 52.5t51 18.5t52 -18.5t21 -52.5q0 -29 -21 -49t-52 -20t-51 20t-20 49zM176 221q0 33 20 52
t49 19t50 -19t21 -52q0 -31 -21 -51t-50 -20t-49 20t-20 51zM364 79q0 32 21 50.5t54 18.5q27 0 47 -18.5t20 -50.5q0 -33 -20 -52t-47 -19q-33 0 -54 19t-21 52zM608 50q0 29 19 50t50 21q33 0 52 -21t19 -50q0 -33 -19 -53t-52 -20q-31 0 -50 20t-19 53zM835 148
q0 33 19 53t50 20q34 0 52.5 -20t18.5 -53q0 -29 -18.5 -49t-52.5 -20q-31 0 -50 20t-19 49zM971 334q0 33 21 52t50 19q31 0 51 -19t20 -52q0 -29 -20 -50t-51 -21q-29 0 -50 21t-21 50zM992 588q0 34 20 52.5t49 18.5q33 0 53 -18.5t20 -52.5q0 -33 -20 -52t-53 -19
q-29 0 -49 19t-20 52zM898 816q0 25 20 48t51 23q27 0 49 -23t22 -48q0 -34 -22 -54.5t-49 -20.5q-31 0 -51 20.5t-20 54.5zM717 941q0 29 20.5 50t54.5 21q29 0 47.5 -21t18.5 -50q0 -31 -18.5 -51t-47.5 -20q-34 0 -54.5 20t-20.5 51zM481 968q0 31 18.5 51t52.5 20
q31 0 50 -20t19 -51t-19 -52t-50 -21q-34 0 -52.5 21t-18.5 52z" />
    <glyph glyph-name="lo_vs_uu.25CC" horiz-adv-x="1213" 
d="M603 -558q0 -80 19.5 -113.5t56.5 -33.5q9 0 21 4.5t23 20t18.5 44.5t7.5 78v358h145v-333q0 -53 -9.5 -102t-34 -86.5t-66 -60.5t-105.5 -23t-106 25t-66.5 64t-34 87t-9.5 95v91q-12 -34 -42.5 -53.5t-75.5 -19.5q-33 0 -62 10.5t-50.5 30t-34 46.5t-12.5 60
q0 34 13 64.5t38 54t62 37t85 13.5q52 0 92.5 -18.5t68.5 -49.5t43 -71t15 -83v-136zM266 -356q0 -29 22 -49.5t52 -20.5t51.5 20.5t21.5 49.5t-21.5 49t-51.5 20t-52 -20t-22 -49zM253 889q0 29 20 51t53 22q30 0 49.5 -22t19.5 -51q0 -34 -19.5 -52.5t-49.5 -18.5
q-33 0 -53 18.5t-20 52.5zM105 680q0 34 19 52.5t52 18.5q27 0 48 -18.5t21 -52.5q0 -33 -21 -52t-48 -19q-33 0 -52 19t-19 52zM76 440q0 34 20 52.5t51 18.5t52 -18.5t21 -52.5q0 -29 -21 -49t-52 -20t-51 20t-20 49zM176 221q0 33 20 52t49 19t50 -19t21 -52
q0 -31 -21 -51t-50 -20t-49 20t-20 51zM364 79q0 32 21 50.5t54 18.5q27 0 47 -18.5t20 -50.5q0 -33 -20 -52t-47 -19q-33 0 -54 19t-21 52zM608 50q0 29 19 50t50 21q33 0 52 -21t19 -50q0 -33 -19 -53t-52 -20q-31 0 -50 20t-19 53zM835 148q0 33 19 53t50 20
q34 0 52.5 -20t18.5 -53q0 -29 -18.5 -49t-52.5 -20q-31 0 -50 20t-19 49zM971 334q0 33 21 52t50 19q31 0 51 -19t20 -52q0 -29 -20 -50t-51 -21q-29 0 -50 21t-21 50zM992 588q0 34 20 52.5t49 18.5q33 0 53 -18.5t20 -52.5q0 -33 -20 -52t-53 -19q-29 0 -49 19t-20 52z
M898 816q0 25 20 48t51 23q27 0 49 -23t22 -48q0 -34 -22 -54.5t-49 -20.5q-31 0 -51 20.5t-20 54.5zM717 941q0 29 20.5 50t54.5 21q29 0 47.5 -21t18.5 -50q0 -31 -18.5 -51t-47.5 -20q-34 0 -54.5 20t-20.5 51zM481 968q0 31 18.5 51t52.5 20q31 0 50 -20t19 -51t-19 -52
t-50 -21q-34 0 -52.5 21t-18.5 52z" />
    <glyph glyph-name="lo_vs_u.25CC" horiz-adv-x="1213" 
d="M446 -356q0 -29 22 -49.5t52 -20.5t51.5 20.5t21.5 49.5t-21.5 49t-51.5 20t-52 -20t-22 -49zM652 -426q-23 -39 -52.5 -59.5t-74.5 -20.5q-33 0 -62 11t-50.5 30.5t-34 45.5t-12.5 57t13 60t38 51.5t62 36.5t85 14q52 0 93.5 -21t70.5 -55.5t44.5 -78.5t15.5 -90
q0 -51 -14 -95t-36 -82t-49 -69t-52 -54t-46 -38.5t-31 -22.5l-65 78q92 70 129.5 132.5t37.5 114.5q0 31 -10 55zM253 889q0 29 20 51t53 22q30 0 49.5 -22t19.5 -51q0 -34 -19.5 -52.5t-49.5 -18.5q-33 0 -53 18.5t-20 52.5zM105 680q0 34 19 52.5t52 18.5q27 0 48 -18.5
t21 -52.5q0 -33 -21 -52t-48 -19q-33 0 -52 19t-19 52zM76 440q0 34 20 52.5t51 18.5t52 -18.5t21 -52.5q0 -29 -21 -49t-52 -20t-51 20t-20 49zM176 221q0 33 20 52t49 19t50 -19t21 -52q0 -31 -21 -51t-50 -20t-49 20t-20 51zM364 79q0 32 21 50.5t54 18.5q27 0 47 -18.5
t20 -50.5q0 -33 -20 -52t-47 -19q-33 0 -54 19t-21 52zM608 50q0 29 19 50t50 21q33 0 52 -21t19 -50q0 -33 -19 -53t-52 -20q-31 0 -50 20t-19 53zM835 148q0 33 19 53t50 20q34 0 52.5 -20t18.5 -53q0 -29 -18.5 -49t-52.5 -20q-31 0 -50 20t-19 49zM971 334q0 33 21 52
t50 19q31 0 51 -19t20 -52q0 -29 -20 -50t-51 -21q-29 0 -50 21t-21 50zM992 588q0 34 20 52.5t49 18.5q33 0 53 -18.5t20 -52.5q0 -33 -20 -52t-53 -19q-29 0 -49 19t-20 52zM898 816q0 25 20 48t51 23q27 0 49 -23t22 -48q0 -34 -22 -54.5t-49 -20.5q-31 0 -51 20.5
t-20 54.5zM717 941q0 29 20.5 50t54.5 21q29 0 47.5 -21t18.5 -50q0 -31 -18.5 -51t-47.5 -20q-34 0 -54.5 20t-20.5 51zM481 968q0 31 18.5 51t52.5 20q31 0 50 -20t19 -51t-19 -52t-50 -21q-34 0 -52.5 21t-18.5 52z" />
    <glyph glyph-name="lo_vs_yy.25CC" horiz-adv-x="1346" 
d="M565 1598q-83 0 -139.5 -19t-91.5 -48t-50 -63.5t-15 -65.5q0 -29 14.5 -59.5t52.5 -66.5l-112 -75q-16 17 -32.5 36.5t-30 43t-22 50.5t-8.5 59q0 67 34 123t92.5 96t137.5 62t170 22t170 -22t137.5 -62t92.5 -96t34 -123q0 -29 -6.5 -53t-17.5 -45q57 5 109.5 16
t103.5 32l18 -87q-35 -20 -76 -30.5t-82 -15t-78 -5.5t-64 -1l-112 75q38 36 52.5 66.5t14.5 59.5q0 31 -15.5 65.5t-50.5 63.5t-91.5 48t-138.5 19zM472 1362q0 -18 7.5 -34t20 -28t29.5 -18.5t36 -6.5t36 6.5t29.5 18.5t20 28t7.5 34t-7.5 34t-20 28t-29.5 19t-36 7
t-36 -7t-29.5 -19t-20 -28t-7.5 -34zM253 889q0 29 20 51t53 22q30 0 49.5 -22t19.5 -51q0 -34 -19.5 -52.5t-49.5 -18.5q-33 0 -53 18.5t-20 52.5zM105 680q0 34 19 52.5t52 18.5q27 0 48 -18.5t21 -52.5q0 -33 -21 -52t-48 -19q-33 0 -52 19t-19 52zM76 440q0 34 20 52.5
t51 18.5t52 -18.5t21 -52.5q0 -29 -21 -49t-52 -20t-51 20t-20 49zM176 221q0 33 20 52t49 19t50 -19t21 -52q0 -31 -21 -51t-50 -20t-49 20t-20 51zM364 79q0 32 21 50.5t54 18.5q27 0 47 -18.5t20 -50.5q0 -33 -20 -52t-47 -19q-33 0 -54 19t-21 52zM608 50q0 29 19 50
t50 21q33 0 52 -21t19 -50q0 -33 -19 -53t-52 -20q-31 0 -50 20t-19 53zM835 148q0 33 19 53t50 20q34 0 52.5 -20t18.5 -53q0 -29 -18.5 -49t-52.5 -20q-31 0 -50 20t-19 49zM971 334q0 33 21 52t50 19q31 0 51 -19t20 -52q0 -29 -20 -50t-51 -21q-29 0 -50 21t-21 50z
M992 588q0 34 20 52.5t49 18.5q33 0 53 -18.5t20 -52.5q0 -33 -20 -52t-53 -19q-29 0 -49 19t-20 52zM898 816q0 25 20 48t51 23q27 0 49 -23t22 -48q0 -34 -22 -54.5t-49 -20.5q-31 0 -51 20.5t-20 54.5zM717 941q0 29 20.5 50t54.5 21q29 0 47.5 -21t18.5 -50
q0 -31 -18.5 -51t-47.5 -20q-34 0 -54.5 20t-20.5 51zM481 968q0 31 18.5 51t52.5 20q31 0 50 -20t19 -51t-19 -52t-50 -21q-34 0 -52.5 21t-18.5 52z" />
    <glyph glyph-name="lo_vs_y.25CC" horiz-adv-x="1213" 
d="M564 1598q-83 0 -139.5 -19t-91.5 -48t-50 -63.5t-15 -65.5q0 -29 14.5 -59.5t52.5 -66.5l-112 -75q-16 17 -32.5 36.5t-30 43t-22 50.5t-8.5 59q0 67 34 123t92.5 96t137.5 62t170 22t170 -22t137.5 -62t92.5 -96t34 -123q0 -32 -8.5 -59t-22 -50.5t-30 -43t-32.5 -36.5
l-112 75q38 36 52.5 66.5t14.5 59.5q0 31 -15.5 65.5t-50.5 63.5t-91.5 48t-138.5 19zM471 1362q0 -18 7.5 -34t20 -28t29.5 -18.5t36 -6.5t36 6.5t29.5 18.5t20 28t7.5 34t-7.5 34t-20 28t-29.5 19t-36 7t-36 -7t-29.5 -19t-20 -28t-7.5 -34zM253 889q0 29 20 51t53 22
q30 0 49.5 -22t19.5 -51q0 -34 -19.5 -52.5t-49.5 -18.5q-33 0 -53 18.5t-20 52.5zM105 680q0 34 19 52.5t52 18.5q27 0 48 -18.5t21 -52.5q0 -33 -21 -52t-48 -19q-33 0 -52 19t-19 52zM76 440q0 34 20 52.5t51 18.5t52 -18.5t21 -52.5q0 -29 -21 -49t-52 -20t-51 20
t-20 49zM176 221q0 33 20 52t49 19t50 -19t21 -52q0 -31 -21 -51t-50 -20t-49 20t-20 51zM364 79q0 32 21 50.5t54 18.5q27 0 47 -18.5t20 -50.5q0 -33 -20 -52t-47 -19q-33 0 -54 19t-21 52zM608 50q0 29 19 50t50 21q33 0 52 -21t19 -50q0 -33 -19 -53t-52 -20
q-31 0 -50 20t-19 53zM835 148q0 33 19 53t50 20q34 0 52.5 -20t18.5 -53q0 -29 -18.5 -49t-52.5 -20q-31 0 -50 20t-19 49zM971 334q0 33 21 52t50 19q31 0 51 -19t20 -52q0 -29 -20 -50t-51 -21q-29 0 -50 21t-21 50zM992 588q0 34 20 52.5t49 18.5q33 0 53 -18.5
t20 -52.5q0 -33 -20 -52t-53 -19q-29 0 -49 19t-20 52zM898 816q0 25 20 48t51 23q27 0 49 -23t22 -48q0 -34 -22 -54.5t-49 -20.5q-31 0 -51 20.5t-20 54.5zM717 941q0 29 20.5 50t54.5 21q29 0 47.5 -21t18.5 -50q0 -31 -18.5 -51t-47.5 -20q-34 0 -54.5 20t-20.5 51z
M481 968q0 31 18.5 51t52.5 20q31 0 50 -20t19 -51t-19 -52t-50 -21q-34 0 -52.5 21t-18.5 52z" />
    <glyph glyph-name="lo_vs_ii.25CC" horiz-adv-x="1331" 
d="M550 1598q-83 0 -139.5 -19t-91.5 -48t-50 -63.5t-15 -65.5q0 -29 14.5 -59.5t52.5 -66.5l-112 -75q-16 17 -32.5 36.5t-30 43t-22 50.5t-8.5 59q0 67 34 123t92.5 96t137.5 62t170 22t170 -22t137.5 -62t92.5 -96t34 -123q0 -29 -6.5 -53t-17.5 -45q57 5 109.5 16
t103.5 32l18 -87q-35 -20 -76 -30.5t-82 -15t-78 -5.5t-64 -1l-112 75q38 36 52.5 66.5t14.5 59.5q0 31 -15.5 65.5t-50.5 63.5t-91.5 48t-138.5 19zM253 889q0 29 20 51t53 22q30 0 49.5 -22t19.5 -51q0 -34 -19.5 -52.5t-49.5 -18.5q-33 0 -53 18.5t-20 52.5zM105 680
q0 34 19 52.5t52 18.5q27 0 48 -18.5t21 -52.5q0 -33 -21 -52t-48 -19q-33 0 -52 19t-19 52zM76 440q0 34 20 52.5t51 18.5t52 -18.5t21 -52.5q0 -29 -21 -49t-52 -20t-51 20t-20 49zM176 221q0 33 20 52t49 19t50 -19t21 -52q0 -31 -21 -51t-50 -20t-49 20t-20 51zM364 79
q0 32 21 50.5t54 18.5q27 0 47 -18.5t20 -50.5q0 -33 -20 -52t-47 -19q-33 0 -54 19t-21 52zM608 50q0 29 19 50t50 21q33 0 52 -21t19 -50q0 -33 -19 -53t-52 -20q-31 0 -50 20t-19 53zM835 148q0 33 19 53t50 20q34 0 52.5 -20t18.5 -53q0 -29 -18.5 -49t-52.5 -20
q-31 0 -50 20t-19 49zM971 334q0 33 21 52t50 19q31 0 51 -19t20 -52q0 -29 -20 -50t-51 -21q-29 0 -50 21t-21 50zM992 588q0 34 20 52.5t49 18.5q33 0 53 -18.5t20 -52.5q0 -33 -20 -52t-53 -19q-29 0 -49 19t-20 52zM898 816q0 25 20 48t51 23q27 0 49 -23t22 -48
q0 -34 -22 -54.5t-49 -20.5q-31 0 -51 20.5t-20 54.5zM717 941q0 29 20.5 50t54.5 21q29 0 47.5 -21t18.5 -50q0 -31 -18.5 -51t-47.5 -20q-34 0 -54.5 20t-20.5 51zM481 968q0 31 18.5 51t52.5 20q31 0 50 -20t19 -51t-19 -52t-50 -21q-34 0 -52.5 21t-18.5 52z" />
    <glyph glyph-name="lo_tone_mai_ek.vs_am" horiz-adv-x="980" 
d="M-667 1760l-34 340h173l-38 -340h-101zM-699 1555q0 -35 25 -60t60 -25t60 25t25 60t-25 60t-60 25t-60 -25t-25 -60zM-799 1555q0 38 14.5 72t39.5 59t59 39.5t72 14.5t72 -14.5t59 -39.5t39.5 -59t14.5 -72t-14.5 -72t-39.5 -59t-59 -39.5t-72 -14.5t-72 14.5t-59 39.5
t-39.5 59t-14.5 72zM680 0v693q0 65 -18.5 119.5t-54 93.5t-86.5 61t-117 22q-40 0 -79.5 -9t-73.5 -30.5t-60 -58t-38 -90.5q24 26 60.5 45t76.5 19q38 0 67.5 -13t50 -35.5t31.5 -52.5t11 -64q0 -37 -14 -69.5t-39 -57t-60 -38.5t-77 -14q-64 0 -106.5 27t-67.5 65.5
t-35.5 81.5t-10.5 75q0 77 31 136.5t82.5 100t119 61.5t139.5 21q94 0 171 -24t132 -72.5t85 -123t30 -175.5v-694h-150zM200 700q0 -35 25 -60t60 -25t60 25t25 60t-25 60t-60 25t-60 -25t-25 -60z" />
    <glyph glyph-name="lo_tone_mai_tho.vs_am" horiz-adv-x="980" 
d="M-991 1765q17 6 41 14.5t48.5 22.5t47.5 36t39 56q-24 -16 -43 -21t-41 -5q-23 0 -43.5 7.5t-36 21.5t-24.5 33t-9 42q0 18 8 40.5t27.5 42t52 32.5t82.5 13q23 0 51.5 -5.5t53 -21t41.5 -42.5t17 -69q0 -25 -13.5 -48.5t-30 -41.5t-31 -29t-17.5 -11q8 -1 18 -1.5
t23 -0.5q31 0 74.5 6t92.5 27t99 61t94 107l160 -58q-36 -56 -97 -99.5t-137.5 -73t-163 -45t-173.5 -15.5q-55 0 -108 6t-102 19zM-934 1982q0 -23 17.5 -39t42.5 -16t42 16t17 39t-17 39.5t-42 16.5t-42.5 -16.5t-17.5 -39.5zM-699 1555q0 -35 25 -60t60 -25t60 25t25 60
t-25 60t-60 25t-60 -25t-25 -60zM-799 1555q0 38 14.5 72t39.5 59t59 39.5t72 14.5t72 -14.5t59 -39.5t39.5 -59t14.5 -72t-14.5 -72t-39.5 -59t-59 -39.5t-72 -14.5t-72 14.5t-59 39.5t-39.5 59t-14.5 72zM680 0v693q0 65 -18.5 119.5t-54 93.5t-86.5 61t-117 22
q-40 0 -79.5 -9t-73.5 -30.5t-60 -58t-38 -90.5q24 26 60.5 45t76.5 19q38 0 67.5 -13t50 -35.5t31.5 -52.5t11 -64q0 -37 -14 -69.5t-39 -57t-60 -38.5t-77 -14q-64 0 -106.5 27t-67.5 65.5t-35.5 81.5t-10.5 75q0 77 31 136.5t82.5 100t119 61.5t139.5 21q94 0 171 -24
t132 -72.5t85 -123t30 -175.5v-694h-150zM200 700q0 -35 25 -60t60 -25t60 25t25 60t-25 60t-60 25t-60 -25t-25 -60z" />
    <glyph glyph-name="lo_vs_mai_kan.tone_mai_ek" 
d="M-627 1681l-34 419h173l-38 -419h-101zM-881 1693q44 0 79.5 -12.5t60.5 -34.5t38.5 -52t13.5 -65q0 -73 -43.5 -114.5t-113.5 -47.5q60 -23 121 -33.5t112 -10.5q82 0 138.5 18.5t91 46.5t50 61.5t15.5 64.5q0 29 -14.5 59.5t-52.5 66.5l112 75q16 -17 32.5 -36.5
t30 -43t22 -50.5t8.5 -59q0 -68 -34 -123.5t-92.5 -95.5t-137.5 -62t-170 -22q-84 0 -164.5 18.5t-144.5 54.5t-103 88.5t-39 120.5q0 40 14.5 74.5t39 60t58 39.5t72.5 14zM-945 1528q0 -35 25 -60t60 -25t60 25t25 60t-25 60t-60 25t-60 -25t-25 -60z" />
    <glyph glyph-name="lo_vs_mai_kan.tone_mai_tho" 
d="M-991 1765q17 6 41 14.5t48.5 22.5t47.5 36t39 56q-24 -16 -43 -21t-41 -5q-23 0 -43.5 7.5t-36 21.5t-24.5 33t-9 42q0 18 8 40.5t27.5 42t52 32.5t82.5 13q23 0 51.5 -5.5t53 -21t41.5 -42.5t17 -69q0 -25 -13.5 -48.5t-30 -41.5t-31 -29t-17.5 -11q8 -1 18 -1.5
t23 -0.5q31 0 74.5 6t92.5 27t99 61t94 107l160 -58q-36 -56 -97 -99.5t-137.5 -73t-163 -45t-173.5 -15.5q-55 0 -108 6t-102 19zM-934 1982q0 -23 17.5 -39t42.5 -16t42 16t17 39t-17 39.5t-42 16.5t-42.5 -16.5t-17.5 -39.5zM-881 1693q44 0 79.5 -12.5t60.5 -34.5
t38.5 -52t13.5 -65q0 -73 -43.5 -114.5t-113.5 -47.5q60 -23 121 -33.5t112 -10.5q82 0 138.5 18.5t91 46.5t50 61.5t15.5 64.5q0 29 -14.5 59.5t-52.5 66.5l112 75q16 -17 32.5 -36.5t30 -43t22 -50.5t8.5 -59q0 -68 -34 -123.5t-92.5 -95.5t-137.5 -62t-170 -22
q-84 0 -164.5 18.5t-144.5 54.5t-103 88.5t-39 120.5q0 40 14.5 74.5t39 60t58 39.5t72.5 14zM-945 1528q0 -35 25 -60t60 -25t60 25t25 60t-25 60t-60 25t-60 -25t-25 -60z" />
    <glyph glyph-name="lo_vs_i.tone_mai_ek" 
d="M-667 1720l-34 380h173l-38 -380h-101zM-614 1598q-83 0 -139.5 -19t-91.5 -48t-50 -63.5t-15 -65.5q0 -29 14.5 -59.5t52.5 -66.5l-112 -75q-16 17 -32.5 36.5t-30 43t-22 50.5t-8.5 59q0 67 34 123t92.5 96t137.5 62t170 22t170 -22t137.5 -62t92.5 -96t34 -123
q0 -32 -8.5 -59t-22 -50.5t-30 -43t-32.5 -36.5l-112 75q38 36 52.5 66.5t14.5 59.5q0 31 -15.5 65.5t-50.5 63.5t-91.5 48t-138.5 19z" />
    <glyph glyph-name="lo_vs_i.tone_mai_tho" 
d="M-991 1765q17 6 41 14.5t48.5 22.5t47.5 36t39 56q-24 -16 -43 -21t-41 -5q-23 0 -43.5 7.5t-36 21.5t-24.5 33t-9 42q0 18 8 40.5t27.5 42t52 32.5t82.5 13q23 0 51.5 -5.5t53 -21t41.5 -42.5t17 -69q0 -25 -13.5 -48.5t-30 -41.5t-31 -29t-17.5 -11q8 -1 18 -1.5
t23 -0.5q31 0 74.5 6t92.5 27t99 61t94 107l160 -58q-36 -56 -97 -99.5t-137.5 -73t-163 -45t-173.5 -15.5q-55 0 -108 6t-102 19zM-934 1982q0 -23 17.5 -39t42.5 -16t42 16t17 39t-17 39.5t-42 16.5t-42.5 -16.5t-17.5 -39.5zM-614 1598q-83 0 -139.5 -19t-91.5 -48
t-50 -63.5t-15 -65.5q0 -29 14.5 -59.5t52.5 -66.5l-112 -75q-16 17 -32.5 36.5t-30 43t-22 50.5t-8.5 59q0 67 34 123t92.5 96t137.5 62t170 22t170 -22t137.5 -62t92.5 -96t34 -123q0 -32 -8.5 -59t-22 -50.5t-30 -43t-32.5 -36.5l-112 75q38 36 52.5 66.5t14.5 59.5
q0 31 -15.5 65.5t-50.5 63.5t-91.5 48t-138.5 19z" />
    <glyph glyph-name="lo_vs_ii.tone_mai_ek" 
d="M-667 1720l-34 380h173l-38 -380h-101zM-614 1598q-83 0 -139.5 -19t-91.5 -48t-50 -63.5t-15 -65.5q0 -29 14.5 -59.5t52.5 -66.5l-112 -75q-16 17 -32.5 36.5t-30 43t-22 50.5t-8.5 59q0 67 34 123t92.5 96t137.5 62t170 22t170 -22t137.5 -62t92.5 -96t34 -123
q0 -29 -6.5 -53t-17.5 -45q57 5 109.5 16t103.5 32l18 -87q-35 -20 -76 -30.5t-82 -15t-78 -5.5t-64 -1l-112 75q38 36 52.5 66.5t14.5 59.5q0 31 -15.5 65.5t-50.5 63.5t-91.5 48t-138.5 19z" />
    <glyph glyph-name="lo_vs_ii.tone_mai_tho" 
d="M-991 1765q17 6 41 14.5t48.5 22.5t47.5 36t39 56q-24 -16 -43 -21t-41 -5q-23 0 -43.5 7.5t-36 21.5t-24.5 33t-9 42q0 18 8 40.5t27.5 42t52 32.5t82.5 13q23 0 51.5 -5.5t53 -21t41.5 -42.5t17 -69q0 -25 -13.5 -48.5t-30 -41.5t-31 -29t-17.5 -11q8 -1 18 -1.5
t23 -0.5q31 0 74.5 6t92.5 27t99 61t94 107l160 -58q-36 -56 -97 -99.5t-137.5 -73t-163 -45t-173.5 -15.5q-55 0 -108 6t-102 19zM-934 1982q0 -23 17.5 -39t42.5 -16t42 16t17 39t-17 39.5t-42 16.5t-42.5 -16.5t-17.5 -39.5zM-614 1598q-83 0 -139.5 -19t-91.5 -48
t-50 -63.5t-15 -65.5q0 -29 14.5 -59.5t52.5 -66.5l-112 -75q-16 17 -32.5 36.5t-30 43t-22 50.5t-8.5 59q0 67 34 123t92.5 96t137.5 62t170 22t170 -22t137.5 -62t92.5 -96t34 -123q0 -29 -6.5 -53t-17.5 -45q57 5 109.5 16t103.5 32l18 -87q-35 -20 -76 -30.5t-82 -15
t-78 -5.5t-64 -1l-112 75q38 36 52.5 66.5t14.5 59.5q0 31 -15.5 65.5t-50.5 63.5t-91.5 48t-138.5 19z" />
    <glyph glyph-name="lo_vs_y.tone_mai_ek" 
d="M-667 1720l-34 380h173l-38 -380h-101zM-707 1362q0 18 7.5 34t20 28t29.5 19t36 7t36 -7t29.5 -19t20 -28t7.5 -34t-7.5 -34t-20 -28t-29.5 -18.5t-36 -6.5t-36 6.5t-29.5 18.5t-20 28t-7.5 34zM-614 1598q-83 0 -139.5 -19t-91.5 -48t-50 -63.5t-15 -65.5
q0 -29 14.5 -59.5t52.5 -66.5l-112 -75q-16 17 -32.5 36.5t-30 43t-22 50.5t-8.5 59q0 67 34 123t92.5 96t137.5 62t170 22t170 -22t137.5 -62t92.5 -96t34 -123q0 -32 -8.5 -59t-22 -50.5t-30 -43t-32.5 -36.5l-112 75q38 36 52.5 66.5t14.5 59.5q0 31 -15.5 65.5
t-50.5 63.5t-91.5 48t-138.5 19z" />
    <glyph glyph-name="lo_vs_y.tone_mai_tho" 
d="M-991 1765q17 6 41 14.5t48.5 22.5t47.5 36t39 56q-24 -16 -43 -21t-41 -5q-23 0 -43.5 7.5t-36 21.5t-24.5 33t-9 42q0 18 8 40.5t27.5 42t52 32.5t82.5 13q23 0 51.5 -5.5t53 -21t41.5 -42.5t17 -69q0 -25 -13.5 -48.5t-30 -41.5t-31 -29t-17.5 -11q8 -1 18 -1.5
t23 -0.5q31 0 74.5 6t92.5 27t99 61t94 107l160 -58q-36 -56 -97 -99.5t-137.5 -73t-163 -45t-173.5 -15.5q-55 0 -108 6t-102 19zM-934 1982q0 -23 17.5 -39t42.5 -16t42 16t17 39t-17 39.5t-42 16.5t-42.5 -16.5t-17.5 -39.5zM-707 1362q0 -18 7.5 -34t20 -28t29.5 -18.5
t36 -6.5t36 6.5t29.5 18.5t20 28t7.5 34t-7.5 34t-20 28t-29.5 19t-36 7t-36 -7t-29.5 -19t-20 -28t-7.5 -34zM-614 1598q-83 0 -139.5 -19t-91.5 -48t-50 -63.5t-15 -65.5q0 -29 14.5 -59.5t52.5 -66.5l-112 -75q-16 17 -32.5 36.5t-30 43t-22 50.5t-8.5 59q0 67 34 123
t92.5 96t137.5 62t170 22t170 -22t137.5 -62t92.5 -96t34 -123q0 -32 -8.5 -59t-22 -50.5t-30 -43t-32.5 -36.5l-112 75q38 36 52.5 66.5t14.5 59.5q0 31 -15.5 65.5t-50.5 63.5t-91.5 48t-138.5 19z" />
    <glyph glyph-name="lo_vs_yy.tone_mai_ek" 
d="M-667 1720l-34 380h173l-38 -380h-101zM-707 1362q0 18 7.5 34t20 28t29.5 19t36 7t36 -7t29.5 -19t20 -28t7.5 -34t-7.5 -34t-20 -28t-29.5 -18.5t-36 -6.5t-36 6.5t-29.5 18.5t-20 28t-7.5 34zM-614 1598q-83 0 -139.5 -19t-91.5 -48t-50 -63.5t-15 -65.5
q0 -29 14.5 -59.5t52.5 -66.5l-112 -75q-16 17 -32.5 36.5t-30 43t-22 50.5t-8.5 59q0 67 34 123t92.5 96t137.5 62t170 22t170 -22t137.5 -62t92.5 -96t34 -123q0 -29 -6.5 -53t-17.5 -45q57 5 109.5 16t103.5 32l18 -87q-35 -20 -76 -30.5t-82 -15t-78 -5.5t-64 -1
l-112 75q38 36 52.5 66.5t14.5 59.5q0 31 -15.5 65.5t-50.5 63.5t-91.5 48t-138.5 19z" />
    <glyph glyph-name="lo_vs_yy.tone_mai_tho" 
d="M-991 1765q17 6 41 14.5t48.5 22.5t47.5 36t39 56q-24 -16 -43 -21t-41 -5q-23 0 -43.5 7.5t-36 21.5t-24.5 33t-9 42q0 18 8 40.5t27.5 42t52 32.5t82.5 13q23 0 51.5 -5.5t53 -21t41.5 -42.5t17 -69q0 -25 -13.5 -48.5t-30 -41.5t-31 -29t-17.5 -11q8 -1 18 -1.5
t23 -0.5q31 0 74.5 6t92.5 27t99 61t94 107l160 -58q-36 -56 -97 -99.5t-137.5 -73t-163 -45t-173.5 -15.5q-55 0 -108 6t-102 19zM-934 1982q0 -23 17.5 -39t42.5 -16t42 16t17 39t-17 39.5t-42 16.5t-42.5 -16.5t-17.5 -39.5zM-707 1362q0 -18 7.5 -34t20 -28t29.5 -18.5
t36 -6.5t36 6.5t29.5 18.5t20 28t7.5 34t-7.5 34t-20 28t-29.5 19t-36 7t-36 -7t-29.5 -19t-20 -28t-7.5 -34zM-614 1598q-83 0 -139.5 -19t-91.5 -48t-50 -63.5t-15 -65.5q0 -29 14.5 -59.5t52.5 -66.5l-112 -75q-16 17 -32.5 36.5t-30 43t-22 50.5t-8.5 59q0 67 34 123
t92.5 96t137.5 62t170 22t170 -22t137.5 -62t92.5 -96t34 -123q0 -29 -6.5 -53t-17.5 -45q57 5 109.5 16t103.5 32l18 -87q-35 -20 -76 -30.5t-82 -15t-78 -5.5t-64 -1l-112 75q38 36 52.5 66.5t14.5 59.5q0 31 -15.5 65.5t-50.5 63.5t-91.5 48t-138.5 19z" />
    <glyph glyph-name="lo_vs_mai_kon.tone_mai_ek" 
d="M-667 1760l-34 340h173l-38 -340h-101zM-946 1436q0 -35 25 -60t60 -25t60 25t25 60t-25 60t-60 25t-60 -25t-25 -60zM-881 1271q-39 0 -72.5 14t-58 39.5t-39 59.5t-14.5 75q0 67 39 119.5t103 88.5t144.5 55t164.5 19q91 0 170 -22t137.5 -62t92.5 -96t34 -123
q0 -32 -8.5 -59t-22 -50.5t-30 -43t-32.5 -36.5l-112 75q38 36 52.5 66.5t14.5 59.5q0 31 -15.5 64.5t-50 61.5t-91 46.5t-138.5 18.5q-51 0 -112 -10.5t-121 -33.5q70 -6 113.5 -47.5t43.5 -114.5q0 -35 -13.5 -65t-38.5 -52t-60.5 -34.5t-79.5 -12.5z" />
    <glyph glyph-name="lo_vs_mai_kon.tone_mai_tho" 
d="M-991 1765q17 6 41 14.5t48.5 22.5t47.5 36t39 56q-24 -16 -43 -21t-41 -5q-23 0 -43.5 7.5t-36 21.5t-24.5 33t-9 42q0 18 8 40.5t27.5 42t52 32.5t82.5 13q23 0 51.5 -5.5t53 -21t41.5 -42.5t17 -69q0 -25 -13.5 -48.5t-30 -41.5t-31 -29t-17.5 -11q8 -1 18 -1.5
t23 -0.5q31 0 74.5 6t92.5 27t99 61t94 107l160 -58q-36 -56 -97 -99.5t-137.5 -73t-163 -45t-173.5 -15.5q-55 0 -108 6t-102 19zM-934 1982q0 -23 17.5 -39t42.5 -16t42 16t17 39t-17 39.5t-42 16.5t-42.5 -16.5t-17.5 -39.5zM-946 1436q0 -35 25 -60t60 -25t60 25t25 60
t-25 60t-60 25t-60 -25t-25 -60zM-881 1271q-39 0 -72.5 14t-58 39.5t-39 59.5t-14.5 75q0 67 39 119.5t103 88.5t144.5 55t164.5 19q91 0 170 -22t137.5 -62t92.5 -96t34 -123q0 -32 -8.5 -59t-22 -50.5t-30 -43t-32.5 -36.5l-112 75q38 36 52.5 66.5t14.5 59.5
q0 31 -15.5 64.5t-50 61.5t-91 46.5t-138.5 18.5q-51 0 -112 -10.5t-121 -33.5q70 -6 113.5 -47.5t43.5 -114.5q0 -35 -13.5 -65t-38.5 -52t-60.5 -34.5t-79.5 -12.5z" />
    <glyph glyph-name="ZWNJ.visible" 
d="M-51 -150v1903h102v-1903h-102z" />
    <glyph glyph-name="ZWJ.visible" 
d="M352 2046l70 -84l-332 -223l332 -211q-14 -22 -23.5 -39.5t-23.5 -40.5l-326 207v-1805h-94v1805q-35 -21 -75 -45.5t-81 -49.5t-81 -49.5t-76 -46.5q-17 20 -30.5 40t-27.5 40l320 203l-328 221l74 80l346 -242z" />
    <glyph glyph-name="lo_vs_am.right" horiz-adv-x="1000" 
d="M710 0v693q0 65 -18.5 119.5t-54 93.5t-86.5 61t-117 22q-40 0 -79.5 -9t-73.5 -30.5t-60 -58t-38 -90.5q24 26 60.5 45t76.5 19q38 0 67.5 -13t50 -35.5t31.5 -52.5t11 -64q0 -37 -14 -69.5t-39 -57t-60 -38.5t-77 -14q-64 0 -106.5 27t-67.5 65.5t-35.5 81.5t-10.5 75
q0 77 31 136.5t82.5 100t119 61.5t139.5 21q94 0 171 -24t132 -72.5t85 -123t30 -175.5v-694h-150zM230 700q0 -35 25 -60t60 -25t60 25t25 60t-25 60t-60 25t-60 -25t-25 -60z" />
    <glyph glyph-name="lo_ko.am" horiz-adv-x="1225" 
d="M459 218q0 -68 -22 -113t-55 -72t-73 -38t-76 -11q-34 0 -65.5 12.5t-55.5 34t-38 50t-14 61.5t12.5 61.5t34.5 50t51.5 34t62.5 12.5q19 0 46 -5t42 -18v517q-15 -14 -42 -21.5t-46 -7.5q-33 0 -62.5 13t-51.5 35.5t-34.5 52.5t-12.5 65q0 33 14 61.5t38 50t55.5 34
t65.5 12.5q27 0 56.5 -6t57.5 -20.5t52 -38.5t39 -59q15 20 38.5 42t56.5 40t76.5 30t99.5 12q80 0 149 -18t119.5 -57t79 -100.5t28.5 -148.5v-765h-150v765q0 62 -22.5 104.5t-56.5 69t-73.5 38.5t-73.5 12q-42 0 -80.5 -11.5t-71 -33t-58 -52t-40.5 -67.5v-607zM140 927
q0 -17 6.5 -32t18 -26t26.5 -17.5t33 -6.5t33.5 6.5t27 17.5t18 26t6.5 32t-6.5 32t-18 26t-27 17.5t-33.5 6.5t-33 -6.5t-26.5 -17.5t-18 -26t-6.5 -32zM140 142q0 -32 24.5 -55t59.5 -23t60 23t25 55t-25 55t-60 23t-59.5 -23t-24.5 -55zM570 1555q0 -35 25 -60t60 -25
t60 25t25 60t-25 60t-60 25t-60 -25t-25 -60zM470 1555q0 38 14.5 72t39.5 59t59 39.5t72 14.5t72 -14.5t59 -39.5t39.5 -59t14.5 -72t-14.5 -72t-39.5 -59t-59 -39.5t-72 -14.5t-72 14.5t-59 39.5t-39.5 59t-14.5 72z" />
    <glyph glyph-name="lo_kho_sung.am" horiz-adv-x="1179" 
d="M889 0q0 54 -10.5 85t-27 47t-38 20t-43.5 4q-27 0 -56.5 -12.5t-62.5 -32t-71 -41.5t-83 -41.5t-97 -32t-113 -12.5q-39 0 -79.5 12.5t-73.5 38.5t-53.5 65.5t-20.5 94.5q0 66 35.5 107.5t94 67t133 41t152 29t152 31t133 47.5t94 78t35.5 123q0 61 -26 110.5t-74 85
t-116 55t-152 19.5q-47 0 -103 -9t-107 -32t-92 -62.5t-58 -100.5q12 13 28.5 27t36 26t42.5 19.5t47 7.5q34 0 64 -13t52.5 -35.5t35.5 -52.5t13 -64q0 -37 -14.5 -67.5t-40.5 -52t-62.5 -33.5t-80.5 -12q-62 0 -104.5 20.5t-68.5 52t-37.5 70t-11.5 75.5q0 59 21 107
t56 85t81.5 64.5t98 45t104.5 26t101 8.5q94 0 186.5 -20t166 -64.5t119 -115t45.5 -171.5q0 -82 -35.5 -139t-93.5 -96t-132 -65t-151 -45t-151 -35.5t-132 -37.5t-93.5 -50.5t-35.5 -74.5q0 -27 10 -44.5t27 -28t38.5 -14.5t44.5 -4q44 0 82.5 12.5t74.5 32t70.5 41.5
t70.5 41.5t75.5 32t84.5 12.5q67 0 114 -25t76.5 -63t42.5 -83t13 -85h-150zM230 700q0 -35 25 -60t60 -25t60 25t25 60t-25 60t-60 25t-60 -25t-25 -60zM480 1555q0 -35 25 -60t60 -25t60 25t25 60t-25 60t-60 25t-60 -25t-25 -60zM380 1555q0 38 14.5 72t39.5 59t59 39.5
t72 14.5t72 -14.5t59 -39.5t39.5 -59t14.5 -72t-14.5 -72t-39.5 -59t-59 -39.5t-72 -14.5t-72 14.5t-59 39.5t-39.5 59t-14.5 72z" />
    <glyph glyph-name="lo_kho_tam.am" horiz-adv-x="1155" 
d="M197 370q0 -18 1.5 -40.5t5 -44.5t8.5 -40.5t12 -30.5q18 31 40.5 48.5t44.5 26t40.5 10t27.5 1.5q33 0 62.5 -10.5t51.5 -29.5t34.5 -45.5t12.5 -59.5q0 -36 -13 -67.5t-38.5 -54.5t-64 -36t-89.5 -13q-42 0 -89.5 19t-88.5 61.5t-68 111t-27 167.5q0 57 13.5 115
t41.5 110q-26 38 -40.5 84.5t-14.5 100.5q0 93 41.5 157.5t109.5 104t154 57t175 17.5q55 0 112 -8.5t110 -27t99 -48t80 -72t54 -99.5t20 -129v-705h-150v703q0 80 -27.5 134.5t-73 88.5t-104 48.5t-120.5 14.5q-67 0 -128.5 -15.5t-109 -46t-75.5 -77.5t-28 -110
q0 -11 1.5 -28t4.5 -30q15 12 36 21.5t44.5 16t47.5 9.5t46 3q38 0 67.5 -13t50 -35t31 -49.5t10.5 -57.5q0 -31 -11 -59t-31 -49.5t-50 -34t-67 -12.5q-19 0 -42 3t-46 10t-44 17.5t-37 24.5q-6 -30 -9.5 -61.5t-3.5 -45.5zM379 502q33 0 56 21.5t23 53.5q0 33 -20.5 54
t-58.5 21q-20 0 -40 -7t-37.5 -18t-31.5 -24t-23 -26q10 -17 26 -31t34 -24t36.5 -15t35.5 -5zM458 142q0 32 -24.5 55t-59.5 23t-60 -23t-25 -55t25 -55t60 -23t59.5 23t24.5 55zM490 1555q0 -35 25 -60t60 -25t60 25t25 60t-25 60t-60 25t-60 -25t-25 -60zM390 1555
q0 38 14.5 72t39.5 59t59 39.5t72 14.5t72 -14.5t59 -39.5t39.5 -59t14.5 -72t-14.5 -72t-39.5 -59t-59 -39.5t-72 -14.5t-72 14.5t-59 39.5t-39.5 59t-14.5 72z" />
    <glyph glyph-name="lo_ngo.am" horiz-adv-x="1070" 
d="M198 -5q15 -48 43 -83.5t64 -59t76.5 -35t81.5 -11.5q64 0 121.5 18t101 55t69 94.5t25.5 135.5v603q0 65 -24 116.5t-66 87t-98.5 54.5t-120.5 19q-42 0 -88 -7t-88 -27.5t-75.5 -57t-50.5 -94.5q12 13 29.5 24t38 19.5t42 13.5t41.5 5q38 0 67.5 -13t50 -35.5
t31.5 -52.5t11 -64q0 -37 -14 -69.5t-39 -57t-60 -38.5t-77 -14q-64 0 -108 22.5t-71 57t-39 75t-12 77.5q0 88 37.5 152t96.5 104.5t133 60t146 19.5q94 0 177 -24t145 -72.5t98.5 -123t36.5 -175.5v-564q0 -46 -10.5 -95.5t-33.5 -96.5t-60 -89t-89 -74t-121 -50.5
t-157 -18.5q-47 0 -103 10t-111 33t-103.5 61.5t-81.5 95.5zM210 700q0 -35 27 -59.5t68 -24.5t68 24.5t27 59.5t-25.5 60t-67.5 25q-41 0 -69 -25t-28 -60zM410 1555q0 -35 25 -60t60 -25t60 25t25 60t-25 60t-60 25t-60 -25t-25 -60zM310 1555q0 38 14.5 72t39.5 59
t59 39.5t72 14.5t72 -14.5t59 -39.5t39.5 -59t14.5 -72t-14.5 -72t-39.5 -59t-59 -39.5t-72 -14.5t-72 14.5t-59 39.5t-39.5 59t-14.5 72z" />
    <glyph glyph-name="lo_co.am" horiz-adv-x="1179" 
d="M421 449q0 -35 25 -60t60 -25t60 25t25 60t-25 60t-60 25t-60 -25t-25 -60zM539 989q-41 0 -91 -9t-99.5 -34.5t-94 -71.5t-73.5 -120l-121 65q46 81 108.5 133t128.5 82.5t129 42.5t110 12q103 0 194.5 -25t160 -75.5t108.5 -126.5t40 -177v-685h-150v120
q0 61 -23.5 122t-58 113t-75.5 90.5t-75 54.5q3 -7 8.5 -24.5t5.5 -34.5q0 -32 -11.5 -60t-33 -50t-51.5 -34.5t-66 -12.5q-34 0 -64.5 12.5t-53.5 34t-36.5 51t-13.5 63.5q0 36 14.5 67t40 53.5t61 35.5t78.5 13q51 0 101.5 -14.5t97 -41.5t86 -66t69.5 -88v315
q0 73 -29 124t-78 83.5t-112 47.5t-131 15zM460 1555q0 -35 25 -60t60 -25t60 25t25 60t-25 60t-60 25t-60 -25t-25 -60zM360 1555q0 38 14.5 72t39.5 59t59 39.5t72 14.5t72 -14.5t59 -39.5t39.5 -59t14.5 -72t-14.5 -72t-39.5 -59t-59 -39.5t-72 -14.5t-72 14.5t-59 39.5
t-39.5 59t-14.5 72z" />
    <glyph glyph-name="lo_so_tam.am" horiz-adv-x="1179" 
d="M1039 -287h-150v287q0 54 -10.5 85t-27 47t-38 20t-43.5 4q-27 0 -56.5 -12.5t-62.5 -32t-71 -41.5t-83 -41.5t-97 -32t-113 -12.5q-39 0 -79.5 12.5t-73.5 38.5t-53.5 65.5t-20.5 94.5q0 66 35.5 107.5t94 67t133 41t152 29t152 31t133 47.5t94 78t35.5 123
q0 61 -26 110.5t-74 85t-116 55t-152 19.5q-47 0 -103 -9t-107 -32t-92 -62.5t-58 -100.5q12 13 28.5 27t36 26t42.5 19.5t47 7.5q34 0 64 -13t52.5 -35.5t35.5 -52.5t13 -64q0 -37 -14.5 -67.5t-40.5 -52t-62.5 -33.5t-80.5 -12q-62 0 -104.5 20.5t-68.5 52t-37.5 70
t-11.5 75.5q0 59 21 107t56 85t81.5 64.5t98 45t104.5 26t101 8.5q94 0 186.5 -20t166 -64.5t119 -115t45.5 -171.5q0 -82 -35.5 -139t-93.5 -96t-132 -65t-151 -45t-151 -35.5t-132 -37.5t-93.5 -50.5t-35.5 -74.5q0 -27 10 -44.5t27 -28t38.5 -14.5t44.5 -4
q44 0 82.5 12.5t74.5 32t70.5 41.5t70.5 41.5t75.5 32t84.5 12.5q67 0 114 -25t76.5 -63t42.5 -83t13 -85v-287zM230 700q0 -35 25 -60t60 -25t60 25t25 60t-25 60t-60 25t-60 -25t-25 -60zM450 1555q0 -35 25 -60t60 -25t60 25t25 60t-25 60t-60 25t-60 -25t-25 -60z
M350 1555q0 38 14.5 72t39.5 59t59 39.5t72 14.5t72 -14.5t59 -39.5t39.5 -59t14.5 -72t-14.5 -72t-39.5 -59t-59 -39.5t-72 -14.5t-72 14.5t-59 39.5t-39.5 59t-14.5 72z" />
    <glyph glyph-name="lo_nyo.am" horiz-adv-x="1155" 
d="M197 703q0 -14 3.5 -45.5t9.5 -61.5q16 14 37 24.5t44 17t46 10t42 3.5q37 0 67 -12.5t50 -34t31 -49.5t11 -59q0 -30 -10.5 -57.5t-31 -49.5t-50 -35t-67.5 -13q-22 0 -46 3t-47.5 9.5t-44.5 16t-36 21.5q-3 -13 -4.5 -30t-1.5 -28q0 -63 28 -110t75.5 -77.5t109 -46
t128.5 -15.5q62 0 120.5 14.5t104 48.5t73 88.5t27.5 134.5v703h150v-705q0 -73 -20 -129.5t-54 -99t-80 -72t-99 -48t-110 -27t-112 -8.5q-89 0 -175 17.5t-154 57t-109.5 104t-41.5 157.5q0 54 14.5 100.5t40.5 84.5q-28 52 -41.5 110t-13.5 115q0 99 27 167.5t68 111
t88.5 61.5t89.5 19q51 0 89.5 -13t64 -36t38.5 -54.5t13 -67.5q0 -33 -12.5 -59.5t-34.5 -45.5t-51.5 -29.5t-62.5 -10.5q-9 0 -27.5 1.5t-40.5 10t-44.5 25.5t-40.5 49q-7 -12 -12 -31t-8.5 -40.5t-5 -44t-1.5 -40.5zM379 571q-17 0 -35.5 -5.5t-36.5 -15t-34 -23.5
t-26 -31q9 -13 23 -26t31.5 -24t37.5 -18t40 -7q38 0 58.5 21t20.5 54q0 32 -23 53.5t-56 21.5zM458 931q0 32 -24.5 55t-59.5 23t-60 -23t-25 -55t25 -55t60 -23t59.5 23t24.5 55zM510 1555q0 -35 25 -60t60 -25t60 25t25 60t-25 60t-60 25t-60 -25t-25 -60zM410 1555
q0 38 14.5 72t39.5 59t59 39.5t72 14.5t72 -14.5t59 -39.5t39.5 -59t14.5 -72t-14.5 -72t-39.5 -59t-59 -39.5t-72 -14.5t-72 14.5t-59 39.5t-39.5 59t-14.5 72z" />
    <glyph glyph-name="lo_do.am" horiz-adv-x="1155" 
d="M379 142q0 32 -24.5 55t-59.5 23t-60 -23t-25 -55t25 -55t60 -23t59.5 23t24.5 55zM210 270q17 15 43 22.5t45 7.5q33 0 62.5 -12.5t51.5 -34t34.5 -50t12.5 -61.5t-14 -61.5t-38 -50t-55.5 -34t-65.5 -12.5q-36 0 -76 11t-73 38t-55 72t-22 113v485q0 80 36.5 150
t101 122.5t152.5 83t190 30.5q55 0 112 -8.5t110 -27t99 -48t80 -72t54 -99.5t20 -129v-705h-150v713q0 85 -30 138.5t-77 84t-105 42t-115 11.5q-56 0 -114 -16t-105.5 -50t-78 -85.5t-30.5 -123.5v-444zM460 1555q0 -35 25 -60t60 -25t60 25t25 60t-25 60t-60 25t-60 -25
t-25 -60zM360 1555q0 38 14.5 72t39.5 59t59 39.5t72 14.5t72 -14.5t59 -39.5t39.5 -59t14.5 -72t-14.5 -72t-39.5 -59t-59 -39.5t-72 -14.5t-72 14.5t-59 39.5t-39.5 59t-14.5 72z" />
    <glyph glyph-name="lo_to.am" horiz-adv-x="1175" 
d="M379 142q0 32 -24.5 55t-59.5 23t-60 -23t-25 -55t25 -55t60 -23t59.5 23t24.5 55zM210 270q17 15 43 22.5t45 7.5q33 0 62.5 -12.5t51.5 -34t34.5 -50t12.5 -61.5t-14 -61.5t-38 -50t-55.5 -34t-65.5 -12.5q-36 0 -76 11t-73 38t-55 72t-22 113v485q0 88 25 159
t66 121.5t94 78t110 27.5q25 0 51 -6.5t51 -21t48 -37t41 -53.5q18 31 41.5 53.5t49 37t52 21t51.5 6.5q57 0 110 -27.5t94 -78t66 -121.5t25 -159v-703h-151v710q0 70 -14 119t-37.5 80t-54.5 45.5t-64 14.5t-61 -21t-49.5 -49t-36.5 -55.5t-21 -40.5q-6 13 -21 40.5
t-36.5 55.5t-48 49t-56.5 21q-33 0 -64.5 -15t-56 -47t-39 -81t-14.5 -116v-440zM460 1555q0 -35 25 -60t60 -25t60 25t25 60t-25 60t-60 25t-60 -25t-25 -60zM360 1555q0 38 14.5 72t39.5 59t59 39.5t72 14.5t72 -14.5t59 -39.5t39.5 -59t14.5 -72t-14.5 -72t-39.5 -59
t-59 -39.5t-72 -14.5t-72 14.5t-59 39.5t-39.5 59t-14.5 72z" />
    <glyph glyph-name="lo_tho_sung.am" horiz-adv-x="1225" 
d="M140 927q0 -17 6.5 -32t18 -26t26.5 -17.5t33 -6.5t33.5 6.5t27 17.5t18 26t6.5 32t-6.5 32t-18 26t-27 17.5t-33.5 6.5t-33 -6.5t-26.5 -17.5t-18 -26t-6.5 -32zM608 142q0 32 -24.5 55t-59.5 23t-60 -23t-25 -55t25 -55t60 -23t59.5 23t24.5 55zM439 270q17 15 43 22.5
t45 7.5q33 0 62.5 -12.5t51.5 -34t34.5 -50t12.5 -61.5t-14 -61.5t-38 -50t-55.5 -34t-65.5 -12.5q-36 0 -76 11t-73 38t-55 72t-22 113v561q-29 -14 -68 -14q-33 0 -62.5 13t-51.5 35.5t-34.5 52.5t-12.5 65q0 33 14 61.5t38 50t55.5 34t65.5 12.5q27 0 56.5 -6t57.5 -20.5
t52 -38.5t39 -59q15 20 39.5 42t58 40t78 30t100.5 12q83 0 151.5 -18t117 -57t75.5 -100.5t27 -148.5v-1052h-150v1052q0 68 -23.5 111.5t-58.5 68.5t-75 34.5t-73 9.5q-41 0 -81 -10t-75 -30t-63.5 -51t-46.5 -73v-555zM630 1555q0 -35 25 -60t60 -25t60 25t25 60t-25 60
t-60 25t-60 -25t-25 -60zM530 1555q0 38 14.5 72t39.5 59t59 39.5t72 14.5t72 -14.5t59 -39.5t39.5 -59t14.5 -72t-14.5 -72t-39.5 -59t-59 -39.5t-72 -14.5t-72 14.5t-59 39.5t-39.5 59t-14.5 72z" />
    <glyph glyph-name="lo_tho_tam.am" horiz-adv-x="1323" 
d="M140 926q0 -16 6.5 -31t18 -26.5t26.5 -18.5t33 -7t33.5 7t27 18.5t18 26.5t6.5 31t-6.5 31t-18 26.5t-27 18.5t-33.5 7t-33 -7t-26.5 -18.5t-18 -26.5t-6.5 -31zM289 778q-32 -15 -68 -15q-33 0 -62.5 13t-51.5 35.5t-34.5 52t-12.5 62.5t14 62.5t38 52t55.5 35.5
t65.5 13q36 0 72 -10.5t65.5 -35.5t47.5 -65t18 -99q0 -51 -16.5 -91t-42 -76t-54.5 -72t-54.5 -80t-42 -100t-16.5 -132q0 -50 12.5 -94.5t39 -77.5t67.5 -52.5t98 -19.5q27 0 54.5 9.5t50 31t37 57.5t14.5 89v495q0 67 17.5 126t54.5 102.5t94.5 69t138.5 25.5
q67 0 121.5 -22.5t93 -64t59.5 -101.5t21 -135v-766h-150v805q0 62 -16 98.5t-38.5 55.5t-47.5 24.5t-42 5.5q-31 0 -59.5 -9t-50 -30t-34 -56t-12.5 -88v-508q0 -69 -21 -126.5t-60.5 -99t-97.5 -65t-131 -23.5q-92 0 -160 26.5t-113 73t-67.5 109.5t-22.5 135
q0 55 14.5 100.5t37 84t49.5 72t52.5 65t46 63t29.5 65.5zM590 1555q0 -35 25 -60t60 -25t60 25t25 60t-25 60t-60 25t-60 -25t-25 -60zM490 1555q0 38 14.5 72t39.5 59t59 39.5t72 14.5t72 -14.5t59 -39.5t39.5 -59t14.5 -72t-14.5 -72t-39.5 -59t-59 -39.5t-72 -14.5
t-72 14.5t-59 39.5t-39.5 59t-14.5 72z" />
    <glyph glyph-name="lo_no.am" horiz-adv-x="1225" 
d="M439 252v-4q15 -37 42.5 -67.5t62.5 -52t74.5 -33t80.5 -11.5q35 0 76.5 9.5t77 35.5t59 72t23.5 119v753h150v-765q0 -87 -29 -148.5t-80 -100.5t-120.5 -57t-149.5 -18q-59 0 -103.5 12.5t-77.5 32t-55.5 42.5t-37.5 43q-21 -45 -55 -71t-74 -39t-82.5 -16.5
t-80.5 -3.5v100q18 0 43.5 2t49 15t40 41t16.5 79v557q-32 -15 -68 -15q-33 0 -62.5 13t-51.5 35.5t-34.5 52t-12.5 62.5t14 62.5t38 52t55.5 35.5t65.5 13q36 0 72.5 -11t66.5 -38t48.5 -72t18.5 -113v-603zM140 926q0 -16 6.5 -31t18 -26.5t26.5 -18.5t33 -7t33.5 7
t27 18.5t18 26.5t6.5 31t-6.5 31t-18 26.5t-27 18.5t-33.5 7t-33 -7t-26.5 -18.5t-18 -26.5t-6.5 -31zM580 1555q0 -35 25 -60t60 -25t60 25t25 60t-25 60t-60 25t-60 -25t-25 -60zM480 1555q0 38 14.5 72t39.5 59t59 39.5t72 14.5t72 -14.5t59 -39.5t39.5 -59t14.5 -72
t-14.5 -72t-39.5 -59t-59 -39.5t-72 -14.5t-72 14.5t-59 39.5t-39.5 59t-14.5 72z" />
    <glyph glyph-name="lo_bo.am" horiz-adv-x="1097" 
d="M140 926q0 -16 6.5 -31t18 -26.5t26.5 -18.5t33 -7t33.5 7t27 18.5t18 26.5t6.5 31t-6.5 31t-18 26.5t-27 18.5t-33.5 7t-33 -7t-26.5 -18.5t-18 -26.5t-6.5 -31zM509 -16q-115 0 -199.5 26.5t-140 73t-82.5 109.5t-27 135q0 55 14.5 100.5t37 84t49.5 72t52.5 65t46 63
t29.5 65.5q-32 -15 -68 -15q-33 0 -62.5 13t-51.5 35.5t-34.5 52t-12.5 62.5t14 62.5t38 52t55.5 35.5t65.5 13q36 0 72 -10.5t65.5 -35.5t47.5 -65t18 -99q0 -51 -16.5 -91.5t-42 -76.5t-54.5 -71.5t-54.5 -78t-42 -95t-16.5 -122.5q0 -53 22 -100t61.5 -82.5t94.5 -56.5
t121 -21q67 0 122 21t94 61t60.5 99t21.5 136v672h150v-686q0 -117 -39.5 -194.5t-103.5 -124t-144 -65.5t-161 -19zM470 1555q0 -35 25 -60t60 -25t60 25t25 60t-25 60t-60 25t-60 -25t-25 -60zM370 1555q0 38 14.5 72t39.5 59t59 39.5t72 14.5t72 -14.5t59 -39.5t39.5 -59
t14.5 -72t-14.5 -72t-39.5 -59t-59 -39.5t-72 -14.5t-72 14.5t-59 39.5t-39.5 59t-14.5 72z" />
    <glyph glyph-name="lo_po.am" horiz-adv-x="1097" 
d="M140 926q0 -16 6.5 -31t18 -26.5t26.5 -18.5t33 -7t33.5 7t27 18.5t18 26.5t6.5 31t-6.5 31t-18 26.5t-27 18.5t-33.5 7t-33 -7t-26.5 -18.5t-18 -26.5t-6.5 -31zM509 -16q-115 0 -199.5 26.5t-140 73t-82.5 109.5t-27 135q0 55 14.5 100.5t37 84t49.5 72t52.5 65t46 63
t29.5 65.5q-32 -15 -68 -15q-33 0 -62.5 13t-51.5 35.5t-34.5 52t-12.5 62.5t14 62.5t38 52t55.5 35.5t65.5 13q36 0 72 -10.5t65.5 -35.5t47.5 -65t18 -99q0 -51 -16.5 -91.5t-42 -76.5t-54.5 -71.5t-54.5 -78t-42 -95t-16.5 -122.5q0 -53 22 -100t61.5 -82.5t94.5 -56.5
t121 -21q67 0 122 21t94 61t60.5 99t21.5 136v1019h150v-1033q0 -117 -39.5 -194.5t-103.5 -124t-144 -65.5t-161 -19zM420 1555q0 -35 25 -60t60 -25t60 25t25 60t-25 60t-60 25t-60 -25t-25 -60zM320 1555q0 38 14.5 72t39.5 59t59 39.5t72 14.5t72 -14.5t59 -39.5
t39.5 -59t14.5 -72t-14.5 -72t-39.5 -59t-59 -39.5t-72 -14.5t-72 14.5t-59 39.5t-39.5 59t-14.5 72z" />
    <glyph glyph-name="lo_pho_sung.am" horiz-adv-x="1258" 
d="M546 166q-20 -62 -47 -98.5t-56.5 -55t-59 -23.5t-54.5 -5q-66 0 -116.5 23.5t-84.5 67.5t-51 107t-17 142v531q0 68 22 113t55 72t73 38t76 11q34 0 65.5 -12.5t55.5 -34t38 -50t14 -61.5t-12.5 -61.5t-34.5 -50t-51.5 -34t-62.5 -12.5q-19 0 -45.5 3.5t-42.5 11.5v-465
q0 -126 34 -182.5t102 -56.5q35 0 59 25t38.5 61.5t21 79.5t6.5 79v190h150v-190q0 -36 6.5 -79t21 -79.5t38.5 -61.5t59 -25q68 0 102 61t34 178v465q-16 -8 -42.5 -11.5t-45.5 -3.5q-33 0 -62.5 12.5t-51.5 34t-34.5 50t-12.5 61.5t14 61.5t38 50t55.5 34t65.5 12.5
q29 0 61 -7t61.5 -24t53.5 -44.5t37 -68.5q26 20 43.5 49t17.5 67q0 24 -11.5 50.5t-31.5 48.5l98 78q34 -38 49.5 -78.5t15.5 -82.5q0 -73 -45 -136.5t-123 -97.5v-519q0 -79 -17 -142t-51 -107t-84.5 -67.5t-116.5 -23.5q-25 0 -54.5 5t-59 23.5t-56.5 55t-47 98.5z
M713 931q0 -32 24.5 -55t59.5 -23t60 23t25 55t-25 55t-60 23t-59.5 -23t-24.5 -55zM379 931q0 32 -24.5 55t-59.5 23t-60 -23t-25 -55t25 -55t60 -23t59.5 23t24.5 55zM460 1555q0 -35 25 -60t60 -25t60 25t25 60t-25 60t-60 25t-60 -25t-25 -60zM360 1555q0 38 14.5 72
t39.5 59t59 39.5t72 14.5t72 -14.5t59 -39.5t39.5 -59t14.5 -72t-14.5 -72t-39.5 -59t-59 -39.5t-72 -14.5t-72 14.5t-59 39.5t-39.5 59t-14.5 72z" />
    <glyph glyph-name="lo_fo_tam.am" horiz-adv-x="1172" 
d="M882 1420h150v-1096q0 -79 -17 -142t-51 -107t-84.5 -67.5t-116.5 -23.5q-25 0 -54.5 5t-59 23.5t-56.5 55t-47 98.5q-20 -62 -47 -98.5t-56.5 -55t-59 -23.5t-54.5 -5q-66 0 -116.5 23.5t-84.5 67.5t-51 107t-17 142v531q0 68 22 113t55 72t73 38t76 11q34 0 65.5 -12.5
t55.5 -34t38 -50t14 -61.5t-12.5 -61.5t-34.5 -50t-51.5 -34t-62.5 -12.5q-19 0 -45.5 3.5t-42.5 11.5v-465q0 -126 34 -182.5t102 -56.5q35 0 59 25t38.5 61.5t21 79.5t6.5 79v190h150v-190q0 -36 6.5 -79t21 -79.5t38.5 -61.5t59 -25q68 0 102 61t34 178v1097zM379 931
q0 32 -24.5 55t-59.5 23t-60 -23t-25 -55t25 -55t60 -23t59.5 23t24.5 55zM460 1555q0 -35 25 -60t60 -25t60 25t25 60t-25 60t-60 25t-60 -25t-25 -60zM360 1555q0 38 14.5 72t39.5 59t59 39.5t72 14.5t72 -14.5t59 -39.5t39.5 -59t14.5 -72t-14.5 -72t-39.5 -59t-59 -39.5
t-72 -14.5t-72 14.5t-59 39.5t-39.5 59t-14.5 72z" />
    <glyph glyph-name="lo_pho_tam.am" horiz-adv-x="1326" 
d="M733 286q0 -35 8.5 -71t27.5 -65t48.5 -47.5t71.5 -18.5q27 0 53 8.5t47 34.5t34 74.5t13 129.5v742h150v-754q0 -69 -19 -129.5t-57 -106.5t-94 -72.5t-129 -26.5q-82 0 -142 28.5t-100 79.5q-44 -49 -104 -78.5t-134 -29.5q-86 0 -151 26.5t-108.5 73t-65.5 109.5
t-22 135q0 55 14.5 100.5t37 84t49.5 72t52.5 65t46 63t29.5 65.5q-32 -15 -68 -15q-33 0 -62.5 13t-51.5 35.5t-34.5 52t-12.5 62.5t14 62.5t38 52t55.5 35.5t65.5 13q36 0 72 -10.5t65.5 -35.5t47.5 -65t18 -99q0 -51 -16.5 -91.5t-42 -77.5t-54.5 -74t-54.5 -81.5
t-42 -99t-16.5 -127.5q0 -53 14 -97.5t39.5 -77t62 -51t81.5 -18.5q84 0 130 53.5t46 147.5v704h150v-703zM140 926q0 -16 6.5 -31t18 -26.5t26.5 -18.5t33 -7t33.5 7t27 18.5t18 26.5t6.5 31t-6.5 31t-18 26.5t-27 18.5t-33.5 7t-33 -7t-26.5 -18.5t-18 -26.5t-6.5 -31z
M570 1555q0 -35 25 -60t60 -25t60 25t25 60t-25 60t-60 25t-60 -25t-25 -60zM470 1555q0 38 14.5 72t39.5 59t59 39.5t72 14.5t72 -14.5t59 -39.5t39.5 -59t14.5 -72t-14.5 -72t-39.5 -59t-59 -39.5t-72 -14.5t-72 14.5t-59 39.5t-39.5 59t-14.5 72z" />
    <glyph glyph-name="lo_fo_sung.am" horiz-adv-x="1326" 
d="M733 286q0 -35 8.5 -71t27.5 -65t48.5 -47.5t71.5 -18.5q27 0 53 8.5t47 34.5t34 74.5t13 129.5v1089h150v-1101q0 -69 -19 -129.5t-57 -106.5t-94 -72.5t-129 -26.5q-82 0 -142 28.5t-100 79.5q-44 -49 -104 -78.5t-134 -29.5q-86 0 -151 26.5t-108.5 73t-65.5 109.5
t-22 135q0 55 14.5 100.5t37 84t49.5 72t52.5 65t46 63t29.5 65.5q-32 -15 -68 -15q-33 0 -62.5 13t-51.5 35.5t-34.5 52t-12.5 62.5t14 62.5t38 52t55.5 35.5t65.5 13q36 0 72 -10.5t65.5 -35.5t47.5 -65t18 -99q0 -51 -16.5 -91.5t-42 -77.5t-54.5 -74t-54.5 -81.5
t-42 -99t-16.5 -127.5q0 -53 14 -97.5t39.5 -77t62 -51t81.5 -18.5q84 0 130 53.5t46 147.5v704h150v-703zM140 926q0 -16 6.5 -31t18 -26.5t26.5 -18.5t33 -7t33.5 7t27 18.5t18 26.5t6.5 31t-6.5 31t-18 26.5t-27 18.5t-33.5 7t-33 -7t-26.5 -18.5t-18 -26.5t-6.5 -31z
M570 1555q0 -35 25 -60t60 -25t60 25t25 60t-25 60t-60 25t-60 -25t-25 -60zM470 1555q0 38 14.5 72t39.5 59t59 39.5t72 14.5t72 -14.5t59 -39.5t39.5 -59t14.5 -72t-14.5 -72t-39.5 -59t-59 -39.5t-72 -14.5t-72 14.5t-59 39.5t-39.5 59t-14.5 72z" />
    <glyph glyph-name="lo_mo.am" horiz-adv-x="1225" 
d="M140 1089q33 0 68 -2.5t68 -11t62.5 -26t52 -47t35.5 -74t13 -107.5v-573q15 -37 42.5 -67.5t62.5 -52t74.5 -33t80.5 -11.5q35 0 76.5 8.5t77 33t59 68.5t23.5 114v765h150v-765q0 -87 -29 -148.5t-80 -100.5t-120.5 -57t-149.5 -18q-56 0 -99 12t-75.5 30t-55.5 39.5
t-38 41.5q-15 -35 -39 -58.5t-52 -38t-57.5 -20.5t-56.5 -6q-34 0 -65.5 12.5t-55.5 34t-38 50t-14 61.5q0 34 12.5 64.5t34.5 53t51.5 35.5t62.5 13q39 0 68 -14v558q0 51 -16.5 79t-40 41t-49 15t-43.5 2v100zM140 146q0 -17 6.5 -32t18 -26t26.5 -17.5t33 -6.5t33.5 6.5
t27 17.5t18 26t6.5 32t-6.5 32t-18 26t-27 17.5t-33.5 6.5t-33 -6.5t-26.5 -17.5t-18 -26t-6.5 -32zM570 1555q0 -35 25 -60t60 -25t60 25t25 60t-25 60t-60 25t-60 -25t-25 -60zM470 1555q0 38 14.5 72t39.5 59t59 39.5t72 14.5t72 -14.5t59 -39.5t39.5 -59t14.5 -72
t-14.5 -72t-39.5 -59t-59 -39.5t-72 -14.5t-72 14.5t-59 39.5t-39.5 59t-14.5 72z" />
    <glyph glyph-name="lo_yo.am" horiz-adv-x="1155" 
d="M197 703q0 -14 3.5 -45.5t9.5 -61.5q16 14 37 24.5t44 17t46 10t42 3.5q37 0 67 -12.5t50 -34t31 -49.5t11 -59q0 -30 -10.5 -57.5t-31 -49.5t-50 -35t-67.5 -13q-22 0 -46 3t-47.5 9.5t-44.5 16t-36 21.5q-3 -13 -4.5 -30t-1.5 -28q0 -63 28 -110t75.5 -77.5t109 -46
t128.5 -15.5q62 0 120.5 14.5t104 48.5t73 88.5t27.5 134.5v1050h150v-1052q0 -73 -20 -129.5t-54 -99t-80 -72t-99 -48t-110 -27t-112 -8.5q-89 0 -175 17.5t-154 57t-109.5 104t-41.5 157.5q0 54 14.5 100.5t40.5 84.5q-28 52 -41.5 110t-13.5 115q0 99 27 167.5t68 111
t88.5 61.5t89.5 19q51 0 89.5 -13t64 -36t38.5 -54.5t13 -67.5q0 -33 -12.5 -59.5t-34.5 -45.5t-51.5 -29.5t-62.5 -10.5q-9 0 -27.5 1.5t-40.5 10t-44.5 25.5t-40.5 49q-7 -12 -12 -31t-8.5 -40.5t-5 -44t-1.5 -40.5zM379 571q-17 0 -35.5 -5.5t-36.5 -15t-34 -23.5
t-26 -31q9 -13 23 -26t31.5 -24t37.5 -18t40 -7q38 0 58.5 21t20.5 54q0 32 -23 53.5t-56 21.5zM458 931q0 32 -24.5 55t-59.5 23t-60 -23t-25 -55t25 -55t60 -23t59.5 23t24.5 55zM450 1555q0 -35 25 -60t60 -25t60 25t25 60t-25 60t-60 25t-60 -25t-25 -60zM350 1555
q0 38 14.5 72t39.5 59t59 39.5t72 14.5t72 -14.5t59 -39.5t39.5 -59t14.5 -72t-14.5 -72t-39.5 -59t-59 -39.5t-72 -14.5t-72 14.5t-59 39.5t-39.5 59t-14.5 72z" />
    <glyph glyph-name="lo_lo_ling.am" horiz-adv-x="1208" 
d="M548 989q-54 0 -111 -8t-103 -25.5t-75.5 -44t-29.5 -63.5q0 -39 35 -61.5t92 -37.5t129.5 -26t148.5 -25.5t148.5 -37.5t129.5 -62t92 -97.5t35 -145.5q0 -101 -47 -172t-121.5 -115t-166.5 -64t-182 -20q-48 0 -101 7.5t-104.5 24t-98 43t-81.5 64t-56 86.5t-21 111
q0 37 15.5 75.5t44.5 70t71.5 52t96.5 20.5q41 0 76.5 -12t61 -34t40 -52t14.5 -67q0 -34 -13 -64t-35.5 -52.5t-52.5 -35.5t-64 -13t-68 18t-58 44q15 -54 51.5 -90t83 -57t98.5 -30t99 -9q70 0 136.5 18t118 52.5t82.5 84.5t31 115q0 76 -35.5 124.5t-94 78.5t-133 46.5
t-152 28t-152 23t-133 31.5t-94 54t-35.5 91q0 51 22.5 90t60.5 68t88 48t104 30.5t109.5 16.5t103.5 5q56 0 127 -10.5t143 -39t138 -79t112 -131.5l-128 -79q-29 74 -76.5 120.5t-102 73t-111 36t-102.5 9.5zM230 373q0 -35 25 -60t60 -25t60 25t25 60t-25 60t-60 25
t-60 -25t-25 -60zM480 1555q0 -35 25 -60t60 -25t60 25t25 60t-25 60t-60 25t-60 -25t-25 -60zM380 1555q0 38 14.5 72t39.5 59t59 39.5t72 14.5t72 -14.5t59 -39.5t39.5 -59t14.5 -72t-14.5 -72t-39.5 -59t-59 -39.5t-72 -14.5t-72 14.5t-59 39.5t-39.5 59t-14.5 72z" />
    <glyph glyph-name="lo_lo_loot.am" horiz-adv-x="1206" 
d="M379 142q0 32 -24.5 55t-59.5 23t-60 -23t-25 -55t25 -55t60 -23t59.5 23t24.5 55zM561 989q-43 0 -96 -11t-104.5 -39t-97.5 -76.5t-75 -122.5l-128 79q46 81 106 133t127 82.5t136 42.5t132 12q99 0 190.5 -23.5t161.5 -70.5t111.5 -117t41.5 -163v-394
q0 -82 -20 -142.5t-56.5 -100t-89 -59t-117.5 -19.5q-58 0 -99.5 20t-71 53t-50 75.5t-37 86.5t-31.5 86.5t-33.5 75.5t-43.5 53t-61 20q-39 0 -69 -20.5t-51 -51t-32 -67.5t-11 -70q28 25 57 32t48 7q33 0 62.5 -12.5t51.5 -34t34.5 -50t12.5 -61.5t-14 -61.5t-38 -50
t-55.5 -34t-65.5 -12.5q-36 0 -76 15t-73 46.5t-55 80.5t-22 117t23 124.5t63.5 97t95.5 63t118 22.5q84 0 137 -34.5t86.5 -86.5t54.5 -112t41 -112t46 -86.5t69 -34.5q19 0 40.5 12t39.5 39.5t30 74t12 115.5v373q0 82 -32.5 138t-83.5 90t-114.5 48.5t-124.5 14.5z
M500 1555q0 -35 25 -60t60 -25t60 25t25 60t-25 60t-60 25t-60 -25t-25 -60zM400 1555q0 38 14.5 72t39.5 59t59 39.5t72 14.5t72 -14.5t59 -39.5t39.5 -59t14.5 -72t-14.5 -72t-39.5 -59t-59 -39.5t-72 -14.5t-72 14.5t-59 39.5t-39.5 59t-14.5 72z" />
    <glyph glyph-name="lo_wo.am" horiz-adv-x="1170" 
d="M60 819q46 81 110 133t132 82.5t132.5 42.5t111.5 12q118 0 208 -31t151.5 -82.5t93 -119.5t31.5 -142v-342q0 -105 -43.5 -179t-114.5 -120.5t-161 -67.5t-184 -21q-48 0 -101.5 8t-105.5 25t-99 45t-83 67.5t-57 92.5t-21 121q0 37 12.5 77.5t39 74.5t68 55.5
t100.5 21.5q42 0 77 -14t60 -38.5t39 -57t14 -69.5q0 -34 -11 -64t-31.5 -52.5t-50 -35.5t-67.5 -13q-40 0 -72 18.5t-58 49.5q12 -60 51.5 -100.5t90.5 -65t106 -35.5t97 -11q64 0 128 14.5t114 48.5t81.5 89t31.5 135v343q0 75 -28.5 127.5t-75.5 85.5t-109 47.5
t-128 14.5q-41 0 -90 -11t-97 -39t-91.5 -76.5t-72.5 -122.5zM220 393q0 -35 25 -60t60 -25t60 25t25 60t-25 60t-60 25t-60 -25t-25 -60zM470 1555q0 -35 25 -60t60 -25t60 25t25 60t-25 60t-60 25t-60 -25t-25 -60zM370 1555q0 38 14.5 72t39.5 59t59 39.5t72 14.5
t72 -14.5t59 -39.5t39.5 -59t14.5 -72t-14.5 -72t-39.5 -59t-59 -39.5t-72 -14.5t-72 14.5t-59 39.5t-39.5 59t-14.5 72z" />
    <glyph glyph-name="lo_so_sung.am" horiz-adv-x="1268" 
d="M183 261q28 25 57 32t48 7q33 0 62.5 -12.5t51.5 -34t34.5 -50t12.5 -61.5t-13 -61.5t-35.5 -50t-54 -34t-67.5 -12.5q-37 0 -76 15t-70.5 46.5t-52 80.5t-20.5 117t23 124.5t63.5 97t95.5 63t118 22.5t107 -20t75 -53t51.5 -74.5t36 -85.5t29 -85.5t31.5 -74.5t42.5 -53
t61.5 -20q19 0 40.5 9t39.5 35t30 73t12 124v346q0 23 -2.5 43.5t-7.5 39.5q-40 -20 -87 -35.5t-97.5 -26t-102.5 -16t-102 -5.5q-44 0 -94.5 3.5t-101.5 12.5t-98 24.5t-83.5 39.5t-58 57t-21.5 78q0 49 33 87t87.5 64t125.5 39t147 13q69 0 139.5 -8.5t136.5 -28
t125 -51.5t104 -78q25 27 39 59t14 70q0 40 -12.5 62.5t-32.5 40.5l81 67q9 -7 23 -20t27 -31.5t22 -43t9 -54.5q0 -66 -29.5 -123.5t-81.5 -105.5q23 -42 36 -92.5t13 -110.5v-320q0 -82 -20 -142.5t-56.5 -100t-89 -59t-117.5 -19.5q-58 0 -98.5 20t-69.5 53t-48.5 75.5
t-35 86.5t-30 86.5t-34 75.5t-46 53t-65.5 20q-41 0 -73.5 -20.5t-54.5 -51t-33.5 -67.5t-11.5 -70zM483 989q-64 0 -116 -8t-89.5 -22t-58 -33t-20.5 -40q0 -32 30 -54t76.5 -35.5t102.5 -19.5t109 -6q40 0 86 4.5t92.5 13.5t90.5 22.5t81 31.5q-27 39 -69.5 67t-93.5 45.5
t-108 25.5t-113 8zM369 142q0 32 -24.5 55t-59.5 23t-60 -23t-25 -55t25 -55t60 -23t59.5 23t24.5 55zM490 1555q0 -35 25 -60t60 -25t60 25t25 60t-25 60t-60 25t-60 -25t-25 -60zM390 1555q0 38 14.5 72t39.5 59t59 39.5t72 14.5t72 -14.5t59 -39.5t39.5 -59t14.5 -72
t-14.5 -72t-39.5 -59t-59 -39.5t-72 -14.5t-72 14.5t-59 39.5t-39.5 59t-14.5 72z" />
    <glyph glyph-name="lo_ho_sung.am" horiz-adv-x="1393" 
d="M140 926q0 -16 6.5 -31t18 -26.5t26.5 -18.5t33 -7t33.5 7t27 18.5t18 26.5t6.5 31t-6.5 31t-18 26.5t-27 18.5t-33.5 7t-33 -7t-26.5 -18.5t-18 -26.5t-6.5 -31zM809 1018q27 30 67.5 50.5t103.5 20.5q67 0 118 -22.5t85.5 -64t52 -101.5t17.5 -135v-766h-150v805
q0 63 -14 99.5t-34.5 55t-43.5 24t-40 5.5q-23 0 -47.5 -9t-44.5 -30t-33 -56.5t-13 -87.5v-475q0 -93 -29 -158.5t-78 -107.5t-115 -61.5t-139 -19.5q-92 0 -161.5 26.5t-116.5 73t-70.5 109.5t-23.5 135q0 83 24.5 144.5t56.5 112t63 96t45 97.5q-32 -15 -68 -15
q-33 0 -62.5 13t-51.5 35.5t-34.5 52t-12.5 62.5t14 62.5t38 52t55.5 35.5t65.5 13q36 0 72 -10.5t65.5 -35.5t47.5 -65t18 -99q0 -51 -14 -90t-34.5 -74.5t-44.5 -70.5t-44.5 -79.5t-34.5 -101.5t-14 -135q0 -45 14 -88.5t43 -78t72.5 -56t103.5 -21.5q27 0 61.5 7t65 29.5
t52 65t21.5 113.5v476q-8 -2 -20 -2h-19q-32 0 -59.5 11t-47.5 31.5t-31.5 48.5t-11.5 62q0 37 13.5 67t37 51.5t54 33t64.5 11.5q44 0 82 -15t64 -56zM574 927q0 -17 6.5 -32t18 -26t26.5 -17.5t33 -6.5t33.5 6.5t27 17.5t18 26t6.5 32t-6.5 32t-18 26t-27 17.5t-33.5 6.5
t-33 -6.5t-26.5 -17.5t-18 -26t-6.5 -32zM570 1555q0 -35 25 -60t60 -25t60 25t25 60t-25 60t-60 25t-60 -25t-25 -60zM470 1555q0 38 14.5 72t39.5 59t59 39.5t72 14.5t72 -14.5t59 -39.5t39.5 -59t14.5 -72t-14.5 -72t-39.5 -59t-59 -39.5t-72 -14.5t-72 14.5t-59 39.5
t-39.5 59t-14.5 72z" />
    <glyph glyph-name="lo_o.am" horiz-adv-x="1170" 
d="M481 641q-66 0 -138 10t-133 34t-100.5 63.5t-39.5 99.5q0 58 39.5 103t102.5 75.5t140.5 46.5t153.5 16q106 0 201.5 -21.5t167 -73.5t113.5 -138t42 -215v-249q0 -105 -43.5 -182t-114.5 -127.5t-161 -74.5t-184 -24q-48 0 -101.5 7.5t-105.5 24t-99 42.5t-83 63.5
t-57 87t-21 112.5q0 35 11.5 74t36.5 71.5t64 54t94 21.5q42 0 77 -14t60 -38.5t39 -57t14 -69.5q0 -34 -11.5 -63t-32.5 -50.5t-51.5 -33.5t-68.5 -12q-40 0 -64.5 15t-48.5 41q21 -55 62 -89.5t90 -53.5t100.5 -26t93.5 -7q64 0 128 18.5t114 56.5t81.5 96t31.5 136v280
q0 18 -1.5 35t-3.5 33q-40 -23 -87.5 -41t-99 -31t-104 -19.5t-103.5 -6.5zM505 989q-64 0 -118 -13.5t-93.5 -34t-62 -45t-22.5 -45.5q0 -32 22.5 -53.5t60.5 -34t87 -17.5t102 -5q42 0 90.5 6.5t97 18.5t94.5 30t83 41q-20 41 -54.5 70t-79 47t-97.5 26.5t-110 8.5z
M206 363q0 -35 25 -60t60 -25t60 25t25 60t-25 60t-60 25t-60 -25t-25 -60zM450 1555q0 -35 25 -60t60 -25t60 25t25 60t-25 60t-60 25t-60 -25t-25 -60zM350 1555q0 38 14.5 72t39.5 59t59 39.5t72 14.5t72 -14.5t59 -39.5t39.5 -59t14.5 -72t-14.5 -72t-39.5 -59
t-59 -39.5t-72 -14.5t-72 14.5t-59 39.5t-39.5 59t-14.5 72z" />
    <glyph glyph-name="lo_ho_tam.am" horiz-adv-x="1179" 
d="M1039 1073q0 -40 -13 -85t-42.5 -83t-76.5 -63t-114 -25q-45 0 -84.5 12.5t-75.5 32t-70.5 41.5t-70.5 41.5t-74.5 32t-82.5 12.5q-23 0 -44.5 -4t-38.5 -14.5t-27 -28t-10 -44.5q0 -45 35.5 -74.5t93.5 -50.5t132 -37.5t151 -35.5t151 -45t132 -65t93.5 -96t35.5 -139
q0 -101 -45.5 -172t-119 -115t-166 -64t-186.5 -20q-48 0 -101 8.5t-104.5 26t-98 45t-81.5 64.5t-56 85t-21 107q0 37 11.5 75.5t37.5 70t68.5 52t104.5 20.5q44 0 80.5 -12t62.5 -34t40.5 -52t14.5 -67q0 -34 -13 -64t-35.5 -52.5t-52.5 -35.5t-64 -13q-24 0 -47 7.5
t-42.5 19.5t-36 26t-28.5 27q17 -61 58 -100.5t92 -62.5t107 -32t103 -9q84 0 152 19.5t116 55t74 85t26 110.5q0 75 -35.5 123t-94 78t-133 47.5t-152 31t-152 29t-133 41t-94 67t-35.5 107.5q0 55 20.5 94.5t53.5 65.5t73.5 38.5t79.5 12.5q61 0 113 -12.5t97 -32
t83 -41.5t71 -41.5t62.5 -32t56.5 -12.5q22 0 43.5 4t38 20t27 47t10.5 85h150zM230 373q0 -35 25 -60t60 -25t60 25t25 60t-25 60t-60 25t-60 -25t-25 -60zM500 1555q0 -35 25 -60t60 -25t60 25t25 60t-25 60t-60 25t-60 -25t-25 -60zM400 1555q0 38 14.5 72t39.5 59
t59 39.5t72 14.5t72 -14.5t59 -39.5t39.5 -59t14.5 -72t-14.5 -72t-39.5 -59t-59 -39.5t-72 -14.5t-72 14.5t-59 39.5t-39.5 59t-14.5 72z" />
    <glyph glyph-name="lo_ho_no.am" horiz-adv-x="1819" 
d="M1243 252v-4q31 -75 72 -119.5t86 -44.5q26 0 47.5 9t37.5 33.5t24.5 68.5t8.5 113v765h160v-765q0 -87 -17 -148.5t-49.5 -100.5t-79 -57t-106.5 -18q-45 0 -79.5 12.5t-60 31.5t-43 41.5t-29.5 42.5q-21 -44 -53.5 -69.5t-70.5 -38.5t-78.5 -16.5t-78.5 -3.5v100
q18 0 45 2t52.5 15t43.5 41t18 79v584q0 63 -14 99.5t-34.5 55.5t-43.5 24t-40 5q-23 0 -46 -10.5t-41 -33t-29.5 -57t-11.5 -82.5v-475q0 -93 -29 -158.5t-78 -107.5t-115 -61.5t-139 -19.5q-92 0 -161.5 26.5t-116.5 73t-70.5 109.5t-23.5 135q0 83 24.5 144.5t56.5 112
t63 96t45 97.5q-32 -15 -68 -15q-33 0 -62.5 13t-51.5 35.5t-34.5 52t-12.5 62.5t14 62.5t38 52t55.5 35.5t65.5 13q36 0 72 -10.5t65.5 -35.5t47.5 -65t18 -99q0 -51 -14 -92t-34.5 -78.5t-44.5 -75t-44.5 -82t-34.5 -98.5t-14 -125q0 -45 14 -89t43 -78.5t72.5 -55.5
t103.5 -21q27 0 61.5 10t65 35t52 66.5t21.5 103.5v476q-8 -2 -20 -2h-19q-32 0 -59.5 11t-47.5 31.5t-31.5 48.5t-11.5 62q0 37 13.5 67t37 51.5t54 33t64.5 11.5q44 0 82 -15t64 -56q27 30 67.5 50.5t103.5 20.5q67 0 116.5 -23.5t82 -65.5t48.5 -98.5t16 -122.5v-527z
M140 926q0 -16 6.5 -31t18 -26.5t26.5 -18.5t33 -7t33.5 7t27 18.5t18 26.5t6.5 31t-6.5 31t-18 26.5t-27 18.5t-33.5 7t-33 -7t-26.5 -18.5t-18 -26.5t-6.5 -31zM574 927q0 -17 6.5 -32t18 -26t26.5 -17.5t33 -6.5t33.5 6.5t27 17.5t18 26t6.5 32t-6.5 32t-18 26t-27 17.5
t-33.5 6.5t-33 -6.5t-26.5 -17.5t-18 -26t-6.5 -32zM860 1555q0 -35 25 -60t60 -25t60 25t25 60t-25 60t-60 25t-60 -25t-25 -60zM760 1555q0 38 14.5 72t39.5 59t59 39.5t72 14.5t72 -14.5t59 -39.5t39.5 -59t14.5 -72t-14.5 -72t-39.5 -59t-59 -39.5t-72 -14.5t-72 14.5
t-59 39.5t-39.5 59t-14.5 72z" />
    <glyph glyph-name="lo_ho_mo.am" horiz-adv-x="1849" 
d="M1292 218v-13q27 -56 64 -88.5t75 -32.5q26 0 49 10.5t40.5 36t28 66.5t10.5 103v773h150v-765q0 -87 -17 -148.5t-49.5 -100.5t-79 -57t-106.5 -18q-39 0 -68 9t-51 23.5t-38.5 33t-28.5 37.5q-17 -29 -40 -49t-49 -32t-53.5 -17t-52.5 -5q-34 0 -65.5 12.5t-55.5 34
t-38 50t-14 61.5q0 34 12.5 64.5t34.5 53t51.5 35.5t62.5 13q19 0 40.5 -3t37.5 -11v520q0 56 -17 90.5t-41 53t-49 25t-41 6.5q-25 0 -53 -8.5t-52 -28.5t-40 -54.5t-16 -85.5v-481q0 -93 -29 -158.5t-78 -107.5t-115 -61.5t-139 -19.5q-92 0 -161.5 26.5t-116.5 73
t-70.5 109.5t-23.5 135q0 83 24.5 144.5t56.5 112t63 96t45 97.5q-32 -15 -68 -15q-33 0 -62.5 13t-51.5 35.5t-34.5 52t-12.5 62.5t14 62.5t38 52t55.5 35.5t65.5 13q36 0 72 -10.5t65.5 -35.5t47.5 -65t18 -99q0 -51 -14 -90.5t-34.5 -75t-44.5 -71.5t-44.5 -80
t-34.5 -100.5t-14 -133.5q0 -47 14 -91t43 -78t72.5 -54.5t103.5 -20.5q27 0 61.5 7.5t65 31t52 65.5t21.5 111v476q-8 -2 -20 -2h-19q-32 0 -59.5 11t-47.5 31.5t-31.5 48.5t-11.5 62q0 37 13.5 67t37 51.5t54 33t64.5 11.5q44 0 82 -15t64 -56q13 15 34.5 28t48 22.5
t57 15t61.5 5.5q67 0 119.5 -20.5t88.5 -57.5t55 -89.5t19 -115.5v-588zM140 926q0 -16 6.5 -31t18 -26.5t26.5 -18.5t33 -7t33.5 7t27 18.5t18 26.5t6.5 31t-6.5 31t-18 26.5t-27 18.5t-33.5 7t-33 -7t-26.5 -18.5t-18 -26.5t-6.5 -31zM574 927q0 -17 6.5 -32t18 -26
t26.5 -17.5t33 -6.5t33.5 6.5t27 17.5t18 26t6.5 32t-6.5 32t-18 26t-27 17.5t-33.5 6.5t-33 -6.5t-26.5 -17.5t-18 -26t-6.5 -32zM983 146q0 -17 6.5 -32t18 -26t26.5 -17.5t33 -6.5t33.5 6.5t27 17.5t18 26t6.5 32t-6.5 32t-18 26t-27 17.5t-33.5 6.5t-33 -6.5
t-26.5 -17.5t-18 -26t-6.5 -32zM870 1555q0 -35 25 -60t60 -25t60 25t25 60t-25 60t-60 25t-60 -25t-25 -60zM770 1555q0 38 14.5 72t39.5 59t59 39.5t72 14.5t72 -14.5t59 -39.5t39.5 -59t14.5 -72t-14.5 -72t-39.5 -59t-59 -39.5t-72 -14.5t-72 14.5t-59 39.5t-39.5 59
t-14.5 72z" />
    <glyph glyph-name="lo_vs_mai_kan.right" 
d="M-881 1693q44 0 79.5 -12.5t60.5 -34.5t38.5 -52t13.5 -65q0 -73 -43.5 -114.5t-113.5 -47.5q60 -23 121 -33.5t112 -10.5q82 0 138.5 18.5t91 46.5t50 61.5t15.5 64.5q0 29 -14.5 59.5t-52.5 66.5l112 75q16 -17 32.5 -36.5t30 -43t22 -50.5t8.5 -59q0 -68 -34 -123.5
t-92.5 -95.5t-137.5 -62t-170 -22q-84 0 -164.5 18.5t-144.5 54.5t-103 88.5t-39 120.5q0 40 14.5 74.5t39 60t58 39.5t72.5 14zM-945 1528q0 -35 25 -60t60 -25t60 25t25 60t-25 60t-60 25t-60 -25t-25 -60z" />
    <glyph glyph-name="lo_vs_mai_kon.right" 
d="M-946 1436q0 -35 25 -60t60 -25t60 25t25 60t-25 60t-60 25t-60 -25t-25 -60zM-881 1271q-39 0 -72.5 14t-58 39.5t-39 59.5t-14.5 75q0 67 39 119.5t103 88.5t144.5 55t164.5 19q91 0 170 -22t137.5 -62t92.5 -96t34 -123q0 -32 -8.5 -59t-22 -50.5t-30 -43t-32.5 -36.5
l-112 75q38 36 52.5 66.5t14.5 59.5q0 31 -15.5 64.5t-50 61.5t-91 46.5t-138.5 18.5q-51 0 -112 -10.5t-121 -33.5q70 -6 113.5 -47.5t43.5 -114.5q0 -35 -13.5 -65t-38.5 -52t-60.5 -34.5t-79.5 -12.5z" />
    <glyph glyph-name="lo_cancellation_mark.comb" 
d="M-293 1765q-15 -19 -31 -28.5t-38 -9.5q-21 0 -44 4.5t-45.5 9.5t-45.5 9.5t-44 4.5q-30 0 -59.5 -7.5t-53.5 -22.5t-38.5 -38t-14.5 -53q10 7 24.5 12t30 8.5t29 5t21.5 1.5q25 0 49.5 -9.5t43.5 -26t30.5 -39.5t11.5 -50q0 -69 -43.5 -105.5t-115.5 -36.5
q-26 0 -60 11.5t-64 37t-51 65.5t-21 97q0 60 22 103.5t57.5 71.5t81 41.5t92.5 13.5q33 0 55.5 -5.5t46.5 -5.5q15 0 31 1t31 5t28 11.5t21 20.5zM-704 1527q0 -16 9 -30t23.5 -24t31.5 -16t33 -6q32 0 54.5 22t22.5 54t-22.5 54.5t-54.5 22.5q-16 0 -33 -6t-31.5 -16.5
t-23.5 -24.5t-9 -30z" />
    </font>
</defs>
</svg>
