<?xml version="1.0" standalone="no"?>
<!DOCTYPE svg PUBLIC "-//W3C//DTD SVG 1.1//EN" "http://www.w3.org/Graphics/SVG/1.1/DTD/svg11.dtd" >
<svg xmlns="http://www.w3.org/2000/svg" xmlns:xlink="http://www.w3.org/1999/xlink" version="1.1">
<metadata>
Created by FontForge 20170731 at Sat Aug 13 08:47:30 2005
 By Aleksey,,,
Copr.1995, The Font Bureau, Inc.
</metadata>
<defs>
<font id="AgencyFB-Bold" horiz-adv-x="468" >
  <font-face 
    font-family="AgencyFB"
    font-weight="700"
    font-stretch="normal"
    units-per-em="1000"
    panose-1="2 0 8 6 4 0 0 2 0 3"
    ascent="800"
    descent="-200"
    x-height="493"
    cap-height="764"
    bbox="-55 -200 916 932"
    underline-thickness="20"
    underline-position="-153"
    unicode-range="U+0005-2122"
  />
<missing-glyph horiz-adv-x="500" 
 />
    <glyph glyph-name=".notdef" horiz-adv-x="500" 
 />
    <glyph glyph-name=".null" horiz-adv-x="0" 
 />
    <glyph glyph-name="nonmarkingreturn" horiz-adv-x="206" 
 />
    <glyph glyph-name="breve" horiz-adv-x="408" 
d="M324 585q0 -59 -59 -59h-121q-59 0 -59 59v67h81v-57h77v57h81v-67v0z" />
    <glyph glyph-name="dotaccent" horiz-adv-x="408" 
d="M150 526v109h109v-109h-109z" />
    <glyph glyph-name="ring" horiz-adv-x="408" 
d="M316 577q0 -51 -52 -51h-120q-51 0 -51 51v98q0 51 51 51h120q52 0 52 -51v-98v0zM240 663h-72v-74h72v74z" />
    <glyph glyph-name="hungarumlaut" unicode="&#xa;" horiz-adv-x="408" 
d="M251 526h-69v4l78 126h123v-3zM98 526h-69v4l78 126h123v-3z" />
    <glyph glyph-name="ogonek" horiz-adv-x="408" 
d="M140 -189q-47 0 -47 47v52q0 20 5.5 29.5t16.5 20.5l53 50h99v-5l-89 -86v-43h129v-65h-167z" />
    <glyph glyph-name="caron" horiz-adv-x="408" 
d="M243 526h-77l-101 127v4h72l67 -56l67 56h73v-4z" />
    <glyph glyph-name="dotlessi" unicode="&#xd;" horiz-adv-x="196" 
d="M43 0v493h110v-493h-110z" />
    <glyph glyph-name="fraction" horiz-adv-x="444" 
d="M123 0h-104v7l302 757h104v-7z" />
    <glyph glyph-name="fi" horiz-adv-x="451" 
d="M297 0v398h-122v-398h-111v398h-51v95h51v210q0 61 62 61h220q62 0 62 -61v-139h-111v103h-122v-174h233v-493h-111z" />
    <glyph glyph-name="fl" horiz-adv-x="451" 
d="M297 0v667h-122v-174h71v-95h-71v-398h-111v398h-51v95h51v210q0 61 62 61h282v-764h-111z" />
    <glyph glyph-name="Lslash" horiz-adv-x="388" 
d="M66 0v241l-39 -27h-6v111l45 29v410h113v-332l78 52h6v-110l-84 -55v-216h188v-103h-301z" />
    <glyph glyph-name="lslash" horiz-adv-x="248" 
d="M178 316v-316h-110v243l-42 -28h-7v104l49 33v412h110v-339l45 29h6v-104z" />
    <glyph glyph-name="Zcaron" horiz-adv-x="390" 
d="M19 0v61l214 600h-197v103h333v-66l-213 -595h214v-103h-351zM241 798h-77l-101 127v4h72l67 -56l67 56h73v-4z" />
    <glyph glyph-name="zcaron" horiz-adv-x="347" 
d="M22 0v66l164 336h-151v91h284v-66l-165 -336h165v-91h-297zM217 526h-77l-101 127v4h72l67 -56l67 56h73v-4z" />
    <glyph glyph-name="space" unicode=" " horiz-adv-x="206" 
 />
    <glyph glyph-name="space" unicode="&#xa0;" horiz-adv-x="206" 
 />
    <glyph glyph-name="exclam" unicode="!" horiz-adv-x="214" 
d="M152 178h-90l-16 586h122zM50 0v117h113v-117h-113z" />
    <glyph glyph-name="quotedbl" unicode="&#x22;" horiz-adv-x="345" 
d="M287 525h-69l-21 239h111zM126 525h-68l-22 239h112z" />
    <glyph glyph-name="numbersign" unicode="#" horiz-adv-x="542" 
d="M428 478l-31 -194h88v-93h-103l-31 -191h-101l31 191h-81l-30 -191h-102l31 191h-76v93h91l31 194h-87v93h102l31 193h101l-31 -193h81l31 193h102l-32 -193h77v-93h-92zM246 478l-31 -194h81l31 194h-81z" />
    <glyph glyph-name="dollar" unicode="$" horiz-adv-x="457" 
d="M410 77q0 -35 -18 -52.5t-48 -17.5h-64v-68h-107v68h-64q-30 0 -47.5 17.5t-17.5 52.5v175h114v-153h138v149l-227 215q-14 13 -19.5 26t-5.5 36v162q0 35 17.5 52.5t47.5 17.5h64v68h107v-68h64q31 0 48.5 -17.5t17.5 -51.5v-165h-114v140h-138v-134l226 -213
q14 -14 20 -27t6 -35v-177v0z" />
    <glyph glyph-name="percent" unicode="%" horiz-adv-x="656" 
d="M287 443q0 -59 -59 -59h-132q-59 0 -59 59v262q0 59 59 59h132q59 0 59 -59v-262v0zM164 0h-89v7l416 757h89v-7zM620 59q0 -59 -59 -59h-133q-59 0 -59 59v262q0 59 59 59h133q59 0 59 -62v-259v0zM205 693h-87v-238h87v238zM537 309h-86v-238h86v238z" />
    <glyph glyph-name="ampersand" unicode="&#x26;" horiz-adv-x="488" 
d="M412 349v-349h-299q-69 0 -69 69v233q0 23 5.5 34.5t24.5 26.5l52 36l-51 35q-17 13 -23 24.5t-6 34.5v202q0 69 69 69h232q69 0 69 -69v-159h-112v132h-145v-185l52 -36h255v-98h-54zM301 349h-93l-52 -37v-216h145v253z" />
    <glyph glyph-name="quotesingle" unicode="'" horiz-adv-x="184" 
d="M126 525h-68l-22 239h112z" />
    <glyph glyph-name="parenleft" unicode="(" horiz-adv-x="304" 
d="M166 -98q-27 43 -50 89.5t-39.5 99t-26 112.5t-9.5 130t9.5 130t26 112.5t39.5 98.5t50 90h113v-5q-27 -48 -48.5 -95.5t-36.5 -99t-23 -108.5t-8 -123t8 -123t23 -108.5t36.5 -99t48.5 -95.5v-5h-113z" />
    <glyph glyph-name="parenright" unicode=")" horiz-adv-x="304" 
d="M264 333q0 -70 -9.5 -130t-26 -112.5t-39.5 -99t-50 -89.5h-113v5q27 48 48.5 95.5t36.5 99t23 108.5t8 123t-8 123t-23 108.5t-36.5 99t-48.5 95.5v5h113q27 -44 50 -90t39.5 -98.5t26 -112.5t9.5 -130z" />
    <glyph glyph-name="asterisk" unicode="*" horiz-adv-x="458" 
d="M368 445l-99 73l9 -127h-99l11 127l-100 -73l-52 85l118 51l-118 52l52 85l100 -72l-11 126h99l-9 -126l99 72l53 -85l-118 -52l118 -51z" />
    <glyph glyph-name="plus" unicode="+" horiz-adv-x="474" 
d="M289 287v-146h-104v146h-149v95h149v146h104v-146h149v-95h-149z" />
    <glyph glyph-name="comma" unicode="," horiz-adv-x="184" 
d="M101 -79h-74l14 196h117z" />
    <glyph glyph-name="hyphen" unicode="-" horiz-adv-x="308" 
d="M37 243v102h233v-102h-233z" />
    <glyph glyph-name="period" unicode="." horiz-adv-x="184" 
d="M37 0v118h110v-118h-110z" />
    <glyph glyph-name="slash" unicode="/" horiz-adv-x="444" 
d="M123 0h-104v7l302 757h104v-7z" />
    <glyph glyph-name="zero" unicode="0" horiz-adv-x="467" 
d="M421 70q0 -34 -18 -52t-51 -18h-238q-68 0 -68 70v624q0 70 69 70h237q33 0 51 -18t18 -52v-624v0zM309 666h-151v-568h151v568z" />
    <glyph glyph-name="one" unicode="1" horiz-adv-x="235" 
d="M72 0v539h-44v15l59 210h97v-764h-112z" />
    <glyph glyph-name="two" unicode="2" horiz-adv-x="441" 
d="M405 547q0 -26 -5.5 -42t-19.5 -38l-210 -367h234v-100h-371v71l259 455v141h-139v-142h-112v170q0 33 18 51t52 18h224q33 0 51.5 -18t18.5 -51v-148v0z" />
    <glyph glyph-name="three" unicode="3" horiz-adv-x="460" 
d="M417 70q0 -70 -69 -70h-234q-68 0 -68 70v176h112v-148h147v192l-140 96v24l140 95v161h-147v-139h-112v167q0 34 18 52t51 18h233q33 0 51 -18t18 -52v-180q0 -26 -9 -42.5t-29 -27.5l-71 -46l72 -45q20 -11 28.5 -27t8.5 -42v-214v0z" />
    <glyph glyph-name="four" unicode="4" horiz-adv-x="455" 
d="M377 144v-144h-109v144h-251v68l190 552h116v-4l-178 -519h123v230h109v-230h58v-97h-58z" />
    <glyph glyph-name="five" unicode="5" horiz-adv-x="454" 
d="M411 70q0 -70 -69 -70h-229q-68 0 -68 70v176h112v-148h142v294h-254l12 372h349v-100h-243l-7 -174h186q34 0 51.5 -18t17.5 -51v-351v0z" />
    <glyph glyph-name="six" unicode="6" horiz-adv-x="461" 
d="M416 70q0 -70 -69 -70h-232q-69 0 -69 70v624q0 70 68 70h231q33 0 51 -18t18 -52v-162h-112v134h-144v-230h189q34 0 51.5 -18t17.5 -51v-297v0zM304 339h-146v-241h146v241z" />
    <glyph glyph-name="seven" unicode="7" horiz-adv-x="431" 
d="M231 0h-117l171 666h-146v-112h-110v210h378v-73z" />
    <glyph glyph-name="eight" unicode="8" horiz-adv-x="469" 
d="M423 70q0 -34 -18 -52t-51 -18h-241q-68 0 -68 70v222q0 26 7 41t26 26l63 37l-62 37q-18 11 -25.5 25.5t-7.5 38.5v197q0 70 69 70h238q68 0 68 -70v-197q0 -25 -7.5 -39t-25.5 -25l-62 -37l63 -37q20 -11 27 -25t7 -42v-222v0zM308 668h-148v-183l74 -44l74 44v183z
M309 308l-75 43l-76 -43v-212h151v212z" />
    <glyph glyph-name="nine" unicode="9" horiz-adv-x="461" 
d="M415 70q0 -34 -18 -52t-51 -18h-230q-33 0 -51 18t-18 52v162h112v-134h143v230h-190q-33 0 -50.5 18t-17.5 51v297q0 70 68 70h233q70 0 70 -70v-624v0zM302 666h-146v-241h146v241z" />
    <glyph glyph-name="colon" unicode=":" horiz-adv-x="184" 
d="M37 310v119h110v-119h-110zM37 0v118h110v-118h-110z" />
    <glyph glyph-name="semicolon" unicode=";" horiz-adv-x="184" 
d="M37 310v119h110v-119h-110zM97 -79h-74l14 196h117z" />
    <glyph glyph-name="less" unicode="&#x3c;" horiz-adv-x="364" 
d="M316 99l-284 202v58l284 202h6v-118l-168 -113l168 -113v-118h-6z" />
    <glyph glyph-name="equal" unicode="=" horiz-adv-x="467" 
d="M39 375v94h389v-94h-389zM39 182v93h389v-93h-389z" />
    <glyph glyph-name="greater" unicode="&#x3e;" horiz-adv-x="364" 
d="M49 99h-7v118l169 113l-169 113v118h7l284 -202v-58z" />
    <glyph glyph-name="question" unicode="?" horiz-adv-x="424" 
d="M389 536q0 -22 -4.5 -35.5t-15.5 -28.5l-111 -150v-144h-111v130q0 23 4.5 37t15.5 29l110 149v146h-129v-139h-112v164q0 70 70 70h213q33 0 51.5 -18t18.5 -52v-158v0zM145 0v117h115v-117h-115z" />
    <glyph glyph-name="at" unicode="@" horiz-adv-x="583" 
d="M89 0q-44 0 -44 44v676q0 44 44 44h405q44 0 44 -44v-509q0 -44 -44 -44h-272q-44 0 -44 43v171q0 20 11.5 32t32.5 12h100v109h-63v-68h-76v91q0 44 43 44h131q44 0 44 -44v-338h85v495h-389v-664h441v-50h-449zM322 362h-65v-131h65v131z" />
    <glyph glyph-name="A" unicode="A" horiz-adv-x="451" 
d="M320 0l-23 145h-143l-23 -145h-113v2l148 763h120l147 -763v-2h-113zM225 588l-56 -345h112z" />
    <glyph glyph-name="B" unicode="B" horiz-adv-x="465" 
d="M421 70q0 -70 -70 -70h-305v764h303q68 0 68 -70v-197q0 -27 -8.5 -42t-28.5 -27l-47 -29l50 -31q20 -12 29 -28t9 -43v-227v0zM303 668h-143v-224h88l55 39v185zM306 314l-56 37h-90v-255h146v218z" />
    <glyph glyph-name="C" unicode="C" horiz-adv-x="466" 
d="M422 70q0 -70 -70 -70h-238q-68 0 -68 70v624q0 70 68 70h238q70 0 70 -70v-179h-114v151h-148v-568h148v161h114v-189v0z" />
    <glyph glyph-name="D" unicode="D" horiz-adv-x="469" 
d="M427 144q0 -66 -39.5 -105t-108.5 -39h-233v764h233q70 0 109 -39.5t39 -105.5v-475v0zM312 602q0 31 -18 47.5t-49 16.5h-85v-568h82q35 0 52.5 17.5t17.5 47.5v439z" />
    <glyph glyph-name="E" unicode="E" horiz-adv-x="395" 
d="M46 0v764h314v-101h-200v-223h172v-99h-172v-240h203v-101h-317z" />
    <glyph glyph-name="F" unicode="F" horiz-adv-x="377" 
d="M160 663v-226h169v-99h-169v-338h-114v764h312v-101h-198z" />
    <glyph glyph-name="G" unicode="G" horiz-adv-x="469" 
d="M424 70q0 -70 -70 -70h-240q-68 0 -68 70v624q0 70 69 70h239q70 0 70 -70v-163h-115v135h-149v-568h149v214h-85v97h200v-339v0z" />
    <glyph glyph-name="H" unicode="H" horiz-adv-x="475" 
d="M315 0v343h-155v-343h-114v764h114v-315h155v315h115v-764h-115z" />
    <glyph glyph-name="I" unicode="I" horiz-adv-x="210" 
d="M48 0v764h114v-764h-114z" />
    <glyph glyph-name="J" unicode="J" horiz-adv-x="434" 
d="M389 70q0 -70 -70 -70h-217q-33 0 -51 18t-18 52v188h114v-160h128v666h114v-694v0z" />
    <glyph glyph-name="K" unicode="K" horiz-adv-x="431" 
d="M305 0l-145 341v-341h-114v764h114v-323l127 323h125v-5l-155 -363l174 -391v-5h-126z" />
    <glyph glyph-name="L" unicode="L" horiz-adv-x="368" 
d="M46 0v764h114v-662h186v-102h-300z" />
    <glyph glyph-name="M" unicode="M" horiz-adv-x="553" 
d="M398 0v377q0 11 0.5 25t2.5 27q2 15 4 31l-99 -390h-58l-99 390q1 -16 3 -31q2 -13 3 -27t1 -25v-377h-110v764h108l120 -422q1 -3 1 -8.5t1 -11.5q0 -7 1 -15q0 8 1 15q0 12 2 20l120 422h108v-764h-110z" />
    <glyph glyph-name="N" unicode="N" horiz-adv-x="479" 
d="M333 0l-183 481q1 -10 3 -20q2 -8 3 -17.5t1 -17.5v-426h-111v764h100l183 -471l-4 20q-2 8 -2.5 17.5t-0.5 17.5v416h111v-764h-100z" />
    <glyph glyph-name="O" unicode="O" horiz-adv-x="477" 
d="M431 70q0 -34 -18 -52t-51 -18h-248q-68 0 -68 70v624q0 70 68 70h248q33 0 51 -18t18 -52v-624v0zM317 666h-157v-568h157v568z" />
    <glyph glyph-name="P" unicode="P" horiz-adv-x="450" 
d="M415 348q0 -34 -18 -52.5t-52 -18.5h-185v-277h-114v764h299q70 0 70 -70v-346v0zM300 666h-140v-291h140v291z" />
    <glyph glyph-name="Q" unicode="Q" horiz-adv-x="492" 
d="M475 -1l-51 39l-2 -5q-14 -33 -60 -33h-248q-68 0 -68 70v624q0 70 69 70h247q69 0 69 -70v-553l52 -37v-105h-8zM317 125l-67 51v104h7l60 -45v431h-157v-568h157v27z" />
    <glyph glyph-name="R" unicode="R" horiz-adv-x="461" 
d="M318 0l-126 355v69h112v242h-144v-666h-114v764h303q69 0 69 -70v-278q0 -68 -68 -70h-39l126 -342v-4h-119z" />
    <glyph glyph-name="S" unicode="S" horiz-adv-x="457" 
d="M412 70q0 -34 -18 -52t-51 -18h-230q-33 0 -51 18t-18 52v182h114v-156h140v150l-229 217q-14 13 -19.5 26t-5.5 35v170q0 34 18 52t51 18h230q33 0 51 -18t18 -51v-171h-114v144h-140v-138l229 -216q14 -14 19.5 -27t5.5 -35v-182v0z" />
    <glyph glyph-name="T" unicode="T" horiz-adv-x="390" 
d="M252 663v-663h-114v663h-125v101h365v-101h-126z" />
    <glyph glyph-name="U" unicode="U" horiz-adv-x="474" 
d="M428 70q0 -70 -70 -70h-243q-69 0 -69 70v694h114v-666h154v666h114v-694v0z" />
    <glyph glyph-name="V" unicode="V" horiz-adv-x="445" 
d="M280 -1h-114l-146 763v2h115l85 -524l3 -65l3 65l86 524h114v-2z" />
    <glyph glyph-name="W" unicode="W" horiz-adv-x="628" 
d="M498 -1h-112l-68 433q-2 12 -2 28.5t-2 41.5q-2 -25 -2 -41.5t-2 -28.5l-68 -433h-112l-112 765h116l59 -453q2 -13 2 -29t2 -41q2 25 2 41t2 29l66 453h94l66 -453q2 -14 2 -29.5t2 -40.5q2 25 2 40.5t2 29.5l59 453h116z" />
    <glyph glyph-name="X" unicode="X" horiz-adv-x="440" 
d="M303 0l-84 269l-84 -269h-122v4l143 387l-134 369v4h122l76 -249l77 249h121v-4l-134 -366l143 -390v-4h-124z" />
    <glyph glyph-name="Y" unicode="Y" horiz-adv-x="443" 
d="M279 281v-281h-115v281l-151 479v4h118l91 -332l91 332h117v-4z" />
    <glyph glyph-name="Z" unicode="Z" horiz-adv-x="390" 
d="M19 0v61l214 600h-197v103h333v-66l-213 -595h214v-103h-351z" />
    <glyph glyph-name="bracketleft" unicode="[" horiz-adv-x="294" 
d="M113 -121q-67 0 -67 67v752q0 66 67 66h146v-102h-101v-681h101v-102h-146z" />
    <glyph glyph-name="backslash" unicode="\" horiz-adv-x="444" 
d="M321 0l-302 757v7h104l302 -757v-7h-104z" />
    <glyph glyph-name="bracketright" unicode="]" horiz-adv-x="294" 
d="M249 -54q0 -67 -67 -67h-147v102h102v681h-102v102h147q32 0 49.5 -17t17.5 -49v-752v0z" />
    <glyph glyph-name="asciicircum" unicode="^" horiz-adv-x="417" 
d="M289 494l-81 152l-81 -152h-89v6l122 264h99l120 -264v-6h-90z" />
    <glyph glyph-name="underscore" unicode="_" horiz-adv-x="395" 
d="M0 -200v85h396v-85h-396z" />
    <glyph glyph-name="grave" unicode="`" horiz-adv-x="408" 
d="M255 526l-142 129v4h139l85 -129v-4h-82z" />
    <glyph glyph-name="a" unicode="a" horiz-adv-x="398" 
d="M251 0v17l-118 -15q-11 -2 -18.5 -3t-15.5 -1q-61 0 -61 60v178q0 61 63 61h151v113h-107v-70h-101v92q0 61 63 61h189q62 0 62 -61v-432h-107zM252 221h-107v-136l107 4v132z" />
    <glyph glyph-name="b" unicode="b" horiz-adv-x="409" 
d="M369 99q0 -45 -27 -72t-75 -27h-227v764h112v-289l120 16q9 2 18.5 3t17.5 1q61 0 61 -60v-336v0zM257 400l-105 -2v-305h69q36 0 36 37v270z" />
    <glyph glyph-name="c" unicode="c" horiz-adv-x="399" 
d="M359 61q0 -61 -62 -61h-194q-63 0 -63 61v371q0 61 63 61h194q62 0 62 -61v-117h-109v85h-100v-307h100v94h109v-126v0z" />
    <glyph glyph-name="d" unicode="d" horiz-adv-x="408" 
d="M256 0v17l-85 -15q-22 -5 -42 -5q-42 0 -66 24.5t-24 67.5v305q0 45 27 72t76 27h114v271h111v-764h-111zM256 400h-69q-37 0 -37 -37v-236q0 -36 35 -36h10t11 1l50 4v304z" />
    <glyph glyph-name="e" unicode="e" horiz-adv-x="400" 
d="M359 61q0 -61 -63 -61h-193q-63 0 -63 61v371q0 61 63 61h193q63 0 63 -61v-181l-31 -31h-181v-138h105v82h107v-103v0zM252 411h-105v-118h105v118z" />
    <glyph glyph-name="f" unicode="f" horiz-adv-x="258" 
d="M175 667v-174h71v-95h-71v-398h-111v398h-51v95h51v210q0 61 62 61h131v-97h-82z" />
    <glyph glyph-name="g" unicode="g" horiz-adv-x="408" 
d="M367 -119q0 -61 -63 -61h-194q-63 0 -63 61v79h108v-59h101v102h-115q-48 0 -75 27t-27 72v302q0 43 24 67t66 24q10 0 21 -1t21 -3l85 -16v18h111v-612v0zM256 396l-47 5q-5 1 -11.5 1h-11.5q-36 0 -36 -36v-236q0 -37 37 -37h69v303z" />
    <glyph glyph-name="h" unicode="h" horiz-adv-x="409" 
d="M257 0v400l-105 -2v-398h-112v764h112v-289l120 16q9 2 18.5 3t17.5 1q61 0 61 -60v-435h-112z" />
    <glyph glyph-name="i" unicode="i" horiz-adv-x="196" 
d="M42 564v115h112v-115h-112zM43 0v493h110v-493h-110z" />
    <glyph glyph-name="j" unicode="j" horiz-adv-x="196" 
d="M42 564v115h112v-115h-112zM153 -119q0 -61 -62 -61h-119v93h71v580h110v-612v0z" />
    <glyph glyph-name="k" unicode="k" horiz-adv-x="377" 
d="M250 0l-98 226v-226h-112v764h112v-459l88 188h117v-2l-114 -224l126 -265v-2h-119z" />
    <glyph glyph-name="l" unicode="l" horiz-adv-x="196" 
d="M43 0v764h110v-764h-110z" />
    <glyph glyph-name="m" unicode="m" horiz-adv-x="624" 
d="M473 0v400l-105 -2v-398h-111v400l-105 -2v-398h-112v493h112v-18l117 16q10 2 20.5 3t18.5 1q18 0 30 -5.5t17 -11.5l3 -5l129 18q9 2 18.5 3t17.5 1q61 0 61 -60v-435h-111z" />
    <glyph glyph-name="n" unicode="n" horiz-adv-x="409" 
d="M257 0v400l-105 -2v-398h-112v493h112v-18l118 16q10 2 20 3t18 1q61 0 61 -60v-435h-112z" />
    <glyph glyph-name="o" unicode="o" horiz-adv-x="406" 
d="M365 61q0 -61 -62 -61h-200q-63 0 -63 61v371q0 61 63 61h200q62 0 62 -61v-371v0zM256 400h-106v-307h106v307z" />
    <glyph glyph-name="p" unicode="p" horiz-adv-x="408" 
d="M369 99q0 -45 -27 -72t-76 -27h-114v-180h-112v673h112v-18l120 16q9 2 18.5 3t17.5 1q61 0 61 -60v-336v0zM257 400l-105 -2v-305h69q20 0 28 9t8 28v270z" />
    <glyph glyph-name="q" unicode="q" horiz-adv-x="408" 
d="M256 -180v180h-115q-48 0 -75 27t-27 72v305q0 43 24 67t66 24q9 0 20 -1t22 -3l85 -16v18h111v-673h-111zM256 396l-51 5q-4 1 -10 1h-10q-35 0 -35 -36v-236q0 -37 36 -37h70v303z" />
    <glyph glyph-name="r" unicode="r" horiz-adv-x="374" 
d="M240 287v113l-88 -2v-398h-112v493h112v-18l102 16q9 2 18.5 3t17.5 1q61 0 61 -60v-148h-111z" />
    <glyph glyph-name="s" unicode="s" horiz-adv-x="388" 
d="M350 61q0 -61 -62 -61h-188q-62 0 -62 61v106h107v-83h98v78l-171 101q-17 9 -25.5 21t-8.5 33v115q0 61 63 61h186q62 0 62 -61v-99h-106v76h-98v-71l171 -100q17 -8 25.5 -20.5t8.5 -34.5v-122v0z" />
    <glyph glyph-name="t" unicode="t" horiz-adv-x="275" 
d="M129 0q-62 0 -62 61v337h-53v95h53v134h111v-134h72v-95h-72v-303h75v-95h-124z" />
    <glyph glyph-name="u" unicode="u" horiz-adv-x="409" 
d="M257 0v17l-118 -16q-10 -2 -20 -3t-18 -1q-61 0 -61 61v435h111v-400l106 2v398h111v-493h-111z" />
    <glyph glyph-name="v" unicode="v" horiz-adv-x="389" 
d="M248 -1h-107l-126 494h115l65 -324l65 324h114z" />
    <glyph glyph-name="w" unicode="w" horiz-adv-x="543" 
d="M422 -1h-98l-53 273l-53 -273h-97l-106 494h107l54 -315l53 315h85l53 -315l54 315h107z" />
    <glyph glyph-name="x" unicode="x" horiz-adv-x="380" 
d="M249 0l-59 155l-61 -155h-119v2l119 252l-108 237v2h115l54 -143l56 143h113v-2l-108 -236l119 -253v-2h-121z" />
    <glyph glyph-name="y" unicode="y" horiz-adv-x="389" 
d="M203 -180h-114l51 184l-125 489h115l65 -324l65 324h114z" />
    <glyph glyph-name="z" unicode="z" horiz-adv-x="347" 
d="M22 0v66l164 336h-151v91h284v-66l-165 -336h165v-91h-297z" />
    <glyph glyph-name="braceleft" unicode="{" horiz-adv-x="371" 
d="M239 -121q-58 0 -87.5 32t-29.5 89v234l-96 94v18l96 94v203q0 57 29.5 89t87.5 32h97v-101h-62q-39 0 -39 -39v-173q0 -14 -1 -23t-4.5 -16.5t-9.5 -14.5t-16 -16l-53 -44l53 -45q10 -9 16 -15.5t9.5 -14t4.5 -16.5t1 -23v-202q0 -41 41 -41h60v-101h-97z" />
    <glyph glyph-name="bar" unicode="|" horiz-adv-x="210" 
d="M50 -176v940h110v-940h-110z" />
    <glyph glyph-name="braceright" unicode="}" horiz-adv-x="371" 
d="M249 234v-234q0 -57 -30 -89t-87 -32h-97v101h60q20 0 31 10.5t11 30.5v202q0 14 1 23t4 16.5t9 14t16 15.5l53 45l-53 44q-10 9 -16 16t-9 14.5t-4 16.5t-1 23v173q0 39 -40 39h-62v101h97q57 0 87 -32t30 -89v-203l96 -94v-18z" />
    <glyph glyph-name="asciitilde" unicode="~" horiz-adv-x="506" 
d="M443 266q0 -28 -15.5 -44t-41.5 -16q-16 0 -31.5 4t-32.5 11l-162 65v-77h-97v122q0 26 15 42.5t42 16.5q15 0 30.5 -4t32.5 -11l162 -65v77h98v-121v0z" />
    <glyph glyph-name="exclamdown" unicode="&#xa1;" horiz-adv-x="214" 
d="M50 647v117h113v-117h-113zM46 0l16 586h90l16 -586h-122z" />
    <glyph glyph-name="cent" unicode="&#xa2;" horiz-adv-x="399" 
d="M359 201q0 -61 -62 -61h-49v-140h-96v140h-49q-63 0 -63 61v365q0 61 63 61h49v137h96v-137h49q62 0 62 -61v-117h-109v86h-100v-303h100v95h109v-126v0z" />
    <glyph glyph-name="sterling" unicode="&#xa3;" horiz-adv-x="460" 
d="M24 0v98h51v222h-51v96h51v278q0 70 70 70h209q33 0 51 -17.5t18 -51.5v-166h-112v138h-124v-251h136v-96h-136v-222h241v-98h-404z" />
    <glyph glyph-name="currency" unicode="&#xa4;" horiz-adv-x="525" 
d="M388 0l-49 94l-27 -56q-11 -22 -23.5 -30t-40.5 -8h-134q-70 0 -70 69v201q0 24 6 37t20 28l89 95l-56 106q-9 17 -14 31t-5 34v93q0 33 18.5 51.5t51.5 18.5h189q34 0 52 -18.5t18 -51.5v-113h-111v87h-108v-93l144 -272l46 93h110l-100 -197l107 -199h-113zM211 333
l-57 -65v-172h78l51 102z" />
    <glyph glyph-name="yen" unicode="&#xa5;" horiz-adv-x="443" 
d="M342 481h77v-91h-106l-22 -72h128v-92h-140v-226h-115v226h-139v92h127l-22 72h-105v91h76l-88 279v4h118l91 -332l91 332h117v-4z" />
    <glyph glyph-name="brokenbar" unicode="&#xa6;" 
d="M424 57q0 -27 -15.5 -42t-43.5 -15h-261q-29 0 -44 15t-15 42v650q0 27 15 42t44 15h261q28 0 43.5 -15t15.5 -42v-650v0zM331 680h-195v-98h195v98zM331 513h-195v-97h195v97zM331 348h-195v-98h195v98zM331 181h-195v-97h195v97z" />
    <glyph glyph-name="section" unicode="&#xa7;" horiz-adv-x="446" 
d="M403 61q0 -61 -62 -61h-236q-29 0 -45.5 16t-16.5 45v116h111v-93h139v95l-212 88q-22 8 -30 20t-8 35v86q0 27 8 40t28 21l49 23l-48 23q-20 8 -28.5 21t-8.5 40v127q0 29 16.5 45t45.5 16h236q62 0 62 -61v-116h-110v93h-139v-95l211 -88q22 -8 30 -20t8 -35v-86
q0 -28 -8 -40.5t-28 -20.5l-49 -23l48 -23q21 -8 29 -21t8 -40v-127v0zM295 425l-72 33l-71 -33v-86l71 -33l72 33v86z" />
    <glyph glyph-name="dieresis" unicode="&#xa8;" horiz-adv-x="408" 
d="M225 526v105h107v-105h-107zM76 526v105h107v-105h-107z" />
    <glyph glyph-name="copyright" unicode="&#xa9;" horiz-adv-x="583" 
d="M538 44q0 -44 -44 -44h-405q-44 0 -44 44v676q0 44 44 44h405q44 0 44 -44v-676v0zM486 714h-389v-664h389v664zM403 214q0 -46 -46 -46h-133q-46 0 -46 46v338q0 22 12 34.5t34 12.5h133q22 0 34 -12.5t12 -34.5v-107h-79v82h-67v-288h67v87h79v-112v0z" />
    <glyph glyph-name="ordfeminine" unicode="&#xaa;" horiz-adv-x="345" 
d="M212 374v13l-91 -12q-17 -3 -30 -3q-49 0 -49 47v142q0 48 51 48h120v87h-83v-53h-84v73q0 48 51 48h154q52 0 52 -48v-342h-91zM42 250v75h261v-75h-261zM213 549h-83v-107l83 3v104z" />
    <glyph glyph-name="guillemotleft" unicode="&#xab;" horiz-adv-x="506" 
d="M345 76l-124 186v18l124 186h122v-4l-127 -191l127 -191v-4h-122zM156 76l-124 186v18l124 186h122v-4l-126 -191l126 -191v-4h-122z" />
    <glyph glyph-name="logicalnot" unicode="&#xac;" 
d="M424 57q0 -27 -15.5 -42t-43.5 -15h-261q-29 0 -44 15t-15 42v650q0 27 15 42t44 15h261q28 0 43.5 -15t15.5 -42v-650v0zM331 680h-195v-98h195v98zM331 513h-195v-97h195v97zM331 348h-195v-98h195v98zM331 181h-195v-97h195v97z" />
    <glyph glyph-name="minus" unicode="&#xad;" 
d="M424 57q0 -27 -15.5 -42t-43.5 -15h-261q-29 0 -44 15t-15 42v650q0 27 15 42t44 15h261q28 0 43.5 -15t15.5 -42v-650v0zM331 680h-195v-98h195v98zM331 513h-195v-97h195v97zM331 348h-195v-98h195v98zM331 181h-195v-97h195v97z" />
    <glyph glyph-name="registered" unicode="&#xae;" horiz-adv-x="583" 
d="M538 44q0 -44 -44 -44h-405q-44 0 -44 44v676q0 44 44 44h405q44 0 44 -44v-676v0zM486 714h-389v-664h389v664zM339 168l-69 186l6 56h52v122h-72v-364h-79v430h184q21 0 33 -12t12 -34v-156q0 -20 -10 -31.5t-25 -13.5l-20 -1l68 -177v-5h-80z" />
    <glyph glyph-name="macron" unicode="&#xaf;" horiz-adv-x="408" 
d="M76 535v77h256v-77h-256z" />
    <glyph glyph-name="degree" unicode="&#xb0;" horiz-adv-x="321" 
d="M284 499q0 -60 -59 -60h-129q-59 0 -59 60v206q0 59 59 59h129q59 0 59 -59v-206v0zM208 694h-96v-185h96v185z" />
    <glyph glyph-name="plusminus" unicode="&#xb1;" horiz-adv-x="683" 
d="M530 0v667h-122v-174h71v-95h-71v-398h-111v398h-122v-398h-111v398h-51v95h51v210q0 61 62 61h131v-97h-82v-174h122v210q0 61 63 61h281v-764h-111z" />
    <glyph glyph-name="twosuperior" unicode="&#xb2;" 
d="M424 57q0 -27 -15.5 -42t-43.5 -15h-261q-29 0 -44 15t-15 42v650q0 27 15 42t44 15h261q28 0 43.5 -15t15.5 -42v-650v0zM331 680h-195v-98h195v98zM331 513h-195v-97h195v97zM331 348h-195v-98h195v98zM331 181h-195v-97h195v97z" />
    <glyph glyph-name="threesuperior" unicode="&#xb3;" 
d="M424 57q0 -27 -15.5 -42t-43.5 -15h-261q-29 0 -44 15t-15 42v650q0 27 15 42t44 15h261q28 0 43.5 -15t15.5 -42v-650v0zM331 680h-195v-98h195v98zM331 513h-195v-97h195v97zM331 348h-195v-98h195v98zM331 181h-195v-97h195v97z" />
    <glyph glyph-name="acute" unicode="&#xb4;" horiz-adv-x="408" 
d="M153 526h-82v4l84 129h140v-4z" />
    <glyph glyph-name="mu" unicode="&#xb5;" horiz-adv-x="633" 
d="M476 0v590l-105 -130v-460h-109v460l-105 130v-590h-111v764h113l157 -202h1l157 202h113v-764h-111z" />
    <glyph glyph-name="paragraph" unicode="&#xb6;" horiz-adv-x="508" 
d="M358 0v274h-58v-274h-104v274h-89q-34 0 -51.5 18t-17.5 51v352q0 69 69 69h355v-764h-104zM358 663h-123v-288h123v288z" />
    <glyph glyph-name="periodcentered" unicode="&#xb7;" horiz-adv-x="195" 
d="M37 236v126h122v-126h-122z" />
    <glyph glyph-name="periodcentered" unicode="&#x2219;" horiz-adv-x="195" 
d="M37 236v126h122v-126h-122z" />
    <glyph glyph-name="cedilla" unicode="&#xb8;" horiz-adv-x="408" 
d="M311 -142q0 -47 -47 -47h-122q-47 0 -47 47v53h76v-41h64v41l-43 19q-17 7 -22.5 16.5t-5.5 29.5v34h74v-30l45 -23q18 -8 23 -17.5t5 -29.5v-52v0z" />
    <glyph glyph-name="onesuperior" unicode="&#xb9;" 
d="M424 57q0 -27 -15.5 -42t-43.5 -15h-261q-29 0 -44 15t-15 42v650q0 27 15 42t44 15h261q28 0 43.5 -15t15.5 -42v-650v0zM331 680h-195v-98h195v98zM331 513h-195v-97h195v97zM331 348h-195v-98h195v98zM331 181h-195v-97h195v97z" />
    <glyph glyph-name="ordmasculine" unicode="&#xba;" horiz-adv-x="349" 
d="M307 423q0 -49 -51 -49h-162q-52 0 -52 49v293q0 48 52 48h162q51 0 51 -48v-293v0zM42 250v75h265v-75h-265zM216 691h-84v-244h84v244z" />
    <glyph glyph-name="guillemotright" unicode="&#xbb;" horiz-adv-x="506" 
d="M351 76h-123v4l127 191l-127 191v4h123l123 -186v-18zM161 76h-122v4l127 191l-127 191v4h122l124 -186v-18z" />
    <glyph glyph-name="onequarter" unicode="&#xbc;" 
d="M424 57q0 -27 -15.5 -42t-43.5 -15h-261q-29 0 -44 15t-15 42v650q0 27 15 42t44 15h261q28 0 43.5 -15t15.5 -42v-650v0zM331 680h-195v-98h195v98zM331 513h-195v-97h195v97zM331 348h-195v-98h195v98zM331 181h-195v-97h195v97z" />
    <glyph glyph-name="onehalf" unicode="&#xbd;" 
d="M424 57q0 -27 -15.5 -42t-43.5 -15h-261q-29 0 -44 15t-15 42v650q0 27 15 42t44 15h261q28 0 43.5 -15t15.5 -42v-650v0zM331 680h-195v-98h195v98zM331 513h-195v-97h195v97zM331 348h-195v-98h195v98zM331 181h-195v-97h195v97z" />
    <glyph glyph-name="threequarters" unicode="&#xbe;" 
d="M424 57q0 -27 -15.5 -42t-43.5 -15h-261q-29 0 -44 15t-15 42v650q0 27 15 42t44 15h261q28 0 43.5 -15t15.5 -42v-650v0zM331 680h-195v-98h195v98zM331 513h-195v-97h195v97zM331 348h-195v-98h195v98zM331 181h-195v-97h195v97z" />
    <glyph glyph-name="questiondown" unicode="&#xbf;" horiz-adv-x="424" 
d="M165 647v117h115v-117h-115zM389 70q0 -70 -70 -70h-213q-33 0 -51.5 18t-18.5 52v158q0 22 4.5 35.5t15.5 28.5l111 150v144h111v-130q0 -23 -4 -37t-15 -29l-111 -149v-146h130v139h111v-164v0z" />
    <glyph glyph-name="Agrave" unicode="&#xc0;" horiz-adv-x="451" 
d="M320 0l-23 145h-143l-23 -145h-113v2l148 763h120l147 -763v-2h-113zM225 588l-56 -345h112zM213 799l-142 129v4h139l85 -129v-4h-82z" />
    <glyph glyph-name="Aacute" unicode="&#xc1;" horiz-adv-x="451" 
d="M320 0l-23 145h-143l-23 -145h-113v2l148 763h120l147 -763v-2h-113zM225 588l-56 -345h112zM237 798h-82v4l84 129h140v-4z" />
    <glyph glyph-name="Acircumflex" unicode="&#xc2;" horiz-adv-x="451" 
d="M320 0l-23 145h-143l-23 -145h-113v2l148 763h120l147 -763v-2h-113zM225 588l-56 -345h112zM292 794l-67 56l-67 -56h-72v4l101 127h77l101 -127v-4h-73z" />
    <glyph glyph-name="Atilde" unicode="&#xc3;" horiz-adv-x="451" 
d="M320 0l-23 145h-143l-23 -145h-113v2l148 763h120l147 -763v-2h-113zM225 588l-56 -345h112zM355 845q0 -46 -46 -46q-21 0 -43 9l-92 35v-43h-77v77q0 46 46 46q11 0 21 -2t23 -7l90 -35v43h78v-77v0z" />
    <glyph glyph-name="Adieresis" unicode="&#xc4;" horiz-adv-x="451" 
d="M320 0l-23 145h-143l-23 -145h-113v2l148 763h120l147 -763v-2h-113zM225 588l-56 -345h112zM247 798v105h107v-105h-107zM98 798v105h107v-105h-107z" />
    <glyph glyph-name="Aring" unicode="&#xc5;" horiz-adv-x="451" 
d="M320 0l-23 145h-143l-23 -145h-113v2l138 713h-9q-33 7 -33 48v98q0 51 51 51h121q51 0 51 -51v-98q0 -41 -33 -48h-8l137 -713v-2h-113zM262 849h-73v-75h73v75zM225 588l-56 -345h112z" />
    <glyph glyph-name="AE" unicode="&#xc6;" horiz-adv-x="623" 
d="M282 0v145h-119l-38 -145h-112v2l218 762h357v-101h-195v-222h167v-100h-167v-240h198v-101h-309zM282 614l-94 -371h94v371z" />
    <glyph glyph-name="Ccedilla" unicode="&#xc7;" horiz-adv-x="466" 
d="M422 70q0 -70 -70 -70h-83v-20l45 -23q17 -8 22 -17.5t5 -29.5v-52q0 -47 -47 -47h-121q-47 0 -47 47v53h75v-41h64v41l-43 19q-16 7 -22 16.5t-6 29.5v24h-80q-68 0 -68 70v624q0 70 68 70h238q70 0 70 -70v-179h-114v151h-148v-568h148v161h114v-189v0z" />
    <glyph glyph-name="Egrave" unicode="&#xc8;" horiz-adv-x="395" 
d="M46 0v764h314v-101h-200v-223h172v-99h-172v-240h203v-101h-317zM205 798l-142 129v4h139l85 -129v-4h-82z" />
    <glyph glyph-name="Eacute" unicode="&#xc9;" horiz-adv-x="395" 
d="M46 0v764h314v-101h-200v-223h172v-99h-172v-240h203v-101h-317zM197 798h-82v4l84 129h140v-4z" />
    <glyph glyph-name="Ecircumflex" unicode="&#xca;" horiz-adv-x="395" 
d="M46 0v764h314v-101h-200v-223h172v-99h-172v-240h203v-101h-317zM271 798l-67 56l-67 -56h-72v4l101 127h77l101 -127v-4h-73z" />
    <glyph glyph-name="Edieresis" unicode="&#xcb;" horiz-adv-x="395" 
d="M46 0v764h314v-101h-200v-223h172v-99h-172v-240h203v-101h-317zM225 798v105h107v-105h-107zM76 798v105h107v-105h-107z" />
    <glyph glyph-name="Igrave" unicode="&#xcc;" horiz-adv-x="210" 
d="M48 0v764h114v-764h-114zM101 798l-142 129v4h139l85 -129v-4h-82z" />
    <glyph glyph-name="Iacute" unicode="&#xcd;" horiz-adv-x="210" 
d="M48 0v764h114v-764h-114zM110 798h-82v4l84 129h140v-4z" />
    <glyph glyph-name="Icircumflex" unicode="&#xce;" horiz-adv-x="210" 
d="M48 0v764h114v-764h-114zM173 797l-67 56l-67 -56h-72v4l101 127h77l101 -127v-4h-73z" />
    <glyph glyph-name="Idieresis" unicode="&#xcf;" horiz-adv-x="210" 
d="M48 0v764h114v-764h-114zM127 798v105h107v-105h-107zM-22 798v105h107v-105h-107z" />
    <glyph glyph-name="Eth" unicode="&#xd0;" horiz-adv-x="485" 
d="M441 145q0 -64 -40.5 -104.5t-108.5 -40.5h-232v338h-41v103h41v323h232q69 0 109 -41t40 -105v-473v0zM327 599q0 31 -19 48.5t-50 17.5h-84v-224h66v-103h-66v-239h82q34 0 52.5 18t18.5 49v433z" />
    <glyph glyph-name="Ntilde" unicode="&#xd1;" horiz-adv-x="479" 
d="M333 0l-183 481q1 -10 3 -20q2 -8 3 -17.5t1 -17.5v-426h-111v764h100l183 -471l-4 20q-2 8 -2.5 17.5t-0.5 17.5v416h111v-764h-100zM367 843q0 -46 -46 -46q-21 0 -43 9l-92 35v-43h-77v77q0 46 46 46q11 0 21 -2t23 -7l90 -35v43h78v-77v0z" />
    <glyph glyph-name="Ograve" unicode="&#xd2;" horiz-adv-x="477" 
d="M431 70q0 -34 -18 -52t-51 -18h-248q-68 0 -68 70v624q0 70 68 70h248q33 0 51 -18t18 -52v-624v0zM317 666h-157v-568h157v568zM230 798l-142 129v4h139l85 -129v-4h-82z" />
    <glyph glyph-name="Oacute" unicode="&#xd3;" horiz-adv-x="477" 
d="M431 70q0 -34 -18 -52t-51 -18h-248q-68 0 -68 70v624q0 70 68 70h248q33 0 51 -18t18 -52v-624v0zM317 666h-157v-568h157v568zM247 798h-82v4l84 129h140v-4z" />
    <glyph glyph-name="Ocircumflex" unicode="&#xd4;" horiz-adv-x="477" 
d="M431 70q0 -34 -18 -52t-51 -18h-248q-68 0 -68 70v624q0 70 68 70h248q33 0 51 -18t18 -52v-624v0zM317 666h-157v-568h157v568zM305 798l-67 56l-67 -56h-72v4l101 127h77l101 -127v-4h-73z" />
    <glyph glyph-name="Otilde" unicode="&#xd5;" horiz-adv-x="477" 
d="M431 70q0 -34 -18 -52t-51 -18h-248q-68 0 -68 70v624q0 70 68 70h248q33 0 51 -18t18 -52v-624v0zM317 666h-157v-568h157v568zM366 845q0 -46 -46 -46q-21 0 -43 9l-92 35v-43h-77v77q0 46 46 46q11 0 21 -2t23 -7l90 -35v43h78v-77v0z" />
    <glyph glyph-name="Odieresis" unicode="&#xd6;" horiz-adv-x="477" 
d="M431 70q0 -34 -18 -52t-51 -18h-248q-68 0 -68 70v624q0 70 68 70h248q33 0 51 -18t18 -52v-624v0zM317 666h-157v-568h157v568zM259 798v105h107v-105h-107zM110 798v105h107v-105h-107z" />
    <glyph glyph-name="multiply" unicode="&#xd7;" 
d="M424 57q0 -27 -15.5 -42t-43.5 -15h-261q-29 0 -44 15t-15 42v650q0 27 15 42t44 15h261q28 0 43.5 -15t15.5 -42v-650v0zM331 680h-195v-98h195v98zM331 513h-195v-97h195v97zM331 348h-195v-98h195v98zM331 181h-195v-97h195v97z" />
    <glyph glyph-name="Oslash" unicode="&#xd8;" horiz-adv-x="477" 
d="M431 70q0 -34 -18 -52t-51 -18h-170l-21 -75h-116v6l22 77q-31 17 -31 62v624q0 70 68 70h175l21 75h117v-6l-23 -80q27 -17 27 -59v-624v0zM317 666h-157v-568h157v568z" />
    <glyph glyph-name="Ugrave" unicode="&#xd9;" horiz-adv-x="474" 
d="M428 70q0 -70 -70 -70h-243q-69 0 -69 70v694h114v-666h154v666h114v-694v0zM230 798l-142 129v4h139l85 -129v-4h-82z" />
    <glyph glyph-name="Uacute" unicode="&#xda;" horiz-adv-x="474" 
d="M428 70q0 -70 -70 -70h-243q-69 0 -69 70v694h114v-666h154v666h114v-694v0zM243 798h-82v4l84 129h140v-4z" />
    <glyph glyph-name="Ucircumflex" unicode="&#xdb;" horiz-adv-x="474" 
d="M428 70q0 -70 -70 -70h-243q-69 0 -69 70v694h114v-666h154v666h114v-694v0zM303 798l-67 56l-67 -56h-72v4l101 127h77l101 -127v-4h-73z" />
    <glyph glyph-name="Udieresis" unicode="&#xdc;" horiz-adv-x="474" 
d="M428 70q0 -70 -70 -70h-243q-69 0 -69 70v694h114v-666h154v666h114v-694v0zM258 797v105h107v-105h-107zM109 797v105h107v-105h-107z" />
    <glyph glyph-name="Yacute" unicode="&#xdd;" horiz-adv-x="443" 
d="M279 281v-281h-115v281l-151 479v4h118l91 -332l91 332h117v-4zM228 794h-82v4l84 129h140v-4z" />
    <glyph glyph-name="Thorn" unicode="&#xde;" horiz-adv-x="452" 
d="M416 214q0 -73 -73 -73h-183v-141h-114v764h114v-133h183q73 0 73 -73v-344v0zM302 533h-142v-295h142v295z" />
    <glyph glyph-name="germandbls" unicode="&#xdf;" horiz-adv-x="412" 
d="M371 67q0 -67 -67 -67h-107v88h64v225l-67 67v38l64 64v148q0 41 -41 41h-65v-671h-112v764h210q60 0 89.5 -31t29.5 -89v-136q0 -14 -1 -23.5t-4.5 -17.5t-10 -15.5t-16.5 -17.5l-38 -35l43 -37q19 -17 24 -31.5t5 -42.5v-221v0z" />
    <glyph glyph-name="agrave" unicode="&#xe0;" horiz-adv-x="398" 
d="M251 0v17l-118 -15q-11 -2 -18.5 -3t-15.5 -1q-61 0 -61 60v178q0 61 63 61h151v113h-107v-70h-101v92q0 61 63 61h189q62 0 62 -61v-432h-107zM252 221h-107v-136l107 4v132zM200 526l-142 129v4h139l85 -129v-4h-82z" />
    <glyph glyph-name="aacute" unicode="&#xe1;" horiz-adv-x="398" 
d="M251 0v17l-118 -15q-11 -2 -18.5 -3t-15.5 -1q-61 0 -61 60v178q0 61 63 61h151v113h-107v-70h-101v92q0 61 63 61h189q62 0 62 -61v-432h-107zM252 221h-107v-136l107 4v132zM205 526h-82v4l84 129h140v-4z" />
    <glyph glyph-name="acircumflex" unicode="&#xe2;" horiz-adv-x="398" 
d="M251 0v17l-118 -15q-11 -2 -18.5 -3t-15.5 -1q-61 0 -61 60v178q0 61 63 61h151v113h-107v-70h-101v92q0 61 63 61h189q62 0 62 -61v-432h-107zM252 221h-107v-136l107 4v132zM270 526l-67 56l-67 -56h-72v4l101 127h77l101 -127v-4h-73z" />
    <glyph glyph-name="atilde" unicode="&#xe3;" horiz-adv-x="398" 
d="M251 0v17l-118 -15q-11 -2 -18.5 -3t-15.5 -1q-61 0 -61 60v178q0 61 63 61h151v113h-107v-70h-101v92q0 61 63 61h189q62 0 62 -61v-432h-107zM252 221h-107v-136l107 4v132zM333 571q0 -46 -46 -46q-21 0 -43 9l-92 35v-43h-77v77q0 46 46 46q11 0 21 -2t23 -7l90 -35
v43h78v-77v0z" />
    <glyph glyph-name="adieresis" unicode="&#xe4;" horiz-adv-x="398" 
d="M251 0v17l-118 -15q-11 -2 -18.5 -3t-15.5 -1q-61 0 -61 60v178q0 61 63 61h151v113h-107v-70h-101v92q0 61 63 61h189q62 0 62 -61v-432h-107zM252 221h-107v-136l107 4v132zM224 526v105h107v-105h-107zM75 526v105h107v-105h-107z" />
    <glyph glyph-name="aring" unicode="&#xe5;" horiz-adv-x="398" 
d="M251 0v17l-118 -15q-11 -2 -18.5 -3t-15.5 -1q-61 0 -61 60v178q0 61 63 61h151v113h-107v-70h-101v92q0 61 63 61h189q62 0 62 -61v-432h-107zM252 221h-107v-136l107 4v132zM316 577q0 -51 -52 -51h-120q-51 0 -51 51v98q0 51 51 51h120q52 0 52 -51v-98v0zM240 663
h-72v-74h72v74z" />
    <glyph glyph-name="ae" unicode="&#xe6;" horiz-adv-x="595" 
d="M555 61q0 -61 -62 -61h-183q-36 0 -51 19l-126 -17q-19 -4 -34 -4q-61 0 -61 60v177q0 61 63 61h146v114h-102v-71h-101v93q0 61 63 61h386q62 0 62 -61v-181l-31 -30h-176v-139h100v83h107v-104v0zM448 411h-100v-116h100v116zM247 221h-102v-137l102 4v133z" />
    <glyph glyph-name="ccedilla" unicode="&#xe7;" horiz-adv-x="399" 
d="M359 61q0 -61 -62 -61h-62v-20l45 -23q17 -8 22.5 -17.5t5.5 -29.5v-52q0 -47 -47 -47h-122q-47 0 -47 47v53h75v-41h65v41l-43 19q-16 7 -22 16.5t-6 29.5v24h-58q-63 0 -63 61v371q0 61 63 61h194q62 0 62 -61v-117h-109v85h-100v-307h100v94h109v-126v0z" />
    <glyph glyph-name="egrave" unicode="&#xe8;" horiz-adv-x="400" 
d="M359 61q0 -61 -63 -61h-193q-63 0 -63 61v371q0 61 63 61h193q63 0 63 -61v-181l-31 -31h-181v-138h105v82h107v-103v0zM252 411h-105v-118h105v118zM198 526l-142 129v4h139l85 -129v-4h-82z" />
    <glyph glyph-name="eacute" unicode="&#xe9;" horiz-adv-x="400" 
d="M359 61q0 -61 -63 -61h-193q-63 0 -63 61v371q0 61 63 61h193q63 0 63 -61v-181l-31 -31h-181v-138h105v82h107v-103v0zM252 411h-105v-118h105v118zM201 526h-82v4l84 129h140v-4z" />
    <glyph glyph-name="ecircumflex" unicode="&#xea;" horiz-adv-x="400" 
d="M359 61q0 -61 -63 -61h-193q-63 0 -63 61v371q0 61 63 61h193q63 0 63 -61v-181l-31 -31h-181v-138h105v82h107v-103v0zM252 411h-105v-118h105v118zM268 526l-67 56l-67 -56h-72v4l101 127h77l101 -127v-4h-73z" />
    <glyph glyph-name="edieresis" unicode="&#xeb;" horiz-adv-x="400" 
d="M359 61q0 -61 -63 -61h-193q-63 0 -63 61v371q0 61 63 61h193q63 0 63 -61v-181l-31 -31h-181v-138h105v82h107v-103v0zM252 411h-105v-118h105v118zM222 526v105h107v-105h-107zM73 526v105h107v-105h-107z" />
    <glyph glyph-name="igrave" unicode="&#xec;" horiz-adv-x="196" 
d="M43 0v493h110v-493h-110zM94 526l-142 129v4h139l85 -129v-4h-82z" />
    <glyph glyph-name="iacute" unicode="&#xed;" horiz-adv-x="196" 
d="M43 0v493h110v-493h-110zM102 526h-82v4l84 129h140v-4z" />
    <glyph glyph-name="icircumflex" unicode="&#xee;" horiz-adv-x="196" 
d="M43 0v493h110v-493h-110zM166 526l-67 56l-67 -56h-72v4l101 127h77l101 -127v-4h-73z" />
    <glyph glyph-name="idieresis" unicode="&#xef;" horiz-adv-x="196" 
d="M43 0v493h110v-493h-110zM120 526v105h107v-105h-107zM-29 526v105h107v-105h-107z" />
    <glyph glyph-name="eth" unicode="&#xf0;" horiz-adv-x="407" 
d="M368 569v-508q0 -61 -62 -61h-202q-64 0 -64 61v371q0 61 63 61h155v39l-31 -10h-4v93l35 11v55h-104v-82h-110v104q0 61 62 61h200q62 0 62 -61v-41l43 14h4v-91zM258 405h-106v-317h106v317z" />
    <glyph glyph-name="ntilde" unicode="&#xf1;" horiz-adv-x="409" 
d="M257 0v400l-105 -2v-398h-112v493h112v-18l118 16q10 2 20 3t18 1q61 0 61 -60v-435h-112zM334 571q0 -46 -46 -46q-21 0 -43 9l-92 35v-43h-77v77q0 46 46 46q11 0 21 -2t23 -7l90 -35v43h78v-77v0z" />
    <glyph glyph-name="ograve" unicode="&#xf2;" horiz-adv-x="406" 
d="M365 61q0 -61 -62 -61h-200q-63 0 -63 61v371q0 61 63 61h200q62 0 62 -61v-371v0zM256 400h-106v-307h106v307zM198 526l-142 129v4h139l85 -129v-4h-82z" />
    <glyph glyph-name="oacute" unicode="&#xf3;" horiz-adv-x="406" 
d="M365 61q0 -61 -62 -61h-200q-63 0 -63 61v371q0 61 63 61h200q62 0 62 -61v-371v0zM256 400h-106v-307h106v307zM206 526h-82v4l84 129h140v-4z" />
    <glyph glyph-name="ocircumflex" unicode="&#xf4;" horiz-adv-x="406" 
d="M365 61q0 -61 -62 -61h-200q-63 0 -63 61v371q0 61 63 61h200q62 0 62 -61v-371v0zM256 400h-106v-307h106v307zM266 526l-67 56l-67 -56h-72v4l101 127h77l101 -127v-4h-73z" />
    <glyph glyph-name="otilde" unicode="&#xf5;" horiz-adv-x="406" 
d="M365 61q0 -61 -62 -61h-200q-63 0 -63 61v371q0 61 63 61h200q62 0 62 -61v-371v0zM256 400h-106v-307h106v307zM333 571q0 -46 -46 -46q-21 0 -43 9l-92 35v-43h-77v77q0 46 46 46q11 0 21 -2t23 -7l90 -35v43h78v-77v0z" />
    <glyph glyph-name="odieresis" unicode="&#xf6;" horiz-adv-x="406" 
d="M365 61q0 -61 -62 -61h-200q-63 0 -63 61v371q0 61 63 61h200q62 0 62 -61v-371v0zM256 400h-106v-307h106v307zM225 526v105h107v-105h-107zM76 526v105h107v-105h-107z" />
    <glyph glyph-name="divide" unicode="&#xf7;" 
d="M424 57q0 -27 -15.5 -42t-43.5 -15h-261q-29 0 -44 15t-15 42v650q0 27 15 42t44 15h261q28 0 43.5 -15t15.5 -42v-650v0zM331 680h-195v-98h195v98zM331 513h-195v-97h195v97zM331 348h-195v-98h195v98zM331 181h-195v-97h195v97z" />
    <glyph glyph-name="oslash" unicode="&#xf8;" horiz-adv-x="406" 
d="M365 61q0 -61 -62 -61h-130l-26 -75h-106v6l26 76q-27 13 -27 54v371q0 61 63 61h128l26 75h107v-6l-26 -76q27 -14 27 -54v-371v0zM256 400h-106v-307h106v307z" />
    <glyph glyph-name="ugrave" unicode="&#xf9;" horiz-adv-x="409" 
d="M257 0v17l-118 -16q-10 -2 -20 -3t-18 -1q-61 0 -61 61v435h111v-400l106 2v398h111v-493h-111zM199 526l-142 129v4h139l85 -129v-4h-82z" />
    <glyph glyph-name="uacute" unicode="&#xfa;" horiz-adv-x="409" 
d="M257 0v17l-118 -16q-10 -2 -20 -3t-18 -1q-61 0 -61 61v435h111v-400l106 2v398h111v-493h-111zM206 526h-82v4l84 129h140v-4z" />
    <glyph glyph-name="ucircumflex" unicode="&#xfb;" horiz-adv-x="409" 
d="M257 0v17l-118 -16q-10 -2 -20 -3t-18 -1q-61 0 -61 61v435h111v-400l106 2v398h111v-493h-111zM271 526l-67 56l-67 -56h-72v4l101 127h77l101 -127v-4h-73z" />
    <glyph glyph-name="udieresis" unicode="&#xfc;" horiz-adv-x="409" 
d="M257 0v17l-118 -16q-10 -2 -20 -3t-18 -1q-61 0 -61 61v435h111v-400l106 2v398h111v-493h-111zM225 526v105h107v-105h-107zM76 526v105h107v-105h-107z" />
    <glyph glyph-name="yacute" unicode="&#xfd;" horiz-adv-x="389" 
d="M203 -180h-114l51 184l-125 489h115l65 -324l65 324h114zM204 526h-82v4l84 129h140v-4z" />
    <glyph glyph-name="thorn" unicode="&#xfe;" horiz-adv-x="408" 
d="M369 99q0 -45 -27 -72t-76 -27h-114v-180h-112v944h112v-289l120 16q9 2 18.5 3t17.5 1q61 0 61 -60v-336v0zM257 400l-105 -2v-305h69q20 0 28 9t8 28v270z" />
    <glyph glyph-name="ydieresis" unicode="&#xff;" horiz-adv-x="389" 
d="M203 -180h-114l51 184l-125 489h115l65 -324l65 324h114zM217 526v105h107v-105h-107zM68 526v105h107v-105h-107z" />
    <glyph glyph-name="OE" unicode="&#x152;" horiz-adv-x="646" 
d="M115 0q-69 0 -69 70v624q0 70 69 70h496v-101h-195v-222h167v-100h-167v-240h198v-101h-499zM303 666h-143v-568h143v568z" />
    <glyph glyph-name="oe" unicode="&#x153;" horiz-adv-x="603" 
d="M563 61q0 -61 -62 -61h-398q-63 0 -63 61v371q0 61 63 61h398q62 2 62 -61v-181l-31 -31h-177v-138h101v82h107v-103v0zM456 411h-101v-118h101v118zM253 402h-104v-311h104v311z" />
    <glyph glyph-name="Scaron" unicode="&#x160;" horiz-adv-x="457" 
d="M412 70q0 -34 -18 -52t-51 -18h-230q-33 0 -51 18t-18 52v182h114v-156h140v150l-229 217q-14 13 -19.5 26t-5.5 35v170q0 34 18 52t51 18h230q33 0 51 -18t18 -51v-171h-114v144h-140v-138l229 -216q14 -14 19.5 -27t5.5 -35v-182v0zM267 798h-77l-101 127v4h72l67 -56
l67 56h73v-4z" />
    <glyph glyph-name="scaron" unicode="&#x161;" horiz-adv-x="388" 
d="M350 61q0 -61 -62 -61h-188q-62 0 -62 61v106h107v-83h98v78l-171 101q-17 9 -25.5 21t-8.5 33v115q0 61 63 61h186q62 0 62 -61v-99h-106v76h-98v-71l171 -100q17 -8 25.5 -20.5t8.5 -34.5v-122v0zM234 526h-77l-101 127v4h72l67 -56l67 56h73v-4z" />
    <glyph glyph-name="Ydieresis" unicode="&#x178;" horiz-adv-x="443" 
d="M279 281v-281h-115v281l-151 479v4h118l91 -332l91 332h117v-4zM243 797v105h107v-105h-107zM94 797v105h107v-105h-107z" />
    <glyph glyph-name="florin" unicode="&#x192;" horiz-adv-x="354" 
d="M336 667h-93l-23 -174h81l-12 -95h-82l-69 -517q-7 -61 -69 -61h-124l12 93h75l65 485h-55l12 95h55l28 210q7 61 70 61h141z" />
    <glyph glyph-name="circumflex" unicode="&#x2c6;" horiz-adv-x="408" 
d="M271 526l-67 56l-67 -56h-72v4l101 127h77l101 -127v-4h-73z" />
    <glyph glyph-name="tilde" unicode="&#x2dc;" horiz-adv-x="408" 
d="M333 571q0 -46 -46 -46q-21 0 -43 9l-92 35v-43h-77v77q0 46 46 46q11 0 21 -2t23 -7l90 -35v43h78v-77v0z" />
    <glyph glyph-name="endash" unicode="&#x2013;" horiz-adv-x="430" 
d="M37 241v104h356v-104h-356z" />
    <glyph glyph-name="emdash" unicode="&#x2014;" horiz-adv-x="652" 
d="M37 241v104h577v-104h-577z" />
    <glyph glyph-name="quoteleft" unicode="&#x2018;" horiz-adv-x="196" 
d="M140 525h-116l69 239h72z" />
    <glyph glyph-name="quoteright" unicode="&#x2019;" horiz-adv-x="196" 
d="M104 525h-73l25 239h115z" />
    <glyph glyph-name="quotesinglbase" unicode="&#x201a;" horiz-adv-x="196" 
d="M99 -105h-73l25 239h116z" />
    <glyph glyph-name="quotedblleft" unicode="&#x201c;" horiz-adv-x="359" 
d="M303 525h-116l68 239h72zM140 525h-116l69 239h72z" />
    <glyph glyph-name="quotedblright" unicode="&#x201d;" horiz-adv-x="359" 
d="M266 525h-72l25 239h115zM104 525h-73l25 239h115z" />
    <glyph glyph-name="quotedblbase" unicode="&#x201e;" horiz-adv-x="359" 
d="M266 -105h-72l25 239h115zM104 -105h-73l25 239h115z" />
    <glyph glyph-name="dagger" unicode="&#x2020;" horiz-adv-x="446" 
d="M276 475v-475h-107v475h-135v99h135v190h107v-190h136v-99h-136z" />
    <glyph glyph-name="daggerdbl" unicode="&#x2021;" horiz-adv-x="446" 
d="M276 190v-190h-106v190h-136v99h136v194h-136v99h136v182h106v-182h136v-99h-136v-194h136v-99h-136z" />
    <glyph glyph-name="bullet" unicode="&#x2022;" horiz-adv-x="461" 
d="M414 265q0 -71 -71 -71h-225q-72 0 -72 71v233q0 71 72 71h225q71 0 71 -71v-233v0z" />
    <glyph glyph-name="ellipsis" unicode="&#x2026;" horiz-adv-x="553" 
d="M405 0v118h110v-118h-110zM221 0v118h110v-118h-110zM37 0v118h110v-118h-110z" />
    <glyph glyph-name="perthousand" unicode="&#x2030;" horiz-adv-x="953" 
d="M916 59q0 -59 -59 -59h-131q-60 0 -60 59v262q0 59 60 59h131q59 0 59 -59v-262v0zM287 443q0 -59 -59 -59h-132q-59 0 -59 59v262q0 59 59 59h132q59 0 59 -59v-262v0zM164 0h-89v7l416 757h89v-7zM620 59q0 -59 -59 -59h-133q-59 0 -59 59v262q0 59 59 59h133
q59 0 59 -62v-259v0zM834 309h-86v-238h86v238zM205 693h-87v-238h87v238zM537 309h-86v-238h86v238z" />
    <glyph glyph-name="guilsinglleft" unicode="&#x2039;" horiz-adv-x="318" 
d="M156 76l-124 186v18l124 186h122v-4l-127 -191l127 -191v-4h-122z" />
    <glyph glyph-name="guilsinglright" unicode="&#x203a;" horiz-adv-x="318" 
d="M161 76h-122v4l127 191l-127 191v4h122l125 -186v-18z" />
    <glyph glyph-name="trademark" unicode="&#x2122;" horiz-adv-x="600" 
d="M493 323v237l-48 -194h-43l-48 194v-237h-70v441h75l65 -235l66 235h74v-441h-71zM172 698v-375h-71v375h-76v66h222v-66h-75z" />
    <glyph glyph-name="NUL" horiz-adv-x="0" 
 />
    <glyph glyph-name="notequal" horiz-adv-x="491" 
d="M408 667v-174h71v-95h-71v-398h-111v398h-122v-398h-111v398h-51v95h51v210q0 61 62 61h131v-97h-82v-174h122v210q0 61 63 61h130v-97h-82z" />
    <glyph glyph-name="infinity" horiz-adv-x="683" 
d="M530 0v398h-122v-398h-111v398h-122v-398h-111v398h-51v95h51v210q0 61 62 61h131v-97h-82v-174h122v210q0 61 63 61h219q62 0 62 -61v-139h-111v103h-122v-174h233v-493h-111z" />
    <glyph glyph-name="lessequal" 
d="M424 57q0 -27 -15.5 -42t-43.5 -15h-261q-29 0 -44 15t-15 42v650q0 27 15 42t44 15h261q28 0 43.5 -15t15.5 -42v-650v0zM331 680h-195v-98h195v98zM331 513h-195v-97h195v97zM331 348h-195v-98h195v98zM331 181h-195v-97h195v97z" />
    <glyph glyph-name="greaterequal" 
d="M424 57q0 -27 -15.5 -42t-43.5 -15h-261q-29 0 -44 15t-15 42v650q0 27 15 42t44 15h261q28 0 43.5 -15t15.5 -42v-650v0zM331 680h-195v-98h195v98zM331 513h-195v-97h195v97zM331 348h-195v-98h195v98zM331 181h-195v-97h195v97z" />
    <glyph glyph-name="partialdiff" 
d="M424 57q0 -27 -15.5 -42t-43.5 -15h-261q-29 0 -44 15t-15 42v650q0 27 15 42t44 15h261q28 0 43.5 -15t15.5 -42v-650v0zM331 680h-195v-98h195v98zM331 513h-195v-97h195v97zM331 348h-195v-98h195v98zM331 181h-195v-97h195v97z" />
    <glyph glyph-name="summation" 
d="M424 57q0 -27 -15.5 -42t-43.5 -15h-261q-29 0 -44 15t-15 42v650q0 27 15 42t44 15h261q28 0 43.5 -15t15.5 -42v-650v0zM331 680h-195v-98h195v98zM331 513h-195v-97h195v97zM331 348h-195v-98h195v98zM331 181h-195v-97h195v97z" />
    <glyph glyph-name="product" 
d="M424 57q0 -27 -15.5 -42t-43.5 -15h-261q-29 0 -44 15t-15 42v650q0 27 15 42t44 15h261q28 0 43.5 -15t15.5 -42v-650v0zM331 680h-195v-98h195v98zM331 513h-195v-97h195v97zM331 348h-195v-98h195v98zM331 181h-195v-97h195v97z" />
    <glyph glyph-name="pi" horiz-adv-x="583" 
d="M538 44q0 -44 -44 -44h-405q-44 0 -44 44v676q0 44 44 44h405q44 0 44 -44v-676v0zM486 714h-389v-664h389v664zM404 366q0 -21 -12 -33.5t-34 -12.5h-100v-152h-80v430h180q46 0 46 -46v-186v0zM325 532h-67v-146h67v146z" />
    <glyph glyph-name="integral" 
d="M424 57q0 -27 -15.5 -42t-43.5 -15h-261q-29 0 -44 15t-15 42v650q0 27 15 42t44 15h261q28 0 43.5 -15t15.5 -42v-650v0zM331 680h-195v-98h195v98zM331 513h-195v-97h195v97zM331 348h-195v-98h195v98zM331 181h-195v-97h195v97z" />
    <glyph glyph-name="Omega" horiz-adv-x="465" 
d="M306 0v305h-146v-305h-114v694q0 70 69 70h235q70 0 70 -70v-694h-114zM306 666h-146v-264h146v264z" />
    <glyph glyph-name="radical" horiz-adv-x="475" 
d="M251 -1h-112l-130 261v4h124l53 -139l162 639h118z" />
    <glyph glyph-name="approxequal" 
d="M424 57q0 -27 -15.5 -42t-43.5 -15h-261q-29 0 -44 15t-15 42v650q0 27 15 42t44 15h261q28 0 43.5 -15t15.5 -42v-650v0zM331 680h-195v-98h195v98zM331 513h-195v-97h195v97zM331 348h-195v-98h195v98zM331 181h-195v-97h195v97z" />
    <glyph glyph-name="Delta" horiz-adv-x="470" 
d="M425 354q0 -34 -17.5 -52t-46.5 -18h-69v-284h-115v284h-68q-29 0 -46 18t-17 52v410h116v-381h146v381h117v-410v0z" />
    <glyph glyph-name="nonbreakingspace" horiz-adv-x="103" 
 />
    <glyph glyph-name="lozenge" 
d="M424 57q0 -27 -15.5 -42t-43.5 -15h-261q-29 0 -44 15t-15 42v650q0 27 15 42t44 15h261q28 0 43.5 -15t15.5 -42v-650v0zM331 680h-195v-98h195v98zM331 513h-195v-97h195v97zM331 348h-195v-98h195v98zM331 181h-195v-97h195v97z" />
    <glyph glyph-name="apple" 
d="M424 57q0 -27 -15.5 -42t-43.5 -15h-261q-29 0 -44 15t-15 42v650q0 27 15 42t44 15h261q28 0 43.5 -15t15.5 -42v-650v0zM331 680h-195v-98h195v98zM331 513h-195v-97h195v97zM331 348h-195v-98h195v98zM331 181h-195v-97h195v97z" />
    </font>
</defs>
</svg>
